<?xml version="1.0" encoding="UTF-8" standalone="no"?>
<!-- Created with Inkscape (http://www.inkscape.org/) -->

<svg
   xmlns:dc="http://purl.org/dc/elements/1.1/"
   xmlns:cc="http://creativecommons.org/ns#"
   xmlns:rdf="http://www.w3.org/1999/02/22-rdf-syntax-ns#"
   xmlns:svg="http://www.w3.org/2000/svg"
   xmlns="http://www.w3.org/2000/svg"
   xmlns:xlink="http://www.w3.org/1999/xlink"
   xmlns:sodipodi="http://sodipodi.sourceforge.net/DTD/sodipodi-0.dtd"
   xmlns:inkscape="http://www.inkscape.org/namespaces/inkscape"
   width="108.48032mm"
   height="87.597153mm"
   viewBox="0 0 384.37907 310.38361"
   id="svg4452"
   version="1.1"
   inkscape:version="0.91 r13725"
   sodipodi:docname="cucumber-tdd-cycle.svg"
   inkscape:export-filename="/Users/aslakhellesoy/github/cucumber-ltd/brand/png/cucumber-tdd-cycle.png"
   inkscape:export-xdpi="119.88"
   inkscape:export-ydpi="119.88">
  <defs
     id="defs4454" />
  <sodipodi:namedview
     id="base"
     pagecolor="#ffffff"
     bordercolor="#666666"
     borderopacity="1.0"
     inkscape:pageopacity="1"
     inkscape:pageshadow="2"
     inkscape:zoom="1.979899"
     inkscape:cx="101.26266"
     inkscape:cy="135.91688"
     inkscape:document-units="px"
     inkscape:current-layer="layer1"
     showgrid="false"
     inkscape:window-width="1440"
     inkscape:window-height="851"
     inkscape:window-x="0"
     inkscape:window-y="0"
     inkscape:window-maximized="1"
     fit-margin-top="1"
     fit-margin-left="1"
     fit-margin-right="1"
     fit-margin-bottom="1" />
  <metadata
     id="metadata4457">
    <rdf:RDF>
      <cc:Work
         rdf:about="">
        <dc:format>image/svg+xml</dc:format>
        <dc:type
           rdf:resource="http://purl.org/dc/dcmitype/StillImage" />
        <dc:title></dc:title>
      </cc:Work>
    </rdf:RDF>
  </metadata>
  <g
     inkscape:label="Layer 1"
     inkscape:groupmode="layer"
     id="layer1"
     transform="translate(-167.00064,-104.06271)">
    <circle
       style="fill:none;fill-opacity:1;fill-rule:evenodd;stroke:#1b1d1e;stroke-width:2.9413805;stroke-linecap:butt;stroke-linejoin:miter;stroke-miterlimit:4;stroke-dasharray:none;stroke-opacity:1"
       id="path5000"
       cx="-343.72156"
       cy="264.64139"
       r="95.093056"
       transform="scale(-1,1)" />
    <path
       sodipodi:type="star"
       style="opacity:1;fill:#1b1d1e;fill-opacity:1;fill-rule:evenodd;stroke:#1b1d1e;stroke-width:8.78368282;stroke-miterlimit:4;stroke-dasharray:none;stroke-opacity:1"
       id="path5036"
       sodipodi:sides="3"
       sodipodi:cx="340.42142"
       sodipodi:cy="168.47873"
       sodipodi:r1="73.803375"
       sodipodi:r2="36.901688"
       sodipodi:arg1="0.5310301"
       sodipodi:arg2="1.5782277"
       inkscape:flatsided="false"
       inkscape:rounded="0"
       inkscape:randomized="0"
       d="m 404.06102,205.85437 -63.91383,-0.47497 -63.91383,-0.47498 32.36825,-55.11351 32.36826,-55.113518 31.54558,55.588488 z"
       inkscape:transform-center-x="-1.7325526"
       inkscape:transform-center-y="1.738591"
       transform="matrix(-0.11922992,0.11755205,0.11755205,0.11922992,295.9425,269.60248)" />
    <path
       transform="matrix(0.11755205,0.11922992,0.11922992,-0.11755205,348.48798,312.50295)"
       inkscape:transform-center-y="-1.7325504"
       inkscape:transform-center-x="-1.7385908"
       d="m 404.06102,205.85437 -63.91383,-0.47497 -63.91383,-0.47498 32.36825,-55.11351 32.36826,-55.113518 31.54558,55.588488 z"
       inkscape:randomized="0"
       inkscape:rounded="0"
       inkscape:flatsided="false"
       sodipodi:arg2="1.5782277"
       sodipodi:arg1="0.5310301"
       sodipodi:r2="36.901688"
       sodipodi:r1="73.803375"
       sodipodi:cy="168.47873"
       sodipodi:cx="340.42142"
       sodipodi:sides="3"
       id="path5038"
       style="opacity:1;fill:#1b1d1e;fill-opacity:1;fill-rule:evenodd;stroke:#1b1d1e;stroke-width:8.78368282;stroke-miterlimit:4;stroke-dasharray:none;stroke-opacity:1"
       sodipodi:type="star" />
    <path
       sodipodi:type="star"
       style="opacity:1;fill:#1b1d1e;fill-opacity:1;fill-rule:evenodd;stroke:#1b1d1e;stroke-width:8.78368282;stroke-miterlimit:4;stroke-dasharray:none;stroke-opacity:1"
       id="path5040"
       sodipodi:sides="3"
       sodipodi:cx="340.42142"
       sodipodi:cy="168.47873"
       sodipodi:r1="73.803375"
       sodipodi:r2="36.901688"
       sodipodi:arg1="0.5310301"
       sodipodi:arg2="1.5782277"
       inkscape:flatsided="false"
       inkscape:rounded="0"
       inkscape:randomized="0"
       d="m 404.06102,205.85437 -63.91383,-0.47497 -63.91383,-0.47498 32.36825,-55.11351 32.36826,-55.113518 31.54558,55.588488 z"
       inkscape:transform-center-x="1.7325369"
       inkscape:transform-center-y="-1.7385977"
       transform="matrix(0.11922992,-0.11755205,-0.11755205,-0.11922992,391.38846,259.95746)" />
    <path
       transform="matrix(-0.11755205,-0.11922992,-0.11922992,0.11755205,338.84296,217.05699)"
       inkscape:transform-center-y="1.7325391"
       inkscape:transform-center-x="1.7385973"
       d="m 404.06102,205.85437 -63.91383,-0.47497 -63.91383,-0.47498 32.36825,-55.11351 32.36826,-55.113518 31.54558,55.588488 z"
       inkscape:randomized="0"
       inkscape:rounded="0"
       inkscape:flatsided="false"
       sodipodi:arg2="1.5782277"
       sodipodi:arg1="0.5310301"
       sodipodi:r2="36.901688"
       sodipodi:r1="73.803375"
       sodipodi:cy="168.47873"
       sodipodi:cx="340.42142"
       sodipodi:sides="3"
       id="path5042"
       style="opacity:1;fill:#1b1d1e;fill-opacity:1;fill-rule:evenodd;stroke:#1b1d1e;stroke-width:8.78368282;stroke-miterlimit:4;stroke-dasharray:none;stroke-opacity:1"
       sodipodi:type="star" />
    <g
       id="g5096"
       transform="translate(326.9822,154.39449)">
      <g
         style="display:inline"
         inkscape:label="bubble"
         id="layer1-5">
        <path
           inkscape:connector-curvature="0"
           id="path3943"
           d="m 16.4375,0.5625 c -9.0505334,0 -16.375,7.3244666 -16.375,16.375 0,7.968438 5.7120487,14.589408 13.25,16.0625 l 0,4.6875 C 23.112594,36.209998 31.789985,28.430631 32.4375,18.21875 32.82725,12.072053 29.762545,5.7970183 24.59375,2.75 24.297815,2.5755457 23.997146,2.4023576 23.6875,2.25 23.371984,2.0947542 23.047989,1.9434484 22.71875,1.8125 22.61424,1.7687818 22.511836,1.7291224 22.40625,1.6875 22.118693,1.5813485 21.828537,1.4618138 21.53125,1.375 19.928923,0.8468741 18.21606,0.5625 16.4375,0.5625 Z"
           style="fill:#ffda00;fill-opacity:1;stroke:none;stroke-width:0.09999999;stroke-linecap:butt;stroke-linejoin:miter;stroke-miterlimit:4;stroke-dasharray:none;stroke-opacity:1" />
      </g>
      <path
         id="rect4005"
         d="m 19.8125,6.625 c -0.560156,-0.057422 -1.15,0.1375 -1.5625,0.625 -0.3,0.4 -0.4875,0.7875 -0.6875,1.1875 -0.6,1.4 -0.4,2.9 0.5,4 1.4,-0.3 2.5875,-1.19375 3.1875,-2.59375 0.2,-0.4 0.3125,-0.9125 0.3125,-1.3125 C 21.625,7.46875 20.746094,6.7207031 19.8125,6.625 Z M 12.53125,6.71875 C 11.618164,6.8056641 10.75,7.53125 10.75,8.53125 c 0,0.4 0.1125,0.9125 0.3125,1.3125 0.6,1.4 1.88125,2.29375 3.28125,2.59375 0.8,-1.1 1.00625,-2.6 0.40625,-4 -0.2,-0.4 -0.3875,-0.79375 -0.6875,-1.09375 C 13.65,6.85625 13.079102,6.6666016 12.53125,6.71875 Z M 7.625,11.53125 c -1.5769043,0.08093 -2.28125,2.0625 -0.96875,3.09375 0.4,0.3 0.7875,0.51875 1.1875,0.71875 1.4,0.6 3.01875,0.39375 4.21875,-0.40625 -0.3,-1.3 -1.31875,-2.49375 -2.71875,-3.09375 -0.5,-0.2 -0.90625,-0.3125 -1.40625,-0.3125 -0.1125,-0.0125 -0.207373,-0.0054 -0.3125,0 z m 15.40625,6.0625 c -0.916016,-0.01758 -1.84375,0.25 -2.59375,0.75 0.3,1.3 1.31875,2.49375 2.71875,3.09375 0.5,0.2 0.90625,0.3125 1.40625,0.3125 1.8,0.1 2.68125,-2.125 1.28125,-3.125 -0.4,-0.3 -0.7875,-0.4875 -1.1875,-0.6875 -0.525,-0.225 -1.075391,-0.333203 -1.625,-0.34375 z M 9.375,17.6875 c -0.5496094,0.01055 -1.1,0.11875 -1.625,0.34375 -0.5,0.2 -0.8875,0.41875 -1.1875,0.71875 -1.3,1.1 -0.425,3.19375 1.375,3.09375 0.5,0 1.00625,-0.1125 1.40625,-0.3125 1.4,-0.6 2.39375,-1.79375 2.59375,-3.09375 -0.75,-0.5 -1.646484,-0.767578 -2.5625,-0.75 z m 5.0625,3.0625 c -1.4,0.3 -2.5875,1.19375 -3.1875,2.59375 -0.2,0.4 -0.3125,0.88125 -0.3125,1.28125 -0.1,1.7 2.21875,2.6125 3.21875,1.3125 0.3,-0.4 0.4875,-0.7875 0.6875,-1.1875 0.6,-1.3 0.39375,-2.8 -0.40625,-4 z m 3.71875,0.09375 c -0.8,1.1 -1.00625,2.6 -0.40625,4 0.2,0.4 0.3875,0.79375 0.6875,1.09375 1.1,1.2 3.4125,0.3125 3.3125,-1.1875 0,-0.4 -0.1125,-0.9125 -0.3125,-1.3125 -0.6,-1.4 -1.88125,-2.29375 -3.28125,-2.59375 z"
         style="fill:#ffffff;fill-opacity:1;stroke:none;stroke-width:0.1;stroke-miterlimit:4;stroke-dasharray:none;stroke-opacity:1"
         inkscape:connector-curvature="0" />
    </g>
    <g
       id="g5153"
       transform="translate(326.9822,338.38006)">
      <g
         style="display:inline"
         inkscape:label="bubble"
         id="layer1-2">
        <path
           inkscape:connector-curvature="0"
           id="path3943-6"
           d="m 16.4375,0.5625 c -9.0505334,0 -16.375,7.3244666 -16.375,16.375 0,7.968438 5.7120487,14.589408 13.25,16.0625 l 0,4.6875 C 23.112594,36.209998 31.789985,28.430631 32.4375,18.21875 32.82725,12.072053 29.762545,5.7970183 24.59375,2.75 24.297815,2.5755457 23.997146,2.4023576 23.6875,2.25 23.371984,2.0947542 23.047989,1.9434484 22.71875,1.8125 22.61424,1.7687818 22.511836,1.7291224 22.40625,1.6875 22.118693,1.5813485 21.828537,1.4618138 21.53125,1.375 19.928923,0.8468741 18.21606,0.5625 16.4375,0.5625 Z"
           style="fill:#00a818;fill-opacity:1;stroke:none;stroke-width:0.09999999;stroke-linecap:butt;stroke-linejoin:miter;stroke-miterlimit:4;stroke-dasharray:none;stroke-opacity:1" />
      </g>
      <path
         id="rect4005-4"
         d="m 19.8125,6.625 c -0.560156,-0.057422 -1.15,0.1375 -1.5625,0.625 -0.3,0.4 -0.4875,0.7875 -0.6875,1.1875 -0.6,1.4 -0.4,2.9 0.5,4 1.4,-0.3 2.5875,-1.19375 3.1875,-2.59375 0.2,-0.4 0.3125,-0.9125 0.3125,-1.3125 C 21.625,7.46875 20.746094,6.7207031 19.8125,6.625 Z M 12.53125,6.71875 C 11.618164,6.8056641 10.75,7.53125 10.75,8.53125 c 0,0.4 0.1125,0.9125 0.3125,1.3125 0.6,1.4 1.88125,2.29375 3.28125,2.59375 0.8,-1.1 1.00625,-2.6 0.40625,-4 -0.2,-0.4 -0.3875,-0.79375 -0.6875,-1.09375 C 13.65,6.85625 13.079102,6.6666016 12.53125,6.71875 Z M 7.625,11.53125 c -1.5769043,0.08093 -2.28125,2.0625 -0.96875,3.09375 0.4,0.3 0.7875,0.51875 1.1875,0.71875 1.4,0.6 3.01875,0.39375 4.21875,-0.40625 -0.3,-1.3 -1.31875,-2.49375 -2.71875,-3.09375 -0.5,-0.2 -0.90625,-0.3125 -1.40625,-0.3125 -0.1125,-0.0125 -0.207373,-0.0054 -0.3125,0 z m 15.40625,6.0625 c -0.916016,-0.01758 -1.84375,0.25 -2.59375,0.75 0.3,1.3 1.31875,2.49375 2.71875,3.09375 0.5,0.2 0.90625,0.3125 1.40625,0.3125 1.8,0.1 2.68125,-2.125 1.28125,-3.125 -0.4,-0.3 -0.7875,-0.4875 -1.1875,-0.6875 -0.525,-0.225 -1.075391,-0.333203 -1.625,-0.34375 z M 9.375,17.6875 c -0.5496094,0.01055 -1.1,0.11875 -1.625,0.34375 -0.5,0.2 -0.8875,0.41875 -1.1875,0.71875 -1.3,1.1 -0.425,3.19375 1.375,3.09375 0.5,0 1.00625,-0.1125 1.40625,-0.3125 1.4,-0.6 2.39375,-1.79375 2.59375,-3.09375 -0.75,-0.5 -1.646484,-0.767578 -2.5625,-0.75 z m 5.0625,3.0625 c -1.4,0.3 -2.5875,1.19375 -3.1875,2.59375 -0.2,0.4 -0.3125,0.88125 -0.3125,1.28125 -0.1,1.7 2.21875,2.6125 3.21875,1.3125 0.3,-0.4 0.4875,-0.7875 0.6875,-1.1875 0.6,-1.3 0.39375,-2.8 -0.40625,-4 z m 3.71875,0.09375 c -0.8,1.1 -1.00625,2.6 -0.40625,4 0.2,0.4 0.3875,0.79375 0.6875,1.09375 1.1,1.2 3.4125,0.3125 3.3125,-1.1875 0,-0.4 -0.1125,-0.9125 -0.3125,-1.3125 -0.6,-1.4 -1.88125,-2.29375 -3.28125,-2.59375 z"
         style="fill:#ffffff;fill-opacity:1;stroke:none;stroke-width:0.1;stroke-miterlimit:4;stroke-dasharray:none;stroke-opacity:1"
         inkscape:connector-curvature="0" />
    </g>
    <g
       id="g5210"
       transform="translate(418.30481,245.09434)">
      <g
         style="display:inline"
         inkscape:label="bubble"
         id="layer1-4">
        <path
           inkscape:export-ydpi="426.66666"
           inkscape:export-xdpi="426.66666"
           inkscape:export-filename="/Users/aslakhellesoy/github/cucumber-ltd/brand/png/cucumber-red-mark.png"
           inkscape:connector-curvature="0"
           id="path3943-2"
           d="m 16.4375,0.5625 c -9.0505334,0 -16.375,7.3244666 -16.375,16.375 0,7.968438 5.7120487,14.589408 13.25,16.0625 l 0,4.6875 C 23.112594,36.209998 31.789985,28.430631 32.4375,18.21875 32.82725,12.072053 29.762545,5.7970183 24.59375,2.75 24.297815,2.5755457 23.997146,2.4023576 23.6875,2.25 23.371984,2.0947542 23.047989,1.9434484 22.71875,1.8125 22.61424,1.7687818 22.511836,1.7291224 22.40625,1.6875 22.118693,1.5813485 21.828537,1.4618138 21.53125,1.375 19.928923,0.8468741 18.21606,0.5625 16.4375,0.5625 Z"
           style="fill:#ff1245;fill-opacity:1;stroke:none;stroke-width:0.09999999;stroke-linecap:butt;stroke-linejoin:miter;stroke-miterlimit:4;stroke-dasharray:none;stroke-opacity:1" />
      </g>
      <path
         id="rect4005-9"
         d="m 19.8125,6.625 c -0.560156,-0.057422 -1.15,0.1375 -1.5625,0.625 -0.3,0.4 -0.4875,0.7875 -0.6875,1.1875 -0.6,1.4 -0.4,2.9 0.5,4 1.4,-0.3 2.5875,-1.19375 3.1875,-2.59375 0.2,-0.4 0.3125,-0.9125 0.3125,-1.3125 C 21.625,7.46875 20.746094,6.7207031 19.8125,6.625 Z M 12.53125,6.71875 C 11.618164,6.8056641 10.75,7.53125 10.75,8.53125 c 0,0.4 0.1125,0.9125 0.3125,1.3125 0.6,1.4 1.88125,2.29375 3.28125,2.59375 0.8,-1.1 1.00625,-2.6 0.40625,-4 -0.2,-0.4 -0.3875,-0.79375 -0.6875,-1.09375 C 13.65,6.85625 13.079102,6.6666016 12.53125,6.71875 Z M 7.625,11.53125 c -1.5769043,0.08093 -2.28125,2.0625 -0.96875,3.09375 0.4,0.3 0.7875,0.51875 1.1875,0.71875 1.4,0.6 3.01875,0.39375 4.21875,-0.40625 -0.3,-1.3 -1.31875,-2.49375 -2.71875,-3.09375 -0.5,-0.2 -0.90625,-0.3125 -1.40625,-0.3125 -0.1125,-0.0125 -0.207373,-0.0054 -0.3125,0 z m 15.40625,6.0625 c -0.916016,-0.01758 -1.84375,0.25 -2.59375,0.75 0.3,1.3 1.31875,2.49375 2.71875,3.09375 0.5,0.2 0.90625,0.3125 1.40625,0.3125 1.8,0.1 2.68125,-2.125 1.28125,-3.125 -0.4,-0.3 -0.7875,-0.4875 -1.1875,-0.6875 -0.525,-0.225 -1.075391,-0.333203 -1.625,-0.34375 z M 9.375,17.6875 c -0.5496094,0.01055 -1.1,0.11875 -1.625,0.34375 -0.5,0.2 -0.8875,0.41875 -1.1875,0.71875 -1.3,1.1 -0.425,3.19375 1.375,3.09375 0.5,0 1.00625,-0.1125 1.40625,-0.3125 1.4,-0.6 2.39375,-1.79375 2.59375,-3.09375 -0.75,-0.5 -1.646484,-0.767578 -2.5625,-0.75 z m 5.0625,3.0625 c -1.4,0.3 -2.5875,1.19375 -3.1875,2.59375 -0.2,0.4 -0.3125,0.88125 -0.3125,1.28125 -0.1,1.7 2.21875,2.6125 3.21875,1.3125 0.3,-0.4 0.4875,-0.7875 0.6875,-1.1875 0.6,-1.3 0.39375,-2.8 -0.40625,-4 z m 3.71875,0.09375 c -0.8,1.1 -1.00625,2.6 -0.40625,4 0.2,0.4 0.3875,0.79375 0.6875,1.09375 1.1,1.2 3.4125,0.3125 3.3125,-1.1875 0,-0.4 -0.1125,-0.9125 -0.3125,-1.3125 -0.6,-1.4 -1.88125,-2.29375 -3.28125,-2.59375 z"
         style="fill:#ffffff;fill-opacity:1;stroke:none;stroke-width:0.1;stroke-miterlimit:4;stroke-dasharray:none;stroke-opacity:1"
         inkscape:connector-curvature="0" />
    </g>
    <g
       id="g5267"
       transform="translate(233.0191,245.09434)">
      <g
         style="display:inline"
         inkscape:label="bubble"
         id="layer1-0">
        <path
           inkscape:connector-curvature="0"
           id="path3943-0"
           d="m 16.4375,0.5625 c -9.0505334,0 -16.375,7.3244666 -16.375,16.375 0,7.968438 5.7120487,14.589408 13.25,16.0625 l 0,4.6875 C 23.112594,36.209998 31.789985,28.430631 32.4375,18.21875 32.82725,12.072053 29.762545,5.7970183 24.59375,2.75 24.297815,2.5755457 23.997146,2.4023576 23.6875,2.25 23.371984,2.0947542 23.047989,1.9434484 22.71875,1.8125 22.61424,1.7687818 22.511836,1.7291224 22.40625,1.6875 22.118693,1.5813485 21.828537,1.4618138 21.53125,1.375 19.928923,0.8468741 18.21606,0.5625 16.4375,0.5625 Z"
           style="fill:#00a818;fill-opacity:1;stroke:none;stroke-width:0.09999999;stroke-linecap:butt;stroke-linejoin:miter;stroke-miterlimit:4;stroke-dasharray:none;stroke-opacity:1" />
      </g>
      <path
         id="rect4005-8"
         d="m 19.8125,6.625 c -0.560156,-0.057422 -1.15,0.1375 -1.5625,0.625 -0.3,0.4 -0.4875,0.7875 -0.6875,1.1875 -0.6,1.4 -0.4,2.9 0.5,4 1.4,-0.3 2.5875,-1.19375 3.1875,-2.59375 0.2,-0.4 0.3125,-0.9125 0.3125,-1.3125 C 21.625,7.46875 20.746094,6.7207031 19.8125,6.625 Z M 12.53125,6.71875 C 11.618164,6.8056641 10.75,7.53125 10.75,8.53125 c 0,0.4 0.1125,0.9125 0.3125,1.3125 0.6,1.4 1.88125,2.29375 3.28125,2.59375 0.8,-1.1 1.00625,-2.6 0.40625,-4 -0.2,-0.4 -0.3875,-0.79375 -0.6875,-1.09375 C 13.65,6.85625 13.079102,6.6666016 12.53125,6.71875 Z M 7.625,11.53125 c -1.5769043,0.08093 -2.28125,2.0625 -0.96875,3.09375 0.4,0.3 0.7875,0.51875 1.1875,0.71875 1.4,0.6 3.01875,0.39375 4.21875,-0.40625 -0.3,-1.3 -1.31875,-2.49375 -2.71875,-3.09375 -0.5,-0.2 -0.90625,-0.3125 -1.40625,-0.3125 -0.1125,-0.0125 -0.207373,-0.0054 -0.3125,0 z m 15.40625,6.0625 c -0.916016,-0.01758 -1.84375,0.25 -2.59375,0.75 0.3,1.3 1.31875,2.49375 2.71875,3.09375 0.5,0.2 0.90625,0.3125 1.40625,0.3125 1.8,0.1 2.68125,-2.125 1.28125,-3.125 -0.4,-0.3 -0.7875,-0.4875 -1.1875,-0.6875 -0.525,-0.225 -1.075391,-0.333203 -1.625,-0.34375 z M 9.375,17.6875 c -0.5496094,0.01055 -1.1,0.11875 -1.625,0.34375 -0.5,0.2 -0.8875,0.41875 -1.1875,0.71875 -1.3,1.1 -0.425,3.19375 1.375,3.09375 0.5,0 1.00625,-0.1125 1.40625,-0.3125 1.4,-0.6 2.39375,-1.79375 2.59375,-3.09375 -0.75,-0.5 -1.646484,-0.767578 -2.5625,-0.75 z m 5.0625,3.0625 c -1.4,0.3 -2.5875,1.19375 -3.1875,2.59375 -0.2,0.4 -0.3125,0.88125 -0.3125,1.28125 -0.1,1.7 2.21875,2.6125 3.21875,1.3125 0.3,-0.4 0.4875,-0.7875 0.6875,-1.1875 0.6,-1.3 0.39375,-2.8 -0.40625,-4 z m 3.71875,0.09375 c -0.8,1.1 -1.00625,2.6 -0.40625,4 0.2,0.4 0.3875,0.79375 0.6875,1.09375 1.1,1.2 3.4125,0.3125 3.3125,-1.1875 0,-0.4 -0.1125,-0.9125 -0.3125,-1.3125 -0.6,-1.4 -1.88125,-2.29375 -3.28125,-2.59375 z"
         style="fill:#ffffff;fill-opacity:1;stroke:none;stroke-width:0.1;stroke-miterlimit:4;stroke-dasharray:none;stroke-opacity:1"
         inkscape:connector-curvature="0" />
    </g>
    <text
       xml:space="preserve"
       style="font-style:normal;font-weight:normal;font-size:40px;line-height:125%;font-family:Sans;letter-spacing:0px;word-spacing:0px;fill:#000000;fill-opacity:1;stroke:none;stroke-width:1px;stroke-linecap:butt;stroke-linejoin:miter;stroke-opacity:1"
       x="343.97723"
       y="117.10309"
       id="text5272"
       sodipodi:linespacing="125%"><tspan
         sodipodi:role="line"
         id="tspan5274"
         x="345.96698"
         y="117.10309"
         style="font-style:normal;font-variant:normal;font-weight:normal;font-stretch:normal;font-size:12.5px;line-height:125%;font-family:Sans;-inkscape-font-specification:'Sans, Normal';text-align:center;writing-mode:lr-tb;text-anchor:middle">Write </tspan><tspan
         sodipodi:role="line"
         x="345.96698"
         y="132.72809"
         id="tspan5276"
         style="font-style:normal;font-variant:normal;font-weight:normal;font-stretch:normal;font-size:12.5px;line-height:125%;font-family:Sans;-inkscape-font-specification:'Sans, Normal';text-align:center;writing-mode:lr-tb;text-anchor:middle">undefined </tspan><tspan
         sodipodi:role="line"
         x="343.97723"
         y="148.35309"
         style="font-style:normal;font-variant:normal;font-weight:normal;font-stretch:normal;font-size:12.5px;line-height:125%;font-family:Sans;-inkscape-font-specification:'Sans, Normal';text-align:center;writing-mode:lr-tb;text-anchor:middle"
         id="tspan5307">Step</tspan></text>
    <text
       xml:space="preserve"
       style="font-style:normal;font-weight:normal;font-size:40px;line-height:125%;font-family:Sans;letter-spacing:0px;word-spacing:0px;fill:#000000;fill-opacity:1;stroke:none;stroke-width:1px;stroke-linecap:butt;stroke-linejoin:miter;stroke-opacity:1"
       x="502.42624"
       y="258.76538"
       id="text5272-7"
       sodipodi:linespacing="125%"><tspan
         sodipodi:role="line"
         x="502.42624"
         y="258.76538"
         id="tspan5276-7"
         style="font-style:normal;font-variant:normal;font-weight:normal;font-stretch:normal;font-size:12.5px;line-height:125%;font-family:Sans;-inkscape-font-specification:'Sans, Normal';text-align:center;writing-mode:lr-tb;text-anchor:middle">Write failing</tspan><tspan
         sodipodi:role="line"
         x="502.42624"
         y="274.39038"
         style="font-style:normal;font-variant:normal;font-weight:normal;font-stretch:normal;font-size:12.5px;line-height:125%;font-family:Sans;-inkscape-font-specification:'Sans, Normal';text-align:center;writing-mode:lr-tb;text-anchor:middle"
         id="tspan5301">Step Definition</tspan></text>
    <text
       xml:space="preserve"
       style="font-style:normal;font-weight:normal;font-size:40px;line-height:125%;font-family:Sans;letter-spacing:0px;word-spacing:0px;fill:#000000;fill-opacity:1;stroke:none;stroke-width:1px;stroke-linecap:butt;stroke-linejoin:miter;stroke-opacity:1"
       x="345.44623"
       y="392.67792"
       id="text5272-5"
       sodipodi:linespacing="125%"><tspan
         sodipodi:role="line"
         x="345.44623"
         y="392.67792"
         style="font-style:normal;font-variant:normal;font-weight:normal;font-stretch:normal;font-size:12.5px;line-height:125%;font-family:Sans;-inkscape-font-specification:'Sans, Normal';text-align:center;writing-mode:lr-tb;text-anchor:middle"
         id="tspan5307-3">Make it</tspan><tspan
         sodipodi:role="line"
         x="345.44623"
         y="408.30292"
         style="font-style:normal;font-variant:normal;font-weight:normal;font-stretch:normal;font-size:12.5px;line-height:125%;font-family:Sans;-inkscape-font-specification:'Sans, Normal';text-align:center;writing-mode:lr-tb;text-anchor:middle"
         id="tspan5338">pass</tspan></text>
    <text
       xml:space="preserve"
       style="font-style:normal;font-weight:normal;font-size:40px;line-height:125%;font-family:Sans;letter-spacing:0px;word-spacing:0px;fill:#000000;fill-opacity:1;stroke:none;stroke-width:1px;stroke-linecap:butt;stroke-linejoin:miter;stroke-opacity:1"
       x="198.97412"
       y="258.8327"
       id="text5272-1"
       sodipodi:linespacing="125%"><tspan
         sodipodi:role="line"
         x="198.97412"
         y="258.8327"
         style="font-style:normal;font-variant:normal;font-weight:normal;font-stretch:normal;font-size:12.5px;line-height:125%;font-family:Sans;-inkscape-font-specification:'Sans, Normal';text-align:center;writing-mode:lr-tb;text-anchor:middle"
         id="tspan5307-2">Clean up</tspan><tspan
         sodipodi:role="line"
         x="198.97412"
         y="274.4577"
         style="font-style:normal;font-variant:normal;font-weight:normal;font-stretch:normal;font-size:12.5px;line-height:125%;font-family:Sans;-inkscape-font-specification:'Sans, Normal';text-align:center;writing-mode:lr-tb;text-anchor:middle"
         id="tspan5357">(refactor)</tspan></text>
    <path
       style="fill:none;fill-opacity:1;fill-rule:evenodd;stroke:none;stroke-width:1.52597165;stroke-linecap:butt;stroke-linejoin:miter;stroke-miterlimit:4;stroke-dasharray:none;stroke-opacity:1"
       d="m 294.45544,267.22332 a 49.333744,49.333744 0 0 1 46.68423,-51.84806 49.333744,49.333744 0 0 1 51.848,46.68422 49.333744,49.333744 0 0 1 -46.68418,51.84802 49.333744,49.333744 0 0 1 -51.84805,-46.68418 z"
       id="path5000-3"
       inkscape:connector-curvature="0" />
    <text
       xml:space="preserve"
       style="font-style:normal;font-weight:normal;font-size:40px;line-height:125%;font-family:Sans;letter-spacing:0px;word-spacing:0px;fill:#000000;fill-opacity:1;stroke:none;stroke-width:1px;stroke-linecap:butt;stroke-linejoin:miter;stroke-opacity:1"
       id="text5272-2"
       sodipodi:linespacing="125%"><textPath
         xlink:href="#path5000-3"
         id="textPath4180"><tspan
   id="tspan5307-9"
   style="font-style:normal;font-variant:normal;font-weight:normal;font-stretch:normal;font-size:12.5px;line-height:125%;font-family:Sans;-inkscape-font-specification:'Sans, Normal';text-align:center;writing-mode:lr-tb;text-anchor:middle">The Cucumber TDD Cycle</tspan></textPath></text>
  </g>
</svg>
