<?xml version="1.0" encoding="UTF-8" standalone="no"?>
<!-- Generator: Adobe Illustrator 18.0.0, SVG Export Plug-In . SVG Version: 6.00 Build 0)  -->

<svg
   xmlns:dc="http://purl.org/dc/elements/1.1/"
   xmlns:cc="http://creativecommons.org/ns#"
   xmlns:rdf="http://www.w3.org/1999/02/22-rdf-syntax-ns#"
   xmlns:svg="http://www.w3.org/2000/svg"
   xmlns="http://www.w3.org/2000/svg"
   xmlns:sodipodi="http://sodipodi.sourceforge.net/DTD/sodipodi-0.dtd"
   xmlns:inkscape="http://www.inkscape.org/namespaces/inkscape"
   version="1.1"
   id="Layer_1"
   x="0px"
   y="0px"
   viewBox="0 0 455.01294 113.0837"
   enable-background="new 0 0 304 102"
   xml:space="preserve"
   inkscape:version="0.48.2 r9819"
   width="100%"
   height="100%"
   sodipodi:docname="cucumber-school-white.svg"
   inkscape:export-filename="/Users/aslakhellesoy/github/cucumber-ltd/brand/png/cucumber-school.png"
   inkscape:export-xdpi="400.58282"
   inkscape:export-ydpi="400.58282"><metadata
   id="metadata3100"><rdf:RDF><cc:Work
       rdf:about=""><dc:format>image/svg+xml</dc:format><dc:type
         rdf:resource="http://purl.org/dc/dcmitype/StillImage" /><dc:title></dc:title></cc:Work></rdf:RDF></metadata><defs
   id="defs3098">
	
	
	
	
	
	
	
	
	

</defs><sodipodi:namedview
   pagecolor="#ffffff"
   bordercolor="#666666"
   borderopacity="1"
   objecttolerance="10"
   gridtolerance="10"
   guidetolerance="10"
   inkscape:pageopacity="0"
   inkscape:pageshadow="2"
   inkscape:window-width="1348"
   inkscape:window-height="747"
   id="namedview3096"
   showgrid="false"
   fit-margin-top="25"
   fit-margin-left="25"
   fit-margin-right="25"
   fit-margin-bottom="25"
   inkscape:zoom="2.3157894"
   inkscape:cx="127.40179"
   inkscape:cy="59.54337"
   inkscape:window-x="52"
   inkscape:window-y="102"
   inkscape:window-maximized="0"
   inkscape:current-layer="Layer_1" />



<g
   id="g8071"
   inkscape:export-filename="/Users/aslakhellesoy/github/cucumber-ltd/brand/png/cucumber-school-white.png"
   inkscape:export-xdpi="400.58282"
   inkscape:export-ydpi="400.58282"><path
     inkscape:export-ydpi="399.68942"
     inkscape:export-xdpi="399.68942"
     inkscape:export-filename="/Users/aslakhellesoy/github/cucumber-ltd/brand/png/cucumber-school-white.png"
     style="fill:#ffffff;fill-opacity:1"
     d="m 247.99999,61.476703 c -3,0 -4.9,1.5 -6.3,3.8 0,-0.6 0.3,-1.3 0.3,-1.8 v -1 h -5 v 25 h 5 v -14.4 c 0,-4.1 2.2,-6.6 6,-6.6 h 1 v -5 h -1 z"
     id="path3080"
     inkscape:connector-curvature="0" /><path
     inkscape:export-ydpi="399.68942"
     inkscape:export-xdpi="399.68942"
     inkscape:export-filename="/Users/aslakhellesoy/github/cucumber-ltd/brand/png/cucumber-school-white.png"
     style="fill:#ffffff;fill-opacity:1"
     d="m 44.699992,70.676703 c -1.399999,-2.2 -3.399999,-3.7 -6.299999,-3.7 -4.6,0 -7.9,3.5 -7.9,7.9 0,4.4 3.3,7.9 7.9,7.9 2.9,0 4.9,-1.4 6.299999,-3.6 l 4.600001,2.7 c -2.200001,3.4 -6.300001,5.9 -10.900001,5.9 -8.5,0 -13.4,-6.4 -13.4,-12.8 0,-6.4 5,-12.8 13.4,-12.8 5.2,0 8.5,2.5 10.9,5.9 l -4.6,2.6 z"
     id="path3082"
     inkscape:connector-curvature="0" /><path
     inkscape:export-ydpi="399.68942"
     inkscape:export-xdpi="399.68942"
     inkscape:export-filename="/Users/aslakhellesoy/github/cucumber-ltd/brand/png/cucumber-school-white.png"
     style="fill:#ffffff;fill-opacity:1"
     d="m 53.699992,62.776703 h 5.200001 v 13.6 c 0,3.6 2.599999,6.1 5.9,6.1 3.2,0 5.9,-2.6 5.9,-6.1 v -13.6 h 5.2 v 14 c 0,6.8 -5.3,10.9 -11.1,10.9 -5.8,0 -11.1,-4.1 -11.1,-10.9 v -14 z"
     id="path3084"
     inkscape:connector-curvature="0" /><path
     inkscape:export-ydpi="399.68942"
     inkscape:export-xdpi="399.68942"
     inkscape:export-filename="/Users/aslakhellesoy/github/cucumber-ltd/brand/png/cucumber-school-white.png"
     style="fill:#ffffff;fill-opacity:1"
     d="m 100.29999,70.676703 c -1.399998,-2.2 -3.399998,-3.7 -6.299997,-3.7 -4.6,0 -7.900001,3.5 -7.900001,7.9 0,4.4 3.3,7.9 7.900001,7.9 2.9,0 4.9,-1.4 6.299997,-3.6 l 4.6,2.7 c -2.2,3.4 -6.299998,5.9 -10.899998,5.9 -8.5,0 -13.4,-6.4 -13.4,-12.8 0,-6.4 4.9,-12.8 13.4,-12.8 5.2,0 8.499998,2.5 10.899998,5.9 l -4.6,2.6 z"
     id="path3086"
     inkscape:connector-curvature="0" /><path
     inkscape:export-ydpi="399.68942"
     inkscape:export-xdpi="399.68942"
     inkscape:export-filename="/Users/aslakhellesoy/github/cucumber-ltd/brand/png/cucumber-school-white.png"
     style="fill:#ffffff;fill-opacity:1"
     d="m 109.29999,62.776703 h 5.2 v 13.6 c 0,3.6 2.6,6.1 5.9,6.1 3.2,0 5.9,-2.6 5.9,-6.1 v -13.6 h 5.2 v 14 c 0,6.8 -5.3,10.9 -11.1,10.9 -5.8,0 -11.1,-4.1 -11.1,-10.9 v -14 z"
     id="path3088"
     inkscape:connector-curvature="0" /><path
     inkscape:export-ydpi="399.68942"
     inkscape:export-xdpi="399.68942"
     inkscape:export-filename="/Users/aslakhellesoy/github/cucumber-ltd/brand/png/cucumber-school-white.png"
     style="fill:#ffffff;fill-opacity:1"
     d="m 137.99999,71.876703 c 0,-6.2 4.1,-9.7 8.9,-9.7 3.7,0 6.3,1.8 7.3,4.3 h 0.1 c 1,-2.6 3.6,-4.3 7.3,-4.3 4.8,0 8.9,3.6 8.9,9.7 v 15.2 h -5.2 v -15.2 c 0,-2.9 -1.8,-4.6 -4,-4.6 -2.5,0 -4.3,1.5 -4.3,5.3 v 14.4 h -5.2 v -14.4 c 0,-3.8 -1.8,-5.3 -4.3,-5.3 -2.2,0 -4,1.7 -4,4.6 v 15.1 h -5.5 v -15.1 z"
     id="path3090"
     inkscape:connector-curvature="0" /><path
     inkscape:export-ydpi="399.68942"
     inkscape:export-xdpi="399.68942"
     inkscape:export-filename="/Users/aslakhellesoy/github/cucumber-ltd/brand/png/cucumber-school-white.png"
     style="fill:#ffffff;fill-opacity:1"
     d="m 176.89999,55.576703 h 5.2 v 10.2 h 0.1 c 1.2,-2 4.5,-3.6 7.9,-3.6 6.3,0 12.6,4.7 12.6,12.8 0,8.1 -6.3,12.8 -12.6,12.8 -3.4,0 -6.7,-1.6 -7.9,-3.6 h -0.1 v 3 h -5.2 v -31.6 z m 12.7,11.5 c -4.3,0 -7.5,3.4 -7.5,7.9 0,4.5 3.2,7.9 7.5,7.9 4.4,0 7.6,-3.4 7.6,-7.9 0,-4.6 -3.2,-7.9 -7.6,-7.9 z"
     id="path3092"
     inkscape:connector-curvature="0" /><path
     inkscape:export-ydpi="399.68942"
     inkscape:export-xdpi="399.68942"
     inkscape:export-filename="/Users/aslakhellesoy/github/cucumber-ltd/brand/png/cucumber-school-white.png"
     style="fill:#ffffff;fill-opacity:1"
     d="m 230.69999,81.776703 c -2.9,3.7 -6.9,5.9 -11.3,5.9 -8.5,0 -13.4,-6.4 -13.4,-12.8 0,-6.4 5,-12.7 13.4,-12.7 5,0 12.6,4.2 12.6,13.6 v 0.9 h -20.1 c 0.3,3.7 3.8,6.4 7.4,6.4 2.8,0 5.2,-1.4 7,-3.8 l 4.4,2.5 z m -4.8,-9.4 c -1.1,-3.7 -3.8,-5.7 -7.2,-5.7 -3.3,0 -6,2.1 -6.9,5.7 h 14.1 z"
     id="path3094"
     inkscape:connector-curvature="0" /><text
     sodipodi:linespacing="125%"
     id="text3111"
     y="87.433708"
     x="278.37701"
     style="font-size:40px;font-style:normal;font-weight:normal;line-height:125%;letter-spacing:0px;word-spacing:0px;fill:#ff7f00;fill-opacity:1;stroke:none;font-family:Sans"
     xml:space="preserve"><tspan
       style="font-size:50px;font-style:normal;font-variant:normal;font-weight:normal;font-stretch:normal;text-align:start;line-height:125%;writing-mode:lr-tb;text-anchor:start;font-family:Insignia LT Std;-inkscape-font-specification:Insignia LT Std;fill:#ff7f00;fill-opacity:1"
       y="87.433708"
       x="278.37701"
       id="tspan3113"
       sodipodi:role="line">school</tspan></text>
<g
     transform="translate(-18.52081,-4.227403)"
     id="g6662"><g
       id="layer1"
       inkscape:label="bubble"
       style="display:inline"
       transform="translate(265.25831,28.615602)"><path
         style="fill:#ff7f00;fill-opacity:1;stroke:none"
         d="m 16.4375,0.5625 c -9.0505334,0 -16.375,7.3244666 -16.375,16.375 0,7.968438 5.7120487,14.589408 13.25,16.0625 l 0,4.6875 C 23.112594,36.209998 31.789985,28.430631 32.4375,18.21875 32.82725,12.072053 29.762545,5.7970183 24.59375,2.75 24.297815,2.5755457 23.997146,2.4023576 23.6875,2.25 23.371984,2.0947542 23.047989,1.9434484 22.71875,1.8125 22.61424,1.7687818 22.511836,1.7291224 22.40625,1.6875 22.118693,1.5813485 21.828537,1.4618138 21.53125,1.375 19.928923,0.8468741 18.21606,0.5625 16.4375,0.5625 z"
         id="path3943"
         inkscape:connector-curvature="0" /></g><path
       inkscape:connector-curvature="0"
       style="fill:#ffffff;fill-opacity:1;stroke:none"
       d="m 285.07081,35.240602 c -0.56016,-0.05742 -1.15,0.1375 -1.5625,0.625 -0.3,0.4 -0.4875,0.7875 -0.6875,1.1875 -0.6,1.4 -0.4,2.9 0.5,4 1.4,-0.3 2.5875,-1.19375 3.1875,-2.59375 0.2,-0.4 0.3125,-0.9125 0.3125,-1.3125 0.0625,-1.0625 -0.81641,-1.810547 -1.75,-1.90625 z m -7.28125,0.09375 c -0.91309,0.08691 -1.78125,0.8125 -1.78125,1.8125 0,0.4 0.1125,0.9125 0.3125,1.3125 0.6,1.4 1.88125,2.29375 3.28125,2.59375 0.8,-1.1 1.00625,-2.6 0.40625,-4 -0.2,-0.4 -0.3875,-0.79375 -0.6875,-1.09375 -0.4125,-0.4875 -0.9834,-0.677148 -1.53125,-0.625 z m -4.90625,4.8125 c -1.5769,0.08093 -2.28125,2.0625 -0.96875,3.09375 0.4,0.3 0.7875,0.51875 1.1875,0.71875 1.4,0.6 3.01875,0.39375 4.21875,-0.40625 -0.3,-1.3 -1.31875,-2.49375 -2.71875,-3.09375 -0.5,-0.2 -0.90625,-0.3125 -1.40625,-0.3125 -0.1125,-0.0125 -0.20737,-0.0054 -0.3125,0 z m 15.40625,6.0625 c -0.91602,-0.01758 -1.84375,0.25 -2.59375,0.75 0.3,1.3 1.31875,2.49375 2.71875,3.09375 0.5,0.2 0.90625,0.3125 1.40625,0.3125 1.8,0.1 2.68125,-2.125 1.28125,-3.125 -0.4,-0.3 -0.7875,-0.4875 -1.1875,-0.6875 -0.525,-0.225 -1.07539,-0.333203 -1.625,-0.34375 z m -13.65625,0.09375 c -0.54961,0.01055 -1.1,0.11875 -1.625,0.34375 -0.5,0.2 -0.8875,0.41875 -1.1875,0.71875 -1.3,1.1 -0.425,3.19375 1.375,3.09375 0.5,0 1.00625,-0.1125 1.40625,-0.3125 1.4,-0.6 2.39375,-1.79375 2.59375,-3.09375 -0.75,-0.5 -1.64648,-0.767578 -2.5625,-0.75 z m 5.0625,3.0625 c -1.4,0.3 -2.5875,1.19375 -3.1875,2.59375 -0.2,0.4 -0.3125,0.88125 -0.3125,1.28125 -0.1,1.7 2.21875,2.6125 3.21875,1.3125 0.3,-0.4 0.4875,-0.7875 0.6875,-1.1875 0.6,-1.3 0.39375,-2.8 -0.40625,-4 z m 3.71875,0.09375 c -0.8,1.1 -1.00625,2.6 -0.40625,4 0.2,0.4 0.3875,0.79375 0.6875,1.09375 1.1,1.2 3.4125,0.3125 3.3125,-1.1875 0,-0.4 -0.1125,-0.9125 -0.3125,-1.3125 -0.6,-1.4 -1.88125,-2.29375 -3.28125,-2.59375 z"
       id="rect4005" /></g></g></svg>