<?xml version="1.0" encoding="UTF-8" standalone="no"?>
<!-- Generator: Adobe Illustrator 18.0.0, SVG Export Plug-In . SVG Version: 6.00 Build 0)  -->

<svg
   xmlns:svg="http://www.w3.org/2000/svg"
   xmlns="http://www.w3.org/2000/svg"
   viewBox="0 0 33 38"
   xml:space="preserve"
   width="100%"
   height="100%">
<path
   style="fill:#3e10af"
   id="path2988"
   d="m 21.650006,1.3383511 c -3.2,-1.1 -6.7,-1.2 -10.4,-0.1 -5.1000004,1.5 -9.0000004,5.6 -10.50000042,10.7999999 -2.89999998,10 3.50000002,19.1 12.50000042,21.1 v 4.4 c 5,-0.5 9.4,-2.7 13.3,-6.5 1.3,-1.3 2.3,-2.7 3.2,-4.2 1.8,-2.9 2.9,-6 3.2,-9.1 0.2,-7.6 -4.6,-14.0999999 -11.3,-16.3999999 z m -7.6,6 c 0.3,0.3 0.5,0.7 0.7,1.1 0.6,1.4 0.4,2.8999999 -0.4,3.9999999 -1.4,-0.3 -2.7,-1.2 -3.3,-2.5999999 -0.2,-0.4 -0.3,-0.9 -0.3,-1.3 0,-1.6 2.2,-2.5 3.3,-1.2 z M 7.9500056,11.538351 c 0.5,0 0.9,0.1 1.4,0.3 1.4000004,0.6 2.4000004,1.8 2.7000004,3.1 -1.2,0.8 -2.8000004,1 -4.2000004,0.4 -0.4,-0.2 -0.8,-0.4 -1.2,-0.7 -1.4,-1.1 -0.5,-3.3 1.3,-3.1 z m 1.4,10 c -0.4,0.2 -0.9,0.3 -1.4,0.3 -1.8,0.1 -2.7,-2 -1.4,-3.1 0.3,-0.3 0.7,-0.5 1.2,-0.7 1.4,-0.6 3.0000004,-0.4 4.2000004,0.4 -0.2,1.3 -1.2,2.5 -2.6000004,3.1 z m 1.6000004,3.1 c 0,-0.4 0.1,-0.9 0.3,-1.3 0.6,-1.4 1.8,-2.3 3.2,-2.6 0.8,1.2 1,2.7 0.4,4 -0.2,0.4 -0.4,0.8 -0.7,1.2 -1,1.3 -3.3,0.4 -3.2,-1.3 z m 6.6,-16.1999999 c 0.2,-0.4 0.4,-0.8 0.7,-1.2 1.1,-1.3 3.4,-0.4 3.3,1.3 0,0.4 -0.1,0.9 -0.3,1.3 -0.6,1.3999999 -1.8,2.2999999 -3.2,2.5999999 -0.9,-1.1 -1.1,-2.5999999 -0.5,-3.9999999 z m 0.9,17.4999999 c -0.3,-0.3 -0.5,-0.7 -0.7,-1.1 -0.6,-1.4 -0.4,-2.9 0.4,-4 1.4,0.3 2.7,1.2 3.3,2.6 0.2,0.4 0.3,0.9 0.3,1.3 0.1,1.5 -2.2,2.4 -3.3,1.2 z m 6.1,-4.2 c -0.5,0 -0.9,-0.1 -1.4,-0.3 -1.4,-0.6 -2.4,-1.8 -2.7,-3.1 1.2,-0.8 2.8,-1 4.2,-0.4 0.4,0.2 0.8,0.4 1.2,0.7 1.4,1 0.5,3.2 -1.3,3.1 z" />
</svg>
