<?xml version="1.0" encoding="UTF-8" standalone="no"?>
<!-- Generator: Adobe Illustrator 18.0.0, SVG Export Plug-In . SVG Version: 6.00 Build 0)  -->

<svg
   xmlns:dc="http://purl.org/dc/elements/1.1/"
   xmlns:cc="http://creativecommons.org/ns#"
   xmlns:rdf="http://www.w3.org/1999/02/22-rdf-syntax-ns#"
   xmlns:svg="http://www.w3.org/2000/svg"
   xmlns="http://www.w3.org/2000/svg"
   xmlns:sodipodi="http://sodipodi.sourceforge.net/DTD/sodipodi-0.dtd"
   xmlns:inkscape="http://www.inkscape.org/namespaces/inkscape"
   viewBox="0 0 33 38"
   xml:space="preserve"
   width="100%"
   height="100%"
   id="svg2985"
   version="1.1"
   inkscape:version="0.48.2 r9819"
   sodipodi:docname="cucumber-mark.svg"><metadata
   id="metadata2992"><rdf:RDF><cc:Work
       rdf:about=""><dc:format>image/svg+xml</dc:format><dc:type
         rdf:resource="http://purl.org/dc/dcmitype/StillImage" /></cc:Work></rdf:RDF></metadata><defs
   id="defs2990" /><sodipodi:namedview
   pagecolor="#ffffff"
   bordercolor="#666666"
   borderopacity="1"
   objecttolerance="10"
   gridtolerance="10"
   guidetolerance="10"
   inkscape:pageopacity="0"
   inkscape:pageshadow="2"
   inkscape:window-width="1257"
   inkscape:window-height="858"
   id="namedview2988"
   showgrid="false"
   inkscape:zoom="17.566021"
   inkscape:cx="17.808662"
   inkscape:cy="13.743523"
   inkscape:window-x="0"
   inkscape:window-y="0"
   inkscape:window-maximized="0"
   inkscape:current-layer="svg2985" />
<path
   style="fill:#00a818"
   id="path2988"
   d="m 21.650006,1.3383511 c -3.2,-1.1 -6.7,-1.2 -10.4,-0.1 -5.1000004,1.5 -9.0000004,5.6 -10.50000042,10.7999999 -2.89999998,10 3.50000002,19.1 12.50000042,21.1 v 4.4 c 5,-0.5 9.4,-2.7 13.3,-6.5 1.3,-1.3 2.3,-2.7 3.2,-4.2 1.8,-2.9 2.9,-6 3.2,-9.1 0.2,-7.6 -4.6,-14.0999999 -11.3,-16.3999999 z m -7.6,6 c 0.3,0.3 0.5,0.7 0.7,1.1 0.6,1.4 0.4,2.8999999 -0.4,3.9999999 -1.4,-0.3 -2.7,-1.2 -3.3,-2.5999999 -0.2,-0.4 -0.3,-0.9 -0.3,-1.3 0,-1.6 2.2,-2.5 3.3,-1.2 z M 7.9500056,11.538351 c 0.5,0 0.9,0.1 1.4,0.3 1.4000004,0.6 2.4000004,1.8 2.7000004,3.1 -1.2,0.8 -2.8000004,1 -4.2000004,0.4 -0.4,-0.2 -0.8,-0.4 -1.2,-0.7 -1.4,-1.1 -0.5,-3.3 1.3,-3.1 z m 1.4,10 c -0.4,0.2 -0.9,0.3 -1.4,0.3 -1.8,0.1 -2.7,-2 -1.4,-3.1 0.3,-0.3 0.7,-0.5 1.2,-0.7 1.4,-0.6 3.0000004,-0.4 4.2000004,0.4 -0.2,1.3 -1.2,2.5 -2.6000004,3.1 z m 1.6000004,3.1 c 0,-0.4 0.1,-0.9 0.3,-1.3 0.6,-1.4 1.8,-2.3 3.2,-2.6 0.8,1.2 1,2.7 0.4,4 -0.2,0.4 -0.4,0.8 -0.7,1.2 -1,1.3 -3.3,0.4 -3.2,-1.3 z m 6.6,-16.1999999 c 0.2,-0.4 0.4,-0.8 0.7,-1.2 1.1,-1.3 3.4,-0.4 3.3,1.3 0,0.4 -0.1,0.9 -0.3,1.3 -0.6,1.3999999 -1.8,2.2999999 -3.2,2.5999999 -0.9,-1.1 -1.1,-2.5999999 -0.5,-3.9999999 z m 0.9,17.4999999 c -0.3,-0.3 -0.5,-0.7 -0.7,-1.1 -0.6,-1.4 -0.4,-2.9 0.4,-4 1.4,0.3 2.7,1.2 3.3,2.6 0.2,0.4 0.3,0.9 0.3,1.3 0.1,1.5 -2.2,2.4 -3.3,1.2 z m 6.1,-4.2 c -0.5,0 -0.9,-0.1 -1.4,-0.3 -1.4,-0.6 -2.4,-1.8 -2.7,-3.1 1.2,-0.8 2.8,-1 4.2,-0.4 0.4,0.2 0.8,0.4 1.2,0.7 1.4,1 0.5,3.2 -1.3,3.1 z" />
<path
   transform="matrix(0.56673167,0,0,0.60753967,6.1271611,7.5180838)"
   style="fill:none;stroke:#000000;stroke-width:0.33281076;stroke-linecap:butt;stroke-linejoin:miter;stroke-miterlimit:4;stroke-opacity:1"
   d="m 16.014847,17.717375 c -1.185477,0.03482 -1.304363,-1.581192 -0.90269,-2.348127 0.887839,-1.695198 3.217003,-1.699823 4.606691,-0.673561 2.20951,1.631685 2.125523,4.8936 0.444433,6.865255 -2.337202,2.741172 -6.583826,2.56086 -9.12382,0.215304 -3.2810477,-3.029882 -3.0008784,-8.279808 0.01383,-11.382384 3.716861,-3.8252004 9.978816,-3.4434818 13.640948,0.242954 4.371825,4.400839 3.88765,11.679628 -0.472082,15.899512 C 19.139103,31.456325 10.840545,30.869161 6.0640756,25.835117 0.59487521,20.070986 1.2853661,10.750733 6.9944148,5.4184768 13.438866,-0.60064555 23.782149,0.19339707 29.669619,6.5779446 36.239185,13.702177 35.341433,25.069453 28.281023,31.511713 20.477405,38.632112 8.085417,37.630538 1.0886901,29.893988 -6.5828407,21.411282 -5.4773589,7.9940332 2.9355438,0.44309126 12.097107,-7.7798059 26.540048,-6.5703515 34.645005,2.5190736 43.419455,12.359312 42.105978,27.828289 32.339894,36.487099 21.821126,45.813254 5.325835,43.079268 -3.8866954,32.636414 -13.764679,21.439236 -12.243042,5.2338466 -1.1233272,-4.5322943 10.752162,-14.962211 29.300731,-13.336451 39.62039,-1.5397975 50.602327,11.013921 48.872422,30.589385 36.398765,41.462484 c -6.550612,5.71007 -11.73407,7.669894 -23.994794,7.59886"
   id="path3777"
   inkscape:connector-curvature="0"
   sodipodi:nodetypes="csssssssssssssssssssc" /></svg>