<?xml version="1.0" encoding="utf-8"?>
<!-- Generator: Adobe Illustrator 18.0.0, SVG Export Plug-In . SVG Version: 6.00 Build 0)  -->
<!DOCTYPE svg PUBLIC "-//W3C//DTD SVG 1.1//EN" "http://www.w3.org/Graphics/SVG/1.1/DTD/svg11.dtd">
<svg version="1.1" id="Layer_1" xmlns="http://www.w3.org/2000/svg" xmlns:xlink="http://www.w3.org/1999/xlink" x="0px" y="0px"
	 viewBox="0 0 362 102" enable-background="new 0 0 362 102" xml:space="preserve">
<g>
	<g>
		<path fill="#65696B" d="M267.3,14.7c-3.2-1.1-6.7-1.2-10.4-0.1c-5.1,1.5-9,5.6-10.5,10.8c-2.9,10,3.5,19.1,12.5,21.1v4.4
			c5-0.5,9.4-2.7,13.3-6.5c1.3-1.3,2.3-2.7,3.2-4.2c1.8-2.9,2.9-6,3.2-9.1C278.8,23.5,274,17,267.3,14.7z M259.8,20.7
			c0.3,0.3,0.5,0.7,0.7,1.1c0.6,1.4,0.4,2.9-0.4,4c-1.4-0.3-2.7-1.2-3.3-2.6c-0.2-0.4-0.3-0.9-0.3-1.3
			C256.4,20.3,258.6,19.4,259.8,20.7z M253.6,24.9c0.5,0,0.9,0.1,1.4,0.3c1.4,0.6,2.4,1.8,2.7,3.1c-1.2,0.8-2.8,1-4.2,0.4
			c-0.4-0.2-0.8-0.4-1.2-0.7C250.9,26.9,251.8,24.7,253.6,24.9z M255,34.9c-0.4,0.2-0.9,0.3-1.4,0.3c-1.8,0.1-2.7-2-1.4-3.1
			c0.3-0.3,0.7-0.5,1.2-0.7c1.4-0.6,3-0.4,4.2,0.4C257.4,33.1,256.5,34.3,255,34.9z M256.7,38c0-0.4,0.1-0.9,0.3-1.3
			c0.6-1.4,1.8-2.3,3.2-2.6c0.8,1.2,1,2.7,0.4,4c-0.2,0.4-0.4,0.8-0.7,1.2C258.8,40.6,256.5,39.7,256.7,38z M263.2,21.8
			c0.2-0.4,0.4-0.8,0.7-1.2c1.1-1.3,3.4-0.4,3.3,1.3c0,0.4-0.1,0.9-0.3,1.3c-0.6,1.4-1.8,2.3-3.2,2.6
			C262.8,24.7,262.6,23.2,263.2,21.8z M264.1,39.3c-0.3-0.3-0.5-0.7-0.7-1.1c-0.6-1.4-0.4-2.9,0.4-4c1.4,0.3,2.7,1.2,3.3,2.6
			c0.2,0.4,0.3,0.9,0.3,1.3C267.5,39.6,265.2,40.5,264.1,39.3z M270.2,35.1c-0.5,0-0.9-0.1-1.4-0.3c-1.4-0.6-2.4-1.8-2.7-3.1
			c1.2-0.8,2.8-1,4.2-0.4c0.4,0.2,0.8,0.4,1.2,0.7C272.9,33,272,35.2,270.2,35.1z"/>
		<path d="M246.8,50.3c-3,0-4.9,1.5-6.3,3.8c0-0.6,0.3-1.3,0.3-1.8v-1h-5v25h5V61.9c0-4.1,2.2-6.6,6-6.6h1v-5H246.8z"/>
		<path d="M43.5,59.5c-1.4-2.2-3.4-3.7-6.3-3.7c-4.6,0-7.9,3.5-7.9,7.9c0,4.4,3.3,7.9,7.9,7.9c2.9,0,4.9-1.4,6.3-3.6l4.6,2.7
			c-2.2,3.4-6.3,5.9-10.9,5.9c-8.5,0-13.4-6.4-13.4-12.8S28.8,51,37.2,51c5.2,0,8.5,2.5,10.9,5.9L43.5,59.5z"/>
		<path d="M52.5,51.6h5.2v13.6c0,3.6,2.6,6.1,5.9,6.1c3.3,0,5.9-2.6,5.9-6.1V51.6h5.2v14c0,6.8-5.3,10.9-11.1,10.9
			c-5.8,0-11.1-4.1-11.1-10.9V51.6z"/>
		<path d="M99.1,59.5c-1.4-2.2-3.4-3.7-6.3-3.7c-4.6,0-7.9,3.5-7.9,7.9c0,4.4,3.3,7.9,7.9,7.9c2.9,0,4.9-1.4,6.3-3.6l4.6,2.7
			c-2.2,3.4-6.3,5.9-10.9,5.9c-8.5,0-13.4-6.4-13.4-12.8S84.3,51,92.8,51c5.2,0,8.5,2.5,10.9,5.9L99.1,59.5z"/>
		<path d="M108.1,51.6h5.2v13.6c0,3.6,2.6,6.1,5.9,6.1c3.2,0,5.9-2.6,5.9-6.1V51.6h5.2v14c0,6.8-5.3,10.9-11.1,10.9
			c-5.8,0-11.1-4.1-11.1-10.9V51.6z"/>
		<path d="M136.8,60.7c0-6.2,4.1-9.7,8.9-9.7c3.7,0,6.3,1.8,7.3,4.3h0.1c1-2.6,3.6-4.3,7.3-4.3c4.8,0,8.9,3.6,8.9,9.7v15.2h-5.2
			V60.7c0-2.9-1.8-4.6-4-4.6c-2.5,0-4.3,1.5-4.3,5.3v14.4h-5.2V61.4c0-3.8-1.8-5.3-4.3-5.3c-2.2,0-4,1.7-4,4.6v15.1h-5.2V60.7z"/>
		<path d="M175.7,44.4h5.2v10.2h0.1c1.2-2,4.5-3.6,7.9-3.6c6.3,0,12.6,4.7,12.6,12.8c0,8.1-6.3,12.8-12.6,12.8
			c-3.4,0-6.7-1.6-7.9-3.6h-0.1v3h-5.2V44.4z M188.4,55.9c-4.3,0-7.5,3.4-7.5,7.9c0,4.5,3.2,7.9,7.5,7.9c4.4,0,7.6-3.4,7.6-7.9
			C196,59.2,192.8,55.9,188.4,55.9z"/>
		<path d="M229.5,70.6c-2.9,3.7-6.9,5.9-11.3,5.9c-8.5,0-13.4-6.4-13.4-12.8S209.8,51,218.2,51c5,0,12.6,4.2,12.6,13.6v0.9h-20.1
			c0.3,3.7,3.8,6.4,7.4,6.4c2.8,0,5.2-1.4,7-3.8L229.5,70.6z M224.7,61.2c-1.1-3.7-3.8-5.7-7.2-5.7c-3.3,0-6,2.1-6.9,5.7H224.7z"/>
	</g>
	<polyline fill="#65696B" points="286.7,75.9 286.7,44.5 292,44.5 292,75.9 286.6,75.9 	"/>
	<polygon fill="#65696B" points="299.9,75.9 299.9,56.7 296.9,56.7 296.9,51.8 299.9,51.8 299.9,45.2 305.1,43.8 305.1,51.8 
		309.2,51.8 309.2,56.7 305.1,56.7 305.1,75.9 	"/>
	<path fill="#65696B" d="M332.7,72.9L332.7,72.9c-1.8,2.2-4.8,3.6-8.1,3.6c-8,0-12.6-6.5-12.6-12.7c0-6,5-12.8,12.8-12.8
		c3.6,0,6.4,1.5,7.7,3.6h0.1V44.4h5.2v31.5h-5.2V72.9z M325.3,71.6c4.1,0,7.6-3.5,7.6-7.8c0-4.4-3.5-7.9-7.6-7.9
		c-4.2,0-7.7,3.5-7.7,7.9C317.6,68.1,321.1,71.6,325.3,71.6"/>
</g>
</svg>
