<?xml version="1.0" encoding="UTF-8" standalone="no"?>
<!-- Generator: Adobe Illustrator 18.0.0, SVG Export Plug-In . SVG Version: 6.00 Build 0)  -->

<svg
   xmlns:dc="http://purl.org/dc/elements/1.1/"
   xmlns:cc="http://creativecommons.org/ns#"
   xmlns:rdf="http://www.w3.org/1999/02/22-rdf-syntax-ns#"
   xmlns:svg="http://www.w3.org/2000/svg"
   xmlns="http://www.w3.org/2000/svg"
   xmlns:sodipodi="http://sodipodi.sourceforge.net/DTD/sodipodi-0.dtd"
   xmlns:inkscape="http://www.inkscape.org/namespaces/inkscape"
   version="1.1"
   id="Layer_1"
   x="0px"
   y="0px"
   viewBox="0 0 455.01294 113.0837"
   enable-background="new 0 0 304 102"
   xml:space="preserve"
   inkscape:version="0.48.2 r9819"
   width="100%"
   height="100%"
   sodipodi:docname="cucumber.svg"><metadata
   id="metadata3100"><rdf:RDF><cc:Work
       rdf:about=""><dc:format>image/svg+xml</dc:format><dc:type
         rdf:resource="http://purl.org/dc/dcmitype/StillImage" /><dc:title></dc:title></cc:Work></rdf:RDF></metadata><defs
   id="defs3098">
	
	
	
	
	
	
	
	
	
</defs><sodipodi:namedview
   pagecolor="#ffffff"
   bordercolor="#666666"
   borderopacity="1"
   objecttolerance="10"
   gridtolerance="10"
   guidetolerance="10"
   inkscape:pageopacity="0"
   inkscape:pageshadow="2"
   inkscape:window-width="1348"
   inkscape:window-height="747"
   id="namedview3096"
   showgrid="false"
   fit-margin-top="25"
   fit-margin-left="25"
   fit-margin-right="25"
   fit-margin-bottom="25"
   inkscape:zoom="1.6375104"
   inkscape:cx="128.95597"
   inkscape:cy="50.907006"
   inkscape:window-x="25"
   inkscape:window-y="115"
   inkscape:window-maximized="0"
   inkscape:current-layer="Layer_1" />

<g
   id="g3115"
   transform="translate(-4.0000075,11.176703)"><path
     d="m 272.5,14.7 c -3.2,-1.1 -6.7,-1.2 -10.4,-0.1 -5.1,1.5 -9,5.6 -10.5,10.8 -2.9,10 3.5,19.1 12.5,21.1 v 4.4 c 5,-0.5 9.4,-2.7 13.3,-6.5 1.3,-1.3 2.3,-2.7 3.2,-4.2 1.8,-2.9 2.9,-6 3.2,-9.1 C 284,23.5 279.2,17 272.5,14.7 z m -7.6,6 c 0.3,0.3 0.5,0.7 0.7,1.1 0.6,1.4 0.4,2.9 -0.4,4 -1.4,-0.3 -2.7,-1.2 -3.3,-2.6 -0.2,-0.4 -0.3,-0.9 -0.3,-1.3 0,-1.6 2.2,-2.5 3.3,-1.2 z m -6.1,4.2 c 0.5,0 0.9,0.1 1.4,0.3 1.4,0.6 2.4,1.8 2.7,3.1 -1.2,0.8 -2.8,1 -4.2,0.4 -0.4,-0.2 -0.8,-0.4 -1.2,-0.7 -1.4,-1.1 -0.5,-3.3 1.3,-3.1 z m 1.4,10 c -0.4,0.2 -0.9,0.3 -1.4,0.3 -1.8,0.1 -2.7,-2 -1.4,-3.1 0.3,-0.3 0.7,-0.5 1.2,-0.7 1.4,-0.6 3,-0.4 4.2,0.4 -0.2,1.3 -1.2,2.5 -2.6,3.1 z m 1.6,3.1 c 0,-0.4 0.1,-0.9 0.3,-1.3 0.6,-1.4 1.8,-2.3 3.2,-2.6 0.8,1.2 1,2.7 0.4,4 -0.2,0.4 -0.4,0.8 -0.7,1.2 -1,1.3 -3.3,0.4 -3.2,-1.3 z m 6.6,-16.2 c 0.2,-0.4 0.4,-0.8 0.7,-1.2 1.1,-1.3 3.4,-0.4 3.3,1.3 0,0.4 -0.1,0.9 -0.3,1.3 -0.6,1.4 -1.8,2.3 -3.2,2.6 -0.9,-1.1 -1.1,-2.6 -0.5,-4 z m 0.9,17.5 c -0.3,-0.3 -0.5,-0.7 -0.7,-1.1 -0.6,-1.4 -0.4,-2.9 0.4,-4 1.4,0.3 2.7,1.2 3.3,2.6 0.2,0.4 0.3,0.9 0.3,1.3 0.1,1.5 -2.2,2.4 -3.3,1.2 z m 6.1,-4.2 c -0.5,0 -0.9,-0.1 -1.4,-0.3 -1.4,-0.6 -2.4,-1.8 -2.7,-3.1 1.2,-0.8 2.8,-1 4.2,-0.4 0.4,0.2 0.8,0.4 1.2,0.7 1.4,1 0.5,3.2 -1.3,3.1 z"
     id="path3078"
     inkscape:connector-curvature="0"
     style="fill:#00a818" /><path
     d="m 252,50.3 c -3,0 -4.9,1.5 -6.3,3.8 0,-0.6 0.3,-1.3 0.3,-1.8 v -1 h -5 v 25 h 5 V 61.9 c 0,-4.1 2.2,-6.6 6,-6.6 h 1 v -5 h -1 z"
     id="path3080"
     inkscape:connector-curvature="0" /><path
     d="m 48.7,59.5 c -1.4,-2.2 -3.4,-3.7 -6.3,-3.7 -4.6,0 -7.9,3.5 -7.9,7.9 0,4.4 3.3,7.9 7.9,7.9 2.9,0 4.9,-1.4 6.3,-3.6 l 4.6,2.7 C 51.1,74.1 47,76.6 42.4,76.6 33.9,76.6 29,70.2 29,63.8 29,57.4 34,51 42.4,51 c 5.2,0 8.5,2.5 10.9,5.9 l -4.6,2.6 z"
     id="path3082"
     inkscape:connector-curvature="0" /><path
     d="m 57.7,51.6 h 5.2 v 13.6 c 0,3.6 2.6,6.1 5.9,6.1 3.2,0 5.9,-2.6 5.9,-6.1 V 51.6 h 5.2 v 14 c 0,6.8 -5.3,10.9 -11.1,10.9 -5.8,0 -11.1,-4.1 -11.1,-10.9 v -14 z"
     id="path3084"
     inkscape:connector-curvature="0" /><path
     d="m 104.3,59.5 c -1.4,-2.2 -3.4,-3.7 -6.3,-3.7 -4.6,0 -7.9,3.5 -7.9,7.9 0,4.4 3.3,7.9 7.9,7.9 2.9,0 4.9,-1.4 6.3,-3.6 l 4.6,2.7 c -2.2,3.4 -6.3,5.9 -10.9,5.9 -8.5,0 -13.4,-6.4 -13.4,-12.8 0,-6.4 4.9,-12.8 13.4,-12.8 5.2,0 8.5,2.5 10.9,5.9 l -4.6,2.6 z"
     id="path3086"
     inkscape:connector-curvature="0" /><path
     d="m 113.3,51.6 h 5.2 v 13.6 c 0,3.6 2.6,6.1 5.9,6.1 3.2,0 5.9,-2.6 5.9,-6.1 V 51.6 h 5.2 v 14 c 0,6.8 -5.3,10.9 -11.1,10.9 -5.8,0 -11.1,-4.1 -11.1,-10.9 v -14 z"
     id="path3088"
     inkscape:connector-curvature="0" /><path
     d="m 142,60.7 c 0,-6.2 4.1,-9.7 8.9,-9.7 3.7,0 6.3,1.8 7.3,4.3 h 0.1 c 1,-2.6 3.6,-4.3 7.3,-4.3 4.8,0 8.9,3.6 8.9,9.7 v 15.2 h -5.2 V 60.7 c 0,-2.9 -1.8,-4.6 -4,-4.6 -2.5,0 -4.3,1.5 -4.3,5.3 v 14.4 h -5.2 V 61.4 c 0,-3.8 -1.8,-5.3 -4.3,-5.3 -2.2,0 -4,1.7 -4,4.6 V 75.8 H 142 V 60.7 z"
     id="path3090"
     inkscape:connector-curvature="0" /><path
     d="m 180.9,44.4 h 5.2 v 10.2 h 0.1 c 1.2,-2 4.5,-3.6 7.9,-3.6 6.3,0 12.6,4.7 12.6,12.8 0,8.1 -6.3,12.8 -12.6,12.8 -3.4,0 -6.7,-1.6 -7.9,-3.6 h -0.1 v 3 h -5.2 V 44.4 z m 12.7,11.5 c -4.3,0 -7.5,3.4 -7.5,7.9 0,4.5 3.2,7.9 7.5,7.9 4.4,0 7.6,-3.4 7.6,-7.9 0,-4.6 -3.2,-7.9 -7.6,-7.9 z"
     id="path3092"
     inkscape:connector-curvature="0" /><path
     d="m 234.7,70.6 c -2.9,3.7 -6.9,5.9 -11.3,5.9 -8.5,0 -13.4,-6.4 -13.4,-12.8 0,-6.4 5,-12.7 13.4,-12.7 5,0 12.6,4.2 12.6,13.6 v 0.9 h -20.1 c 0.3,3.7 3.8,6.4 7.4,6.4 2.8,0 5.2,-1.4 7,-3.8 l 4.4,2.5 z m -4.8,-9.4 c -1.1,-3.7 -3.8,-5.7 -7.2,-5.7 -3.3,0 -6,2.1 -6.9,5.7 h 14.1 z"
     id="path3094"
     inkscape:connector-curvature="0" /><text
     sodipodi:linespacing="125%"
     id="text3111"
     y="76.257004"
     x="282.37701"
     style="font-size:40px;font-style:normal;font-weight:normal;line-height:125%;letter-spacing:0px;word-spacing:0px;fill:#000000;fill-opacity:1;stroke:none;font-family:Sans"
     xml:space="preserve"><tspan
       style="font-size:50px;font-style:normal;font-variant:normal;font-weight:normal;font-stretch:normal;text-align:start;line-height:125%;writing-mode:lr-tb;text-anchor:start;font-family:Insignia LT Std;-inkscape-font-specification:Insignia LT Std"
       y="76.257004"
       x="282.37701"
       id="tspan3113"
       sodipodi:role="line">school</tspan></text>
</g></svg>