<?xml version="1.0" encoding="UTF-8" standalone="no"?>
<!-- Generator: Adobe Illustrator 18.0.0, SVG Export Plug-In . SVG Version: 6.00 Build 0)  -->

<svg
   xmlns:dc="http://purl.org/dc/elements/1.1/"
   xmlns:cc="http://creativecommons.org/ns#"
   xmlns:rdf="http://www.w3.org/1999/02/22-rdf-syntax-ns#"
   xmlns:svg="http://www.w3.org/2000/svg"
   xmlns="http://www.w3.org/2000/svg"
   xmlns:sodipodi="http://sodipodi.sourceforge.net/DTD/sodipodi-0.dtd"
   xmlns:inkscape="http://www.inkscape.org/namespaces/inkscape"
   version="1.1"
   id="Layer_1"
   x="0px"
   y="0px"
   viewBox="0 0 33 38"
   enable-background="new 0 0 304 102"
   xml:space="preserve"
   inkscape:version="0.48.2 r9819"
   width="100%"
   height="100%"
   sodipodi:docname="cucumber.svg"><metadata
   id="metadata3010"><rdf:RDF><cc:Work
       rdf:about=""><dc:format>image/svg+xml</dc:format><dc:type
         rdf:resource="http://purl.org/dc/dcmitype/StillImage" /><dc:title></dc:title></cc:Work></rdf:RDF></metadata><defs
   id="defs3008">
	
	
	
	
	
	
	
	
	
</defs><sodipodi:namedview
   pagecolor="#ffffff"
   bordercolor="#666666"
   borderopacity="1"
   objecttolerance="10"
   gridtolerance="10"
   guidetolerance="10"
   inkscape:pageopacity="0"
   inkscape:pageshadow="2"
   inkscape:window-width="917"
   inkscape:window-height="548"
   id="namedview3006"
   showgrid="false"
   inkscape:zoom="5.7312865"
   inkscape:cx="19.280579"
   inkscape:cy="13.914376"
   inkscape:window-x="288"
   inkscape:window-y="14"
   inkscape:window-maximized="0"
   inkscape:current-layer="Layer_1" />
<path
   style="fill:#00a818"
   inkscape:connector-curvature="0"
   id="path2988"
   d="m 21.650006,1.3383511 c -3.2,-1.1 -6.7,-1.2 -10.4,-0.1 -5.1000004,1.5 -9.0000004,5.6 -10.50000042,10.7999999 -2.89999998,10 3.50000002,19.1 12.50000042,21.1 v 4.4 c 5,-0.5 9.4,-2.7 13.3,-6.5 1.3,-1.3 2.3,-2.7 3.2,-4.2 1.8,-2.9 2.9,-6 3.2,-9.1 0.2,-7.6 -4.6,-14.0999999 -11.3,-16.3999999 z m -7.6,6 c 0.3,0.3 0.5,0.7 0.7,1.1 0.6,1.4 0.4,2.8999999 -0.4,3.9999999 -1.4,-0.3 -2.7,-1.2 -3.3,-2.5999999 -0.2,-0.4 -0.3,-0.9 -0.3,-1.3 0,-1.6 2.2,-2.5 3.3,-1.2 z M 7.9500056,11.538351 c 0.5,0 0.9,0.1 1.4,0.3 1.4000004,0.6 2.4000004,1.8 2.7000004,3.1 -1.2,0.8 -2.8000004,1 -4.2000004,0.4 -0.4,-0.2 -0.8,-0.4 -1.2,-0.7 -1.4,-1.1 -0.5,-3.3 1.3,-3.1 z m 1.4,10 c -0.4,0.2 -0.9,0.3 -1.4,0.3 -1.8,0.1 -2.7,-2 -1.4,-3.1 0.3,-0.3 0.7,-0.5 1.2,-0.7 1.4,-0.6 3.0000004,-0.4 4.2000004,0.4 -0.2,1.3 -1.2,2.5 -2.6000004,3.1 z m 1.6000004,3.1 c 0,-0.4 0.1,-0.9 0.3,-1.3 0.6,-1.4 1.8,-2.3 3.2,-2.6 0.8,1.2 1,2.7 0.4,4 -0.2,0.4 -0.4,0.8 -0.7,1.2 -1,1.3 -3.3,0.4 -3.2,-1.3 z m 6.6,-16.1999999 c 0.2,-0.4 0.4,-0.8 0.7,-1.2 1.1,-1.3 3.4,-0.4 3.3,1.3 0,0.4 -0.1,0.9 -0.3,1.3 -0.6,1.3999999 -1.8,2.2999999 -3.2,2.5999999 -0.9,-1.1 -1.1,-2.5999999 -0.5,-3.9999999 z m 0.9,17.4999999 c -0.3,-0.3 -0.5,-0.7 -0.7,-1.1 -0.6,-1.4 -0.4,-2.9 0.4,-4 1.4,0.3 2.7,1.2 3.3,2.6 0.2,0.4 0.3,0.9 0.3,1.3 0.1,1.5 -2.2,2.4 -3.3,1.2 z m 6.1,-4.2 c -0.5,0 -0.9,-0.1 -1.4,-0.3 -1.4,-0.6 -2.4,-1.8 -2.7,-3.1 1.2,-0.8 2.8,-1 4.2,-0.4 0.4,0.2 0.8,0.4 1.2,0.7 1.4,1 0.5,3.2 -1.3,3.1 z" />
</svg>