<?xml version="1.0" encoding="UTF-8" standalone="no"?>
<svg
  xmlns:svg="http://www.w3.org/2000/svg"
  xmlns="http://www.w3.org/2000/svg"
  viewBox="0 0 33 38"
  xml:space="preserve"
  width="100%"
  height="100%">

  <path
    style="fill:#00a818"
    d="M 19.8125 6.53125 C 19.252344 6.473828 18.6625 6.66875 18.25 7.15625 C 17.95 7.55625 17.7625 7.94375 17.5625 8.34375 C 16.9625 9.74375 17.1625 11.24375 18.0625 12.34375 C 19.4625 12.04375 20.65 11.15 21.25 9.75 C 21.45 9.35 21.5625 8.8375 21.5625 8.4375 C 21.625 7.375 20.746094 6.6269531 19.8125 6.53125 z M 12.53125 6.625 C 11.618164 6.711914 10.75 7.4375 10.75 8.4375 C 10.75 8.8375 10.8625 9.35 11.0625 9.75 C 11.6625 11.15 12.94375 12.04375 14.34375 12.34375 C 15.14375 11.24375 15.35 9.74375 14.75 8.34375 C 14.55 7.94375 14.3625 7.55 14.0625 7.25 C 13.65 6.7625 13.079102 6.5728516 12.53125 6.625 z M 7.625 11.4375 C 6.0480957 11.51843 5.34375 13.5 6.65625 14.53125 C 7.05625 14.83125 7.44375 15.05 7.84375 15.25 C 9.24375 15.85 10.8625 15.64375 12.0625 14.84375 C 11.7625 13.54375 10.74375 12.35 9.34375 11.75 C 8.84375 11.55 8.4375 11.4375 7.9375 11.4375 C 7.825 11.425 7.730127 11.4321 7.625 11.4375 z M 23.03125 17.5 C 22.115234 17.48242 21.1875 17.75 20.4375 18.25 C 20.7375 19.55 21.75625 20.74375 23.15625 21.34375 C 23.65625 21.54375 24.0625 21.65625 24.5625 21.65625 C 26.3625 21.75625 27.24375 19.53125 25.84375 18.53125 C 25.44375 18.23125 25.05625 18.04375 24.65625 17.84375 C 24.13125 17.61875 23.580859 17.510547 23.03125 17.5 z M 9.375 17.59375 C 8.8253906 17.6043 8.275 17.7125 7.75 17.9375 C 7.25 18.1375 6.8625 18.35625 6.5625 18.65625 C 5.2625 19.75625 6.1375 21.85 7.9375 21.75 C 8.4375 21.75 8.94375 21.6375 9.34375 21.4375 C 10.74375 20.8375 11.7375 19.64375 11.9375 18.34375 C 11.1875 17.84375 10.291016 17.576172 9.375 17.59375 z M 14.4375 20.65625 C 13.0375 20.95625 11.85 21.85 11.25 23.25 C 11.05 23.65 10.9375 24.13125 10.9375 24.53125 C 10.8375 26.23125 13.15625 27.14375 14.15625 25.84375 C 14.45625 25.44375 14.64375 25.05625 14.84375 24.65625 C 15.44375 23.35625 15.2375 21.85625 14.4375 20.65625 z M 18.15625 20.75 C 17.35625 21.85 17.15 23.35 17.75 24.75 C 17.95 25.15 18.1375 25.54375 18.4375 25.84375 C 19.5375 27.04375 21.85 26.15625 21.75 24.65625 C 21.75 24.25625 21.6375 23.74375 21.4375 23.34375 C 20.8375 21.94375 19.55625 21.05 18.15625 20.75 z "
    id="path2988">

    <animateTransform attributeType="xml" attributeName="transform" type="rotate" from="0 16.1 16.5" to="360 16.1 16.5" begin="0" dur="2s" repeatCount="indefinite" />
  </path>

</svg>
