<?xml version="1.0" encoding="utf-8"?>
<!-- Generator: Adobe Illustrator 18.0.0, SVG Export Plug-In . SVG Version: 6.00 Build 0)  -->
<!DOCTYPE svg PUBLIC "-//W3C//DTD SVG 1.1//EN" "http://www.w3.org/Graphics/SVG/1.1/DTD/svg11.dtd">
<svg version="1.1" id="Layer_1" xmlns="http://www.w3.org/2000/svg" xmlns:xlink="http://www.w3.org/1999/xlink" x="0px" y="0px"
	 viewBox="0 0 304 102" enable-background="new 0 0 304 102" xml:space="preserve">
<g>
	<path fill="#00A818" d="M272.5,14.7c-3.2-1.1-6.7-1.2-10.4-0.1c-5.1,1.5-9,5.6-10.5,10.8c-2.9,10,3.5,19.1,12.5,21.1v4.4
		c5-0.5,9.4-2.7,13.3-6.5c1.3-1.3,2.3-2.7,3.2-4.2c1.8-2.9,2.9-6,3.2-9.1C284,23.5,279.2,17,272.5,14.7z M264.9,20.7
		c0.3,0.3,0.5,0.7,0.7,1.1c0.6,1.4,0.4,2.9-0.4,4c-1.4-0.3-2.7-1.2-3.3-2.6c-0.2-0.4-0.3-0.9-0.3-1.3
		C261.6,20.3,263.8,19.4,264.9,20.7z M258.8,24.9c0.5,0,0.9,0.1,1.4,0.3c1.4,0.6,2.4,1.8,2.7,3.1c-1.2,0.8-2.8,1-4.2,0.4
		c-0.4-0.2-0.8-0.4-1.2-0.7C256.1,26.9,257,24.7,258.8,24.9z M260.2,34.9c-0.4,0.2-0.9,0.3-1.4,0.3c-1.8,0.1-2.7-2-1.4-3.1
		c0.3-0.3,0.7-0.5,1.2-0.7c1.4-0.6,3-0.4,4.2,0.4C262.6,33.1,261.6,34.3,260.2,34.9z M261.8,38c0-0.4,0.1-0.9,0.3-1.3
		c0.6-1.4,1.8-2.3,3.2-2.6c0.8,1.2,1,2.7,0.4,4c-0.2,0.4-0.4,0.8-0.7,1.2C264,40.6,261.7,39.7,261.8,38z M268.4,21.8
		c0.2-0.4,0.4-0.8,0.7-1.2c1.1-1.3,3.4-0.4,3.3,1.3c0,0.4-0.1,0.9-0.3,1.3c-0.6,1.4-1.8,2.3-3.2,2.6C268,24.7,267.8,23.2,268.4,21.8
		z M269.3,39.3c-0.3-0.3-0.5-0.7-0.7-1.1c-0.6-1.4-0.4-2.9,0.4-4c1.4,0.3,2.7,1.2,3.3,2.6c0.2,0.4,0.3,0.9,0.3,1.3
		C272.7,39.6,270.4,40.5,269.3,39.3z M275.4,35.1c-0.5,0-0.9-0.1-1.4-0.3c-1.4-0.6-2.4-1.8-2.7-3.1c1.2-0.8,2.8-1,4.2-0.4
		c0.4,0.2,0.8,0.4,1.2,0.7C278.1,33,277.2,35.2,275.4,35.1z"/>
	<path d="M252,50.3c-3,0-4.9,1.5-6.3,3.8c0-0.6,0.3-1.3,0.3-1.8v-1h-5v25h5V61.9c0-4.1,2.2-6.6,6-6.6h1v-5H252z"/>
	<path d="M48.7,59.5c-1.4-2.2-3.4-3.7-6.3-3.7c-4.6,0-7.9,3.5-7.9,7.9c0,4.4,3.3,7.9,7.9,7.9c2.9,0,4.9-1.4,6.3-3.6l4.6,2.7
		c-2.2,3.4-6.3,5.9-10.9,5.9c-8.5,0-13.4-6.4-13.4-12.8S34,51,42.4,51c5.2,0,8.5,2.5,10.9,5.9L48.7,59.5z"/>
	<path d="M57.7,51.6h5.2v13.6c0,3.6,2.6,6.1,5.9,6.1c3.2,0,5.9-2.6,5.9-6.1V51.6h5.2v14c0,6.8-5.3,10.9-11.1,10.9
		c-5.8,0-11.1-4.1-11.1-10.9V51.6z"/>
	<path d="M104.3,59.5c-1.4-2.2-3.4-3.7-6.3-3.7c-4.6,0-7.9,3.5-7.9,7.9c0,4.4,3.3,7.9,7.9,7.9c2.9,0,4.9-1.4,6.3-3.6l4.6,2.7
		c-2.2,3.4-6.3,5.9-10.9,5.9c-8.5,0-13.4-6.4-13.4-12.8S89.5,51,98,51c5.2,0,8.5,2.5,10.9,5.9L104.3,59.5z"/>
	<path d="M113.3,51.6h5.2v13.6c0,3.6,2.6,6.1,5.9,6.1c3.2,0,5.9-2.6,5.9-6.1V51.6h5.2v14c0,6.8-5.3,10.9-11.1,10.9
		c-5.8,0-11.1-4.1-11.1-10.9V51.6z"/>
	<path d="M142,60.7c0-6.2,4.1-9.7,8.9-9.7c3.7,0,6.3,1.8,7.3,4.3h0.1c1-2.6,3.6-4.3,7.3-4.3c4.8,0,8.9,3.6,8.9,9.7v15.2h-5.2V60.7
		c0-2.9-1.8-4.6-4-4.6c-2.5,0-4.3,1.5-4.3,5.3v14.4h-5.2V61.4c0-3.8-1.8-5.3-4.3-5.3c-2.2,0-4,1.7-4,4.6v15.1H142V60.7z"/>
	<path d="M180.9,44.4h5.2v10.2h0.1c1.2-2,4.5-3.6,7.9-3.6c6.3,0,12.6,4.7,12.6,12.8c0,8.1-6.3,12.8-12.6,12.8
		c-3.4,0-6.7-1.6-7.9-3.6h-0.1v3h-5.2V44.4z M193.6,55.9c-4.3,0-7.5,3.4-7.5,7.9c0,4.5,3.2,7.9,7.5,7.9c4.4,0,7.6-3.4,7.6-7.9
		C201.2,59.2,198,55.9,193.6,55.9z"/>
	<path d="M234.7,70.6c-2.9,3.7-6.9,5.9-11.3,5.9c-8.5,0-13.4-6.4-13.4-12.8S215,51,223.4,51c5,0,12.6,4.2,12.6,13.6v0.9h-20.1
		c0.3,3.7,3.8,6.4,7.4,6.4c2.8,0,5.2-1.4,7-3.8L234.7,70.6z M229.9,61.2c-1.1-3.7-3.8-5.7-7.2-5.7c-3.3,0-6,2.1-6.9,5.7H229.9z"/>
</g>
</svg>
