<?xml version="1.0" encoding="UTF-8" standalone="no"?>
<!-- Created with Inkscape (http://www.inkscape.org/) -->

<svg
   xmlns:dc="http://purl.org/dc/elements/1.1/"
   xmlns:cc="http://creativecommons.org/ns#"
   xmlns:rdf="http://www.w3.org/1999/02/22-rdf-syntax-ns#"
   xmlns:svg="http://www.w3.org/2000/svg"
   xmlns="http://www.w3.org/2000/svg"
   xmlns:xlink="http://www.w3.org/1999/xlink"
   xmlns:sodipodi="http://sodipodi.sourceforge.net/DTD/sodipodi-0.dtd"
   xmlns:inkscape="http://www.inkscape.org/namespaces/inkscape"
   width="116.2116mm"
   height="110.93777mm"
   viewBox="0 0 411.77339 393.08657"
   id="svg2"
   version="1.1"
   inkscape:version="0.91 r13725"
   sodipodi:docname="single-source-of-truth.svg"
   inkscape:export-filename="/Users/aslakhellesoy/git/cucumber/brand/png/single-source-of-truth-512x512.png"
   inkscape:export-xdpi="112.98"
   inkscape:export-ydpi="112.98">
  <defs
     id="defs4">
    <path
       inkscape:connector-curvature="0"
       id="path4325"
       d="m 321.98264,287.53741 a 117.32394,117.32394 0 0 1 165.89583,2.89569 117.32394,117.32394 0 0 1 -2.89572,165.89588 117.32394,117.32394 0 0 1 -165.89585,-2.89579 117.32394,117.32394 0 0 1 2.89574,-165.89578 z"
       style="opacity:1;fill:none;fill-opacity:1;fill-rule:evenodd;stroke:#1b1d1e;stroke-width:3.35211372;stroke-linecap:butt;stroke-linejoin:miter;stroke-miterlimit:4;stroke-dasharray:none;stroke-opacity:1" />
    <path
       style="opacity:1;fill:none;fill-opacity:1;fill-rule:evenodd;stroke:#1b1d1e;stroke-width:3.71830988;stroke-linecap:butt;stroke-linejoin:miter;stroke-miterlimit:4;stroke-dasharray:none;stroke-opacity:1"
       d="M 212.34183,490.9332 A 130.14084,130.14084 0 0 0 342.48267,621.07404 130.14084,130.14084 0 0 0 472.6235,490.9332 130.14084,130.14084 0 0 0 342.48267,360.79236 130.14084,130.14084 0 0 0 212.34183,490.9332 Z"
       id="circle4312"
       inkscape:connector-curvature="0" />
    <path
       inkscape:connector-curvature="0"
       id="path4340"
       d="M 491.75797,617.73852 A 130.14084,130.14084 0 0 0 589.288,461.65789 130.14084,130.14084 0 0 0 433.20736,364.12788 130.14084,130.14084 0 0 0 335.67734,520.2085 130.14084,130.14084 0 0 0 491.75797,617.73852 Z"
       style="opacity:1;fill:none;fill-opacity:1;fill-rule:evenodd;stroke:#1b1d1e;stroke-width:3.71830988;stroke-linecap:butt;stroke-linejoin:miter;stroke-miterlimit:4;stroke-dasharray:none;stroke-opacity:1" />
    <path
       style="display:inline;opacity:1;fill:none;fill-opacity:1;fill-rule:evenodd;stroke:none;stroke-width:3.57746506;stroke-linecap:butt;stroke-linejoin:miter;stroke-miterlimit:4;stroke-dasharray:none;stroke-opacity:1"
       d="M 217.64585,490.93359 A 125.21127,125.21127 0 0 0 342.85712,616.14486 125.21127,125.21127 0 0 0 468.06838,490.93359 125.21127,125.21127 0 0 0 342.85712,365.72232 125.21127,125.21127 0 0 0 217.64585,490.93359 Z"
       id="path4442-3"
       inkscape:connector-curvature="0" />
  </defs>
  <sodipodi:namedview
     id="base"
     pagecolor="#ffffff"
     bordercolor="#666666"
     borderopacity="1.0"
     inkscape:pageopacity="0.0"
     inkscape:pageshadow="2"
     inkscape:zoom="0.7"
     inkscape:cx="229.53948"
     inkscape:cy="182.53113"
     inkscape:document-units="px"
     inkscape:current-layer="layer3"
     showgrid="false"
     inkscape:window-width="1440"
     inkscape:window-height="851"
     inkscape:window-x="0"
     inkscape:window-y="0"
     inkscape:window-maximized="1"
     showguides="true"
     inkscape:guide-bbox="true"
     fit-margin-top="1"
     fit-margin-left="1"
     fit-margin-right="1"
     fit-margin-bottom="1" />
  <metadata
     id="metadata7">
    <rdf:RDF>
      <cc:Work
         rdf:about="">
        <dc:format>image/svg+xml</dc:format>
        <dc:type
           rdf:resource="http://purl.org/dc/dcmitype/StillImage" />
        <dc:title></dc:title>
      </cc:Work>
    </rdf:RDF>
  </metadata>
  <g
     inkscape:label="disc-magenta"
     inkscape:groupmode="layer"
     id="layer1"
     style="display:inline"
     transform="translate(-197.31381,-243.39032)">
    <circle
       style="opacity:0.5;fill:#ff00ff;fill-opacity:1;fill-rule:evenodd;stroke:none;stroke-width:4;stroke-linecap:butt;stroke-linejoin:miter;stroke-miterlimit:4;stroke-dasharray:none;stroke-opacity:1"
       id="path4136"
       cx="462.85712"
       cy="490.93359"
       r="140" />
  </g>
  <g
     inkscape:label="disc-yellow"
     inkscape:groupmode="layer"
     id="g4146"
     style="display:inline"
     transform="translate(-197.31381,-243.39032)">
    <circle
       style="opacity:0.5;fill:#ffff00;fill-opacity:1;fill-rule:evenodd;stroke:none;stroke-width:4;stroke-linecap:butt;stroke-linejoin:miter;stroke-miterlimit:4;stroke-dasharray:none;stroke-opacity:1"
       id="circle4148"
       cx="402.85712"
       cy="388.93362"
       r="140" />
  </g>
  <g
     inkscape:label="disc-cyan"
     inkscape:groupmode="layer"
     id="g4142"
     style="display:inline"
     transform="translate(-197.31381,-243.39032)">
    <circle
       style="opacity:0.5;fill:#00ffff;fill-opacity:1;fill-rule:evenodd;stroke:none;stroke-width:4;stroke-linecap:butt;stroke-linejoin:miter;stroke-miterlimit:4;stroke-dasharray:none;stroke-opacity:1"
       id="circle4144"
       cx="342.85712"
       cy="490.93362"
       r="140" />
  </g>
  <g
     id="g4138"
     inkscape:groupmode="layer"
     inkscape:label="circle-yellow"
     style="display:inline"
     transform="translate(-197.31381,-243.39032)">
    <circle
       r="140"
       cy="388.93362"
       cx="402.85712"
       id="circle4140"
       style="opacity:1;fill:none;fill-opacity:1;fill-rule:evenodd;stroke:#1b1d1e;stroke-width:4;stroke-linecap:butt;stroke-linejoin:miter;stroke-miterlimit:4;stroke-dasharray:none;stroke-opacity:1" />
  </g>
  <g
     style="display:inline"
     inkscape:label="circle-magenta"
     inkscape:groupmode="layer"
     id="g4150"
     transform="translate(-197.31381,-243.39032)">
    <circle
       style="opacity:1;fill:none;fill-opacity:1;fill-rule:evenodd;stroke:#1b1d1e;stroke-width:4;stroke-linecap:butt;stroke-linejoin:miter;stroke-miterlimit:4;stroke-dasharray:none;stroke-opacity:1"
       id="circle4152"
       cx="463.54388"
       cy="490.91974"
       r="140" />
  </g>
  <g
     id="g4154"
     inkscape:groupmode="layer"
     inkscape:label="circle-cyan"
     style="display:inline"
     transform="translate(-197.31381,-243.39032)">
    <circle
       r="140"
       cy="490.93359"
       cx="342.85712"
       id="circle4156"
       style="opacity:1;fill:none;fill-opacity:1;fill-rule:evenodd;stroke:#1b1d1e;stroke-width:4;stroke-linecap:butt;stroke-linejoin:miter;stroke-miterlimit:4;stroke-dasharray:none;stroke-opacity:1" />
  </g>
  <g
     inkscape:groupmode="layer"
     id="layer6"
     inkscape:label="text-guide-circles"
     style="display:none"
     transform="translate(-197.31381,-243.39032)">
    <ellipse
       cy="253.0668"
       cx="-542.56818"
       id="circle4156-7"
       style="display:inline;opacity:1;fill:none;fill-opacity:1;fill-rule:evenodd;stroke:#1b1d1e;stroke-width:3.66160607;stroke-linecap:butt;stroke-linejoin:miter;stroke-miterlimit:4;stroke-dasharray:none;stroke-opacity:1"
       transform="matrix(-0.86602546,-0.49999991,-0.50000007,0.86602536,0,0)"
       rx="128.15645"
       ry="128.15643" />
    <ellipse
       cy="505.01431"
       cx="448.11728"
       id="circle4156-7-9"
       style="display:inline;opacity:1;fill:none;fill-opacity:1;fill-rule:evenodd;stroke:#1b1d1e;stroke-width:3.66176558;stroke-linecap:butt;stroke-linejoin:miter;stroke-miterlimit:4;stroke-dasharray:none;stroke-opacity:1"
       transform="matrix(-0.08715566,0.99619471,0.99619469,0.08715586,0,0)"
       rx="128.16188"
       ry="128.16174" />
    <ellipse
       cy="-34.11261"
       cx="-558.92688"
       id="circle4156-7-2"
       style="display:inline;opacity:1;fill:none;fill-opacity:1;fill-rule:evenodd;stroke:#1b1d1e;stroke-width:3.09828353;stroke-linecap:butt;stroke-linejoin:miter;stroke-miterlimit:4;stroke-dasharray:none;stroke-opacity:1"
       rx="108.44006"
       ry="108.44007"
       transform="matrix(-0.76040595,-0.64944806,0.64944806,-0.76040595,0,0)" />
  </g>
  <g
     inkscape:groupmode="layer"
     id="layer2"
     inkscape:label="mark"
     style="display:inline"
     transform="translate(-197.31381,-243.39032)">
    <g
       id="g4268"
       transform="matrix(2.6940073,0,0,2.6940073,359.16058,402.15044)">
      <g
         style="display:inline"
         inkscape:label="bubble"
         id="layer1-4">
        <path
           inkscape:connector-curvature="0"
           id="path3943"
           d="m 16.4375,0.5625 c -9.0505334,0 -16.375,7.3244666 -16.375,16.375 0,7.968438 5.7120487,14.589408 13.25,16.0625 l 0,4.6875 C 23.112594,36.209998 31.789985,28.430631 32.4375,18.21875 32.82725,12.072053 29.762545,5.7970183 24.59375,2.75 24.297815,2.5755457 23.997146,2.4023576 23.6875,2.25 23.371984,2.0947542 23.047989,1.9434484 22.71875,1.8125 22.61424,1.7687818 22.511836,1.7291224 22.40625,1.6875 22.118693,1.5813485 21.828537,1.4618138 21.53125,1.375 19.928923,0.8468741 18.21606,0.5625 16.4375,0.5625 Z"
           style="fill:#00a818;fill-opacity:1;stroke:none;stroke-width:0.09999999;stroke-linecap:butt;stroke-linejoin:miter;stroke-miterlimit:4;stroke-dasharray:none;stroke-opacity:1" />
      </g>
      <path
         id="rect4005"
         d="m 19.8125,6.625 c -0.560156,-0.057422 -1.15,0.1375 -1.5625,0.625 -0.3,0.4 -0.4875,0.7875 -0.6875,1.1875 -0.6,1.4 -0.4,2.9 0.5,4 1.4,-0.3 2.5875,-1.19375 3.1875,-2.59375 0.2,-0.4 0.3125,-0.9125 0.3125,-1.3125 C 21.625,7.46875 20.746094,6.7207031 19.8125,6.625 Z M 12.53125,6.71875 C 11.618164,6.8056641 10.75,7.53125 10.75,8.53125 c 0,0.4 0.1125,0.9125 0.3125,1.3125 0.6,1.4 1.88125,2.29375 3.28125,2.59375 0.8,-1.1 1.00625,-2.6 0.40625,-4 -0.2,-0.4 -0.3875,-0.79375 -0.6875,-1.09375 C 13.65,6.85625 13.079102,6.6666016 12.53125,6.71875 Z M 7.625,11.53125 c -1.5769043,0.08093 -2.28125,2.0625 -0.96875,3.09375 0.4,0.3 0.7875,0.51875 1.1875,0.71875 1.4,0.6 3.01875,0.39375 4.21875,-0.40625 -0.3,-1.3 -1.31875,-2.49375 -2.71875,-3.09375 -0.5,-0.2 -0.90625,-0.3125 -1.40625,-0.3125 -0.1125,-0.0125 -0.207373,-0.0054 -0.3125,0 z m 15.40625,6.0625 c -0.916016,-0.01758 -1.84375,0.25 -2.59375,0.75 0.3,1.3 1.31875,2.49375 2.71875,3.09375 0.5,0.2 0.90625,0.3125 1.40625,0.3125 1.8,0.1 2.68125,-2.125 1.28125,-3.125 -0.4,-0.3 -0.7875,-0.4875 -1.1875,-0.6875 -0.525,-0.225 -1.075391,-0.333203 -1.625,-0.34375 z M 9.375,17.6875 c -0.5496094,0.01055 -1.1,0.11875 -1.625,0.34375 -0.5,0.2 -0.8875,0.41875 -1.1875,0.71875 -1.3,1.1 -0.425,3.19375 1.375,3.09375 0.5,0 1.00625,-0.1125 1.40625,-0.3125 1.4,-0.6 2.39375,-1.79375 2.59375,-3.09375 -0.75,-0.5 -1.646484,-0.767578 -2.5625,-0.75 z m 5.0625,3.0625 c -1.4,0.3 -2.5875,1.19375 -3.1875,2.59375 -0.2,0.4 -0.3125,0.88125 -0.3125,1.28125 -0.1,1.7 2.21875,2.6125 3.21875,1.3125 0.3,-0.4 0.4875,-0.7875 0.6875,-1.1875 0.6,-1.3 0.39375,-2.8 -0.40625,-4 z m 3.71875,0.09375 c -0.8,1.1 -1.00625,2.6 -0.40625,4 0.2,0.4 0.3875,0.79375 0.6875,1.09375 1.1,1.2 3.4125,0.3125 3.3125,-1.1875 0,-0.4 -0.1125,-0.9125 -0.3125,-1.3125 -0.6,-1.4 -1.88125,-2.29375 -3.28125,-2.59375 z"
         style="fill:#ffffff;fill-opacity:1;stroke:none;stroke-width:0.1;stroke-miterlimit:4;stroke-dasharray:none;stroke-opacity:1"
         inkscape:connector-curvature="0" />
    </g>
  </g>
  <g
     inkscape:groupmode="layer"
     id="layer3"
     inkscape:label="automated-tests"
     style="display:inline;opacity:0.86000001"
     transform="translate(-197.31381,-243.39032)">
    <path
       inkscape:connector-curvature="0"
       id="path4413"
       d="M 314.20857,304.13218 A 111.00002,111.00002 0 0 1 469.65854,282.28506 111.00002,111.00002 0 0 1 491.50565,437.73513 111.00002,111.00002 0 0 1 336.0556,459.58214 111.00002,111.00002 0 0 1 314.20857,304.13218 Z"
       style="display:inline;opacity:1;fill:none;fill-opacity:1;fill-rule:evenodd;stroke:none;stroke-width:3.23972201;stroke-linecap:butt;stroke-linejoin:miter;stroke-miterlimit:4;stroke-dasharray:none;stroke-opacity:1" />
    <text
       xml:space="preserve"
       style="font-style:normal;font-weight:normal;font-size:40px;line-height:125%;font-family:Sans;letter-spacing:0px;word-spacing:0px;fill:#000000;fill-opacity:1;stroke:none;stroke-width:1px;stroke-linecap:butt;stroke-linejoin:miter;stroke-opacity:1"
       x="612.15247"
       y="349.29602"
       id="text4505"
       sodipodi:linespacing="125%"><tspan
         sodipodi:role="line"
         id="tspan4507"
         x="612.15247"
         y="349.29602" /></text>
    <text
       xml:space="preserve"
       style="font-style:normal;font-weight:normal;font-size:40px;line-height:125%;font-family:Sans;letter-spacing:0px;word-spacing:0px;display:inline;fill:#000000;fill-opacity:1;stroke:none;stroke-width:1px;stroke-linecap:butt;stroke-linejoin:miter;stroke-opacity:1"
       id="text4315-9"
       sodipodi:linespacing="125%"><textPath
         xlink:href="#circle4156-7-2"
         id="textPath3456"
         style="font-style:normal;font-variant:normal;font-weight:normal;font-stretch:normal;font-size:25px;line-height:125%;font-family:Roboto;-inkscape-font-specification:'Roboto, Normal';text-align:start;writing-mode:lr-tb;text-anchor:start">Automated Tests</textPath></text>
    <text
       xml:space="preserve"
       style="font-style:normal;font-weight:normal;font-size:40px;line-height:125%;font-family:sans-serif;letter-spacing:0px;word-spacing:0px;fill:#000000;fill-opacity:1;stroke:none;stroke-width:1px;stroke-linecap:butt;stroke-linejoin:miter;stroke-opacity:1"
       x="267.14285"
       y="198.07649"
       id="text3461"
       sodipodi:linespacing="125%"><tspan
         sodipodi:role="line"
         id="tspan3463"
         x="267.14285"
         y="198.07649" /></text>
  </g>
  <g
     inkscape:groupmode="layer"
     id="layer4"
     inkscape:label="specifications"
     style="display:inline"
     transform="translate(-197.31381,-243.39032)">
    <path
       style="display:inline;opacity:1;fill:none;fill-opacity:1;fill-rule:evenodd;stroke:none;stroke-width:3.57746506;stroke-linecap:butt;stroke-linejoin:miter;stroke-miterlimit:4;stroke-dasharray:none;stroke-opacity:1"
       d="M 219.94633,514.82502 A 125.21127,125.21127 0 0 0 366.74856,613.84438 125.21127,125.21127 0 0 0 465.7679,467.04216 125.21127,125.21127 0 0 0 318.96568,368.02279 125.21127,125.21127 0 0 0 219.94633,514.82502 Z"
       id="path4442"
       inkscape:connector-curvature="0" />
    <text
       xml:space="preserve"
       style="font-style:normal;font-weight:normal;font-size:40px;line-height:125%;font-family:Sans;letter-spacing:0px;word-spacing:0px;display:inline;fill:#000000;fill-opacity:1;stroke:none;stroke-width:1px;stroke-linecap:butt;stroke-linejoin:miter;stroke-opacity:1"
       id="text4315"
       sodipodi:linespacing="125%"><textPath
         xlink:href="#circle4156-7"
         id="textPath3420"
         style="font-style:normal;font-variant:normal;font-weight:normal;font-stretch:normal;font-size:25px;line-height:125%;font-family:Roboto;-inkscape-font-specification:'Roboto, Normal';text-align:start;writing-mode:lr-tb;text-anchor:start">Executable Specifications</textPath></text>
  </g>
  <g
     inkscape:groupmode="layer"
     id="layer5"
     inkscape:label="documentation"
     style="display:inline"
     transform="translate(-197.31381,-243.39032)">
    <path
       inkscape:connector-curvature="0"
       id="path4471"
       d="M 470.09557,615.93418 A 125.18604,125.18604 0 0 0 588.55832,484.36803 125.18604,125.18604 0 0 0 456.99216,365.90529 125.18604,125.18604 0 0 0 338.52942,497.47144 125.18604,125.18604 0 0 0 470.09557,615.93418 Z"
       style="display:inline;opacity:1;fill:none;fill-opacity:1;fill-rule:evenodd;stroke:none;stroke-width:3.57674408;stroke-linecap:butt;stroke-linejoin:miter;stroke-miterlimit:4;stroke-dasharray:none;stroke-opacity:1" />
    <text
       sodipodi:linespacing="125%"
       id="text4342"
       style="font-style:normal;font-variant:normal;font-weight:normal;font-stretch:normal;font-size:25px;line-height:125%;font-family:Roboto;-inkscape-font-specification:'Roboto, Normal';text-align:start;letter-spacing:0px;word-spacing:0px;writing-mode:lr-tb;text-anchor:start;display:inline;fill:#000000;fill-opacity:1;stroke:none;stroke-width:1px;stroke-linecap:butt;stroke-linejoin:miter;stroke-opacity:1"
       xml:space="preserve"><textPath
         xlink:href="#circle4156-7-9"
         id="textPath3452">Living Documentation</textPath></text>
  </g>
</svg>
