<?xml version="1.0" encoding="UTF-8" standalone="no"?>
<!-- Generator: Adobe Illustrator 18.0.0, SVG Export Plug-In . SVG Version: 6.00 Build 0)  -->

<svg
   xmlns:dc="http://purl.org/dc/elements/1.1/"
   xmlns:cc="http://creativecommons.org/ns#"
   xmlns:rdf="http://www.w3.org/1999/02/22-rdf-syntax-ns#"
   xmlns:svg="http://www.w3.org/2000/svg"
   xmlns="http://www.w3.org/2000/svg"
   xmlns:sodipodi="http://sodipodi.sourceforge.net/DTD/sodipodi-0.dtd"
   xmlns:inkscape="http://www.inkscape.org/namespaces/inkscape"
   version="1.1"
   id="Layer_1"
   x="0px"
   y="0px"
   viewBox="0 0 455.01294 113.0837"
   enable-background="new 0 0 304 102"
   xml:space="preserve"
   inkscape:version="0.91 r13725"
   width="100%"
   height="100%"
   sodipodi:docname="specflow-embedded-font.svg"
   inkscape:export-filename="/Users/aslakhellesoy/git/cucumber/brand/png/specflow-path-font.png"
   inkscape:export-xdpi="400.58282"
   inkscape:export-ydpi="400.58282"><metadata
     id="metadata3100"><rdf:RDF><cc:Work
         rdf:about=""><dc:format>image/svg+xml</dc:format><dc:type
           rdf:resource="http://purl.org/dc/dcmitype/StillImage" /><dc:title></dc:title></cc:Work></rdf:RDF></metadata><defs
     id="defs3098" /><sodipodi:namedview
     pagecolor="#ffffff"
     bordercolor="#666666"
     borderopacity="1"
     objecttolerance="10"
     gridtolerance="10"
     guidetolerance="10"
     inkscape:pageopacity="0"
     inkscape:pageshadow="2"
     inkscape:window-width="1348"
     inkscape:window-height="747"
     id="namedview3096"
     showgrid="false"
     fit-margin-top="25"
     fit-margin-left="25"
     fit-margin-right="25"
     fit-margin-bottom="25"
     inkscape:zoom="2.3157894"
     inkscape:cx="215.54657"
     inkscape:cy="46.588824"
     inkscape:window-x="41"
     inkscape:window-y="21"
     inkscape:window-maximized="0"
     inkscape:current-layer="text3003" /><g
     id="g3007"
     transform="translate(-86.89067,0)"
     inkscape:export-filename="/Users/aslakhellesoy/github/cucumber-ltd/brand/png/bdd-kickstart.png"
     inkscape:export-xdpi="400.34293"
     inkscape:export-ydpi="400.34293"><g
       style="font-style:normal;font-variant:normal;font-weight:normal;font-stretch:normal;font-size:50px;line-height:125%;font-family:'Insignia LT Std';-inkscape-font-specification:'Insignia LT Std, Normal';text-align:start;letter-spacing:0px;word-spacing:0px;writing-mode:lr-tb;text-anchor:start;fill:#000000;fill-opacity:1;stroke:none"
       id="text3003"><path
         d="m 194.77274,84.006422 c 3.3,2.8 6.8,4.25 10.9,4.25 7.35,0 10.25,-4.6 10.25,-8.15 0,-3.6 -2.1,-5.65 -6.4,-6.45 l -5.25,-1 c -2,-0.35 -3.15,-1.1 -3.15,-2.55 0,-1.95 2.2,-3.05 4.45,-3.05 1.7,0 3.95,0.55 6.5,2.7 l 2.95,-3.65 c -3.3,-2.35 -6.25,-3.35 -9.6,-3.35 -6.05,0 -9.5,3.8 -9.5,7.9 0,3.45 1.9,5.65 8.7,6.9 l 2.95,0.55 c 1.9,0.35 3.15,1.2 3.15,2.8 0,1.35 -1.8,3.05 -4.8,3.05 -2.7,0 -5.75,-1.55 -7.6,-3.55 l -3.55,3.6 z"
         style="fill:#65696b;fill-opacity:1"
         id="path3418" /><path
         d="m 225.41727,63.406422 -5.2,0 0,32.55 5.2,0 0,-11.3 0.1,0 c 1.35,2.05 4.1,3.6 7.7,3.6 7.85,0 12.8,-6.8 12.8,-12.75 0,-6.25 -4.6,-12.75 -12.55,-12.75 -3.3,0 -6.1,1.3 -7.95,3.6 l -0.1,0 0,-2.95 z m 15.1,12.1 c 0,4.35 -3.5,7.85 -7.7,7.85 -4.1,0 -7.6,-3.5 -7.6,-7.85 0,-4.35 3.5,-7.85 7.6,-7.85 4.2,0 7.7,3.5 7.7,7.85 z"
         style="fill:#65696b;fill-opacity:1"
         id="path3420" /><path
         d="m 269.68133,79.906422 c -1.8,2.4 -4.2,3.75 -7,3.75 -3.65,0 -7.1,-2.65 -7.4,-6.35 l 20.1,0 0,-0.95 c 0,-9.45 -7.5,-13.6 -12.55,-13.6 -8.45,0 -13.35,6.35 -13.35,12.75 0,6.4 4.9,12.75 13.35,12.75 4.35,-0.05 8.35,-2.25 11.25,-5.9 l -4.4,-2.45 z m -14.4,-6.9 c 0.85,-3.6 3.55,-5.65 6.85,-5.65 3.3,0 6.05,1.95 7.15,5.65 l -14,0 z"
         style="fill:#65696b;fill-opacity:1"
         id="path3422" /><path
         d="m 302.87117,68.606422 c -2.35,-3.4 -5.7,-5.85 -10.85,-5.85 -8.45,0 -13.35,6.35 -13.35,12.75 0,6.4 4.9,12.75 13.35,12.75 4.6,0 8.7,-2.45 10.85,-5.85 l -4.55,-2.7 c -1.4,2.2 -3.45,3.65 -6.3,3.65 -4.55,0 -7.85,-3.5 -7.85,-7.85 0,-4.35 3.3,-7.85 7.85,-7.85 2.95,0 4.9,1.5 6.3,3.65 l 4.55,-2.7 z"
         style="fill:#65696b;fill-opacity:1"
         id="path3424" /><path
         d="m 308.67664,95.956422 5.2,0 0,-22.65 6.85,0 0,5.5 c 0,5.05 2.5,6.9 7.85,9.45 l 2.3,-4.1 -2.8,-1.6 c -1.55,-0.9 -2.15,-2.15 -2.15,-4.95 l 0,-21.4 -5.2,0 0,12.2 -6.85,0 0,-4.4 c 0,-1.8 1.25,-3.55 4.4,-3.55 l 0,-4.9 -0.6,0 c -6.25,0 -9,4.25 -9,8.75 l 0,4.1 -3.4,0 0,4.9 3.4,0 0,22.65 z"
         style=""
         id="path3426" /><path
         d="M 258.35352 62.755859 C 249.90352 62.755859 245.00391 69.105859 245.00391 75.505859 C 245.00391 81.905859 249.90352 88.255859 258.35352 88.255859 C 266.80352 88.255859 271.70312 81.905859 271.70312 75.505859 C 271.70312 73.371446 271.14732 71.249652 270.10547 69.361328 L 263.28906 69.361328 C 265.09061 70.794007 266.20312 72.998523 266.20312 75.505859 C 266.20312 79.855859 262.90352 83.355469 258.35352 83.355469 C 253.80352 83.355469 250.50391 79.855859 250.50391 75.505859 C 250.50391 71.155859 253.80352 67.65625 258.35352 67.65625 C 258.54574 67.65625 280.16981 67.671304 280.35742 67.683594 C 278.80136 62.755605 280.82347 68.936257 278.80273 62.755859 C 263.68977 62.773539 263.10664 62.755861 258.35352 62.755859 z "
         transform="translate(86.89067,0)"
         id="path3428" /><path
         d="m 369.68133,88.256422 5.65,-13.1 0.1,0 5.65,13.1 9.35,-24.85 -5.6,0 -4.3,13.1 -0.1,0 -5.05,-11.6 -5.05,11.6 -0.1,0 -4.3,-13.1 -5.6,0 9.35,24.85 z"
         style=""
         id="path3430" /></g><g
       id="g6717"
       transform="translate(386.74717,24.5772)"><g
         style="display:inline"
         inkscape:label="bubble"
         id="layer1-2"><path
           inkscape:connector-curvature="0"
           id="path3943-3"
           d="m 16.4375,0.5625 c -9.0505334,0 -16.375,7.3244666 -16.375,16.375 0,7.968438 5.7120487,14.589408 13.25,16.0625 l 0,4.6875 C 23.112594,36.209998 31.789985,28.430631 32.4375,18.21875 32.82725,12.072053 29.762545,5.7970183 24.59375,2.75 24.297815,2.5755457 23.997146,2.4023576 23.6875,2.25 23.371984,2.0947542 23.047989,1.9434484 22.71875,1.8125 22.61424,1.7687818 22.511836,1.7291224 22.40625,1.6875 22.118693,1.5813485 21.828537,1.4618138 21.53125,1.375 19.928923,0.8468741 18.21606,0.5625 16.4375,0.5625 Z"
           style="fill:#3e10af;fill-opacity:1;stroke:none;stroke-width:0.09999999;stroke-linecap:butt;stroke-linejoin:miter;stroke-miterlimit:4;stroke-dasharray:none;stroke-opacity:1" /></g><path
         id="rect4005-5"
         d="m 19.8125,6.625 c -0.560156,-0.057422 -1.15,0.1375 -1.5625,0.625 -0.3,0.4 -0.4875,0.7875 -0.6875,1.1875 -0.6,1.4 -0.4,2.9 0.5,4 1.4,-0.3 2.5875,-1.19375 3.1875,-2.59375 0.2,-0.4 0.3125,-0.9125 0.3125,-1.3125 C 21.625,7.46875 20.746094,6.7207031 19.8125,6.625 Z M 12.53125,6.71875 C 11.618164,6.8056641 10.75,7.53125 10.75,8.53125 c 0,0.4 0.1125,0.9125 0.3125,1.3125 0.6,1.4 1.88125,2.29375 3.28125,2.59375 0.8,-1.1 1.00625,-2.6 0.40625,-4 -0.2,-0.4 -0.3875,-0.79375 -0.6875,-1.09375 C 13.65,6.85625 13.079102,6.6666016 12.53125,6.71875 Z M 7.625,11.53125 c -1.5769043,0.08093 -2.28125,2.0625 -0.96875,3.09375 0.4,0.3 0.7875,0.51875 1.1875,0.71875 1.4,0.6 3.01875,0.39375 4.21875,-0.40625 -0.3,-1.3 -1.31875,-2.49375 -2.71875,-3.09375 -0.5,-0.2 -0.90625,-0.3125 -1.40625,-0.3125 -0.1125,-0.0125 -0.207373,-0.0054 -0.3125,0 z m 15.40625,6.0625 c -0.916016,-0.01758 -1.84375,0.25 -2.59375,0.75 0.3,1.3 1.31875,2.49375 2.71875,3.09375 0.5,0.2 0.90625,0.3125 1.40625,0.3125 1.8,0.1 2.68125,-2.125 1.28125,-3.125 -0.4,-0.3 -0.7875,-0.4875 -1.1875,-0.6875 -0.525,-0.225 -1.075391,-0.333203 -1.625,-0.34375 z M 9.375,17.6875 c -0.5496094,0.01055 -1.1,0.11875 -1.625,0.34375 -0.5,0.2 -0.8875,0.41875 -1.1875,0.71875 -1.3,1.1 -0.425,3.19375 1.375,3.09375 0.5,0 1.00625,-0.1125 1.40625,-0.3125 1.4,-0.6 2.39375,-1.79375 2.59375,-3.09375 -0.75,-0.5 -1.646484,-0.767578 -2.5625,-0.75 z m 5.0625,3.0625 c -1.4,0.3 -2.5875,1.19375 -3.1875,2.59375 -0.2,0.4 -0.3125,0.88125 -0.3125,1.28125 -0.1,1.7 2.21875,2.6125 3.21875,1.3125 0.3,-0.4 0.4875,-0.7875 0.6875,-1.1875 0.6,-1.3 0.39375,-2.8 -0.40625,-4 z m 3.71875,0.09375 c -0.8,1.1 -1.00625,2.6 -0.40625,4 0.2,0.4 0.3875,0.79375 0.6875,1.09375 1.1,1.2 3.4125,0.3125 3.3125,-1.1875 0,-0.4 -0.1125,-0.9125 -0.3125,-1.3125 -0.6,-1.4 -1.88125,-2.29375 -3.28125,-2.59375 z"
         style="fill:#ffffff;fill-opacity:1;stroke:none;stroke-width:0.1;stroke-miterlimit:4;stroke-dasharray:none;stroke-opacity:1"
         inkscape:connector-curvature="0" /></g></g></svg>