<?xml version="1.0" encoding="UTF-8" standalone="no"?>
<!-- Generator: Adobe Illustrator 18.0.0, SVG Export Plug-In . SVG Version: 6.00 Build 0)  -->

<svg
   xmlns:dc="http://purl.org/dc/elements/1.1/"
   xmlns:cc="http://creativecommons.org/ns#"
   xmlns:rdf="http://www.w3.org/1999/02/22-rdf-syntax-ns#"
   xmlns:svg="http://www.w3.org/2000/svg"
   xmlns="http://www.w3.org/2000/svg"
   xmlns:sodipodi="http://sodipodi.sourceforge.net/DTD/sodipodi-0.dtd"
   xmlns:inkscape="http://www.inkscape.org/namespaces/inkscape"
   version="1.1"
   id="Layer_1"
   x="0px"
   y="0px"
   viewBox="0 0 455.01294 113.0837"
   enable-background="new 0 0 304 102"
   xml:space="preserve"
   inkscape:version="0.91 r13725"
   width="100%"
   height="100%"
   sodipodi:docname="specflow.svg"
   inkscape:export-filename="/Users/aslakhellesoy/github/cucumber-ltd/brand/png/cucumber-school.png"
   inkscape:export-xdpi="400.58282"
   inkscape:export-ydpi="400.58282"><metadata
     id="metadata3100"><rdf:RDF><cc:Work
         rdf:about=""><dc:format>image/svg+xml</dc:format><dc:type
           rdf:resource="http://purl.org/dc/dcmitype/StillImage" /><dc:title /></cc:Work></rdf:RDF></metadata><defs
     id="defs3098" /><sodipodi:namedview
     pagecolor="#ffffff"
     bordercolor="#666666"
     borderopacity="1"
     objecttolerance="10"
     gridtolerance="10"
     guidetolerance="10"
     inkscape:pageopacity="0"
     inkscape:pageshadow="2"
     inkscape:window-width="1372"
     inkscape:window-height="580"
     id="namedview3096"
     showgrid="false"
     fit-margin-top="25"
     fit-margin-left="25"
     fit-margin-right="25"
     fit-margin-bottom="25"
     inkscape:zoom="4.6315788"
     inkscape:cx="271.57498"
     inkscape:cy="42.270642"
     inkscape:window-x="48"
     inkscape:window-y="57"
     inkscape:window-maximized="0"
     inkscape:current-layer="g3007" /><g
     id="g3007"
     transform="translate(-86.89067,0)"
     inkscape:export-filename="/Users/aslakhellesoy/github/cucumber-ltd/brand/png/bdd-kickstart.png"
     inkscape:export-xdpi="400.34293"
     inkscape:export-ydpi="400.34293"><text
       sodipodi:linespacing="125%"
       id="text3003"
       y="87.606422"
       x="193.77274"
       style="font-style:normal;font-variant:normal;font-weight:normal;font-stretch:normal;font-size:50px;line-height:125%;font-family:'Insignia LT Std';-inkscape-font-specification:'Insignia LT Std, Normal';text-align:start;letter-spacing:0px;word-spacing:0px;writing-mode:lr-tb;text-anchor:start;fill:#000000;fill-opacity:1;stroke:none"
       xml:space="preserve"><tspan
         sodipodi:role="line"
         id="tspan3421"
         x="193.77274"
         y="87.606422"><tspan
   style="fill:#65696b;fill-opacity:1"
   id="tspan4242">spec</tspan>flow</tspan></text>
<path
       inkscape:connector-curvature="0"
       id="path3943-3"
       d="m 403.18467,25.1397 c -9.05053,0 -16.375,7.324467 -16.375,16.375 0,7.968438 5.71205,14.589408 13.25,16.0625 l 0,4.6875 c 9.80009,-1.477502 18.47748,-9.256869 19.125,-19.46875 0.38975,-6.146697 -2.67496,-12.421732 -7.84375,-15.46875 -0.29594,-0.174454 -0.5966,-0.347642 -0.90625,-0.5 -0.31552,-0.155246 -0.63951,-0.306552 -0.96875,-0.4375 -0.10451,-0.04372 -0.20691,-0.08338 -0.3125,-0.125 -0.28756,-0.106151 -0.57771,-0.225686 -0.875,-0.3125 -1.60233,-0.528126 -3.31519,-0.8125 -5.09375,-0.8125 z"
       style="fill:#3e10af;fill-opacity:1;stroke:none;stroke-width:0.09999999;stroke-linecap:butt;stroke-linejoin:miter;stroke-miterlimit:4;stroke-dasharray:none;stroke-opacity:1" /><path
       style="fill:#ffffff;fill-opacity:1;stroke:none;stroke-width:0.1;stroke-miterlimit:4;stroke-dasharray:none;stroke-opacity:1"
       d="m 406.55967,31.2022 c -0.56016,-0.05742 -1.15,0.1375 -1.5625,0.625 -0.3,0.4 -0.4875,0.7875 -0.6875,1.1875 -0.6,1.4 -0.4,2.9 0.5,4 1.4,-0.3 2.5875,-1.19375 3.1875,-2.59375 0.2,-0.4 0.3125,-0.9125 0.3125,-1.3125 0.0625,-1.0625 -0.81641,-1.810547 -1.75,-1.90625 z"
       id="path4218" /><path
       style="fill:#ffffff;fill-opacity:1;stroke:none;stroke-width:0.1;stroke-miterlimit:4;stroke-dasharray:none;stroke-opacity:1"
       d="m 399.27842,31.29595 c -0.91309,0.08691 -1.78125,0.8125 -1.78125,1.8125 0,0.4 0.1125,0.9125 0.3125,1.3125 0.6,1.4 1.88125,2.29375 3.28125,2.59375 0.8,-1.1 1.00625,-2.6 0.40625,-4 -0.2,-0.4 -0.3875,-0.79375 -0.6875,-1.09375 -0.4125,-0.4875 -0.9834,-0.677148 -1.53125,-0.625 z"
       id="path4216" /><path
       style="fill:#ffffff;fill-opacity:1;stroke:none;stroke-width:0.1;stroke-miterlimit:4;stroke-dasharray:none;stroke-opacity:1"
       d="m 394.37217,36.10845 c -1.5769,0.08093 -2.28125,2.0625 -0.96875,3.09375 0.4,0.3 0.7875,0.51875 1.1875,0.71875 1.4,0.6 3.01875,0.39375 4.21875,-0.40625 -0.3,-1.3 -1.31875,-2.49375 -2.71875,-3.09375 -0.5,-0.2 -0.90625,-0.3125 -1.40625,-0.3125 -0.1125,-0.0125 -0.20737,-0.0054 -0.3125,0 z"
       id="path4214" /><path
       style="fill:#ffffff;fill-opacity:1;stroke:none;stroke-width:0.1;stroke-miterlimit:4;stroke-dasharray:none;stroke-opacity:1"
       d="m 409.77842,42.17095 c -0.91602,-0.01758 -1.84375,0.25 -2.59375,0.75 0.3,1.3 1.31875,2.49375 2.71875,3.09375 0.5,0.2 0.90625,0.3125 1.40625,0.3125 1.8,0.1 2.68125,-2.125 1.28125,-3.125 -0.4,-0.3 -0.7875,-0.4875 -1.1875,-0.6875 -0.525,-0.225 -1.07539,-0.333203 -1.625,-0.34375 z"
       id="path4212" /><path
       style="fill:#ffffff;fill-opacity:1;stroke:none;stroke-width:0.1;stroke-miterlimit:4;stroke-dasharray:none;stroke-opacity:1"
       d="m 396.12217,42.2647 c -0.54961,0.01055 -1.1,0.11875 -1.625,0.34375 -0.5,0.2 -0.8875,0.41875 -1.1875,0.71875 -1.3,1.1 -0.425,3.19375 1.375,3.09375 0.5,0 1.00625,-0.1125 1.40625,-0.3125 1.4,-0.6 2.39375,-1.79375 2.59375,-3.09375 -0.75,-0.5 -1.64648,-0.767578 -2.5625,-0.75 z"
       id="path4210" /><path
       style="fill:#ffffff;fill-opacity:1;stroke:none;stroke-width:0.1;stroke-miterlimit:4;stroke-dasharray:none;stroke-opacity:1"
       d="m 401.18467,45.3272 c -1.4,0.3 -2.5875,1.19375 -3.1875,2.59375 -0.2,0.4 -0.3125,0.88125 -0.3125,1.28125 -0.1,1.7 2.21875,2.6125 3.21875,1.3125 0.3,-0.4 0.4875,-0.7875 0.6875,-1.1875 0.6,-1.3 0.39375,-2.8 -0.40625,-4 z"
       id="path4208" /><path
       style="fill:#ffffff;fill-opacity:1;stroke:none;stroke-width:0.1;stroke-miterlimit:4;stroke-dasharray:none;stroke-opacity:1"
       d="m 404.90342,45.42095 c -0.8,1.1 -1.00625,2.6 -0.40625,4 0.2,0.4 0.3875,0.79375 0.6875,1.09375 1.1,1.2 3.4125,0.3125 3.3125,-1.1875 0,-0.4 -0.1125,-0.9125 -0.3125,-1.3125 -0.6,-1.4 -1.88125,-2.29375 -3.28125,-2.59375 z"
       id="rect4005-5" /></g></svg>