<svg width="33" height="38" viewBox="0 0 33 38" xmlns="http://www.w3.org/2000/svg">
    <title>
        Group
    </title>
    <g fill="none" fill-rule="evenodd">
        <path d="M-4-1h40v40H-4z"/>
        <path d="M16.438.563C7.386.563.063 7.886.063 16.938c0 7.968 5.712 14.589 13.25 16.062v4.688c9.8-1.478 18.477-9.257 19.124-19.47.39-6.146-2.674-12.421-7.843-15.468a13.62 13.62 0 0 0-1.875-.938l-.313-.125c-.287-.106-.577-.225-.875-.312a16.246 16.246 0 0 0-5.093-.813v.001z" fill="#1b1d1e"/>
        <path d="M19.813 6.625a1.787 1.787 0 0 0-1.563.625c-.3.4-.488.787-.688 1.188-.6 1.4-.4 2.9.5 4 1.4-.3 2.588-1.194 3.188-2.594.2-.4.313-.913.313-1.313.062-1.062-.817-1.81-1.75-1.906zm-7.282.094c-.913.087-1.781.812-1.781 1.812 0 .4.113.913.313 1.313.6 1.4 1.88 2.293 3.28 2.594.8-1.1 1.007-2.6.407-4-.2-.4-.387-.794-.688-1.094a1.757 1.757 0 0 0-1.53-.625h-.001zM7.625 11.53c-1.577.081-2.281 2.063-.969 3.094.4.3.788.519 1.188.719 1.4.6 3.019.394 4.218-.406-.3-1.3-1.318-2.494-2.718-3.094-.5-.2-.906-.313-1.406-.313-.113-.012-.208-.005-.313 0zm15.406 6.063a4.574 4.574 0 0 0-2.593.75c.3 1.3 1.318 2.493 2.718 3.093.5.2.907.313 1.407.313 1.8.1 2.68-2.125 1.28-3.125-.4-.3-.787-.488-1.187-.688a4.32 4.32 0 0 0-1.625-.343zm-13.656.093c-.55.011-1.1.12-1.625.344-.5.2-.888.419-1.188.719-1.3 1.1-.425 3.194 1.375 3.094.5 0 1.007-.113 1.407-.313 1.4-.6 2.394-1.793 2.594-3.093a4.475 4.475 0 0 0-2.563-.75v-.001zm5.063 3.063c-1.4.3-2.588 1.194-3.188 2.594-.2.4-.313.881-.313 1.281-.1 1.7 2.22 2.613 3.22 1.313.3-.4.487-.788.687-1.188.6-1.3.394-2.8-.406-4zm3.718.094c-.8 1.1-1.006 2.6-.406 4 .2.4.387.793.688 1.093 1.1 1.2 3.412.313 3.312-1.187 0-.4-.113-.913-.313-1.313-.6-1.4-1.88-2.293-3.28-2.593h-.001z" fill="#FFF"/>
        <path fill="#1b1d1e" d="M28.65 2.56q0-.29.07-.56.07-.26.19-.49.13-.22.3-.41.18-.18.4-.31.21-.13.46-.2.25-.08.52-.08t.51.08q.25.07.47.2.21.13.39.31.18.19.3.41.13.23.2.49.07.27.07.56 0 .29-.07.55-.07.26-.2.49-.12.23-.3.42-.18.18-.39.31-.22.14-.47.21-.24.07-.51.07t-.52-.07q-.25-.07-.46-.21-.22-.13-.4-.31-.17-.19-.3-.42-.12-.23-.19-.49t-.07-.55m.31 0q0 .36.13.68.13.31.35.54.22.24.51.37.3.13.64.13.33 0 .63-.13.29-.13.52-.37.22-.23.34-.54.13-.32.13-.68 0-.37-.13-.68-.12-.31-.34-.54-.23-.24-.52-.37-.3-.13-.63-.13-.34 0-.64.13-.29.13-.51.37-.22.23-.35.54-.13.31-.13.68m1.23.2v.93h-.39V1.36h.75q.21 0 .37.05.16.04.28.13.11.08.17.22.07.13.07.3 0 .18-.09.3-.09.13-.26.22.09.04.15.09.07.06.11.13.04.08.05.16.02.09.02.18v.15q0 .11.01.2.01.09.04.15v.05h-.4q-.01-.04-.02-.09-.01-.06-.01-.12-.01-.05-.01-.11V3.15q0-.2-.09-.29-.09-.1-.31-.1h-.44m0-.35h.42q.09 0 .17-.02.08-.02.14-.07.06-.04.09-.1.04-.06.04-.14 0-.1-.03-.17-.02-.07-.08-.12-.06-.04-.15-.06-.1-.02-.24-.02h-.36v.7z">
        </path>
    </g>
</svg>
