<svg width="306" height="64" viewBox="0 0 306 64" xmlns="http://www.w3.org/2000/svg">
    <title>
        bdd-kickstart
    </title>
    <g fill="none" fill-rule="evenodd">
        <path d="M-23-14h161V90H-23z"/>
        <path d="M87.817 17.195c0 7.968 5.712 14.589 13.25 16.062v4.688c9.8-1.478 18.478-9.257 19.125-19.47.39-6.146-2.675-12.42-7.844-15.468a13.755 13.755 0 0 0-.906-.5c-.315-.155-.64-.306-.969-.437-.104-.044-.207-.084-.312-.125-.288-.107-.578-.226-.875-.313a16.246 16.246 0 0 0-5.094-.812c-9.05 0-16.375 7.324-16.375 16.375z" fill="#CEF257" fill-rule="nonzero"/>
        <path d="M107.567 6.882a1.787 1.787 0 0 0-1.562.625c-.3.4-.488.788-.688 1.188-.6 1.4-.4 2.9.5 4 1.4-.3 2.588-1.194 3.188-2.594.2-.4.312-.913.312-1.313.063-1.062-.816-1.81-1.75-1.906zm-7.281.094c-.913.087-1.781.812-1.781 1.812 0 .4.112.913.312 1.313.6 1.4 1.881 2.294 3.281 2.594.8-1.1 1.007-2.6.407-4-.2-.4-.388-.794-.688-1.094a1.757 1.757 0 0 0-1.531-.625zm-4.906 4.812c-1.577.081-2.282 2.063-.97 3.094.4.3.788.519 1.188.719 1.4.6 3.02.394 4.22-.406-.3-1.3-1.32-2.494-2.72-3.094-.5-.2-.906-.313-1.406-.313-.112-.012-.207-.005-.312 0zm15.406 6.063a4.574 4.574 0 0 0-2.594.75c.3 1.3 1.319 2.494 2.719 3.094.5.2.906.312 1.406.312 1.8.1 2.681-2.125 1.281-3.125-.4-.3-.787-.487-1.187-.687a4.32 4.32 0 0 0-1.625-.344zm-13.656.094c-.55.01-1.1.118-1.625.343-.5.2-.888.42-1.188.72-1.3 1.1-.425 3.193 1.375 3.093.5 0 1.006-.113 1.406-.313 1.4-.6 2.394-1.793 2.594-3.093a4.475 4.475 0 0 0-2.562-.75zm5.062 3.062c-1.4.3-2.587 1.194-3.187 2.594-.2.4-.313.881-.313 1.281-.1 1.7 2.219 2.613 3.219 1.313.3-.4.487-.788.687-1.188.6-1.3.394-2.8-.406-4zm3.719.094c-.8 1.1-1.006 2.6-.406 4 .2.4.387.794.687 1.094 1.1 1.2 3.413.312 3.313-1.188 0-.4-.113-.912-.313-1.312-.6-1.4-1.881-2.294-3.281-2.594z" fill="#FFF" fill-rule="nonzero"/>
        <path fill="#ffffff" d="M1.02 62.5h5.2v-2.95h.1c1.25 2 4.5 3.6 7.9 3.6 6.3 0 12.6-4.65 12.6-12.75s-6.3-12.75-12.6-12.75c-3.4 0-6.65 1.6-7.9 3.6h-.1V31.1h-5.2zm20.3-12.1c0 4.5-3.2 7.85-7.55 7.85S6.22 54.9 6.22 50.4s3.2-7.85 7.55-7.85 7.55 3.35 7.55 7.85zm29.1 12.1h5.2V31.1h-5.2v10.15h-.1c-1.35-2.05-4.1-3.6-7.7-3.6-7.85 0-12.8 6.8-12.8 12.75 0 6.25 4.6 12.75 12.55 12.75 3.3 0 6.3-1.4 7.95-3.6h.1zm-15.1-12.1c0-4.35 3.5-7.85 7.7-7.85 4.1 0 7.6 3.5 7.6 7.85s-3.5 7.85-7.6 7.85c-4.2 0-7.7-3.5-7.7-7.85zm45.7 12.1h5.2V31.1h-5.2v10.15h-.1c-1.35-2.05-4.1-3.6-7.7-3.6-7.85 0-12.8 6.8-12.8 12.75 0 6.25 4.6 12.75 12.55 12.75 3.3 0 6.3-1.4 7.95-3.6h.1zm-15.1-12.1c0-4.35 3.5-7.85 7.7-7.85 4.1 0 7.6 3.5 7.6 7.85s-3.5 7.85-7.6 7.85c-4.2 0-7.7-3.5-7.7-7.85z">
        </path>
        <path fill="#CEF257" d="M122.82 62.5h5.2V52.4h3.15l6.4 10.1h6.15l-8.6-12.8 8.2-11.4h-6.3l-6.35 9.2h-2.65V31.1h-5.2v16.4h-3.4v4.9h3.4zm24.3 0h5.2V38.3h-5.2zm-.3-29.15c0 1.6 1.3 2.9 2.9 2.9 1.6 0 2.9-1.3 2.9-2.9 0-1.6-1.3-2.9-2.9-2.9-1.6 0-2.9 1.3-2.9 2.9zm34.6 10.15c-2.35-3.4-5.7-5.85-10.85-5.85-8.45 0-13.35 6.35-13.35 12.75s4.9 12.75 13.35 12.75c4.6 0 8.7-2.45 10.85-5.85l-4.55-2.7c-1.4 2.2-3.45 3.65-6.3 3.65-4.55 0-7.85-3.5-7.85-7.85s3.3-7.85 7.85-7.85c2.95 0 4.9 1.5 6.3 3.65zm5.25 19h5.2V52.4h3.15l6.4 10.1h6.15l-8.6-12.8 8.2-11.4h-6.3l-6.35 9.2h-2.65V31.1h-5.2v16.4h-3.4v4.9h3.4zm21.9-3.6c3.3 2.8 6.8 4.25 10.9 4.25 7.35 0 10.25-4.6 10.25-8.15 0-3.6-2.1-5.65-6.4-6.45l-5.25-1c-2-.35-3.15-1.1-3.15-2.55 0-1.95 2.2-3.05 4.45-3.05 1.7 0 3.95.55 6.5 2.7l2.95-3.65c-3.3-2.35-6.25-3.35-9.6-3.35-6.05 0-9.5 3.8-9.5 7.9 0 3.45 1.9 5.65 8.7 6.9l2.95.55c1.9.35 3.15 1.2 3.15 2.8 0 1.35-1.8 3.05-4.8 3.05-2.7 0-5.75-1.55-7.6-3.55zm23.25-15.7h2.95v10.5c0 5.05 2.5 6.9 7.85 9.45l2.3-4.1-2.8-1.6c-1.55-.9-2.15-2.1-2.15-4.7V43.2h4.15v-4.9h-4.15v-7.85l-5.2 1.45v6.4h-2.95zm35.8 19.3h5.2V38.3h-5.2v2.95h-.1c-1.35-2.05-4.1-3.6-7.7-3.6-7.85 0-12.8 6.8-12.8 12.75 0 6.25 4.6 12.75 12.55 12.75 3.3 0 6.3-1.4 7.95-3.6h.1zm-15.1-12.1c0-4.35 3.5-7.85 7.7-7.85 4.1 0 7.6 3.5 7.6 7.85s-3.5 7.85-7.6 7.85c-4.2 0-7.7-3.5-7.7-7.85zm26.9 12.1h5.2v-16c0-2.2 1.7-3.65 3.6-3.65.5 0 1.45.3 1.95.7l1.85-5.15c-.7-.45-1.7-.75-2.85-.75-2.1 0-3.9 1.3-4.75 3.3h-.1V38.3h-4.9zm13.55-19.3h2.95v10.5c0 5.05 2.5 6.9 7.85 9.45l2.3-4.1-2.8-1.6c-1.55-.9-2.15-2.1-2.15-4.7V43.2h4.15v-4.9h-4.15v-7.85l-5.2 1.45v6.4h-2.95z">
        </path>
    </g>
</svg>
