<svg width="393" height="181" viewBox="0 0 393 181" xmlns="http://www.w3.org/2000/svg">
    <g fill="none" fill-rule="evenodd">
        <path d="M0 0h393v168H0z"/>
        <path d="M370 26.3c-3 0-4.9 1.5-6.3 3.8 0-.6.3-1.3.3-1.8v-1h-5v25h5V37.9c0-4.1 2.2-6.6 6-6.6h1v-5h-1zm-203.3 9.2c-1.4-2.2-3.4-3.7-6.3-3.7-4.6 0-7.9 3.5-7.9 7.9s3.3 7.9 7.9 7.9c2.9 0 4.9-1.4 6.3-3.6l4.6 2.7c-2.2 3.4-6.3 5.9-10.9 5.9-8.5 0-13.4-6.4-13.4-12.8S152 27 160.4 27c5.2 0 8.5 2.5 10.9 5.9l-4.6 2.6zm9-7.9h5.2v13.6c0 3.6 2.6 6.1 5.9 6.1 3.2 0 5.9-2.6 5.9-6.1V27.6h5.2v14c0 6.8-5.3 10.9-11.1 10.9s-11.1-4.1-11.1-10.9v-14zm46.6 7.9c-1.4-2.2-3.4-3.7-6.3-3.7-4.6 0-7.9 3.5-7.9 7.9s3.3 7.9 7.9 7.9c2.9 0 4.9-1.4 6.3-3.6l4.6 2.7c-2.2 3.4-6.3 5.9-10.9 5.9-8.5 0-13.4-6.4-13.4-12.8S207.5 27 216 27c5.2 0 8.5 2.5 10.9 5.9l-4.6 2.6zm9-7.9h5.2v13.6c0 3.6 2.6 6.1 5.9 6.1 3.2 0 5.9-2.6 5.9-6.1V27.6h5.2v14c0 6.8-5.3 10.9-11.1 10.9s-11.1-4.1-11.1-10.9v-14zm28.7 9.1c0-6.2 4.1-9.7 8.9-9.7 3.7 0 6.3 1.8 7.3 4.3h.1c1-2.6 3.6-4.3 7.3-4.3 4.8 0 8.9 3.6 8.9 9.7v15.2h-5.2V36.7c0-2.9-1.8-4.6-4-4.6-2.5 0-4.3 1.5-4.3 5.3v14.4h-5.2V37.4c0-3.8-1.8-5.3-4.3-5.3-2.2 0-4 1.7-4 4.6v15.1H260V36.7zm38.9-16.3h5.2v10.2h.1c1.2-2 4.5-3.6 7.9-3.6 6.3 0 12.6 4.7 12.6 12.8 0 8.1-6.3 12.8-12.6 12.8-3.4 0-6.7-1.6-7.9-3.6h-.1v3h-5.2V20.4zm12.7 11.5c-4.3 0-7.5 3.4-7.5 7.9s3.2 7.9 7.5 7.9c4.4 0 7.6-3.4 7.6-7.9 0-4.6-3.2-7.9-7.6-7.9zm41.1 14.7c-2.9 3.7-6.9 5.9-11.3 5.9-8.5 0-13.4-6.4-13.4-12.8S333 27 341.4 27c5 0 12.6 4.2 12.6 13.6v.9h-20.1c.3 3.7 3.8 6.4 7.4 6.4 2.8 0 5.2-1.4 7-3.8l4.4 2.5zm-4.8-9.4c-1.1-3.7-3.8-5.7-7.2-5.7-3.3 0-6 2.1-6.9 5.7h14.1z" fill="#ffffff" fill-rule="nonzero"/>
        <path d="M69.576 35.46c-27.15 0-49.125 21.972-49.125 49.125 0 23.904 17.136 43.767 39.75 48.186v14.064c29.4-4.434 55.434-27.771 57.375-58.41 1.17-18.438-8.025-37.26-23.532-46.404a41.265 41.265 0 0 0-2.718-1.5 40.905 40.905 0 0 0-2.907-1.311c-.312-.132-.621-.252-.936-.375-.864-.321-1.734-.678-2.625-.939a48.738 48.738 0 0 0-15.282-2.436z" fill="#00A818" fill-rule="nonzero"/>
        <path d="M79.701 53.646a5.361 5.361 0 0 0-4.686 1.875c-.9 1.2-1.464 2.364-2.064 3.564-1.8 4.2-1.2 8.7 1.5 12 4.2-.9 7.764-3.582 9.564-7.782.6-1.2.936-2.739.936-3.939.189-3.186-2.448-5.43-5.25-5.718zm-21.843.282c-2.739.261-5.343 2.436-5.343 5.436 0 1.2.336 2.739.936 3.939 1.8 4.2 5.643 6.882 9.843 7.782 2.4-3.3 3.021-7.8 1.221-12-.6-1.2-1.164-2.382-2.064-3.282a5.271 5.271 0 0 0-4.593-1.875zM43.14 68.364c-4.731.243-6.846 6.189-2.91 9.282 1.2.9 2.364 1.557 3.564 2.157 4.2 1.8 9.06 1.182 12.66-1.218-.9-3.9-3.96-7.482-8.16-9.282-1.5-.6-2.718-.939-4.218-.939-.336-.036-.621-.015-.936 0zm46.218 18.189a13.722 13.722 0 0 0-7.782 2.25c.9 3.9 3.957 7.482 8.157 9.282 1.5.6 2.718.936 4.218.936 5.4.3 8.043-6.375 3.843-9.375-1.2-.9-2.361-1.461-3.561-2.061a12.96 12.96 0 0 0-4.875-1.032zm-40.968.282c-1.65.03-3.3.354-4.875 1.029-1.5.6-2.664 1.26-3.564 2.16-3.9 3.3-1.275 9.579 4.125 9.279 1.5 0 3.018-.339 4.218-.939 4.2-1.8 7.182-5.379 7.782-9.279a13.425 13.425 0 0 0-7.686-2.25zm15.186 9.186c-4.2.9-7.761 3.582-9.561 7.782-.6 1.2-.939 2.643-.939 3.843-.3 5.1 6.657 7.839 9.657 3.939.9-1.2 1.461-2.364 2.061-3.564 1.8-3.9 1.182-8.4-1.218-12zm11.157.282c-2.4 3.3-3.018 7.8-1.218 12 .6 1.2 1.161 2.382 2.061 3.282 3.3 3.6 10.239.936 9.939-3.564 0-1.2-.339-2.736-.939-3.936-1.8-4.2-5.643-6.882-9.843-7.782z" fill="#FFF" fill-rule="nonzero"/>
        <path fill="#ffffff" d="M167.1 101h5.2V76.8h-5.2v2.95h-.1c-1.35-2.05-4.1-3.6-7.7-3.6-7.85 0-12.8 6.8-12.8 12.75 0 6.25 4.6 12.75 12.55 12.75 3.3 0 6.3-1.4 7.95-3.6h.1zM152 88.9c0-4.35 3.5-7.85 7.7-7.85 4.1 0 7.6 3.5 7.6 7.85s-3.5 7.85-7.6 7.85c-4.2 0-7.7-3.5-7.7-7.85zm32.1-12.1h-5.2v32.55h5.2v-11.3h.1c1.35 2.05 4.1 3.6 7.7 3.6 7.85 0 12.8-6.8 12.8-12.75 0-6.25-4.6-12.75-12.55-12.75-3.3 0-6.1 1.3-7.95 3.6h-.1zm15.1 12.1c0 4.35-3.5 7.85-7.7 7.85-4.1 0-7.6-3.5-7.6-7.85s3.5-7.85 7.6-7.85c4.2 0 7.7 3.5 7.7 7.85zm15.5-12.1h-5.2v32.55h5.2v-11.3h.1c1.35 2.05 4.1 3.6 7.7 3.6 7.85 0 12.8-6.8 12.8-12.75 0-6.25-4.6-12.75-12.55-12.75-3.3 0-6.1 1.3-7.95 3.6h-.1zm15.1 12.1c0 4.35-3.5 7.85-7.7 7.85-4.1 0-7.6-3.5-7.6-7.85s3.5-7.85 7.6-7.85c4.2 0 7.7 3.5 7.7 7.85zm10.3 12.1h5.2V85c0-2.2 1.7-3.65 3.6-3.65.5 0 1.45.3 1.95.7l1.85-5.15c-.7-.45-1.7-.75-2.85-.75-2.1 0-3.9 1.3-4.75 3.3h-.1V76.8h-4.9zm13.05-12.1c0 6.4 4.9 12.75 13.35 12.75s13.35-6.35 13.35-12.75-4.9-12.75-13.35-12.75-13.35 6.35-13.35 12.75zm5.5 0c0-4.35 3.3-7.85 7.85-7.85s7.85 3.5 7.85 7.85-3.3 7.85-7.85 7.85-7.85-3.5-7.85-7.85zm33.8 12.75l11.2-24.85h-5.8l-5.35 13.85h-.1l-5.35-13.85h-5.8zm33.2-8.35c-1.8 2.4-4.2 3.75-7 3.75-3.65 0-7.1-2.65-7.4-6.35h20.1v-.95c0-9.45-7.5-13.6-12.55-13.6-8.45 0-13.35 6.35-13.35 12.75s4.9 12.75 13.35 12.75c4.35-.05 8.35-2.25 11.25-5.9zm-14.4-6.9c.85-3.6 3.55-5.65 6.85-5.65s6.05 1.95 7.15 5.65zm44.1 14.6h5.2V69.6h-5.2v10.15h-.1c-1.35-2.05-4.1-3.6-7.7-3.6-7.85 0-12.8 6.8-12.8 12.75 0 6.25 4.6 12.75 12.55 12.75 3.3 0 6.3-1.4 7.95-3.6h.1zm-15.1-12.1c0-4.35 3.5-7.85 7.7-7.85 4.1 0 7.6 3.5 7.6 7.85s-3.5 7.85-7.6 7.85c-4.2 0-7.7-3.5-7.7-7.85z">
        </path>
        <path fill="#ffffff" d="M147.1 131.7h2.95v10.5c0 5.05 2.5 6.9 7.85 9.45l2.3-4.1-2.8-1.6c-1.55-.9-2.15-2.1-2.15-4.7v-9.55h4.15v-4.9h-4.15v-7.85l-5.2 1.45v6.4h-2.95zm17 19.3h5.2v-16c0-2.2 1.7-3.65 3.6-3.65.5 0 1.45.3 1.95.7l1.85-5.15c-.7-.45-1.7-.75-2.85-.75-2.1 0-3.9 1.3-4.75 3.3h-.1v-2.65h-4.9zm34.55 0h5.2v-24.2h-5.2v2.95h-.1c-1.35-2.05-4.1-3.6-7.7-3.6-7.85 0-12.8 6.8-12.8 12.75 0 6.25 4.6 12.75 12.55 12.75 3.3 0 6.3-1.4 7.95-3.6h.1zm-15.1-12.1c0-4.35 3.5-7.85 7.7-7.85 4.1 0 7.6 3.5 7.6 7.85s-3.5 7.85-7.6 7.85c-4.2 0-7.7-3.5-7.7-7.85zm27 12.1h5.2v-24.2h-5.2zm-.3-29.15c0 1.6 1.3 2.9 2.9 2.9 1.6 0 2.9-1.3 2.9-2.9 0-1.6-1.3-2.9-2.9-2.9-1.6 0-2.9 1.3-2.9 2.9zm12.2 29.15h5.2v-13.55c0-3.95 2.6-6.1 5.95-6.1 3.45 0 5.75 1.8 5.75 6.2V151h5.2v-14.6c0-6-4.3-10.25-9.4-10.25-3.3 0-5.95 1.45-7.4 3.7h-.1v-3.05h-5.2zm47.5-7.7c-1.8 2.4-4.2 3.75-7 3.75-3.65 0-7.1-2.65-7.4-6.35h20.1v-.95c0-9.45-7.5-13.6-12.55-13.6-8.45 0-13.35 6.35-13.35 12.75s4.9 12.75 13.35 12.75c4.35-.05 8.35-2.25 11.25-5.9zm-14.4-6.9c.85-3.6 3.55-5.65 6.85-5.65s6.05 1.95 7.15 5.65zm25.3 14.6h5.2v-16c0-2.2 1.7-3.65 3.6-3.65.5 0 1.45.3 1.95.7l1.85-5.15c-.7-.45-1.7-.75-2.85-.75-2.1 0-3.9 1.3-4.75 3.3h-.1v-2.65h-4.9z">
        </path>
    </g>
</svg>
