<svg width="254" height="104" viewBox="0 0 254 104" xmlns="http://www.w3.org/2000/svg">
    <title>
        Slice 1
    </title>
    <g fill="none" fill-rule="evenodd">
        <path d="M0 0h254v104H0z"/>
        <path d="M220.192 14.82c-9.05 0-16.375 7.324-16.375 16.375 0 7.968 5.712 14.589 13.25 16.062v4.688c9.8-1.478 18.478-9.257 19.125-19.47.39-6.146-2.675-12.42-7.844-15.468a13.755 13.755 0 0 0-.906-.5c-.315-.155-.64-.306-.969-.437-.104-.044-.207-.084-.312-.125-.288-.107-.578-.226-.875-.313a16.246 16.246 0 0 0-5.094-.812z" fill="#00A818"/>
        <path d="M223.567 20.882a1.787 1.787 0 0 0-1.562.625c-.3.4-.488.788-.688 1.188-.6 1.4-.4 2.9.5 4 1.4-.3 2.588-1.194 3.188-2.594.2-.4.312-.913.312-1.313.063-1.062-.816-1.81-1.75-1.906zm-7.281.094c-.913.087-1.781.812-1.781 1.812 0 .4.112.913.312 1.313.6 1.4 1.881 2.294 3.281 2.594.8-1.1 1.007-2.6.407-4-.2-.4-.388-.794-.688-1.094a1.757 1.757 0 0 0-1.531-.625zm-4.906 4.812c-1.577.081-2.282 2.063-.97 3.094.4.3.788.519 1.188.719 1.4.6 3.02.394 4.22-.406-.3-1.3-1.32-2.494-2.72-3.094-.5-.2-.906-.313-1.406-.313-.112-.012-.207-.005-.312 0zm15.406 6.063a4.574 4.574 0 0 0-2.594.75c.3 1.3 1.319 2.494 2.719 3.094.5.2.906.312 1.406.312 1.8.1 2.681-2.125 1.281-3.125-.4-.3-.787-.487-1.187-.687a4.32 4.32 0 0 0-1.625-.344zm-13.656.094c-.55.01-1.1.118-1.625.343-.5.2-.888.42-1.188.72-1.3 1.1-.425 3.193 1.375 3.093.5 0 1.006-.113 1.406-.313 1.4-.6 2.394-1.793 2.594-3.093a4.475 4.475 0 0 0-2.562-.75zm5.062 3.062c-1.4.3-2.587 1.194-3.187 2.594-.2.4-.313.881-.313 1.281-.1 1.7 2.219 2.613 3.219 1.313.3-.4.487-.788.687-1.188.6-1.3.394-2.8-.406-4zm3.719.094c-.8 1.1-1.006 2.6-.406 4 .2.4.387.794.687 1.094 1.1 1.2 3.413.312 3.313-1.188 0-.4-.113-.912-.313-1.312-.6-1.4-1.881-2.294-3.281-2.594z" fill="#FFF"/>
        <path fill="#1b1d1e" d="M48.43 57.5c-2.35-3.4-5.7-5.85-10.85-5.85-8.45 0-13.35 6.35-13.35 12.75s4.9 12.75 13.35 12.75c4.6 0 8.7-2.45 10.85-5.85l-4.55-2.7c-1.4 2.2-3.46 3.65-6.3 3.65-4.55 0-7.85-3.5-7.85-7.85s3.3-7.85 7.85-7.85c2.95 0 4.9 1.5 6.3 3.65zm4.45 8.8c0 6.8 5.3 10.85 11.05 10.85 5.75 0 11.05-4.05 11.05-10.85v-14h-5.2v13.55c0 3.55-2.6 6.1-5.85 6.1-3.25 0-5.85-2.55-5.85-6.1V52.3h-5.2zm29.5 10.2h5.2V66.4h3.15l6.4 10.1h6.15l-8.6-12.8 8.2-11.4h-6.3l-6.35 9.2h-2.65V45.1h-5.2v16.4h-3.4v4.9h3.4zm43-7.7c-1.8 2.4-4.2 3.75-7 3.75-3.65 0-7.1-2.65-7.4-6.35h20.1v-.95c0-9.45-7.5-13.6-12.55-13.6-8.45 0-13.35 6.35-13.35 12.75s4.9 12.75 13.35 12.75c4.35-.05 8.35-2.25 11.25-5.9zm-14.4-6.9c.85-3.6 3.55-5.65 6.85-5.65s6.05 1.95 7.15 5.65zm25.3 4.4c0 6.8 5.3 10.85 11.05 10.85 5.75 0 11.05-4.05 11.05-10.85v-14h-5.2v13.55c0 3.55-2.6 6.1-5.85 6.1-3.25 0-5.85-2.55-5.85-6.1V52.3h-5.2zm33.9-14h-5.2v32.55h5.2v-11.3h.1c1.35 2.05 4.1 3.6 7.7 3.6 7.85 0 12.8-6.8 12.8-12.75 0-6.25-4.6-12.75-12.55-12.75-3.3 0-6.1 1.3-7.95 3.6h-.1zm15.1 12.1c0 4.35-3.5 7.85-7.7 7.85-4.1 0-7.6-3.5-7.6-7.85s3.5-7.85 7.6-7.85c4.2 0 7.7 3.5 7.7 7.85zm11.75 4h4.4l1.29-23.3h-7zm-.85 5.7c0 1.7 1.35 3.05 3.04 3.05 1.71 0 3.06-1.35 3.06-3.05 0-1.7-1.35-3.05-3.06-3.05-1.69 0-3.04 1.35-3.04 3.05z">
        </path>
    </g>
</svg>
