<?xml version="1.0" encoding="UTF-8" standalone="no"?>
<svg width="1039px" height="697px" viewBox="0 0 1039 697" version="1.1" xmlns="http://www.w3.org/2000/svg" xmlns:xlink="http://www.w3.org/1999/xlink" xmlns:sketch="http://www.bohemiancoding.com/sketch/ns">
    <!-- Generator: Sketch 3.4.2 (15855) - http://www.bohemiancoding.com/sketch -->
    <title>Aslak-Front</title>
    <desc>Created with Sketch.</desc>
    <defs></defs>
    <g id="Aslak" stroke="none" stroke-width="1" fill="none" fill-rule="evenodd" sketch:type="MSPage">
        <g id="Aslak-Front" sketch:type="MSArtboardGroup">
            <g id="Personal-Info" sketch:type="MSLayerGroup" transform="translate(552.000000, 420.000000)" fill="#000000">
                <path d="M63.8945312,123 C63.6861969,122.583331 63.5169277,121.841151 63.3867188,120.773438 C61.7070229,122.518238 59.7018346,123.390625 57.3710938,123.390625 C55.28775,123.390625 53.5787827,122.801438 52.2441406,121.623047 C50.9094985,120.444656 50.2421875,118.95053 50.2421875,117.140625 C50.2421875,114.940093 51.0787677,113.231126 52.7519531,112.013672 C54.4251386,110.796218 56.7786307,110.1875 59.8125,110.1875 L63.328125,110.1875 L63.328125,108.527344 C63.328125,107.264317 62.9505246,106.258467 62.1953125,105.509766 C61.4401004,104.761064 60.3268303,104.386719 58.8554688,104.386719 C57.5663998,104.386719 56.4856814,104.712236 55.6132812,105.363281 C54.7408811,106.014326 54.3046875,106.802079 54.3046875,107.726562 L50.671875,107.726562 C50.671875,106.67187 51.0462202,105.653 51.7949219,104.669922 C52.5436235,103.686844 53.5592384,102.908857 54.8417969,102.335938 C56.1243554,101.763018 57.5338465,101.476562 59.0703125,101.476562 C61.5052205,101.476562 63.4127535,102.08528 64.7929688,103.302734 C66.173184,104.520188 66.8893227,106.196604 66.9414062,108.332031 L66.9414062,118.058594 C66.9414062,119.998708 67.1887996,121.541661 67.6835938,122.6875 L67.6835938,123 L63.8945312,123 Z M57.8984375,120.246094 C59.0312557,120.246094 60.1054637,119.953128 61.1210938,119.367188 C62.1367238,118.781247 62.8723936,118.019536 63.328125,117.082031 L63.328125,112.746094 L60.4960938,112.746094 C56.0689883,112.746094 53.8554688,114.041654 53.8554688,116.632812 C53.8554688,117.765631 54.2330691,118.651038 54.9882812,119.289062 C55.7434934,119.927087 56.7135357,120.246094 57.8984375,120.246094 L57.8984375,120.246094 Z M84.9101562,117.394531 C84.9101562,116.417964 84.5423214,115.659508 83.8066406,115.119141 C83.0709599,114.578773 81.7884206,114.113283 79.9589844,113.722656 C78.1295481,113.332029 76.6777397,112.863284 75.6035156,112.316406 C74.5292915,111.769529 73.7350286,111.118493 73.2207031,110.363281 C72.7063776,109.608069 72.4492188,108.709641 72.4492188,107.667969 C72.4492188,105.936189 73.1816333,104.47136 74.6464844,103.273438 C76.1113354,102.075515 77.9830615,101.476562 80.2617188,101.476562 C82.6575641,101.476562 84.600904,102.095046 86.0917969,103.332031 C87.5826897,104.569017 88.328125,106.151032 88.328125,108.078125 L84.6953125,108.078125 C84.6953125,107.088537 84.2753948,106.235681 83.4355469,105.519531 C82.5956989,104.803382 81.5377668,104.445312 80.2617188,104.445312 C78.946608,104.445312 77.9179725,104.731768 77.1757812,105.304688 C76.43359,105.877607 76.0625,106.626297 76.0625,107.550781 C76.0625,108.423181 76.4075486,109.080727 77.0976562,109.523438 C77.7877639,109.966148 79.0344962,110.389321 80.8378906,110.792969 C82.6412851,111.196617 84.102859,111.678383 85.2226562,112.238281 C86.3424535,112.79818 87.1725233,113.472001 87.7128906,114.259766 C88.2532579,115.04753 88.5234375,116.007807 88.5234375,117.140625 C88.5234375,119.028655 87.7682367,120.542312 86.2578125,121.681641 C84.7473883,122.820969 82.7877725,123.390625 80.3789062,123.390625 C78.6861895,123.390625 77.1888086,123.091149 75.8867188,122.492188 C74.5846289,121.893226 73.5657589,121.056646 72.8300781,119.982422 C72.0943974,118.908198 71.7265625,117.7461 71.7265625,116.496094 L75.3398438,116.496094 C75.4049482,117.707037 75.8899694,118.667314 76.7949219,119.376953 C77.6998743,120.086592 78.8945238,120.441406 80.3789062,120.441406 C81.7461006,120.441406 82.8430948,120.164716 83.6699219,119.611328 C84.4967489,119.05794 84.9101562,118.319015 84.9101562,117.394531 L84.9101562,117.394531 Z M97.15625,123 L93.5429688,123 L93.5429688,93 L97.15625,93 L97.15625,123 Z M115.984375,123 C115.776041,122.583331 115.606771,121.841151 115.476562,120.773438 C113.796867,122.518238 111.791678,123.390625 109.460938,123.390625 C107.377594,123.390625 105.668626,122.801438 104.333984,121.623047 C102.999342,120.444656 102.332031,118.95053 102.332031,117.140625 C102.332031,114.940093 103.168611,113.231126 104.841797,112.013672 C106.514982,110.796218 108.868474,110.1875 111.902344,110.1875 L115.417969,110.1875 L115.417969,108.527344 C115.417969,107.264317 115.040368,106.258467 114.285156,105.509766 C113.529944,104.761064 112.416674,104.386719 110.945312,104.386719 C109.656244,104.386719 108.575525,104.712236 107.703125,105.363281 C106.830725,106.014326 106.394531,106.802079 106.394531,107.726562 L102.761719,107.726562 C102.761719,106.67187 103.136064,105.653 103.884766,104.669922 C104.633467,103.686844 105.649082,102.908857 106.931641,102.335938 C108.214199,101.763018 109.62369,101.476562 111.160156,101.476562 C113.595064,101.476562 115.502597,102.08528 116.882812,103.302734 C118.263028,104.520188 118.979166,106.196604 119.03125,108.332031 L119.03125,118.058594 C119.03125,119.998708 119.278643,121.541661 119.773438,122.6875 L119.773438,123 L115.984375,123 Z M109.988281,120.246094 C111.121099,120.246094 112.195307,119.953128 113.210938,119.367188 C114.226568,118.781247 114.962237,118.019536 115.417969,117.082031 L115.417969,112.746094 L112.585938,112.746094 C108.158832,112.746094 105.945312,114.041654 105.945312,116.632812 C105.945312,117.765631 106.322913,118.651038 107.078125,119.289062 C107.833337,119.927087 108.803379,120.246094 109.988281,120.246094 L109.988281,120.246094 Z M130.59375,113.214844 L128.328125,115.578125 L128.328125,123 L124.714844,123 L124.714844,93 L128.328125,93 L128.328125,111.144531 L130.261719,108.820312 L136.84375,101.867188 L141.238281,101.867188 L133.015625,110.695312 L142.195312,123 L137.957031,123 L130.59375,113.214844 Z M176.179688,113.195312 C176.023437,116.34637 175.242195,118.833324 173.835938,120.65625 C172.42968,122.479176 170.548189,123.390625 168.191406,123.390625 C165.756498,123.390625 164.194014,122.296886 163.503906,120.109375 C162.800778,121.216151 161.996749,122.039711 161.091797,122.580078 C160.186844,123.120445 159.252609,123.390625 158.289062,123.390625 C156.440095,123.390625 155.040369,122.635424 154.089844,121.125 C153.139318,119.614576 152.787759,117.524753 153.035156,114.855469 C153.23047,112.707021 153.722001,110.789722 154.509766,109.103516 C155.29753,107.417309 156.313145,106.092453 157.556641,105.128906 C158.800136,104.16536 160.105462,103.683594 161.472656,103.683594 C162.527349,103.683594 163.47135,103.823566 164.304688,104.103516 C165.138025,104.383465 166.075516,104.93359 167.117188,105.753906 L166.101562,116.574219 C165.854165,119.582046 166.68749,121.085938 168.601562,121.085938 C170.072924,121.085938 171.264318,120.356778 172.175781,118.898438 C173.087244,117.440097 173.582031,115.539074 173.660156,113.195312 C173.907553,108.130183 172.966808,104.269545 170.837891,101.613281 C168.708974,98.957018 165.470074,97.6289062 161.121094,97.6289062 C158.503893,97.6289062 156.179698,98.2766862 154.148438,99.5722656 C152.117177,100.867845 150.515631,102.739571 149.34375,105.1875 C148.171869,107.635429 147.514324,110.460921 147.371094,113.664062 C147.214843,116.893245 147.605464,119.695952 148.542969,122.072266 C149.480473,124.44858 150.909496,126.264968 152.830078,127.521484 C154.750661,128.778001 157.071601,129.40625 159.792969,129.40625 C160.96485,129.40625 162.139968,129.263022 163.318359,128.976562 C164.496751,128.690103 165.476559,128.319013 166.257812,127.863281 L166.980469,130.109375 C166.173173,130.61719 165.10222,131.033853 163.767578,131.359375 C162.432936,131.684897 161.082038,131.847656 159.714844,131.847656 C156.459619,131.847656 153.660168,131.115242 151.316406,129.650391 C148.972645,128.18554 147.218105,126.076186 146.052734,123.322266 C144.887364,120.568346 144.382812,117.348977 144.539062,113.664062 C144.695313,110.083315 145.496087,106.863947 146.941406,104.005859 C148.386726,101.147772 150.346342,98.940763 152.820312,97.3847656 C155.294283,95.8287683 158.087224,95.0507812 161.199219,95.0507812 C164.441422,95.0507812 167.221343,95.7799406 169.539062,97.2382812 C171.856782,98.6966219 173.582026,100.799465 174.714844,103.546875 C175.847662,106.294285 176.335938,109.510398 176.179688,113.195312 L176.179688,113.195312 Z M156.140625,114.855469 C155.958332,116.704436 156.130857,118.123693 156.658203,119.113281 C157.18555,120.10287 158.02213,120.597656 159.167969,120.597656 C159.949223,120.597656 160.701168,120.265628 161.423828,119.601562 C162.146488,118.937497 162.742185,117.986985 163.210938,116.75 L163.230469,116.574219 L164.128906,106.75 C163.399736,106.372394 162.618494,106.183594 161.785156,106.183594 C160.261711,106.183594 159.001958,106.958326 158.005859,108.507812 C157.009761,110.057299 156.388022,112.173164 156.140625,114.855469 L156.140625,114.855469 Z M189.363281,120.441406 C190.65235,120.441406 191.778641,120.050785 192.742188,119.269531 C193.705734,118.488277 194.239583,117.511725 194.34375,116.339844 L197.761719,116.339844 C197.696614,117.550787 197.279952,118.70312 196.511719,119.796875 C195.743486,120.89063 194.718105,121.763018 193.435547,122.414062 C192.152988,123.065107 190.79558,123.390625 189.363281,123.390625 C186.485663,123.390625 184.197274,122.430348 182.498047,120.509766 C180.79882,118.589183 179.949219,115.962256 179.949219,112.628906 L179.949219,112.023438 C179.949219,109.966136 180.326819,108.136727 181.082031,106.535156 C181.837243,104.933586 182.921217,103.690109 184.333984,102.804688 C185.746752,101.919266 187.416657,101.476562 189.34375,101.476562 C191.713554,101.476562 193.682935,102.186191 195.251953,103.605469 C196.820971,105.024747 197.657552,106.867176 197.761719,109.132812 L194.34375,109.132812 C194.239583,107.765618 193.72201,106.642583 192.791016,105.763672 C191.860021,104.884761 190.710944,104.445312 189.34375,104.445312 C187.507803,104.445312 186.085292,105.106113 185.076172,106.427734 C184.067052,107.749356 183.5625,109.660144 183.5625,112.160156 L183.5625,112.84375 C183.5625,115.278658 184.063797,117.153639 185.066406,118.46875 C186.069015,119.783861 187.501293,120.441406 189.363281,120.441406 L189.363281,120.441406 Z M214.871094,120.910156 C213.464837,122.56381 211.401055,123.390625 208.679688,123.390625 C206.427072,123.390625 204.711594,122.736335 203.533203,121.427734 C202.354812,120.119134 201.759115,118.182304 201.746094,115.617188 L201.746094,101.867188 L205.359375,101.867188 L205.359375,115.519531 C205.359375,118.722672 206.661445,120.324219 209.265625,120.324219 C212.026055,120.324219 213.861975,119.295583 214.773438,117.238281 L214.773438,101.867188 L218.386719,101.867188 L218.386719,123 L214.949219,123 L214.871094,120.910156 Z M232.351562,120.441406 C233.640631,120.441406 234.766922,120.050785 235.730469,119.269531 C236.694015,118.488277 237.227864,117.511725 237.332031,116.339844 L240.75,116.339844 C240.684896,117.550787 240.268233,118.70312 239.5,119.796875 C238.731767,120.89063 237.706387,121.763018 236.423828,122.414062 C235.14127,123.065107 233.783861,123.390625 232.351562,123.390625 C229.473944,123.390625 227.185555,122.430348 225.486328,120.509766 C223.787101,118.589183 222.9375,115.962256 222.9375,112.628906 L222.9375,112.023438 C222.9375,109.966136 223.3151,108.136727 224.070312,106.535156 C224.825525,104.933586 225.909498,103.690109 227.322266,102.804688 C228.735033,101.919266 230.404938,101.476562 232.332031,101.476562 C234.701835,101.476562 236.671216,102.186191 238.240234,103.605469 C239.809253,105.024747 240.645833,106.867176 240.75,109.132812 L237.332031,109.132812 C237.227864,107.765618 236.710291,106.642583 235.779297,105.763672 C234.848303,104.884761 233.699226,104.445312 232.332031,104.445312 C230.496085,104.445312 229.073573,105.106113 228.064453,106.427734 C227.055333,107.749356 226.550781,109.660144 226.550781,112.160156 L226.550781,112.84375 C226.550781,115.278658 227.052078,117.153639 228.054688,118.46875 C229.057297,119.783861 230.489574,120.441406 232.351562,120.441406 L232.351562,120.441406 Z M257.859375,120.910156 C256.453118,122.56381 254.389337,123.390625 251.667969,123.390625 C249.415353,123.390625 247.699876,122.736335 246.521484,121.427734 C245.343093,120.119134 244.747396,118.182304 244.734375,115.617188 L244.734375,101.867188 L248.347656,101.867188 L248.347656,115.519531 C248.347656,118.722672 249.649727,120.324219 252.253906,120.324219 C255.014337,120.324219 256.850256,119.295583 257.761719,117.238281 L257.761719,101.867188 L261.375,101.867188 L261.375,123 L257.9375,123 L257.859375,120.910156 Z M270.261719,101.867188 L270.359375,104.210938 C271.908862,102.388012 273.998685,101.476562 276.628906,101.476562 C279.58465,101.476562 281.596349,102.609364 282.664062,104.875 C283.367191,103.85937 284.281895,103.039066 285.408203,102.414062 C286.534511,101.789059 287.865878,101.476562 289.402344,101.476562 C294.037784,101.476562 296.394531,103.930965 296.472656,108.839844 L296.472656,123 L292.859375,123 L292.859375,109.054688 C292.859375,107.544263 292.514326,106.414717 291.824219,105.666016 C291.134111,104.917314 289.975269,104.542969 288.347656,104.542969 C287.006504,104.542969 285.893234,104.943355 285.007812,105.744141 C284.122391,106.544926 283.608074,107.622389 283.464844,108.976562 L283.464844,123 L279.832031,123 L279.832031,109.152344 C279.832031,106.079412 278.32814,104.542969 275.320312,104.542969 C272.950509,104.542969 271.329431,105.552073 270.457031,107.570312 L270.457031,123 L266.84375,123 L266.84375,101.867188 L270.261719,101.867188 Z M319.8125,112.667969 C319.8125,115.897152 319.07032,118.491527 317.585938,120.451172 C316.101555,122.410817 314.109388,123.390625 311.609375,123.390625 C308.940091,123.390625 306.876309,122.446624 305.417969,120.558594 L305.242188,123 L301.921875,123 L301.921875,93 L305.535156,93 L305.535156,104.191406 C306.993497,102.381501 309.005196,101.476562 311.570312,101.476562 C314.135429,101.476562 316.150383,102.446605 317.615234,104.386719 C319.080085,106.326833 319.8125,108.983056 319.8125,112.355469 L319.8125,112.667969 Z M316.199219,112.257812 C316.199219,109.796863 315.723963,107.89584 314.773438,106.554688 C313.822912,105.213535 312.455738,104.542969 310.671875,104.542969 C308.289051,104.542969 306.576828,105.649729 305.535156,107.863281 L305.535156,117.003906 C306.641933,119.217459 308.367176,120.324219 310.710938,120.324219 C312.442717,120.324219 313.79036,119.653653 314.753906,118.3125 C315.717453,116.971347 316.199219,114.953138 316.199219,112.257812 L316.199219,112.257812 Z M333.132812,123.390625 C330.268215,123.390625 327.937509,122.449879 326.140625,120.568359 C324.343741,118.68684 323.445312,116.170589 323.445312,113.019531 L323.445312,112.355469 C323.445312,110.259104 323.845699,108.387378 324.646484,106.740234 C325.44727,105.093091 326.56705,103.804041 328.005859,102.873047 C329.444669,101.942053 331.003898,101.476562 332.683594,101.476562 C335.431003,101.476562 337.566399,102.381501 339.089844,104.191406 C340.613289,106.001311 341.375,108.592431 341.375,111.964844 L341.375,113.46875 L327.058594,113.46875 C327.110677,115.552094 327.719395,117.23502 328.884766,118.517578 C330.050136,119.800137 331.531241,120.441406 333.328125,120.441406 C334.604173,120.441406 335.684891,120.180992 336.570312,119.660156 C337.455734,119.13932 338.230465,118.449223 338.894531,117.589844 L341.101562,119.308594 C339.33072,122.029962 336.674497,123.390625 333.132812,123.390625 L333.132812,123.390625 Z M332.683594,104.445312 C331.225253,104.445312 330.001307,104.975906 329.011719,106.037109 C328.02213,107.098313 327.410157,108.585928 327.175781,110.5 L337.761719,110.5 L337.761719,110.226562 C337.657552,108.390616 337.162765,106.968104 336.277344,105.958984 C335.391923,104.949865 334.194018,104.445312 332.683594,104.445312 L332.683594,104.445312 Z M355.769531,105.109375 C355.222654,105.018229 354.630212,104.972656 353.992188,104.972656 C351.622384,104.972656 350.014327,105.981761 349.167969,108 L349.167969,123 L345.554688,123 L345.554688,101.867188 L349.070312,101.867188 L349.128906,104.308594 C350.313808,102.420563 351.993479,101.476562 354.167969,101.476562 C354.871097,101.476562 355.404946,101.567707 355.769531,101.75 L355.769531,105.109375 Z M356.765625,121.105469 C356.765625,120.480466 356.95117,119.959637 357.322266,119.542969 C357.693361,119.1263 358.249996,118.917969 358.992188,118.917969 C359.734379,118.917969 360.297524,119.1263 360.681641,119.542969 C361.065757,119.959637 361.257812,120.480466 361.257812,121.105469 C361.257812,121.70443 361.065757,122.205727 360.681641,122.609375 C360.297524,123.013023 359.734379,123.214844 358.992188,123.214844 C358.249996,123.214844 357.693361,123.013023 357.322266,122.609375 C356.95117,122.205727 356.765625,121.70443 356.765625,121.105469 L356.765625,121.105469 Z M371.140625,123 L367.527344,123 L367.527344,101.867188 L371.140625,101.867188 L371.140625,123 Z M367.234375,96.2617188 C367.234375,95.6757783 367.41341,95.1809916 367.771484,94.7773438 C368.129559,94.3736959 368.660153,94.171875 369.363281,94.171875 C370.06641,94.171875 370.600259,94.3736959 370.964844,94.7773438 C371.329429,95.1809916 371.511719,95.6757783 371.511719,96.2617188 C371.511719,96.8476592 371.329429,97.3359355 370.964844,97.7265625 C370.600259,98.1171895 370.06641,98.3125 369.363281,98.3125 C368.660153,98.3125 368.129559,98.1171895 367.771484,97.7265625 C367.41341,97.3359355 367.234375,96.8476592 367.234375,96.2617188 L367.234375,96.2617188 Z M375.964844,112.238281 C375.964844,110.167958 376.371741,108.305998 377.185547,106.652344 C377.999353,104.99869 379.132154,103.722661 380.583984,102.824219 C382.035815,101.925777 383.692699,101.476562 385.554688,101.476562 C388.432306,101.476562 390.759757,102.472646 392.537109,104.464844 C394.314462,106.457041 395.203125,109.106754 395.203125,112.414062 L395.203125,112.667969 C395.203125,114.725271 394.809249,116.570955 394.021484,118.205078 C393.23372,119.839201 392.107429,121.111975 390.642578,122.023438 C389.177727,122.9349 387.494801,123.390625 385.59375,123.390625 C382.729152,123.390625 380.408212,122.394541 378.630859,120.402344 C376.853507,118.410146 375.964844,115.773454 375.964844,112.492188 L375.964844,112.238281 Z M379.597656,112.667969 C379.597656,115.01173 380.141271,116.893222 381.228516,118.3125 C382.315761,119.731778 383.770824,120.441406 385.59375,120.441406 C387.429697,120.441406 388.888015,119.722012 389.96875,118.283203 C391.049485,116.844394 391.589844,114.82944 391.589844,112.238281 C391.589844,109.920561 391.039719,108.042325 389.939453,106.603516 C388.839187,105.164706 387.377613,104.445312 385.554688,104.445312 C383.770824,104.445312 382.332037,105.154941 381.238281,106.574219 C380.144526,107.993497 379.597656,110.024726 379.597656,112.667969 L379.597656,112.667969 Z M88.171875,161.746094 L96.1015625,161.746094 L96.1015625,165.164062 L88.171875,165.164062 L88.171875,174.148438 L84.5390625,174.148438 L84.5390625,165.164062 L76.609375,165.164062 L76.609375,161.746094 L84.5390625,161.746094 L84.5390625,153.445312 L88.171875,153.445312 L88.171875,161.746094 Z M115.378906,167.449219 L119.324219,167.449219 L119.324219,170.398438 L115.378906,170.398438 L115.378906,177 L111.746094,177 L111.746094,170.398438 L98.796875,170.398438 L98.796875,168.269531 L111.53125,148.5625 L115.378906,148.5625 L115.378906,167.449219 Z M102.898438,167.449219 L111.746094,167.449219 L111.746094,153.503906 L111.316406,154.285156 L102.898438,167.449219 Z M137.839844,167.449219 L141.785156,167.449219 L141.785156,170.398438 L137.839844,170.398438 L137.839844,177 L134.207031,177 L134.207031,170.398438 L121.257812,170.398438 L121.257812,168.269531 L133.992188,148.5625 L137.839844,148.5625 L137.839844,167.449219 Z M125.359375,167.449219 L134.207031,167.449219 L134.207031,153.503906 L133.777344,154.285156 L125.359375,167.449219 Z M173.308594,150.59375 L161.53125,177 L157.742188,177 L169.480469,151.53125 L154.089844,151.53125 L154.089844,148.5625 L173.308594,148.5625 L173.308594,150.59375 Z M195.769531,150.59375 L183.992188,177 L180.203125,177 L191.941406,151.53125 L176.550781,151.53125 L176.550781,148.5625 L195.769531,148.5625 L195.769531,150.59375 Z M213.71875,164.5 C212.963538,165.398442 212.061854,166.121091 211.013672,166.667969 C209.96549,167.214846 208.816412,167.488281 207.566406,167.488281 C205.925773,167.488281 204.496751,167.084639 203.279297,166.277344 C202.061843,165.470048 201.121097,164.333992 200.457031,162.869141 C199.792965,161.40429 199.460938,159.786467 199.460938,158.015625 C199.460938,156.114574 199.822262,154.402351 200.544922,152.878906 C201.267582,151.355461 202.292962,150.190108 203.621094,149.382812 C204.949225,148.575517 206.498689,148.171875 208.269531,148.171875 C211.082045,148.171875 213.29882,149.223297 214.919922,151.326172 C216.541024,153.429047 217.351562,156.296857 217.351562,159.929688 L217.351562,160.984375 C217.351562,166.518257 216.257823,170.55793 214.070312,173.103516 C211.882802,175.649101 208.582053,176.954427 204.167969,177.019531 L203.464844,177.019531 L203.464844,173.972656 L204.226562,173.972656 C207.208348,173.920573 209.499992,173.142586 211.101562,171.638672 C212.703133,170.134758 213.57552,167.755225 213.71875,164.5 L213.71875,164.5 Z M208.152344,164.5 C209.363287,164.5 210.479813,164.12891 211.501953,163.386719 C212.524094,162.644528 213.269529,161.726568 213.738281,160.632812 L213.738281,159.1875 C213.738281,156.817696 213.223963,154.890632 212.195312,153.40625 C211.166662,151.921868 209.864591,151.179688 208.289062,151.179688 C206.700513,151.179688 205.424484,151.788405 204.460938,153.005859 C203.497391,154.223313 203.015625,155.828115 203.015625,157.820312 C203.015625,159.760426 203.481115,161.358718 204.412109,162.615234 C205.343104,163.871751 206.589836,164.5 208.152344,164.5 L208.152344,164.5 Z M223.992188,162.742188 L225.4375,148.5625 L240.007812,148.5625 L240.007812,151.902344 L228.503906,151.902344 L227.644531,159.65625 C229.037767,158.835933 230.619783,158.425781 232.390625,158.425781 C234.981784,158.425781 237.039055,159.281892 238.5625,160.994141 C240.085945,162.706389 240.847656,165.020819 240.847656,167.9375 C240.847656,170.867202 240.056649,173.175122 238.474609,174.861328 C236.89257,176.547534 234.682306,177.390625 231.84375,177.390625 C229.330717,177.390625 227.279956,176.694017 225.691406,175.300781 C224.102857,173.907545 223.197918,171.980481 222.976562,169.519531 L226.394531,169.519531 C226.615887,171.147144 227.195308,172.374345 228.132812,173.201172 C229.070317,174.027999 230.307284,174.441406 231.84375,174.441406 C233.523446,174.441406 234.841792,173.868495 235.798828,172.722656 C236.755864,171.576817 237.234375,169.994802 237.234375,167.976562 C237.234375,166.075511 236.716802,164.548834 235.681641,163.396484 C234.646479,162.244135 233.26954,161.667969 231.550781,161.667969 C229.975253,161.667969 228.738286,162.013017 227.839844,162.703125 L226.882812,163.484375 L223.992188,162.742188 Z M271.941406,155.984375 C271.941406,157.403653 271.567061,158.666661 270.818359,159.773438 C270.069658,160.880214 269.057298,161.746091 267.78125,162.371094 C269.265632,163.009118 270.440751,163.940098 271.306641,165.164062 C272.17253,166.388027 272.605469,167.774732 272.605469,169.324219 C272.605469,171.785169 271.775399,173.744784 270.115234,175.203125 C268.45507,176.661466 266.270847,177.390625 263.5625,177.390625 C260.828111,177.390625 258.637378,176.65821 256.990234,175.193359 C255.343091,173.728508 254.519531,171.772148 254.519531,169.324219 C254.519531,167.787753 254.939449,166.401048 255.779297,165.164062 C256.619145,163.927077 257.781243,162.989587 259.265625,162.351562 C258.002598,161.726559 257.006514,160.860683 256.277344,159.753906 C255.548173,158.64713 255.183594,157.390632 255.183594,155.984375 C255.183594,153.58853 255.951815,151.687507 257.488281,150.28125 C259.024747,148.874993 261.049467,148.171875 263.5625,148.171875 C266.062513,148.171875 268.083977,148.874993 269.626953,150.28125 C271.16993,151.687507 271.941406,153.58853 271.941406,155.984375 L271.941406,155.984375 Z M268.992188,169.246094 C268.992188,167.657544 268.487635,166.361984 267.478516,165.359375 C266.469396,164.356766 265.15105,163.855469 263.523438,163.855469 C261.895825,163.855469 260.5905,164.350255 259.607422,165.339844 C258.624344,166.329432 258.132812,167.631502 258.132812,169.246094 C258.132812,170.860685 258.611323,172.130204 259.568359,173.054688 C260.525395,173.979171 261.856762,174.441406 263.5625,174.441406 C265.255217,174.441406 266.583329,173.975916 267.546875,173.044922 C268.510421,172.113928 268.992188,170.847664 268.992188,169.246094 L268.992188,169.246094 Z M263.5625,151.140625 C262.143222,151.140625 260.994145,151.580074 260.115234,152.458984 C259.236324,153.337895 258.796875,154.532545 258.796875,156.042969 C258.796875,157.488288 259.229813,158.656897 260.095703,159.548828 C260.961593,160.44076 262.11718,160.886719 263.5625,160.886719 C265.00782,160.886719 266.163407,160.44076 267.029297,159.548828 C267.895187,158.656897 268.328125,157.488288 268.328125,156.042969 C268.328125,154.597649 267.878911,153.419275 266.980469,152.507812 C266.082027,151.59635 264.942715,151.140625 263.5625,151.140625 L263.5625,151.140625 Z M282.410156,161.023438 L285.125,161.023438 C286.830738,160.997396 288.17187,160.548181 289.148438,159.675781 C290.125005,158.803381 290.613281,157.625007 290.613281,156.140625 C290.613281,152.807275 288.953142,151.140625 285.632812,151.140625 C284.070305,151.140625 282.823572,151.586584 281.892578,152.478516 C280.961584,153.370447 280.496094,154.552076 280.496094,156.023438 L276.882812,156.023438 C276.882812,153.770822 277.706372,151.899096 279.353516,150.408203 C281.000659,148.91731 283.093737,148.171875 285.632812,148.171875 C288.315118,148.171875 290.417961,148.881503 291.941406,150.300781 C293.464851,151.720059 294.226562,153.692696 294.226562,156.21875 C294.226562,157.455735 293.826176,158.65364 293.025391,159.8125 C292.224605,160.97136 291.134121,161.837237 289.753906,162.410156 C291.316414,162.90495 292.524084,163.725255 293.376953,164.871094 C294.229822,166.016933 294.65625,167.416658 294.65625,169.070312 C294.65625,171.622409 293.822925,173.647128 292.15625,175.144531 C290.489575,176.641935 288.321628,177.390625 285.652344,177.390625 C282.98306,177.390625 280.811857,176.667976 279.138672,175.222656 C277.465486,173.777337 276.628906,171.869804 276.628906,169.5 L280.261719,169.5 C280.261719,170.997403 280.749995,172.195308 281.726562,173.09375 C282.70313,173.992192 284.011711,174.441406 285.652344,174.441406 C287.397144,174.441406 288.731766,173.985682 289.65625,173.074219 C290.580734,172.162756 291.042969,170.854175 291.042969,169.148438 C291.042969,167.494783 290.535161,166.225265 289.519531,165.339844 C288.503901,164.454423 287.039072,163.998698 285.125,163.972656 L282.410156,163.972656 L282.410156,161.023438 Z M317.449219,164.871094 C317.449219,169.102886 316.72657,172.247386 315.28125,174.304688 C313.83593,176.361989 311.576838,177.390625 308.503906,177.390625 C305.470037,177.390625 303.223966,176.384776 301.765625,174.373047 C300.307284,172.361318 299.552084,169.356791 299.5,165.359375 L299.5,160.535156 C299.5,156.355448 300.222649,153.25001 301.667969,151.21875 C303.113288,149.18749 305.378891,148.171875 308.464844,148.171875 C311.524755,148.171875 313.777337,149.151683 315.222656,151.111328 C316.667976,153.070973 317.410156,156.095032 317.449219,160.183594 L317.449219,164.871094 Z M313.835938,159.929688 C313.835938,156.869776 313.406254,154.639981 312.546875,153.240234 C311.687496,151.840488 310.326832,151.140625 308.464844,151.140625 C306.615876,151.140625 305.268233,151.837233 304.421875,153.230469 C303.575517,154.623705 303.139323,156.765611 303.113281,159.65625 L303.113281,165.4375 C303.113281,168.510432 303.55924,170.77929 304.451172,172.244141 C305.343103,173.708992 306.694001,174.441406 308.503906,174.441406 C310.287769,174.441406 311.612626,173.751309 312.478516,172.371094 C313.344405,170.990879 313.796875,168.816421 313.835938,165.847656 L313.835938,159.929688 Z M347.234375,167.449219 L351.179688,167.449219 L351.179688,170.398438 L347.234375,170.398438 L347.234375,177 L343.601562,177 L343.601562,170.398438 L330.652344,170.398438 L330.652344,168.269531 L343.386719,148.5625 L347.234375,148.5625 L347.234375,167.449219 Z M334.753906,167.449219 L343.601562,167.449219 L343.601562,153.503906 L343.171875,154.285156 L334.753906,167.449219 Z M368.289062,164.5 C367.53385,165.398442 366.632167,166.121091 365.583984,166.667969 C364.535802,167.214846 363.386725,167.488281 362.136719,167.488281 C360.496086,167.488281 359.067063,167.084639 357.849609,166.277344 C356.632155,165.470048 355.69141,164.333992 355.027344,162.869141 C354.363278,161.40429 354.03125,159.786467 354.03125,158.015625 C354.03125,156.114574 354.392575,154.402351 355.115234,152.878906 C355.837894,151.355461 356.863275,150.190108 358.191406,149.382812 C359.519538,148.575517 361.069002,148.171875 362.839844,148.171875 C365.652358,148.171875 367.869133,149.223297 369.490234,151.326172 C371.111336,153.429047 371.921875,156.296857 371.921875,159.929688 L371.921875,160.984375 C371.921875,166.518257 370.828136,170.55793 368.640625,173.103516 C366.453114,175.649101 363.152366,176.954427 358.738281,177.019531 L358.035156,177.019531 L358.035156,173.972656 L358.796875,173.972656 C361.778661,173.920573 364.070304,173.142586 365.671875,171.638672 C367.273446,170.134758 368.145833,167.755225 368.289062,164.5 L368.289062,164.5 Z M362.722656,164.5 C363.9336,164.5 365.050125,164.12891 366.072266,163.386719 C367.094406,162.644528 367.839841,161.726568 368.308594,160.632812 L368.308594,159.1875 C368.308594,156.817696 367.794276,154.890632 366.765625,153.40625 C365.736974,151.921868 364.434904,151.179688 362.859375,151.179688 C361.270825,151.179688 359.994796,151.788405 359.03125,153.005859 C358.067704,154.223313 357.585938,155.828115 357.585938,157.820312 C357.585938,159.760426 358.051428,161.358718 358.982422,162.615234 C359.913416,163.871751 361.160148,164.5 362.722656,164.5 L362.722656,164.5 Z M388.777344,177 L385.144531,177 L385.144531,152.917969 L377.859375,155.59375 L377.859375,152.3125 L388.210938,148.425781 L388.777344,148.425781 L388.777344,177 Z" id="-aslak@cucumber.io" sketch:type="MSShapeGroup"></path>
                <path d="M28.4453125,35.0683594 L11.921875,35.0683594 L8.46484375,45 L0.759765625,45 L16.8730469,2.34375 L23.5234375,2.34375 L39.6660156,45 L31.9316406,45 L28.4453125,35.0683594 Z M14.0019531,29.0917969 L26.3652344,29.0917969 L20.1835938,11.3964844 L14.0019531,29.0917969 Z M61.5800781,36.3867188 C61.5800781,35.1171812 61.0576224,34.1503939 60.0126953,33.4863281 C58.9677682,32.8222623 57.2343871,32.2363307 54.8125,31.7285156 C52.3906129,31.2207006 50.3691487,30.5761758 48.7480469,29.7949219 C45.1933416,28.0761633 43.4160156,25.5859538 43.4160156,22.3242188 C43.4160156,19.5898301 44.5683479,17.3046967 46.8730469,15.46875 C49.1777459,13.6328033 52.1074041,12.7148438 55.6621094,12.7148438 C59.4511908,12.7148438 62.5126836,13.6523344 64.8466797,15.5273438 C67.1806757,17.4023531 68.3476562,19.8339694 68.3476562,22.8222656 L61.2285156,22.8222656 C61.2285156,21.4550713 60.7207082,20.3173874 59.7050781,19.4091797 C58.689448,18.500972 57.3418053,18.046875 55.6621094,18.046875 C54.0996016,18.046875 52.8252002,18.4081995 51.8388672,19.1308594 C50.8525341,19.8535192 50.359375,20.8203064 50.359375,22.03125 C50.359375,23.1250055 50.8183548,23.9746063 51.7363281,24.5800781 C52.6543015,25.1855499 54.5097517,25.7958954 57.3027344,26.4111328 C60.0957171,27.0263703 62.288078,27.7587848 63.8798828,28.6083984 C65.4716876,29.4580121 66.6533165,30.4785097 67.4248047,31.6699219 C68.1962929,32.8613341 68.5820312,34.3066321 68.5820312,36.0058594 C68.5820312,38.8574361 67.4004024,41.1669833 65.0371094,42.9345703 C62.6738163,44.7021573 59.5781441,45.5859375 55.75,45.5859375 C53.1523308,45.5859375 50.8379008,45.1171922 48.8066406,44.1796875 C46.7753805,43.2421828 45.193365,41.9531332 44.0605469,40.3125 C42.9277287,38.6718668 42.3613281,36.9043063 42.3613281,35.0097656 L49.2753906,35.0097656 C49.3730474,36.6894615 50.0078066,37.9833939 51.1796875,38.8916016 C52.3515684,39.7998092 53.9042872,40.2539062 55.8378906,40.2539062 C57.7129,40.2539062 59.138667,39.8974645 60.1152344,39.1845703 C61.0918018,38.4716761 61.5800781,37.5390683 61.5800781,36.3867188 L61.5800781,36.3867188 Z M82.3515625,45 L75.2324219,45 L75.2324219,0 L82.3515625,0 L82.3515625,45 Z M109.041016,45 C108.728514,44.3945282 108.455079,43.40821 108.220703,42.0410156 C105.955067,44.4043087 103.181657,45.5859375 99.9003906,45.5859375 C96.716781,45.5859375 94.1191507,44.6777435 92.1074219,42.8613281 C90.0956931,41.0449128 89.0898438,38.7988415 89.0898438,36.1230469 C89.0898438,32.7441237 90.344714,30.1513762 92.8544922,28.3447266 C95.3642704,26.5380769 98.9531017,25.6347656 103.621094,25.6347656 L107.986328,25.6347656 L107.986328,23.5546875 C107.986328,21.9140543 107.527348,20.6005909 106.609375,19.6142578 C105.691402,18.6279248 104.294931,18.1347656 102.419922,18.1347656 C100.79882,18.1347656 99.4707083,18.540035 98.4355469,19.3505859 C97.4003854,20.1611369 96.8828125,21.1914 96.8828125,22.4414062 L89.7636719,22.4414062 C89.7636719,20.7031163 90.339838,19.077156 91.4921875,17.5634766 C92.644537,16.0497971 94.2119042,14.8632855 96.1943359,14.0039062 C98.1767677,13.144527 100.38866,12.7148438 102.830078,12.7148438 C106.541034,12.7148438 109.499989,13.6474516 111.707031,15.5126953 C113.914074,17.377939 115.046875,19.9999831 115.105469,23.3789062 L115.105469,37.6757812 C115.105469,40.527358 115.505855,42.8027259 116.306641,44.5019531 L116.306641,45 L109.041016,45 Z M101.21875,39.8730469 C102.625007,39.8730469 103.948236,39.5312534 105.188477,38.8476562 C106.428717,38.1640591 107.361325,37.2460995 107.986328,36.09375 L107.986328,30.1171875 L104.148438,30.1171875 C101.511706,30.1171875 99.5293035,30.5761673 98.2011719,31.4941406 C96.8730402,32.412114 96.2089844,33.7109291 96.2089844,35.390625 C96.2089844,36.7578193 96.6630814,37.8466756 97.5712891,38.6572266 C98.4794967,39.4677775 99.6953049,39.8730469 101.21875,39.8730469 L101.21875,39.8730469 Z M132.859375,31.40625 L129.695312,34.6582031 L129.695312,45 L122.576172,45 L122.576172,0 L129.695312,0 L129.695312,25.9570312 L131.921875,23.1738281 L140.681641,13.3007812 L149.236328,13.3007812 L137.458984,26.5136719 L150.496094,45 L142.263672,45 L132.859375,31.40625 Z M203.376953,45 L195.994141,45 L195.994141,26.0449219 L176.921875,26.0449219 L176.921875,45 L169.509766,45 L169.509766,2.34375 L176.921875,2.34375 L176.921875,20.0976562 L195.994141,20.0976562 L195.994141,2.34375 L203.376953,2.34375 L203.376953,45 Z M225.408203,45.5859375 C220.896462,45.5859375 217.239272,44.1650533 214.436523,41.3232422 C211.633775,38.4814311 210.232422,34.6972893 210.232422,29.9707031 L210.232422,29.0917969 C210.232422,25.9277186 210.842767,23.1005984 212.063477,20.6103516 C213.284186,18.1201047 214.998036,16.1816476 217.205078,14.7949219 C219.41212,13.4081962 221.873033,12.7148438 224.587891,12.7148438 C228.904318,12.7148438 232.239246,14.0917831 234.592773,16.8457031 C236.946301,19.5996231 238.123047,23.4960686 238.123047,28.5351562 L238.123047,31.40625 L217.410156,31.40625 C217.625001,34.0234506 218.499016,36.0937424 220.032227,37.6171875 C221.565437,39.1406326 223.494129,39.9023438 225.818359,39.9023438 C229.080094,39.9023438 231.736318,38.5839976 233.787109,35.9472656 L237.625,39.609375 C236.355462,41.5039157 234.661143,42.9736276 232.541992,44.0185547 C230.422841,45.0634818 228.044935,45.5859375 225.408203,45.5859375 L225.408203,45.5859375 Z M224.558594,18.4277344 C222.605459,18.4277344 221.028326,19.1113213 219.827148,20.4785156 C218.625971,21.84571 217.859377,23.7499878 217.527344,26.1914062 L231.091797,26.1914062 L231.091797,25.6640625 C230.935546,23.2812381 230.300787,21.4794983 229.1875,20.2587891 C228.074213,19.0380798 226.53126,18.4277344 224.558594,18.4277344 L224.558594,18.4277344 Z M251.21875,45 L244.099609,45 L244.099609,0 L251.21875,0 L251.21875,45 Z M266.541016,45 L259.421875,45 L259.421875,0 L266.541016,0 L266.541016,45 Z M288.25,45.5859375 C283.738259,45.5859375 280.081069,44.1650533 277.27832,41.3232422 C274.475572,38.4814311 273.074219,34.6972893 273.074219,29.9707031 L273.074219,29.0917969 C273.074219,25.9277186 273.684564,23.1005984 274.905273,20.6103516 C276.125983,18.1201047 277.839833,16.1816476 280.046875,14.7949219 C282.253917,13.4081962 284.71483,12.7148438 287.429688,12.7148438 C291.746115,12.7148438 295.081043,14.0917831 297.43457,16.8457031 C299.788098,19.5996231 300.964844,23.4960686 300.964844,28.5351562 L300.964844,31.40625 L280.251953,31.40625 C280.466798,34.0234506 281.340813,36.0937424 282.874023,37.6171875 C284.407234,39.1406326 286.335926,39.9023438 288.660156,39.9023438 C291.921891,39.9023438 294.578115,38.5839976 296.628906,35.9472656 L300.466797,39.609375 C299.197259,41.5039157 297.50294,42.9736276 295.383789,44.0185547 C293.264638,45.0634818 290.886732,45.5859375 288.25,45.5859375 L288.25,45.5859375 Z M287.400391,18.4277344 C285.447256,18.4277344 283.870123,19.1113213 282.668945,20.4785156 C281.467767,21.84571 280.701174,23.7499878 280.369141,26.1914062 L293.933594,26.1914062 L293.933594,25.6640625 C293.777343,23.2812381 293.142584,21.4794983 292.029297,20.2587891 C290.91601,19.0380798 289.373057,18.4277344 287.400391,18.4277344 L287.400391,18.4277344 Z M324.255859,36.3867188 C324.255859,35.1171812 323.733404,34.1503939 322.688477,33.4863281 C321.643549,32.8222623 319.910168,32.2363307 317.488281,31.7285156 C315.066394,31.2207006 313.04493,30.5761758 311.423828,29.7949219 C307.869123,28.0761633 306.091797,25.5859538 306.091797,22.3242188 C306.091797,19.5898301 307.244129,17.3046967 309.548828,15.46875 C311.853527,13.6328033 314.783185,12.7148438 318.337891,12.7148438 C322.126972,12.7148438 325.188465,13.6523344 327.522461,15.5273438 C329.856457,17.4023531 331.023438,19.8339694 331.023438,22.8222656 L323.904297,22.8222656 C323.904297,21.4550713 323.396489,20.3173874 322.380859,19.4091797 C321.365229,18.500972 320.017587,18.046875 318.337891,18.046875 C316.775383,18.046875 315.500981,18.4081995 314.514648,19.1308594 C313.528315,19.8535192 313.035156,20.8203064 313.035156,22.03125 C313.035156,23.1250055 313.494136,23.9746063 314.412109,24.5800781 C315.330083,25.1855499 317.185533,25.7958954 319.978516,26.4111328 C322.771498,27.0263703 324.963859,27.7587848 326.555664,28.6083984 C328.147469,29.4580121 329.329098,30.4785097 330.100586,31.6699219 C330.872074,32.8613341 331.257812,34.3066321 331.257812,36.0058594 C331.257812,38.8574361 330.076184,41.1669833 327.712891,42.9345703 C325.349598,44.7021573 322.253925,45.5859375 318.425781,45.5859375 C315.828112,45.5859375 313.513682,45.1171922 311.482422,44.1796875 C309.451162,43.2421828 307.869146,41.9531332 306.736328,40.3125 C305.60351,38.6718668 305.037109,36.9043063 305.037109,35.0097656 L311.951172,35.0097656 C312.048829,36.6894615 312.683588,37.9833939 313.855469,38.8916016 C315.02735,39.7998092 316.580068,40.2539062 318.513672,40.2539062 C320.388681,40.2539062 321.814448,39.8974645 322.791016,39.1845703 C323.767583,38.4716761 324.255859,37.5390683 324.255859,36.3867188 L324.255859,36.3867188 Z M336.121094,28.8574219 C336.121094,25.7519376 336.736322,22.954114 337.966797,20.4638672 C339.197272,17.9736204 340.92577,16.059577 343.152344,14.7216797 C345.378917,13.3837824 347.937486,12.7148438 350.828125,12.7148438 C352.898448,12.7148438 354.79296,13.0468717 356.511719,13.7109375 L358.591797,9.52148438 L362.839844,9.52148438 L359.851562,15.6152344 C363.679707,18.6035306 365.59375,23.222625 365.59375,29.4726562 C365.59375,32.5976719 364.99317,35.3906127 363.791992,37.8515625 C362.590814,40.3125123 360.872081,42.2167901 358.635742,43.5644531 C356.399403,44.9121161 353.816421,45.5859375 350.886719,45.5859375 C349.070303,45.5859375 347.283212,45.2929717 345.525391,44.7070312 L343.416016,49.0136719 L339.167969,49.0136719 L342.15625,42.9492188 C338.132792,40.0195166 336.121094,35.3222979 336.121094,28.8574219 L336.121094,28.8574219 Z M343.240234,29.4726562 C343.240234,32.5195465 343.865228,34.9999904 345.115234,36.9140625 L353.875,19.0722656 C352.957027,18.642576 351.941412,18.4277344 350.828125,18.4277344 C348.503895,18.4277344 346.65821,19.3505767 345.291016,21.1962891 C343.923821,23.0420014 343.240234,25.8007629 343.240234,29.4726562 L343.240234,29.4726562 Z M358.503906,28.8574219 C358.503906,25.9667824 357.937506,23.6132903 356.804688,21.796875 L348.132812,39.4042969 C348.97266,39.7363298 349.89062,39.9023438 350.886719,39.9023438 C353.289075,39.9023438 355.159173,38.9648531 356.49707,37.0898438 C357.834968,35.2148344 358.503906,32.4707212 358.503906,28.8574219 L358.503906,28.8574219 Z M382.527344,34.8046875 L388.972656,13.3007812 L396.560547,13.3007812 L383.962891,49.8046875 C382.029287,55.1367454 378.74807,57.8027344 374.119141,57.8027344 C373.083979,57.8027344 371.941413,57.6269549 370.691406,57.2753906 L370.691406,51.7675781 L372.039062,51.8554688 C373.835946,51.8554688 375.188472,51.5283236 376.09668,50.8740234 C377.004887,50.2197233 377.722654,49.1211015 378.25,47.578125 L379.275391,44.8535156 L368.142578,13.3007812 L375.818359,13.3007812 L382.527344,34.8046875 Z" id="Aslak-Hellesøy" sketch:type="MSShapeGroup"></path>
            </g>
            <g id="Cucumber-logo" sketch:type="MSLayerGroup" transform="translate(90.000000, 90.000000)">
                <g id="g6053" sketch:type="MSShapeGroup">
                    <path d="M418.718234,69.6015101 C413.085253,69.6015101 409.517698,72.4328859 406.888974,76.7743289 C406.888974,75.6417785 407.452272,74.3204698 407.452272,73.3766779 L407.452272,71.489094 L398.063971,71.489094 L398.063971,118.678691 L407.452272,118.678691 L407.452272,91.4974832 C407.452272,83.7583893 411.583125,79.0394295 418.718234,79.0394295 L420.595894,79.0394295 L420.595894,69.6015101 L418.718234,69.6015101 L418.718234,69.6015101 Z" id="path5443" fill="#000000"></path>
                    <path d="M36.9899067,86.9672819 C34.3611824,82.8145973 30.6058619,79.9832215 25.1606472,79.9832215 C16.5234101,79.9832215 10.3271313,86.5897651 10.3271313,94.8951342 C10.3271313,103.200503 16.5234101,109.807047 25.1606472,109.807047 C30.6058619,109.807047 34.3611824,107.16443 36.9899067,103.011745 L45.6271438,108.108221 C41.4962913,114.526007 33.7978843,119.244966 25.1606472,119.244966 C9.20053518,119.244966 7.10542736e-15,107.16443 7.10542736e-15,95.0838926 C7.10542736e-15,83.0033557 9.3883012,70.9228188 25.1606472,70.9228188 C34.9244805,70.9228188 41.1207593,75.6417785 45.6271438,82.0595638 L36.9899067,86.9672819 L36.9899067,86.9672819 Z" id="path5445" fill="#000000"></path>
                    <path d="M53.8888489,72.0553691 L63.6526822,72.0553691 L63.6526822,97.7265101 C63.6526822,104.521812 68.5345988,109.240772 74.7308776,109.240772 C80.7393903,109.240772 85.809073,104.333054 85.809073,97.7265101 L85.809073,72.0553691 L95.5729062,72.0553691 L95.5729062,98.4815436 C95.5729062,111.317114 85.621307,119.056208 74.7308776,119.056208 C63.8404482,119.056208 53.8888489,111.317114 53.8888489,98.4815436 L53.8888489,72.0553691 L53.8888489,72.0553691 Z" id="path5447" fill="#000000"></path>
                    <path d="M141.387816,86.9672819 C138.759092,82.8145973 135.003771,79.9832215 129.558557,79.9832215 C120.921319,79.9832215 114.725041,86.5897651 114.725041,94.8951342 C114.725041,103.200503 120.921319,109.807047 129.558557,109.807047 C135.003771,109.807047 138.759092,107.16443 141.387816,103.011745 L150.025053,108.108221 C145.894201,114.526007 138.195794,119.244966 129.558557,119.244966 C113.598445,119.244966 104.397909,107.16443 104.397909,95.0838926 C104.397909,83.0033557 113.598445,70.9228188 129.558557,70.9228188 C139.32239,70.9228188 145.518669,75.6417785 150.025053,82.0595638 L141.387816,86.9672819 L141.387816,86.9672819 Z" id="path5449" fill="#000000"></path>
                    <path d="M158.286758,72.0553691 L168.050592,72.0553691 L168.050592,97.7265101 C168.050592,104.521812 172.932508,109.240772 179.128787,109.240772 C185.1373,109.240772 190.206982,104.333054 190.206982,97.7265101 L190.206982,72.0553691 L199.970816,72.0553691 L199.970816,98.4815436 C199.970816,111.317114 190.019216,119.056208 179.128787,119.056208 C168.238358,119.056208 158.286758,111.317114 158.286758,98.4815436 L158.286758,72.0553691 L158.286758,72.0553691 Z" id="path5451" fill="#000000"></path>
                    <path d="M212.175607,89.2323826 C212.175607,77.5293624 219.874014,70.9228188 228.886783,70.9228188 C235.834126,70.9228188 240.716043,74.3204698 242.593703,79.0394295 L242.781469,79.0394295 C244.659129,74.1317114 249.541046,70.9228188 256.488389,70.9228188 C265.501158,70.9228188 273.199565,77.7181208 273.199565,89.2323826 L273.199565,117.923658 L263.435732,117.923658 L263.435732,89.2323826 C263.435732,83.7583893 260.055943,80.5494966 255.925091,80.5494966 C251.23094,80.5494966 247.851152,83.3808725 247.851152,90.5536913 L247.851152,117.734899 L238.087319,117.734899 L238.087319,90.5536913 C238.087319,83.3808725 234.70753,80.5494966 230.013379,80.5494966 C225.882527,80.5494966 222.502739,83.7583893 222.502739,89.2323826 L222.502739,117.734899 L212.175607,117.734899 L212.175607,89.2323826 L212.175607,89.2323826 Z" id="path5453" fill="#000000"></path>
                    <path d="M285.216591,58.4647651 L294.980424,58.4647651 L294.980424,77.7181208 L295.16819,77.7181208 C297.421382,73.942953 303.617661,70.9228188 310.001706,70.9228188 C321.830965,70.9228188 333.660225,79.7944631 333.660225,95.0838926 C333.660225,110.373322 321.830965,119.244966 310.001706,119.244966 C303.617661,119.244966 297.421382,116.224832 295.16819,112.449664 L294.980424,112.449664 L294.980424,118.112416 L285.216591,118.112416 L285.216591,58.4647651 L285.216591,58.4647651 Z M309.062876,80.1719799 C300.988937,80.1719799 294.980424,86.5897651 294.980424,95.0838926 C294.980424,103.57802 300.988937,109.995805 309.062876,109.995805 C317.324581,109.995805 323.333093,103.57802 323.333093,95.0838926 C323.333093,86.4010067 317.324581,80.1719799 309.062876,80.1719799 L309.062876,80.1719799 Z" id="path5455" fill="#000000"></path>
                    <path d="M386.234711,107.919463 C380.789497,114.903523 373.278856,119.056208 365.017151,119.056208 C349.057039,119.056208 339.856504,106.975671 339.856504,94.8951342 C339.856504,82.8145973 349.244805,70.9228188 365.017151,70.9228188 C374.405452,70.9228188 388.67567,78.8506711 388.67567,96.5939597 L388.67567,98.2927852 L350.934699,98.2927852 C351.497997,105.276846 358.069808,110.373322 364.829385,110.373322 C370.086833,110.373322 374.593218,107.730705 377.973006,103.200503 L386.234711,107.919463 L386.234711,107.919463 Z M377.221942,90.1761745 C375.156516,83.1921141 370.086833,79.4169463 363.702789,79.4169463 C357.50651,79.4169463 352.436827,83.3808725 350.746933,90.1761745 L377.221942,90.1761745 L377.221942,90.1761745 Z" id="path5457" fill="#000000"></path>
                    <path d="M447.243798,0.741736158 C430.249972,0.741736158 416.497112,14.5672813 416.497112,31.6509224 C416.497112,46.6920176 427.222399,59.1896539 441.37611,61.9702387 L441.37611,70.8182882 C459.777357,68.0293792 476.070549,53.3451714 477.286362,34.0693893 C478.01818,22.466983 472.263705,10.6223286 462.558465,4.87082592 C462.002799,4.5415288 461.438245,4.21462173 460.856835,3.92703398 C460.264403,3.63399451 459.656051,3.34839211 459.037852,3.10121602 C458.841617,3.01869425 458.649337,2.94383381 458.451083,2.86526804 C457.911148,2.66489818 457.366334,2.4392664 456.80813,2.27539807 C453.799504,1.27851613 450.58333,0.741736158 447.243798,0.741736158 L447.243798,0.741736158 Z" id="path3943" fill="#00A818"></path>
                    <path d="M453.580902,12.1852135 C452.529119,12.0768247 451.421592,12.4447563 450.647057,13.3649534 C450.083759,14.119987 449.731698,14.8514258 449.356166,15.6064593 C448.22957,18.2490768 448.605102,21.0804526 450.294996,23.1567949 C452.92372,22.5905197 455.153442,20.9034916 456.280038,18.2608742 C456.65557,17.5058406 456.866807,16.5384539 456.866807,15.7834203 C456.984161,13.7778624 455.333874,12.3658611 453.580902,12.1852135 L453.580902,12.1852135 Z M439.909188,12.3621745 C438.194723,12.5262322 436.564606,13.8958364 436.564606,15.7834203 C436.564606,16.5384539 436.775842,17.5058406 437.151374,18.2608742 C438.277971,20.9034916 440.683723,22.5905197 443.312447,23.1567949 C444.814575,21.0804526 445.201843,18.2490768 444.075247,15.6064593 C443.699715,14.8514258 443.347653,14.1081896 442.784355,13.5419144 C442.00982,12.6217173 440.937868,12.26374 439.909188,12.3621745 L439.909188,12.3621745 Z M430.696917,21.446172 C427.736027,21.5989341 426.413505,25.3393138 428.877934,27.2858846 C429.628998,27.8521598 430.356591,28.2650688 431.107656,28.6425856 C433.73638,29.7751359 436.775842,29.3858217 439.029035,27.8757546 C438.465737,25.4218956 436.55287,23.1685923 433.924146,22.0360419 C432.985316,21.6585252 432.222516,21.446172 431.283686,21.446172 C431.072449,21.4225772 430.89431,21.435979 430.696917,21.446172 L430.696917,21.446172 Z M459.62462,32.8896493 C457.904654,32.8564656 456.162684,33.3615453 454.754439,34.3053372 C455.317737,36.7591963 457.230604,39.0124996 459.859328,40.1450499 C460.798158,40.5225667 461.560958,40.7349199 462.499788,40.7349199 C465.879576,40.9236783 467.534264,36.7238041 464.90554,34.8362202 C464.154476,34.2699451 463.426882,33.9160231 462.675818,33.5385063 C461.690047,33.1137999 460.656599,32.9095577 459.62462,32.8896493 L459.62462,32.8896493 Z M433.982823,33.0666103 C432.950843,33.0865243 431.917397,33.2907609 430.931625,33.7154673 C429.992795,34.0929841 429.265201,34.505893 428.701903,35.0721682 C426.260945,37.1485105 427.903898,41.1006393 431.283686,40.9118809 C432.222516,40.9118809 433.173082,40.6995277 433.924146,40.3220109 C436.55287,39.1894606 438.418795,36.9361573 438.794327,34.4822982 C437.386082,33.5385063 435.70279,33.0334304 433.982823,33.0666103 L433.982823,33.0666103 Z M443.488478,38.847336 C440.859753,39.4136112 438.630032,41.1006393 437.503436,43.7432567 C437.127904,44.4982903 436.916667,45.40669 436.916667,46.1617236 C436.728901,49.3706162 441.082726,51.0930365 442.960386,48.6391774 C443.523684,47.8841439 443.875745,47.1527051 444.251277,46.3976716 C445.377873,43.9438125 444.990606,41.1124367 443.488478,38.847336 L443.488478,38.847336 Z M450.471027,39.024297 C448.968899,41.1006393 448.581631,43.9320151 449.708227,46.5746326 C450.083759,47.3296661 450.435821,48.0729023 450.999119,48.6391774 C453.064545,50.9042781 457.406634,49.2290474 457.218868,46.3976716 C457.218868,45.642638 457.007631,44.6752513 456.632099,43.9202177 C455.505503,41.2776003 453.099751,39.5905721 450.471027,39.024297 L450.471027,39.024297 Z" id="rect4005" fill="#FFFFFF"></path>
                </g>
            </g>
        </g>
    </g>
</svg>