<?xml version="1.0" encoding="UTF-8" standalone="no"?>
<svg width="1039px" height="697px" viewBox="0 0 1039 697" version="1.1" xmlns="http://www.w3.org/2000/svg" xmlns:xlink="http://www.w3.org/1999/xlink" xmlns:sketch="http://www.bohemiancoding.com/sketch/ns">
    <!-- Generator: Sketch 3.5.1 (25234) - http://www.bohemiancoding.com/sketch -->
    <title>Aslak-Front</title>
    <desc>Created with Sketch.</desc>
    <defs></defs>
    <g id="Aslak" stroke="none" stroke-width="1" fill="none" fill-rule="evenodd" sketch:type="MSPage">
        <g id="Aslak-Front" sketch:type="MSArtboardGroup">
            <path d="M621.792969,544 C621.558593,543.335934 621.408854,542.352871 621.34375,541.050781 C620.523433,542.118495 619.478522,542.942054 618.208984,543.521484 C616.939447,544.100914 615.595059,544.390625 614.175781,544.390625 C612.144521,544.390625 610.500657,543.824224 609.244141,542.691406 C607.987624,541.558588 607.359375,540.126311 607.359375,538.394531 C607.359375,536.337229 608.215486,534.709641 609.927734,533.511719 C611.639983,532.313796 614.026026,531.714844 617.085938,531.714844 L621.324219,531.714844 L621.324219,529.3125 C621.324219,527.802076 620.858729,526.613937 619.927734,525.748047 C618.99674,524.882157 617.639332,524.449219 615.855469,524.449219 C614.227856,524.449219 612.880214,524.865881 611.8125,525.699219 C610.744786,526.532556 610.210938,527.53515 610.210938,528.707031 L607.867188,528.6875 C607.867188,527.007804 608.64843,525.552741 610.210938,524.322266 C611.773445,523.091791 613.693999,522.476562 615.972656,522.476562 C618.329439,522.476562 620.188144,523.065749 621.548828,524.244141 C622.909512,525.422532 623.609375,527.066396 623.648438,529.175781 L623.648438,539.175781 C623.648438,541.220062 623.863279,542.749995 624.292969,543.765625 L624.292969,544 L621.792969,544 Z M614.449219,542.320312 C616.011727,542.320312 617.408197,541.942712 618.638672,541.1875 C619.869147,540.432288 620.76432,539.423183 621.324219,538.160156 L621.324219,533.511719 L617.144531,533.511719 C614.81379,533.537761 612.990892,533.964189 611.675781,534.791016 C610.360671,535.617843 609.703125,536.753899 609.703125,538.199219 C609.703125,539.384121 610.142574,540.367184 611.021484,541.148438 C611.900395,541.929691 613.042962,542.320312 614.449219,542.320312 L614.449219,542.320312 Z M642.535156,538.628906 C642.535156,537.470046 642.069666,536.539066 641.138672,535.835938 C640.207678,535.132809 638.804697,534.582684 636.929688,534.185547 C635.054678,533.788409 633.599615,533.332685 632.564453,532.818359 C631.529292,532.304034 630.76107,531.675785 630.259766,530.933594 C629.758461,530.191403 629.507812,529.292974 629.507812,528.238281 C629.507812,526.571606 630.20442,525.194667 631.597656,524.107422 C632.990892,523.020177 634.774729,522.476562 636.949219,522.476562 C639.306001,522.476562 641.197258,523.059239 642.623047,524.224609 C644.048835,525.38998 644.761719,526.910147 644.761719,528.785156 L642.417969,528.785156 C642.417969,527.548171 641.900396,526.519535 640.865234,525.699219 C639.830073,524.878902 638.524747,524.46875 636.949219,524.46875 C635.412753,524.46875 634.179041,524.810543 633.248047,525.494141 C632.317053,526.177738 631.851562,527.066401 631.851562,528.160156 C631.851562,529.214849 632.238928,530.031898 633.013672,530.611328 C633.788415,531.190758 635.201162,531.721352 637.251953,532.203125 C639.302745,532.684898 640.839188,533.199216 641.861328,533.746094 C642.883469,534.292971 643.641925,534.950517 644.136719,535.71875 C644.631513,536.486983 644.878906,537.417963 644.878906,538.511719 C644.878906,540.295582 644.159512,541.721349 642.720703,542.789062 C641.281894,543.856776 639.403657,544.390625 637.085938,544.390625 C634.624988,544.390625 632.629565,543.794928 631.099609,542.603516 C629.569654,541.412103 628.804688,539.904957 628.804688,538.082031 L631.148438,538.082031 C631.239584,539.449226 631.81575,540.513668 632.876953,541.275391 C633.938156,542.037113 635.341137,542.417969 637.085938,542.417969 C638.71355,542.417969 640.028641,542.059899 641.03125,541.34375 C642.033859,540.627601 642.535156,539.722662 642.535156,538.628906 L642.535156,538.628906 Z M652.75,544 L650.40625,544 L650.40625,514 L652.75,514 L652.75,544 Z M672.4375,544 C672.203124,543.335934 672.053386,542.352871 671.988281,541.050781 C671.167965,542.118495 670.123053,542.942054 668.853516,543.521484 C667.583978,544.100914 666.23959,544.390625 664.820312,544.390625 C662.789052,544.390625 661.145189,543.824224 659.888672,542.691406 C658.632155,541.558588 658.003906,540.126311 658.003906,538.394531 C658.003906,536.337229 658.860017,534.709641 660.572266,533.511719 C662.284514,532.313796 664.670558,531.714844 667.730469,531.714844 L671.96875,531.714844 L671.96875,529.3125 C671.96875,527.802076 671.50326,526.613937 670.572266,525.748047 C669.641271,524.882157 668.283863,524.449219 666.5,524.449219 C664.872388,524.449219 663.524745,524.865881 662.457031,525.699219 C661.389318,526.532556 660.855469,527.53515 660.855469,528.707031 L658.511719,528.6875 C658.511719,527.007804 659.292961,525.552741 660.855469,524.322266 C662.417977,523.091791 664.33853,522.476562 666.617188,522.476562 C668.97397,522.476562 670.832675,523.065749 672.193359,524.244141 C673.554043,525.422532 674.253906,527.066396 674.292969,529.175781 L674.292969,539.175781 C674.292969,541.220062 674.50781,542.749995 674.9375,543.765625 L674.9375,544 L672.4375,544 Z M665.09375,542.320312 C666.656258,542.320312 668.052728,541.942712 669.283203,541.1875 C670.513678,540.432288 671.408851,539.423183 671.96875,538.160156 L671.96875,533.511719 L667.789062,533.511719 C665.458322,533.537761 663.635423,533.964189 662.320312,534.791016 C661.005202,535.617843 660.347656,536.753899 660.347656,538.199219 C660.347656,539.384121 660.787105,540.367184 661.666016,541.148438 C662.544926,541.929691 663.687493,542.320312 665.09375,542.320312 L665.09375,542.320312 Z M685.542969,533.355469 L682.867188,535.933594 L682.867188,544 L680.523438,544 L680.523438,514 L682.867188,514 L682.867188,533.199219 L685.074219,530.816406 L693.160156,522.867188 L696.109375,522.867188 L687.144531,531.773438 L696.890625,544 L694.097656,544 L685.542969,533.355469 Z M731.324219,533.980469 C731.259114,535.894541 730.907555,537.668612 730.269531,539.302734 C729.631507,540.936857 728.749355,542.193355 727.623047,543.072266 C726.496739,543.951176 725.191414,544.390625 723.707031,544.390625 C722.444004,544.390625 721.415369,544.058597 720.621094,543.394531 C719.826819,542.730465 719.29948,541.799485 719.039062,540.601562 C717.632805,543.127617 715.692721,544.390625 713.21875,544.390625 C711.395824,544.390625 710.035161,543.602872 709.136719,542.027344 C708.238277,540.451815 707.906249,538.32944 708.140625,535.660156 C708.335938,533.53775 708.82096,531.646493 709.595703,529.986328 C710.370447,528.326164 711.379551,527.030604 712.623047,526.099609 C713.866543,525.168615 715.19791,524.703125 716.617188,524.703125 C717.619797,524.703125 718.498694,524.843098 719.253906,525.123047 C720.009118,525.402996 720.888016,525.966142 721.890625,526.8125 L720.894531,537.945312 C720.764322,539.455737 720.956378,540.6276 721.470703,541.460938 C721.985029,542.294275 722.808588,542.710938 723.941406,542.710938 C725.542977,542.710938 726.841792,541.92644 727.837891,540.357422 C728.833989,538.788404 729.390624,536.662774 729.507812,533.980469 C729.75521,528.707005 728.752615,524.738946 726.5,522.076172 C724.247385,519.413398 720.83596,518.082031 716.265625,518.082031 C713.518215,518.082031 711.041027,518.768873 708.833984,520.142578 C706.626942,521.516283 704.885423,523.459623 703.609375,525.972656 C702.333327,528.48569 701.617188,531.382796 701.460938,534.664062 C701.304687,537.945329 701.737625,540.83267 702.759766,543.326172 C703.781906,545.819674 705.324859,547.736972 707.388672,549.078125 C709.452484,550.419278 711.910142,551.089844 714.761719,551.089844 C715.959641,551.089844 717.138015,550.946616 718.296875,550.660156 C719.455735,550.373696 720.425777,550.002606 721.207031,549.546875 L721.8125,551.109375 C721.070309,551.604169 720.035163,552.017576 718.707031,552.349609 C717.3789,552.681642 716.037767,552.847656 714.683594,552.847656 C711.428369,552.847656 708.628918,552.115242 706.285156,550.650391 C703.941395,549.18554 702.186855,547.076186 701.021484,544.322266 C699.856114,541.568346 699.351562,538.348977 699.507812,534.664062 C699.664063,531.044253 700.461581,527.837905 701.900391,525.044922 C703.3392,522.251939 705.308581,520.090502 707.808594,518.560547 C710.308606,517.030591 713.15363,516.265625 716.34375,516.265625 C719.664079,516.265625 722.476551,516.958977 724.78125,518.345703 C727.085949,519.732429 728.791661,521.760403 729.898438,524.429688 C731.005214,527.098972 731.48047,530.282534 731.324219,533.980469 L731.324219,533.980469 Z M710.210938,538.414062 C710.354167,539.716152 710.718747,540.722002 711.304688,541.431641 C711.890628,542.14128 712.66536,542.496094 713.628906,542.496094 C716.037772,542.496094 717.815098,540.835954 718.960938,537.515625 L719.839844,527.4375 C718.967444,526.799476 717.938808,526.480469 716.753906,526.480469 C715.308587,526.480469 714.055344,527.056635 712.994141,528.208984 C711.932937,529.361334 711.15495,530.94986 710.660156,532.974609 C710.165362,534.999359 710.015624,536.812492 710.210938,538.414062 L710.210938,538.414062 Z M744.449219,542.417969 C746.076831,542.417969 747.44075,541.958989 748.541016,541.041016 C749.641282,540.123042 750.236979,538.934903 750.328125,537.476562 L752.574219,537.476562 C752.509114,538.765631 752.105472,539.94075 751.363281,541.001953 C750.62109,542.063156 749.634772,542.893226 748.404297,543.492188 C747.173822,544.091149 745.855476,544.390625 744.449219,544.390625 C741.675767,544.390625 739.478524,543.427093 737.857422,541.5 C736.23632,539.572907 735.425781,536.981787 735.425781,533.726562 L735.425781,533.023438 C735.425781,530.940094 735.790361,529.097664 736.519531,527.496094 C737.248702,525.894523 738.293613,524.657556 739.654297,523.785156 C741.014981,522.912756 742.606762,522.476562 744.429688,522.476562 C746.747407,522.476562 748.658196,523.16666 750.162109,524.546875 C751.666023,525.92709 752.470052,527.743478 752.574219,529.996094 L750.328125,529.996094 C750.223958,528.34244 749.628261,527.007818 748.541016,525.992188 C747.453771,524.976557 746.083342,524.46875 744.429688,524.46875 C742.320302,524.46875 740.682949,525.230461 739.517578,526.753906 C738.352208,528.277351 737.769531,530.412747 737.769531,533.160156 L737.769531,533.84375 C737.769531,536.539076 738.352208,538.64192 739.517578,540.152344 C740.682949,541.662768 742.326812,542.417969 744.449219,542.417969 L744.449219,542.417969 Z M770.835938,541.324219 C769.42968,543.3685 767.183609,544.390625 764.097656,544.390625 C761.845041,544.390625 760.132818,543.736335 758.960938,542.427734 C757.789057,541.119134 757.190104,539.182304 757.164062,536.617188 L757.164062,522.867188 L759.488281,522.867188 L759.488281,536.324219 C759.488281,540.347676 761.115869,542.359375 764.371094,542.359375 C767.756527,542.359375 769.898433,540.959649 770.796875,538.160156 L770.796875,522.867188 L773.140625,522.867188 L773.140625,544 L770.875,544 L770.835938,541.324219 Z M787.027344,542.417969 C788.654956,542.417969 790.018875,541.958989 791.119141,541.041016 C792.219407,540.123042 792.815104,538.934903 792.90625,537.476562 L795.152344,537.476562 C795.087239,538.765631 794.683597,539.94075 793.941406,541.001953 C793.199215,542.063156 792.212897,542.893226 790.982422,543.492188 C789.751947,544.091149 788.433601,544.390625 787.027344,544.390625 C784.253892,544.390625 782.056649,543.427093 780.435547,541.5 C778.814445,539.572907 778.003906,536.981787 778.003906,533.726562 L778.003906,533.023438 C778.003906,530.940094 778.368486,529.097664 779.097656,527.496094 C779.826827,525.894523 780.871738,524.657556 782.232422,523.785156 C783.593106,522.912756 785.184887,522.476562 787.007812,522.476562 C789.325532,522.476562 791.236321,523.16666 792.740234,524.546875 C794.244148,525.92709 795.048177,527.743478 795.152344,529.996094 L792.90625,529.996094 C792.802083,528.34244 792.206386,527.007818 791.119141,525.992188 C790.031896,524.976557 788.661467,524.46875 787.007812,524.46875 C784.898427,524.46875 783.261074,525.230461 782.095703,526.753906 C780.930333,528.277351 780.347656,530.412747 780.347656,533.160156 L780.347656,533.84375 C780.347656,536.539076 780.930333,538.64192 782.095703,540.152344 C783.261074,541.662768 784.904937,542.417969 787.027344,542.417969 L787.027344,542.417969 Z M813.414062,541.324219 C812.007805,543.3685 809.761734,544.390625 806.675781,544.390625 C804.423166,544.390625 802.710943,543.736335 801.539062,542.427734 C800.367182,541.119134 799.768229,539.182304 799.742188,536.617188 L799.742188,522.867188 L802.066406,522.867188 L802.066406,536.324219 C802.066406,540.347676 803.693994,542.359375 806.949219,542.359375 C810.334652,542.359375 812.476558,540.959649 813.375,538.160156 L813.375,522.867188 L815.71875,522.867188 L815.71875,544 L813.453125,544 L813.414062,541.324219 Z M823.921875,522.867188 L824,526.304688 C824.781254,525.028639 825.757807,524.071618 826.929688,523.433594 C828.101568,522.79557 829.403639,522.476562 830.835938,522.476562 C834.169287,522.476562 836.285152,523.843736 837.183594,526.578125 C837.938806,525.263014 838.94791,524.250655 840.210938,523.541016 C841.473965,522.831377 842.86718,522.476562 844.390625,522.476562 C848.921898,522.476562 851.233072,524.950496 851.324219,529.898438 L851.324219,544 L848.980469,544 L848.980469,530.074219 C848.967448,528.186188 848.560551,526.786463 847.759766,525.875 C846.95898,524.963537 845.653655,524.507812 843.84375,524.507812 C842.164054,524.533854 840.744797,525.077469 839.585938,526.138672 C838.427078,527.199875 837.782553,528.49218 837.652344,530.015625 L837.652344,544 L835.308594,544 L835.308594,529.898438 C835.295573,528.088533 834.869145,526.737635 834.029297,525.845703 C833.189449,524.953772 831.897144,524.507812 830.152344,524.507812 C828.680982,524.507812 827.417974,524.92773 826.363281,525.767578 C825.308588,526.607426 824.527346,527.854158 824.019531,529.507812 L824.019531,544 L821.675781,544 L821.675781,522.867188 L823.921875,522.867188 Z M874.253906,533.648438 C874.253906,536.942725 873.524747,539.556631 872.066406,541.490234 C870.608066,543.423838 868.64845,544.390625 866.1875,544.390625 C863.244777,544.390625 861.018237,543.296886 859.507812,541.109375 L859.410156,544 L857.222656,544 L857.222656,514 L859.546875,514 L859.546875,525.933594 C861.031257,523.628895 863.231756,522.476562 866.148438,522.476562 C868.64845,522.476562 870.624342,523.430329 872.076172,525.337891 C873.528002,527.245452 874.253906,529.898421 874.253906,533.296875 L874.253906,533.648438 Z M871.910156,533.238281 C871.910156,530.451809 871.369797,528.300138 870.289062,526.783203 C869.208328,525.266268 867.684906,524.507812 865.71875,524.507812 C864.221347,524.507812 862.951828,524.875647 861.910156,525.611328 C860.868484,526.347009 860.080732,527.424472 859.546875,528.84375 L859.546875,538.375 C860.718756,541.031263 862.789048,542.359375 865.757812,542.359375 C867.684905,542.359375 869.192052,541.597664 870.279297,540.074219 C871.366542,538.550774 871.910156,536.272151 871.910156,533.238281 L871.910156,533.238281 Z M887.59375,544.390625 C885.796866,544.390625 884.172533,543.947921 882.720703,543.0625 C881.268873,542.177079 880.139327,540.943367 879.332031,539.361328 C878.524736,537.779289 878.121094,536.005218 878.121094,534.039062 L878.121094,533.199219 C878.121094,531.167959 878.51497,529.33855 879.302734,527.710938 C880.090499,526.083325 881.187493,524.804041 882.59375,523.873047 C884.000007,522.942053 885.523429,522.476562 887.164062,522.476562 C889.729179,522.476562 891.763664,523.352205 893.267578,525.103516 C894.771492,526.854826 895.523438,529.247381 895.523438,532.28125 L895.523438,533.589844 L880.445312,533.589844 L880.445312,534.039062 C880.445312,536.434908 881.132155,538.430331 882.505859,540.025391 C883.879564,541.620451 885.608062,542.417969 887.691406,542.417969 C888.941413,542.417969 890.044917,542.190106 891.001953,541.734375 C891.958989,541.278644 892.828121,540.549484 893.609375,539.546875 L895.074219,540.660156 C893.35546,543.147148 890.861996,544.390625 887.59375,544.390625 L887.59375,544.390625 Z M887.164062,524.46875 C885.406241,524.46875 883.925136,525.113275 882.720703,526.402344 C881.51627,527.691413 880.783855,529.423166 880.523438,531.597656 L893.199219,531.597656 L893.199219,531.34375 C893.134114,529.31249 892.554693,527.658861 891.460938,526.382812 C890.367182,525.106764 888.934905,524.46875 887.164062,524.46875 L887.164062,524.46875 Z M909.839844,524.859375 C909.34505,524.768229 908.817711,524.722656 908.257812,524.722656 C906.799472,524.722656 905.56576,525.129553 904.556641,525.943359 C903.547521,526.757166 902.828127,527.938794 902.398438,529.488281 L902.398438,544 L900.074219,544 L900.074219,522.867188 L902.359375,522.867188 L902.398438,526.226562 C903.635423,523.72655 905.62108,522.476562 908.355469,522.476562 C909.006514,522.476562 909.520831,522.561197 909.898438,522.730469 L909.839844,524.859375 Z M910.914062,542.59375 C910.914062,542.138019 911.060545,541.750653 911.353516,541.431641 C911.646486,541.112629 912.053383,540.953125 912.574219,540.953125 C913.095055,540.953125 913.505207,541.112629 913.804688,541.431641 C914.104168,541.750653 914.253906,542.138019 914.253906,542.59375 C914.253906,543.049481 914.104168,543.423827 913.804688,543.716797 C913.505207,544.009767 913.095055,544.15625 912.574219,544.15625 C912.053383,544.15625 911.646486,544.009767 911.353516,543.716797 C911.060545,543.423827 910.914062,543.049481 910.914062,542.59375 L910.914062,542.59375 Z M923.296875,544 L920.953125,544 L920.953125,522.867188 L923.296875,522.867188 L923.296875,544 Z M920.542969,516.753906 C920.542969,516.311196 920.686196,515.93685 920.972656,515.630859 C921.259116,515.324868 921.649737,515.171875 922.144531,515.171875 C922.639325,515.171875 923.033202,515.324868 923.326172,515.630859 C923.619142,515.93685 923.765625,516.311196 923.765625,516.753906 C923.765625,517.196617 923.619142,517.567707 923.326172,517.867188 C923.033202,518.166668 922.639325,518.316406 922.144531,518.316406 C921.649737,518.316406 921.259116,518.166668 920.972656,517.867188 C920.686196,517.567707 920.542969,517.196617 920.542969,516.753906 L920.542969,516.753906 Z M928.355469,533.121094 C928.355469,531.089834 928.749345,529.260425 929.537109,527.632812 C930.324874,526.0052 931.438144,524.738937 932.876953,523.833984 C934.315762,522.929032 935.946605,522.476562 937.769531,522.476562 C940.582045,522.476562 942.860668,523.462881 944.605469,525.435547 C946.350269,527.408213 947.222656,530.022119 947.222656,533.277344 L947.222656,533.765625 C947.222656,535.809906 946.82878,537.64908 946.041016,539.283203 C945.253251,540.917326 944.143236,542.177079 942.710938,543.0625 C941.278639,543.947921 939.64454,544.390625 937.808594,544.390625 C935.009101,544.390625 932.733733,543.404307 930.982422,541.431641 C929.231111,539.458975 928.355469,536.845068 928.355469,533.589844 L928.355469,533.121094 Z M930.699219,533.765625 C930.699219,536.291679 931.353509,538.365226 932.662109,539.986328 C933.97071,541.60743 935.686187,542.417969 937.808594,542.417969 C939.917979,542.417969 941.626947,541.60743 942.935547,539.986328 C944.244147,538.365226 944.898438,536.226576 944.898438,533.570312 L944.898438,533.121094 C944.898438,531.506502 944.598961,530.028653 944,528.6875 C943.401039,527.346347 942.561203,526.307946 941.480469,525.572266 C940.399734,524.836585 939.162767,524.46875 937.769531,524.46875 C935.686187,524.46875 933.986986,525.285799 932.671875,526.919922 C931.356764,528.554045 930.699219,530.692695 930.699219,533.335938 L930.699219,533.765625 Z M585.855469,583.546875 L594.507812,583.546875 L594.507812,585.734375 L585.855469,585.734375 L585.855469,595.148438 L583.492188,595.148438 L583.492188,585.734375 L575.015625,585.734375 L575.015625,583.546875 L583.492188,583.546875 L583.492188,574.445312 L585.855469,574.445312 L585.855469,583.546875 Z M613.160156,588.839844 L617.59375,588.839844 L617.59375,590.8125 L613.160156,590.8125 L613.160156,598 L610.816406,598 L610.816406,590.8125 L597.4375,590.8125 L597.4375,589.484375 L610.601562,569.5625 L613.160156,569.5625 L613.160156,588.839844 Z M600.308594,588.839844 L610.816406,588.839844 L610.816406,572.589844 L609.78125,574.386719 L600.308594,588.839844 Z M635.328125,588.839844 L639.761719,588.839844 L639.761719,590.8125 L635.328125,590.8125 L635.328125,598 L632.984375,598 L632.984375,590.8125 L619.605469,590.8125 L619.605469,589.484375 L632.769531,569.5625 L635.328125,569.5625 L635.328125,588.839844 Z M622.476562,588.839844 L632.984375,588.839844 L632.984375,572.589844 L631.949219,574.386719 L622.476562,588.839844 Z M652.925781,586.515625 C652.925781,583.677069 653.290361,580.919935 654.019531,578.244141 C654.748702,575.568346 655.816399,573.120454 657.222656,570.900391 C658.628913,568.680327 660.139315,567.088546 661.753906,566.125 L662.320312,567.707031 C661.460933,568.319013 660.608077,569.210932 659.761719,570.382812 C658.91536,571.554693 658.16016,572.947909 657.496094,574.5625 C656.832028,576.177091 656.294924,577.990224 655.884766,580.001953 C655.474607,582.013682 655.269531,584.29556 655.269531,586.847656 C655.269531,589.569024 655.578773,592.186185 656.197266,594.699219 C656.815758,597.212252 657.665359,599.429027 658.746094,601.349609 C659.826828,603.270192 661.018223,604.712235 662.320312,605.675781 L661.753906,607.179688 C660.100252,606.190099 658.57032,604.591808 657.164062,602.384766 C655.757805,600.177723 654.699873,597.749362 653.990234,595.099609 C653.280595,592.449857 652.925781,589.588557 652.925781,586.515625 L652.925781,586.515625 Z M682.769531,586.144531 C682.769531,590.154968 682.033862,593.198557 680.5625,595.275391 C679.091138,597.352224 676.923191,598.390625 674.058594,598.390625 C671.24608,598.390625 669.091153,597.371755 667.59375,595.333984 C666.096347,593.296214 665.328125,590.330749 665.289062,586.4375 L665.289062,581.339844 C665.289062,577.342428 666.031243,574.315114 667.515625,572.257812 C669.000007,570.200511 671.167954,569.171875 674.019531,569.171875 C676.832045,569.171875 678.980461,570.164704 680.464844,572.150391 C681.949226,574.136078 682.717448,577.062481 682.769531,580.929688 L682.769531,586.144531 Z M680.425781,581.046875 C680.425781,577.79165 679.895188,575.330737 678.833984,573.664062 C677.772781,571.997388 676.167979,571.164062 674.019531,571.164062 C671.910146,571.164062 670.32162,571.977856 669.253906,573.605469 C668.186193,575.233081 667.639323,577.635401 667.613281,580.8125 L667.613281,586.398438 C667.613281,589.640641 668.163406,592.121085 669.263672,593.839844 C670.363938,595.558602 671.962229,596.417969 674.058594,596.417969 C676.141938,596.417969 677.720698,595.578133 678.794922,593.898438 C679.869146,592.218742 680.41276,589.757829 680.425781,586.515625 L680.425781,581.046875 Z M695.152344,586.808594 C695.152344,589.673191 694.79753,592.430325 694.087891,595.080078 C693.378252,597.729831 692.32683,600.154937 690.933594,602.355469 C689.540358,604.556001 688.003915,606.164057 686.324219,607.179688 L685.757812,605.675781 C687.033861,604.764318 688.215489,603.351572 689.302734,601.4375 C690.389979,599.523428 691.246091,597.293633 691.871094,594.748047 C692.496097,592.202461 692.808594,589.438817 692.808594,586.457031 C692.808594,583.761705 692.496097,581.16082 691.871094,578.654297 C691.246091,576.147774 690.383469,573.908213 689.283203,571.935547 C688.182937,569.962881 687.007819,568.527348 685.757812,567.628906 L686.324219,566.125 C687.964852,567.127609 689.481764,568.729156 690.875,570.929688 C692.268236,573.130219 693.329423,575.571601 694.058594,578.253906 C694.787764,580.936211 695.152344,583.787745 695.152344,586.808594 L695.152344,586.808594 Z M728.0625,570.910156 L715.914062,598 L713.472656,598 L725.542969,571.554688 L709.371094,571.554688 L709.371094,569.5625 L728.0625,569.5625 L728.0625,570.910156 Z M750.230469,570.910156 L738.082031,598 L735.640625,598 L747.710938,571.554688 L731.539062,571.554688 L731.539062,569.5625 L750.230469,569.5625 L750.230469,570.910156 Z M769.46875,584.835938 C768.635413,586.059902 767.600267,587.007158 766.363281,587.677734 C765.126296,588.348311 763.785163,588.683594 762.339844,588.683594 C760.725252,588.683594 759.299485,588.266931 758.0625,587.433594 C756.825515,586.600256 755.868493,585.447924 755.191406,583.976562 C754.51432,582.505201 754.175781,580.897144 754.175781,579.152344 C754.175781,577.277334 754.537106,575.571622 755.259766,574.035156 C755.982425,572.49869 756.99153,571.304041 758.287109,570.451172 C759.582689,569.598303 761.076814,569.171875 762.769531,569.171875 C765.621108,569.171875 767.841138,570.171214 769.429688,572.169922 C771.018237,574.16863 771.8125,577.003888 771.8125,580.675781 L771.8125,582.785156 C771.8125,587.91539 770.718761,591.769518 768.53125,594.347656 C766.343739,596.925794 763.003929,598.214844 758.511719,598.214844 L758.082031,598.214844 L758.101562,596.183594 L758.921875,596.183594 C762.320329,596.13151 764.904939,595.167978 766.675781,593.292969 C768.446623,591.417959 769.377604,588.598977 769.46875,584.835938 L769.46875,584.835938 Z M762.632812,586.671875 C764.19532,586.671875 765.598301,586.206385 766.841797,585.275391 C768.085293,584.344396 768.967445,583.136726 769.488281,581.652344 L769.488281,580.304688 C769.488281,577.414048 768.886074,575.171232 767.681641,573.576172 C766.477208,571.981112 764.852875,571.183594 762.808594,571.183594 C760.959626,571.183594 759.442714,571.929029 758.257812,573.419922 C757.072911,574.910815 756.480469,576.789051 756.480469,579.054688 C756.480469,581.229178 757.050125,583.04231 758.189453,584.494141 C759.328782,585.945971 760.809887,586.671875 762.632812,586.671875 L762.632812,586.671875 Z M778.628906,583.429688 L780.015625,569.5625 L794.234375,569.5625 L794.234375,571.730469 L782.027344,571.730469 L781.03125,581.339844 C782.554695,580.298172 784.338531,579.777344 786.382812,579.777344 C788.947929,579.777344 790.99218,580.610669 792.515625,582.277344 C794.03907,583.944019 794.800781,586.164049 794.800781,588.9375 C794.800781,591.932307 794.058601,594.256502 792.574219,595.910156 C791.089836,597.56381 789.000013,598.390625 786.304688,598.390625 C783.830717,598.390625 781.825529,597.700528 780.289062,596.320312 C778.752596,594.940097 777.873699,593.006523 777.652344,590.519531 L779.898438,590.519531 C780.119793,592.459645 780.777338,593.927729 781.871094,594.923828 C782.964849,595.919927 784.442699,596.417969 786.304688,596.417969 C788.335948,596.417969 789.869135,595.773444 790.904297,594.484375 C791.939458,593.195306 792.457031,591.359387 792.457031,588.976562 C792.457031,586.893219 791.87761,585.194017 790.71875,583.878906 C789.55989,582.563796 787.977875,581.90625 785.972656,581.90625 C784.86588,581.90625 783.902348,582.046223 783.082031,582.326172 C782.261715,582.606121 781.395838,583.149736 780.484375,583.957031 L778.628906,583.429688 Z M825.699219,576.886719 C825.699219,578.35808 825.269536,579.676426 824.410156,580.841797 C823.550777,582.007167 822.417976,582.863279 821.011719,583.410156 C822.652352,583.970055 823.967443,584.874994 824.957031,586.125 C825.94662,587.375006 826.441406,588.820304 826.441406,590.460938 C826.441406,592.895846 825.614592,594.826165 823.960938,596.251953 C822.307283,597.677742 820.119805,598.390625 817.398438,598.390625 C814.651028,598.390625 812.453784,597.680997 810.806641,596.261719 C809.159497,594.842441 808.335938,592.908866 808.335938,590.460938 C808.335938,588.846346 808.811193,587.407558 809.761719,586.144531 C810.712244,584.881504 812.014315,583.970055 813.667969,583.410156 C812.261712,582.863279 811.141931,582.007167 810.308594,580.841797 C809.475256,579.676426 809.058594,578.35808 809.058594,576.886719 C809.058594,574.529936 809.81705,572.654955 811.333984,571.261719 C812.850919,569.868483 814.859362,569.171875 817.359375,569.171875 C819.859388,569.171875 821.874341,569.874993 823.404297,571.28125 C824.934252,572.687507 825.699219,574.555978 825.699219,576.886719 L825.699219,576.886719 Z M824.097656,590.480469 C824.097656,588.709627 823.466152,587.254563 822.203125,586.115234 C820.940098,584.975906 819.325531,584.40625 817.359375,584.40625 C815.393219,584.40625 813.785163,584.96614 812.535156,586.085938 C811.28515,587.205735 810.660156,588.670564 810.660156,590.480469 C810.660156,592.290374 811.265619,593.732417 812.476562,594.806641 C813.687506,595.880865 815.328115,596.417969 817.398438,596.417969 C819.416677,596.417969 821.037754,595.88412 822.261719,594.816406 C823.485683,593.748693 824.097656,592.303395 824.097656,590.480469 L824.097656,590.480469 Z M823.355469,576.867188 C823.355469,575.239575 822.792323,573.882167 821.666016,572.794922 C820.539708,571.707677 819.104175,571.164062 817.359375,571.164062 C815.588533,571.164062 814.153,571.688146 813.052734,572.736328 C811.952468,573.78451 811.402344,575.16145 811.402344,576.867188 C811.402344,578.533862 811.952468,579.874995 813.052734,580.890625 C814.153,581.906255 815.595043,582.414062 817.378906,582.414062 C819.136728,582.414062 820.57226,581.903 821.685547,580.880859 C822.798834,579.858719 823.355469,578.520842 823.355469,576.867188 L823.355469,576.867188 Z M836.304688,582.511719 L838.726562,582.511719 C840.067715,582.511719 841.239578,582.274091 842.242188,581.798828 C843.244797,581.323565 844.009763,580.67253 844.537109,579.845703 C845.064456,579.018876 845.328125,578.06511 845.328125,576.984375 C845.328125,575.161449 844.813807,573.735682 843.785156,572.707031 C842.756505,571.67838 841.278655,571.164062 839.351562,571.164062 C837.528637,571.164062 836.034511,571.701167 834.869141,572.775391 C833.70377,573.849615 833.121094,575.265616 833.121094,577.023438 L830.777344,577.023438 C830.777344,575.552076 831.148434,574.207688 831.890625,572.990234 C832.632816,571.77278 833.661452,570.832035 834.976562,570.167969 C836.291673,569.503903 837.749992,569.171875 839.351562,569.171875 C841.9297,569.171875 843.96093,569.874993 845.445312,571.28125 C846.929695,572.687507 847.671875,574.614571 847.671875,577.0625 C847.671875,578.429694 847.238937,579.689447 846.373047,580.841797 C845.507157,581.994146 844.319018,582.856768 842.808594,583.429688 C844.579436,583.924482 845.920568,584.774083 846.832031,585.978516 C847.743494,587.182949 848.199219,588.618481 848.199219,590.285156 C848.199219,592.720064 847.404956,594.67968 845.816406,596.164062 C844.227857,597.648445 842.105482,598.390625 839.449219,598.390625 C837.756502,598.390625 836.203783,598.052087 834.791016,597.375 C833.378248,596.697913 832.284509,595.750657 831.509766,594.533203 C830.735022,593.315749 830.347656,591.899748 830.347656,590.285156 L832.691406,590.285156 C832.691406,592.095061 833.32291,593.569656 834.585938,594.708984 C835.848965,595.848313 837.470042,596.417969 839.449219,596.417969 C841.467458,596.417969 843.039708,595.900396 844.166016,594.865234 C845.292323,593.830073 845.855469,592.329437 845.855469,590.363281 C845.855469,588.46223 845.246751,587.010422 844.029297,586.007812 C842.811843,585.005203 841.018241,584.503906 838.648438,584.503906 L836.304688,584.503906 L836.304688,582.511719 Z M870.425781,586.144531 C870.425781,590.154968 869.690112,593.198557 868.21875,595.275391 C866.747388,597.352224 864.579441,598.390625 861.714844,598.390625 C858.90233,598.390625 856.747403,597.371755 855.25,595.333984 C853.752597,593.296214 852.984375,590.330749 852.945312,586.4375 L852.945312,581.339844 C852.945312,577.342428 853.687493,574.315114 855.171875,572.257812 C856.656257,570.200511 858.824204,569.171875 861.675781,569.171875 C864.488295,569.171875 866.636711,570.164704 868.121094,572.150391 C869.605476,574.136078 870.373698,577.062481 870.425781,580.929688 L870.425781,586.144531 Z M868.082031,581.046875 C868.082031,577.79165 867.551438,575.330737 866.490234,573.664062 C865.429031,571.997388 863.824229,571.164062 861.675781,571.164062 C859.566396,571.164062 857.97787,571.977856 856.910156,573.605469 C855.842443,575.233081 855.295573,577.635401 855.269531,580.8125 L855.269531,586.398438 C855.269531,589.640641 855.819656,592.121085 856.919922,593.839844 C858.020188,595.558602 859.618479,596.417969 861.714844,596.417969 C863.798188,596.417969 865.376948,595.578133 866.451172,593.898438 C867.525396,592.218742 868.06901,589.757829 868.082031,586.515625 L868.082031,581.046875 Z M899.527344,588.839844 L903.960938,588.839844 L903.960938,590.8125 L899.527344,590.8125 L899.527344,598 L897.183594,598 L897.183594,590.8125 L883.804688,590.8125 L883.804688,589.484375 L896.96875,569.5625 L899.527344,569.5625 L899.527344,588.839844 Z M886.675781,588.839844 L897.183594,588.839844 L897.183594,572.589844 L896.148438,574.386719 L886.675781,588.839844 Z M921.929688,584.835938 C921.09635,586.059902 920.061204,587.007158 918.824219,587.677734 C917.587233,588.348311 916.246101,588.683594 914.800781,588.683594 C913.18619,588.683594 911.760423,588.266931 910.523438,587.433594 C909.286452,586.600256 908.32943,585.447924 907.652344,583.976562 C906.975257,582.505201 906.636719,580.897144 906.636719,579.152344 C906.636719,577.277334 906.998043,575.571622 907.720703,574.035156 C908.443363,572.49869 909.452467,571.304041 910.748047,570.451172 C912.043626,569.598303 913.537752,569.171875 915.230469,569.171875 C918.082046,569.171875 920.302075,570.171214 921.890625,572.169922 C923.479175,574.16863 924.273438,577.003888 924.273438,580.675781 L924.273438,582.785156 C924.273438,587.91539 923.179698,591.769518 920.992188,594.347656 C918.804677,596.925794 915.464866,598.214844 910.972656,598.214844 L910.542969,598.214844 L910.5625,596.183594 L911.382812,596.183594 C914.781267,596.13151 917.365877,595.167978 919.136719,593.292969 C920.907561,591.417959 921.838541,588.598977 921.929688,584.835938 L921.929688,584.835938 Z M915.09375,586.671875 C916.656258,586.671875 918.059239,586.206385 919.302734,585.275391 C920.54623,584.344396 921.428383,583.136726 921.949219,581.652344 L921.949219,580.304688 C921.949219,577.414048 921.347011,575.171232 920.142578,573.576172 C918.938145,571.981112 917.313812,571.183594 915.269531,571.183594 C913.420564,571.183594 911.903652,571.929029 910.71875,573.419922 C909.533848,574.910815 908.941406,576.789051 908.941406,579.054688 C908.941406,581.229178 909.511062,583.04231 910.650391,584.494141 C911.789719,585.945971 913.270824,586.671875 915.09375,586.671875 L915.09375,586.671875 Z M940.386719,598 L938.042969,598 L938.042969,572.375 L930.308594,575.246094 L930.308594,573.058594 L939.996094,569.464844 L940.386719,569.464844 L940.386719,598 Z" id="aslak@cucumber.io" fill="#1B1D1E" sketch:type="MSShapeGroup"></path>
            <path d="M640.210938,402.378906 L629.195312,402.378906 L626.890625,409 L621.753906,409 L632.496094,380.5625 L636.929688,380.5625 L647.691406,409 L642.535156,409 L640.210938,402.378906 Z M630.582031,398.394531 L638.824219,398.394531 L634.703125,386.597656 L630.582031,398.394531 Z M665.777344,401.675781 C665.777344,400.425775 665.337895,399.462243 664.458984,398.785156 C663.580074,398.10807 661.994803,397.424483 659.703125,396.734375 C657.411447,396.044267 655.588548,395.276046 654.234375,394.429688 C651.643216,392.802075 650.347656,390.679701 650.347656,388.0625 C650.347656,385.770822 651.281892,383.88282 653.150391,382.398438 C655.01889,380.914055 657.443996,380.171875 660.425781,380.171875 C662.404958,380.171875 664.169263,380.536455 665.71875,381.265625 C667.268237,381.994795 668.485673,383.033196 669.371094,384.380859 C670.256515,385.728522 670.699219,387.222648 670.699219,388.863281 L665.777344,388.863281 C665.777344,387.378899 665.311854,386.216801 664.380859,385.376953 C663.449865,384.537105 662.118498,384.117188 660.386719,384.117188 C658.772127,384.117188 657.518885,384.462236 656.626953,385.152344 C655.735022,385.842451 655.289062,386.805983 655.289062,388.042969 C655.289062,389.084641 655.770829,389.953773 656.734375,390.650391 C657.697921,391.347009 659.286447,392.024085 661.5,392.681641 C663.713553,393.339196 665.490879,394.087886 666.832031,394.927734 C668.173184,395.767582 669.156247,396.731114 669.78125,397.818359 C670.406253,398.905604 670.71875,400.178378 670.71875,401.636719 C670.71875,404.006522 669.810556,405.891269 667.994141,407.291016 C666.177725,408.690762 663.713557,409.390625 660.601562,409.390625 C658.544261,409.390625 656.653003,409.009769 654.927734,408.248047 C653.202465,407.486324 651.861333,406.434903 650.904297,405.09375 C649.947261,403.752597 649.46875,402.190113 649.46875,400.40625 L654.410156,400.40625 C654.410156,402.020841 654.944005,403.270829 656.011719,404.15625 C657.079432,405.041671 658.609365,405.484375 660.601562,405.484375 C662.320321,405.484375 663.612626,405.136071 664.478516,404.439453 C665.344405,403.742835 665.777344,402.82162 665.777344,401.675781 L665.777344,401.675781 Z M679.996094,405.054688 L692.90625,405.054688 L692.90625,409 L675.054688,409 L675.054688,380.5625 L679.996094,380.5625 L679.996094,405.054688 Z M712.984375,402.378906 L701.96875,402.378906 L699.664062,409 L694.527344,409 L705.269531,380.5625 L709.703125,380.5625 L720.464844,409 L715.308594,409 L712.984375,402.378906 Z M703.355469,398.394531 L711.597656,398.394531 L707.476562,386.597656 L703.355469,398.394531 Z M731.851562,396.714844 L728.628906,400.132812 L728.628906,409 L723.6875,409 L723.6875,380.5625 L728.628906,380.5625 L728.628906,393.902344 L731.363281,390.523438 L739.683594,380.5625 L745.660156,380.5625 L735.09375,393.160156 L746.265625,409 L740.40625,409 L731.851562,396.714844 Z M781.441406,409 L776.519531,409 L776.519531,396.363281 L763.804688,396.363281 L763.804688,409 L758.863281,409 L758.863281,380.5625 L763.804688,380.5625 L763.804688,392.398438 L776.519531,392.398438 L776.519531,380.5625 L781.441406,380.5625 L781.441406,409 Z M803.902344,396.304688 L792.222656,396.304688 L792.222656,405.054688 L805.875,405.054688 L805.875,409 L787.28125,409 L787.28125,380.5625 L805.738281,380.5625 L805.738281,384.546875 L792.222656,384.546875 L792.222656,392.398438 L803.902344,392.398438 L803.902344,396.304688 Z M814.839844,405.054688 L827.75,405.054688 L827.75,409 L809.898438,409 L809.898438,380.5625 L814.839844,380.5625 L814.839844,405.054688 Z M836.480469,405.054688 L849.390625,405.054688 L849.390625,409 L831.539062,409 L831.539062,380.5625 L836.480469,380.5625 L836.480469,405.054688 Z M869.800781,396.304688 L858.121094,396.304688 L858.121094,405.054688 L871.773438,405.054688 L871.773438,409 L853.179688,409 L853.179688,380.5625 L871.636719,380.5625 L871.636719,384.546875 L858.121094,384.546875 L858.121094,392.398438 L869.800781,392.398438 L869.800781,396.304688 Z M890.660156,401.675781 C890.660156,400.425775 890.220708,399.462243 889.341797,398.785156 C888.462886,398.10807 886.877616,397.424483 884.585938,396.734375 C882.294259,396.044267 880.471361,395.276046 879.117188,394.429688 C876.526029,392.802075 875.230469,390.679701 875.230469,388.0625 C875.230469,385.770822 876.164704,383.88282 878.033203,382.398438 C879.901702,380.914055 882.326808,380.171875 885.308594,380.171875 C887.28777,380.171875 889.052076,380.536455 890.601562,381.265625 C892.151049,381.994795 893.368485,383.033196 894.253906,384.380859 C895.139327,385.728522 895.582031,387.222648 895.582031,388.863281 L890.660156,388.863281 C890.660156,387.378899 890.194666,386.216801 889.263672,385.376953 C888.332678,384.537105 887.001311,384.117188 885.269531,384.117188 C883.65494,384.117188 882.401697,384.462236 881.509766,385.152344 C880.617834,385.842451 880.171875,386.805983 880.171875,388.042969 C880.171875,389.084641 880.653641,389.953773 881.617188,390.650391 C882.580734,391.347009 884.16926,392.024085 886.382812,392.681641 C888.596365,393.339196 890.373691,394.087886 891.714844,394.927734 C893.055996,395.767582 894.039059,396.731114 894.664062,397.818359 C895.289066,398.905604 895.601562,400.178378 895.601562,401.636719 C895.601562,404.006522 894.693368,405.891269 892.876953,407.291016 C891.060538,408.690762 888.59637,409.390625 885.484375,409.390625 C883.427073,409.390625 881.535816,409.009769 879.810547,408.248047 C878.085278,407.486324 876.744145,406.434903 875.787109,405.09375 C874.830073,403.752597 874.351562,402.190113 874.351562,400.40625 L879.292969,400.40625 C879.292969,402.020841 879.826818,403.270829 880.894531,404.15625 C881.962245,405.041671 883.492178,405.484375 885.484375,405.484375 C887.203134,405.484375 888.495438,405.136071 889.361328,404.439453 C890.227218,403.742835 890.660156,402.82162 890.660156,401.675781 L890.660156,401.675781 Z M922.710938,395.523438 C922.710938,398.30991 922.229171,400.754547 921.265625,402.857422 C920.302079,404.960297 918.925139,406.574864 917.134766,407.701172 C915.344392,408.82748 913.277355,409.390625 910.933594,409.390625 C908.798166,409.390625 906.871102,408.902349 905.152344,407.925781 L903.375,410.855469 L900.074219,410.855469 L902.90625,406.207031 C900.367175,403.667956 899.097656,400.061221 899.097656,395.386719 L899.097656,394.078125 C899.097656,391.304674 899.585933,388.863292 900.5625,386.753906 C901.539067,384.644521 902.925772,383.020188 904.722656,381.880859 C906.51954,380.741531 908.576811,380.171875 910.894531,380.171875 C913.459648,380.171875 915.673168,380.829421 917.535156,382.144531 L919.234375,379.351562 L922.496094,379.351562 L919.625,384.097656 C921.669281,386.61069 922.697917,389.930969 922.710938,394.058594 L922.710938,395.523438 Z M904.039062,395.523438 C904.039062,398.218763 904.501297,400.399731 905.425781,402.066406 L915.230469,385.933594 C914.097651,384.826817 912.652353,384.273438 910.894531,384.273438 C908.759104,384.273438 907.089199,385.110018 905.884766,386.783203 C904.680333,388.456389 904.065104,390.822901 904.039062,393.882812 L904.039062,395.523438 Z M917.769531,394.039062 C917.769531,391.877593 917.483076,390.054695 916.910156,388.570312 L907.359375,404.273438 C908.375005,404.976566 909.566399,405.328125 910.933594,405.328125 C913.134126,405.328125 914.823562,404.4948 916.001953,402.828125 C917.180344,401.16145 917.769531,398.726579 917.769531,395.523438 L917.769531,394.039062 Z M936.792969,394.039062 L943.335938,380.5625 L948.804688,380.5625 L939.273438,398.53125 L939.273438,409 L934.3125,409 L934.3125,398.53125 L924.761719,380.5625 L930.25,380.5625 L936.792969,394.039062 Z" id="ASLAK-HELLESØY" fill="#1B1D1E" sketch:type="MSShapeGroup"></path>
            <g id="Cucumber-logo" sketch:type="MSLayerGroup" transform="translate(90.000000, 90.000000)">
                <g id="g6053" sketch:type="MSShapeGroup">
                    <path d="M418.718234,69.6015101 C413.085253,69.6015101 409.517698,72.4328859 406.888974,76.7743289 C406.888974,75.6417785 407.452272,74.3204698 407.452272,73.3766779 L407.452272,71.489094 L398.063971,71.489094 L398.063971,118.678691 L407.452272,118.678691 L407.452272,91.4974832 C407.452272,83.7583893 411.583125,79.0394295 418.718234,79.0394295 L420.595894,79.0394295 L420.595894,69.6015101 L418.718234,69.6015101 L418.718234,69.6015101 Z" id="path5443" fill="#000000"></path>
                    <path d="M36.9899067,86.9672819 C34.3611824,82.8145973 30.6058619,79.9832215 25.1606472,79.9832215 C16.5234101,79.9832215 10.3271313,86.5897651 10.3271313,94.8951342 C10.3271313,103.200503 16.5234101,109.807047 25.1606472,109.807047 C30.6058619,109.807047 34.3611824,107.16443 36.9899067,103.011745 L45.6271438,108.108221 C41.4962913,114.526007 33.7978843,119.244966 25.1606472,119.244966 C9.20053518,119.244966 7.10542736e-15,107.16443 7.10542736e-15,95.0838926 C7.10542736e-15,83.0033557 9.3883012,70.9228188 25.1606472,70.9228188 C34.9244805,70.9228188 41.1207593,75.6417785 45.6271438,82.0595638 L36.9899067,86.9672819 L36.9899067,86.9672819 Z" id="path5445" fill="#000000"></path>
                    <path d="M53.8888489,72.0553691 L63.6526822,72.0553691 L63.6526822,97.7265101 C63.6526822,104.521812 68.5345988,109.240772 74.7308776,109.240772 C80.7393903,109.240772 85.809073,104.333054 85.809073,97.7265101 L85.809073,72.0553691 L95.5729062,72.0553691 L95.5729062,98.4815436 C95.5729062,111.317114 85.621307,119.056208 74.7308776,119.056208 C63.8404482,119.056208 53.8888489,111.317114 53.8888489,98.4815436 L53.8888489,72.0553691 L53.8888489,72.0553691 Z" id="path5447" fill="#000000"></path>
                    <path d="M141.387816,86.9672819 C138.759092,82.8145973 135.003771,79.9832215 129.558557,79.9832215 C120.921319,79.9832215 114.725041,86.5897651 114.725041,94.8951342 C114.725041,103.200503 120.921319,109.807047 129.558557,109.807047 C135.003771,109.807047 138.759092,107.16443 141.387816,103.011745 L150.025053,108.108221 C145.894201,114.526007 138.195794,119.244966 129.558557,119.244966 C113.598445,119.244966 104.397909,107.16443 104.397909,95.0838926 C104.397909,83.0033557 113.598445,70.9228188 129.558557,70.9228188 C139.32239,70.9228188 145.518669,75.6417785 150.025053,82.0595638 L141.387816,86.9672819 L141.387816,86.9672819 Z" id="path5449" fill="#000000"></path>
                    <path d="M158.286758,72.0553691 L168.050592,72.0553691 L168.050592,97.7265101 C168.050592,104.521812 172.932508,109.240772 179.128787,109.240772 C185.1373,109.240772 190.206982,104.333054 190.206982,97.7265101 L190.206982,72.0553691 L199.970816,72.0553691 L199.970816,98.4815436 C199.970816,111.317114 190.019216,119.056208 179.128787,119.056208 C168.238358,119.056208 158.286758,111.317114 158.286758,98.4815436 L158.286758,72.0553691 L158.286758,72.0553691 Z" id="path5451" fill="#000000"></path>
                    <path d="M212.175607,89.2323826 C212.175607,77.5293624 219.874014,70.9228188 228.886783,70.9228188 C235.834126,70.9228188 240.716043,74.3204698 242.593703,79.0394295 L242.781469,79.0394295 C244.659129,74.1317114 249.541046,70.9228188 256.488389,70.9228188 C265.501158,70.9228188 273.199565,77.7181208 273.199565,89.2323826 L273.199565,117.923658 L263.435732,117.923658 L263.435732,89.2323826 C263.435732,83.7583893 260.055943,80.5494966 255.925091,80.5494966 C251.23094,80.5494966 247.851152,83.3808725 247.851152,90.5536913 L247.851152,117.734899 L238.087319,117.734899 L238.087319,90.5536913 C238.087319,83.3808725 234.70753,80.5494966 230.013379,80.5494966 C225.882527,80.5494966 222.502739,83.7583893 222.502739,89.2323826 L222.502739,117.734899 L212.175607,117.734899 L212.175607,89.2323826 L212.175607,89.2323826 Z" id="path5453" fill="#000000"></path>
                    <path d="M285.216591,58.4647651 L294.980424,58.4647651 L294.980424,77.7181208 L295.16819,77.7181208 C297.421382,73.942953 303.617661,70.9228188 310.001706,70.9228188 C321.830965,70.9228188 333.660225,79.7944631 333.660225,95.0838926 C333.660225,110.373322 321.830965,119.244966 310.001706,119.244966 C303.617661,119.244966 297.421382,116.224832 295.16819,112.449664 L294.980424,112.449664 L294.980424,118.112416 L285.216591,118.112416 L285.216591,58.4647651 L285.216591,58.4647651 Z M309.062876,80.1719799 C300.988937,80.1719799 294.980424,86.5897651 294.980424,95.0838926 C294.980424,103.57802 300.988937,109.995805 309.062876,109.995805 C317.324581,109.995805 323.333093,103.57802 323.333093,95.0838926 C323.333093,86.4010067 317.324581,80.1719799 309.062876,80.1719799 L309.062876,80.1719799 Z" id="path5455" fill="#000000"></path>
                    <path d="M386.234711,107.919463 C380.789497,114.903523 373.278856,119.056208 365.017151,119.056208 C349.057039,119.056208 339.856504,106.975671 339.856504,94.8951342 C339.856504,82.8145973 349.244805,70.9228188 365.017151,70.9228188 C374.405452,70.9228188 388.67567,78.8506711 388.67567,96.5939597 L388.67567,98.2927852 L350.934699,98.2927852 C351.497997,105.276846 358.069808,110.373322 364.829385,110.373322 C370.086833,110.373322 374.593218,107.730705 377.973006,103.200503 L386.234711,107.919463 L386.234711,107.919463 Z M377.221942,90.1761745 C375.156516,83.1921141 370.086833,79.4169463 363.702789,79.4169463 C357.50651,79.4169463 352.436827,83.3808725 350.746933,90.1761745 L377.221942,90.1761745 L377.221942,90.1761745 Z" id="path5457" fill="#000000"></path>
                    <path d="M447.243798,0.741736158 C430.249972,0.741736158 416.497112,14.5672813 416.497112,31.6509224 C416.497112,46.6920176 427.222399,59.1896539 441.37611,61.9702387 L441.37611,70.8182882 C459.777357,68.0293792 476.070549,53.3451714 477.286362,34.0693893 C478.01818,22.466983 472.263705,10.6223286 462.558465,4.87082592 C462.002799,4.5415288 461.438245,4.21462173 460.856835,3.92703398 C460.264403,3.63399451 459.656051,3.34839211 459.037852,3.10121602 C458.841617,3.01869425 458.649337,2.94383381 458.451083,2.86526804 C457.911148,2.66489818 457.366334,2.4392664 456.80813,2.27539807 C453.799504,1.27851613 450.58333,0.741736158 447.243798,0.741736158 L447.243798,0.741736158 Z" id="path3943" fill="#00A818"></path>
                    <path d="M453.580902,12.1852135 C452.529119,12.0768247 451.421592,12.4447563 450.647057,13.3649534 C450.083759,14.119987 449.731698,14.8514258 449.356166,15.6064593 C448.22957,18.2490768 448.605102,21.0804526 450.294996,23.1567949 C452.92372,22.5905197 455.153442,20.9034916 456.280038,18.2608742 C456.65557,17.5058406 456.866807,16.5384539 456.866807,15.7834203 C456.984161,13.7778624 455.333874,12.3658611 453.580902,12.1852135 L453.580902,12.1852135 Z M439.909188,12.3621745 C438.194723,12.5262322 436.564606,13.8958364 436.564606,15.7834203 C436.564606,16.5384539 436.775842,17.5058406 437.151374,18.2608742 C438.277971,20.9034916 440.683723,22.5905197 443.312447,23.1567949 C444.814575,21.0804526 445.201843,18.2490768 444.075247,15.6064593 C443.699715,14.8514258 443.347653,14.1081896 442.784355,13.5419144 C442.00982,12.6217173 440.937868,12.26374 439.909188,12.3621745 L439.909188,12.3621745 Z M430.696917,21.446172 C427.736027,21.5989341 426.413505,25.3393138 428.877934,27.2858846 C429.628998,27.8521598 430.356591,28.2650688 431.107656,28.6425856 C433.73638,29.7751359 436.775842,29.3858217 439.029035,27.8757546 C438.465737,25.4218956 436.55287,23.1685923 433.924146,22.0360419 C432.985316,21.6585252 432.222516,21.446172 431.283686,21.446172 C431.072449,21.4225772 430.89431,21.435979 430.696917,21.446172 L430.696917,21.446172 Z M459.62462,32.8896493 C457.904654,32.8564656 456.162684,33.3615453 454.754439,34.3053372 C455.317737,36.7591963 457.230604,39.0124996 459.859328,40.1450499 C460.798158,40.5225667 461.560958,40.7349199 462.499788,40.7349199 C465.879576,40.9236783 467.534264,36.7238041 464.90554,34.8362202 C464.154476,34.2699451 463.426882,33.9160231 462.675818,33.5385063 C461.690047,33.1137999 460.656599,32.9095577 459.62462,32.8896493 L459.62462,32.8896493 Z M433.982823,33.0666103 C432.950843,33.0865243 431.917397,33.2907609 430.931625,33.7154673 C429.992795,34.0929841 429.265201,34.505893 428.701903,35.0721682 C426.260945,37.1485105 427.903898,41.1006393 431.283686,40.9118809 C432.222516,40.9118809 433.173082,40.6995277 433.924146,40.3220109 C436.55287,39.1894606 438.418795,36.9361573 438.794327,34.4822982 C437.386082,33.5385063 435.70279,33.0334304 433.982823,33.0666103 L433.982823,33.0666103 Z M443.488478,38.847336 C440.859753,39.4136112 438.630032,41.1006393 437.503436,43.7432567 C437.127904,44.4982903 436.916667,45.40669 436.916667,46.1617236 C436.728901,49.3706162 441.082726,51.0930365 442.960386,48.6391774 C443.523684,47.8841439 443.875745,47.1527051 444.251277,46.3976716 C445.377873,43.9438125 444.990606,41.1124367 443.488478,38.847336 L443.488478,38.847336 Z M450.471027,39.024297 C448.968899,41.1006393 448.581631,43.9320151 449.708227,46.5746326 C450.083759,47.3296661 450.435821,48.0729023 450.999119,48.6391774 C453.064545,50.9042781 457.406634,49.2290474 457.218868,46.3976716 C457.218868,45.642638 457.007631,44.6752513 456.632099,43.9202177 C455.505503,41.2776003 453.099751,39.5905721 450.471027,39.024297 L450.471027,39.024297 Z" id="rect4005" fill="#FFFFFF"></path>
                </g>
            </g>
            <path d="M122.257812,533.980469 C122.192708,535.894541 121.841149,537.668612 121.203125,539.302734 C120.565101,540.936857 119.682948,542.193355 118.556641,543.072266 C117.430333,543.951176 116.125007,544.390625 114.640625,544.390625 C113.377598,544.390625 112.348962,544.058597 111.554688,543.394531 C110.760413,542.730465 110.233074,541.799485 109.972656,540.601562 C108.566399,543.127617 106.626314,544.390625 104.152344,544.390625 C102.329418,544.390625 100.968754,543.602872 100.070312,542.027344 C99.1718705,540.451815 98.8398426,538.32944 99.0742188,535.660156 C99.2695322,533.53775 99.7545534,531.646493 100.529297,529.986328 C101.30404,528.326164 102.313145,527.030604 103.556641,526.099609 C104.800136,525.168615 106.131503,524.703125 107.550781,524.703125 C108.55339,524.703125 109.432288,524.843098 110.1875,525.123047 C110.942712,525.402996 111.82161,525.966142 112.824219,526.8125 L111.828125,537.945312 C111.697916,539.455737 111.889971,540.6276 112.404297,541.460938 C112.918622,542.294275 113.742182,542.710938 114.875,542.710938 C116.476571,542.710938 117.775386,541.92644 118.771484,540.357422 C119.767583,538.788404 120.324218,536.662774 120.441406,533.980469 C120.688803,528.707005 119.686209,524.738946 117.433594,522.076172 C115.180978,519.413398 111.769554,518.082031 107.199219,518.082031 C104.451809,518.082031 101.97462,518.768873 99.7675781,520.142578 C97.5605358,521.516283 95.8190168,523.459623 94.5429688,525.972656 C93.2669207,528.48569 92.550782,531.382796 92.3945312,534.664062 C92.2382805,537.945329 92.6712188,540.83267 93.6933594,543.326172 C94.7154999,545.819674 96.2584532,547.736972 98.3222656,549.078125 C100.386078,550.419278 102.843736,551.089844 105.695312,551.089844 C106.893235,551.089844 108.071609,550.946616 109.230469,550.660156 C110.389329,550.373696 111.359371,550.002606 112.140625,549.546875 L112.746094,551.109375 C112.003903,551.604169 110.968757,552.017576 109.640625,552.349609 C108.312493,552.681642 106.971361,552.847656 105.617188,552.847656 C102.361963,552.847656 99.5625117,552.115242 97.21875,550.650391 C94.8749883,549.18554 93.1204485,547.076186 91.9550781,544.322266 C90.7897077,541.568346 90.2851555,538.348977 90.4414062,534.664062 C90.597657,531.044253 91.3951751,527.837905 92.8339844,525.044922 C94.2727937,522.251939 96.242175,520.090502 98.7421875,518.560547 C101.2422,517.030591 104.087224,516.265625 107.277344,516.265625 C110.597673,516.265625 113.410145,516.958977 115.714844,518.345703 C118.019543,519.732429 119.725255,521.760403 120.832031,524.429688 C121.938808,527.098972 122.414063,530.282534 122.257812,533.980469 L122.257812,533.980469 Z M101.144531,538.414062 C101.287761,539.716152 101.652341,540.722002 102.238281,541.431641 C102.824222,542.14128 103.598954,542.496094 104.5625,542.496094 C106.971366,542.496094 108.748692,540.835954 109.894531,537.515625 L110.773438,527.4375 C109.901037,526.799476 108.872402,526.480469 107.6875,526.480469 C106.24218,526.480469 104.988938,527.056635 103.927734,528.208984 C102.866531,529.361334 102.088544,530.94986 101.59375,532.974609 C101.098956,534.999359 100.949218,536.812492 101.144531,538.414062 L101.144531,538.414062 Z M140.910156,544 C140.67578,543.335934 140.526042,542.352871 140.460938,541.050781 C139.640621,542.118495 138.595709,542.942054 137.326172,543.521484 C136.056634,544.100914 134.712247,544.390625 133.292969,544.390625 C131.261709,544.390625 129.617845,543.824224 128.361328,542.691406 C127.104811,541.558588 126.476562,540.126311 126.476562,538.394531 C126.476562,536.337229 127.332674,534.709641 129.044922,533.511719 C130.75717,532.313796 133.143214,531.714844 136.203125,531.714844 L140.441406,531.714844 L140.441406,529.3125 C140.441406,527.802076 139.975916,526.613937 139.044922,525.748047 C138.113928,524.882157 136.756519,524.449219 134.972656,524.449219 C133.345044,524.449219 131.997401,524.865881 130.929688,525.699219 C129.861974,526.532556 129.328125,527.53515 129.328125,528.707031 L126.984375,528.6875 C126.984375,527.007804 127.765617,525.552741 129.328125,524.322266 C130.890633,523.091791 132.811187,522.476562 135.089844,522.476562 C137.446626,522.476562 139.305332,523.065749 140.666016,524.244141 C142.0267,525.422532 142.726562,527.066396 142.765625,529.175781 L142.765625,539.175781 C142.765625,541.220062 142.980467,542.749995 143.410156,543.765625 L143.410156,544 L140.910156,544 Z M133.566406,542.320312 C135.128914,542.320312 136.525384,541.942712 137.755859,541.1875 C138.986334,540.432288 139.881508,539.423183 140.441406,538.160156 L140.441406,533.511719 L136.261719,533.511719 C133.930978,533.537761 132.108079,533.964189 130.792969,534.791016 C129.477858,535.617843 128.820312,536.753899 128.820312,538.199219 C128.820312,539.384121 129.259761,540.367184 130.138672,541.148438 C131.017583,541.929691 132.160149,542.320312 133.566406,542.320312 L133.566406,542.320312 Z M161.652344,538.628906 C161.652344,537.470046 161.186854,536.539066 160.255859,535.835938 C159.324865,535.132809 157.921884,534.582684 156.046875,534.185547 C154.171866,533.788409 152.716802,533.332685 151.681641,532.818359 C150.646479,532.304034 149.878258,531.675785 149.376953,530.933594 C148.875649,530.191403 148.625,529.292974 148.625,528.238281 C148.625,526.571606 149.321608,525.194667 150.714844,524.107422 C152.10808,523.020177 153.891916,522.476562 156.066406,522.476562 C158.423189,522.476562 160.314446,523.059239 161.740234,524.224609 C163.166023,525.38998 163.878906,526.910147 163.878906,528.785156 L161.535156,528.785156 C161.535156,527.548171 161.017583,526.519535 159.982422,525.699219 C158.94726,524.878902 157.641935,524.46875 156.066406,524.46875 C154.52994,524.46875 153.296229,524.810543 152.365234,525.494141 C151.43424,526.177738 150.96875,527.066401 150.96875,528.160156 C150.96875,529.214849 151.356116,530.031898 152.130859,530.611328 C152.905603,531.190758 154.318349,531.721352 156.369141,532.203125 C158.419932,532.684898 159.956375,533.199216 160.978516,533.746094 C162.000656,534.292971 162.759112,534.950517 163.253906,535.71875 C163.7487,536.486983 163.996094,537.417963 163.996094,538.511719 C163.996094,540.295582 163.2767,541.721349 161.837891,542.789062 C160.399081,543.856776 158.520845,544.390625 156.203125,544.390625 C153.742175,544.390625 151.746752,543.794928 150.216797,542.603516 C148.686841,541.412103 147.921875,539.904957 147.921875,538.082031 L150.265625,538.082031 C150.356771,539.449226 150.932937,540.513668 151.994141,541.275391 C153.055344,542.037113 154.458325,542.417969 156.203125,542.417969 C157.830737,542.417969 159.145828,542.059899 160.148438,541.34375 C161.151047,540.627601 161.652344,539.722662 161.652344,538.628906 L161.652344,538.628906 Z M171.867188,544 L169.523438,544 L169.523438,514 L171.867188,514 L171.867188,544 Z M191.554688,544 C191.320311,543.335934 191.170573,542.352871 191.105469,541.050781 C190.285152,542.118495 189.240241,542.942054 187.970703,543.521484 C186.701166,544.100914 185.356778,544.390625 183.9375,544.390625 C181.90624,544.390625 180.262376,543.824224 179.005859,542.691406 C177.749343,541.558588 177.121094,540.126311 177.121094,538.394531 C177.121094,536.337229 177.977205,534.709641 179.689453,533.511719 C181.401701,532.313796 183.787745,531.714844 186.847656,531.714844 L191.085938,531.714844 L191.085938,529.3125 C191.085938,527.802076 190.620447,526.613937 189.689453,525.748047 C188.758459,524.882157 187.401051,524.449219 185.617188,524.449219 C183.989575,524.449219 182.641932,524.865881 181.574219,525.699219 C180.506505,526.532556 179.972656,527.53515 179.972656,528.707031 L177.628906,528.6875 C177.628906,527.007804 178.410148,525.552741 179.972656,524.322266 C181.535164,523.091791 183.455718,522.476562 185.734375,522.476562 C188.091158,522.476562 189.949863,523.065749 191.310547,524.244141 C192.671231,525.422532 193.371094,527.066396 193.410156,529.175781 L193.410156,539.175781 C193.410156,541.220062 193.624998,542.749995 194.054688,543.765625 L194.054688,544 L191.554688,544 Z M184.210938,542.320312 C185.773445,542.320312 187.169916,541.942712 188.400391,541.1875 C189.630866,540.432288 190.526039,539.423183 191.085938,538.160156 L191.085938,533.511719 L186.90625,533.511719 C184.575509,533.537761 182.752611,533.964189 181.4375,534.791016 C180.122389,535.617843 179.464844,536.753899 179.464844,538.199219 C179.464844,539.384121 179.904292,540.367184 180.783203,541.148438 C181.662114,541.929691 182.80468,542.320312 184.210938,542.320312 L184.210938,542.320312 Z M204.660156,533.355469 L201.984375,535.933594 L201.984375,544 L199.640625,544 L199.640625,514 L201.984375,514 L201.984375,533.199219 L204.191406,530.816406 L212.277344,522.867188 L215.226562,522.867188 L206.261719,531.773438 L216.007812,544 L213.214844,544 L204.660156,533.355469 Z M233.410156,545.972656 L216.203125,545.972656 L216.203125,544 L233.410156,544 L233.410156,545.972656 Z M238.820312,526.441406 C239.588546,525.178379 240.571609,524.201826 241.769531,523.511719 C242.967454,522.821611 244.276035,522.476562 245.695312,522.476562 C247.960949,522.476562 249.64713,523.114577 250.753906,524.390625 C251.860683,525.666673 252.420573,527.580716 252.433594,530.132812 L252.433594,544 L250.109375,544 L250.109375,530.113281 C250.096354,528.225251 249.695967,526.819015 248.908203,525.894531 C248.120439,524.970047 246.860686,524.507812 245.128906,524.507812 C243.683587,524.507812 242.404302,524.960282 241.291016,525.865234 C240.177729,526.770187 239.354169,527.990878 238.820312,529.527344 L238.820312,544 L236.496094,544 L236.496094,514 L238.820312,514 L238.820312,526.441406 Z M266.632812,544.390625 C264.835929,544.390625 263.211596,543.947921 261.759766,543.0625 C260.307935,542.177079 259.178389,540.943367 258.371094,539.361328 C257.563798,537.779289 257.160156,536.005218 257.160156,534.039062 L257.160156,533.199219 C257.160156,531.167959 257.554033,529.33855 258.341797,527.710938 C259.129561,526.083325 260.226555,524.804041 261.632812,523.873047 C263.03907,522.942053 264.562492,522.476562 266.203125,522.476562 C268.768242,522.476562 270.802727,523.352205 272.306641,525.103516 C273.810554,526.854826 274.5625,529.247381 274.5625,532.28125 L274.5625,533.589844 L259.484375,533.589844 L259.484375,534.039062 C259.484375,536.434908 260.171217,538.430331 261.544922,540.025391 C262.918627,541.620451 264.647125,542.417969 266.730469,542.417969 C267.980475,542.417969 269.08398,542.190106 270.041016,541.734375 C270.998052,541.278644 271.867184,540.549484 272.648438,539.546875 L274.113281,540.660156 C272.394523,543.147148 269.901058,544.390625 266.632812,544.390625 L266.632812,544.390625 Z M266.203125,524.46875 C264.445304,524.46875 262.964199,525.113275 261.759766,526.402344 C260.555333,527.691413 259.822918,529.423166 259.5625,531.597656 L272.238281,531.597656 L272.238281,531.34375 C272.173177,529.31249 271.593755,527.658861 270.5,526.382812 C269.406245,525.106764 267.973967,524.46875 266.203125,524.46875 L266.203125,524.46875 Z M281.730469,544 L279.386719,544 L279.386719,514 L281.730469,514 L281.730469,544 Z M290.695312,544 L288.351562,544 L288.351562,514 L290.695312,514 L290.695312,544 Z M305.226562,544.390625 C303.429679,544.390625 301.805346,543.947921 300.353516,543.0625 C298.901685,542.177079 297.772139,540.943367 296.964844,539.361328 C296.157548,537.779289 295.753906,536.005218 295.753906,534.039062 L295.753906,533.199219 C295.753906,531.167959 296.147783,529.33855 296.935547,527.710938 C297.723311,526.083325 298.820305,524.804041 300.226562,523.873047 C301.63282,522.942053 303.156242,522.476562 304.796875,522.476562 C307.361992,522.476562 309.396477,523.352205 310.900391,525.103516 C312.404304,526.854826 313.15625,529.247381 313.15625,532.28125 L313.15625,533.589844 L298.078125,533.589844 L298.078125,534.039062 C298.078125,536.434908 298.764967,538.430331 300.138672,540.025391 C301.512377,541.620451 303.240875,542.417969 305.324219,542.417969 C306.574225,542.417969 307.67773,542.190106 308.634766,541.734375 C309.591802,541.278644 310.460934,540.549484 311.242188,539.546875 L312.707031,540.660156 C310.988273,543.147148 308.494808,544.390625 305.226562,544.390625 L305.226562,544.390625 Z M304.796875,524.46875 C303.039054,524.46875 301.557949,525.113275 300.353516,526.402344 C299.149083,527.691413 298.416668,529.423166 298.15625,531.597656 L310.832031,531.597656 L310.832031,531.34375 C310.766927,529.31249 310.187505,527.658861 309.09375,526.382812 C307.999995,525.106764 306.567717,524.46875 304.796875,524.46875 L304.796875,524.46875 Z M330.363281,538.628906 C330.363281,537.470046 329.897791,536.539066 328.966797,535.835938 C328.035803,535.132809 326.632822,534.582684 324.757812,534.185547 C322.882803,533.788409 321.42774,533.332685 320.392578,532.818359 C319.357417,532.304034 318.589195,531.675785 318.087891,530.933594 C317.586586,530.191403 317.335938,529.292974 317.335938,528.238281 C317.335938,526.571606 318.032545,525.194667 319.425781,524.107422 C320.819017,523.020177 322.602854,522.476562 324.777344,522.476562 C327.134126,522.476562 329.025383,523.059239 330.451172,524.224609 C331.87696,525.38998 332.589844,526.910147 332.589844,528.785156 L330.246094,528.785156 C330.246094,527.548171 329.728521,526.519535 328.693359,525.699219 C327.658198,524.878902 326.352872,524.46875 324.777344,524.46875 C323.240878,524.46875 322.007166,524.810543 321.076172,525.494141 C320.145178,526.177738 319.679688,527.066401 319.679688,528.160156 C319.679688,529.214849 320.067053,530.031898 320.841797,530.611328 C321.61654,531.190758 323.029287,531.721352 325.080078,532.203125 C327.13087,532.684898 328.667313,533.199216 329.689453,533.746094 C330.711594,534.292971 331.47005,534.950517 331.964844,535.71875 C332.459638,536.486983 332.707031,537.417963 332.707031,538.511719 C332.707031,540.295582 331.987637,541.721349 330.548828,542.789062 C329.110019,543.856776 327.231782,544.390625 324.914062,544.390625 C322.453113,544.390625 320.45769,543.794928 318.927734,542.603516 C317.397779,541.412103 316.632812,539.904957 316.632812,538.082031 L318.976562,538.082031 C319.067709,539.449226 319.643875,540.513668 320.705078,541.275391 C321.766281,542.037113 323.169262,542.417969 324.914062,542.417969 C326.541675,542.417969 327.856766,542.059899 328.859375,541.34375 C329.861984,540.627601 330.363281,539.722662 330.363281,538.628906 L330.363281,538.628906 Z M336.671875,533.121094 C336.671875,531.089834 337.065751,529.260425 337.853516,527.632812 C338.64128,526.0052 339.75455,524.738937 341.193359,523.833984 C342.632169,522.929032 344.263012,522.476562 346.085938,522.476562 C348.898452,522.476562 351.177075,523.462881 352.921875,525.435547 C354.666675,527.408213 355.539062,530.022119 355.539062,533.277344 L355.539062,533.765625 C355.539062,535.809906 355.145186,537.64908 354.357422,539.283203 C353.569658,540.917326 352.459643,542.177079 351.027344,543.0625 C349.595045,543.947921 347.960947,544.390625 346.125,544.390625 C343.325507,544.390625 341.050139,543.404307 339.298828,541.431641 C337.547517,539.458975 336.671875,536.845068 336.671875,533.589844 L336.671875,533.121094 Z M339.015625,533.765625 C339.015625,536.291679 339.669915,538.365226 340.978516,539.986328 C342.287116,541.60743 344.002594,542.417969 346.125,542.417969 C348.234386,542.417969 349.943353,541.60743 351.251953,539.986328 C352.560553,538.365226 353.214844,536.226576 353.214844,533.570312 L353.214844,533.121094 C353.214844,531.506502 352.915368,530.028653 352.316406,528.6875 C351.717445,527.346347 350.87761,526.307946 349.796875,525.572266 C348.71614,524.836585 347.479174,524.46875 346.085938,524.46875 C344.002594,524.46875 342.303392,525.285799 340.988281,526.919922 C339.673171,528.554045 339.015625,530.692695 339.015625,533.335938 L339.015625,533.765625 Z M366.769531,540.640625 L372.941406,522.867188 L375.460938,522.867188 L366.4375,547.59375 L365.96875,548.6875 C364.80989,551.252617 363.019543,552.535156 360.597656,552.535156 C360.037758,552.535156 359.438805,552.444011 358.800781,552.261719 L358.78125,550.328125 L359.992188,550.445312 C361.138027,550.445312 362.065752,550.162112 362.775391,549.595703 C363.48503,549.029294 364.087237,548.055996 364.582031,546.675781 L365.617188,543.824219 L357.648438,522.867188 L360.207031,522.867188 L366.769531,540.640625 Z M99.1132812,594.601562 C100.298183,594.601562 101.281246,594.256514 102.0625,593.566406 C102.843754,592.876299 103.260416,592.023443 103.3125,591.007812 L107.785156,591.007812 C107.733073,592.322923 107.322921,593.550125 106.554688,594.689453 C105.786454,595.828782 104.744798,596.730465 103.429688,597.394531 C102.114577,598.058597 100.69532,598.390625 99.171875,598.390625 C96.2161311,598.390625 93.8724045,597.433603 92.140625,595.519531 C90.4088455,593.605459 89.5429688,590.962256 89.5429688,587.589844 L89.5429688,587.101562 C89.5429688,583.885401 90.4023352,581.310557 92.1210938,579.376953 C93.8398523,577.44335 96.1835789,576.476562 99.1523438,576.476562 C101.665377,576.476562 103.712883,577.208977 105.294922,578.673828 C106.876961,580.138679 107.707031,582.062488 107.785156,584.445312 L103.3125,584.445312 C103.260416,583.234369 102.847009,582.238285 102.072266,581.457031 C101.297522,580.675777 100.311204,580.285156 99.1132812,580.285156 C97.5768152,580.285156 96.3919312,580.841791 95.5585938,581.955078 C94.7252563,583.068365 94.3020834,584.757801 94.2890625,587.023438 L94.2890625,587.785156 C94.2890625,590.076834 94.7024698,591.785802 95.5292969,592.912109 C96.3561239,594.038417 97.5507734,594.601562 99.1132812,594.601562 L99.1132812,594.601562 Z M124.171875,595.929688 C122.778639,597.570321 120.799492,598.390625 118.234375,598.390625 C115.942697,598.390625 114.207688,597.720059 113.029297,596.378906 C111.850906,595.037754 111.261719,593.097669 111.261719,590.558594 L111.261719,576.867188 L116.007812,576.867188 L116.007812,590.5 C116.007812,593.182305 117.121083,594.523438 119.347656,594.523438 C121.652355,594.523438 123.208329,593.696623 124.015625,592.042969 L124.015625,576.867188 L128.761719,576.867188 L128.761719,598 L124.289062,598 L124.171875,595.929688 Z M142.277344,594.601562 C143.462246,594.601562 144.445309,594.256514 145.226562,593.566406 C146.007816,592.876299 146.424479,592.023443 146.476562,591.007812 L150.949219,591.007812 C150.897135,592.322923 150.486983,593.550125 149.71875,594.689453 C148.950517,595.828782 147.908861,596.730465 146.59375,597.394531 C145.278639,598.058597 143.859383,598.390625 142.335938,598.390625 C139.380194,598.390625 137.036467,597.433603 135.304688,595.519531 C133.572908,593.605459 132.707031,590.962256 132.707031,587.589844 L132.707031,587.101562 C132.707031,583.885401 133.566398,581.310557 135.285156,579.376953 C137.003915,577.44335 139.347641,576.476562 142.316406,576.476562 C144.82944,576.476562 146.876945,577.208977 148.458984,578.673828 C150.041024,580.138679 150.871093,582.062488 150.949219,584.445312 L146.476562,584.445312 C146.424479,583.234369 146.011072,582.238285 145.236328,581.457031 C144.461585,580.675777 143.475266,580.285156 142.277344,580.285156 C140.740878,580.285156 139.555994,580.841791 138.722656,581.955078 C137.889319,583.068365 137.466146,584.757801 137.453125,587.023438 L137.453125,587.785156 C137.453125,590.076834 137.866532,591.785802 138.693359,592.912109 C139.520186,594.038417 140.714836,594.601562 142.277344,594.601562 L142.277344,594.601562 Z M167.335938,595.929688 C165.942701,597.570321 163.963554,598.390625 161.398438,598.390625 C159.106759,598.390625 157.371751,597.720059 156.193359,596.378906 C155.014968,595.037754 154.425781,593.097669 154.425781,590.558594 L154.425781,576.867188 L159.171875,576.867188 L159.171875,590.5 C159.171875,593.182305 160.285145,594.523438 162.511719,594.523438 C164.816418,594.523438 166.372392,593.696623 167.179688,592.042969 L167.179688,576.867188 L171.925781,576.867188 L171.925781,598 L167.453125,598 L167.335938,595.929688 Z M181.222656,576.867188 L181.359375,579.074219 C182.843757,577.342439 184.874987,576.476562 187.453125,576.476562 C190.27866,576.476562 192.212234,577.557281 193.253906,579.71875 C194.790372,577.557281 196.951809,576.476562 199.738281,576.476562 C202.069022,576.476562 203.804031,577.121087 204.943359,578.410156 C206.082688,579.699225 206.665364,581.600248 206.691406,584.113281 L206.691406,598 L201.945312,598 L201.945312,584.25 C201.945312,582.908847 201.652347,581.925784 201.066406,581.300781 C200.480466,580.675778 199.510423,580.363281 198.15625,580.363281 C197.075515,580.363281 196.193363,580.652992 195.509766,581.232422 C194.826168,581.811852 194.347658,582.570308 194.074219,583.507812 L194.09375,598 L189.347656,598 L189.347656,584.09375 C189.282552,581.606758 188.013033,580.363281 185.539062,580.363281 C183.638011,580.363281 182.290369,581.138013 181.496094,582.6875 L181.496094,598 L176.75,598 L176.75,576.867188 L181.222656,576.867188 Z M230.109375,587.648438 C230.109375,590.929704 229.37696,593.540355 227.912109,595.480469 C226.447258,597.420583 224.432304,598.390625 221.867188,598.390625 C219.393217,598.390625 217.466153,597.498707 216.085938,595.714844 L215.851562,598 L211.554688,598 L211.554688,568 L216.300781,568 L216.300781,578.898438 C217.667976,577.283846 219.510405,576.476562 221.828125,576.476562 C224.406263,576.476562 226.430982,577.433584 227.902344,579.347656 C229.373705,581.261728 230.109375,583.937483 230.109375,587.375 L230.109375,587.648438 Z M225.363281,587.238281 C225.363281,584.946603 224.959639,583.22787 224.152344,582.082031 C223.345048,580.936192 222.173185,580.363281 220.636719,580.363281 C218.579417,580.363281 217.134119,581.26171 216.300781,583.058594 L216.300781,591.769531 C217.14714,593.605478 218.605458,594.523438 220.675781,594.523438 C222.160164,594.523438 223.305986,593.970058 224.113281,592.863281 C224.920577,591.756505 225.337239,590.083345 225.363281,587.84375 L225.363281,587.238281 Z M243.390625,598.390625 C240.382797,598.390625 237.944671,597.443369 236.076172,595.548828 C234.207673,593.654287 233.273438,591.131526 233.273438,587.980469 L233.273438,587.394531 C233.273438,585.285146 233.680334,583.400399 234.494141,581.740234 C235.307947,580.08007 236.450513,578.787765 237.921875,577.863281 C239.393237,576.938797 241.033845,576.476562 242.84375,576.476562 C245.721369,576.476562 247.944654,577.394522 249.513672,579.230469 C251.08269,581.066415 251.867188,583.664046 251.867188,587.023438 L251.867188,588.9375 L238.058594,588.9375 C238.201824,590.6823 238.7845,592.062495 239.806641,593.078125 C240.828781,594.093755 242.114576,594.601562 243.664062,594.601562 C245.838553,594.601562 247.609368,593.722665 248.976562,591.964844 L251.535156,594.40625 C250.688798,595.669277 249.559252,596.649085 248.146484,597.345703 C246.733717,598.042321 245.148446,598.390625 243.390625,598.390625 L243.390625,598.390625 Z M242.824219,580.285156 C241.522129,580.285156 240.470707,580.740881 239.669922,581.652344 C238.869137,582.563807 238.358074,583.833325 238.136719,585.460938 L247.179688,585.460938 L247.179688,585.109375 C247.07552,583.520825 246.652347,582.319666 245.910156,581.505859 C245.167965,580.692053 244.139329,580.285156 242.824219,580.285156 L242.824219,580.285156 Z M266.613281,581.203125 C265.988278,581.098958 265.343753,581.046875 264.679688,581.046875 C262.505197,581.046875 261.040368,581.8802 260.285156,583.546875 L260.285156,598 L255.539062,598 L255.539062,576.867188 L260.070312,576.867188 L260.1875,579.230469 C261.333339,577.394522 262.921865,576.476562 264.953125,576.476562 C265.630212,576.476562 266.190102,576.567707 266.632812,576.75 L266.613281,581.203125 Z M269.191406,593 C270.076827,593 270.760414,593.250649 271.242188,593.751953 C271.723961,594.253258 271.964844,594.881507 271.964844,595.636719 C271.964844,596.37891 271.723961,596.994138 271.242188,597.482422 C270.760414,597.970706 270.076827,598.214844 269.191406,598.214844 C268.345048,598.214844 267.674482,597.973961 267.179688,597.492188 C266.684893,597.010414 266.4375,596.391931 266.4375,595.636719 C266.4375,594.881507 266.678383,594.253258 267.160156,593.751953 C267.641929,593.250649 268.319006,593 269.191406,593 L269.191406,593 Z M282.453125,598 L277.707031,598 L277.707031,576.867188 L282.453125,576.867188 L282.453125,598 Z M277.414062,571.378906 C277.414062,570.649736 277.64518,570.044273 278.107422,569.5625 C278.569664,569.080727 279.230464,568.839844 280.089844,568.839844 C280.949223,568.839844 281.613279,569.080727 282.082031,569.5625 C282.550784,570.044273 282.785156,570.649736 282.785156,571.378906 C282.785156,572.095056 282.550784,572.690753 282.082031,573.166016 C281.613279,573.641278 280.949223,573.878906 280.089844,573.878906 C279.230464,573.878906 278.569664,573.641278 278.107422,573.166016 C277.64518,572.690753 277.414062,572.095056 277.414062,571.378906 L277.414062,571.378906 Z M286.730469,587.238281 C286.730469,585.167958 287.140621,583.302743 287.960938,581.642578 C288.781254,579.982414 289.933586,578.706385 291.417969,577.814453 C292.902351,576.922522 294.608063,576.476562 296.535156,576.476562 C299.386733,576.476562 301.701163,577.394522 303.478516,579.230469 C305.255868,581.066415 306.216145,583.501287 306.359375,586.535156 L306.378906,587.648438 C306.378906,589.731781 305.97852,591.593742 305.177734,593.234375 C304.376949,594.875008 303.231127,596.144527 301.740234,597.042969 C300.249342,597.941411 298.527354,598.390625 296.574219,598.390625 C293.592433,598.390625 291.206389,597.397796 289.416016,595.412109 C287.625642,593.426422 286.730469,590.779964 286.730469,587.472656 L286.730469,587.238281 Z M291.476562,587.648438 C291.476562,589.822928 291.925777,591.525384 292.824219,592.755859 C293.722661,593.986334 294.972648,594.601562 296.574219,594.601562 C298.175789,594.601562 299.422522,593.976569 300.314453,592.726562 C301.206385,591.476556 301.652344,589.647147 301.652344,587.238281 C301.652344,585.102854 301.193364,583.410162 300.275391,582.160156 C299.357417,580.91015 298.110685,580.285156 296.535156,580.285156 C294.985669,580.285156 293.755213,580.900384 292.84375,582.130859 C291.932287,583.361334 291.476562,585.200509 291.476562,587.648438 L291.476562,587.648438 Z M311.730469,600.441406 L308,600.441406 L319.191406,569.5625 L322.921875,569.5625 L311.730469,600.441406 Z M338.839844,598 C338.631509,597.596352 338.44922,596.938807 338.292969,596.027344 C336.782545,597.602872 334.933605,598.390625 332.746094,598.390625 C330.623687,598.390625 328.891934,597.785162 327.550781,596.574219 C326.209629,595.363275 325.539062,593.865894 325.539062,592.082031 C325.539062,589.829416 326.375643,588.100917 328.048828,586.896484 C329.722014,585.692051 332.114568,585.089844 335.226562,585.089844 L338.136719,585.089844 L338.136719,583.703125 C338.136719,582.60937 337.830732,581.733727 337.21875,581.076172 C336.606768,580.418617 335.675788,580.089844 334.425781,580.089844 C333.345047,580.089844 332.459639,580.360023 331.769531,580.900391 C331.079424,581.440758 330.734375,582.1276 330.734375,582.960938 L325.988281,582.960938 C325.988281,581.802078 326.372392,580.718104 327.140625,579.708984 C327.908858,578.699865 328.953769,577.908857 330.275391,577.335938 C331.597012,576.763018 333.071606,576.476562 334.699219,576.476562 C337.173189,576.476562 339.145826,577.098301 340.617188,578.341797 C342.088549,579.585293 342.84375,581.333322 342.882812,583.585938 L342.882812,593.117188 C342.882812,595.018239 343.149737,596.535151 343.683594,597.667969 L343.683594,598 L338.839844,598 Z M333.625,594.582031 C334.562505,594.582031 335.444657,594.354169 336.271484,593.898438 C337.098311,593.442706 337.72005,592.830733 338.136719,592.0625 L338.136719,588.078125 L335.578125,588.078125 C333.820304,588.078125 332.498702,588.384112 331.613281,588.996094 C330.72786,589.608076 330.285156,590.473953 330.285156,591.59375 C330.285156,592.505213 330.587888,593.231117 331.193359,593.771484 C331.798831,594.311852 332.60937,594.582031 333.625,594.582031 L333.625,594.582031 Z M352.53125,579.171875 C354.080737,577.374991 356.040353,576.476562 358.410156,576.476562 C362.915387,576.476562 365.200521,579.048151 365.265625,584.191406 L365.265625,598 L360.519531,598 L360.519531,584.367188 C360.519531,582.908847 360.203779,581.876956 359.572266,581.271484 C358.940752,580.666013 358.013027,580.363281 356.789062,580.363281 C354.888011,580.363281 353.468755,581.209627 352.53125,582.902344 L352.53125,598 L347.785156,598 L347.785156,568 L352.53125,568 L352.53125,579.171875 Z" id="@aslak_hellesoy" fill="#1B1D1E" sketch:type="MSShapeGroup"></path>
            <path d="M900.230469,443.132812 C899.904946,446.127619 898.833993,448.419263 897.017578,450.007812 C895.201163,451.596362 892.782567,452.390625 889.761719,452.390625 C887.652333,452.390625 885.787117,451.863287 884.166016,450.808594 C882.544914,449.753901 881.291671,448.259775 880.40625,446.326172 C879.520829,444.392568 879.071615,442.182304 879.058594,439.695312 L879.058594,436.003906 C879.058594,433.477852 879.501298,431.238291 880.386719,429.285156 C881.27214,427.332021 882.544914,425.824875 884.205078,424.763672 C885.865243,423.702469 887.776031,423.171875 889.9375,423.171875 C892.98439,423.171875 895.389965,423.995434 897.154297,425.642578 C898.918629,427.289722 899.944009,429.56509 900.230469,432.46875 L897.808594,432.46875 C897.209632,427.637997 894.585961,425.222656 889.9375,425.222656 C887.359362,425.222656 885.305346,426.186188 883.775391,428.113281 C882.245435,430.040374 881.480469,432.703108 881.480469,436.101562 L881.480469,439.578125 C881.480469,442.859391 882.225904,445.476553 883.716797,447.429688 C885.20769,449.382822 887.222644,450.359375 889.761719,450.359375 C892.274752,450.359375 894.169264,449.757167 895.445312,448.552734 C896.721361,447.348301 897.509113,445.541679 897.808594,443.132812 L900.230469,443.132812 Z M912.164062,439.441406 L917.867188,430.867188 L920.640625,430.867188 L913.472656,441.238281 L920.953125,452 L918.199219,452 L912.183594,443.054688 L906.167969,452 L903.414062,452 L910.875,441.238281 L903.707031,430.867188 L906.460938,430.867188 L912.164062,439.441406 Z M946.539062,439.324219 C946.539062,441.941419 946.086593,444.239573 945.181641,446.21875 C944.276688,448.197927 942.984383,449.721349 941.304688,450.789062 C939.624992,451.856776 937.684907,452.390625 935.484375,452.390625 C932.164046,452.390625 929.481781,451.202486 927.4375,448.826172 C925.393219,446.449858 924.371094,443.24351 924.371094,439.207031 L924.371094,436.277344 C924.371094,433.686185 924.830074,431.391286 925.748047,429.392578 C926.66602,427.39387 927.964835,425.857427 929.644531,424.783203 C931.324227,423.708979 933.257802,423.171875 935.445312,423.171875 C937.632823,423.171875 939.563143,423.699213 941.236328,424.753906 C942.909514,425.808599 944.201818,427.29947 945.113281,429.226562 C946.024744,431.153655 946.5,433.386706 946.539062,435.925781 L946.539062,439.324219 Z M944.136719,436.238281 C944.136719,432.813785 943.361987,430.13152 941.8125,428.191406 C940.263013,426.251292 938.140638,425.28125 935.445312,425.28125 C932.80207,425.28125 930.695971,426.254548 929.126953,428.201172 C927.557935,430.147796 926.773438,432.865868 926.773438,436.355469 L926.773438,439.324219 C926.773438,442.696631 927.55468,445.369131 929.117188,447.341797 C930.679695,449.314463 932.80207,450.300781 935.484375,450.300781 C938.205743,450.300781 940.328117,449.327484 941.851562,447.380859 C943.375008,445.434235 944.136719,442.722674 944.136719,439.246094 L944.136719,436.238281 Z" id="CxO" fill="#65696B" sketch:type="MSShapeGroup"></path>
        </g>
    </g>
</svg>