<?xml version="1.0" encoding="UTF-8" standalone="no"?>
<svg width="1039px" height="697px" viewBox="0 0 1039 697" version="1.1" xmlns="http://www.w3.org/2000/svg" xmlns:xlink="http://www.w3.org/1999/xlink" xmlns:sketch="http://www.bohemiancoding.com/sketch/ns">
    <!-- Generator: Sketch 3.4.2 (15855) - http://www.bohemiancoding.com/sketch -->
    <title>Back</title>
    <desc>Created with Sketch.</desc>
    <defs></defs>
    <g id="Back" stroke="none" stroke-width="1" fill="none" fill-rule="evenodd" sketch:type="MSPage">
        <g sketch:type="MSArtboardGroup" id="Cucumber-logo-2">
            <g sketch:type="MSLayerGroup" transform="translate(352.000000, 155.000000)">
                <g id="g6053" sketch:type="MSShapeGroup">
                    <path d="M169.224873,0.797070584 C75.8138971,0.797070584 0.217736503,76.9430181 0.217736503,171.033343 C0.217736503,253.874087 59.1720569,322.706408 136.971603,338.020831 L136.971603,386.752589 C238.118829,371.392318 327.678585,290.517177 334.361618,184.353357 C338.384246,120.451629 306.753283,55.2156894 253.405909,23.5385573 C250.35155,21.7249116 247.248331,19.9244293 244.052461,18.3405032 C240.796005,16.7265511 237.452038,15.1535596 234.053947,13.7922059 C232.975294,13.3377067 231.918378,12.9254033 230.82862,12.4926923 C227.860731,11.3891299 224.866017,10.1464342 221.797704,9.24390853 C205.260013,3.75345451 187.581474,0.797070584 169.224873,0.797070584 L169.224873,0.797070584 Z" id="path3943" fill="#00A818"></path>
                    <path d="M204.058405,63.8234768 C198.277009,63.2265114 192.189202,65.2529416 187.93177,70.3210444 C184.835456,74.4794877 182.90026,78.5079796 180.836051,82.6664229 C174.643423,97.2209745 176.707632,112.815137 185.996574,124.250856 C200.446039,121.132023 212.702282,111.840502 218.89491,97.2859501 C220.959119,93.1275069 222.120237,87.7995014 222.120237,83.6410581 C222.765302,72.5951931 213.694073,64.8184165 204.058405,63.8234768 L204.058405,63.8234768 Z M128.908285,64.7981119 C119.484282,65.7016803 110.523921,73.2449499 110.523921,83.6410581 C110.523921,87.7995014 111.685039,93.1275069 113.749248,97.2859501 C119.941876,111.840502 133.165717,121.132023 147.615182,124.250856 C155.872019,112.815137 158.000735,97.2209745 151.808107,82.6664229 C149.743898,78.5079796 147.808702,74.414512 144.712388,71.2956796 C140.454956,66.2275768 134.562691,64.2559715 128.908285,64.7981119 L128.908285,64.7981119 Z M78.2706509,114.829383 C61.9953482,115.67074 54.7257635,136.271356 68.272137,146.992343 C72.4005557,150.111175 76.3999612,152.385324 80.5283798,154.464545 C94.9778449,160.70221 111.685039,158.558013 124.070295,150.241126 C120.973981,136.726186 110.459415,124.315832 96.0099496,118.078167 C90.8494263,115.998945 86.6565012,114.829383 81.4959779,114.829383 C80.3348602,114.699431 79.3556715,114.773244 78.2706509,114.829383 L78.2706509,114.829383 Z M237.279274,177.855789 C227.82503,177.673025 218.249844,180.454816 210.509059,185.65287 C213.605373,199.167811 224.11994,211.578165 238.569405,217.81583 C243.729928,219.895052 247.922853,221.064614 253.083376,221.064614 C271.66126,222.104225 280.756682,198.972884 266.307217,188.576776 C262.178799,185.457943 258.179393,183.508673 254.050975,181.429451 C248.632425,179.090327 242.951814,177.965437 237.279274,177.855789 L237.279274,177.855789 Z M96.3324823,178.830424 C90.6599381,178.940103 84.9793311,180.064962 79.5607817,182.404086 C74.4002584,184.483308 70.4008529,186.757457 67.3045389,189.876289 C53.8871784,201.312008 62.9180942,223.07886 81.4959779,222.039249 C86.6565012,222.039249 91.881531,220.869687 96.0099496,218.790465 C110.459415,212.5528 120.715955,200.142446 122.780164,186.627505 C115.039379,181.429451 105.786726,178.647681 96.3324823,178.830424 L96.3324823,178.830424 Z M148.58278,210.668506 C134.133315,213.787338 121.877072,223.07886 115.684445,237.633411 C113.620235,241.791855 112.459117,246.794982 112.459117,250.953425 C111.427013,268.626809 135.358939,278.113258 145.679986,264.598317 C148.7763,260.439874 150.711496,256.411382 152.775705,252.252939 C158.968333,238.737998 156.839618,223.143835 148.58278,210.668506 L148.58278,210.668506 Z M186.964172,211.643141 C178.707335,223.07886 176.578619,238.673022 182.771247,253.227574 C184.835456,257.386017 186.770652,261.479485 189.866966,264.598317 C201.220118,277.073647 225.087538,267.847101 224.055433,252.252939 C224.055433,248.094495 222.894315,242.76649 220.830106,238.608046 C214.637478,224.053495 201.413637,214.761973 186.964172,211.643141 L186.964172,211.643141 Z" id="rect4005" fill="#FFFFFF"></path>
                </g>
            </g>
        </g>
    </g>
</svg>