<?xml version="1.0" encoding="UTF-8" standalone="no"?>
<svg width="1039px" height="697px" viewBox="0 0 1039 697" version="1.1" xmlns="http://www.w3.org/2000/svg" xmlns:xlink="http://www.w3.org/1999/xlink" xmlns:sketch="http://www.bohemiancoding.com/sketch/ns">
    <!-- Generator: Sketch 3.5.1 (25234) - http://www.bohemiancoding.com/sketch -->
    <title>Julien-Front</title>
    <desc>Created with Sketch.</desc>
    <defs></defs>
    <g id="Julien" stroke="none" stroke-width="1" fill="none" fill-rule="evenodd" sketch:type="MSPage">
        <g id="Julien-Front" sketch:type="MSArtboardGroup">
            <path d="M610.972656,522.867188 L610.972656,546.519531 C610.972656,548.472666 610.503911,549.963537 609.566406,550.992188 C608.628902,552.020838 607.248707,552.535156 605.425781,552.535156 C604.722653,552.535156 604.039066,552.41146 603.375,552.164062 L603.414062,550.230469 C603.986982,550.39974 604.572914,550.484375 605.171875,550.484375 C607.489595,550.484375 608.648438,549.149753 608.648438,546.480469 L608.648438,522.867188 L610.972656,522.867188 Z M609.820312,515.171875 C610.328128,515.171875 610.725259,515.324868 611.011719,515.630859 C611.298179,515.93685 611.441406,516.311196 611.441406,516.753906 C611.441406,517.196617 611.298179,517.567707 611.011719,517.867188 C610.725259,518.166668 610.328128,518.316406 609.820312,518.316406 C609.325518,518.316406 608.938152,518.166668 608.658203,517.867188 C608.378254,517.567707 608.238281,517.196617 608.238281,516.753906 C608.238281,516.311196 608.378254,515.93685 608.658203,515.630859 C608.938152,515.324868 609.325518,515.171875 609.820312,515.171875 L609.820312,515.171875 Z M631.167969,541.324219 C629.761712,543.3685 627.51564,544.390625 624.429688,544.390625 C622.177072,544.390625 620.46485,543.736335 619.292969,542.427734 C618.121088,541.119134 617.522136,539.182304 617.496094,536.617188 L617.496094,522.867188 L619.820312,522.867188 L619.820312,536.324219 C619.820312,540.347676 621.4479,542.359375 624.703125,542.359375 C628.088559,542.359375 630.230464,540.959649 631.128906,538.160156 L631.128906,522.867188 L633.472656,522.867188 L633.472656,544 L631.207031,544 L631.167969,541.324219 Z M642.164062,544 L639.820312,544 L639.820312,514 L642.164062,514 L642.164062,544 Z M651.128906,544 L648.785156,544 L648.785156,522.867188 L651.128906,522.867188 L651.128906,544 Z M648.375,516.753906 C648.375,516.311196 648.518228,515.93685 648.804688,515.630859 C649.091147,515.324868 649.481768,515.171875 649.976562,515.171875 C650.471357,515.171875 650.865233,515.324868 651.158203,515.630859 C651.451173,515.93685 651.597656,516.311196 651.597656,516.753906 C651.597656,517.196617 651.451173,517.567707 651.158203,517.867188 C650.865233,518.166668 650.471357,518.316406 649.976562,518.316406 C649.481768,518.316406 649.091147,518.166668 648.804688,517.867188 C648.518228,517.567707 648.375,517.196617 648.375,516.753906 L648.375,516.753906 Z M665.660156,544.390625 C663.863272,544.390625 662.23894,543.947921 660.787109,543.0625 C659.335279,542.177079 658.205733,540.943367 657.398438,539.361328 C656.591142,537.779289 656.1875,536.005218 656.1875,534.039062 L656.1875,533.199219 C656.1875,531.167959 656.581376,529.33855 657.369141,527.710938 C658.156905,526.083325 659.253899,524.804041 660.660156,523.873047 C662.066413,522.942053 663.589836,522.476562 665.230469,522.476562 C667.795586,522.476562 669.830071,523.352205 671.333984,525.103516 C672.837898,526.854826 673.589844,529.247381 673.589844,532.28125 L673.589844,533.589844 L658.511719,533.589844 L658.511719,534.039062 C658.511719,536.434908 659.198561,538.430331 660.572266,540.025391 C661.94597,541.620451 663.674469,542.417969 665.757812,542.417969 C667.007819,542.417969 668.111323,542.190106 669.068359,541.734375 C670.025395,541.278644 670.894527,540.549484 671.675781,539.546875 L673.140625,540.660156 C671.421866,543.147148 668.928402,544.390625 665.660156,544.390625 L665.660156,544.390625 Z M665.230469,524.46875 C663.472647,524.46875 661.991542,525.113275 660.787109,526.402344 C659.582676,527.691413 658.850262,529.423166 658.589844,531.597656 L671.265625,531.597656 L671.265625,531.34375 C671.200521,529.31249 670.621099,527.658861 669.527344,526.382812 C668.433588,525.106764 667.001311,524.46875 665.230469,524.46875 L665.230469,524.46875 Z M680.367188,522.867188 L680.445312,526.480469 C681.239587,525.178379 682.229161,524.18555 683.414062,523.501953 C684.598964,522.818356 685.907545,522.476562 687.339844,522.476562 C689.60548,522.476562 691.291661,523.114577 692.398438,524.390625 C693.505214,525.666673 694.065104,527.580716 694.078125,530.132812 L694.078125,544 L691.753906,544 L691.753906,530.113281 C691.740885,528.225251 691.340499,526.819015 690.552734,525.894531 C689.76497,524.970047 688.505217,524.507812 686.773438,524.507812 C685.328118,524.507812 684.048834,524.960282 682.935547,525.865234 C681.82226,526.770187 680.998701,527.990878 680.464844,529.527344 L680.464844,544 L678.140625,544 L678.140625,522.867188 L680.367188,522.867188 Z M731.324219,533.980469 C731.259114,535.894541 730.907555,537.668612 730.269531,539.302734 C729.631507,540.936857 728.749355,542.193355 727.623047,543.072266 C726.496739,543.951176 725.191414,544.390625 723.707031,544.390625 C722.444004,544.390625 721.415369,544.058597 720.621094,543.394531 C719.826819,542.730465 719.29948,541.799485 719.039062,540.601562 C717.632805,543.127617 715.692721,544.390625 713.21875,544.390625 C711.395824,544.390625 710.035161,543.602872 709.136719,542.027344 C708.238277,540.451815 707.906249,538.32944 708.140625,535.660156 C708.335938,533.53775 708.82096,531.646493 709.595703,529.986328 C710.370447,528.326164 711.379551,527.030604 712.623047,526.099609 C713.866543,525.168615 715.19791,524.703125 716.617188,524.703125 C717.619797,524.703125 718.498694,524.843098 719.253906,525.123047 C720.009118,525.402996 720.888016,525.966142 721.890625,526.8125 L720.894531,537.945312 C720.764322,539.455737 720.956378,540.6276 721.470703,541.460938 C721.985029,542.294275 722.808588,542.710938 723.941406,542.710938 C725.542977,542.710938 726.841792,541.92644 727.837891,540.357422 C728.833989,538.788404 729.390624,536.662774 729.507812,533.980469 C729.75521,528.707005 728.752615,524.738946 726.5,522.076172 C724.247385,519.413398 720.83596,518.082031 716.265625,518.082031 C713.518215,518.082031 711.041027,518.768873 708.833984,520.142578 C706.626942,521.516283 704.885423,523.459623 703.609375,525.972656 C702.333327,528.48569 701.617188,531.382796 701.460938,534.664062 C701.304687,537.945329 701.737625,540.83267 702.759766,543.326172 C703.781906,545.819674 705.324859,547.736972 707.388672,549.078125 C709.452484,550.419278 711.910142,551.089844 714.761719,551.089844 C715.959641,551.089844 717.138015,550.946616 718.296875,550.660156 C719.455735,550.373696 720.425777,550.002606 721.207031,549.546875 L721.8125,551.109375 C721.070309,551.604169 720.035163,552.017576 718.707031,552.349609 C717.3789,552.681642 716.037767,552.847656 714.683594,552.847656 C711.428369,552.847656 708.628918,552.115242 706.285156,550.650391 C703.941395,549.18554 702.186855,547.076186 701.021484,544.322266 C699.856114,541.568346 699.351562,538.348977 699.507812,534.664062 C699.664063,531.044253 700.461581,527.837905 701.900391,525.044922 C703.3392,522.251939 705.308581,520.090502 707.808594,518.560547 C710.308606,517.030591 713.15363,516.265625 716.34375,516.265625 C719.664079,516.265625 722.476551,516.958977 724.78125,518.345703 C727.085949,519.732429 728.791661,521.760403 729.898438,524.429688 C731.005214,527.098972 731.48047,530.282534 731.324219,533.980469 L731.324219,533.980469 Z M710.210938,538.414062 C710.354167,539.716152 710.718747,540.722002 711.304688,541.431641 C711.890628,542.14128 712.66536,542.496094 713.628906,542.496094 C716.037772,542.496094 717.815098,540.835954 718.960938,537.515625 L719.839844,527.4375 C718.967444,526.799476 717.938808,526.480469 716.753906,526.480469 C715.308587,526.480469 714.055344,527.056635 712.994141,528.208984 C711.932937,529.361334 711.15495,530.94986 710.660156,532.974609 C710.165362,534.999359 710.015624,536.812492 710.210938,538.414062 L710.210938,538.414062 Z M744.449219,542.417969 C746.076831,542.417969 747.44075,541.958989 748.541016,541.041016 C749.641282,540.123042 750.236979,538.934903 750.328125,537.476562 L752.574219,537.476562 C752.509114,538.765631 752.105472,539.94075 751.363281,541.001953 C750.62109,542.063156 749.634772,542.893226 748.404297,543.492188 C747.173822,544.091149 745.855476,544.390625 744.449219,544.390625 C741.675767,544.390625 739.478524,543.427093 737.857422,541.5 C736.23632,539.572907 735.425781,536.981787 735.425781,533.726562 L735.425781,533.023438 C735.425781,530.940094 735.790361,529.097664 736.519531,527.496094 C737.248702,525.894523 738.293613,524.657556 739.654297,523.785156 C741.014981,522.912756 742.606762,522.476562 744.429688,522.476562 C746.747407,522.476562 748.658196,523.16666 750.162109,524.546875 C751.666023,525.92709 752.470052,527.743478 752.574219,529.996094 L750.328125,529.996094 C750.223958,528.34244 749.628261,527.007818 748.541016,525.992188 C747.453771,524.976557 746.083342,524.46875 744.429688,524.46875 C742.320302,524.46875 740.682949,525.230461 739.517578,526.753906 C738.352208,528.277351 737.769531,530.412747 737.769531,533.160156 L737.769531,533.84375 C737.769531,536.539076 738.352208,538.64192 739.517578,540.152344 C740.682949,541.662768 742.326812,542.417969 744.449219,542.417969 L744.449219,542.417969 Z M770.835938,541.324219 C769.42968,543.3685 767.183609,544.390625 764.097656,544.390625 C761.845041,544.390625 760.132818,543.736335 758.960938,542.427734 C757.789057,541.119134 757.190104,539.182304 757.164062,536.617188 L757.164062,522.867188 L759.488281,522.867188 L759.488281,536.324219 C759.488281,540.347676 761.115869,542.359375 764.371094,542.359375 C767.756527,542.359375 769.898433,540.959649 770.796875,538.160156 L770.796875,522.867188 L773.140625,522.867188 L773.140625,544 L770.875,544 L770.835938,541.324219 Z M787.027344,542.417969 C788.654956,542.417969 790.018875,541.958989 791.119141,541.041016 C792.219407,540.123042 792.815104,538.934903 792.90625,537.476562 L795.152344,537.476562 C795.087239,538.765631 794.683597,539.94075 793.941406,541.001953 C793.199215,542.063156 792.212897,542.893226 790.982422,543.492188 C789.751947,544.091149 788.433601,544.390625 787.027344,544.390625 C784.253892,544.390625 782.056649,543.427093 780.435547,541.5 C778.814445,539.572907 778.003906,536.981787 778.003906,533.726562 L778.003906,533.023438 C778.003906,530.940094 778.368486,529.097664 779.097656,527.496094 C779.826827,525.894523 780.871738,524.657556 782.232422,523.785156 C783.593106,522.912756 785.184887,522.476562 787.007812,522.476562 C789.325532,522.476562 791.236321,523.16666 792.740234,524.546875 C794.244148,525.92709 795.048177,527.743478 795.152344,529.996094 L792.90625,529.996094 C792.802083,528.34244 792.206386,527.007818 791.119141,525.992188 C790.031896,524.976557 788.661467,524.46875 787.007812,524.46875 C784.898427,524.46875 783.261074,525.230461 782.095703,526.753906 C780.930333,528.277351 780.347656,530.412747 780.347656,533.160156 L780.347656,533.84375 C780.347656,536.539076 780.930333,538.64192 782.095703,540.152344 C783.261074,541.662768 784.904937,542.417969 787.027344,542.417969 L787.027344,542.417969 Z M813.414062,541.324219 C812.007805,543.3685 809.761734,544.390625 806.675781,544.390625 C804.423166,544.390625 802.710943,543.736335 801.539062,542.427734 C800.367182,541.119134 799.768229,539.182304 799.742188,536.617188 L799.742188,522.867188 L802.066406,522.867188 L802.066406,536.324219 C802.066406,540.347676 803.693994,542.359375 806.949219,542.359375 C810.334652,542.359375 812.476558,540.959649 813.375,538.160156 L813.375,522.867188 L815.71875,522.867188 L815.71875,544 L813.453125,544 L813.414062,541.324219 Z M823.921875,522.867188 L824,526.304688 C824.781254,525.028639 825.757807,524.071618 826.929688,523.433594 C828.101568,522.79557 829.403639,522.476562 830.835938,522.476562 C834.169287,522.476562 836.285152,523.843736 837.183594,526.578125 C837.938806,525.263014 838.94791,524.250655 840.210938,523.541016 C841.473965,522.831377 842.86718,522.476562 844.390625,522.476562 C848.921898,522.476562 851.233072,524.950496 851.324219,529.898438 L851.324219,544 L848.980469,544 L848.980469,530.074219 C848.967448,528.186188 848.560551,526.786463 847.759766,525.875 C846.95898,524.963537 845.653655,524.507812 843.84375,524.507812 C842.164054,524.533854 840.744797,525.077469 839.585938,526.138672 C838.427078,527.199875 837.782553,528.49218 837.652344,530.015625 L837.652344,544 L835.308594,544 L835.308594,529.898438 C835.295573,528.088533 834.869145,526.737635 834.029297,525.845703 C833.189449,524.953772 831.897144,524.507812 830.152344,524.507812 C828.680982,524.507812 827.417974,524.92773 826.363281,525.767578 C825.308588,526.607426 824.527346,527.854158 824.019531,529.507812 L824.019531,544 L821.675781,544 L821.675781,522.867188 L823.921875,522.867188 Z M874.253906,533.648438 C874.253906,536.942725 873.524747,539.556631 872.066406,541.490234 C870.608066,543.423838 868.64845,544.390625 866.1875,544.390625 C863.244777,544.390625 861.018237,543.296886 859.507812,541.109375 L859.410156,544 L857.222656,544 L857.222656,514 L859.546875,514 L859.546875,525.933594 C861.031257,523.628895 863.231756,522.476562 866.148438,522.476562 C868.64845,522.476562 870.624342,523.430329 872.076172,525.337891 C873.528002,527.245452 874.253906,529.898421 874.253906,533.296875 L874.253906,533.648438 Z M871.910156,533.238281 C871.910156,530.451809 871.369797,528.300138 870.289062,526.783203 C869.208328,525.266268 867.684906,524.507812 865.71875,524.507812 C864.221347,524.507812 862.951828,524.875647 861.910156,525.611328 C860.868484,526.347009 860.080732,527.424472 859.546875,528.84375 L859.546875,538.375 C860.718756,541.031263 862.789048,542.359375 865.757812,542.359375 C867.684905,542.359375 869.192052,541.597664 870.279297,540.074219 C871.366542,538.550774 871.910156,536.272151 871.910156,533.238281 L871.910156,533.238281 Z M887.59375,544.390625 C885.796866,544.390625 884.172533,543.947921 882.720703,543.0625 C881.268873,542.177079 880.139327,540.943367 879.332031,539.361328 C878.524736,537.779289 878.121094,536.005218 878.121094,534.039062 L878.121094,533.199219 C878.121094,531.167959 878.51497,529.33855 879.302734,527.710938 C880.090499,526.083325 881.187493,524.804041 882.59375,523.873047 C884.000007,522.942053 885.523429,522.476562 887.164062,522.476562 C889.729179,522.476562 891.763664,523.352205 893.267578,525.103516 C894.771492,526.854826 895.523438,529.247381 895.523438,532.28125 L895.523438,533.589844 L880.445312,533.589844 L880.445312,534.039062 C880.445312,536.434908 881.132155,538.430331 882.505859,540.025391 C883.879564,541.620451 885.608062,542.417969 887.691406,542.417969 C888.941413,542.417969 890.044917,542.190106 891.001953,541.734375 C891.958989,541.278644 892.828121,540.549484 893.609375,539.546875 L895.074219,540.660156 C893.35546,543.147148 890.861996,544.390625 887.59375,544.390625 L887.59375,544.390625 Z M887.164062,524.46875 C885.406241,524.46875 883.925136,525.113275 882.720703,526.402344 C881.51627,527.691413 880.783855,529.423166 880.523438,531.597656 L893.199219,531.597656 L893.199219,531.34375 C893.134114,529.31249 892.554693,527.658861 891.460938,526.382812 C890.367182,525.106764 888.934905,524.46875 887.164062,524.46875 L887.164062,524.46875 Z M909.839844,524.859375 C909.34505,524.768229 908.817711,524.722656 908.257812,524.722656 C906.799472,524.722656 905.56576,525.129553 904.556641,525.943359 C903.547521,526.757166 902.828127,527.938794 902.398438,529.488281 L902.398438,544 L900.074219,544 L900.074219,522.867188 L902.359375,522.867188 L902.398438,526.226562 C903.635423,523.72655 905.62108,522.476562 908.355469,522.476562 C909.006514,522.476562 909.520831,522.561197 909.898438,522.730469 L909.839844,524.859375 Z M910.914062,542.59375 C910.914062,542.138019 911.060545,541.750653 911.353516,541.431641 C911.646486,541.112629 912.053383,540.953125 912.574219,540.953125 C913.095055,540.953125 913.505207,541.112629 913.804688,541.431641 C914.104168,541.750653 914.253906,542.138019 914.253906,542.59375 C914.253906,543.049481 914.104168,543.423827 913.804688,543.716797 C913.505207,544.009767 913.095055,544.15625 912.574219,544.15625 C912.053383,544.15625 911.646486,544.009767 911.353516,543.716797 C911.060545,543.423827 910.914062,543.049481 910.914062,542.59375 L910.914062,542.59375 Z M923.296875,544 L920.953125,544 L920.953125,522.867188 L923.296875,522.867188 L923.296875,544 Z M920.542969,516.753906 C920.542969,516.311196 920.686196,515.93685 920.972656,515.630859 C921.259116,515.324868 921.649737,515.171875 922.144531,515.171875 C922.639325,515.171875 923.033202,515.324868 923.326172,515.630859 C923.619142,515.93685 923.765625,516.311196 923.765625,516.753906 C923.765625,517.196617 923.619142,517.567707 923.326172,517.867188 C923.033202,518.166668 922.639325,518.316406 922.144531,518.316406 C921.649737,518.316406 921.259116,518.166668 920.972656,517.867188 C920.686196,517.567707 920.542969,517.196617 920.542969,516.753906 L920.542969,516.753906 Z M928.355469,533.121094 C928.355469,531.089834 928.749345,529.260425 929.537109,527.632812 C930.324874,526.0052 931.438144,524.738937 932.876953,523.833984 C934.315762,522.929032 935.946605,522.476562 937.769531,522.476562 C940.582045,522.476562 942.860668,523.462881 944.605469,525.435547 C946.350269,527.408213 947.222656,530.022119 947.222656,533.277344 L947.222656,533.765625 C947.222656,535.809906 946.82878,537.64908 946.041016,539.283203 C945.253251,540.917326 944.143236,542.177079 942.710938,543.0625 C941.278639,543.947921 939.64454,544.390625 937.808594,544.390625 C935.009101,544.390625 932.733733,543.404307 930.982422,541.431641 C929.231111,539.458975 928.355469,536.845068 928.355469,533.589844 L928.355469,533.121094 Z M930.699219,533.765625 C930.699219,536.291679 931.353509,538.365226 932.662109,539.986328 C933.97071,541.60743 935.686187,542.417969 937.808594,542.417969 C939.917979,542.417969 941.626947,541.60743 942.935547,539.986328 C944.244147,538.365226 944.898438,536.226576 944.898438,533.570312 L944.898438,533.121094 C944.898438,531.506502 944.598961,530.028653 944,528.6875 C943.401039,527.346347 942.561203,526.307946 941.480469,525.572266 C940.399734,524.836585 939.162767,524.46875 937.769531,524.46875 C935.686187,524.46875 933.986986,525.285799 932.671875,526.919922 C931.356764,528.554045 930.699219,530.692695 930.699219,533.335938 L930.699219,533.765625 Z M598.296875,583.546875 L606.949219,583.546875 L606.949219,585.734375 L598.296875,585.734375 L598.296875,595.148438 L595.933594,595.148438 L595.933594,585.734375 L587.457031,585.734375 L587.457031,583.546875 L595.933594,583.546875 L595.933594,574.445312 L598.296875,574.445312 L598.296875,583.546875 Z M616.441406,582.511719 L618.863281,582.511719 C620.204434,582.511719 621.376297,582.274091 622.378906,581.798828 C623.381515,581.323565 624.146482,580.67253 624.673828,579.845703 C625.201175,579.018876 625.464844,578.06511 625.464844,576.984375 C625.464844,575.161449 624.950526,573.735682 623.921875,572.707031 C622.893224,571.67838 621.415374,571.164062 619.488281,571.164062 C617.665355,571.164062 616.17123,571.701167 615.005859,572.775391 C613.840489,573.849615 613.257812,575.265616 613.257812,577.023438 L610.914062,577.023438 C610.914062,575.552076 611.285153,574.207688 612.027344,572.990234 C612.769535,571.77278 613.798171,570.832035 615.113281,570.167969 C616.428392,569.503903 617.886711,569.171875 619.488281,569.171875 C622.066419,569.171875 624.097649,569.874993 625.582031,571.28125 C627.066414,572.687507 627.808594,574.614571 627.808594,577.0625 C627.808594,578.429694 627.375655,579.689447 626.509766,580.841797 C625.643876,581.994146 624.455737,582.856768 622.945312,583.429688 C624.716155,583.924482 626.057287,584.774083 626.96875,585.978516 C627.880213,587.182949 628.335938,588.618481 628.335938,590.285156 C628.335938,592.720064 627.541675,594.67968 625.953125,596.164062 C624.364575,597.648445 622.242201,598.390625 619.585938,598.390625 C617.893221,598.390625 616.340502,598.052087 614.927734,597.375 C613.514967,596.697913 612.421228,595.750657 611.646484,594.533203 C610.871741,593.315749 610.484375,591.899748 610.484375,590.285156 L612.828125,590.285156 C612.828125,592.095061 613.459629,593.569656 614.722656,594.708984 C615.985683,595.848313 617.606761,596.417969 619.585938,596.417969 C621.604177,596.417969 623.176427,595.900396 624.302734,594.865234 C625.429042,593.830073 625.992188,592.329437 625.992188,590.363281 C625.992188,588.46223 625.38347,587.010422 624.166016,586.007812 C622.948562,585.005203 621.15496,584.503906 618.785156,584.503906 L616.441406,584.503906 L616.441406,582.511719 Z M651.226562,598 L633.414062,598 L633.414062,596.203125 L643.160156,585.148438 C644.774748,583.286449 645.894528,581.750006 646.519531,580.539062 C647.144534,579.328119 647.457031,578.149745 647.457031,577.003906 C647.457031,575.207022 646.929693,573.78451 645.875,572.736328 C644.820307,571.688146 643.368499,571.164062 641.519531,571.164062 C639.605459,571.164062 638.059251,571.776036 636.880859,573 C635.702468,574.223964 635.113281,575.81249 635.113281,577.765625 L632.789062,577.765625 C632.789062,576.164054 633.150387,574.705736 633.873047,573.390625 C634.595707,572.075514 635.624342,571.043624 636.958984,570.294922 C638.293626,569.54622 639.813794,569.171875 641.519531,569.171875 C644.123711,569.171875 646.158196,569.855462 647.623047,571.222656 C649.087898,572.589851 649.820312,574.451811 649.820312,576.808594 C649.820312,578.136725 649.406905,579.588534 648.580078,581.164062 C647.753251,582.739591 646.298188,584.705717 644.214844,587.0625 L636.285156,596.027344 L651.226562,596.027344 L651.226562,598 Z M665.367188,586.515625 C665.367188,583.677069 665.731767,580.919935 666.460938,578.244141 C667.190108,575.568346 668.257805,573.120454 669.664062,570.900391 C671.07032,568.680327 672.580721,567.088546 674.195312,566.125 L674.761719,567.707031 C673.902339,568.319013 673.049483,569.210932 672.203125,570.382812 C671.356767,571.554693 670.601566,572.947909 669.9375,574.5625 C669.273434,576.177091 668.73633,577.990224 668.326172,580.001953 C667.916014,582.013682 667.710938,584.29556 667.710938,586.847656 C667.710938,589.569024 668.020179,592.186185 668.638672,594.699219 C669.257165,597.212252 670.106765,599.429027 671.1875,601.349609 C672.268235,603.270192 673.459629,604.712235 674.761719,605.675781 L674.195312,607.179688 C672.541658,606.190099 671.011726,604.591808 669.605469,602.384766 C668.199212,600.177723 667.14128,597.749362 666.431641,595.099609 C665.722002,592.449857 665.367188,589.588557 665.367188,586.515625 L665.367188,586.515625 Z M695.210938,586.144531 C695.210938,590.154968 694.475268,593.198557 693.003906,595.275391 C691.532545,597.352224 689.364598,598.390625 686.5,598.390625 C683.687486,598.390625 681.53256,597.371755 680.035156,595.333984 C678.537753,593.296214 677.769531,590.330749 677.730469,586.4375 L677.730469,581.339844 C677.730469,577.342428 678.472649,574.315114 679.957031,572.257812 C681.441414,570.200511 683.609361,569.171875 686.460938,569.171875 C689.273452,569.171875 691.421868,570.164704 692.90625,572.150391 C694.390632,574.136078 695.158854,577.062481 695.210938,580.929688 L695.210938,586.144531 Z M692.867188,581.046875 C692.867188,577.79165 692.336594,575.330737 691.275391,573.664062 C690.214187,571.997388 688.609386,571.164062 686.460938,571.164062 C684.351552,571.164062 682.763026,571.977856 681.695312,573.605469 C680.627599,575.233081 680.080729,577.635401 680.054688,580.8125 L680.054688,586.398438 C680.054688,589.640641 680.604812,592.121085 681.705078,593.839844 C682.805344,595.558602 684.403635,596.417969 686.5,596.417969 C688.583344,596.417969 690.162104,595.578133 691.236328,593.898438 C692.310552,592.218742 692.854167,589.757829 692.867188,586.515625 L692.867188,581.046875 Z M707.59375,586.808594 C707.59375,589.673191 707.238936,592.430325 706.529297,595.080078 C705.819658,597.729831 704.768236,600.154937 703.375,602.355469 C701.981764,604.556001 700.445321,606.164057 698.765625,607.179688 L698.199219,605.675781 C699.475267,604.764318 700.656896,603.351572 701.744141,601.4375 C702.831386,599.523428 703.687497,597.293633 704.3125,594.748047 C704.937503,592.202461 705.25,589.438817 705.25,586.457031 C705.25,583.761705 704.937503,581.16082 704.3125,578.654297 C703.687497,576.147774 702.824875,573.908213 701.724609,571.935547 C700.624343,569.962881 699.449225,568.527348 698.199219,567.628906 L698.765625,566.125 C700.406258,567.127609 701.92317,568.729156 703.316406,570.929688 C704.709642,573.130219 705.77083,575.571601 706.5,578.253906 C707.22917,580.936211 707.59375,583.787745 707.59375,586.808594 L707.59375,586.808594 Z M737.339844,588.839844 L741.773438,588.839844 L741.773438,590.8125 L737.339844,590.8125 L737.339844,598 L734.996094,598 L734.996094,590.8125 L721.617188,590.8125 L721.617188,589.484375 L734.78125,569.5625 L737.339844,569.5625 L737.339844,588.839844 Z M724.488281,588.839844 L734.996094,588.839844 L734.996094,572.589844 L733.960938,574.386719 L724.488281,588.839844 Z M759.742188,584.835938 C758.90885,586.059902 757.873704,587.007158 756.636719,587.677734 C755.399733,588.348311 754.058601,588.683594 752.613281,588.683594 C750.99869,588.683594 749.572923,588.266931 748.335938,587.433594 C747.098952,586.600256 746.14193,585.447924 745.464844,583.976562 C744.787757,582.505201 744.449219,580.897144 744.449219,579.152344 C744.449219,577.277334 744.810543,575.571622 745.533203,574.035156 C746.255863,572.49869 747.264967,571.304041 748.560547,570.451172 C749.856126,569.598303 751.350252,569.171875 753.042969,569.171875 C755.894546,569.171875 758.114575,570.171214 759.703125,572.169922 C761.291675,574.16863 762.085938,577.003888 762.085938,580.675781 L762.085938,582.785156 C762.085938,587.91539 760.992198,591.769518 758.804688,594.347656 C756.617177,596.925794 753.277366,598.214844 748.785156,598.214844 L748.355469,598.214844 L748.375,596.183594 L749.195312,596.183594 C752.593767,596.13151 755.178377,595.167978 756.949219,593.292969 C758.720061,591.417959 759.651041,588.598977 759.742188,584.835938 L759.742188,584.835938 Z M752.90625,586.671875 C754.468758,586.671875 755.871739,586.206385 757.115234,585.275391 C758.35873,584.344396 759.240883,583.136726 759.761719,581.652344 L759.761719,580.304688 C759.761719,577.414048 759.159511,575.171232 757.955078,573.576172 C756.750645,571.981112 755.126312,571.183594 753.082031,571.183594 C751.233064,571.183594 749.716152,571.929029 748.53125,573.419922 C747.346348,574.910815 746.753906,576.789051 746.753906,579.054688 C746.753906,581.229178 747.323562,583.04231 748.462891,584.494141 C749.602219,585.945971 751.083324,586.671875 752.90625,586.671875 L752.90625,586.671875 Z M768.902344,583.429688 L770.289062,569.5625 L784.507812,569.5625 L784.507812,571.730469 L772.300781,571.730469 L771.304688,581.339844 C772.828133,580.298172 774.611969,579.777344 776.65625,579.777344 C779.221367,579.777344 781.265617,580.610669 782.789062,582.277344 C784.312508,583.944019 785.074219,586.164049 785.074219,588.9375 C785.074219,591.932307 784.332039,594.256502 782.847656,595.910156 C781.363274,597.56381 779.273451,598.390625 776.578125,598.390625 C774.104154,598.390625 772.098966,597.700528 770.5625,596.320312 C769.026034,594.940097 768.147137,593.006523 767.925781,590.519531 L770.171875,590.519531 C770.39323,592.459645 771.050776,593.927729 772.144531,594.923828 C773.238287,595.919927 774.716137,596.417969 776.578125,596.417969 C778.609385,596.417969 780.142573,595.773444 781.177734,594.484375 C782.212896,593.195306 782.730469,591.359387 782.730469,588.976562 C782.730469,586.893219 782.151047,585.194017 780.992188,583.878906 C779.833328,582.563796 778.251312,581.90625 776.246094,581.90625 C775.139317,581.90625 774.175785,582.046223 773.355469,582.326172 C772.535152,582.606121 771.669275,583.149736 770.757812,583.957031 L768.902344,583.429688 Z M813.003906,569.347656 L813.003906,571.398438 L812.730469,571.398438 C809.332014,571.398438 806.65626,572.397776 804.703125,574.396484 C802.74999,576.395192 801.669272,579.171857 801.460938,582.726562 C802.242191,581.645828 803.238275,580.809248 804.449219,580.216797 C805.660162,579.624346 807.014315,579.328125 808.511719,579.328125 C811.011731,579.328125 813.000644,580.190747 814.478516,581.916016 C815.956388,583.641285 816.695312,585.897121 816.695312,588.683594 C816.695312,590.532561 816.350264,592.199211 815.660156,593.683594 C814.970049,595.167976 813.980475,596.323564 812.691406,597.150391 C811.402337,597.977218 809.930998,598.390625 808.277344,598.390625 C805.555976,598.390625 803.342456,597.404307 801.636719,595.431641 C799.930981,593.458975 799.078125,590.910172 799.078125,587.785156 L799.078125,585.441406 C799.078125,580.350235 800.236968,576.408217 802.554688,573.615234 C804.872407,570.822252 808.160135,569.39974 812.417969,569.347656 L813.003906,569.347656 Z M808.140625,581.339844 C806.656243,581.339844 805.272793,581.779292 803.990234,582.658203 C802.707676,583.537114 801.851565,584.653639 801.421875,586.007812 L801.421875,588 C801.421875,590.473971 802.056634,592.49218 803.326172,594.054688 C804.595709,595.617195 806.246084,596.398438 808.277344,596.398438 C810.10027,596.398438 811.574864,595.675788 812.701172,594.230469 C813.82748,592.785149 814.390625,590.962251 814.390625,588.761719 C814.390625,586.522124 813.82748,584.725267 812.701172,583.371094 C811.574864,582.01692 810.054697,581.339844 808.140625,581.339844 L808.140625,581.339844 Z M838.53125,586.144531 C838.53125,590.154968 837.79558,593.198557 836.324219,595.275391 C834.852857,597.352224 832.68491,598.390625 829.820312,598.390625 C827.007798,598.390625 824.852872,597.371755 823.355469,595.333984 C821.858065,593.296214 821.089844,590.330749 821.050781,586.4375 L821.050781,581.339844 C821.050781,577.342428 821.792961,574.315114 823.277344,572.257812 C824.761726,570.200511 826.929673,569.171875 829.78125,569.171875 C832.593764,569.171875 834.74218,570.164704 836.226562,572.150391 C837.710945,574.136078 838.479166,577.062481 838.53125,580.929688 L838.53125,586.144531 Z M836.1875,581.046875 C836.1875,577.79165 835.656906,575.330737 834.595703,573.664062 C833.5345,571.997388 831.929698,571.164062 829.78125,571.164062 C827.671864,571.164062 826.083339,571.977856 825.015625,573.605469 C823.947911,575.233081 823.401042,577.635401 823.375,580.8125 L823.375,586.398438 C823.375,589.640641 823.925125,592.121085 825.025391,593.839844 C826.125657,595.558602 827.723948,596.417969 829.820312,596.417969 C831.903656,596.417969 833.482417,595.578133 834.556641,593.898438 C835.630865,592.218742 836.174479,589.757829 836.1875,586.515625 L836.1875,581.046875 Z M858.472656,582.511719 L860.894531,582.511719 C862.235684,582.511719 863.407547,582.274091 864.410156,581.798828 C865.412765,581.323565 866.177732,580.67253 866.705078,579.845703 C867.232425,579.018876 867.496094,578.06511 867.496094,576.984375 C867.496094,575.161449 866.981776,573.735682 865.953125,572.707031 C864.924474,571.67838 863.446624,571.164062 861.519531,571.164062 C859.696605,571.164062 858.20248,571.701167 857.037109,572.775391 C855.871739,573.849615 855.289062,575.265616 855.289062,577.023438 L852.945312,577.023438 C852.945312,575.552076 853.316403,574.207688 854.058594,572.990234 C854.800785,571.77278 855.829421,570.832035 857.144531,570.167969 C858.459642,569.503903 859.917961,569.171875 861.519531,569.171875 C864.097669,569.171875 866.128899,569.874993 867.613281,571.28125 C869.097664,572.687507 869.839844,574.614571 869.839844,577.0625 C869.839844,578.429694 869.406905,579.689447 868.541016,580.841797 C867.675126,581.994146 866.486987,582.856768 864.976562,583.429688 C866.747405,583.924482 868.088537,584.774083 869,585.978516 C869.911463,587.182949 870.367188,588.618481 870.367188,590.285156 C870.367188,592.720064 869.572925,594.67968 867.984375,596.164062 C866.395825,597.648445 864.273451,598.390625 861.617188,598.390625 C859.924471,598.390625 858.371752,598.052087 856.958984,597.375 C855.546217,596.697913 854.452478,595.750657 853.677734,594.533203 C852.902991,593.315749 852.515625,591.899748 852.515625,590.285156 L854.859375,590.285156 C854.859375,592.095061 855.490879,593.569656 856.753906,594.708984 C858.016933,595.848313 859.638011,596.417969 861.617188,596.417969 C863.635427,596.417969 865.207677,595.900396 866.333984,594.865234 C867.460292,593.830073 868.023438,592.329437 868.023438,590.363281 C868.023438,588.46223 867.41472,587.010422 866.197266,586.007812 C864.979812,585.005203 863.18621,584.503906 860.816406,584.503906 L858.472656,584.503906 L858.472656,582.511719 Z M893.257812,598 L875.445312,598 L875.445312,596.203125 L885.191406,585.148438 C886.805998,583.286449 887.925778,581.750006 888.550781,580.539062 C889.175784,579.328119 889.488281,578.149745 889.488281,577.003906 C889.488281,575.207022 888.960943,573.78451 887.90625,572.736328 C886.851557,571.688146 885.399749,571.164062 883.550781,571.164062 C881.636709,571.164062 880.090501,571.776036 878.912109,573 C877.733718,574.223964 877.144531,575.81249 877.144531,577.765625 L874.820312,577.765625 C874.820312,576.164054 875.181637,574.705736 875.904297,573.390625 C876.626957,572.075514 877.655592,571.043624 878.990234,570.294922 C880.324876,569.54622 881.845044,569.171875 883.550781,569.171875 C886.154961,569.171875 888.189446,569.855462 889.654297,571.222656 C891.119148,572.589851 891.851562,574.451811 891.851562,576.808594 C891.851562,578.136725 891.438155,579.588534 890.611328,581.164062 C889.784501,582.739591 888.329438,584.705717 886.246094,587.0625 L878.316406,596.027344 L893.257812,596.027344 L893.257812,598 Z M924.859375,570.910156 L912.710938,598 L910.269531,598 L922.339844,571.554688 L906.167969,571.554688 L906.167969,569.5625 L924.859375,569.5625 L924.859375,570.910156 Z M944.097656,584.835938 C943.264319,586.059902 942.229173,587.007158 940.992188,587.677734 C939.755202,588.348311 938.41407,588.683594 936.96875,588.683594 C935.354159,588.683594 933.928392,588.266931 932.691406,587.433594 C931.454421,586.600256 930.497399,585.447924 929.820312,583.976562 C929.143226,582.505201 928.804688,580.897144 928.804688,579.152344 C928.804688,577.277334 929.166012,575.571622 929.888672,574.035156 C930.611332,572.49869 931.620436,571.304041 932.916016,570.451172 C934.211595,569.598303 935.705721,569.171875 937.398438,569.171875 C940.250014,569.171875 942.470044,570.171214 944.058594,572.169922 C945.647143,574.16863 946.441406,577.003888 946.441406,580.675781 L946.441406,582.785156 C946.441406,587.91539 945.347667,591.769518 943.160156,594.347656 C940.972645,596.925794 937.632835,598.214844 933.140625,598.214844 L932.710938,598.214844 L932.730469,596.183594 L933.550781,596.183594 C936.949236,596.13151 939.533845,595.167978 941.304688,593.292969 C943.07553,591.417959 944.00651,588.598977 944.097656,584.835938 L944.097656,584.835938 Z M937.261719,586.671875 C938.824227,586.671875 940.227207,586.206385 941.470703,585.275391 C942.714199,584.344396 943.596352,583.136726 944.117188,581.652344 L944.117188,580.304688 C944.117188,577.414048 943.51498,575.171232 942.310547,573.576172 C941.106114,571.981112 939.481781,571.183594 937.4375,571.183594 C935.588532,571.183594 934.071621,571.929029 932.886719,573.419922 C931.701817,574.910815 931.109375,576.789051 931.109375,579.054688 C931.109375,581.229178 931.679031,583.04231 932.818359,584.494141 C933.957688,585.945971 935.438793,586.671875 937.261719,586.671875 L937.261719,586.671875 Z" id="julien@cucumber.io" fill="#1B1D1E" sketch:type="MSShapeGroup"></path>
            <path d="M600.972656,421.5625 L605.894531,421.5625 L605.894531,441.503906 C605.894531,444.225274 605.04493,446.386711 603.345703,447.988281 C601.646476,449.589852 599.40366,450.390625 596.617188,450.390625 C593.648423,450.390625 591.356779,449.641935 589.742188,448.144531 C588.127596,446.647128 587.320312,444.563815 587.320312,441.894531 L592.242188,441.894531 C592.242188,443.404955 592.616533,444.541012 593.365234,445.302734 C594.113936,446.064457 595.19791,446.445312 596.617188,446.445312 C597.945319,446.445312 599.003251,446.005864 599.791016,445.126953 C600.57878,444.248042 600.972656,443.033862 600.972656,441.484375 L600.972656,421.5625 Z M632.339844,421.5625 L632.339844,440.566406 C632.339844,443.587255 631.373057,445.979809 629.439453,447.744141 C627.50585,449.508472 624.931006,450.390625 621.714844,450.390625 C618.459619,450.390625 615.87501,449.521493 613.960938,447.783203 C612.046865,446.044913 611.089844,443.632828 611.089844,440.546875 L611.089844,421.5625 L616.011719,421.5625 L616.011719,440.585938 C616.011719,442.486989 616.493485,443.938797 617.457031,444.941406 C618.420578,445.944015 619.839834,446.445312 621.714844,446.445312 C625.516946,446.445312 627.417969,444.440124 627.417969,440.429688 L627.417969,421.5625 L632.339844,421.5625 Z M642.554688,446.054688 L655.464844,446.054688 L655.464844,450 L637.613281,450 L637.613281,421.5625 L642.554688,421.5625 L642.554688,446.054688 Z M664.46875,450 L659.546875,450 L659.546875,421.5625 L664.46875,421.5625 L664.46875,450 Z M687.164062,437.304688 L675.484375,437.304688 L675.484375,446.054688 L689.136719,446.054688 L689.136719,450 L670.542969,450 L670.542969,421.5625 L689,421.5625 L689,425.546875 L675.484375,425.546875 L675.484375,433.398438 L687.164062,433.398438 L687.164062,437.304688 Z M715.71875,450 L710.777344,450 L698.101562,429.824219 L698.101562,450 L693.160156,450 L693.160156,421.5625 L698.101562,421.5625 L710.816406,441.816406 L710.816406,421.5625 L715.71875,421.5625 L715.71875,450 Z M731.519531,450 L731.519531,421.5625 L741.265625,421.5625 C744.481787,421.5625 746.929679,422.207025 748.609375,423.496094 C750.289071,424.785163 751.128906,426.705716 751.128906,429.257812 C751.128906,430.559902 750.777347,431.731766 750.074219,432.773438 C749.37109,433.815109 748.342455,434.622393 746.988281,435.195312 C748.524747,435.611981 749.712886,436.396479 750.552734,437.548828 C751.392582,438.701178 751.8125,440.084627 751.8125,441.699219 C751.8125,444.368503 750.956389,446.419264 749.244141,447.851562 C747.531892,449.283861 745.080745,450 741.890625,450 L731.519531,450 Z M736.460938,437.167969 L736.460938,446.054688 L741.949219,446.054688 C743.498706,446.054688 744.709631,445.670577 745.582031,444.902344 C746.454431,444.134111 746.890625,443.066413 746.890625,441.699219 C746.890625,438.743475 745.380223,437.233073 742.359375,437.167969 L736.460938,437.167969 Z M736.460938,433.535156 L741.304688,433.535156 C742.841154,433.535156 744.042313,433.186852 744.908203,432.490234 C745.774093,431.793616 746.207031,430.807298 746.207031,429.53125 C746.207031,428.124993 745.806645,427.109378 745.005859,426.484375 C744.205074,425.859372 742.958342,425.546875 741.265625,425.546875 L736.460938,425.546875 L736.460938,433.535156 Z M761.96875,450 L757.046875,450 L757.046875,421.5625 L761.96875,421.5625 L761.96875,450 Z M784.664062,437.304688 L772.984375,437.304688 L772.984375,446.054688 L786.636719,446.054688 L786.636719,450 L768.042969,450 L768.042969,421.5625 L786.5,421.5625 L786.5,425.546875 L772.984375,425.546875 L772.984375,433.398438 L784.664062,433.398438 L784.664062,437.304688 Z M795.308594,446.054688 L810.503906,446.054688 L810.503906,450 L789.332031,450 L789.332031,446.796875 L804.039062,425.546875 L789.429688,425.546875 L789.429688,421.5625 L810.035156,421.5625 L810.035156,424.6875 L795.308594,446.054688 Z M831.363281,437.304688 L819.683594,437.304688 L819.683594,446.054688 L833.335938,446.054688 L833.335938,450 L814.742188,450 L814.742188,421.5625 L833.199219,421.5625 L833.199219,425.546875 L819.683594,425.546875 L819.683594,433.398438 L831.363281,433.398438 L831.363281,437.304688 Z M843.765625,421.5625 L851.96875,443.359375 L860.152344,421.5625 L866.539062,421.5625 L866.539062,450 L861.617188,450 L861.617188,440.625 L862.105469,428.085938 L853.707031,450 L850.171875,450 L841.792969,428.105469 L842.28125,440.625 L842.28125,450 L837.359375,450 L837.359375,421.5625 L843.765625,421.5625 Z M888.648438,443.378906 L877.632812,443.378906 L875.328125,450 L870.191406,450 L880.933594,421.5625 L885.367188,421.5625 L896.128906,450 L890.972656,450 L888.648438,443.378906 Z M879.019531,439.394531 L887.261719,439.394531 L883.140625,427.597656 L879.019531,439.394531 Z M921.910156,450 L916.96875,450 L904.292969,429.824219 L904.292969,450 L899.351562,450 L899.351562,421.5625 L904.292969,421.5625 L917.007812,441.816406 L917.007812,421.5625 L921.910156,421.5625 L921.910156,450 Z M942.613281,442.675781 C942.613281,441.425775 942.173833,440.462243 941.294922,439.785156 C940.416011,439.10807 938.830741,438.424483 936.539062,437.734375 C934.247384,437.044267 932.424486,436.276046 931.070312,435.429688 C928.479154,433.802075 927.183594,431.679701 927.183594,429.0625 C927.183594,426.770822 928.117829,424.88282 929.986328,423.398438 C931.854827,421.914055 934.279933,421.171875 937.261719,421.171875 C939.240895,421.171875 941.005201,421.536455 942.554688,422.265625 C944.104174,422.994795 945.32161,424.033196 946.207031,425.380859 C947.092452,426.728522 947.535156,428.222648 947.535156,429.863281 L942.613281,429.863281 C942.613281,428.378899 942.147791,427.216801 941.216797,426.376953 C940.285803,425.537105 938.954436,425.117188 937.222656,425.117188 C935.608065,425.117188 934.354822,425.462236 933.462891,426.152344 C932.570959,426.842451 932.125,427.805983 932.125,429.042969 C932.125,430.084641 932.606766,430.953773 933.570312,431.650391 C934.533859,432.347009 936.122385,433.024085 938.335938,433.681641 C940.54949,434.339196 942.326816,435.087886 943.667969,435.927734 C945.009121,436.767582 945.992184,437.731114 946.617188,438.818359 C947.242191,439.905604 947.554688,441.178378 947.554688,442.636719 C947.554688,445.006522 946.646493,446.891269 944.830078,448.291016 C943.013663,449.690762 940.549495,450.390625 937.4375,450.390625 C935.380198,450.390625 933.488941,450.009769 931.763672,449.248047 C930.038403,448.486324 928.69727,447.434903 927.740234,446.09375 C926.783198,444.752597 926.304688,443.190113 926.304688,441.40625 L931.246094,441.40625 C931.246094,443.020841 931.779943,444.270829 932.847656,445.15625 C933.91537,446.041671 935.445303,446.484375 937.4375,446.484375 C939.156259,446.484375 940.448563,446.136071 941.314453,445.439453 C942.180343,444.742835 942.613281,443.82162 942.613281,442.675781 L942.613281,442.675781 Z" id="JULIEN-BIEZEMANS" fill="#1B1D1E" sketch:type="MSShapeGroup"></path>
            <g id="Cucumber-logo" sketch:type="MSLayerGroup" transform="translate(90.000000, 90.000000)">
                <g id="g6053" sketch:type="MSShapeGroup">
                    <path d="M418.718234,69.6015101 C413.085253,69.6015101 409.517698,72.4328859 406.888974,76.7743289 C406.888974,75.6417785 407.452272,74.3204698 407.452272,73.3766779 L407.452272,71.489094 L398.063971,71.489094 L398.063971,118.678691 L407.452272,118.678691 L407.452272,91.4974832 C407.452272,83.7583893 411.583125,79.0394295 418.718234,79.0394295 L420.595894,79.0394295 L420.595894,69.6015101 L418.718234,69.6015101 L418.718234,69.6015101 Z" id="path5443" fill="#000000"></path>
                    <path d="M36.9899067,86.9672819 C34.3611824,82.8145973 30.6058619,79.9832215 25.1606472,79.9832215 C16.5234101,79.9832215 10.3271313,86.5897651 10.3271313,94.8951342 C10.3271313,103.200503 16.5234101,109.807047 25.1606472,109.807047 C30.6058619,109.807047 34.3611824,107.16443 36.9899067,103.011745 L45.6271438,108.108221 C41.4962913,114.526007 33.7978843,119.244966 25.1606472,119.244966 C9.20053518,119.244966 7.10542736e-15,107.16443 7.10542736e-15,95.0838926 C7.10542736e-15,83.0033557 9.3883012,70.9228188 25.1606472,70.9228188 C34.9244805,70.9228188 41.1207593,75.6417785 45.6271438,82.0595638 L36.9899067,86.9672819 L36.9899067,86.9672819 Z" id="path5445" fill="#000000"></path>
                    <path d="M53.8888489,72.0553691 L63.6526822,72.0553691 L63.6526822,97.7265101 C63.6526822,104.521812 68.5345988,109.240772 74.7308776,109.240772 C80.7393903,109.240772 85.809073,104.333054 85.809073,97.7265101 L85.809073,72.0553691 L95.5729062,72.0553691 L95.5729062,98.4815436 C95.5729062,111.317114 85.621307,119.056208 74.7308776,119.056208 C63.8404482,119.056208 53.8888489,111.317114 53.8888489,98.4815436 L53.8888489,72.0553691 L53.8888489,72.0553691 Z" id="path5447" fill="#000000"></path>
                    <path d="M141.387816,86.9672819 C138.759092,82.8145973 135.003771,79.9832215 129.558557,79.9832215 C120.921319,79.9832215 114.725041,86.5897651 114.725041,94.8951342 C114.725041,103.200503 120.921319,109.807047 129.558557,109.807047 C135.003771,109.807047 138.759092,107.16443 141.387816,103.011745 L150.025053,108.108221 C145.894201,114.526007 138.195794,119.244966 129.558557,119.244966 C113.598445,119.244966 104.397909,107.16443 104.397909,95.0838926 C104.397909,83.0033557 113.598445,70.9228188 129.558557,70.9228188 C139.32239,70.9228188 145.518669,75.6417785 150.025053,82.0595638 L141.387816,86.9672819 L141.387816,86.9672819 Z" id="path5449" fill="#000000"></path>
                    <path d="M158.286758,72.0553691 L168.050592,72.0553691 L168.050592,97.7265101 C168.050592,104.521812 172.932508,109.240772 179.128787,109.240772 C185.1373,109.240772 190.206982,104.333054 190.206982,97.7265101 L190.206982,72.0553691 L199.970816,72.0553691 L199.970816,98.4815436 C199.970816,111.317114 190.019216,119.056208 179.128787,119.056208 C168.238358,119.056208 158.286758,111.317114 158.286758,98.4815436 L158.286758,72.0553691 L158.286758,72.0553691 Z" id="path5451" fill="#000000"></path>
                    <path d="M212.175607,89.2323826 C212.175607,77.5293624 219.874014,70.9228188 228.886783,70.9228188 C235.834126,70.9228188 240.716043,74.3204698 242.593703,79.0394295 L242.781469,79.0394295 C244.659129,74.1317114 249.541046,70.9228188 256.488389,70.9228188 C265.501158,70.9228188 273.199565,77.7181208 273.199565,89.2323826 L273.199565,117.923658 L263.435732,117.923658 L263.435732,89.2323826 C263.435732,83.7583893 260.055943,80.5494966 255.925091,80.5494966 C251.23094,80.5494966 247.851152,83.3808725 247.851152,90.5536913 L247.851152,117.734899 L238.087319,117.734899 L238.087319,90.5536913 C238.087319,83.3808725 234.70753,80.5494966 230.013379,80.5494966 C225.882527,80.5494966 222.502739,83.7583893 222.502739,89.2323826 L222.502739,117.734899 L212.175607,117.734899 L212.175607,89.2323826 L212.175607,89.2323826 Z" id="path5453" fill="#000000"></path>
                    <path d="M285.216591,58.4647651 L294.980424,58.4647651 L294.980424,77.7181208 L295.16819,77.7181208 C297.421382,73.942953 303.617661,70.9228188 310.001706,70.9228188 C321.830965,70.9228188 333.660225,79.7944631 333.660225,95.0838926 C333.660225,110.373322 321.830965,119.244966 310.001706,119.244966 C303.617661,119.244966 297.421382,116.224832 295.16819,112.449664 L294.980424,112.449664 L294.980424,118.112416 L285.216591,118.112416 L285.216591,58.4647651 L285.216591,58.4647651 Z M309.062876,80.1719799 C300.988937,80.1719799 294.980424,86.5897651 294.980424,95.0838926 C294.980424,103.57802 300.988937,109.995805 309.062876,109.995805 C317.324581,109.995805 323.333093,103.57802 323.333093,95.0838926 C323.333093,86.4010067 317.324581,80.1719799 309.062876,80.1719799 L309.062876,80.1719799 Z" id="path5455" fill="#000000"></path>
                    <path d="M386.234711,107.919463 C380.789497,114.903523 373.278856,119.056208 365.017151,119.056208 C349.057039,119.056208 339.856504,106.975671 339.856504,94.8951342 C339.856504,82.8145973 349.244805,70.9228188 365.017151,70.9228188 C374.405452,70.9228188 388.67567,78.8506711 388.67567,96.5939597 L388.67567,98.2927852 L350.934699,98.2927852 C351.497997,105.276846 358.069808,110.373322 364.829385,110.373322 C370.086833,110.373322 374.593218,107.730705 377.973006,103.200503 L386.234711,107.919463 L386.234711,107.919463 Z M377.221942,90.1761745 C375.156516,83.1921141 370.086833,79.4169463 363.702789,79.4169463 C357.50651,79.4169463 352.436827,83.3808725 350.746933,90.1761745 L377.221942,90.1761745 L377.221942,90.1761745 Z" id="path5457" fill="#000000"></path>
                    <path d="M447.243798,0.741736158 C430.249972,0.741736158 416.497112,14.5672813 416.497112,31.6509224 C416.497112,46.6920176 427.222399,59.1896539 441.37611,61.9702387 L441.37611,70.8182882 C459.777357,68.0293792 476.070549,53.3451714 477.286362,34.0693893 C478.01818,22.466983 472.263705,10.6223286 462.558465,4.87082592 C462.002799,4.5415288 461.438245,4.21462173 460.856835,3.92703398 C460.264403,3.63399451 459.656051,3.34839211 459.037852,3.10121602 C458.841617,3.01869425 458.649337,2.94383381 458.451083,2.86526804 C457.911148,2.66489818 457.366334,2.4392664 456.80813,2.27539807 C453.799504,1.27851613 450.58333,0.741736158 447.243798,0.741736158 L447.243798,0.741736158 Z" id="path3943" fill="#00A818"></path>
                    <path d="M453.580902,12.1852135 C452.529119,12.0768247 451.421592,12.4447563 450.647057,13.3649534 C450.083759,14.119987 449.731698,14.8514258 449.356166,15.6064593 C448.22957,18.2490768 448.605102,21.0804526 450.294996,23.1567949 C452.92372,22.5905197 455.153442,20.9034916 456.280038,18.2608742 C456.65557,17.5058406 456.866807,16.5384539 456.866807,15.7834203 C456.984161,13.7778624 455.333874,12.3658611 453.580902,12.1852135 L453.580902,12.1852135 Z M439.909188,12.3621745 C438.194723,12.5262322 436.564606,13.8958364 436.564606,15.7834203 C436.564606,16.5384539 436.775842,17.5058406 437.151374,18.2608742 C438.277971,20.9034916 440.683723,22.5905197 443.312447,23.1567949 C444.814575,21.0804526 445.201843,18.2490768 444.075247,15.6064593 C443.699715,14.8514258 443.347653,14.1081896 442.784355,13.5419144 C442.00982,12.6217173 440.937868,12.26374 439.909188,12.3621745 L439.909188,12.3621745 Z M430.696917,21.446172 C427.736027,21.5989341 426.413505,25.3393138 428.877934,27.2858846 C429.628998,27.8521598 430.356591,28.2650688 431.107656,28.6425856 C433.73638,29.7751359 436.775842,29.3858217 439.029035,27.8757546 C438.465737,25.4218956 436.55287,23.1685923 433.924146,22.0360419 C432.985316,21.6585252 432.222516,21.446172 431.283686,21.446172 C431.072449,21.4225772 430.89431,21.435979 430.696917,21.446172 L430.696917,21.446172 Z M459.62462,32.8896493 C457.904654,32.8564656 456.162684,33.3615453 454.754439,34.3053372 C455.317737,36.7591963 457.230604,39.0124996 459.859328,40.1450499 C460.798158,40.5225667 461.560958,40.7349199 462.499788,40.7349199 C465.879576,40.9236783 467.534264,36.7238041 464.90554,34.8362202 C464.154476,34.2699451 463.426882,33.9160231 462.675818,33.5385063 C461.690047,33.1137999 460.656599,32.9095577 459.62462,32.8896493 L459.62462,32.8896493 Z M433.982823,33.0666103 C432.950843,33.0865243 431.917397,33.2907609 430.931625,33.7154673 C429.992795,34.0929841 429.265201,34.505893 428.701903,35.0721682 C426.260945,37.1485105 427.903898,41.1006393 431.283686,40.9118809 C432.222516,40.9118809 433.173082,40.6995277 433.924146,40.3220109 C436.55287,39.1894606 438.418795,36.9361573 438.794327,34.4822982 C437.386082,33.5385063 435.70279,33.0334304 433.982823,33.0666103 L433.982823,33.0666103 Z M443.488478,38.847336 C440.859753,39.4136112 438.630032,41.1006393 437.503436,43.7432567 C437.127904,44.4982903 436.916667,45.40669 436.916667,46.1617236 C436.728901,49.3706162 441.082726,51.0930365 442.960386,48.6391774 C443.523684,47.8841439 443.875745,47.1527051 444.251277,46.3976716 C445.377873,43.9438125 444.990606,41.1124367 443.488478,38.847336 L443.488478,38.847336 Z M450.471027,39.024297 C448.968899,41.1006393 448.581631,43.9320151 449.708227,46.5746326 C450.083759,47.3296661 450.435821,48.0729023 450.999119,48.6391774 C453.064545,50.9042781 457.406634,49.2290474 457.218868,46.3976716 C457.218868,45.642638 457.007631,44.6752513 456.632099,43.9202177 C455.505503,41.2776003 453.099751,39.5905721 450.471027,39.024297 L450.471027,39.024297 Z" id="rect4005" fill="#FFFFFF"></path>
                </g>
            </g>
            <path d="M99.1132812,594.601562 C100.298183,594.601562 101.281246,594.256514 102.0625,593.566406 C102.843754,592.876299 103.260416,592.023443 103.3125,591.007812 L107.785156,591.007812 C107.733073,592.322923 107.322921,593.550125 106.554688,594.689453 C105.786454,595.828782 104.744798,596.730465 103.429688,597.394531 C102.114577,598.058597 100.69532,598.390625 99.171875,598.390625 C96.2161311,598.390625 93.8724045,597.433603 92.140625,595.519531 C90.4088455,593.605459 89.5429688,590.962256 89.5429688,587.589844 L89.5429688,587.101562 C89.5429688,583.885401 90.4023352,581.310557 92.1210938,579.376953 C93.8398523,577.44335 96.1835789,576.476562 99.1523438,576.476562 C101.665377,576.476562 103.712883,577.208977 105.294922,578.673828 C106.876961,580.138679 107.707031,582.062488 107.785156,584.445312 L103.3125,584.445312 C103.260416,583.234369 102.847009,582.238285 102.072266,581.457031 C101.297522,580.675777 100.311204,580.285156 99.1132812,580.285156 C97.5768152,580.285156 96.3919312,580.841791 95.5585938,581.955078 C94.7252563,583.068365 94.3020834,584.757801 94.2890625,587.023438 L94.2890625,587.785156 C94.2890625,590.076834 94.7024698,591.785802 95.5292969,592.912109 C96.3561239,594.038417 97.5507734,594.601562 99.1132812,594.601562 L99.1132812,594.601562 Z M124.171875,595.929688 C122.778639,597.570321 120.799492,598.390625 118.234375,598.390625 C115.942697,598.390625 114.207688,597.720059 113.029297,596.378906 C111.850906,595.037754 111.261719,593.097669 111.261719,590.558594 L111.261719,576.867188 L116.007812,576.867188 L116.007812,590.5 C116.007812,593.182305 117.121083,594.523438 119.347656,594.523438 C121.652355,594.523438 123.208329,593.696623 124.015625,592.042969 L124.015625,576.867188 L128.761719,576.867188 L128.761719,598 L124.289062,598 L124.171875,595.929688 Z M142.277344,594.601562 C143.462246,594.601562 144.445309,594.256514 145.226562,593.566406 C146.007816,592.876299 146.424479,592.023443 146.476562,591.007812 L150.949219,591.007812 C150.897135,592.322923 150.486983,593.550125 149.71875,594.689453 C148.950517,595.828782 147.908861,596.730465 146.59375,597.394531 C145.278639,598.058597 143.859383,598.390625 142.335938,598.390625 C139.380194,598.390625 137.036467,597.433603 135.304688,595.519531 C133.572908,593.605459 132.707031,590.962256 132.707031,587.589844 L132.707031,587.101562 C132.707031,583.885401 133.566398,581.310557 135.285156,579.376953 C137.003915,577.44335 139.347641,576.476562 142.316406,576.476562 C144.82944,576.476562 146.876945,577.208977 148.458984,578.673828 C150.041024,580.138679 150.871093,582.062488 150.949219,584.445312 L146.476562,584.445312 C146.424479,583.234369 146.011072,582.238285 145.236328,581.457031 C144.461585,580.675777 143.475266,580.285156 142.277344,580.285156 C140.740878,580.285156 139.555994,580.841791 138.722656,581.955078 C137.889319,583.068365 137.466146,584.757801 137.453125,587.023438 L137.453125,587.785156 C137.453125,590.076834 137.866532,591.785802 138.693359,592.912109 C139.520186,594.038417 140.714836,594.601562 142.277344,594.601562 L142.277344,594.601562 Z M167.335938,595.929688 C165.942701,597.570321 163.963554,598.390625 161.398438,598.390625 C159.106759,598.390625 157.371751,597.720059 156.193359,596.378906 C155.014968,595.037754 154.425781,593.097669 154.425781,590.558594 L154.425781,576.867188 L159.171875,576.867188 L159.171875,590.5 C159.171875,593.182305 160.285145,594.523438 162.511719,594.523438 C164.816418,594.523438 166.372392,593.696623 167.179688,592.042969 L167.179688,576.867188 L171.925781,576.867188 L171.925781,598 L167.453125,598 L167.335938,595.929688 Z M181.222656,576.867188 L181.359375,579.074219 C182.843757,577.342439 184.874987,576.476562 187.453125,576.476562 C190.27866,576.476562 192.212234,577.557281 193.253906,579.71875 C194.790372,577.557281 196.951809,576.476562 199.738281,576.476562 C202.069022,576.476562 203.804031,577.121087 204.943359,578.410156 C206.082688,579.699225 206.665364,581.600248 206.691406,584.113281 L206.691406,598 L201.945312,598 L201.945312,584.25 C201.945312,582.908847 201.652347,581.925784 201.066406,581.300781 C200.480466,580.675778 199.510423,580.363281 198.15625,580.363281 C197.075515,580.363281 196.193363,580.652992 195.509766,581.232422 C194.826168,581.811852 194.347658,582.570308 194.074219,583.507812 L194.09375,598 L189.347656,598 L189.347656,584.09375 C189.282552,581.606758 188.013033,580.363281 185.539062,580.363281 C183.638011,580.363281 182.290369,581.138013 181.496094,582.6875 L181.496094,598 L176.75,598 L176.75,576.867188 L181.222656,576.867188 Z M230.109375,587.648438 C230.109375,590.929704 229.37696,593.540355 227.912109,595.480469 C226.447258,597.420583 224.432304,598.390625 221.867188,598.390625 C219.393217,598.390625 217.466153,597.498707 216.085938,595.714844 L215.851562,598 L211.554688,598 L211.554688,568 L216.300781,568 L216.300781,578.898438 C217.667976,577.283846 219.510405,576.476562 221.828125,576.476562 C224.406263,576.476562 226.430982,577.433584 227.902344,579.347656 C229.373705,581.261728 230.109375,583.937483 230.109375,587.375 L230.109375,587.648438 Z M225.363281,587.238281 C225.363281,584.946603 224.959639,583.22787 224.152344,582.082031 C223.345048,580.936192 222.173185,580.363281 220.636719,580.363281 C218.579417,580.363281 217.134119,581.26171 216.300781,583.058594 L216.300781,591.769531 C217.14714,593.605478 218.605458,594.523438 220.675781,594.523438 C222.160164,594.523438 223.305986,593.970058 224.113281,592.863281 C224.920577,591.756505 225.337239,590.083345 225.363281,587.84375 L225.363281,587.238281 Z M243.390625,598.390625 C240.382797,598.390625 237.944671,597.443369 236.076172,595.548828 C234.207673,593.654287 233.273438,591.131526 233.273438,587.980469 L233.273438,587.394531 C233.273438,585.285146 233.680334,583.400399 234.494141,581.740234 C235.307947,580.08007 236.450513,578.787765 237.921875,577.863281 C239.393237,576.938797 241.033845,576.476562 242.84375,576.476562 C245.721369,576.476562 247.944654,577.394522 249.513672,579.230469 C251.08269,581.066415 251.867188,583.664046 251.867188,587.023438 L251.867188,588.9375 L238.058594,588.9375 C238.201824,590.6823 238.7845,592.062495 239.806641,593.078125 C240.828781,594.093755 242.114576,594.601562 243.664062,594.601562 C245.838553,594.601562 247.609368,593.722665 248.976562,591.964844 L251.535156,594.40625 C250.688798,595.669277 249.559252,596.649085 248.146484,597.345703 C246.733717,598.042321 245.148446,598.390625 243.390625,598.390625 L243.390625,598.390625 Z M242.824219,580.285156 C241.522129,580.285156 240.470707,580.740881 239.669922,581.652344 C238.869137,582.563807 238.358074,583.833325 238.136719,585.460938 L247.179688,585.460938 L247.179688,585.109375 C247.07552,583.520825 246.652347,582.319666 245.910156,581.505859 C245.167965,580.692053 244.139329,580.285156 242.824219,580.285156 L242.824219,580.285156 Z M266.613281,581.203125 C265.988278,581.098958 265.343753,581.046875 264.679688,581.046875 C262.505197,581.046875 261.040368,581.8802 260.285156,583.546875 L260.285156,598 L255.539062,598 L255.539062,576.867188 L260.070312,576.867188 L260.1875,579.230469 C261.333339,577.394522 262.921865,576.476562 264.953125,576.476562 C265.630212,576.476562 266.190102,576.567707 266.632812,576.75 L266.613281,581.203125 Z M269.191406,593 C270.076827,593 270.760414,593.250649 271.242188,593.751953 C271.723961,594.253258 271.964844,594.881507 271.964844,595.636719 C271.964844,596.37891 271.723961,596.994138 271.242188,597.482422 C270.760414,597.970706 270.076827,598.214844 269.191406,598.214844 C268.345048,598.214844 267.674482,597.973961 267.179688,597.492188 C266.684893,597.010414 266.4375,596.391931 266.4375,595.636719 C266.4375,594.881507 266.678383,594.253258 267.160156,593.751953 C267.641929,593.250649 268.319006,593 269.191406,593 L269.191406,593 Z M282.453125,598 L277.707031,598 L277.707031,576.867188 L282.453125,576.867188 L282.453125,598 Z M277.414062,571.378906 C277.414062,570.649736 277.64518,570.044273 278.107422,569.5625 C278.569664,569.080727 279.230464,568.839844 280.089844,568.839844 C280.949223,568.839844 281.613279,569.080727 282.082031,569.5625 C282.550784,570.044273 282.785156,570.649736 282.785156,571.378906 C282.785156,572.095056 282.550784,572.690753 282.082031,573.166016 C281.613279,573.641278 280.949223,573.878906 280.089844,573.878906 C279.230464,573.878906 278.569664,573.641278 278.107422,573.166016 C277.64518,572.690753 277.414062,572.095056 277.414062,571.378906 L277.414062,571.378906 Z M286.730469,587.238281 C286.730469,585.167958 287.140621,583.302743 287.960938,581.642578 C288.781254,579.982414 289.933586,578.706385 291.417969,577.814453 C292.902351,576.922522 294.608063,576.476562 296.535156,576.476562 C299.386733,576.476562 301.701163,577.394522 303.478516,579.230469 C305.255868,581.066415 306.216145,583.501287 306.359375,586.535156 L306.378906,587.648438 C306.378906,589.731781 305.97852,591.593742 305.177734,593.234375 C304.376949,594.875008 303.231127,596.144527 301.740234,597.042969 C300.249342,597.941411 298.527354,598.390625 296.574219,598.390625 C293.592433,598.390625 291.206389,597.397796 289.416016,595.412109 C287.625642,593.426422 286.730469,590.779964 286.730469,587.472656 L286.730469,587.238281 Z M291.476562,587.648438 C291.476562,589.822928 291.925777,591.525384 292.824219,592.755859 C293.722661,593.986334 294.972648,594.601562 296.574219,594.601562 C298.175789,594.601562 299.422522,593.976569 300.314453,592.726562 C301.206385,591.476556 301.652344,589.647147 301.652344,587.238281 C301.652344,585.102854 301.193364,583.410162 300.275391,582.160156 C299.357417,580.91015 298.110685,580.285156 296.535156,580.285156 C294.985669,580.285156 293.755213,580.900384 292.84375,582.130859 C291.932287,583.361334 291.476562,585.200509 291.476562,587.648438 L291.476562,587.648438 Z M311.730469,600.441406 L308,600.441406 L319.191406,569.5625 L322.921875,569.5625 L311.730469,600.441406 Z M331.164062,576.867188 L331.164062,599.875 C331.164062,602.036469 330.626958,603.686843 329.552734,604.826172 C328.47851,605.9655 326.90626,606.535156 324.835938,606.535156 C323.963537,606.535156 323.123702,606.42448 322.316406,606.203125 L322.316406,602.453125 C322.8112,602.570313 323.371091,602.628906 323.996094,602.628906 C325.571622,602.628906 326.378906,601.76954 326.417969,600.050781 L326.417969,576.867188 L331.164062,576.867188 Z M326.007812,571.378906 C326.007812,570.649736 326.23893,570.044273 326.701172,569.5625 C327.163414,569.080727 327.824214,568.839844 328.683594,568.839844 C329.542973,568.839844 330.207029,569.080727 330.675781,569.5625 C331.144534,570.044273 331.378906,570.649736 331.378906,571.378906 C331.378906,572.095056 331.144534,572.690753 330.675781,573.166016 C330.207029,573.641278 329.542973,573.878906 328.683594,573.878906 C327.824214,573.878906 327.163414,573.641278 326.701172,573.166016 C326.23893,572.690753 326.007812,572.095056 326.007812,571.378906 L326.007812,571.378906 Z M354.777344,587.648438 C354.777344,590.929704 354.044929,593.540355 352.580078,595.480469 C351.115227,597.420583 349.100273,598.390625 346.535156,598.390625 C344.061186,598.390625 342.134121,597.498707 340.753906,595.714844 L340.519531,598 L336.222656,598 L336.222656,568 L340.96875,568 L340.96875,578.898438 C342.335944,577.283846 344.178374,576.476562 346.496094,576.476562 C349.074232,576.476562 351.098951,577.433584 352.570312,579.347656 C354.041674,581.261728 354.777344,583.937483 354.777344,587.375 L354.777344,587.648438 Z M350.03125,587.238281 C350.03125,584.946603 349.627608,583.22787 348.820312,582.082031 C348.013017,580.936192 346.841154,580.363281 345.304688,580.363281 C343.247386,580.363281 341.802088,581.26171 340.96875,583.058594 L340.96875,591.769531 C341.815108,593.605478 343.273427,594.523438 345.34375,594.523438 C346.828132,594.523438 347.973954,593.970058 348.78125,592.863281 C349.588546,591.756505 350.005208,590.083345 350.03125,587.84375 L350.03125,587.238281 Z" id="cucumber.io/jb" fill="#1B1D1E" sketch:type="MSShapeGroup"></path>
        </g>
    </g>
</svg>