<?xml version="1.0" encoding="UTF-8" standalone="no"?>
<svg width="1039px" height="697px" viewBox="0 0 1039 697" version="1.1" xmlns="http://www.w3.org/2000/svg" xmlns:xlink="http://www.w3.org/1999/xlink" xmlns:sketch="http://www.bohemiancoding.com/sketch/ns">
    <!-- Generator: Sketch 3.4.2 (15855) - http://www.bohemiancoding.com/sketch -->
    <title>Julien-Front</title>
    <desc>Created with Sketch.</desc>
    <defs></defs>
    <g id="Julien" stroke="none" stroke-width="1" fill="none" fill-rule="evenodd" sketch:type="MSPage">
        <g id="Julien-Front" sketch:type="MSArtboardGroup">
            <g id="Personal-Info" sketch:type="MSLayerGroup" transform="translate(476.000000, 420.000000)" fill="#000000">
                <path d="M130.421875,101.867188 L130.421875,125.441406 C130.421875,129.503927 128.579446,131.535156 124.894531,131.535156 C124.100256,131.535156 123.364587,131.41797 122.6875,131.183594 L122.6875,128.292969 C123.104169,128.397136 123.651038,128.449219 124.328125,128.449219 C125.135421,128.449219 125.750649,128.231122 126.173828,127.794922 C126.597007,127.358722 126.808594,126.600266 126.808594,125.519531 L126.808594,101.867188 L130.421875,101.867188 Z M126.4375,96.2617188 C126.4375,95.6887992 126.616535,95.1972677 126.974609,94.7871094 C127.332684,94.3769511 127.856767,94.171875 128.546875,94.171875 C129.250004,94.171875 129.783852,94.3736959 130.148438,94.7773438 C130.513023,95.1809916 130.695312,95.6757783 130.695312,96.2617188 C130.695312,96.8476592 130.513023,97.3359355 130.148438,97.7265625 C129.783852,98.1171895 129.250004,98.3125 128.546875,98.3125 C127.843746,98.3125 127.316408,98.1171895 126.964844,97.7265625 C126.613279,97.3359355 126.4375,96.8476592 126.4375,96.2617188 L126.4375,96.2617188 Z M149.289062,120.910156 C147.882805,122.56381 145.819024,123.390625 143.097656,123.390625 C140.845041,123.390625 139.129563,122.736335 137.951172,121.427734 C136.772781,120.119134 136.177083,118.182304 136.164062,115.617188 L136.164062,101.867188 L139.777344,101.867188 L139.777344,115.519531 C139.777344,118.722672 141.079414,120.324219 143.683594,120.324219 C146.444024,120.324219 148.279943,119.295583 149.191406,117.238281 L149.191406,101.867188 L152.804688,101.867188 L152.804688,123 L149.367188,123 L149.289062,120.910156 Z M162.21875,123 L158.605469,123 L158.605469,93 L162.21875,93 L162.21875,123 Z M171.925781,123 L168.3125,123 L168.3125,101.867188 L171.925781,101.867188 L171.925781,123 Z M168.019531,96.2617188 C168.019531,95.6757783 168.198566,95.1809916 168.556641,94.7773438 C168.914715,94.3736959 169.445309,94.171875 170.148438,94.171875 C170.851566,94.171875 171.385415,94.3736959 171.75,94.7773438 C172.114585,95.1809916 172.296875,95.6757783 172.296875,96.2617188 C172.296875,96.8476592 172.114585,97.3359355 171.75,97.7265625 C171.385415,98.1171895 170.851566,98.3125 170.148438,98.3125 C169.445309,98.3125 168.914715,98.1171895 168.556641,97.7265625 C168.198566,97.3359355 168.019531,96.8476592 168.019531,96.2617188 L168.019531,96.2617188 Z M186.476562,123.390625 C183.611965,123.390625 181.281259,122.449879 179.484375,120.568359 C177.687491,118.68684 176.789062,116.170589 176.789062,113.019531 L176.789062,112.355469 C176.789062,110.259104 177.189449,108.387378 177.990234,106.740234 C178.79102,105.093091 179.9108,103.804041 181.349609,102.873047 C182.788419,101.942053 184.347648,101.476562 186.027344,101.476562 C188.774753,101.476562 190.910149,102.381501 192.433594,104.191406 C193.957039,106.001311 194.71875,108.592431 194.71875,111.964844 L194.71875,113.46875 L180.402344,113.46875 C180.454427,115.552094 181.063145,117.23502 182.228516,118.517578 C183.393886,119.800137 184.874991,120.441406 186.671875,120.441406 C187.947923,120.441406 189.028641,120.180992 189.914062,119.660156 C190.799484,119.13932 191.574215,118.449223 192.238281,117.589844 L194.445312,119.308594 C192.67447,122.029962 190.018247,123.390625 186.476562,123.390625 L186.476562,123.390625 Z M186.027344,104.445312 C184.569003,104.445312 183.345057,104.975906 182.355469,106.037109 C181.36588,107.098313 180.753907,108.585928 180.519531,110.5 L191.105469,110.5 L191.105469,110.226562 C191.001302,108.390616 190.506515,106.968104 189.621094,105.958984 C188.735673,104.949865 187.537768,104.445312 186.027344,104.445312 L186.027344,104.445312 Z M202.316406,101.867188 L202.433594,104.523438 C204.048185,102.492177 206.157539,101.476562 208.761719,101.476562 C213.227887,101.476562 215.480469,103.996069 215.519531,109.035156 L215.519531,123 L211.90625,123 L211.90625,109.015625 C211.893229,107.49218 211.544925,106.365889 210.861328,105.636719 C210.177731,104.907548 209.113288,104.542969 207.667969,104.542969 C206.496088,104.542969 205.467452,104.855466 204.582031,105.480469 C203.69661,106.105472 203.006513,106.925776 202.511719,107.941406 L202.511719,123 L198.898438,123 L198.898438,101.867188 L202.316406,101.867188 Z M252.179688,113.195312 C252.023437,116.34637 251.242195,118.833324 249.835938,120.65625 C248.42968,122.479176 246.548189,123.390625 244.191406,123.390625 C241.756498,123.390625 240.194014,122.296886 239.503906,120.109375 C238.800778,121.216151 237.996749,122.039711 237.091797,122.580078 C236.186844,123.120445 235.252609,123.390625 234.289062,123.390625 C232.440095,123.390625 231.040369,122.635424 230.089844,121.125 C229.139318,119.614576 228.787759,117.524753 229.035156,114.855469 C229.23047,112.707021 229.722001,110.789722 230.509766,109.103516 C231.29753,107.417309 232.313145,106.092453 233.556641,105.128906 C234.800136,104.16536 236.105462,103.683594 237.472656,103.683594 C238.527349,103.683594 239.47135,103.823566 240.304688,104.103516 C241.138025,104.383465 242.075516,104.93359 243.117188,105.753906 L242.101562,116.574219 C241.854165,119.582046 242.68749,121.085938 244.601562,121.085938 C246.072924,121.085938 247.264318,120.356778 248.175781,118.898438 C249.087244,117.440097 249.582031,115.539074 249.660156,113.195312 C249.907553,108.130183 248.966808,104.269545 246.837891,101.613281 C244.708974,98.957018 241.470074,97.6289062 237.121094,97.6289062 C234.503893,97.6289062 232.179698,98.2766862 230.148438,99.5722656 C228.117177,100.867845 226.515631,102.739571 225.34375,105.1875 C224.171869,107.635429 223.514324,110.460921 223.371094,113.664062 C223.214843,116.893245 223.605464,119.695952 224.542969,122.072266 C225.480473,124.44858 226.909496,126.264968 228.830078,127.521484 C230.750661,128.778001 233.071601,129.40625 235.792969,129.40625 C236.96485,129.40625 238.139968,129.263022 239.318359,128.976562 C240.496751,128.690103 241.476559,128.319013 242.257812,127.863281 L242.980469,130.109375 C242.173173,130.61719 241.10222,131.033853 239.767578,131.359375 C238.432936,131.684897 237.082038,131.847656 235.714844,131.847656 C232.459619,131.847656 229.660168,131.115242 227.316406,129.650391 C224.972645,128.18554 223.218105,126.076186 222.052734,123.322266 C220.887364,120.568346 220.382812,117.348977 220.539062,113.664062 C220.695313,110.083315 221.496087,106.863947 222.941406,104.005859 C224.386726,101.147772 226.346342,98.940763 228.820312,97.3847656 C231.294283,95.8287683 234.087224,95.0507812 237.199219,95.0507812 C240.441422,95.0507812 243.221343,95.7799406 245.539062,97.2382812 C247.856782,98.6966219 249.582026,100.799465 250.714844,103.546875 C251.847662,106.294285 252.335938,109.510398 252.179688,113.195312 L252.179688,113.195312 Z M232.140625,114.855469 C231.958332,116.704436 232.130857,118.123693 232.658203,119.113281 C233.18555,120.10287 234.02213,120.597656 235.167969,120.597656 C235.949223,120.597656 236.701168,120.265628 237.423828,119.601562 C238.146488,118.937497 238.742185,117.986985 239.210938,116.75 L239.230469,116.574219 L240.128906,106.75 C239.399736,106.372394 238.618494,106.183594 237.785156,106.183594 C236.261711,106.183594 235.001958,106.958326 234.005859,108.507812 C233.009761,110.057299 232.388022,112.173164 232.140625,114.855469 L232.140625,114.855469 Z M265.363281,120.441406 C266.65235,120.441406 267.778641,120.050785 268.742188,119.269531 C269.705734,118.488277 270.239583,117.511725 270.34375,116.339844 L273.761719,116.339844 C273.696614,117.550787 273.279952,118.70312 272.511719,119.796875 C271.743486,120.89063 270.718105,121.763018 269.435547,122.414062 C268.152988,123.065107 266.79558,123.390625 265.363281,123.390625 C262.485663,123.390625 260.197274,122.430348 258.498047,120.509766 C256.79882,118.589183 255.949219,115.962256 255.949219,112.628906 L255.949219,112.023438 C255.949219,109.966136 256.326819,108.136727 257.082031,106.535156 C257.837243,104.933586 258.921217,103.690109 260.333984,102.804688 C261.746752,101.919266 263.416657,101.476562 265.34375,101.476562 C267.713554,101.476562 269.682935,102.186191 271.251953,103.605469 C272.820971,105.024747 273.657552,106.867176 273.761719,109.132812 L270.34375,109.132812 C270.239583,107.765618 269.72201,106.642583 268.791016,105.763672 C267.860021,104.884761 266.710944,104.445312 265.34375,104.445312 C263.507803,104.445312 262.085292,105.106113 261.076172,106.427734 C260.067052,107.749356 259.5625,109.660144 259.5625,112.160156 L259.5625,112.84375 C259.5625,115.278658 260.063797,117.153639 261.066406,118.46875 C262.069015,119.783861 263.501293,120.441406 265.363281,120.441406 L265.363281,120.441406 Z M290.871094,120.910156 C289.464837,122.56381 287.401055,123.390625 284.679688,123.390625 C282.427072,123.390625 280.711594,122.736335 279.533203,121.427734 C278.354812,120.119134 277.759115,118.182304 277.746094,115.617188 L277.746094,101.867188 L281.359375,101.867188 L281.359375,115.519531 C281.359375,118.722672 282.661445,120.324219 285.265625,120.324219 C288.026055,120.324219 289.861975,119.295583 290.773438,117.238281 L290.773438,101.867188 L294.386719,101.867188 L294.386719,123 L290.949219,123 L290.871094,120.910156 Z M308.351562,120.441406 C309.640631,120.441406 310.766922,120.050785 311.730469,119.269531 C312.694015,118.488277 313.227864,117.511725 313.332031,116.339844 L316.75,116.339844 C316.684896,117.550787 316.268233,118.70312 315.5,119.796875 C314.731767,120.89063 313.706387,121.763018 312.423828,122.414062 C311.14127,123.065107 309.783861,123.390625 308.351562,123.390625 C305.473944,123.390625 303.185555,122.430348 301.486328,120.509766 C299.787101,118.589183 298.9375,115.962256 298.9375,112.628906 L298.9375,112.023438 C298.9375,109.966136 299.3151,108.136727 300.070312,106.535156 C300.825525,104.933586 301.909498,103.690109 303.322266,102.804688 C304.735033,101.919266 306.404938,101.476562 308.332031,101.476562 C310.701835,101.476562 312.671216,102.186191 314.240234,103.605469 C315.809253,105.024747 316.645833,106.867176 316.75,109.132812 L313.332031,109.132812 C313.227864,107.765618 312.710291,106.642583 311.779297,105.763672 C310.848303,104.884761 309.699226,104.445312 308.332031,104.445312 C306.496085,104.445312 305.073573,105.106113 304.064453,106.427734 C303.055333,107.749356 302.550781,109.660144 302.550781,112.160156 L302.550781,112.84375 C302.550781,115.278658 303.052078,117.153639 304.054688,118.46875 C305.057297,119.783861 306.489574,120.441406 308.351562,120.441406 L308.351562,120.441406 Z M333.859375,120.910156 C332.453118,122.56381 330.389337,123.390625 327.667969,123.390625 C325.415353,123.390625 323.699876,122.736335 322.521484,121.427734 C321.343093,120.119134 320.747396,118.182304 320.734375,115.617188 L320.734375,101.867188 L324.347656,101.867188 L324.347656,115.519531 C324.347656,118.722672 325.649727,120.324219 328.253906,120.324219 C331.014337,120.324219 332.850256,119.295583 333.761719,117.238281 L333.761719,101.867188 L337.375,101.867188 L337.375,123 L333.9375,123 L333.859375,120.910156 Z M346.261719,101.867188 L346.359375,104.210938 C347.908862,102.388012 349.998685,101.476562 352.628906,101.476562 C355.58465,101.476562 357.596349,102.609364 358.664062,104.875 C359.367191,103.85937 360.281895,103.039066 361.408203,102.414062 C362.534511,101.789059 363.865878,101.476562 365.402344,101.476562 C370.037784,101.476562 372.394531,103.930965 372.472656,108.839844 L372.472656,123 L368.859375,123 L368.859375,109.054688 C368.859375,107.544263 368.514326,106.414717 367.824219,105.666016 C367.134111,104.917314 365.975269,104.542969 364.347656,104.542969 C363.006504,104.542969 361.893234,104.943355 361.007812,105.744141 C360.122391,106.544926 359.608074,107.622389 359.464844,108.976562 L359.464844,123 L355.832031,123 L355.832031,109.152344 C355.832031,106.079412 354.32814,104.542969 351.320312,104.542969 C348.950509,104.542969 347.329431,105.552073 346.457031,107.570312 L346.457031,123 L342.84375,123 L342.84375,101.867188 L346.261719,101.867188 Z M395.8125,112.667969 C395.8125,115.897152 395.07032,118.491527 393.585938,120.451172 C392.101555,122.410817 390.109388,123.390625 387.609375,123.390625 C384.940091,123.390625 382.876309,122.446624 381.417969,120.558594 L381.242188,123 L377.921875,123 L377.921875,93 L381.535156,93 L381.535156,104.191406 C382.993497,102.381501 385.005196,101.476562 387.570312,101.476562 C390.135429,101.476562 392.150383,102.446605 393.615234,104.386719 C395.080085,106.326833 395.8125,108.983056 395.8125,112.355469 L395.8125,112.667969 Z M392.199219,112.257812 C392.199219,109.796863 391.723963,107.89584 390.773438,106.554688 C389.822912,105.213535 388.455738,104.542969 386.671875,104.542969 C384.289051,104.542969 382.576828,105.649729 381.535156,107.863281 L381.535156,117.003906 C382.641933,119.217459 384.367176,120.324219 386.710938,120.324219 C388.442717,120.324219 389.79036,119.653653 390.753906,118.3125 C391.717453,116.971347 392.199219,114.953138 392.199219,112.257812 L392.199219,112.257812 Z M409.132812,123.390625 C406.268215,123.390625 403.937509,122.449879 402.140625,120.568359 C400.343741,118.68684 399.445312,116.170589 399.445312,113.019531 L399.445312,112.355469 C399.445312,110.259104 399.845699,108.387378 400.646484,106.740234 C401.44727,105.093091 402.56705,103.804041 404.005859,102.873047 C405.444669,101.942053 407.003898,101.476562 408.683594,101.476562 C411.431003,101.476562 413.566399,102.381501 415.089844,104.191406 C416.613289,106.001311 417.375,108.592431 417.375,111.964844 L417.375,113.46875 L403.058594,113.46875 C403.110677,115.552094 403.719395,117.23502 404.884766,118.517578 C406.050136,119.800137 407.531241,120.441406 409.328125,120.441406 C410.604173,120.441406 411.684891,120.180992 412.570312,119.660156 C413.455734,119.13932 414.230465,118.449223 414.894531,117.589844 L417.101562,119.308594 C415.33072,122.029962 412.674497,123.390625 409.132812,123.390625 L409.132812,123.390625 Z M408.683594,104.445312 C407.225253,104.445312 406.001307,104.975906 405.011719,106.037109 C404.02213,107.098313 403.410157,108.585928 403.175781,110.5 L413.761719,110.5 L413.761719,110.226562 C413.657552,108.390616 413.162765,106.968104 412.277344,105.958984 C411.391923,104.949865 410.194018,104.445312 408.683594,104.445312 L408.683594,104.445312 Z M431.769531,105.109375 C431.222654,105.018229 430.630212,104.972656 429.992188,104.972656 C427.622384,104.972656 426.014327,105.981761 425.167969,108 L425.167969,123 L421.554688,123 L421.554688,101.867188 L425.070312,101.867188 L425.128906,104.308594 C426.313808,102.420563 427.993479,101.476562 430.167969,101.476562 C430.871097,101.476562 431.404946,101.567707 431.769531,101.75 L431.769531,105.109375 Z M432.765625,121.105469 C432.765625,120.480466 432.95117,119.959637 433.322266,119.542969 C433.693361,119.1263 434.249996,118.917969 434.992188,118.917969 C435.734379,118.917969 436.297524,119.1263 436.681641,119.542969 C437.065757,119.959637 437.257812,120.480466 437.257812,121.105469 C437.257812,121.70443 437.065757,122.205727 436.681641,122.609375 C436.297524,123.013023 435.734379,123.214844 434.992188,123.214844 C434.249996,123.214844 433.693361,123.013023 433.322266,122.609375 C432.95117,122.205727 432.765625,121.70443 432.765625,121.105469 L432.765625,121.105469 Z M447.140625,123 L443.527344,123 L443.527344,101.867188 L447.140625,101.867188 L447.140625,123 Z M443.234375,96.2617188 C443.234375,95.6757783 443.41341,95.1809916 443.771484,94.7773438 C444.129559,94.3736959 444.660153,94.171875 445.363281,94.171875 C446.06641,94.171875 446.600259,94.3736959 446.964844,94.7773438 C447.329429,95.1809916 447.511719,95.6757783 447.511719,96.2617188 C447.511719,96.8476592 447.329429,97.3359355 446.964844,97.7265625 C446.600259,98.1171895 446.06641,98.3125 445.363281,98.3125 C444.660153,98.3125 444.129559,98.1171895 443.771484,97.7265625 C443.41341,97.3359355 443.234375,96.8476592 443.234375,96.2617188 L443.234375,96.2617188 Z M451.964844,112.238281 C451.964844,110.167958 452.371741,108.305998 453.185547,106.652344 C453.999353,104.99869 455.132154,103.722661 456.583984,102.824219 C458.035815,101.925777 459.692699,101.476562 461.554688,101.476562 C464.432306,101.476562 466.759757,102.472646 468.537109,104.464844 C470.314462,106.457041 471.203125,109.106754 471.203125,112.414062 L471.203125,112.667969 C471.203125,114.725271 470.809249,116.570955 470.021484,118.205078 C469.23372,119.839201 468.107429,121.111975 466.642578,122.023438 C465.177727,122.9349 463.494801,123.390625 461.59375,123.390625 C458.729152,123.390625 456.408212,122.394541 454.630859,120.402344 C452.853507,118.410146 451.964844,115.773454 451.964844,112.492188 L451.964844,112.238281 Z M455.597656,112.667969 C455.597656,115.01173 456.141271,116.893222 457.228516,118.3125 C458.315761,119.731778 459.770824,120.441406 461.59375,120.441406 C463.429697,120.441406 464.888015,119.722012 465.96875,118.283203 C467.049485,116.844394 467.589844,114.82944 467.589844,112.238281 C467.589844,109.920561 467.039719,108.042325 465.939453,106.603516 C464.839187,105.164706 463.377613,104.445312 461.554688,104.445312 C459.770824,104.445312 458.332037,105.154941 457.238281,106.574219 C456.144526,107.993497 455.597656,110.024726 455.597656,112.667969 L455.597656,112.667969 Z M176.730469,161.746094 L184.660156,161.746094 L184.660156,165.164062 L176.730469,165.164062 L176.730469,174.148438 L173.097656,174.148438 L173.097656,165.164062 L165.167969,165.164062 L165.167969,161.746094 L173.097656,161.746094 L173.097656,153.445312 L176.730469,153.445312 L176.730469,161.746094 Z M193.9375,161.023438 L196.652344,161.023438 C198.358081,160.997396 199.699214,160.548181 200.675781,159.675781 C201.652349,158.803381 202.140625,157.625007 202.140625,156.140625 C202.140625,152.807275 200.480485,151.140625 197.160156,151.140625 C195.597648,151.140625 194.350916,151.586584 193.419922,152.478516 C192.488928,153.370447 192.023438,154.552076 192.023438,156.023438 L188.410156,156.023438 C188.410156,153.770822 189.233716,151.899096 190.880859,150.408203 C192.528003,148.91731 194.621081,148.171875 197.160156,148.171875 C199.842461,148.171875 201.945305,148.881503 203.46875,150.300781 C204.992195,151.720059 205.753906,153.692696 205.753906,156.21875 C205.753906,157.455735 205.35352,158.65364 204.552734,159.8125 C203.751949,160.97136 202.661465,161.837237 201.28125,162.410156 C202.843758,162.90495 204.051428,163.725255 204.904297,164.871094 C205.757166,166.016933 206.183594,167.416658 206.183594,169.070312 C206.183594,171.622409 205.350269,173.647128 203.683594,175.144531 C202.016919,176.641935 199.848972,177.390625 197.179688,177.390625 C194.510403,177.390625 192.339201,176.667976 190.666016,175.222656 C188.99283,173.777337 188.15625,171.869804 188.15625,169.5 L191.789062,169.5 C191.789062,170.997403 192.277339,172.195308 193.253906,173.09375 C194.230474,173.992192 195.539054,174.441406 197.179688,174.441406 C198.924488,174.441406 200.25911,173.985682 201.183594,173.074219 C202.108078,172.162756 202.570312,170.854175 202.570312,169.148438 C202.570312,167.494783 202.062505,166.225265 201.046875,165.339844 C200.031245,164.454423 198.566416,163.998698 196.652344,163.972656 L193.9375,163.972656 L193.9375,161.023438 Z M229.777344,177 L211.144531,177 L211.144531,174.402344 L220.988281,163.464844 C222.446622,161.81119 223.452471,160.466802 224.005859,159.431641 C224.559248,158.396479 224.835938,157.325526 224.835938,156.21875 C224.835938,154.734368 224.386723,153.516932 223.488281,152.566406 C222.589839,151.615881 221.391935,151.140625 219.894531,151.140625 C218.097647,151.140625 216.701177,151.651688 215.705078,152.673828 C214.708979,153.695969 214.210938,155.11848 214.210938,156.941406 L210.597656,156.941406 C210.597656,154.324206 211.440747,152.208341 213.126953,150.59375 C214.813159,148.979159 217.068996,148.171875 219.894531,148.171875 C222.537774,148.171875 224.627596,148.865227 226.164062,150.251953 C227.700529,151.638679 228.46875,153.484363 228.46875,155.789062 C228.46875,158.588556 226.684914,161.921856 223.117188,165.789062 L215.5,174.050781 L229.777344,174.050781 L229.777344,177 Z M258.761719,167.449219 L262.707031,167.449219 L262.707031,170.398438 L258.761719,170.398438 L258.761719,177 L255.128906,177 L255.128906,170.398438 L242.179688,170.398438 L242.179688,168.269531 L254.914062,148.5625 L258.761719,148.5625 L258.761719,167.449219 Z M246.28125,167.449219 L255.128906,167.449219 L255.128906,153.503906 L254.699219,154.285156 L246.28125,167.449219 Z M279.816406,164.5 C279.061194,165.398442 278.15951,166.121091 277.111328,166.667969 C276.063146,167.214846 274.914069,167.488281 273.664062,167.488281 C272.023429,167.488281 270.594407,167.084639 269.376953,166.277344 C268.159499,165.470048 267.218753,164.333992 266.554688,162.869141 C265.890622,161.40429 265.558594,159.786467 265.558594,158.015625 C265.558594,156.114574 265.919918,154.402351 266.642578,152.878906 C267.365238,151.355461 268.390618,150.190108 269.71875,149.382812 C271.046882,148.575517 272.596345,148.171875 274.367188,148.171875 C277.179702,148.171875 279.396476,149.223297 281.017578,151.326172 C282.63868,153.429047 283.449219,156.296857 283.449219,159.929688 L283.449219,160.984375 C283.449219,166.518257 282.35548,170.55793 280.167969,173.103516 C277.980458,175.649101 274.67971,176.954427 270.265625,177.019531 L269.5625,177.019531 L269.5625,173.972656 L270.324219,173.972656 C273.306004,173.920573 275.597648,173.142586 277.199219,171.638672 C278.800789,170.134758 279.673176,167.755225 279.816406,164.5 L279.816406,164.5 Z M274.25,164.5 C275.460944,164.5 276.577469,164.12891 277.599609,163.386719 C278.62175,162.644528 279.367185,161.726568 279.835938,160.632812 L279.835938,159.1875 C279.835938,156.817696 279.32162,154.890632 278.292969,153.40625 C277.264318,151.921868 275.962247,151.179688 274.386719,151.179688 C272.798169,151.179688 271.52214,151.788405 270.558594,153.005859 C269.595047,154.223313 269.113281,155.828115 269.113281,157.820312 C269.113281,159.760426 269.578771,161.358718 270.509766,162.615234 C271.44076,163.871751 272.687492,164.5 274.25,164.5 L274.25,164.5 Z M290.089844,162.742188 L291.535156,148.5625 L306.105469,148.5625 L306.105469,151.902344 L294.601562,151.902344 L293.742188,159.65625 C295.135424,158.835933 296.717439,158.425781 298.488281,158.425781 C301.07944,158.425781 303.136711,159.281892 304.660156,160.994141 C306.183601,162.706389 306.945312,165.020819 306.945312,167.9375 C306.945312,170.867202 306.154305,173.175122 304.572266,174.861328 C302.990226,176.547534 300.779962,177.390625 297.941406,177.390625 C295.428373,177.390625 293.377612,176.694017 291.789062,175.300781 C290.200513,173.907545 289.295574,171.980481 289.074219,169.519531 L292.492188,169.519531 C292.713543,171.147144 293.292964,172.374345 294.230469,173.201172 C295.167973,174.027999 296.40494,174.441406 297.941406,174.441406 C299.621102,174.441406 300.939448,173.868495 301.896484,172.722656 C302.85352,171.576817 303.332031,169.994802 303.332031,167.976562 C303.332031,166.075511 302.814458,164.548834 301.779297,163.396484 C300.744135,162.244135 299.367196,161.667969 297.648438,161.667969 C296.072909,161.667969 294.835942,162.013017 293.9375,162.703125 L292.980469,163.484375 L290.089844,162.742188 Z M334.972656,148.542969 L334.972656,151.609375 L334.308594,151.609375 C331.49608,151.661459 329.256519,152.494784 327.589844,154.109375 C325.923169,155.723966 324.959637,157.996079 324.699219,160.925781 C326.196622,159.207023 328.240872,158.347656 330.832031,158.347656 C333.306002,158.347656 335.281894,159.220043 336.759766,160.964844 C338.237638,162.709644 338.976562,164.962226 338.976562,167.722656 C338.976562,170.652358 338.179044,172.996085 336.583984,174.753906 C334.988924,176.511728 332.850274,177.390625 330.167969,177.390625 C327.446601,177.390625 325.239592,176.345714 323.546875,174.255859 C321.854158,172.166005 321.007812,169.473975 321.007812,166.179688 L321.007812,164.792969 C321.007812,159.558568 322.124338,155.557957 324.357422,152.791016 C326.590506,150.024075 329.91404,148.608073 334.328125,148.542969 L334.972656,148.542969 Z M330.226562,161.355469 C328.989577,161.355469 327.850266,161.726559 326.808594,162.46875 C325.766922,163.210941 325.044273,164.141921 324.640625,165.261719 L324.640625,166.589844 C324.640625,168.933605 325.167963,170.821607 326.222656,172.253906 C327.277349,173.686205 328.59244,174.402344 330.167969,174.402344 C331.795581,174.402344 333.074865,173.803391 334.005859,172.605469 C334.936854,171.407546 335.402344,169.838551 335.402344,167.898438 C335.402344,165.945303 334.930343,164.366542 333.986328,163.162109 C333.042313,161.957676 331.78907,161.355469 330.226562,161.355469 L330.226562,161.355469 Z M361.085938,164.871094 C361.085938,169.102886 360.363288,172.247386 358.917969,174.304688 C357.472649,176.361989 355.213557,177.390625 352.140625,177.390625 C349.106756,177.390625 346.860684,176.384776 345.402344,174.373047 C343.944003,172.361318 343.188802,169.356791 343.136719,165.359375 L343.136719,160.535156 C343.136719,156.355448 343.859368,153.25001 345.304688,151.21875 C346.750007,149.18749 349.01561,148.171875 352.101562,148.171875 C355.161474,148.171875 357.414055,149.151683 358.859375,151.111328 C360.304695,153.070973 361.046875,156.095032 361.085938,160.183594 L361.085938,164.871094 Z M357.472656,159.929688 C357.472656,156.869776 357.042973,154.639981 356.183594,153.240234 C355.324214,151.840488 353.963551,151.140625 352.101562,151.140625 C350.252595,151.140625 348.904952,151.837233 348.058594,153.230469 C347.212235,154.623705 346.776042,156.765611 346.75,159.65625 L346.75,165.4375 C346.75,168.510432 347.195959,170.77929 348.087891,172.244141 C348.979822,173.708992 350.33072,174.441406 352.140625,174.441406 C353.924488,174.441406 355.249345,173.751309 356.115234,172.371094 C356.981124,170.990879 357.433594,168.816421 357.472656,165.847656 L357.472656,159.929688 Z M380.871094,161.023438 L383.585938,161.023438 C385.291675,160.997396 386.632808,160.548181 387.609375,159.675781 C388.585942,158.803381 389.074219,157.625007 389.074219,156.140625 C389.074219,152.807275 387.414079,151.140625 384.09375,151.140625 C382.531242,151.140625 381.28451,151.586584 380.353516,152.478516 C379.422521,153.370447 378.957031,154.552076 378.957031,156.023438 L375.34375,156.023438 C375.34375,153.770822 376.167309,151.899096 377.814453,150.408203 C379.461597,148.91731 381.554675,148.171875 384.09375,148.171875 C386.776055,148.171875 388.878899,148.881503 390.402344,150.300781 C391.925789,151.720059 392.6875,153.692696 392.6875,156.21875 C392.6875,157.455735 392.287113,158.65364 391.486328,159.8125 C390.685543,160.97136 389.595059,161.837237 388.214844,162.410156 C389.777352,162.90495 390.985022,163.725255 391.837891,164.871094 C392.690759,166.016933 393.117188,167.416658 393.117188,169.070312 C393.117188,171.622409 392.283862,173.647128 390.617188,175.144531 C388.950513,176.641935 386.782565,177.390625 384.113281,177.390625 C381.443997,177.390625 379.272795,176.667976 377.599609,175.222656 C375.926424,173.777337 375.089844,171.869804 375.089844,169.5 L378.722656,169.5 C378.722656,170.997403 379.210933,172.195308 380.1875,173.09375 C381.164067,173.992192 382.472648,174.441406 384.113281,174.441406 C385.858082,174.441406 387.192704,173.985682 388.117188,173.074219 C389.041671,172.162756 389.503906,170.854175 389.503906,169.148438 C389.503906,167.494783 388.996099,166.225265 387.980469,165.339844 C386.964839,164.454423 385.50001,163.998698 383.585938,163.972656 L380.871094,163.972656 L380.871094,161.023438 Z M416.710938,177 L398.078125,177 L398.078125,174.402344 L407.921875,163.464844 C409.380216,161.81119 410.386065,160.466802 410.939453,159.431641 C411.492841,158.396479 411.769531,157.325526 411.769531,156.21875 C411.769531,154.734368 411.320317,153.516932 410.421875,152.566406 C409.523433,151.615881 408.325528,151.140625 406.828125,151.140625 C405.031241,151.140625 403.634771,151.651688 402.638672,152.673828 C401.642573,153.695969 401.144531,155.11848 401.144531,156.941406 L397.53125,156.941406 C397.53125,154.324206 398.374341,152.208341 400.060547,150.59375 C401.746753,148.979159 404.00259,148.171875 406.828125,148.171875 C409.471367,148.171875 411.56119,148.865227 413.097656,150.251953 C414.634122,151.638679 415.402344,153.484363 415.402344,155.789062 C415.402344,158.588556 413.618507,161.921856 410.050781,165.789062 L402.433594,174.050781 L416.710938,174.050781 L416.710938,177 Z M448.800781,150.59375 L437.023438,177 L433.234375,177 L444.972656,151.53125 L429.582031,151.53125 L429.582031,148.5625 L448.800781,148.5625 L448.800781,150.59375 Z M466.75,164.5 C465.994788,165.398442 465.093104,166.121091 464.044922,166.667969 C462.99674,167.214846 461.847662,167.488281 460.597656,167.488281 C458.957023,167.488281 457.528001,167.084639 456.310547,166.277344 C455.093093,165.470048 454.152347,164.333992 453.488281,162.869141 C452.824215,161.40429 452.492188,159.786467 452.492188,158.015625 C452.492188,156.114574 452.853512,154.402351 453.576172,152.878906 C454.298832,151.355461 455.324212,150.190108 456.652344,149.382812 C457.980475,148.575517 459.529939,148.171875 461.300781,148.171875 C464.113295,148.171875 466.33007,149.223297 467.951172,151.326172 C469.572274,153.429047 470.382812,156.296857 470.382812,159.929688 L470.382812,160.984375 C470.382812,166.518257 469.289073,170.55793 467.101562,173.103516 C464.914052,175.649101 461.613303,176.954427 457.199219,177.019531 L456.496094,177.019531 L456.496094,173.972656 L457.257812,173.972656 C460.239598,173.920573 462.531242,173.142586 464.132812,171.638672 C465.734383,170.134758 466.60677,167.755225 466.75,164.5 L466.75,164.5 Z M461.183594,164.5 C462.394537,164.5 463.511063,164.12891 464.533203,163.386719 C465.555344,162.644528 466.300779,161.726568 466.769531,160.632812 L466.769531,159.1875 C466.769531,156.817696 466.255213,154.890632 465.226562,153.40625 C464.197912,151.921868 462.895841,151.179688 461.320312,151.179688 C459.731763,151.179688 458.455734,151.788405 457.492188,153.005859 C456.528641,154.223313 456.046875,155.828115 456.046875,157.820312 C456.046875,159.760426 456.512365,161.358718 457.443359,162.615234 C458.374354,163.871751 459.621086,164.5 461.183594,164.5 L461.183594,164.5 Z" id="-julien@cucumber.io" sketch:type="MSShapeGroup"></path>
                <path d="M20.7148438,2.34375 L28.0976562,2.34375 L28.0976562,32.2558594 C28.0976562,36.337911 26.8232549,39.5800661 24.2744141,41.9824219 C21.7255732,44.3847776 18.361349,45.5859375 14.1816406,45.5859375 C9.72849336,45.5859375 6.29102773,44.4629019 3.86914062,42.2167969 C1.44725352,39.9706919 0.236328125,36.8457231 0.236328125,32.8417969 L7.61914063,32.8417969 C7.61914063,35.1074332 8.18065845,36.8115177 9.30371094,37.9541016 C10.4267634,39.0966854 12.0527237,39.6679688 14.1816406,39.6679688 C16.1738381,39.6679688 17.7607363,39.0087957 18.9423828,37.6904297 C20.1240293,36.3720637 20.7148438,34.5507929 20.7148438,32.2265625 L20.7148438,2.34375 Z M55.0800781,41.8945312 C52.9902239,44.3554811 50.0215036,45.5859375 46.1738281,45.5859375 C42.7363109,45.5859375 40.1337979,44.5800882 38.3662109,42.5683594 C36.598624,40.5566306 35.7148438,37.6465034 35.7148438,33.8378906 L35.7148438,13.3007812 L42.8339844,13.3007812 L42.8339844,33.75 C42.8339844,37.7734576 44.5038896,39.7851562 47.84375,39.7851562 C51.3007985,39.7851562 53.6347596,38.5449343 54.8457031,36.0644531 L54.8457031,13.3007812 L61.9648438,13.3007812 L61.9648438,45 L55.2558594,45 L55.0800781,41.8945312 Z M76.7890625,45 L69.6699219,45 L69.6699219,0 L76.7890625,0 L76.7890625,45 Z M92.1113281,45 L84.9921875,45 L84.9921875,13.3007812 L92.1113281,13.3007812 L92.1113281,45 Z M84.5527344,5.06835938 C84.5527344,3.97460391 84.8994106,3.06640986 85.5927734,2.34375 C86.2861363,1.62109014 87.2773373,1.25976562 88.5664062,1.25976562 C89.8554752,1.25976562 90.851559,1.62109014 91.5546875,2.34375 C92.257816,3.06640986 92.609375,3.97460391 92.609375,5.06835938 C92.609375,6.1425835 92.257816,7.03612925 91.5546875,7.74902344 C90.851559,8.46191763 89.8554752,8.81835938 88.5664062,8.81835938 C87.2773373,8.81835938 86.2861363,8.46191763 85.5927734,7.74902344 C84.8994106,7.03612925 84.5527344,6.1425835 84.5527344,5.06835938 L84.5527344,5.06835938 Z M113.820312,45.5859375 C109.308571,45.5859375 105.651381,44.1650533 102.848633,41.3232422 C100.045884,38.4814311 98.6445312,34.6972893 98.6445312,29.9707031 L98.6445312,29.0917969 C98.6445312,25.9277186 99.2548767,23.1005984 100.475586,20.6103516 C101.696295,18.1201047 103.410145,16.1816476 105.617188,14.7949219 C107.82423,13.4081962 110.285143,12.7148438 113,12.7148438 C117.316428,12.7148438 120.651355,14.0917831 123.004883,16.8457031 C125.35841,19.5996231 126.535156,23.4960686 126.535156,28.5351562 L126.535156,31.40625 L105.822266,31.40625 C106.03711,34.0234506 106.911125,36.0937424 108.444336,37.6171875 C109.977547,39.1406326 111.906238,39.9023438 114.230469,39.9023438 C117.492204,39.9023438 120.148427,38.5839976 122.199219,35.9472656 L126.037109,39.609375 C124.767572,41.5039157 123.073253,42.9736276 120.954102,44.0185547 C118.83495,45.0634818 116.457044,45.5859375 113.820312,45.5859375 L113.820312,45.5859375 Z M112.970703,18.4277344 C111.017568,18.4277344 109.440436,19.1113213 108.239258,20.4785156 C107.03808,21.84571 106.271486,23.7499878 105.939453,26.1914062 L119.503906,26.1914062 L119.503906,25.6640625 C119.347655,23.2812381 118.712896,21.4794983 117.599609,20.2587891 C116.486323,19.0380798 114.943369,18.4277344 112.970703,18.4277344 L112.970703,18.4277344 Z M138.664062,13.3007812 L138.869141,16.9628906 C141.212902,14.1308452 144.289043,12.7148438 148.097656,12.7148438 C154.699252,12.7148438 158.058593,16.4941028 158.175781,24.0527344 L158.175781,45 L151.056641,45 L151.056641,24.4628906 C151.056641,22.4511618 150.622075,20.9619189 149.75293,19.9951172 C148.883785,19.0283155 147.4629,18.5449219 145.490234,18.5449219 C142.619126,18.5449219 140.480476,19.843737 139.074219,22.4414062 L139.074219,45 L131.955078,45 L131.955078,13.3007812 L138.664062,13.3007812 Z M181.056641,45 L181.056641,2.34375 L195.675781,2.34375 C200.500024,2.34375 204.171862,3.31053721 206.691406,5.24414062 C209.21095,7.17774404 210.470703,10.0585746 210.470703,13.8867188 C210.470703,15.8398535 209.943365,17.5976484 208.888672,19.1601562 C207.833979,20.7226641 206.291026,21.9335895 204.259766,22.7929688 C206.564465,23.4179719 208.346673,24.5947179 209.606445,26.3232422 C210.866217,28.0517665 211.496094,30.126941 211.496094,32.5488281 C211.496094,36.5527544 210.211927,39.6288955 207.643555,41.7773438 C205.075182,43.925792 201.398461,45 196.613281,45 L181.056641,45 Z M188.46875,25.7519531 L188.46875,39.0820312 L196.701172,39.0820312 C199.025402,39.0820312 200.84179,38.5058651 202.150391,37.3535156 C203.458991,36.2011661 204.113281,34.5996196 204.113281,32.5488281 C204.113281,28.1152122 201.847679,25.8496099 197.316406,25.7519531 L188.46875,25.7519531 Z M188.46875,20.3027344 L195.734375,20.3027344 C198.039074,20.3027344 199.840814,19.7802787 201.139648,18.7353516 C202.438483,17.6904245 203.087891,16.2109471 203.087891,14.296875 C203.087891,12.1874895 202.487311,10.6640672 201.286133,9.7265625 C200.084955,8.78905781 198.214856,8.3203125 195.675781,8.3203125 L188.46875,8.3203125 L188.46875,20.3027344 Z M225.792969,45 L218.673828,45 L218.673828,13.3007812 L225.792969,13.3007812 L225.792969,45 Z M218.234375,5.06835938 C218.234375,3.97460391 218.581051,3.06640986 219.274414,2.34375 C219.967777,1.62109014 220.958978,1.25976562 222.248047,1.25976562 C223.537116,1.25976562 224.5332,1.62109014 225.236328,2.34375 C225.939457,3.06640986 226.291016,3.97460391 226.291016,5.06835938 C226.291016,6.1425835 225.939457,7.03612925 225.236328,7.74902344 C224.5332,8.46191763 223.537116,8.81835938 222.248047,8.81835938 C220.958978,8.81835938 219.967777,8.46191763 219.274414,7.74902344 C218.581051,7.03612925 218.234375,6.1425835 218.234375,5.06835938 L218.234375,5.06835938 Z M247.501953,45.5859375 C242.990212,45.5859375 239.333022,44.1650533 236.530273,41.3232422 C233.727525,38.4814311 232.326172,34.6972893 232.326172,29.9707031 L232.326172,29.0917969 C232.326172,25.9277186 232.936517,23.1005984 234.157227,20.6103516 C235.377936,18.1201047 237.091786,16.1816476 239.298828,14.7949219 C241.50587,13.4081962 243.966783,12.7148438 246.681641,12.7148438 C250.998068,12.7148438 254.332996,14.0917831 256.686523,16.8457031 C259.040051,19.5996231 260.216797,23.4960686 260.216797,28.5351562 L260.216797,31.40625 L239.503906,31.40625 C239.718751,34.0234506 240.592766,36.0937424 242.125977,37.6171875 C243.659187,39.1406326 245.587879,39.9023438 247.912109,39.9023438 C251.173844,39.9023438 253.830068,38.5839976 255.880859,35.9472656 L259.71875,39.609375 C258.449212,41.5039157 256.754893,42.9736276 254.635742,44.0185547 C252.516591,45.0634818 250.138685,45.5859375 247.501953,45.5859375 L247.501953,45.5859375 Z M246.652344,18.4277344 C244.699209,18.4277344 243.122076,19.1113213 241.920898,20.4785156 C240.719721,21.84571 239.953127,23.7499878 239.621094,26.1914062 L253.185547,26.1914062 L253.185547,25.6640625 C253.029296,23.2812381 252.394537,21.4794983 251.28125,20.2587891 C250.167963,19.0380798 248.62501,18.4277344 246.652344,18.4277344 L246.652344,18.4277344 Z M273.341797,39.3164062 L290.216797,39.3164062 L290.216797,45 L264.494141,45 L264.494141,40.3417969 L280.578125,19.0429688 L264.787109,19.0429688 L264.787109,13.3007812 L289.601562,13.3007812 L289.601562,17.8125 L273.341797,39.3164062 Z M309.40625,45.5859375 C304.894509,45.5859375 301.237319,44.1650533 298.43457,41.3232422 C295.631822,38.4814311 294.230469,34.6972893 294.230469,29.9707031 L294.230469,29.0917969 C294.230469,25.9277186 294.840814,23.1005984 296.061523,20.6103516 C297.282233,18.1201047 298.996083,16.1816476 301.203125,14.7949219 C303.410167,13.4081962 305.87108,12.7148438 308.585938,12.7148438 C312.902365,12.7148438 316.237293,14.0917831 318.59082,16.8457031 C320.944348,19.5996231 322.121094,23.4960686 322.121094,28.5351562 L322.121094,31.40625 L301.408203,31.40625 C301.623048,34.0234506 302.497063,36.0937424 304.030273,37.6171875 C305.563484,39.1406326 307.492176,39.9023438 309.816406,39.9023438 C313.078141,39.9023438 315.734365,38.5839976 317.785156,35.9472656 L321.623047,39.609375 C320.353509,41.5039157 318.65919,42.9736276 316.540039,44.0185547 C314.420888,45.0634818 312.042982,45.5859375 309.40625,45.5859375 L309.40625,45.5859375 Z M308.556641,18.4277344 C306.603506,18.4277344 305.026373,19.1113213 303.825195,20.4785156 C302.624017,21.84571 301.857424,23.7499878 301.525391,26.1914062 L315.089844,26.1914062 L315.089844,25.6640625 C314.933593,23.2812381 314.298834,21.4794983 313.185547,20.2587891 C312.07226,19.0380798 310.529307,18.4277344 308.556641,18.4277344 L308.556641,18.4277344 Z M334.337891,13.3007812 L334.542969,16.6113281 C336.769542,14.0136589 339.816387,12.7148438 343.683594,12.7148438 C347.921896,12.7148438 350.822258,14.3359213 352.384766,17.578125 C354.689465,14.3359213 357.93162,12.7148438 362.111328,12.7148438 C365.607439,12.7148438 368.209952,13.681631 369.918945,15.6152344 C371.627938,17.5488378 372.501953,20.4003718 372.541016,24.1699219 L372.541016,45 L365.421875,45 L365.421875,24.375 C365.421875,22.3632712 364.982426,20.8886766 364.103516,19.9511719 C363.224605,19.0136672 361.769541,18.5449219 359.738281,18.5449219 C358.117179,18.5449219 356.79395,18.9794878 355.768555,19.8486328 C354.743159,20.7177778 354.025393,21.8554617 353.615234,23.2617188 L353.644531,45 L346.525391,45 L346.525391,24.140625 C346.427734,20.4101376 344.523456,18.5449219 340.8125,18.5449219 C337.960923,18.5449219 335.939459,19.7070196 334.748047,22.03125 L334.748047,45 L327.628906,45 L327.628906,13.3007812 L334.337891,13.3007812 Z M398.791016,45 C398.478514,44.3945282 398.205079,43.40821 397.970703,42.0410156 C395.705067,44.4043087 392.931657,45.5859375 389.650391,45.5859375 C386.466781,45.5859375 383.869151,44.6777435 381.857422,42.8613281 C379.845693,41.0449128 378.839844,38.7988415 378.839844,36.1230469 C378.839844,32.7441237 380.094714,30.1513762 382.604492,28.3447266 C385.11427,26.5380769 388.703102,25.6347656 393.371094,25.6347656 L397.736328,25.6347656 L397.736328,23.5546875 C397.736328,21.9140543 397.277348,20.6005909 396.359375,19.6142578 C395.441402,18.6279248 394.044931,18.1347656 392.169922,18.1347656 C390.54882,18.1347656 389.220708,18.540035 388.185547,19.3505859 C387.150385,20.1611369 386.632812,21.1914 386.632812,22.4414062 L379.513672,22.4414062 C379.513672,20.7031163 380.089838,19.077156 381.242188,17.5634766 C382.394537,16.0497971 383.961904,14.8632855 385.944336,14.0039062 C387.926768,13.144527 390.13866,12.7148438 392.580078,12.7148438 C396.291034,12.7148438 399.249989,13.6474516 401.457031,15.5126953 C403.664074,17.377939 404.796875,19.9999831 404.855469,23.3789062 L404.855469,37.6757812 C404.855469,40.527358 405.255855,42.8027259 406.056641,44.5019531 L406.056641,45 L398.791016,45 Z M390.96875,39.8730469 C392.375007,39.8730469 393.698236,39.5312534 394.938477,38.8476562 C396.178717,38.1640591 397.111325,37.2460995 397.736328,36.09375 L397.736328,30.1171875 L393.898438,30.1171875 C391.261706,30.1171875 389.279304,30.5761673 387.951172,31.4941406 C386.62304,32.412114 385.958984,33.7109291 385.958984,35.390625 C385.958984,36.7578193 386.413081,37.8466756 387.321289,38.6572266 C388.229497,39.4677775 389.445305,39.8730469 390.96875,39.8730469 L390.96875,39.8730469 Z M418.917969,13.3007812 L419.123047,16.9628906 C421.466809,14.1308452 424.54295,12.7148438 428.351562,12.7148438 C434.953158,12.7148438 438.312499,16.4941028 438.429688,24.0527344 L438.429688,45 L431.310547,45 L431.310547,24.4628906 C431.310547,22.4511618 430.875981,20.9619189 430.006836,19.9951172 C429.137691,19.0283155 427.716807,18.5449219 425.744141,18.5449219 C422.873033,18.5449219 420.734382,19.843737 419.328125,22.4414062 L419.328125,45 L412.208984,45 L412.208984,13.3007812 L418.917969,13.3007812 Z M463.449219,36.3867188 C463.449219,35.1171812 462.926763,34.1503939 461.881836,33.4863281 C460.836909,32.8222623 459.103528,32.2363307 456.681641,31.7285156 C454.259754,31.2207006 452.238289,30.5761758 450.617188,29.7949219 C447.062482,28.0761633 445.285156,25.5859538 445.285156,22.3242188 C445.285156,19.5898301 446.437488,17.3046967 448.742188,15.46875 C451.046887,13.6328033 453.976545,12.7148438 457.53125,12.7148438 C461.320331,12.7148438 464.381824,13.6523344 466.71582,15.5273438 C469.049816,17.4023531 470.216797,19.8339694 470.216797,22.8222656 L463.097656,22.8222656 C463.097656,21.4550713 462.589849,20.3173874 461.574219,19.4091797 C460.558589,18.500972 459.210946,18.046875 457.53125,18.046875 C455.968742,18.046875 454.694341,18.4081995 453.708008,19.1308594 C452.721675,19.8535192 452.228516,20.8203064 452.228516,22.03125 C452.228516,23.1250055 452.687495,23.9746063 453.605469,24.5800781 C454.523442,25.1855499 456.378892,25.7958954 459.171875,26.4111328 C461.964858,27.0263703 464.157219,27.7587848 465.749023,28.6083984 C467.340828,29.4580121 468.522457,30.4785097 469.293945,31.6699219 C470.065434,32.8613341 470.451172,34.3066321 470.451172,36.0058594 C470.451172,38.8574361 469.269543,41.1669833 466.90625,42.9345703 C464.542957,44.7021573 461.447285,45.5859375 457.619141,45.5859375 C455.021471,45.5859375 452.707041,45.1171922 450.675781,44.1796875 C448.644521,43.2421828 447.062506,41.9531332 445.929688,40.3125 C444.796869,38.6718668 444.230469,36.9043063 444.230469,35.0097656 L451.144531,35.0097656 C451.242188,36.6894615 451.876947,37.9833939 453.048828,38.8916016 C454.220709,39.7998092 455.773428,40.2539062 457.707031,40.2539062 C459.582041,40.2539062 461.007808,39.8974645 461.984375,39.1845703 C462.960942,38.4716761 463.449219,37.5390683 463.449219,36.3867188 L463.449219,36.3867188 Z" id="Julien-Biezemans" sketch:type="MSShapeGroup"></path>
            </g>
            <g id="Cucumber-logo" sketch:type="MSLayerGroup" transform="translate(90.000000, 90.000000)">
                <g id="g6053" sketch:type="MSShapeGroup">
                    <path d="M418.718234,69.6015101 C413.085253,69.6015101 409.517698,72.4328859 406.888974,76.7743289 C406.888974,75.6417785 407.452272,74.3204698 407.452272,73.3766779 L407.452272,71.489094 L398.063971,71.489094 L398.063971,118.678691 L407.452272,118.678691 L407.452272,91.4974832 C407.452272,83.7583893 411.583125,79.0394295 418.718234,79.0394295 L420.595894,79.0394295 L420.595894,69.6015101 L418.718234,69.6015101 L418.718234,69.6015101 Z" id="path5443" fill="#000000"></path>
                    <path d="M36.9899067,86.9672819 C34.3611824,82.8145973 30.6058619,79.9832215 25.1606472,79.9832215 C16.5234101,79.9832215 10.3271313,86.5897651 10.3271313,94.8951342 C10.3271313,103.200503 16.5234101,109.807047 25.1606472,109.807047 C30.6058619,109.807047 34.3611824,107.16443 36.9899067,103.011745 L45.6271438,108.108221 C41.4962913,114.526007 33.7978843,119.244966 25.1606472,119.244966 C9.20053518,119.244966 7.10542736e-15,107.16443 7.10542736e-15,95.0838926 C7.10542736e-15,83.0033557 9.3883012,70.9228188 25.1606472,70.9228188 C34.9244805,70.9228188 41.1207593,75.6417785 45.6271438,82.0595638 L36.9899067,86.9672819 L36.9899067,86.9672819 Z" id="path5445" fill="#000000"></path>
                    <path d="M53.8888489,72.0553691 L63.6526822,72.0553691 L63.6526822,97.7265101 C63.6526822,104.521812 68.5345988,109.240772 74.7308776,109.240772 C80.7393903,109.240772 85.809073,104.333054 85.809073,97.7265101 L85.809073,72.0553691 L95.5729062,72.0553691 L95.5729062,98.4815436 C95.5729062,111.317114 85.621307,119.056208 74.7308776,119.056208 C63.8404482,119.056208 53.8888489,111.317114 53.8888489,98.4815436 L53.8888489,72.0553691 L53.8888489,72.0553691 Z" id="path5447" fill="#000000"></path>
                    <path d="M141.387816,86.9672819 C138.759092,82.8145973 135.003771,79.9832215 129.558557,79.9832215 C120.921319,79.9832215 114.725041,86.5897651 114.725041,94.8951342 C114.725041,103.200503 120.921319,109.807047 129.558557,109.807047 C135.003771,109.807047 138.759092,107.16443 141.387816,103.011745 L150.025053,108.108221 C145.894201,114.526007 138.195794,119.244966 129.558557,119.244966 C113.598445,119.244966 104.397909,107.16443 104.397909,95.0838926 C104.397909,83.0033557 113.598445,70.9228188 129.558557,70.9228188 C139.32239,70.9228188 145.518669,75.6417785 150.025053,82.0595638 L141.387816,86.9672819 L141.387816,86.9672819 Z" id="path5449" fill="#000000"></path>
                    <path d="M158.286758,72.0553691 L168.050592,72.0553691 L168.050592,97.7265101 C168.050592,104.521812 172.932508,109.240772 179.128787,109.240772 C185.1373,109.240772 190.206982,104.333054 190.206982,97.7265101 L190.206982,72.0553691 L199.970816,72.0553691 L199.970816,98.4815436 C199.970816,111.317114 190.019216,119.056208 179.128787,119.056208 C168.238358,119.056208 158.286758,111.317114 158.286758,98.4815436 L158.286758,72.0553691 L158.286758,72.0553691 Z" id="path5451" fill="#000000"></path>
                    <path d="M212.175607,89.2323826 C212.175607,77.5293624 219.874014,70.9228188 228.886783,70.9228188 C235.834126,70.9228188 240.716043,74.3204698 242.593703,79.0394295 L242.781469,79.0394295 C244.659129,74.1317114 249.541046,70.9228188 256.488389,70.9228188 C265.501158,70.9228188 273.199565,77.7181208 273.199565,89.2323826 L273.199565,117.923658 L263.435732,117.923658 L263.435732,89.2323826 C263.435732,83.7583893 260.055943,80.5494966 255.925091,80.5494966 C251.23094,80.5494966 247.851152,83.3808725 247.851152,90.5536913 L247.851152,117.734899 L238.087319,117.734899 L238.087319,90.5536913 C238.087319,83.3808725 234.70753,80.5494966 230.013379,80.5494966 C225.882527,80.5494966 222.502739,83.7583893 222.502739,89.2323826 L222.502739,117.734899 L212.175607,117.734899 L212.175607,89.2323826 L212.175607,89.2323826 Z" id="path5453" fill="#000000"></path>
                    <path d="M285.216591,58.4647651 L294.980424,58.4647651 L294.980424,77.7181208 L295.16819,77.7181208 C297.421382,73.942953 303.617661,70.9228188 310.001706,70.9228188 C321.830965,70.9228188 333.660225,79.7944631 333.660225,95.0838926 C333.660225,110.373322 321.830965,119.244966 310.001706,119.244966 C303.617661,119.244966 297.421382,116.224832 295.16819,112.449664 L294.980424,112.449664 L294.980424,118.112416 L285.216591,118.112416 L285.216591,58.4647651 L285.216591,58.4647651 Z M309.062876,80.1719799 C300.988937,80.1719799 294.980424,86.5897651 294.980424,95.0838926 C294.980424,103.57802 300.988937,109.995805 309.062876,109.995805 C317.324581,109.995805 323.333093,103.57802 323.333093,95.0838926 C323.333093,86.4010067 317.324581,80.1719799 309.062876,80.1719799 L309.062876,80.1719799 Z" id="path5455" fill="#000000"></path>
                    <path d="M386.234711,107.919463 C380.789497,114.903523 373.278856,119.056208 365.017151,119.056208 C349.057039,119.056208 339.856504,106.975671 339.856504,94.8951342 C339.856504,82.8145973 349.244805,70.9228188 365.017151,70.9228188 C374.405452,70.9228188 388.67567,78.8506711 388.67567,96.5939597 L388.67567,98.2927852 L350.934699,98.2927852 C351.497997,105.276846 358.069808,110.373322 364.829385,110.373322 C370.086833,110.373322 374.593218,107.730705 377.973006,103.200503 L386.234711,107.919463 L386.234711,107.919463 Z M377.221942,90.1761745 C375.156516,83.1921141 370.086833,79.4169463 363.702789,79.4169463 C357.50651,79.4169463 352.436827,83.3808725 350.746933,90.1761745 L377.221942,90.1761745 L377.221942,90.1761745 Z" id="path5457" fill="#000000"></path>
                    <path d="M447.243798,0.741736158 C430.249972,0.741736158 416.497112,14.5672813 416.497112,31.6509224 C416.497112,46.6920176 427.222399,59.1896539 441.37611,61.9702387 L441.37611,70.8182882 C459.777357,68.0293792 476.070549,53.3451714 477.286362,34.0693893 C478.01818,22.466983 472.263705,10.6223286 462.558465,4.87082592 C462.002799,4.5415288 461.438245,4.21462173 460.856835,3.92703398 C460.264403,3.63399451 459.656051,3.34839211 459.037852,3.10121602 C458.841617,3.01869425 458.649337,2.94383381 458.451083,2.86526804 C457.911148,2.66489818 457.366334,2.4392664 456.80813,2.27539807 C453.799504,1.27851613 450.58333,0.741736158 447.243798,0.741736158 L447.243798,0.741736158 Z" id="path3943" fill="#00A818"></path>
                    <path d="M453.580902,12.1852135 C452.529119,12.0768247 451.421592,12.4447563 450.647057,13.3649534 C450.083759,14.119987 449.731698,14.8514258 449.356166,15.6064593 C448.22957,18.2490768 448.605102,21.0804526 450.294996,23.1567949 C452.92372,22.5905197 455.153442,20.9034916 456.280038,18.2608742 C456.65557,17.5058406 456.866807,16.5384539 456.866807,15.7834203 C456.984161,13.7778624 455.333874,12.3658611 453.580902,12.1852135 L453.580902,12.1852135 Z M439.909188,12.3621745 C438.194723,12.5262322 436.564606,13.8958364 436.564606,15.7834203 C436.564606,16.5384539 436.775842,17.5058406 437.151374,18.2608742 C438.277971,20.9034916 440.683723,22.5905197 443.312447,23.1567949 C444.814575,21.0804526 445.201843,18.2490768 444.075247,15.6064593 C443.699715,14.8514258 443.347653,14.1081896 442.784355,13.5419144 C442.00982,12.6217173 440.937868,12.26374 439.909188,12.3621745 L439.909188,12.3621745 Z M430.696917,21.446172 C427.736027,21.5989341 426.413505,25.3393138 428.877934,27.2858846 C429.628998,27.8521598 430.356591,28.2650688 431.107656,28.6425856 C433.73638,29.7751359 436.775842,29.3858217 439.029035,27.8757546 C438.465737,25.4218956 436.55287,23.1685923 433.924146,22.0360419 C432.985316,21.6585252 432.222516,21.446172 431.283686,21.446172 C431.072449,21.4225772 430.89431,21.435979 430.696917,21.446172 L430.696917,21.446172 Z M459.62462,32.8896493 C457.904654,32.8564656 456.162684,33.3615453 454.754439,34.3053372 C455.317737,36.7591963 457.230604,39.0124996 459.859328,40.1450499 C460.798158,40.5225667 461.560958,40.7349199 462.499788,40.7349199 C465.879576,40.9236783 467.534264,36.7238041 464.90554,34.8362202 C464.154476,34.2699451 463.426882,33.9160231 462.675818,33.5385063 C461.690047,33.1137999 460.656599,32.9095577 459.62462,32.8896493 L459.62462,32.8896493 Z M433.982823,33.0666103 C432.950843,33.0865243 431.917397,33.2907609 430.931625,33.7154673 C429.992795,34.0929841 429.265201,34.505893 428.701903,35.0721682 C426.260945,37.1485105 427.903898,41.1006393 431.283686,40.9118809 C432.222516,40.9118809 433.173082,40.6995277 433.924146,40.3220109 C436.55287,39.1894606 438.418795,36.9361573 438.794327,34.4822982 C437.386082,33.5385063 435.70279,33.0334304 433.982823,33.0666103 L433.982823,33.0666103 Z M443.488478,38.847336 C440.859753,39.4136112 438.630032,41.1006393 437.503436,43.7432567 C437.127904,44.4982903 436.916667,45.40669 436.916667,46.1617236 C436.728901,49.3706162 441.082726,51.0930365 442.960386,48.6391774 C443.523684,47.8841439 443.875745,47.1527051 444.251277,46.3976716 C445.377873,43.9438125 444.990606,41.1124367 443.488478,38.847336 L443.488478,38.847336 Z M450.471027,39.024297 C448.968899,41.1006393 448.581631,43.9320151 449.708227,46.5746326 C450.083759,47.3296661 450.435821,48.0729023 450.999119,48.6391774 C453.064545,50.9042781 457.406634,49.2290474 457.218868,46.3976716 C457.218868,45.642638 457.007631,44.6752513 456.632099,43.9202177 C455.505503,41.2776003 453.099751,39.5905721 450.471027,39.024297 L450.471027,39.024297 Z" id="rect4005" fill="#FFFFFF"></path>
                </g>
            </g>
        </g>
    </g>
</svg>