<?xml version="1.0" encoding="UTF-8" standalone="no"?>
<svg width="1039px" height="697px" viewBox="0 0 1039 697" version="1.1" xmlns="http://www.w3.org/2000/svg" xmlns:xlink="http://www.w3.org/1999/xlink" xmlns:sketch="http://www.bohemiancoding.com/sketch/ns">
    <!-- Generator: Sketch 3.5.1 (25234) - http://www.bohemiancoding.com/sketch -->
    <title>Matt-Front</title>
    <desc>Created with Sketch.</desc>
    <defs></defs>
    <g id="Matt" stroke="none" stroke-width="1" fill="none" fill-rule="evenodd" sketch:type="MSPage">
        <g id="Matt-Front" sketch:type="MSArtboardGroup">
            <path d="M619.664062,522.867188 L619.742188,526.304688 C620.523441,525.028639 621.499994,524.071618 622.671875,523.433594 C623.843756,522.79557 625.145826,522.476562 626.578125,522.476562 C629.911475,522.476562 632.027339,523.843736 632.925781,526.578125 C633.680993,525.263014 634.690098,524.250655 635.953125,523.541016 C637.216152,522.831377 638.609367,522.476562 640.132812,522.476562 C644.664085,522.476562 646.97526,524.950496 647.066406,529.898438 L647.066406,544 L644.722656,544 L644.722656,530.074219 C644.709635,528.186188 644.302738,526.786463 643.501953,525.875 C642.701168,524.963537 641.395842,524.507812 639.585938,524.507812 C637.906242,524.533854 636.486985,525.077469 635.328125,526.138672 C634.169265,527.199875 633.52474,528.49218 633.394531,530.015625 L633.394531,544 L631.050781,544 L631.050781,529.898438 C631.03776,528.088533 630.611332,526.737635 629.771484,525.845703 C628.931636,524.953772 627.639332,524.507812 625.894531,524.507812 C624.42317,524.507812 623.160162,524.92773 622.105469,525.767578 C621.050776,526.607426 620.269534,527.854158 619.761719,529.507812 L619.761719,544 L617.417969,544 L617.417969,522.867188 L619.664062,522.867188 Z M666.324219,544 C666.089843,543.335934 665.940104,542.352871 665.875,541.050781 C665.054683,542.118495 664.009772,542.942054 662.740234,543.521484 C661.470697,544.100914 660.126309,544.390625 658.707031,544.390625 C656.675771,544.390625 655.031907,543.824224 653.775391,542.691406 C652.518874,541.558588 651.890625,540.126311 651.890625,538.394531 C651.890625,536.337229 652.746736,534.709641 654.458984,533.511719 C656.171233,532.313796 658.557276,531.714844 661.617188,531.714844 L665.855469,531.714844 L665.855469,529.3125 C665.855469,527.802076 665.389979,526.613937 664.458984,525.748047 C663.52799,524.882157 662.170582,524.449219 660.386719,524.449219 C658.759106,524.449219 657.411464,524.865881 656.34375,525.699219 C655.276036,526.532556 654.742188,527.53515 654.742188,528.707031 L652.398438,528.6875 C652.398438,527.007804 653.17968,525.552741 654.742188,524.322266 C656.304695,523.091791 658.225249,522.476562 660.503906,522.476562 C662.860689,522.476562 664.719394,523.065749 666.080078,524.244141 C667.440762,525.422532 668.140625,527.066396 668.179688,529.175781 L668.179688,539.175781 C668.179688,541.220062 668.394529,542.749995 668.824219,543.765625 L668.824219,544 L666.324219,544 Z M658.980469,542.320312 C660.542977,542.320312 661.939447,541.942712 663.169922,541.1875 C664.400397,540.432288 665.29557,539.423183 665.855469,538.160156 L665.855469,533.511719 L661.675781,533.511719 C659.34504,533.537761 657.522142,533.964189 656.207031,534.791016 C654.891921,535.617843 654.234375,536.753899 654.234375,538.199219 C654.234375,539.384121 654.673824,540.367184 655.552734,541.148438 C656.431645,541.929691 657.574212,542.320312 658.980469,542.320312 L658.980469,542.320312 Z M678.042969,517.457031 L678.042969,522.867188 L682.417969,522.867188 L682.417969,524.78125 L678.042969,524.78125 L678.042969,538.863281 C678.042969,540.035162 678.254555,540.907549 678.677734,541.480469 C679.100914,542.053388 679.807287,542.339844 680.796875,542.339844 C681.187502,542.339844 681.819006,542.27474 682.691406,542.144531 L682.789062,544.058594 C682.17708,544.279949 681.343755,544.390625 680.289062,544.390625 C678.687492,544.390625 677.522139,543.925135 676.792969,542.994141 C676.063798,542.063146 675.699219,540.692717 675.699219,538.882812 L675.699219,524.78125 L671.8125,524.78125 L671.8125,522.867188 L675.699219,522.867188 L675.699219,517.457031 L678.042969,517.457031 Z M690.894531,517.457031 L690.894531,522.867188 L695.269531,522.867188 L695.269531,524.78125 L690.894531,524.78125 L690.894531,538.863281 C690.894531,540.035162 691.106118,540.907549 691.529297,541.480469 C691.952476,542.053388 692.658849,542.339844 693.648438,542.339844 C694.039064,542.339844 694.670569,542.27474 695.542969,542.144531 L695.640625,544.058594 C695.028643,544.279949 694.195318,544.390625 693.140625,544.390625 C691.539054,544.390625 690.373702,543.925135 689.644531,542.994141 C688.915361,542.063146 688.550781,540.692717 688.550781,538.882812 L688.550781,524.78125 L684.664062,524.78125 L684.664062,522.867188 L688.550781,522.867188 L688.550781,517.457031 L690.894531,517.457031 Z M731.324219,533.980469 C731.259114,535.894541 730.907555,537.668612 730.269531,539.302734 C729.631507,540.936857 728.749355,542.193355 727.623047,543.072266 C726.496739,543.951176 725.191414,544.390625 723.707031,544.390625 C722.444004,544.390625 721.415369,544.058597 720.621094,543.394531 C719.826819,542.730465 719.29948,541.799485 719.039062,540.601562 C717.632805,543.127617 715.692721,544.390625 713.21875,544.390625 C711.395824,544.390625 710.035161,543.602872 709.136719,542.027344 C708.238277,540.451815 707.906249,538.32944 708.140625,535.660156 C708.335938,533.53775 708.82096,531.646493 709.595703,529.986328 C710.370447,528.326164 711.379551,527.030604 712.623047,526.099609 C713.866543,525.168615 715.19791,524.703125 716.617188,524.703125 C717.619797,524.703125 718.498694,524.843098 719.253906,525.123047 C720.009118,525.402996 720.888016,525.966142 721.890625,526.8125 L720.894531,537.945312 C720.764322,539.455737 720.956378,540.6276 721.470703,541.460938 C721.985029,542.294275 722.808588,542.710938 723.941406,542.710938 C725.542977,542.710938 726.841792,541.92644 727.837891,540.357422 C728.833989,538.788404 729.390624,536.662774 729.507812,533.980469 C729.75521,528.707005 728.752615,524.738946 726.5,522.076172 C724.247385,519.413398 720.83596,518.082031 716.265625,518.082031 C713.518215,518.082031 711.041027,518.768873 708.833984,520.142578 C706.626942,521.516283 704.885423,523.459623 703.609375,525.972656 C702.333327,528.48569 701.617188,531.382796 701.460938,534.664062 C701.304687,537.945329 701.737625,540.83267 702.759766,543.326172 C703.781906,545.819674 705.324859,547.736972 707.388672,549.078125 C709.452484,550.419278 711.910142,551.089844 714.761719,551.089844 C715.959641,551.089844 717.138015,550.946616 718.296875,550.660156 C719.455735,550.373696 720.425777,550.002606 721.207031,549.546875 L721.8125,551.109375 C721.070309,551.604169 720.035163,552.017576 718.707031,552.349609 C717.3789,552.681642 716.037767,552.847656 714.683594,552.847656 C711.428369,552.847656 708.628918,552.115242 706.285156,550.650391 C703.941395,549.18554 702.186855,547.076186 701.021484,544.322266 C699.856114,541.568346 699.351562,538.348977 699.507812,534.664062 C699.664063,531.044253 700.461581,527.837905 701.900391,525.044922 C703.3392,522.251939 705.308581,520.090502 707.808594,518.560547 C710.308606,517.030591 713.15363,516.265625 716.34375,516.265625 C719.664079,516.265625 722.476551,516.958977 724.78125,518.345703 C727.085949,519.732429 728.791661,521.760403 729.898438,524.429688 C731.005214,527.098972 731.48047,530.282534 731.324219,533.980469 L731.324219,533.980469 Z M710.210938,538.414062 C710.354167,539.716152 710.718747,540.722002 711.304688,541.431641 C711.890628,542.14128 712.66536,542.496094 713.628906,542.496094 C716.037772,542.496094 717.815098,540.835954 718.960938,537.515625 L719.839844,527.4375 C718.967444,526.799476 717.938808,526.480469 716.753906,526.480469 C715.308587,526.480469 714.055344,527.056635 712.994141,528.208984 C711.932937,529.361334 711.15495,530.94986 710.660156,532.974609 C710.165362,534.999359 710.015624,536.812492 710.210938,538.414062 L710.210938,538.414062 Z M744.449219,542.417969 C746.076831,542.417969 747.44075,541.958989 748.541016,541.041016 C749.641282,540.123042 750.236979,538.934903 750.328125,537.476562 L752.574219,537.476562 C752.509114,538.765631 752.105472,539.94075 751.363281,541.001953 C750.62109,542.063156 749.634772,542.893226 748.404297,543.492188 C747.173822,544.091149 745.855476,544.390625 744.449219,544.390625 C741.675767,544.390625 739.478524,543.427093 737.857422,541.5 C736.23632,539.572907 735.425781,536.981787 735.425781,533.726562 L735.425781,533.023438 C735.425781,530.940094 735.790361,529.097664 736.519531,527.496094 C737.248702,525.894523 738.293613,524.657556 739.654297,523.785156 C741.014981,522.912756 742.606762,522.476562 744.429688,522.476562 C746.747407,522.476562 748.658196,523.16666 750.162109,524.546875 C751.666023,525.92709 752.470052,527.743478 752.574219,529.996094 L750.328125,529.996094 C750.223958,528.34244 749.628261,527.007818 748.541016,525.992188 C747.453771,524.976557 746.083342,524.46875 744.429688,524.46875 C742.320302,524.46875 740.682949,525.230461 739.517578,526.753906 C738.352208,528.277351 737.769531,530.412747 737.769531,533.160156 L737.769531,533.84375 C737.769531,536.539076 738.352208,538.64192 739.517578,540.152344 C740.682949,541.662768 742.326812,542.417969 744.449219,542.417969 L744.449219,542.417969 Z M770.835938,541.324219 C769.42968,543.3685 767.183609,544.390625 764.097656,544.390625 C761.845041,544.390625 760.132818,543.736335 758.960938,542.427734 C757.789057,541.119134 757.190104,539.182304 757.164062,536.617188 L757.164062,522.867188 L759.488281,522.867188 L759.488281,536.324219 C759.488281,540.347676 761.115869,542.359375 764.371094,542.359375 C767.756527,542.359375 769.898433,540.959649 770.796875,538.160156 L770.796875,522.867188 L773.140625,522.867188 L773.140625,544 L770.875,544 L770.835938,541.324219 Z M787.027344,542.417969 C788.654956,542.417969 790.018875,541.958989 791.119141,541.041016 C792.219407,540.123042 792.815104,538.934903 792.90625,537.476562 L795.152344,537.476562 C795.087239,538.765631 794.683597,539.94075 793.941406,541.001953 C793.199215,542.063156 792.212897,542.893226 790.982422,543.492188 C789.751947,544.091149 788.433601,544.390625 787.027344,544.390625 C784.253892,544.390625 782.056649,543.427093 780.435547,541.5 C778.814445,539.572907 778.003906,536.981787 778.003906,533.726562 L778.003906,533.023438 C778.003906,530.940094 778.368486,529.097664 779.097656,527.496094 C779.826827,525.894523 780.871738,524.657556 782.232422,523.785156 C783.593106,522.912756 785.184887,522.476562 787.007812,522.476562 C789.325532,522.476562 791.236321,523.16666 792.740234,524.546875 C794.244148,525.92709 795.048177,527.743478 795.152344,529.996094 L792.90625,529.996094 C792.802083,528.34244 792.206386,527.007818 791.119141,525.992188 C790.031896,524.976557 788.661467,524.46875 787.007812,524.46875 C784.898427,524.46875 783.261074,525.230461 782.095703,526.753906 C780.930333,528.277351 780.347656,530.412747 780.347656,533.160156 L780.347656,533.84375 C780.347656,536.539076 780.930333,538.64192 782.095703,540.152344 C783.261074,541.662768 784.904937,542.417969 787.027344,542.417969 L787.027344,542.417969 Z M813.414062,541.324219 C812.007805,543.3685 809.761734,544.390625 806.675781,544.390625 C804.423166,544.390625 802.710943,543.736335 801.539062,542.427734 C800.367182,541.119134 799.768229,539.182304 799.742188,536.617188 L799.742188,522.867188 L802.066406,522.867188 L802.066406,536.324219 C802.066406,540.347676 803.693994,542.359375 806.949219,542.359375 C810.334652,542.359375 812.476558,540.959649 813.375,538.160156 L813.375,522.867188 L815.71875,522.867188 L815.71875,544 L813.453125,544 L813.414062,541.324219 Z M823.921875,522.867188 L824,526.304688 C824.781254,525.028639 825.757807,524.071618 826.929688,523.433594 C828.101568,522.79557 829.403639,522.476562 830.835938,522.476562 C834.169287,522.476562 836.285152,523.843736 837.183594,526.578125 C837.938806,525.263014 838.94791,524.250655 840.210938,523.541016 C841.473965,522.831377 842.86718,522.476562 844.390625,522.476562 C848.921898,522.476562 851.233072,524.950496 851.324219,529.898438 L851.324219,544 L848.980469,544 L848.980469,530.074219 C848.967448,528.186188 848.560551,526.786463 847.759766,525.875 C846.95898,524.963537 845.653655,524.507812 843.84375,524.507812 C842.164054,524.533854 840.744797,525.077469 839.585938,526.138672 C838.427078,527.199875 837.782553,528.49218 837.652344,530.015625 L837.652344,544 L835.308594,544 L835.308594,529.898438 C835.295573,528.088533 834.869145,526.737635 834.029297,525.845703 C833.189449,524.953772 831.897144,524.507812 830.152344,524.507812 C828.680982,524.507812 827.417974,524.92773 826.363281,525.767578 C825.308588,526.607426 824.527346,527.854158 824.019531,529.507812 L824.019531,544 L821.675781,544 L821.675781,522.867188 L823.921875,522.867188 Z M874.253906,533.648438 C874.253906,536.942725 873.524747,539.556631 872.066406,541.490234 C870.608066,543.423838 868.64845,544.390625 866.1875,544.390625 C863.244777,544.390625 861.018237,543.296886 859.507812,541.109375 L859.410156,544 L857.222656,544 L857.222656,514 L859.546875,514 L859.546875,525.933594 C861.031257,523.628895 863.231756,522.476562 866.148438,522.476562 C868.64845,522.476562 870.624342,523.430329 872.076172,525.337891 C873.528002,527.245452 874.253906,529.898421 874.253906,533.296875 L874.253906,533.648438 Z M871.910156,533.238281 C871.910156,530.451809 871.369797,528.300138 870.289062,526.783203 C869.208328,525.266268 867.684906,524.507812 865.71875,524.507812 C864.221347,524.507812 862.951828,524.875647 861.910156,525.611328 C860.868484,526.347009 860.080732,527.424472 859.546875,528.84375 L859.546875,538.375 C860.718756,541.031263 862.789048,542.359375 865.757812,542.359375 C867.684905,542.359375 869.192052,541.597664 870.279297,540.074219 C871.366542,538.550774 871.910156,536.272151 871.910156,533.238281 L871.910156,533.238281 Z M887.59375,544.390625 C885.796866,544.390625 884.172533,543.947921 882.720703,543.0625 C881.268873,542.177079 880.139327,540.943367 879.332031,539.361328 C878.524736,537.779289 878.121094,536.005218 878.121094,534.039062 L878.121094,533.199219 C878.121094,531.167959 878.51497,529.33855 879.302734,527.710938 C880.090499,526.083325 881.187493,524.804041 882.59375,523.873047 C884.000007,522.942053 885.523429,522.476562 887.164062,522.476562 C889.729179,522.476562 891.763664,523.352205 893.267578,525.103516 C894.771492,526.854826 895.523438,529.247381 895.523438,532.28125 L895.523438,533.589844 L880.445312,533.589844 L880.445312,534.039062 C880.445312,536.434908 881.132155,538.430331 882.505859,540.025391 C883.879564,541.620451 885.608062,542.417969 887.691406,542.417969 C888.941413,542.417969 890.044917,542.190106 891.001953,541.734375 C891.958989,541.278644 892.828121,540.549484 893.609375,539.546875 L895.074219,540.660156 C893.35546,543.147148 890.861996,544.390625 887.59375,544.390625 L887.59375,544.390625 Z M887.164062,524.46875 C885.406241,524.46875 883.925136,525.113275 882.720703,526.402344 C881.51627,527.691413 880.783855,529.423166 880.523438,531.597656 L893.199219,531.597656 L893.199219,531.34375 C893.134114,529.31249 892.554693,527.658861 891.460938,526.382812 C890.367182,525.106764 888.934905,524.46875 887.164062,524.46875 L887.164062,524.46875 Z M909.839844,524.859375 C909.34505,524.768229 908.817711,524.722656 908.257812,524.722656 C906.799472,524.722656 905.56576,525.129553 904.556641,525.943359 C903.547521,526.757166 902.828127,527.938794 902.398438,529.488281 L902.398438,544 L900.074219,544 L900.074219,522.867188 L902.359375,522.867188 L902.398438,526.226562 C903.635423,523.72655 905.62108,522.476562 908.355469,522.476562 C909.006514,522.476562 909.520831,522.561197 909.898438,522.730469 L909.839844,524.859375 Z M910.914062,542.59375 C910.914062,542.138019 911.060545,541.750653 911.353516,541.431641 C911.646486,541.112629 912.053383,540.953125 912.574219,540.953125 C913.095055,540.953125 913.505207,541.112629 913.804688,541.431641 C914.104168,541.750653 914.253906,542.138019 914.253906,542.59375 C914.253906,543.049481 914.104168,543.423827 913.804688,543.716797 C913.505207,544.009767 913.095055,544.15625 912.574219,544.15625 C912.053383,544.15625 911.646486,544.009767 911.353516,543.716797 C911.060545,543.423827 910.914062,543.049481 910.914062,542.59375 L910.914062,542.59375 Z M923.296875,544 L920.953125,544 L920.953125,522.867188 L923.296875,522.867188 L923.296875,544 Z M920.542969,516.753906 C920.542969,516.311196 920.686196,515.93685 920.972656,515.630859 C921.259116,515.324868 921.649737,515.171875 922.144531,515.171875 C922.639325,515.171875 923.033202,515.324868 923.326172,515.630859 C923.619142,515.93685 923.765625,516.311196 923.765625,516.753906 C923.765625,517.196617 923.619142,517.567707 923.326172,517.867188 C923.033202,518.166668 922.639325,518.316406 922.144531,518.316406 C921.649737,518.316406 921.259116,518.166668 920.972656,517.867188 C920.686196,517.567707 920.542969,517.196617 920.542969,516.753906 L920.542969,516.753906 Z M928.355469,533.121094 C928.355469,531.089834 928.749345,529.260425 929.537109,527.632812 C930.324874,526.0052 931.438144,524.738937 932.876953,523.833984 C934.315762,522.929032 935.946605,522.476562 937.769531,522.476562 C940.582045,522.476562 942.860668,523.462881 944.605469,525.435547 C946.350269,527.408213 947.222656,530.022119 947.222656,533.277344 L947.222656,533.765625 C947.222656,535.809906 946.82878,537.64908 946.041016,539.283203 C945.253251,540.917326 944.143236,542.177079 942.710938,543.0625 C941.278639,543.947921 939.64454,544.390625 937.808594,544.390625 C935.009101,544.390625 932.733733,543.404307 930.982422,541.431641 C929.231111,539.458975 928.355469,536.845068 928.355469,533.589844 L928.355469,533.121094 Z M930.699219,533.765625 C930.699219,536.291679 931.353509,538.365226 932.662109,539.986328 C933.97071,541.60743 935.686187,542.417969 937.808594,542.417969 C939.917979,542.417969 941.626947,541.60743 942.935547,539.986328 C944.244147,538.365226 944.898438,536.226576 944.898438,533.570312 L944.898438,533.121094 C944.898438,531.506502 944.598961,530.028653 944,528.6875 C943.401039,527.346347 942.561203,526.307946 941.480469,525.572266 C940.399734,524.836585 939.162767,524.46875 937.769531,524.46875 C935.686187,524.46875 933.986986,525.285799 932.671875,526.919922 C931.356764,528.554045 930.699219,530.692695 930.699219,533.335938 L930.699219,533.765625 Z M585.855469,583.546875 L594.507812,583.546875 L594.507812,585.734375 L585.855469,585.734375 L585.855469,595.148438 L583.492188,595.148438 L583.492188,585.734375 L575.015625,585.734375 L575.015625,583.546875 L583.492188,583.546875 L583.492188,574.445312 L585.855469,574.445312 L585.855469,583.546875 Z M613.160156,588.839844 L617.59375,588.839844 L617.59375,590.8125 L613.160156,590.8125 L613.160156,598 L610.816406,598 L610.816406,590.8125 L597.4375,590.8125 L597.4375,589.484375 L610.601562,569.5625 L613.160156,569.5625 L613.160156,588.839844 Z M600.308594,588.839844 L610.816406,588.839844 L610.816406,572.589844 L609.78125,574.386719 L600.308594,588.839844 Z M635.328125,588.839844 L639.761719,588.839844 L639.761719,590.8125 L635.328125,590.8125 L635.328125,598 L632.984375,598 L632.984375,590.8125 L619.605469,590.8125 L619.605469,589.484375 L632.769531,569.5625 L635.328125,569.5625 L635.328125,588.839844 Z M622.476562,588.839844 L632.984375,588.839844 L632.984375,572.589844 L631.949219,574.386719 L622.476562,588.839844 Z M652.925781,586.515625 C652.925781,583.677069 653.290361,580.919935 654.019531,578.244141 C654.748702,575.568346 655.816399,573.120454 657.222656,570.900391 C658.628913,568.680327 660.139315,567.088546 661.753906,566.125 L662.320312,567.707031 C661.460933,568.319013 660.608077,569.210932 659.761719,570.382812 C658.91536,571.554693 658.16016,572.947909 657.496094,574.5625 C656.832028,576.177091 656.294924,577.990224 655.884766,580.001953 C655.474607,582.013682 655.269531,584.29556 655.269531,586.847656 C655.269531,589.569024 655.578773,592.186185 656.197266,594.699219 C656.815758,597.212252 657.665359,599.429027 658.746094,601.349609 C659.826828,603.270192 661.018223,604.712235 662.320312,605.675781 L661.753906,607.179688 C660.100252,606.190099 658.57032,604.591808 657.164062,602.384766 C655.757805,600.177723 654.699873,597.749362 653.990234,595.099609 C653.280595,592.449857 652.925781,589.588557 652.925781,586.515625 L652.925781,586.515625 Z M682.769531,586.144531 C682.769531,590.154968 682.033862,593.198557 680.5625,595.275391 C679.091138,597.352224 676.923191,598.390625 674.058594,598.390625 C671.24608,598.390625 669.091153,597.371755 667.59375,595.333984 C666.096347,593.296214 665.328125,590.330749 665.289062,586.4375 L665.289062,581.339844 C665.289062,577.342428 666.031243,574.315114 667.515625,572.257812 C669.000007,570.200511 671.167954,569.171875 674.019531,569.171875 C676.832045,569.171875 678.980461,570.164704 680.464844,572.150391 C681.949226,574.136078 682.717448,577.062481 682.769531,580.929688 L682.769531,586.144531 Z M680.425781,581.046875 C680.425781,577.79165 679.895188,575.330737 678.833984,573.664062 C677.772781,571.997388 676.167979,571.164062 674.019531,571.164062 C671.910146,571.164062 670.32162,571.977856 669.253906,573.605469 C668.186193,575.233081 667.639323,577.635401 667.613281,580.8125 L667.613281,586.398438 C667.613281,589.640641 668.163406,592.121085 669.263672,593.839844 C670.363938,595.558602 671.962229,596.417969 674.058594,596.417969 C676.141938,596.417969 677.720698,595.578133 678.794922,593.898438 C679.869146,592.218742 680.41276,589.757829 680.425781,586.515625 L680.425781,581.046875 Z M695.152344,586.808594 C695.152344,589.673191 694.79753,592.430325 694.087891,595.080078 C693.378252,597.729831 692.32683,600.154937 690.933594,602.355469 C689.540358,604.556001 688.003915,606.164057 686.324219,607.179688 L685.757812,605.675781 C687.033861,604.764318 688.215489,603.351572 689.302734,601.4375 C690.389979,599.523428 691.246091,597.293633 691.871094,594.748047 C692.496097,592.202461 692.808594,589.438817 692.808594,586.457031 C692.808594,583.761705 692.496097,581.16082 691.871094,578.654297 C691.246091,576.147774 690.383469,573.908213 689.283203,571.935547 C688.182937,569.962881 687.007819,568.527348 685.757812,567.628906 L686.324219,566.125 C687.964852,567.127609 689.481764,568.729156 690.875,570.929688 C692.268236,573.130219 693.329423,575.571601 694.058594,578.253906 C694.787764,580.936211 695.152344,583.787745 695.152344,586.808594 L695.152344,586.808594 Z M728.0625,570.910156 L715.914062,598 L713.472656,598 L725.542969,571.554688 L709.371094,571.554688 L709.371094,569.5625 L728.0625,569.5625 L728.0625,570.910156 Z M747.300781,584.835938 C746.467444,586.059902 745.432298,587.007158 744.195312,587.677734 C742.958327,588.348311 741.617195,588.683594 740.171875,588.683594 C738.557284,588.683594 737.131517,588.266931 735.894531,587.433594 C734.657546,586.600256 733.700524,585.447924 733.023438,583.976562 C732.346351,582.505201 732.007812,580.897144 732.007812,579.152344 C732.007812,577.277334 732.369137,575.571622 733.091797,574.035156 C733.814457,572.49869 734.823561,571.304041 736.119141,570.451172 C737.41472,569.598303 738.908846,569.171875 740.601562,569.171875 C743.453139,569.171875 745.673169,570.171214 747.261719,572.169922 C748.850268,574.16863 749.644531,577.003888 749.644531,580.675781 L749.644531,582.785156 C749.644531,587.91539 748.550792,591.769518 746.363281,594.347656 C744.17577,596.925794 740.83596,598.214844 736.34375,598.214844 L735.914062,598.214844 L735.933594,596.183594 L736.753906,596.183594 C740.152361,596.13151 742.73697,595.167978 744.507812,593.292969 C746.278655,591.417959 747.209635,588.598977 747.300781,584.835938 L747.300781,584.835938 Z M740.464844,586.671875 C742.027352,586.671875 743.430332,586.206385 744.673828,585.275391 C745.917324,584.344396 746.799477,583.136726 747.320312,581.652344 L747.320312,580.304688 C747.320312,577.414048 746.718105,575.171232 745.513672,573.576172 C744.309239,571.981112 742.684906,571.183594 740.640625,571.183594 C738.791657,571.183594 737.274746,571.929029 736.089844,573.419922 C734.904942,574.910815 734.3125,576.789051 734.3125,579.054688 C734.3125,581.229178 734.882156,583.04231 736.021484,584.494141 C737.160813,585.945971 738.641918,586.671875 740.464844,586.671875 L740.464844,586.671875 Z M772.398438,570.910156 L760.25,598 L757.808594,598 L769.878906,571.554688 L753.707031,571.554688 L753.707031,569.5625 L772.398438,569.5625 L772.398438,570.910156 Z M791.402344,588.839844 L795.835938,588.839844 L795.835938,590.8125 L791.402344,590.8125 L791.402344,598 L789.058594,598 L789.058594,590.8125 L775.679688,590.8125 L775.679688,589.484375 L788.84375,569.5625 L791.402344,569.5625 L791.402344,588.839844 Z M778.550781,588.839844 L789.058594,588.839844 L789.058594,572.589844 L788.023438,574.386719 L778.550781,588.839844 Z M823.296875,588.839844 L827.730469,588.839844 L827.730469,590.8125 L823.296875,590.8125 L823.296875,598 L820.953125,598 L820.953125,590.8125 L807.574219,590.8125 L807.574219,589.484375 L820.738281,569.5625 L823.296875,569.5625 L823.296875,588.839844 Z M810.445312,588.839844 L820.953125,588.839844 L820.953125,572.589844 L819.917969,574.386719 L810.445312,588.839844 Z M836.304688,582.511719 L838.726562,582.511719 C840.067715,582.511719 841.239578,582.274091 842.242188,581.798828 C843.244797,581.323565 844.009763,580.67253 844.537109,579.845703 C845.064456,579.018876 845.328125,578.06511 845.328125,576.984375 C845.328125,575.161449 844.813807,573.735682 843.785156,572.707031 C842.756505,571.67838 841.278655,571.164062 839.351562,571.164062 C837.528637,571.164062 836.034511,571.701167 834.869141,572.775391 C833.70377,573.849615 833.121094,575.265616 833.121094,577.023438 L830.777344,577.023438 C830.777344,575.552076 831.148434,574.207688 831.890625,572.990234 C832.632816,571.77278 833.661452,570.832035 834.976562,570.167969 C836.291673,569.503903 837.749992,569.171875 839.351562,569.171875 C841.9297,569.171875 843.96093,569.874993 845.445312,571.28125 C846.929695,572.687507 847.671875,574.614571 847.671875,577.0625 C847.671875,578.429694 847.238937,579.689447 846.373047,580.841797 C845.507157,581.994146 844.319018,582.856768 842.808594,583.429688 C844.579436,583.924482 845.920568,584.774083 846.832031,585.978516 C847.743494,587.182949 848.199219,588.618481 848.199219,590.285156 C848.199219,592.720064 847.404956,594.67968 845.816406,596.164062 C844.227857,597.648445 842.105482,598.390625 839.449219,598.390625 C837.756502,598.390625 836.203783,598.052087 834.791016,597.375 C833.378248,596.697913 832.284509,595.750657 831.509766,594.533203 C830.735022,593.315749 830.347656,591.899748 830.347656,590.285156 L832.691406,590.285156 C832.691406,592.095061 833.32291,593.569656 834.585938,594.708984 C835.848965,595.848313 837.470042,596.417969 839.449219,596.417969 C841.467458,596.417969 843.039708,595.900396 844.166016,594.865234 C845.292323,593.830073 845.855469,592.329437 845.855469,590.363281 C845.855469,588.46223 845.246751,587.010422 844.029297,586.007812 C842.811843,585.005203 841.018241,584.503906 838.648438,584.503906 L836.304688,584.503906 L836.304688,582.511719 Z M870.425781,586.144531 C870.425781,590.154968 869.690112,593.198557 868.21875,595.275391 C866.747388,597.352224 864.579441,598.390625 861.714844,598.390625 C858.90233,598.390625 856.747403,597.371755 855.25,595.333984 C853.752597,593.296214 852.984375,590.330749 852.945312,586.4375 L852.945312,581.339844 C852.945312,577.342428 853.687493,574.315114 855.171875,572.257812 C856.656257,570.200511 858.824204,569.171875 861.675781,569.171875 C864.488295,569.171875 866.636711,570.164704 868.121094,572.150391 C869.605476,574.136078 870.373698,577.062481 870.425781,580.929688 L870.425781,586.144531 Z M868.082031,581.046875 C868.082031,577.79165 867.551438,575.330737 866.490234,573.664062 C865.429031,571.997388 863.824229,571.164062 861.675781,571.164062 C859.566396,571.164062 857.97787,571.977856 856.910156,573.605469 C855.842443,575.233081 855.295573,577.635401 855.269531,580.8125 L855.269531,586.398438 C855.269531,589.640641 855.819656,592.121085 856.919922,593.839844 C858.020188,595.558602 859.618479,596.417969 861.714844,596.417969 C863.798188,596.417969 865.376948,595.578133 866.451172,593.898438 C867.525396,592.218742 868.06901,589.757829 868.082031,586.515625 L868.082031,581.046875 Z M896.050781,598 L893.707031,598 L893.707031,572.375 L885.972656,575.246094 L885.972656,573.058594 L895.660156,569.464844 L896.050781,569.464844 L896.050781,598 Z M924.097656,576.886719 C924.097656,578.35808 923.667973,579.676426 922.808594,580.841797 C921.949214,582.007167 920.816413,582.863279 919.410156,583.410156 C921.050789,583.970055 922.36588,584.874994 923.355469,586.125 C924.345057,587.375006 924.839844,588.820304 924.839844,590.460938 C924.839844,592.895846 924.013029,594.826165 922.359375,596.251953 C920.705721,597.677742 918.518243,598.390625 915.796875,598.390625 C913.049465,598.390625 910.852222,597.680997 909.205078,596.261719 C907.557934,594.842441 906.734375,592.908866 906.734375,590.460938 C906.734375,588.846346 907.209631,587.407558 908.160156,586.144531 C909.110682,584.881504 910.412752,583.970055 912.066406,583.410156 C910.660149,582.863279 909.540369,582.007167 908.707031,580.841797 C907.873694,579.676426 907.457031,578.35808 907.457031,576.886719 C907.457031,574.529936 908.215487,572.654955 909.732422,571.261719 C911.249357,569.868483 913.2578,569.171875 915.757812,569.171875 C918.257825,569.171875 920.272779,569.874993 921.802734,571.28125 C923.33269,572.687507 924.097656,574.555978 924.097656,576.886719 L924.097656,576.886719 Z M922.496094,590.480469 C922.496094,588.709627 921.86459,587.254563 920.601562,586.115234 C919.338535,584.975906 917.723968,584.40625 915.757812,584.40625 C913.791657,584.40625 912.1836,584.96614 910.933594,586.085938 C909.683587,587.205735 909.058594,588.670564 909.058594,590.480469 C909.058594,592.290374 909.664056,593.732417 910.875,594.806641 C912.085944,595.880865 913.726552,596.417969 915.796875,596.417969 C917.815114,596.417969 919.436192,595.88412 920.660156,594.816406 C921.884121,593.748693 922.496094,592.303395 922.496094,590.480469 L922.496094,590.480469 Z M921.753906,576.867188 C921.753906,575.239575 921.190761,573.882167 920.064453,572.794922 C918.938145,571.707677 917.502613,571.164062 915.757812,571.164062 C913.98697,571.164062 912.551438,571.688146 911.451172,572.736328 C910.350906,573.78451 909.800781,575.16145 909.800781,576.867188 C909.800781,578.533862 910.350906,579.874995 911.451172,580.890625 C912.551438,581.906255 913.993481,582.414062 915.777344,582.414062 C917.535165,582.414062 918.970698,581.903 920.083984,580.880859 C921.197271,579.858719 921.753906,578.520842 921.753906,576.867188 L921.753906,576.867188 Z M943.863281,588.839844 L948.296875,588.839844 L948.296875,590.8125 L943.863281,590.8125 L943.863281,598 L941.519531,598 L941.519531,590.8125 L928.140625,590.8125 L928.140625,589.484375 L941.304688,569.5625 L943.863281,569.5625 L943.863281,588.839844 Z M931.011719,588.839844 L941.519531,588.839844 L941.519531,572.589844 L940.484375,574.386719 L931.011719,588.839844 Z" id="matt@cucumber.io" fill="#1B1D1E" sketch:type="MSShapeGroup"></path>
            <path d="M702.007812,380.5625 L710.210938,402.359375 L718.394531,380.5625 L724.78125,380.5625 L724.78125,409 L719.859375,409 L719.859375,399.625 L720.347656,387.085938 L711.949219,409 L708.414062,409 L700.035156,387.105469 L700.523438,399.625 L700.523438,409 L695.601562,409 L695.601562,380.5625 L702.007812,380.5625 Z M746.890625,402.378906 L735.875,402.378906 L733.570312,409 L728.433594,409 L739.175781,380.5625 L743.609375,380.5625 L754.371094,409 L749.214844,409 L746.890625,402.378906 Z M737.261719,398.394531 L745.503906,398.394531 L741.382812,386.597656 L737.261719,398.394531 Z M775.796875,384.546875 L766.929688,384.546875 L766.929688,409 L762.027344,409 L762.027344,384.546875 L753.238281,384.546875 L753.238281,380.5625 L775.796875,380.5625 L775.796875,384.546875 Z M800.386719,384.546875 L791.519531,384.546875 L791.519531,409 L786.617188,409 L786.617188,384.546875 L777.828125,384.546875 L777.828125,380.5625 L800.386719,380.5625 L800.386719,384.546875 Z M835.210938,401.96875 L839.585938,380.5625 L844.488281,380.5625 L837.925781,409 L833.199219,409 L827.789062,388.238281 L822.261719,409 L817.515625,409 L810.953125,380.5625 L815.855469,380.5625 L820.269531,401.929688 L825.699219,380.5625 L829.839844,380.5625 L835.210938,401.96875 Z M857.378906,394.039062 L863.921875,380.5625 L869.390625,380.5625 L859.859375,398.53125 L859.859375,409 L854.898438,409 L854.898438,398.53125 L845.347656,380.5625 L850.835938,380.5625 L857.378906,394.039062 Z M895.035156,409 L890.09375,409 L877.417969,388.824219 L877.417969,409 L872.476562,409 L872.476562,380.5625 L877.417969,380.5625 L890.132812,400.816406 L890.132812,380.5625 L895.035156,380.5625 L895.035156,409 Z M923.433594,409 L918.492188,409 L905.816406,388.824219 L905.816406,409 L900.875,409 L900.875,380.5625 L905.816406,380.5625 L918.53125,400.816406 L918.53125,380.5625 L923.433594,380.5625 L923.433594,409 Z M945.894531,396.304688 L934.214844,396.304688 L934.214844,405.054688 L947.867188,405.054688 L947.867188,409 L929.273438,409 L929.273438,380.5625 L947.730469,380.5625 L947.730469,384.546875 L934.214844,384.546875 L934.214844,392.398438 L945.894531,392.398438 L945.894531,396.304688 Z" id="MATT-WYNNE" fill="#1B1D1E" sketch:type="MSShapeGroup"></path>
            <g id="Cucumber-logo" sketch:type="MSLayerGroup" transform="translate(90.000000, 90.000000)">
                <g id="g6053" sketch:type="MSShapeGroup">
                    <path d="M418.718234,69.6015101 C413.085253,69.6015101 409.517698,72.4328859 406.888974,76.7743289 C406.888974,75.6417785 407.452272,74.3204698 407.452272,73.3766779 L407.452272,71.489094 L398.063971,71.489094 L398.063971,118.678691 L407.452272,118.678691 L407.452272,91.4974832 C407.452272,83.7583893 411.583125,79.0394295 418.718234,79.0394295 L420.595894,79.0394295 L420.595894,69.6015101 L418.718234,69.6015101 L418.718234,69.6015101 Z" id="path5443" fill="#000000"></path>
                    <path d="M36.9899067,86.9672819 C34.3611824,82.8145973 30.6058619,79.9832215 25.1606472,79.9832215 C16.5234101,79.9832215 10.3271313,86.5897651 10.3271313,94.8951342 C10.3271313,103.200503 16.5234101,109.807047 25.1606472,109.807047 C30.6058619,109.807047 34.3611824,107.16443 36.9899067,103.011745 L45.6271438,108.108221 C41.4962913,114.526007 33.7978843,119.244966 25.1606472,119.244966 C9.20053518,119.244966 7.10542736e-15,107.16443 7.10542736e-15,95.0838926 C7.10542736e-15,83.0033557 9.3883012,70.9228188 25.1606472,70.9228188 C34.9244805,70.9228188 41.1207593,75.6417785 45.6271438,82.0595638 L36.9899067,86.9672819 L36.9899067,86.9672819 Z" id="path5445" fill="#000000"></path>
                    <path d="M53.8888489,72.0553691 L63.6526822,72.0553691 L63.6526822,97.7265101 C63.6526822,104.521812 68.5345988,109.240772 74.7308776,109.240772 C80.7393903,109.240772 85.809073,104.333054 85.809073,97.7265101 L85.809073,72.0553691 L95.5729062,72.0553691 L95.5729062,98.4815436 C95.5729062,111.317114 85.621307,119.056208 74.7308776,119.056208 C63.8404482,119.056208 53.8888489,111.317114 53.8888489,98.4815436 L53.8888489,72.0553691 L53.8888489,72.0553691 Z" id="path5447" fill="#000000"></path>
                    <path d="M141.387816,86.9672819 C138.759092,82.8145973 135.003771,79.9832215 129.558557,79.9832215 C120.921319,79.9832215 114.725041,86.5897651 114.725041,94.8951342 C114.725041,103.200503 120.921319,109.807047 129.558557,109.807047 C135.003771,109.807047 138.759092,107.16443 141.387816,103.011745 L150.025053,108.108221 C145.894201,114.526007 138.195794,119.244966 129.558557,119.244966 C113.598445,119.244966 104.397909,107.16443 104.397909,95.0838926 C104.397909,83.0033557 113.598445,70.9228188 129.558557,70.9228188 C139.32239,70.9228188 145.518669,75.6417785 150.025053,82.0595638 L141.387816,86.9672819 L141.387816,86.9672819 Z" id="path5449" fill="#000000"></path>
                    <path d="M158.286758,72.0553691 L168.050592,72.0553691 L168.050592,97.7265101 C168.050592,104.521812 172.932508,109.240772 179.128787,109.240772 C185.1373,109.240772 190.206982,104.333054 190.206982,97.7265101 L190.206982,72.0553691 L199.970816,72.0553691 L199.970816,98.4815436 C199.970816,111.317114 190.019216,119.056208 179.128787,119.056208 C168.238358,119.056208 158.286758,111.317114 158.286758,98.4815436 L158.286758,72.0553691 L158.286758,72.0553691 Z" id="path5451" fill="#000000"></path>
                    <path d="M212.175607,89.2323826 C212.175607,77.5293624 219.874014,70.9228188 228.886783,70.9228188 C235.834126,70.9228188 240.716043,74.3204698 242.593703,79.0394295 L242.781469,79.0394295 C244.659129,74.1317114 249.541046,70.9228188 256.488389,70.9228188 C265.501158,70.9228188 273.199565,77.7181208 273.199565,89.2323826 L273.199565,117.923658 L263.435732,117.923658 L263.435732,89.2323826 C263.435732,83.7583893 260.055943,80.5494966 255.925091,80.5494966 C251.23094,80.5494966 247.851152,83.3808725 247.851152,90.5536913 L247.851152,117.734899 L238.087319,117.734899 L238.087319,90.5536913 C238.087319,83.3808725 234.70753,80.5494966 230.013379,80.5494966 C225.882527,80.5494966 222.502739,83.7583893 222.502739,89.2323826 L222.502739,117.734899 L212.175607,117.734899 L212.175607,89.2323826 L212.175607,89.2323826 Z" id="path5453" fill="#000000"></path>
                    <path d="M285.216591,58.4647651 L294.980424,58.4647651 L294.980424,77.7181208 L295.16819,77.7181208 C297.421382,73.942953 303.617661,70.9228188 310.001706,70.9228188 C321.830965,70.9228188 333.660225,79.7944631 333.660225,95.0838926 C333.660225,110.373322 321.830965,119.244966 310.001706,119.244966 C303.617661,119.244966 297.421382,116.224832 295.16819,112.449664 L294.980424,112.449664 L294.980424,118.112416 L285.216591,118.112416 L285.216591,58.4647651 L285.216591,58.4647651 Z M309.062876,80.1719799 C300.988937,80.1719799 294.980424,86.5897651 294.980424,95.0838926 C294.980424,103.57802 300.988937,109.995805 309.062876,109.995805 C317.324581,109.995805 323.333093,103.57802 323.333093,95.0838926 C323.333093,86.4010067 317.324581,80.1719799 309.062876,80.1719799 L309.062876,80.1719799 Z" id="path5455" fill="#000000"></path>
                    <path d="M386.234711,107.919463 C380.789497,114.903523 373.278856,119.056208 365.017151,119.056208 C349.057039,119.056208 339.856504,106.975671 339.856504,94.8951342 C339.856504,82.8145973 349.244805,70.9228188 365.017151,70.9228188 C374.405452,70.9228188 388.67567,78.8506711 388.67567,96.5939597 L388.67567,98.2927852 L350.934699,98.2927852 C351.497997,105.276846 358.069808,110.373322 364.829385,110.373322 C370.086833,110.373322 374.593218,107.730705 377.973006,103.200503 L386.234711,107.919463 L386.234711,107.919463 Z M377.221942,90.1761745 C375.156516,83.1921141 370.086833,79.4169463 363.702789,79.4169463 C357.50651,79.4169463 352.436827,83.3808725 350.746933,90.1761745 L377.221942,90.1761745 L377.221942,90.1761745 Z" id="path5457" fill="#000000"></path>
                    <path d="M447.243798,0.741736158 C430.249972,0.741736158 416.497112,14.5672813 416.497112,31.6509224 C416.497112,46.6920176 427.222399,59.1896539 441.37611,61.9702387 L441.37611,70.8182882 C459.777357,68.0293792 476.070549,53.3451714 477.286362,34.0693893 C478.01818,22.466983 472.263705,10.6223286 462.558465,4.87082592 C462.002799,4.5415288 461.438245,4.21462173 460.856835,3.92703398 C460.264403,3.63399451 459.656051,3.34839211 459.037852,3.10121602 C458.841617,3.01869425 458.649337,2.94383381 458.451083,2.86526804 C457.911148,2.66489818 457.366334,2.4392664 456.80813,2.27539807 C453.799504,1.27851613 450.58333,0.741736158 447.243798,0.741736158 L447.243798,0.741736158 Z" id="path3943" fill="#00A818"></path>
                    <path d="M453.580902,12.1852135 C452.529119,12.0768247 451.421592,12.4447563 450.647057,13.3649534 C450.083759,14.119987 449.731698,14.8514258 449.356166,15.6064593 C448.22957,18.2490768 448.605102,21.0804526 450.294996,23.1567949 C452.92372,22.5905197 455.153442,20.9034916 456.280038,18.2608742 C456.65557,17.5058406 456.866807,16.5384539 456.866807,15.7834203 C456.984161,13.7778624 455.333874,12.3658611 453.580902,12.1852135 L453.580902,12.1852135 Z M439.909188,12.3621745 C438.194723,12.5262322 436.564606,13.8958364 436.564606,15.7834203 C436.564606,16.5384539 436.775842,17.5058406 437.151374,18.2608742 C438.277971,20.9034916 440.683723,22.5905197 443.312447,23.1567949 C444.814575,21.0804526 445.201843,18.2490768 444.075247,15.6064593 C443.699715,14.8514258 443.347653,14.1081896 442.784355,13.5419144 C442.00982,12.6217173 440.937868,12.26374 439.909188,12.3621745 L439.909188,12.3621745 Z M430.696917,21.446172 C427.736027,21.5989341 426.413505,25.3393138 428.877934,27.2858846 C429.628998,27.8521598 430.356591,28.2650688 431.107656,28.6425856 C433.73638,29.7751359 436.775842,29.3858217 439.029035,27.8757546 C438.465737,25.4218956 436.55287,23.1685923 433.924146,22.0360419 C432.985316,21.6585252 432.222516,21.446172 431.283686,21.446172 C431.072449,21.4225772 430.89431,21.435979 430.696917,21.446172 L430.696917,21.446172 Z M459.62462,32.8896493 C457.904654,32.8564656 456.162684,33.3615453 454.754439,34.3053372 C455.317737,36.7591963 457.230604,39.0124996 459.859328,40.1450499 C460.798158,40.5225667 461.560958,40.7349199 462.499788,40.7349199 C465.879576,40.9236783 467.534264,36.7238041 464.90554,34.8362202 C464.154476,34.2699451 463.426882,33.9160231 462.675818,33.5385063 C461.690047,33.1137999 460.656599,32.9095577 459.62462,32.8896493 L459.62462,32.8896493 Z M433.982823,33.0666103 C432.950843,33.0865243 431.917397,33.2907609 430.931625,33.7154673 C429.992795,34.0929841 429.265201,34.505893 428.701903,35.0721682 C426.260945,37.1485105 427.903898,41.1006393 431.283686,40.9118809 C432.222516,40.9118809 433.173082,40.6995277 433.924146,40.3220109 C436.55287,39.1894606 438.418795,36.9361573 438.794327,34.4822982 C437.386082,33.5385063 435.70279,33.0334304 433.982823,33.0666103 L433.982823,33.0666103 Z M443.488478,38.847336 C440.859753,39.4136112 438.630032,41.1006393 437.503436,43.7432567 C437.127904,44.4982903 436.916667,45.40669 436.916667,46.1617236 C436.728901,49.3706162 441.082726,51.0930365 442.960386,48.6391774 C443.523684,47.8841439 443.875745,47.1527051 444.251277,46.3976716 C445.377873,43.9438125 444.990606,41.1124367 443.488478,38.847336 L443.488478,38.847336 Z M450.471027,39.024297 C448.968899,41.1006393 448.581631,43.9320151 449.708227,46.5746326 C450.083759,47.3296661 450.435821,48.0729023 450.999119,48.6391774 C453.064545,50.9042781 457.406634,49.2290474 457.218868,46.3976716 C457.218868,45.642638 457.007631,44.6752513 456.632099,43.9202177 C455.505503,41.2776003 453.099751,39.5905721 450.471027,39.024297 L450.471027,39.024297 Z" id="rect4005" fill="#FFFFFF"></path>
                </g>
            </g>
            <path d="M122.257812,533.980469 C122.192708,535.894541 121.841149,537.668612 121.203125,539.302734 C120.565101,540.936857 119.682948,542.193355 118.556641,543.072266 C117.430333,543.951176 116.125007,544.390625 114.640625,544.390625 C113.377598,544.390625 112.348962,544.058597 111.554688,543.394531 C110.760413,542.730465 110.233074,541.799485 109.972656,540.601562 C108.566399,543.127617 106.626314,544.390625 104.152344,544.390625 C102.329418,544.390625 100.968754,543.602872 100.070312,542.027344 C99.1718705,540.451815 98.8398426,538.32944 99.0742188,535.660156 C99.2695322,533.53775 99.7545534,531.646493 100.529297,529.986328 C101.30404,528.326164 102.313145,527.030604 103.556641,526.099609 C104.800136,525.168615 106.131503,524.703125 107.550781,524.703125 C108.55339,524.703125 109.432288,524.843098 110.1875,525.123047 C110.942712,525.402996 111.82161,525.966142 112.824219,526.8125 L111.828125,537.945312 C111.697916,539.455737 111.889971,540.6276 112.404297,541.460938 C112.918622,542.294275 113.742182,542.710938 114.875,542.710938 C116.476571,542.710938 117.775386,541.92644 118.771484,540.357422 C119.767583,538.788404 120.324218,536.662774 120.441406,533.980469 C120.688803,528.707005 119.686209,524.738946 117.433594,522.076172 C115.180978,519.413398 111.769554,518.082031 107.199219,518.082031 C104.451809,518.082031 101.97462,518.768873 99.7675781,520.142578 C97.5605358,521.516283 95.8190168,523.459623 94.5429688,525.972656 C93.2669207,528.48569 92.550782,531.382796 92.3945312,534.664062 C92.2382805,537.945329 92.6712188,540.83267 93.6933594,543.326172 C94.7154999,545.819674 96.2584532,547.736972 98.3222656,549.078125 C100.386078,550.419278 102.843736,551.089844 105.695312,551.089844 C106.893235,551.089844 108.071609,550.946616 109.230469,550.660156 C110.389329,550.373696 111.359371,550.002606 112.140625,549.546875 L112.746094,551.109375 C112.003903,551.604169 110.968757,552.017576 109.640625,552.349609 C108.312493,552.681642 106.971361,552.847656 105.617188,552.847656 C102.361963,552.847656 99.5625117,552.115242 97.21875,550.650391 C94.8749883,549.18554 93.1204485,547.076186 91.9550781,544.322266 C90.7897077,541.568346 90.2851555,538.348977 90.4414062,534.664062 C90.597657,531.044253 91.3951751,527.837905 92.8339844,525.044922 C94.2727937,522.251939 96.242175,520.090502 98.7421875,518.560547 C101.2422,517.030591 104.087224,516.265625 107.277344,516.265625 C110.597673,516.265625 113.410145,516.958977 115.714844,518.345703 C118.019543,519.732429 119.725255,521.760403 120.832031,524.429688 C121.938808,527.098972 122.414063,530.282534 122.257812,533.980469 L122.257812,533.980469 Z M101.144531,538.414062 C101.287761,539.716152 101.652341,540.722002 102.238281,541.431641 C102.824222,542.14128 103.598954,542.496094 104.5625,542.496094 C106.971366,542.496094 108.748692,540.835954 109.894531,537.515625 L110.773438,527.4375 C109.901037,526.799476 108.872402,526.480469 107.6875,526.480469 C106.24218,526.480469 104.988938,527.056635 103.927734,528.208984 C102.866531,529.361334 102.088544,530.94986 101.59375,532.974609 C101.098956,534.999359 100.949218,536.812492 101.144531,538.414062 L101.144531,538.414062 Z M129.699219,522.867188 L129.777344,526.304688 C130.558598,525.028639 131.53515,524.071618 132.707031,523.433594 C133.878912,522.79557 135.180982,522.476562 136.613281,522.476562 C139.946631,522.476562 142.062496,523.843736 142.960938,526.578125 C143.71615,525.263014 144.725254,524.250655 145.988281,523.541016 C147.251308,522.831377 148.644524,522.476562 150.167969,522.476562 C154.699241,522.476562 157.010416,524.950496 157.101562,529.898438 L157.101562,544 L154.757812,544 L154.757812,530.074219 C154.744792,528.186188 154.337895,526.786463 153.537109,525.875 C152.736324,524.963537 151.430999,524.507812 149.621094,524.507812 C147.941398,524.533854 146.522141,525.077469 145.363281,526.138672 C144.204421,527.199875 143.559896,528.49218 143.429688,530.015625 L143.429688,544 L141.085938,544 L141.085938,529.898438 C141.072917,528.088533 140.646489,526.737635 139.806641,525.845703 C138.966793,524.953772 137.674488,524.507812 135.929688,524.507812 C134.458326,524.507812 133.195318,524.92773 132.140625,525.767578 C131.085932,526.607426 130.30469,527.854158 129.796875,529.507812 L129.796875,544 L127.453125,544 L127.453125,522.867188 L129.699219,522.867188 Z M176.359375,544 C176.124999,543.335934 175.975261,542.352871 175.910156,541.050781 C175.08984,542.118495 174.044928,542.942054 172.775391,543.521484 C171.505853,544.100914 170.161465,544.390625 168.742188,544.390625 C166.710927,544.390625 165.067064,543.824224 163.810547,542.691406 C162.55403,541.558588 161.925781,540.126311 161.925781,538.394531 C161.925781,536.337229 162.781892,534.709641 164.494141,533.511719 C166.206389,532.313796 168.592433,531.714844 171.652344,531.714844 L175.890625,531.714844 L175.890625,529.3125 C175.890625,527.802076 175.425135,526.613937 174.494141,525.748047 C173.563146,524.882157 172.205738,524.449219 170.421875,524.449219 C168.794263,524.449219 167.44662,524.865881 166.378906,525.699219 C165.311193,526.532556 164.777344,527.53515 164.777344,528.707031 L162.433594,528.6875 C162.433594,527.007804 163.214836,525.552741 164.777344,524.322266 C166.339852,523.091791 168.260405,522.476562 170.539062,522.476562 C172.895845,522.476562 174.75455,523.065749 176.115234,524.244141 C177.475918,525.422532 178.175781,527.066396 178.214844,529.175781 L178.214844,539.175781 C178.214844,541.220062 178.429685,542.749995 178.859375,543.765625 L178.859375,544 L176.359375,544 Z M169.015625,542.320312 C170.578133,542.320312 171.974603,541.942712 173.205078,541.1875 C174.435553,540.432288 175.330726,539.423183 175.890625,538.160156 L175.890625,533.511719 L171.710938,533.511719 C169.380197,533.537761 167.557298,533.964189 166.242188,534.791016 C164.927077,535.617843 164.269531,536.753899 164.269531,538.199219 C164.269531,539.384121 164.70898,540.367184 165.587891,541.148438 C166.466801,541.929691 167.609368,542.320312 169.015625,542.320312 L169.015625,542.320312 Z M188.078125,517.457031 L188.078125,522.867188 L192.453125,522.867188 L192.453125,524.78125 L188.078125,524.78125 L188.078125,538.863281 C188.078125,540.035162 188.289711,540.907549 188.712891,541.480469 C189.13607,542.053388 189.842443,542.339844 190.832031,542.339844 C191.222658,542.339844 191.854162,542.27474 192.726562,542.144531 L192.824219,544.058594 C192.212237,544.279949 191.378912,544.390625 190.324219,544.390625 C188.722648,544.390625 187.557295,543.925135 186.828125,542.994141 C186.098955,542.063146 185.734375,540.692717 185.734375,538.882812 L185.734375,524.78125 L181.847656,524.78125 L181.847656,522.867188 L185.734375,522.867188 L185.734375,517.457031 L188.078125,517.457031 Z M200.929688,517.457031 L200.929688,522.867188 L205.304688,522.867188 L205.304688,524.78125 L200.929688,524.78125 L200.929688,538.863281 C200.929688,540.035162 201.141274,540.907549 201.564453,541.480469 C201.987632,542.053388 202.694005,542.339844 203.683594,542.339844 C204.074221,542.339844 204.705725,542.27474 205.578125,542.144531 L205.675781,544.058594 C205.063799,544.279949 204.230474,544.390625 203.175781,544.390625 C201.574211,544.390625 200.408858,543.925135 199.679688,542.994141 C198.950517,542.063146 198.585938,540.692717 198.585938,538.882812 L198.585938,524.78125 L194.699219,524.78125 L194.699219,522.867188 L198.585938,522.867188 L198.585938,517.457031 L200.929688,517.457031 Z M215.207031,539.136719 L215.558594,540.953125 L216.027344,539.039062 L221.105469,522.867188 L223.097656,522.867188 L228.117188,538.902344 L228.664062,541.128906 L229.113281,539.078125 L233.449219,522.867188 L235.871094,522.867188 L229.71875,544 L227.726562,544 L222.296875,527.242188 L222.042969,526.089844 L221.789062,527.261719 L216.457031,544 L214.464844,544 L208.332031,522.867188 L210.734375,522.867188 L215.207031,539.136719 Z M247.003906,540.640625 L253.175781,522.867188 L255.695312,522.867188 L246.671875,547.59375 L246.203125,548.6875 C245.044265,551.252617 243.253918,552.535156 240.832031,552.535156 C240.272133,552.535156 239.67318,552.444011 239.035156,552.261719 L239.015625,550.328125 L240.226562,550.445312 C241.372402,550.445312 242.300127,550.162112 243.009766,549.595703 C243.719405,549.029294 244.321612,548.055996 244.816406,546.675781 L245.851562,543.824219 L237.882812,522.867188 L240.441406,522.867188 L247.003906,540.640625 Z M261.535156,522.867188 L261.613281,526.480469 C262.407556,525.178379 263.397129,524.18555 264.582031,523.501953 C265.766933,522.818356 267.075514,522.476562 268.507812,522.476562 C270.773449,522.476562 272.45963,523.114577 273.566406,524.390625 C274.673183,525.666673 275.233073,527.580716 275.246094,530.132812 L275.246094,544 L272.921875,544 L272.921875,530.113281 C272.908854,528.225251 272.508467,526.819015 271.720703,525.894531 C270.932939,524.970047 269.673186,524.507812 267.941406,524.507812 C266.496087,524.507812 265.216802,524.960282 264.103516,525.865234 C262.990229,526.770187 262.166669,527.990878 261.632812,529.527344 L261.632812,544 L259.308594,544 L259.308594,522.867188 L261.535156,522.867188 Z M283.507812,522.867188 L283.585938,526.480469 C284.380212,525.178379 285.369786,524.18555 286.554688,523.501953 C287.739589,522.818356 289.04817,522.476562 290.480469,522.476562 C292.746105,522.476562 294.432286,523.114577 295.539062,524.390625 C296.645839,525.666673 297.205729,527.580716 297.21875,530.132812 L297.21875,544 L294.894531,544 L294.894531,530.113281 C294.88151,528.225251 294.481124,526.819015 293.693359,525.894531 C292.905595,524.970047 291.645842,524.507812 289.914062,524.507812 C288.468743,524.507812 287.189459,524.960282 286.076172,525.865234 C284.962885,526.770187 284.139326,527.990878 283.605469,529.527344 L283.605469,544 L281.28125,544 L281.28125,522.867188 L283.507812,522.867188 Z M311.4375,544.390625 C309.640616,544.390625 308.016283,543.947921 306.564453,543.0625 C305.112623,542.177079 303.983077,540.943367 303.175781,539.361328 C302.368486,537.779289 301.964844,536.005218 301.964844,534.039062 L301.964844,533.199219 C301.964844,531.167959 302.35872,529.33855 303.146484,527.710938 C303.934249,526.083325 305.031243,524.804041 306.4375,523.873047 C307.843757,522.942053 309.367179,522.476562 311.007812,522.476562 C313.572929,522.476562 315.607414,523.352205 317.111328,525.103516 C318.615242,526.854826 319.367188,529.247381 319.367188,532.28125 L319.367188,533.589844 L304.289062,533.589844 L304.289062,534.039062 C304.289062,536.434908 304.975905,538.430331 306.349609,540.025391 C307.723314,541.620451 309.451813,542.417969 311.535156,542.417969 C312.785163,542.417969 313.888667,542.190106 314.845703,541.734375 C315.802739,541.278644 316.671871,540.549484 317.453125,539.546875 L318.917969,540.660156 C317.19921,543.147148 314.705746,544.390625 311.4375,544.390625 L311.4375,544.390625 Z M311.007812,524.46875 C309.249991,524.46875 307.768886,525.113275 306.564453,526.402344 C305.36002,527.691413 304.627605,529.423166 304.367188,531.597656 L317.042969,531.597656 L317.042969,531.34375 C316.977864,529.31249 316.398443,527.658861 315.304688,526.382812 C314.210932,525.106764 312.778655,524.46875 311.007812,524.46875 L311.007812,524.46875 Z M99.1132812,594.601562 C100.298183,594.601562 101.281246,594.256514 102.0625,593.566406 C102.843754,592.876299 103.260416,592.023443 103.3125,591.007812 L107.785156,591.007812 C107.733073,592.322923 107.322921,593.550125 106.554688,594.689453 C105.786454,595.828782 104.744798,596.730465 103.429688,597.394531 C102.114577,598.058597 100.69532,598.390625 99.171875,598.390625 C96.2161311,598.390625 93.8724045,597.433603 92.140625,595.519531 C90.4088455,593.605459 89.5429688,590.962256 89.5429688,587.589844 L89.5429688,587.101562 C89.5429688,583.885401 90.4023352,581.310557 92.1210938,579.376953 C93.8398523,577.44335 96.1835789,576.476562 99.1523438,576.476562 C101.665377,576.476562 103.712883,577.208977 105.294922,578.673828 C106.876961,580.138679 107.707031,582.062488 107.785156,584.445312 L103.3125,584.445312 C103.260416,583.234369 102.847009,582.238285 102.072266,581.457031 C101.297522,580.675777 100.311204,580.285156 99.1132812,580.285156 C97.5768152,580.285156 96.3919312,580.841791 95.5585938,581.955078 C94.7252563,583.068365 94.3020834,584.757801 94.2890625,587.023438 L94.2890625,587.785156 C94.2890625,590.076834 94.7024698,591.785802 95.5292969,592.912109 C96.3561239,594.038417 97.5507734,594.601562 99.1132812,594.601562 L99.1132812,594.601562 Z M124.171875,595.929688 C122.778639,597.570321 120.799492,598.390625 118.234375,598.390625 C115.942697,598.390625 114.207688,597.720059 113.029297,596.378906 C111.850906,595.037754 111.261719,593.097669 111.261719,590.558594 L111.261719,576.867188 L116.007812,576.867188 L116.007812,590.5 C116.007812,593.182305 117.121083,594.523438 119.347656,594.523438 C121.652355,594.523438 123.208329,593.696623 124.015625,592.042969 L124.015625,576.867188 L128.761719,576.867188 L128.761719,598 L124.289062,598 L124.171875,595.929688 Z M142.277344,594.601562 C143.462246,594.601562 144.445309,594.256514 145.226562,593.566406 C146.007816,592.876299 146.424479,592.023443 146.476562,591.007812 L150.949219,591.007812 C150.897135,592.322923 150.486983,593.550125 149.71875,594.689453 C148.950517,595.828782 147.908861,596.730465 146.59375,597.394531 C145.278639,598.058597 143.859383,598.390625 142.335938,598.390625 C139.380194,598.390625 137.036467,597.433603 135.304688,595.519531 C133.572908,593.605459 132.707031,590.962256 132.707031,587.589844 L132.707031,587.101562 C132.707031,583.885401 133.566398,581.310557 135.285156,579.376953 C137.003915,577.44335 139.347641,576.476562 142.316406,576.476562 C144.82944,576.476562 146.876945,577.208977 148.458984,578.673828 C150.041024,580.138679 150.871093,582.062488 150.949219,584.445312 L146.476562,584.445312 C146.424479,583.234369 146.011072,582.238285 145.236328,581.457031 C144.461585,580.675777 143.475266,580.285156 142.277344,580.285156 C140.740878,580.285156 139.555994,580.841791 138.722656,581.955078 C137.889319,583.068365 137.466146,584.757801 137.453125,587.023438 L137.453125,587.785156 C137.453125,590.076834 137.866532,591.785802 138.693359,592.912109 C139.520186,594.038417 140.714836,594.601562 142.277344,594.601562 L142.277344,594.601562 Z M167.335938,595.929688 C165.942701,597.570321 163.963554,598.390625 161.398438,598.390625 C159.106759,598.390625 157.371751,597.720059 156.193359,596.378906 C155.014968,595.037754 154.425781,593.097669 154.425781,590.558594 L154.425781,576.867188 L159.171875,576.867188 L159.171875,590.5 C159.171875,593.182305 160.285145,594.523438 162.511719,594.523438 C164.816418,594.523438 166.372392,593.696623 167.179688,592.042969 L167.179688,576.867188 L171.925781,576.867188 L171.925781,598 L167.453125,598 L167.335938,595.929688 Z M181.222656,576.867188 L181.359375,579.074219 C182.843757,577.342439 184.874987,576.476562 187.453125,576.476562 C190.27866,576.476562 192.212234,577.557281 193.253906,579.71875 C194.790372,577.557281 196.951809,576.476562 199.738281,576.476562 C202.069022,576.476562 203.804031,577.121087 204.943359,578.410156 C206.082688,579.699225 206.665364,581.600248 206.691406,584.113281 L206.691406,598 L201.945312,598 L201.945312,584.25 C201.945312,582.908847 201.652347,581.925784 201.066406,581.300781 C200.480466,580.675778 199.510423,580.363281 198.15625,580.363281 C197.075515,580.363281 196.193363,580.652992 195.509766,581.232422 C194.826168,581.811852 194.347658,582.570308 194.074219,583.507812 L194.09375,598 L189.347656,598 L189.347656,584.09375 C189.282552,581.606758 188.013033,580.363281 185.539062,580.363281 C183.638011,580.363281 182.290369,581.138013 181.496094,582.6875 L181.496094,598 L176.75,598 L176.75,576.867188 L181.222656,576.867188 Z M230.109375,587.648438 C230.109375,590.929704 229.37696,593.540355 227.912109,595.480469 C226.447258,597.420583 224.432304,598.390625 221.867188,598.390625 C219.393217,598.390625 217.466153,597.498707 216.085938,595.714844 L215.851562,598 L211.554688,598 L211.554688,568 L216.300781,568 L216.300781,578.898438 C217.667976,577.283846 219.510405,576.476562 221.828125,576.476562 C224.406263,576.476562 226.430982,577.433584 227.902344,579.347656 C229.373705,581.261728 230.109375,583.937483 230.109375,587.375 L230.109375,587.648438 Z M225.363281,587.238281 C225.363281,584.946603 224.959639,583.22787 224.152344,582.082031 C223.345048,580.936192 222.173185,580.363281 220.636719,580.363281 C218.579417,580.363281 217.134119,581.26171 216.300781,583.058594 L216.300781,591.769531 C217.14714,593.605478 218.605458,594.523438 220.675781,594.523438 C222.160164,594.523438 223.305986,593.970058 224.113281,592.863281 C224.920577,591.756505 225.337239,590.083345 225.363281,587.84375 L225.363281,587.238281 Z M243.390625,598.390625 C240.382797,598.390625 237.944671,597.443369 236.076172,595.548828 C234.207673,593.654287 233.273438,591.131526 233.273438,587.980469 L233.273438,587.394531 C233.273438,585.285146 233.680334,583.400399 234.494141,581.740234 C235.307947,580.08007 236.450513,578.787765 237.921875,577.863281 C239.393237,576.938797 241.033845,576.476562 242.84375,576.476562 C245.721369,576.476562 247.944654,577.394522 249.513672,579.230469 C251.08269,581.066415 251.867188,583.664046 251.867188,587.023438 L251.867188,588.9375 L238.058594,588.9375 C238.201824,590.6823 238.7845,592.062495 239.806641,593.078125 C240.828781,594.093755 242.114576,594.601562 243.664062,594.601562 C245.838553,594.601562 247.609368,593.722665 248.976562,591.964844 L251.535156,594.40625 C250.688798,595.669277 249.559252,596.649085 248.146484,597.345703 C246.733717,598.042321 245.148446,598.390625 243.390625,598.390625 L243.390625,598.390625 Z M242.824219,580.285156 C241.522129,580.285156 240.470707,580.740881 239.669922,581.652344 C238.869137,582.563807 238.358074,583.833325 238.136719,585.460938 L247.179688,585.460938 L247.179688,585.109375 C247.07552,583.520825 246.652347,582.319666 245.910156,581.505859 C245.167965,580.692053 244.139329,580.285156 242.824219,580.285156 L242.824219,580.285156 Z M266.613281,581.203125 C265.988278,581.098958 265.343753,581.046875 264.679688,581.046875 C262.505197,581.046875 261.040368,581.8802 260.285156,583.546875 L260.285156,598 L255.539062,598 L255.539062,576.867188 L260.070312,576.867188 L260.1875,579.230469 C261.333339,577.394522 262.921865,576.476562 264.953125,576.476562 C265.630212,576.476562 266.190102,576.567707 266.632812,576.75 L266.613281,581.203125 Z M269.191406,593 C270.076827,593 270.760414,593.250649 271.242188,593.751953 C271.723961,594.253258 271.964844,594.881507 271.964844,595.636719 C271.964844,596.37891 271.723961,596.994138 271.242188,597.482422 C270.760414,597.970706 270.076827,598.214844 269.191406,598.214844 C268.345048,598.214844 267.674482,597.973961 267.179688,597.492188 C266.684893,597.010414 266.4375,596.391931 266.4375,595.636719 C266.4375,594.881507 266.678383,594.253258 267.160156,593.751953 C267.641929,593.250649 268.319006,593 269.191406,593 L269.191406,593 Z M282.453125,598 L277.707031,598 L277.707031,576.867188 L282.453125,576.867188 L282.453125,598 Z M277.414062,571.378906 C277.414062,570.649736 277.64518,570.044273 278.107422,569.5625 C278.569664,569.080727 279.230464,568.839844 280.089844,568.839844 C280.949223,568.839844 281.613279,569.080727 282.082031,569.5625 C282.550784,570.044273 282.785156,570.649736 282.785156,571.378906 C282.785156,572.095056 282.550784,572.690753 282.082031,573.166016 C281.613279,573.641278 280.949223,573.878906 280.089844,573.878906 C279.230464,573.878906 278.569664,573.641278 278.107422,573.166016 C277.64518,572.690753 277.414062,572.095056 277.414062,571.378906 L277.414062,571.378906 Z M286.730469,587.238281 C286.730469,585.167958 287.140621,583.302743 287.960938,581.642578 C288.781254,579.982414 289.933586,578.706385 291.417969,577.814453 C292.902351,576.922522 294.608063,576.476562 296.535156,576.476562 C299.386733,576.476562 301.701163,577.394522 303.478516,579.230469 C305.255868,581.066415 306.216145,583.501287 306.359375,586.535156 L306.378906,587.648438 C306.378906,589.731781 305.97852,591.593742 305.177734,593.234375 C304.376949,594.875008 303.231127,596.144527 301.740234,597.042969 C300.249342,597.941411 298.527354,598.390625 296.574219,598.390625 C293.592433,598.390625 291.206389,597.397796 289.416016,595.412109 C287.625642,593.426422 286.730469,590.779964 286.730469,587.472656 L286.730469,587.238281 Z M291.476562,587.648438 C291.476562,589.822928 291.925777,591.525384 292.824219,592.755859 C293.722661,593.986334 294.972648,594.601562 296.574219,594.601562 C298.175789,594.601562 299.422522,593.976569 300.314453,592.726562 C301.206385,591.476556 301.652344,589.647147 301.652344,587.238281 C301.652344,585.102854 301.193364,583.410162 300.275391,582.160156 C299.357417,580.91015 298.110685,580.285156 296.535156,580.285156 C294.985669,580.285156 293.755213,580.900384 292.84375,582.130859 C291.932287,583.361334 291.476562,585.200509 291.476562,587.648438 L291.476562,587.648438 Z M311.730469,600.441406 L308,600.441406 L319.191406,569.5625 L322.921875,569.5625 L311.730469,600.441406 Z M330.675781,576.867188 L330.8125,579.074219 C332.296882,577.342439 334.328112,576.476562 336.90625,576.476562 C339.731785,576.476562 341.665359,577.557281 342.707031,579.71875 C344.243497,577.557281 346.404934,576.476562 349.191406,576.476562 C351.522147,576.476562 353.257156,577.121087 354.396484,578.410156 C355.535813,579.699225 356.118489,581.600248 356.144531,584.113281 L356.144531,598 L351.398438,598 L351.398438,584.25 C351.398438,582.908847 351.105472,581.925784 350.519531,581.300781 C349.933591,580.675778 348.963548,580.363281 347.609375,580.363281 C346.52864,580.363281 345.646488,580.652992 344.962891,581.232422 C344.279293,581.811852 343.800783,582.570308 343.527344,583.507812 L343.546875,598 L338.800781,598 L338.800781,584.09375 C338.735677,581.606758 337.466158,580.363281 334.992188,580.363281 C333.091136,580.363281 331.743494,581.138013 330.949219,582.6875 L330.949219,598 L326.203125,598 L326.203125,576.867188 L330.675781,576.867188 Z M379.582031,591.457031 L382.941406,576.867188 L387.570312,576.867188 L381.808594,598 L377.902344,598 L373.371094,583.488281 L368.917969,598 L365.011719,598 L359.230469,576.867188 L363.859375,576.867188 L367.277344,591.300781 L371.613281,576.867188 L375.1875,576.867188 L379.582031,591.457031 Z" id="@mattwynne" fill="#1B1D1E" sketch:type="MSShapeGroup"></path>
            <path d="M900.230469,443.132812 C899.904946,446.127619 898.833993,448.419263 897.017578,450.007812 C895.201163,451.596362 892.782567,452.390625 889.761719,452.390625 C887.652333,452.390625 885.787117,451.863287 884.166016,450.808594 C882.544914,449.753901 881.291671,448.259775 880.40625,446.326172 C879.520829,444.392568 879.071615,442.182304 879.058594,439.695312 L879.058594,436.003906 C879.058594,433.477852 879.501298,431.238291 880.386719,429.285156 C881.27214,427.332021 882.544914,425.824875 884.205078,424.763672 C885.865243,423.702469 887.776031,423.171875 889.9375,423.171875 C892.98439,423.171875 895.389965,423.995434 897.154297,425.642578 C898.918629,427.289722 899.944009,429.56509 900.230469,432.46875 L897.808594,432.46875 C897.209632,427.637997 894.585961,425.222656 889.9375,425.222656 C887.359362,425.222656 885.305346,426.186188 883.775391,428.113281 C882.245435,430.040374 881.480469,432.703108 881.480469,436.101562 L881.480469,439.578125 C881.480469,442.859391 882.225904,445.476553 883.716797,447.429688 C885.20769,449.382822 887.222644,450.359375 889.761719,450.359375 C892.274752,450.359375 894.169264,449.757167 895.445312,448.552734 C896.721361,447.348301 897.509113,445.541679 897.808594,443.132812 L900.230469,443.132812 Z M912.164062,439.441406 L917.867188,430.867188 L920.640625,430.867188 L913.472656,441.238281 L920.953125,452 L918.199219,452 L912.183594,443.054688 L906.167969,452 L903.414062,452 L910.875,441.238281 L903.707031,430.867188 L906.460938,430.867188 L912.164062,439.441406 Z M946.539062,439.324219 C946.539062,441.941419 946.086593,444.239573 945.181641,446.21875 C944.276688,448.197927 942.984383,449.721349 941.304688,450.789062 C939.624992,451.856776 937.684907,452.390625 935.484375,452.390625 C932.164046,452.390625 929.481781,451.202486 927.4375,448.826172 C925.393219,446.449858 924.371094,443.24351 924.371094,439.207031 L924.371094,436.277344 C924.371094,433.686185 924.830074,431.391286 925.748047,429.392578 C926.66602,427.39387 927.964835,425.857427 929.644531,424.783203 C931.324227,423.708979 933.257802,423.171875 935.445312,423.171875 C937.632823,423.171875 939.563143,423.699213 941.236328,424.753906 C942.909514,425.808599 944.201818,427.29947 945.113281,429.226562 C946.024744,431.153655 946.5,433.386706 946.539062,435.925781 L946.539062,439.324219 Z M944.136719,436.238281 C944.136719,432.813785 943.361987,430.13152 941.8125,428.191406 C940.263013,426.251292 938.140638,425.28125 935.445312,425.28125 C932.80207,425.28125 930.695971,426.254548 929.126953,428.201172 C927.557935,430.147796 926.773438,432.865868 926.773438,436.355469 L926.773438,439.324219 C926.773438,442.696631 927.55468,445.369131 929.117188,447.341797 C930.679695,449.314463 932.80207,450.300781 935.484375,450.300781 C938.205743,450.300781 940.328117,449.327484 941.851562,447.380859 C943.375008,445.434235 944.136719,442.722674 944.136719,439.246094 L944.136719,436.238281 Z" id="CxO" fill="#65696B" sketch:type="MSShapeGroup"></path>
        </g>
    </g>
</svg>