<?xml version="1.0" encoding="UTF-8" standalone="no"?>
<svg width="1039px" height="697px" viewBox="0 0 1039 697" version="1.1" xmlns="http://www.w3.org/2000/svg" xmlns:xlink="http://www.w3.org/1999/xlink" xmlns:sketch="http://www.bohemiancoding.com/sketch/ns">
    <!-- Generator: Sketch 3.4.2 (15855) - http://www.bohemiancoding.com/sketch -->
    <title>Matt-Front</title>
    <desc>Created with Sketch.</desc>
    <defs></defs>
    <g id="Matt" stroke="none" stroke-width="1" fill="none" fill-rule="evenodd" sketch:type="MSPage">
        <g id="Matt-Front" sketch:type="MSArtboardGroup">
            <g id="Cucumber-logo" sketch:type="MSLayerGroup" transform="translate(90.000000, 90.000000)">
                <g id="g6053" sketch:type="MSShapeGroup">
                    <path d="M418.718234,69.6015101 C413.085253,69.6015101 409.517698,72.4328859 406.888974,76.7743289 C406.888974,75.6417785 407.452272,74.3204698 407.452272,73.3766779 L407.452272,71.489094 L398.063971,71.489094 L398.063971,118.678691 L407.452272,118.678691 L407.452272,91.4974832 C407.452272,83.7583893 411.583125,79.0394295 418.718234,79.0394295 L420.595894,79.0394295 L420.595894,69.6015101 L418.718234,69.6015101 L418.718234,69.6015101 Z" id="path5443" fill="#000000"></path>
                    <path d="M36.9899067,86.9672819 C34.3611824,82.8145973 30.6058619,79.9832215 25.1606472,79.9832215 C16.5234101,79.9832215 10.3271313,86.5897651 10.3271313,94.8951342 C10.3271313,103.200503 16.5234101,109.807047 25.1606472,109.807047 C30.6058619,109.807047 34.3611824,107.16443 36.9899067,103.011745 L45.6271438,108.108221 C41.4962913,114.526007 33.7978843,119.244966 25.1606472,119.244966 C9.20053518,119.244966 7.10542736e-15,107.16443 7.10542736e-15,95.0838926 C7.10542736e-15,83.0033557 9.3883012,70.9228188 25.1606472,70.9228188 C34.9244805,70.9228188 41.1207593,75.6417785 45.6271438,82.0595638 L36.9899067,86.9672819 L36.9899067,86.9672819 Z" id="path5445" fill="#000000"></path>
                    <path d="M53.8888489,72.0553691 L63.6526822,72.0553691 L63.6526822,97.7265101 C63.6526822,104.521812 68.5345988,109.240772 74.7308776,109.240772 C80.7393903,109.240772 85.809073,104.333054 85.809073,97.7265101 L85.809073,72.0553691 L95.5729062,72.0553691 L95.5729062,98.4815436 C95.5729062,111.317114 85.621307,119.056208 74.7308776,119.056208 C63.8404482,119.056208 53.8888489,111.317114 53.8888489,98.4815436 L53.8888489,72.0553691 L53.8888489,72.0553691 Z" id="path5447" fill="#000000"></path>
                    <path d="M141.387816,86.9672819 C138.759092,82.8145973 135.003771,79.9832215 129.558557,79.9832215 C120.921319,79.9832215 114.725041,86.5897651 114.725041,94.8951342 C114.725041,103.200503 120.921319,109.807047 129.558557,109.807047 C135.003771,109.807047 138.759092,107.16443 141.387816,103.011745 L150.025053,108.108221 C145.894201,114.526007 138.195794,119.244966 129.558557,119.244966 C113.598445,119.244966 104.397909,107.16443 104.397909,95.0838926 C104.397909,83.0033557 113.598445,70.9228188 129.558557,70.9228188 C139.32239,70.9228188 145.518669,75.6417785 150.025053,82.0595638 L141.387816,86.9672819 L141.387816,86.9672819 Z" id="path5449" fill="#000000"></path>
                    <path d="M158.286758,72.0553691 L168.050592,72.0553691 L168.050592,97.7265101 C168.050592,104.521812 172.932508,109.240772 179.128787,109.240772 C185.1373,109.240772 190.206982,104.333054 190.206982,97.7265101 L190.206982,72.0553691 L199.970816,72.0553691 L199.970816,98.4815436 C199.970816,111.317114 190.019216,119.056208 179.128787,119.056208 C168.238358,119.056208 158.286758,111.317114 158.286758,98.4815436 L158.286758,72.0553691 L158.286758,72.0553691 Z" id="path5451" fill="#000000"></path>
                    <path d="M212.175607,89.2323826 C212.175607,77.5293624 219.874014,70.9228188 228.886783,70.9228188 C235.834126,70.9228188 240.716043,74.3204698 242.593703,79.0394295 L242.781469,79.0394295 C244.659129,74.1317114 249.541046,70.9228188 256.488389,70.9228188 C265.501158,70.9228188 273.199565,77.7181208 273.199565,89.2323826 L273.199565,117.923658 L263.435732,117.923658 L263.435732,89.2323826 C263.435732,83.7583893 260.055943,80.5494966 255.925091,80.5494966 C251.23094,80.5494966 247.851152,83.3808725 247.851152,90.5536913 L247.851152,117.734899 L238.087319,117.734899 L238.087319,90.5536913 C238.087319,83.3808725 234.70753,80.5494966 230.013379,80.5494966 C225.882527,80.5494966 222.502739,83.7583893 222.502739,89.2323826 L222.502739,117.734899 L212.175607,117.734899 L212.175607,89.2323826 L212.175607,89.2323826 Z" id="path5453" fill="#000000"></path>
                    <path d="M285.216591,58.4647651 L294.980424,58.4647651 L294.980424,77.7181208 L295.16819,77.7181208 C297.421382,73.942953 303.617661,70.9228188 310.001706,70.9228188 C321.830965,70.9228188 333.660225,79.7944631 333.660225,95.0838926 C333.660225,110.373322 321.830965,119.244966 310.001706,119.244966 C303.617661,119.244966 297.421382,116.224832 295.16819,112.449664 L294.980424,112.449664 L294.980424,118.112416 L285.216591,118.112416 L285.216591,58.4647651 L285.216591,58.4647651 Z M309.062876,80.1719799 C300.988937,80.1719799 294.980424,86.5897651 294.980424,95.0838926 C294.980424,103.57802 300.988937,109.995805 309.062876,109.995805 C317.324581,109.995805 323.333093,103.57802 323.333093,95.0838926 C323.333093,86.4010067 317.324581,80.1719799 309.062876,80.1719799 L309.062876,80.1719799 Z" id="path5455" fill="#000000"></path>
                    <path d="M386.234711,107.919463 C380.789497,114.903523 373.278856,119.056208 365.017151,119.056208 C349.057039,119.056208 339.856504,106.975671 339.856504,94.8951342 C339.856504,82.8145973 349.244805,70.9228188 365.017151,70.9228188 C374.405452,70.9228188 388.67567,78.8506711 388.67567,96.5939597 L388.67567,98.2927852 L350.934699,98.2927852 C351.497997,105.276846 358.069808,110.373322 364.829385,110.373322 C370.086833,110.373322 374.593218,107.730705 377.973006,103.200503 L386.234711,107.919463 L386.234711,107.919463 Z M377.221942,90.1761745 C375.156516,83.1921141 370.086833,79.4169463 363.702789,79.4169463 C357.50651,79.4169463 352.436827,83.3808725 350.746933,90.1761745 L377.221942,90.1761745 L377.221942,90.1761745 Z" id="path5457" fill="#000000"></path>
                    <path d="M447.243798,0.741736158 C430.249972,0.741736158 416.497112,14.5672813 416.497112,31.6509224 C416.497112,46.6920176 427.222399,59.1896539 441.37611,61.9702387 L441.37611,70.8182882 C459.777357,68.0293792 476.070549,53.3451714 477.286362,34.0693893 C478.01818,22.466983 472.263705,10.6223286 462.558465,4.87082592 C462.002799,4.5415288 461.438245,4.21462173 460.856835,3.92703398 C460.264403,3.63399451 459.656051,3.34839211 459.037852,3.10121602 C458.841617,3.01869425 458.649337,2.94383381 458.451083,2.86526804 C457.911148,2.66489818 457.366334,2.4392664 456.80813,2.27539807 C453.799504,1.27851613 450.58333,0.741736158 447.243798,0.741736158 L447.243798,0.741736158 Z" id="path3943" fill="#00A818"></path>
                    <path d="M453.580902,12.1852135 C452.529119,12.0768247 451.421592,12.4447563 450.647057,13.3649534 C450.083759,14.119987 449.731698,14.8514258 449.356166,15.6064593 C448.22957,18.2490768 448.605102,21.0804526 450.294996,23.1567949 C452.92372,22.5905197 455.153442,20.9034916 456.280038,18.2608742 C456.65557,17.5058406 456.866807,16.5384539 456.866807,15.7834203 C456.984161,13.7778624 455.333874,12.3658611 453.580902,12.1852135 L453.580902,12.1852135 Z M439.909188,12.3621745 C438.194723,12.5262322 436.564606,13.8958364 436.564606,15.7834203 C436.564606,16.5384539 436.775842,17.5058406 437.151374,18.2608742 C438.277971,20.9034916 440.683723,22.5905197 443.312447,23.1567949 C444.814575,21.0804526 445.201843,18.2490768 444.075247,15.6064593 C443.699715,14.8514258 443.347653,14.1081896 442.784355,13.5419144 C442.00982,12.6217173 440.937868,12.26374 439.909188,12.3621745 L439.909188,12.3621745 Z M430.696917,21.446172 C427.736027,21.5989341 426.413505,25.3393138 428.877934,27.2858846 C429.628998,27.8521598 430.356591,28.2650688 431.107656,28.6425856 C433.73638,29.7751359 436.775842,29.3858217 439.029035,27.8757546 C438.465737,25.4218956 436.55287,23.1685923 433.924146,22.0360419 C432.985316,21.6585252 432.222516,21.446172 431.283686,21.446172 C431.072449,21.4225772 430.89431,21.435979 430.696917,21.446172 L430.696917,21.446172 Z M459.62462,32.8896493 C457.904654,32.8564656 456.162684,33.3615453 454.754439,34.3053372 C455.317737,36.7591963 457.230604,39.0124996 459.859328,40.1450499 C460.798158,40.5225667 461.560958,40.7349199 462.499788,40.7349199 C465.879576,40.9236783 467.534264,36.7238041 464.90554,34.8362202 C464.154476,34.2699451 463.426882,33.9160231 462.675818,33.5385063 C461.690047,33.1137999 460.656599,32.9095577 459.62462,32.8896493 L459.62462,32.8896493 Z M433.982823,33.0666103 C432.950843,33.0865243 431.917397,33.2907609 430.931625,33.7154673 C429.992795,34.0929841 429.265201,34.505893 428.701903,35.0721682 C426.260945,37.1485105 427.903898,41.1006393 431.283686,40.9118809 C432.222516,40.9118809 433.173082,40.6995277 433.924146,40.3220109 C436.55287,39.1894606 438.418795,36.9361573 438.794327,34.4822982 C437.386082,33.5385063 435.70279,33.0334304 433.982823,33.0666103 L433.982823,33.0666103 Z M443.488478,38.847336 C440.859753,39.4136112 438.630032,41.1006393 437.503436,43.7432567 C437.127904,44.4982903 436.916667,45.40669 436.916667,46.1617236 C436.728901,49.3706162 441.082726,51.0930365 442.960386,48.6391774 C443.523684,47.8841439 443.875745,47.1527051 444.251277,46.3976716 C445.377873,43.9438125 444.990606,41.1124367 443.488478,38.847336 L443.488478,38.847336 Z M450.471027,39.024297 C448.968899,41.1006393 448.581631,43.9320151 449.708227,46.5746326 C450.083759,47.3296661 450.435821,48.0729023 450.999119,48.6391774 C453.064545,50.9042781 457.406634,49.2290474 457.218868,46.3976716 C457.218868,45.642638 457.007631,44.6752513 456.632099,43.9202177 C455.505503,41.2776003 453.099751,39.5905721 450.471027,39.024297 L450.471027,39.024297 Z" id="rect4005" fill="#FFFFFF"></path>
                </g>
            </g>
            <g id="Personal-Info" sketch:type="MSLayerGroup" transform="translate(568.000000, 422.000000)" fill="#000000">
                <path d="M49.4179688,99.8671875 L49.515625,102.210938 C51.0651119,100.388012 53.1549348,99.4765625 55.7851562,99.4765625 C58.7409002,99.4765625 60.7525988,100.609364 61.8203125,102.875 C62.523441,101.85937 63.4381454,101.039066 64.5644531,100.414062 C65.6907608,99.7890594 67.0221277,99.4765625 68.5585938,99.4765625 C73.1940336,99.4765625 75.5507809,101.930965 75.6289062,106.839844 L75.6289062,121 L72.015625,121 L72.015625,107.054688 C72.015625,105.544263 71.6705764,104.414717 70.9804688,103.666016 C70.2903611,102.917314 69.1315186,102.542969 67.5039062,102.542969 C66.1627537,102.542969 65.0494836,102.943355 64.1640625,103.744141 C63.2786414,104.544926 62.7643236,105.622389 62.6210938,106.976562 L62.6210938,121 L58.9882812,121 L58.9882812,107.152344 C58.9882812,104.079412 57.48439,102.542969 54.4765625,102.542969 C52.106759,102.542969 50.4856814,103.552073 49.6132812,105.570312 L49.6132812,121 L46,121 L46,99.8671875 L49.4179688,99.8671875 Z M94.125,121 C93.9166656,120.583331 93.7473965,119.841151 93.6171875,118.773438 C91.9374916,120.518238 89.9323033,121.390625 87.6015625,121.390625 C85.5182188,121.390625 83.8092515,120.801438 82.4746094,119.623047 C81.1399673,118.444656 80.4726562,116.95053 80.4726562,115.140625 C80.4726562,112.940093 81.3092364,111.231126 82.9824219,110.013672 C84.6556073,108.796218 87.0090994,108.1875 90.0429688,108.1875 L93.5585938,108.1875 L93.5585938,106.527344 C93.5585938,105.264317 93.1809934,104.258467 92.4257812,103.509766 C91.6705691,102.761064 90.557299,102.386719 89.0859375,102.386719 C87.7968686,102.386719 86.7161502,102.712236 85.84375,103.363281 C84.9713498,104.014326 84.5351562,104.802079 84.5351562,105.726562 L80.9023438,105.726562 C80.9023438,104.67187 81.276689,103.653 82.0253906,102.669922 C82.7740923,101.686844 83.7897071,100.908857 85.0722656,100.335938 C86.3548241,99.763018 87.7643152,99.4765625 89.3007812,99.4765625 C91.7356893,99.4765625 93.6432223,100.08528 95.0234375,101.302734 C96.4036527,102.520188 97.1197914,104.196604 97.171875,106.332031 L97.171875,116.058594 C97.171875,117.998708 97.4192684,119.541661 97.9140625,120.6875 L97.9140625,121 L94.125,121 Z M88.1289062,118.246094 C89.2617244,118.246094 90.3359324,117.953128 91.3515625,117.367188 C92.3671926,116.781247 93.1028623,116.019536 93.5585938,115.082031 L93.5585938,110.746094 L90.7265625,110.746094 C86.299457,110.746094 84.0859375,112.041654 84.0859375,114.632812 C84.0859375,115.765631 84.4635379,116.651038 85.21875,117.289062 C85.9739621,117.927087 86.9440045,118.246094 88.1289062,118.246094 L88.1289062,118.246094 Z M107.738281,94.75 L107.738281,99.8671875 L111.683594,99.8671875 L111.683594,102.660156 L107.738281,102.660156 L107.738281,115.765625 C107.738281,116.611983 107.914061,117.246743 108.265625,117.669922 C108.617189,118.093101 109.216142,118.304688 110.0625,118.304688 C110.479169,118.304688 111.05208,118.226563 111.78125,118.070312 L111.78125,121 C110.830724,121.260418 109.906254,121.390625 109.007812,121.390625 C107.393221,121.390625 106.175785,120.902349 105.355469,119.925781 C104.535152,118.949214 104.125,117.562509 104.125,115.765625 L104.125,102.660156 L100.277344,102.660156 L100.277344,99.8671875 L104.125,99.8671875 L104.125,94.75 L107.738281,94.75 Z M120.804687,94.75 L120.804687,99.8671875 L124.75,99.8671875 L124.75,102.660156 L120.804687,102.660156 L120.804687,115.765625 C120.804687,116.611983 120.980467,117.246743 121.332031,117.669922 C121.683596,118.093101 122.282548,118.304688 123.128906,118.304688 C123.545575,118.304688 124.118486,118.226563 124.847656,118.070312 L124.847656,121 C123.897131,121.260418 122.972661,121.390625 122.074219,121.390625 C120.459627,121.390625 119.242192,120.902349 118.421875,119.925781 C117.601558,118.949214 117.191406,117.562509 117.191406,115.765625 L117.191406,102.660156 L113.34375,102.660156 L113.34375,99.8671875 L117.191406,99.8671875 L117.191406,94.75 L120.804687,94.75 Z M160.179688,111.195312 C160.023437,114.34637 159.242195,116.833324 157.835938,118.65625 C156.42968,120.479176 154.548189,121.390625 152.191406,121.390625 C149.756498,121.390625 148.194014,120.296886 147.503906,118.109375 C146.800778,119.216151 145.996749,120.039711 145.091797,120.580078 C144.186844,121.120445 143.252609,121.390625 142.289062,121.390625 C140.440095,121.390625 139.040369,120.635424 138.089844,119.125 C137.139318,117.614576 136.787759,115.524753 137.035156,112.855469 C137.23047,110.707021 137.722001,108.789722 138.509766,107.103516 C139.29753,105.417309 140.313145,104.092453 141.556641,103.128906 C142.800136,102.16536 144.105462,101.683594 145.472656,101.683594 C146.527349,101.683594 147.47135,101.823566 148.304688,102.103516 C149.138025,102.383465 150.075516,102.93359 151.117188,103.753906 L150.101562,114.574219 C149.854165,117.582046 150.68749,119.085938 152.601562,119.085938 C154.072924,119.085938 155.264318,118.356778 156.175781,116.898438 C157.087244,115.440097 157.582031,113.539074 157.660156,111.195312 C157.907553,106.130183 156.966808,102.269545 154.837891,99.6132812 C152.708974,96.957018 149.470074,95.6289062 145.121094,95.6289062 C142.503893,95.6289062 140.179698,96.2766862 138.148438,97.5722656 C136.117177,98.867845 134.515631,100.739571 133.34375,103.1875 C132.171869,105.635429 131.514324,108.460921 131.371094,111.664062 C131.214843,114.893245 131.605464,117.695952 132.542969,120.072266 C133.480473,122.44858 134.909496,124.264968 136.830078,125.521484 C138.750661,126.778001 141.071601,127.40625 143.792969,127.40625 C144.96485,127.40625 146.139968,127.263022 147.318359,126.976562 C148.496751,126.690103 149.476559,126.319013 150.257812,125.863281 L150.980469,128.109375 C150.173173,128.61719 149.10222,129.033853 147.767578,129.359375 C146.432936,129.684897 145.082038,129.847656 143.714844,129.847656 C140.459619,129.847656 137.660168,129.115242 135.316406,127.650391 C132.972645,126.18554 131.218105,124.076186 130.052734,121.322266 C128.887364,118.568346 128.382812,115.348977 128.539062,111.664062 C128.695313,108.083315 129.496087,104.863947 130.941406,102.005859 C132.386726,99.1477722 134.346342,96.940763 136.820312,95.3847656 C139.294283,93.8287683 142.087224,93.0507812 145.199219,93.0507812 C148.441422,93.0507812 151.221343,93.7799406 153.539062,95.2382812 C155.856782,96.6966219 157.582026,98.7994654 158.714844,101.546875 C159.847662,104.294285 160.335938,107.510398 160.179688,111.195312 L160.179688,111.195312 Z M140.140625,112.855469 C139.958332,114.704436 140.130857,116.123693 140.658203,117.113281 C141.18555,118.10287 142.02213,118.597656 143.167969,118.597656 C143.949223,118.597656 144.701168,118.265628 145.423828,117.601562 C146.146488,116.937497 146.742185,115.986985 147.210937,114.75 L147.230469,114.574219 L148.128906,104.75 C147.399736,104.372394 146.618494,104.183594 145.785156,104.183594 C144.261711,104.183594 143.001958,104.958326 142.005859,106.507812 C141.009761,108.057299 140.388022,110.173164 140.140625,112.855469 L140.140625,112.855469 Z M173.363281,118.441406 C174.65235,118.441406 175.778641,118.050785 176.742188,117.269531 C177.705734,116.488277 178.239583,115.511725 178.34375,114.339844 L181.761719,114.339844 C181.696614,115.550787 181.279952,116.70312 180.511719,117.796875 C179.743486,118.89063 178.718105,119.763018 177.435547,120.414062 C176.152988,121.065107 174.79558,121.390625 173.363281,121.390625 C170.485663,121.390625 168.197274,120.430348 166.498047,118.509766 C164.79882,116.589183 163.949219,113.962256 163.949219,110.628906 L163.949219,110.023438 C163.949219,107.966136 164.326819,106.136727 165.082031,104.535156 C165.837243,102.933586 166.921217,101.690109 168.333984,100.804688 C169.746752,99.9192664 171.416657,99.4765625 173.34375,99.4765625 C175.713554,99.4765625 177.682935,100.186191 179.251953,101.605469 C180.820971,103.024747 181.657552,104.867176 181.761719,107.132812 L178.34375,107.132812 C178.239583,105.765618 177.72201,104.642583 176.791016,103.763672 C175.860021,102.884761 174.710944,102.445312 173.34375,102.445312 C171.507803,102.445312 170.085292,103.106113 169.076172,104.427734 C168.067052,105.749356 167.5625,107.660144 167.5625,110.160156 L167.5625,110.84375 C167.5625,113.278658 168.063797,115.153639 169.066406,116.46875 C170.069015,117.783861 171.501293,118.441406 173.363281,118.441406 L173.363281,118.441406 Z M198.871094,118.910156 C197.464837,120.56381 195.401055,121.390625 192.679688,121.390625 C190.427072,121.390625 188.711594,120.736335 187.533203,119.427734 C186.354812,118.119134 185.759115,116.182304 185.746094,113.617188 L185.746094,99.8671875 L189.359375,99.8671875 L189.359375,113.519531 C189.359375,116.722672 190.661445,118.324219 193.265625,118.324219 C196.026055,118.324219 197.861975,117.295583 198.773438,115.238281 L198.773438,99.8671875 L202.386719,99.8671875 L202.386719,121 L198.949219,121 L198.871094,118.910156 Z M216.351563,118.441406 C217.640631,118.441406 218.766922,118.050785 219.730469,117.269531 C220.694015,116.488277 221.227864,115.511725 221.332031,114.339844 L224.75,114.339844 C224.684896,115.550787 224.268233,116.70312 223.5,117.796875 C222.731767,118.89063 221.706387,119.763018 220.423828,120.414062 C219.14127,121.065107 217.783861,121.390625 216.351563,121.390625 C213.473944,121.390625 211.185555,120.430348 209.486328,118.509766 C207.787101,116.589183 206.9375,113.962256 206.9375,110.628906 L206.9375,110.023438 C206.9375,107.966136 207.3151,106.136727 208.070313,104.535156 C208.825525,102.933586 209.909498,101.690109 211.322266,100.804688 C212.735033,99.9192664 214.404938,99.4765625 216.332031,99.4765625 C218.701835,99.4765625 220.671216,100.186191 222.240234,101.605469 C223.809253,103.024747 224.645833,104.867176 224.75,107.132812 L221.332031,107.132812 C221.227864,105.765618 220.710291,104.642583 219.779297,103.763672 C218.848303,102.884761 217.699226,102.445312 216.332031,102.445312 C214.496085,102.445312 213.073573,103.106113 212.064453,104.427734 C211.055333,105.749356 210.550781,107.660144 210.550781,110.160156 L210.550781,110.84375 C210.550781,113.278658 211.052078,115.153639 212.054688,116.46875 C213.057297,117.783861 214.489574,118.441406 216.351563,118.441406 L216.351563,118.441406 Z M241.859375,118.910156 C240.453118,120.56381 238.389337,121.390625 235.667969,121.390625 C233.415353,121.390625 231.699876,120.736335 230.521484,119.427734 C229.343093,118.119134 228.747396,116.182304 228.734375,113.617188 L228.734375,99.8671875 L232.347656,99.8671875 L232.347656,113.519531 C232.347656,116.722672 233.649727,118.324219 236.253906,118.324219 C239.014337,118.324219 240.850256,117.295583 241.761719,115.238281 L241.761719,99.8671875 L245.375,99.8671875 L245.375,121 L241.9375,121 L241.859375,118.910156 Z M254.261719,99.8671875 L254.359375,102.210938 C255.908862,100.388012 257.998685,99.4765625 260.628906,99.4765625 C263.58465,99.4765625 265.596349,100.609364 266.664062,102.875 C267.367191,101.85937 268.281895,101.039066 269.408203,100.414062 C270.534511,99.7890594 271.865878,99.4765625 273.402344,99.4765625 C278.037784,99.4765625 280.394531,101.930965 280.472656,106.839844 L280.472656,121 L276.859375,121 L276.859375,107.054688 C276.859375,105.544263 276.514326,104.414717 275.824219,103.666016 C275.134111,102.917314 273.975269,102.542969 272.347656,102.542969 C271.006504,102.542969 269.893234,102.943355 269.007812,103.744141 C268.122391,104.544926 267.608074,105.622389 267.464844,106.976562 L267.464844,121 L263.832031,121 L263.832031,107.152344 C263.832031,104.079412 262.32814,102.542969 259.320312,102.542969 C256.950509,102.542969 255.329431,103.552073 254.457031,105.570312 L254.457031,121 L250.84375,121 L250.84375,99.8671875 L254.261719,99.8671875 Z M303.8125,110.667969 C303.8125,113.897152 303.07032,116.491527 301.585938,118.451172 C300.101555,120.410817 298.109388,121.390625 295.609375,121.390625 C292.940091,121.390625 290.876309,120.446624 289.417969,118.558594 L289.242188,121 L285.921875,121 L285.921875,91 L289.535156,91 L289.535156,102.191406 C290.993497,100.381501 293.005196,99.4765625 295.570312,99.4765625 C298.135429,99.4765625 300.150383,100.446605 301.615234,102.386719 C303.080085,104.326833 303.8125,106.983056 303.8125,110.355469 L303.8125,110.667969 Z M300.199219,110.257812 C300.199219,107.796863 299.723963,105.89584 298.773438,104.554688 C297.822912,103.213535 296.455738,102.542969 294.671875,102.542969 C292.289051,102.542969 290.576828,103.649729 289.535156,105.863281 L289.535156,115.003906 C290.641933,117.217459 292.367176,118.324219 294.710938,118.324219 C296.442717,118.324219 297.79036,117.653653 298.753906,116.3125 C299.717453,114.971347 300.199219,112.953138 300.199219,110.257812 L300.199219,110.257812 Z M317.132812,121.390625 C314.268215,121.390625 311.937509,120.449879 310.140625,118.568359 C308.343741,116.68684 307.445312,114.170589 307.445312,111.019531 L307.445312,110.355469 C307.445312,108.259104 307.845699,106.387378 308.646484,104.740234 C309.44727,103.093091 310.56705,101.804041 312.005859,100.873047 C313.444669,99.9420526 315.003898,99.4765625 316.683594,99.4765625 C319.431003,99.4765625 321.566399,100.381501 323.089844,102.191406 C324.613289,104.001311 325.375,106.592431 325.375,109.964844 L325.375,111.46875 L311.058594,111.46875 C311.110677,113.552094 311.719395,115.23502 312.884766,116.517578 C314.050136,117.800137 315.531241,118.441406 317.328125,118.441406 C318.604173,118.441406 319.684891,118.180992 320.570312,117.660156 C321.455734,117.13932 322.230465,116.449223 322.894531,115.589844 L325.101562,117.308594 C323.33072,120.029962 320.674497,121.390625 317.132812,121.390625 L317.132812,121.390625 Z M316.683594,102.445312 C315.225253,102.445312 314.001307,102.975906 313.011719,104.037109 C312.02213,105.098313 311.410157,106.585928 311.175781,108.5 L321.761719,108.5 L321.761719,108.226562 C321.657552,106.390616 321.162765,104.968104 320.277344,103.958984 C319.391923,102.949865 318.194018,102.445312 316.683594,102.445312 L316.683594,102.445312 Z M339.769531,103.109375 C339.222654,103.018229 338.630212,102.972656 337.992188,102.972656 C335.622384,102.972656 334.014327,103.981761 333.167969,106 L333.167969,121 L329.554688,121 L329.554688,99.8671875 L333.070312,99.8671875 L333.128906,102.308594 C334.313808,100.420563 335.993479,99.4765625 338.167969,99.4765625 C338.871097,99.4765625 339.404946,99.5677074 339.769531,99.75 L339.769531,103.109375 Z M340.765625,119.105469 C340.765625,118.480466 340.95117,117.959637 341.322266,117.542969 C341.693361,117.1263 342.249996,116.917969 342.992188,116.917969 C343.734379,116.917969 344.297524,117.1263 344.681641,117.542969 C345.065757,117.959637 345.257812,118.480466 345.257812,119.105469 C345.257812,119.70443 345.065757,120.205727 344.681641,120.609375 C344.297524,121.013023 343.734379,121.214844 342.992188,121.214844 C342.249996,121.214844 341.693361,121.013023 341.322266,120.609375 C340.95117,120.205727 340.765625,119.70443 340.765625,119.105469 L340.765625,119.105469 Z M355.140625,121 L351.527344,121 L351.527344,99.8671875 L355.140625,99.8671875 L355.140625,121 Z M351.234375,94.2617188 C351.234375,93.6757783 351.41341,93.1809916 351.771484,92.7773438 C352.129559,92.3736959 352.660153,92.171875 353.363281,92.171875 C354.06641,92.171875 354.600259,92.3736959 354.964844,92.7773438 C355.329429,93.1809916 355.511719,93.6757783 355.511719,94.2617188 C355.511719,94.8476592 355.329429,95.3359355 354.964844,95.7265625 C354.600259,96.1171895 354.06641,96.3125 353.363281,96.3125 C352.660153,96.3125 352.129559,96.1171895 351.771484,95.7265625 C351.41341,95.3359355 351.234375,94.8476592 351.234375,94.2617188 L351.234375,94.2617188 Z M359.964844,110.238281 C359.964844,108.167958 360.371741,106.305998 361.185547,104.652344 C361.999353,102.99869 363.132154,101.722661 364.583984,100.824219 C366.035815,99.9257768 367.692699,99.4765625 369.554688,99.4765625 C372.432306,99.4765625 374.759757,100.472646 376.537109,102.464844 C378.314462,104.457041 379.203125,107.106754 379.203125,110.414062 L379.203125,110.667969 C379.203125,112.725271 378.809249,114.570955 378.021484,116.205078 C377.23372,117.839201 376.107429,119.111975 374.642578,120.023438 C373.177727,120.9349 371.494801,121.390625 369.59375,121.390625 C366.729152,121.390625 364.408212,120.394541 362.630859,118.402344 C360.853507,116.410146 359.964844,113.773454 359.964844,110.492188 L359.964844,110.238281 Z M363.597656,110.667969 C363.597656,113.01173 364.141271,114.893222 365.228516,116.3125 C366.315761,117.731778 367.770824,118.441406 369.59375,118.441406 C371.429697,118.441406 372.888015,117.722012 373.96875,116.283203 C375.049485,114.844394 375.589844,112.82944 375.589844,110.238281 C375.589844,107.920561 375.039719,106.042325 373.939453,104.603516 C372.839187,103.164706 371.377613,102.445312 369.554688,102.445312 C367.770824,102.445312 366.332037,103.154941 365.238281,104.574219 C364.144526,105.993497 363.597656,108.024726 363.597656,110.667969 L363.597656,110.667969 Z M12.2304688,159.746094 L20.1601562,159.746094 L20.1601562,163.164062 L12.2304688,163.164062 L12.2304688,172.148438 L8.59765625,172.148438 L8.59765625,163.164062 L0.66796875,163.164062 L0.66796875,159.746094 L8.59765625,159.746094 L8.59765625,151.445312 L12.2304688,151.445312 L12.2304688,159.746094 Z M39.4375,165.449219 L43.3828125,165.449219 L43.3828125,168.398438 L39.4375,168.398438 L39.4375,175 L35.8046875,175 L35.8046875,168.398438 L22.8554688,168.398438 L22.8554688,166.269531 L35.5898438,146.5625 L39.4375,146.5625 L39.4375,165.449219 Z M26.9570312,165.449219 L35.8046875,165.449219 L35.8046875,151.503906 L35.375,152.285156 L26.9570312,165.449219 Z M61.8984375,165.449219 L65.84375,165.449219 L65.84375,168.398438 L61.8984375,168.398438 L61.8984375,175 L58.265625,175 L58.265625,168.398438 L45.3164062,168.398438 L45.3164062,166.269531 L58.0507812,146.5625 L61.8984375,146.5625 L61.8984375,165.449219 Z M49.4179688,165.449219 L58.265625,165.449219 L58.265625,151.503906 L57.8359375,152.285156 L49.4179688,165.449219 Z M79.2421875,163.457031 C79.2421875,160.514308 79.6360638,157.688816 80.4238281,154.980469 C81.2115925,152.272122 82.3867109,149.811209 83.9492188,147.597656 C85.5117266,145.384104 87.1328041,143.821619 88.8125,142.910156 L89.5546875,145.292969 C87.6536363,146.751309 86.0944071,148.97785 84.8769531,151.972656 C83.6594991,154.967463 82.9921881,158.320294 82.875,162.03125 L82.8554688,163.691406 C82.8554688,168.717473 83.7734283,173.079409 85.609375,176.777344 C86.7161514,178.990896 88.0312424,180.72265 89.5546875,181.972656 L88.8125,184.179688 C87.0807205,183.216141 85.4270912,181.601574 83.8515625,179.335938 C80.7786305,174.908832 79.2421875,169.615916 79.2421875,163.457031 L79.2421875,163.457031 Z M110.511719,162.871094 C110.511719,167.102886 109.78907,170.247386 108.34375,172.304688 C106.89843,174.361989 104.639338,175.390625 101.566406,175.390625 C98.5325369,175.390625 96.2864656,174.384776 94.828125,172.373047 C93.3697844,170.361318 92.6145836,167.356791 92.5625,163.359375 L92.5625,158.535156 C92.5625,154.355448 93.285149,151.25001 94.7304688,149.21875 C96.1757885,147.18749 98.4413908,146.171875 101.527344,146.171875 C104.587255,146.171875 106.839837,147.151683 108.285156,149.111328 C109.730476,151.070973 110.472656,154.095032 110.511719,158.183594 L110.511719,162.871094 Z M106.898438,157.929688 C106.898438,154.869776 106.468754,152.639981 105.609375,151.240234 C104.749996,149.840488 103.389332,149.140625 101.527344,149.140625 C99.6783762,149.140625 98.3307334,149.837233 97.484375,151.230469 C96.6380166,152.623705 96.201823,154.765611 96.1757812,157.65625 L96.1757812,163.4375 C96.1757812,166.510432 96.6217403,168.77929 97.5136719,170.244141 C98.4056034,171.708992 99.7565014,172.441406 101.566406,172.441406 C103.350269,172.441406 104.675126,171.751309 105.541016,170.371094 C106.406905,168.990879 106.859375,166.816421 106.898438,163.847656 L106.898438,157.929688 Z M123.851562,163.652344 C123.851562,166.556004 123.470707,169.339179 122.708984,172.001953 C121.947262,174.664727 120.781909,177.122385 119.212891,179.375 C117.643872,181.627615 116.000009,183.229162 114.28125,184.179688 L113.519531,181.972656 C115.52475,180.43619 117.136062,178.050146 118.353516,174.814453 C119.57097,171.57876 120.192708,167.988301 120.21875,164.042969 L120.21875,163.417969 C120.21875,160.68358 119.932295,158.141288 119.359375,155.791016 C118.786455,153.440743 117.988937,151.334645 116.966797,149.472656 C115.944656,147.610668 114.795579,146.158859 113.519531,145.117188 L114.28125,142.910156 C116.000009,143.860682 117.637362,145.449208 119.193359,147.675781 C120.749357,149.902355 121.91471,152.356757 122.689453,155.039062 C123.464197,157.721368 123.851562,160.592433 123.851562,163.652344 L123.851562,163.652344 Z M157.308594,148.59375 L145.53125,175 L141.742188,175 L153.480469,149.53125 L138.089844,149.53125 L138.089844,146.5625 L157.308594,146.5625 L157.308594,148.59375 Z M175.257812,162.5 C174.5026,163.398442 173.600917,164.121091 172.552734,164.667969 C171.504552,165.214846 170.355475,165.488281 169.105469,165.488281 C167.464836,165.488281 166.035813,165.084639 164.818359,164.277344 C163.600905,163.470048 162.66016,162.333992 161.996094,160.869141 C161.332028,159.40429 161,157.786467 161,156.015625 C161,154.114574 161.361325,152.402351 162.083984,150.878906 C162.806644,149.355461 163.832025,148.190108 165.160156,147.382812 C166.488288,146.575517 168.037752,146.171875 169.808594,146.171875 C172.621108,146.171875 174.837883,147.223297 176.458984,149.326172 C178.080086,151.429047 178.890625,154.296857 178.890625,157.929688 L178.890625,158.984375 C178.890625,164.518257 177.796886,168.55793 175.609375,171.103516 C173.421864,173.649101 170.121116,174.954427 165.707031,175.019531 L165.003906,175.019531 L165.003906,171.972656 L165.765625,171.972656 C168.747411,171.920573 171.039054,171.142586 172.640625,169.638672 C174.242196,168.134758 175.114583,165.755225 175.257812,162.5 L175.257812,162.5 Z M169.691406,162.5 C170.90235,162.5 172.018875,162.12891 173.041016,161.386719 C174.063156,160.644528 174.808591,159.726568 175.277344,158.632812 L175.277344,157.1875 C175.277344,154.817696 174.763026,152.890632 173.734375,151.40625 C172.705724,149.921868 171.403654,149.179688 169.828125,149.179688 C168.239575,149.179688 166.963546,149.788405 166,151.005859 C165.036454,152.223313 164.554688,153.828115 164.554688,155.820312 C164.554688,157.760426 165.020178,159.358718 165.951172,160.615234 C166.882166,161.871751 168.128898,162.5 169.691406,162.5 L169.691406,162.5 Z M202.230469,148.59375 L190.453125,175 L186.664062,175 L198.402344,149.53125 L183.011719,149.53125 L183.011719,146.5625 L202.230469,146.5625 L202.230469,148.59375 Z M221.585937,165.449219 L225.53125,165.449219 L225.53125,168.398438 L221.585937,168.398438 L221.585937,175 L217.953125,175 L217.953125,168.398438 L205.003906,168.398438 L205.003906,166.269531 L217.738281,146.5625 L221.585937,146.5625 L221.585937,165.449219 Z M209.105469,165.449219 L217.953125,165.449219 L217.953125,151.503906 L217.523438,152.285156 L209.105469,165.449219 Z M253.949219,165.449219 L257.894531,165.449219 L257.894531,168.398438 L253.949219,168.398438 L253.949219,175 L250.316406,175 L250.316406,168.398438 L237.367188,168.398438 L237.367188,166.269531 L250.101562,146.5625 L253.949219,146.5625 L253.949219,165.449219 Z M241.46875,165.449219 L250.316406,165.449219 L250.316406,151.503906 L249.886719,152.285156 L241.46875,165.449219 Z M266.410156,159.023438 L269.125,159.023438 C270.830738,158.997396 272.17187,158.548181 273.148438,157.675781 C274.125005,156.803381 274.613281,155.625007 274.613281,154.140625 C274.613281,150.807275 272.953142,149.140625 269.632812,149.140625 C268.070305,149.140625 266.823572,149.586584 265.892578,150.478516 C264.961584,151.370447 264.496094,152.552076 264.496094,154.023438 L260.882812,154.023438 C260.882812,151.770822 261.706372,149.899096 263.353516,148.408203 C265.000659,146.91731 267.093737,146.171875 269.632812,146.171875 C272.315118,146.171875 274.417961,146.881503 275.941406,148.300781 C277.464851,149.720059 278.226562,151.692696 278.226562,154.21875 C278.226562,155.455735 277.826176,156.65364 277.025391,157.8125 C276.224605,158.97136 275.134121,159.837237 273.753906,160.410156 C275.316414,160.90495 276.524084,161.725255 277.376953,162.871094 C278.229822,164.016933 278.65625,165.416658 278.65625,167.070312 C278.65625,169.622409 277.822925,171.647128 276.15625,173.144531 C274.489575,174.641935 272.321628,175.390625 269.652344,175.390625 C266.98306,175.390625 264.811857,174.667976 263.138672,173.222656 C261.465486,171.777337 260.628906,169.869804 260.628906,167.5 L264.261719,167.5 C264.261719,168.997403 264.749995,170.195308 265.726562,171.09375 C266.70313,171.992192 268.011711,172.441406 269.652344,172.441406 C271.397144,172.441406 272.731766,171.985682 273.65625,171.074219 C274.580734,170.162756 275.042969,168.854175 275.042969,167.148438 C275.042969,165.494783 274.535161,164.225265 273.519531,163.339844 C272.503901,162.454423 271.039072,161.998698 269.125,161.972656 L266.410156,161.972656 L266.410156,159.023438 Z M301.449219,162.871094 C301.449219,167.102886 300.72657,170.247386 299.28125,172.304688 C297.83593,174.361989 295.576838,175.390625 292.503906,175.390625 C289.470037,175.390625 287.223966,174.384776 285.765625,172.373047 C284.307284,170.361318 283.552084,167.356791 283.5,163.359375 L283.5,158.535156 C283.5,154.355448 284.222649,151.25001 285.667969,149.21875 C287.113288,147.18749 289.378891,146.171875 292.464844,146.171875 C295.524755,146.171875 297.777337,147.151683 299.222656,149.111328 C300.667976,151.070973 301.410156,154.095032 301.449219,158.183594 L301.449219,162.871094 Z M297.835938,157.929688 C297.835938,154.869776 297.406254,152.639981 296.546875,151.240234 C295.687496,149.840488 294.326832,149.140625 292.464844,149.140625 C290.615876,149.140625 289.268233,149.837233 288.421875,151.230469 C287.575517,152.623705 287.139323,154.765611 287.113281,157.65625 L287.113281,163.4375 C287.113281,166.510432 287.55924,168.77929 288.451172,170.244141 C289.343103,171.708992 290.694001,172.441406 292.503906,172.441406 C294.287769,172.441406 295.612626,171.751309 296.478516,170.371094 C297.344405,168.990879 297.796875,166.816421 297.835938,163.847656 L297.835938,157.929688 Z M327.855469,175 L324.222656,175 L324.222656,150.917969 L316.9375,153.59375 L316.9375,150.3125 L327.289062,146.425781 L327.855469,146.425781 L327.855469,175 Z M355.6875,153.984375 C355.6875,155.403653 355.313155,156.666661 354.564453,157.773438 C353.815751,158.880214 352.803392,159.746091 351.527344,160.371094 C353.011726,161.009118 354.186845,161.940098 355.052734,163.164062 C355.918624,164.388027 356.351562,165.774732 356.351562,167.324219 C356.351562,169.785169 355.521493,171.744784 353.861328,173.203125 C352.201164,174.661466 350.016941,175.390625 347.308594,175.390625 C344.574205,175.390625 342.383472,174.65821 340.736328,173.193359 C339.089184,171.728508 338.265625,169.772148 338.265625,167.324219 C338.265625,165.787753 338.685543,164.401048 339.525391,163.164062 C340.365239,161.927077 341.527336,160.989587 343.011719,160.351562 C341.748692,159.726559 340.752608,158.860683 340.023438,157.753906 C339.294267,156.64713 338.929688,155.390632 338.929688,153.984375 C338.929688,151.58853 339.697909,149.687507 341.234375,148.28125 C342.770841,146.874993 344.79556,146.171875 347.308594,146.171875 C349.808606,146.171875 351.83007,146.874993 353.373047,148.28125 C354.916023,149.687507 355.6875,151.58853 355.6875,153.984375 L355.6875,153.984375 Z M352.738281,167.246094 C352.738281,165.657544 352.233729,164.361984 351.224609,163.359375 C350.21549,162.356766 348.897144,161.855469 347.269531,161.855469 C345.641919,161.855469 344.336593,162.350255 343.353516,163.339844 C342.370438,164.329432 341.878906,165.631502 341.878906,167.246094 C341.878906,168.860685 342.357417,170.130204 343.314453,171.054688 C344.271489,171.979171 345.602856,172.441406 347.308594,172.441406 C349.001311,172.441406 350.329422,171.975916 351.292969,171.044922 C352.256515,170.113928 352.738281,168.847664 352.738281,167.246094 L352.738281,167.246094 Z M347.308594,149.140625 C345.889316,149.140625 344.740239,149.580074 343.861328,150.458984 C342.982417,151.337895 342.542969,152.532545 342.542969,154.042969 C342.542969,155.488288 342.975907,156.656897 343.841797,157.548828 C344.707687,158.44076 345.863274,158.886719 347.308594,158.886719 C348.753913,158.886719 349.909501,158.44076 350.775391,157.548828 C351.64128,156.656897 352.074219,155.488288 352.074219,154.042969 C352.074219,152.597649 351.625004,151.419275 350.726562,150.507812 C349.828121,149.59635 348.688809,149.140625 347.308594,149.140625 L347.308594,149.140625 Z M376.15625,165.449219 L380.101562,165.449219 L380.101562,168.398438 L376.15625,168.398438 L376.15625,175 L372.523438,175 L372.523438,168.398438 L359.574219,168.398438 L359.574219,166.269531 L372.308594,146.5625 L376.15625,146.5625 L376.15625,165.449219 Z M363.675781,165.449219 L372.523438,165.449219 L372.523438,151.503906 L372.09375,152.285156 L363.675781,165.449219 Z" id="-matt@cucumber.io" sketch:type="MSShapeGroup"></path>
                <path d="M74.1738281,0.34375 L86.4785156,33.0390625 L98.7539062,0.34375 L108.333984,0.34375 L108.333984,43 L100.951172,43 L100.951172,28.9375 L101.683594,10.1289062 L89.0859375,43 L83.7832031,43 L71.2148438,10.1582031 L71.9472656,28.9375 L71.9472656,43 L64.5644531,43 L64.5644531,0.34375 L74.1738281,0.34375 Z M135.345703,43 C135.033202,42.3945282 134.759767,41.40821 134.525391,40.0410156 C132.259754,42.4043087 129.486345,43.5859375 126.205078,43.5859375 C123.021468,43.5859375 120.423838,42.6777435 118.412109,40.8613281 C116.400381,39.0449128 115.394531,36.7988415 115.394531,34.1230469 C115.394531,30.7441237 116.649402,28.1513762 119.15918,26.3447266 C121.668958,24.5380769 125.257789,23.6347656 129.925781,23.6347656 L134.291016,23.6347656 L134.291016,21.5546875 C134.291016,19.9140543 133.832036,18.6005909 132.914062,17.6142578 C131.996089,16.6279248 130.599619,16.1347656 128.724609,16.1347656 C127.103508,16.1347656 125.775396,16.540035 124.740234,17.3505859 C123.705073,18.1611369 123.1875,19.1914 123.1875,20.4414062 L116.068359,20.4414062 C116.068359,18.7031163 116.644525,17.077156 117.796875,15.5634766 C118.949225,14.0497971 120.516592,12.8632855 122.499023,12.0039062 C124.481455,11.144527 126.693347,10.7148438 129.134766,10.7148438 C132.845722,10.7148438 135.804676,11.6474516 138.011719,13.5126953 C140.218761,15.377939 141.351562,17.9999831 141.410156,21.3789062 L141.410156,35.6757812 C141.410156,38.527358 141.810543,40.8027259 142.611328,42.5019531 L142.611328,43 L135.345703,43 Z M127.523438,37.8730469 C128.929695,37.8730469 130.252923,37.5312534 131.493164,36.8476562 C132.733405,36.1640591 133.666012,35.2460995 134.291016,34.09375 L134.291016,28.1171875 L130.453125,28.1171875 C127.816393,28.1171875 125.833991,28.5761673 124.505859,29.4941406 C123.177728,30.412114 122.513672,31.7109291 122.513672,33.390625 C122.513672,34.7578193 122.967769,35.8466756 123.875977,36.6572266 C124.784184,37.4677775 125.999992,37.8730469 127.523438,37.8730469 L127.523438,37.8730469 Z M157.787109,3.59570312 L157.787109,11.3007812 L163.382812,11.3007812 L163.382812,16.5742188 L157.787109,16.5742188 L157.787109,34.2695312 C157.787109,35.4804748 158.026365,36.3544895 158.504883,36.8916016 C158.983401,37.4287136 159.837884,37.6972656 161.068359,37.6972656 C161.888676,37.6972656 162.718746,37.5996104 163.558594,37.4042969 L163.558594,42.9121094 C161.937492,43.3613304 160.375008,43.5859375 158.871094,43.5859375 C153.402316,43.5859375 150.667969,40.5683896 150.667969,34.5332031 L150.667969,16.5742188 L145.453125,16.5742188 L145.453125,11.3007812 L150.667969,11.3007812 L150.667969,3.59570312 L157.787109,3.59570312 Z M177.738281,3.59570312 L177.738281,11.3007812 L183.333984,11.3007812 L183.333984,16.5742188 L177.738281,16.5742188 L177.738281,34.2695312 C177.738281,35.4804748 177.977537,36.3544895 178.456055,36.8916016 C178.934573,37.4287136 179.789056,37.6972656 181.019531,37.6972656 C181.839848,37.6972656 182.669918,37.5996104 183.509766,37.4042969 L183.509766,42.9121094 C181.888664,43.3613304 180.326179,43.5859375 178.822266,43.5859375 C173.353488,43.5859375 170.619141,40.5683896 170.619141,34.5332031 L170.619141,16.5742188 L165.404297,16.5742188 L165.404297,11.3007812 L170.619141,11.3007812 L170.619141,3.59570312 L177.738281,3.59570312 Z M237.855469,32.453125 L244.417969,0.34375 L251.771484,0.34375 L241.927734,43 L234.837891,43 L226.722656,11.8574219 L218.431641,43 L211.3125,43 L201.46875,0.34375 L208.822266,0.34375 L215.443359,32.3945312 L223.587891,0.34375 L229.798828,0.34375 L237.855469,32.453125 Z M267.591797,32.8046875 L274.037109,11.3007812 L281.625,11.3007812 L269.027344,47.8046875 C267.09374,53.1367454 263.812523,55.8027344 259.183594,55.8027344 C258.148432,55.8027344 257.005866,55.6269549 255.755859,55.2753906 L255.755859,49.7675781 L257.103516,49.8554688 C258.9004,49.8554688 260.252925,49.5283236 261.161133,48.8740234 C262.06934,48.2197233 262.787107,47.1211015 263.314453,45.578125 L264.339844,42.8535156 L253.207031,11.3007812 L260.882812,11.3007812 L267.591797,32.8046875 Z M292.318359,11.3007812 L292.523438,14.9628906 C294.867199,12.1308452 297.94334,10.7148438 301.751953,10.7148438 C308.353549,10.7148438 311.71289,14.4941028 311.830078,22.0527344 L311.830078,43 L304.710938,43 L304.710938,22.4628906 C304.710938,20.4511618 304.276372,18.9619189 303.407227,17.9951172 C302.538082,17.0283155 301.117197,16.5449219 299.144531,16.5449219 C296.273423,16.5449219 294.134773,17.843737 292.728516,20.4414062 L292.728516,43 L285.609375,43 L285.609375,11.3007812 L292.318359,11.3007812 Z M325.6875,11.3007812 L325.892578,14.9628906 C328.23634,12.1308452 331.312481,10.7148438 335.121094,10.7148438 C341.722689,10.7148438 345.082031,14.4941028 345.199219,22.0527344 L345.199219,43 L338.080078,43 L338.080078,22.4628906 C338.080078,20.4511618 337.645512,18.9619189 336.776367,17.9951172 C335.907222,17.0283155 334.486338,16.5449219 332.513672,16.5449219 C329.642564,16.5449219 327.503913,17.843737 326.097656,20.4414062 L326.097656,43 L318.978516,43 L318.978516,11.3007812 L325.6875,11.3007812 Z M366.410156,43.5859375 C361.898415,43.5859375 358.241225,42.1650533 355.438477,39.3232422 C352.635728,36.4814311 351.234375,32.6972893 351.234375,27.9707031 L351.234375,27.0917969 C351.234375,23.9277186 351.84472,21.1005984 353.06543,18.6103516 C354.286139,16.1201047 355.999989,14.1816476 358.207031,12.7949219 C360.414074,11.4081962 362.874986,10.7148438 365.589844,10.7148438 C369.906272,10.7148438 373.241199,12.0917831 375.594727,14.8457031 C377.948254,17.5996231 379.125,21.4960686 379.125,26.5351562 L379.125,29.40625 L358.412109,29.40625 C358.626954,32.0234506 359.500969,34.0937424 361.03418,35.6171875 C362.56739,37.1406326 364.496082,37.9023438 366.820312,37.9023438 C370.082048,37.9023438 372.738271,36.5839976 374.789062,33.9472656 L378.626953,37.609375 C377.357416,39.5039157 375.663097,40.9736276 373.543945,42.0185547 C371.424794,43.0634818 369.046888,43.5859375 366.410156,43.5859375 L366.410156,43.5859375 Z M365.560547,16.4277344 C363.607412,16.4277344 362.030279,17.1113213 360.829102,18.4785156 C359.627924,19.84571 358.86133,21.7499878 358.529297,24.1914062 L372.09375,24.1914062 L372.09375,23.6640625 C371.937499,21.2812381 371.30274,19.4794983 370.189453,18.2587891 C369.076166,17.0380798 367.533213,16.4277344 365.560547,16.4277344 L365.560547,16.4277344 Z" id="Matt-Wynne" sketch:type="MSShapeGroup"></path>
            </g>
        </g>
    </g>
</svg>