<?xml version="1.0" encoding="UTF-8" standalone="no"?>
<svg width="1039px" height="697px" viewBox="0 0 1039 697" version="1.1" xmlns="http://www.w3.org/2000/svg" xmlns:xlink="http://www.w3.org/1999/xlink" xmlns:sketch="http://www.bohemiancoding.com/sketch/ns">
    <!-- Generator: Sketch 3.4.2 (15855) - http://www.bohemiancoding.com/sketch -->
    <title>Matt-Front</title>
    <desc>Created with Sketch.</desc>
    <defs></defs>
    <g id="Matt" stroke="none" stroke-width="1" fill="none" fill-rule="evenodd" sketch:type="MSPage">
        <g id="Matt-Front" sketch:type="MSArtboardGroup">
            <g id="Personal-Info" sketch:type="MSLayerGroup" transform="translate(614.000000, 422.000000)" fill="#000000">
                <path d="M3.41796875,99.8671875 L3.515625,102.210938 C5.06511191,100.388012 7.15493477,99.4765625 9.78515625,99.4765625 C12.7409002,99.4765625 14.7525988,100.609364 15.8203125,102.875 C16.523441,101.85937 17.4381454,101.039066 18.5644531,100.414062 C19.6907608,99.7890594 21.0221277,99.4765625 22.5585938,99.4765625 C27.1940336,99.4765625 29.5507809,101.930965 29.6289062,106.839844 L29.6289062,121 L26.015625,121 L26.015625,107.054688 C26.015625,105.544263 25.6705764,104.414717 24.9804688,103.666016 C24.2903611,102.917314 23.1315186,102.542969 21.5039062,102.542969 C20.1627537,102.542969 19.0494836,102.943355 18.1640625,103.744141 C17.2786414,104.544926 16.7643236,105.622389 16.6210938,106.976562 L16.6210938,121 L12.9882812,121 L12.9882812,107.152344 C12.9882812,104.079412 11.48439,102.542969 8.4765625,102.542969 C6.10675898,102.542969 4.48568145,103.552073 3.61328125,105.570312 L3.61328125,121 L0,121 L0,99.8671875 L3.41796875,99.8671875 Z M48.125,121 C47.9166656,120.583331 47.7473965,119.841151 47.6171875,118.773438 C45.9374916,120.518238 43.9323033,121.390625 41.6015625,121.390625 C39.5182188,121.390625 37.8092515,120.801438 36.4746094,119.623047 C35.1399673,118.444656 34.4726562,116.95053 34.4726562,115.140625 C34.4726562,112.940093 35.3092364,111.231126 36.9824219,110.013672 C38.6556073,108.796218 41.0090994,108.1875 44.0429688,108.1875 L47.5585938,108.1875 L47.5585938,106.527344 C47.5585938,105.264317 47.1809934,104.258467 46.4257812,103.509766 C45.6705691,102.761064 44.557299,102.386719 43.0859375,102.386719 C41.7968686,102.386719 40.7161502,102.712236 39.84375,103.363281 C38.9713498,104.014326 38.5351562,104.802079 38.5351562,105.726562 L34.9023438,105.726562 C34.9023438,104.67187 35.276689,103.653 36.0253906,102.669922 C36.7740923,101.686844 37.7897071,100.908857 39.0722656,100.335938 C40.3548241,99.763018 41.7643152,99.4765625 43.3007812,99.4765625 C45.7356893,99.4765625 47.6432223,100.08528 49.0234375,101.302734 C50.4036527,102.520188 51.1197914,104.196604 51.171875,106.332031 L51.171875,116.058594 C51.171875,117.998708 51.4192684,119.541661 51.9140625,120.6875 L51.9140625,121 L48.125,121 Z M42.1289062,118.246094 C43.2617244,118.246094 44.3359324,117.953128 45.3515625,117.367188 C46.3671926,116.781247 47.1028623,116.019536 47.5585938,115.082031 L47.5585938,110.746094 L44.7265625,110.746094 C40.299457,110.746094 38.0859375,112.041654 38.0859375,114.632812 C38.0859375,115.765631 38.4635379,116.651038 39.21875,117.289062 C39.9739621,117.927087 40.9440045,118.246094 42.1289062,118.246094 L42.1289062,118.246094 Z M61.7382812,94.75 L61.7382812,99.8671875 L65.6835938,99.8671875 L65.6835938,102.660156 L61.7382812,102.660156 L61.7382812,115.765625 C61.7382812,116.611983 61.9140607,117.246743 62.265625,117.669922 C62.6171893,118.093101 63.2161416,118.304688 64.0625,118.304688 C64.4791687,118.304688 65.0520797,118.226563 65.78125,118.070312 L65.78125,121 C64.8307244,121.260418 63.9062545,121.390625 63.0078125,121.390625 C61.3932211,121.390625 60.1757854,120.902349 59.3554688,119.925781 C58.5351521,118.949214 58.125,117.562509 58.125,115.765625 L58.125,102.660156 L54.2773438,102.660156 L54.2773438,99.8671875 L58.125,99.8671875 L58.125,94.75 L61.7382812,94.75 Z M74.8046875,94.75 L74.8046875,99.8671875 L78.75,99.8671875 L78.75,102.660156 L74.8046875,102.660156 L74.8046875,115.765625 C74.8046875,116.611983 74.980467,117.246743 75.3320312,117.669922 C75.6835955,118.093101 76.2825479,118.304688 77.1289062,118.304688 C77.545575,118.304688 78.1184859,118.226563 78.8476562,118.070312 L78.8476562,121 C77.8971307,121.260418 76.9726607,121.390625 76.0742188,121.390625 C74.4596273,121.390625 73.2421916,120.902349 72.421875,119.925781 C71.6015584,118.949214 71.1914062,117.562509 71.1914062,115.765625 L71.1914062,102.660156 L67.34375,102.660156 L67.34375,99.8671875 L71.1914062,99.8671875 L71.1914062,94.75 L74.8046875,94.75 Z M114.179688,111.195312 C114.023437,114.34637 113.242195,116.833324 111.835938,118.65625 C110.42968,120.479176 108.548189,121.390625 106.191406,121.390625 C103.756498,121.390625 102.194014,120.296886 101.503906,118.109375 C100.800778,119.216151 99.9967493,120.039711 99.0917969,120.580078 C98.1868444,121.120445 97.252609,121.390625 96.2890625,121.390625 C94.4400949,121.390625 93.0403693,120.635424 92.0898438,119.125 C91.1393182,117.614576 90.7877592,115.524753 91.0351563,112.855469 C91.2304697,110.707021 91.7220013,108.789722 92.5097656,107.103516 C93.29753,105.417309 94.3131448,104.092453 95.5566406,103.128906 C96.8001364,102.16536 98.1054619,101.683594 99.4726563,101.683594 C100.527349,101.683594 101.47135,101.823566 102.304688,102.103516 C103.138025,102.383465 104.075516,102.93359 105.117188,103.753906 L104.101563,114.574219 C103.854165,117.582046 104.68749,119.085938 106.601563,119.085938 C108.072924,119.085938 109.264318,118.356778 110.175781,116.898438 C111.087244,115.440097 111.582031,113.539074 111.660156,111.195312 C111.907553,106.130183 110.966808,102.269545 108.837891,99.6132812 C106.708974,96.957018 103.470074,95.6289062 99.1210938,95.6289062 C96.5038932,95.6289062 94.1796977,96.2766862 92.1484375,97.5722656 C90.1171773,98.867845 88.5156309,100.739571 87.34375,103.1875 C86.1718691,105.635429 85.5143236,108.460921 85.3710938,111.664062 C85.214843,114.893245 85.6054641,117.695952 86.5429688,120.072266 C87.4804734,122.44858 88.9094956,124.264968 90.8300781,125.521484 C92.7506606,126.778001 95.071601,127.40625 97.7929688,127.40625 C98.9648496,127.40625 100.139968,127.263022 101.318359,126.976562 C102.496751,126.690103 103.476559,126.319013 104.257813,125.863281 L104.980469,128.109375 C104.173173,128.61719 103.10222,129.033853 101.767578,129.359375 C100.432936,129.684897 99.0820381,129.847656 97.7148438,129.847656 C94.4596191,129.847656 91.660168,129.115242 89.3164063,127.650391 C86.9726445,126.18554 85.2181048,124.076186 84.0527344,121.322266 C82.887364,118.568346 82.3828117,115.348977 82.5390625,111.664062 C82.6953133,108.083315 83.4960865,104.863947 84.9414063,102.005859 C86.386726,99.1477722 88.3463418,96.940763 90.8203125,95.3847656 C93.2942832,93.8287683 96.087224,93.0507812 99.1992188,93.0507812 C102.441422,93.0507812 105.221343,93.7799406 107.539063,95.2382812 C109.856782,96.6966219 111.582026,98.7994654 112.714844,101.546875 C113.847662,104.294285 114.335938,107.510398 114.179688,111.195312 L114.179688,111.195312 Z M94.140625,112.855469 C93.9583324,114.704436 94.1308567,116.123693 94.6582031,117.113281 C95.1855495,118.10287 96.0221297,118.597656 97.1679687,118.597656 C97.9492227,118.597656 98.7011683,118.265628 99.4238281,117.601562 C100.146488,116.937497 100.742185,115.986985 101.210937,114.75 L101.230469,114.574219 L102.128906,104.75 C101.399736,104.372394 100.618494,104.183594 99.7851562,104.183594 C98.2617111,104.183594 97.0019581,104.958326 96.0058594,106.507812 C95.0097606,108.057299 94.3880221,110.173164 94.140625,112.855469 L94.140625,112.855469 Z M127.363281,118.441406 C128.65235,118.441406 129.778641,118.050785 130.742188,117.269531 C131.705734,116.488277 132.239583,115.511725 132.34375,114.339844 L135.761719,114.339844 C135.696614,115.550787 135.279952,116.70312 134.511719,117.796875 C133.743486,118.89063 132.718105,119.763018 131.435547,120.414062 C130.152988,121.065107 128.79558,121.390625 127.363281,121.390625 C124.485663,121.390625 122.197274,120.430348 120.498047,118.509766 C118.79882,116.589183 117.949219,113.962256 117.949219,110.628906 L117.949219,110.023438 C117.949219,107.966136 118.326819,106.136727 119.082031,104.535156 C119.837243,102.933586 120.921217,101.690109 122.333984,100.804688 C123.746752,99.9192664 125.416657,99.4765625 127.34375,99.4765625 C129.713554,99.4765625 131.682935,100.186191 133.251953,101.605469 C134.820971,103.024747 135.657552,104.867176 135.761719,107.132812 L132.34375,107.132812 C132.239583,105.765618 131.72201,104.642583 130.791016,103.763672 C129.860021,102.884761 128.710944,102.445312 127.34375,102.445312 C125.507803,102.445312 124.085292,103.106113 123.076172,104.427734 C122.067052,105.749356 121.5625,107.660144 121.5625,110.160156 L121.5625,110.84375 C121.5625,113.278658 122.063797,115.153639 123.066406,116.46875 C124.069015,117.783861 125.501293,118.441406 127.363281,118.441406 L127.363281,118.441406 Z M152.871094,118.910156 C151.464837,120.56381 149.401055,121.390625 146.679688,121.390625 C144.427072,121.390625 142.711594,120.736335 141.533203,119.427734 C140.354812,118.119134 139.759115,116.182304 139.746094,113.617188 L139.746094,99.8671875 L143.359375,99.8671875 L143.359375,113.519531 C143.359375,116.722672 144.661445,118.324219 147.265625,118.324219 C150.026055,118.324219 151.861975,117.295583 152.773438,115.238281 L152.773438,99.8671875 L156.386719,99.8671875 L156.386719,121 L152.949219,121 L152.871094,118.910156 Z M170.351562,118.441406 C171.640631,118.441406 172.766922,118.050785 173.730469,117.269531 C174.694015,116.488277 175.227864,115.511725 175.332031,114.339844 L178.75,114.339844 C178.684896,115.550787 178.268233,116.70312 177.5,117.796875 C176.731767,118.89063 175.706387,119.763018 174.423828,120.414062 C173.14127,121.065107 171.783861,121.390625 170.351562,121.390625 C167.473944,121.390625 165.185555,120.430348 163.486328,118.509766 C161.787101,116.589183 160.9375,113.962256 160.9375,110.628906 L160.9375,110.023438 C160.9375,107.966136 161.3151,106.136727 162.070312,104.535156 C162.825525,102.933586 163.909498,101.690109 165.322266,100.804688 C166.735033,99.9192664 168.404938,99.4765625 170.332031,99.4765625 C172.701835,99.4765625 174.671216,100.186191 176.240234,101.605469 C177.809253,103.024747 178.645833,104.867176 178.75,107.132812 L175.332031,107.132812 C175.227864,105.765618 174.710291,104.642583 173.779297,103.763672 C172.848303,102.884761 171.699226,102.445312 170.332031,102.445312 C168.496085,102.445312 167.073573,103.106113 166.064453,104.427734 C165.055333,105.749356 164.550781,107.660144 164.550781,110.160156 L164.550781,110.84375 C164.550781,113.278658 165.052078,115.153639 166.054688,116.46875 C167.057297,117.783861 168.489574,118.441406 170.351562,118.441406 L170.351562,118.441406 Z M195.859375,118.910156 C194.453118,120.56381 192.389337,121.390625 189.667969,121.390625 C187.415353,121.390625 185.699876,120.736335 184.521484,119.427734 C183.343093,118.119134 182.747396,116.182304 182.734375,113.617188 L182.734375,99.8671875 L186.347656,99.8671875 L186.347656,113.519531 C186.347656,116.722672 187.649727,118.324219 190.253906,118.324219 C193.014337,118.324219 194.850256,117.295583 195.761719,115.238281 L195.761719,99.8671875 L199.375,99.8671875 L199.375,121 L195.9375,121 L195.859375,118.910156 Z M208.261719,99.8671875 L208.359375,102.210938 C209.908862,100.388012 211.998685,99.4765625 214.628906,99.4765625 C217.58465,99.4765625 219.596349,100.609364 220.664062,102.875 C221.367191,101.85937 222.281895,101.039066 223.408203,100.414062 C224.534511,99.7890594 225.865878,99.4765625 227.402344,99.4765625 C232.037784,99.4765625 234.394531,101.930965 234.472656,106.839844 L234.472656,121 L230.859375,121 L230.859375,107.054688 C230.859375,105.544263 230.514326,104.414717 229.824219,103.666016 C229.134111,102.917314 227.975269,102.542969 226.347656,102.542969 C225.006504,102.542969 223.893234,102.943355 223.007812,103.744141 C222.122391,104.544926 221.608074,105.622389 221.464844,106.976562 L221.464844,121 L217.832031,121 L217.832031,107.152344 C217.832031,104.079412 216.32814,102.542969 213.320312,102.542969 C210.950509,102.542969 209.329431,103.552073 208.457031,105.570312 L208.457031,121 L204.84375,121 L204.84375,99.8671875 L208.261719,99.8671875 Z M257.8125,110.667969 C257.8125,113.897152 257.07032,116.491527 255.585938,118.451172 C254.101555,120.410817 252.109388,121.390625 249.609375,121.390625 C246.940091,121.390625 244.876309,120.446624 243.417969,118.558594 L243.242188,121 L239.921875,121 L239.921875,91 L243.535156,91 L243.535156,102.191406 C244.993497,100.381501 247.005196,99.4765625 249.570312,99.4765625 C252.135429,99.4765625 254.150383,100.446605 255.615234,102.386719 C257.080085,104.326833 257.8125,106.983056 257.8125,110.355469 L257.8125,110.667969 Z M254.199219,110.257812 C254.199219,107.796863 253.723963,105.89584 252.773438,104.554688 C251.822912,103.213535 250.455738,102.542969 248.671875,102.542969 C246.289051,102.542969 244.576828,103.649729 243.535156,105.863281 L243.535156,115.003906 C244.641933,117.217459 246.367176,118.324219 248.710938,118.324219 C250.442717,118.324219 251.79036,117.653653 252.753906,116.3125 C253.717453,114.971347 254.199219,112.953138 254.199219,110.257812 L254.199219,110.257812 Z M271.132812,121.390625 C268.268215,121.390625 265.937509,120.449879 264.140625,118.568359 C262.343741,116.68684 261.445312,114.170589 261.445312,111.019531 L261.445312,110.355469 C261.445312,108.259104 261.845699,106.387378 262.646484,104.740234 C263.44727,103.093091 264.56705,101.804041 266.005859,100.873047 C267.444669,99.9420526 269.003898,99.4765625 270.683594,99.4765625 C273.431003,99.4765625 275.566399,100.381501 277.089844,102.191406 C278.613289,104.001311 279.375,106.592431 279.375,109.964844 L279.375,111.46875 L265.058594,111.46875 C265.110677,113.552094 265.719395,115.23502 266.884766,116.517578 C268.050136,117.800137 269.531241,118.441406 271.328125,118.441406 C272.604173,118.441406 273.684891,118.180992 274.570312,117.660156 C275.455734,117.13932 276.230465,116.449223 276.894531,115.589844 L279.101562,117.308594 C277.33072,120.029962 274.674497,121.390625 271.132812,121.390625 L271.132812,121.390625 Z M270.683594,102.445312 C269.225253,102.445312 268.001307,102.975906 267.011719,104.037109 C266.02213,105.098313 265.410157,106.585928 265.175781,108.5 L275.761719,108.5 L275.761719,108.226562 C275.657552,106.390616 275.162765,104.968104 274.277344,103.958984 C273.391923,102.949865 272.194018,102.445312 270.683594,102.445312 L270.683594,102.445312 Z M293.769531,103.109375 C293.222654,103.018229 292.630212,102.972656 291.992188,102.972656 C289.622384,102.972656 288.014327,103.981761 287.167969,106 L287.167969,121 L283.554688,121 L283.554688,99.8671875 L287.070312,99.8671875 L287.128906,102.308594 C288.313808,100.420563 289.993479,99.4765625 292.167969,99.4765625 C292.871097,99.4765625 293.404946,99.5677074 293.769531,99.75 L293.769531,103.109375 Z M294.765625,119.105469 C294.765625,118.480466 294.95117,117.959637 295.322266,117.542969 C295.693361,117.1263 296.249996,116.917969 296.992188,116.917969 C297.734379,116.917969 298.297524,117.1263 298.681641,117.542969 C299.065757,117.959637 299.257812,118.480466 299.257812,119.105469 C299.257812,119.70443 299.065757,120.205727 298.681641,120.609375 C298.297524,121.013023 297.734379,121.214844 296.992188,121.214844 C296.249996,121.214844 295.693361,121.013023 295.322266,120.609375 C294.95117,120.205727 294.765625,119.70443 294.765625,119.105469 L294.765625,119.105469 Z M309.140625,121 L305.527344,121 L305.527344,99.8671875 L309.140625,99.8671875 L309.140625,121 Z M305.234375,94.2617188 C305.234375,93.6757783 305.41341,93.1809916 305.771484,92.7773438 C306.129559,92.3736959 306.660153,92.171875 307.363281,92.171875 C308.06641,92.171875 308.600259,92.3736959 308.964844,92.7773438 C309.329429,93.1809916 309.511719,93.6757783 309.511719,94.2617188 C309.511719,94.8476592 309.329429,95.3359355 308.964844,95.7265625 C308.600259,96.1171895 308.06641,96.3125 307.363281,96.3125 C306.660153,96.3125 306.129559,96.1171895 305.771484,95.7265625 C305.41341,95.3359355 305.234375,94.8476592 305.234375,94.2617188 L305.234375,94.2617188 Z M313.964844,110.238281 C313.964844,108.167958 314.371741,106.305998 315.185547,104.652344 C315.999353,102.99869 317.132154,101.722661 318.583984,100.824219 C320.035815,99.9257768 321.692699,99.4765625 323.554688,99.4765625 C326.432306,99.4765625 328.759757,100.472646 330.537109,102.464844 C332.314462,104.457041 333.203125,107.106754 333.203125,110.414062 L333.203125,110.667969 C333.203125,112.725271 332.809249,114.570955 332.021484,116.205078 C331.23372,117.839201 330.107429,119.111975 328.642578,120.023438 C327.177727,120.9349 325.494801,121.390625 323.59375,121.390625 C320.729152,121.390625 318.408212,120.394541 316.630859,118.402344 C314.853507,116.410146 313.964844,113.773454 313.964844,110.492188 L313.964844,110.238281 Z M317.597656,110.667969 C317.597656,113.01173 318.141271,114.893222 319.228516,116.3125 C320.315761,117.731778 321.770824,118.441406 323.59375,118.441406 C325.429697,118.441406 326.888015,117.722012 327.96875,116.283203 C329.049485,114.844394 329.589844,112.82944 329.589844,110.238281 C329.589844,107.920561 329.039719,106.042325 327.939453,104.603516 C326.839187,103.164706 325.377613,102.445312 323.554688,102.445312 C321.770824,102.445312 320.332037,103.154941 319.238281,104.574219 C318.144526,105.993497 317.597656,108.024726 317.597656,110.667969 L317.597656,110.667969 Z M26.171875,159.746094 L34.1015625,159.746094 L34.1015625,163.164062 L26.171875,163.164062 L26.171875,172.148438 L22.5390625,172.148438 L22.5390625,163.164062 L14.609375,163.164062 L14.609375,159.746094 L22.5390625,159.746094 L22.5390625,151.445312 L26.171875,151.445312 L26.171875,159.746094 Z M53.3789062,165.449219 L57.3242188,165.449219 L57.3242188,168.398438 L53.3789062,168.398438 L53.3789062,175 L49.7460938,175 L49.7460938,168.398438 L36.796875,168.398438 L36.796875,166.269531 L49.53125,146.5625 L53.3789062,146.5625 L53.3789062,165.449219 Z M40.8984375,165.449219 L49.7460938,165.449219 L49.7460938,151.503906 L49.3164062,152.285156 L40.8984375,165.449219 Z M75.8398438,165.449219 L79.7851562,165.449219 L79.7851562,168.398438 L75.8398438,168.398438 L75.8398438,175 L72.2070312,175 L72.2070312,168.398438 L59.2578125,168.398438 L59.2578125,166.269531 L71.9921875,146.5625 L75.8398438,146.5625 L75.8398438,165.449219 Z M63.359375,165.449219 L72.2070312,165.449219 L72.2070312,151.503906 L71.7773438,152.285156 L63.359375,165.449219 Z M111.308594,148.59375 L99.53125,175 L95.7421875,175 L107.480469,149.53125 L92.0898438,149.53125 L92.0898438,146.5625 L111.308594,146.5625 L111.308594,148.59375 Z M129.257812,162.5 C128.5026,163.398442 127.600917,164.121091 126.552734,164.667969 C125.504552,165.214846 124.355475,165.488281 123.105469,165.488281 C121.464836,165.488281 120.035813,165.084639 118.818359,164.277344 C117.600905,163.470048 116.66016,162.333992 115.996094,160.869141 C115.332028,159.40429 115,157.786467 115,156.015625 C115,154.114574 115.361325,152.402351 116.083984,150.878906 C116.806644,149.355461 117.832025,148.190108 119.160156,147.382812 C120.488288,146.575517 122.037752,146.171875 123.808594,146.171875 C126.621108,146.171875 128.837883,147.223297 130.458984,149.326172 C132.080086,151.429047 132.890625,154.296857 132.890625,157.929688 L132.890625,158.984375 C132.890625,164.518257 131.796886,168.55793 129.609375,171.103516 C127.421864,173.649101 124.121116,174.954427 119.707031,175.019531 L119.003906,175.019531 L119.003906,171.972656 L119.765625,171.972656 C122.747411,171.920573 125.039054,171.142586 126.640625,169.638672 C128.242196,168.134758 129.114583,165.755225 129.257812,162.5 L129.257812,162.5 Z M123.691406,162.5 C124.90235,162.5 126.018875,162.12891 127.041016,161.386719 C128.063156,160.644528 128.808591,159.726568 129.277344,158.632812 L129.277344,157.1875 C129.277344,154.817696 128.763026,152.890632 127.734375,151.40625 C126.705724,149.921868 125.403654,149.179688 123.828125,149.179688 C122.239575,149.179688 120.963546,149.788405 120,151.005859 C119.036454,152.223313 118.554688,153.828115 118.554688,155.820312 C118.554688,157.760426 119.020178,159.358718 119.951172,160.615234 C120.882166,161.871751 122.128898,162.5 123.691406,162.5 L123.691406,162.5 Z M156.230469,148.59375 L144.453125,175 L140.664062,175 L152.402344,149.53125 L137.011719,149.53125 L137.011719,146.5625 L156.230469,146.5625 L156.230469,148.59375 Z M175.585938,165.449219 L179.53125,165.449219 L179.53125,168.398438 L175.585938,168.398438 L175.585938,175 L171.953125,175 L171.953125,168.398438 L159.003906,168.398438 L159.003906,166.269531 L171.738281,146.5625 L175.585938,146.5625 L175.585938,165.449219 Z M163.105469,165.449219 L171.953125,165.449219 L171.953125,151.503906 L171.523438,152.285156 L163.105469,165.449219 Z M207.949219,165.449219 L211.894531,165.449219 L211.894531,168.398438 L207.949219,168.398438 L207.949219,175 L204.316406,175 L204.316406,168.398438 L191.367188,168.398438 L191.367188,166.269531 L204.101562,146.5625 L207.949219,146.5625 L207.949219,165.449219 Z M195.46875,165.449219 L204.316406,165.449219 L204.316406,151.503906 L203.886719,152.285156 L195.46875,165.449219 Z M220.410156,159.023438 L223.125,159.023438 C224.830738,158.997396 226.17187,158.548181 227.148438,157.675781 C228.125005,156.803381 228.613281,155.625007 228.613281,154.140625 C228.613281,150.807275 226.953142,149.140625 223.632812,149.140625 C222.070305,149.140625 220.823572,149.586584 219.892578,150.478516 C218.961584,151.370447 218.496094,152.552076 218.496094,154.023438 L214.882812,154.023438 C214.882812,151.770822 215.706372,149.899096 217.353516,148.408203 C219.000659,146.91731 221.093737,146.171875 223.632812,146.171875 C226.315118,146.171875 228.417961,146.881503 229.941406,148.300781 C231.464851,149.720059 232.226562,151.692696 232.226562,154.21875 C232.226562,155.455735 231.826176,156.65364 231.025391,157.8125 C230.224605,158.97136 229.134121,159.837237 227.753906,160.410156 C229.316414,160.90495 230.524084,161.725255 231.376953,162.871094 C232.229822,164.016933 232.65625,165.416658 232.65625,167.070312 C232.65625,169.622409 231.822925,171.647128 230.15625,173.144531 C228.489575,174.641935 226.321628,175.390625 223.652344,175.390625 C220.98306,175.390625 218.811857,174.667976 217.138672,173.222656 C215.465486,171.777337 214.628906,169.869804 214.628906,167.5 L218.261719,167.5 C218.261719,168.997403 218.749995,170.195308 219.726562,171.09375 C220.70313,171.992192 222.011711,172.441406 223.652344,172.441406 C225.397144,172.441406 226.731766,171.985682 227.65625,171.074219 C228.580734,170.162756 229.042969,168.854175 229.042969,167.148438 C229.042969,165.494783 228.535161,164.225265 227.519531,163.339844 C226.503901,162.454423 225.039072,161.998698 223.125,161.972656 L220.410156,161.972656 L220.410156,159.023438 Z M255.449219,162.871094 C255.449219,167.102886 254.72657,170.247386 253.28125,172.304688 C251.83593,174.361989 249.576838,175.390625 246.503906,175.390625 C243.470037,175.390625 241.223966,174.384776 239.765625,172.373047 C238.307284,170.361318 237.552084,167.356791 237.5,163.359375 L237.5,158.535156 C237.5,154.355448 238.222649,151.25001 239.667969,149.21875 C241.113288,147.18749 243.378891,146.171875 246.464844,146.171875 C249.524755,146.171875 251.777337,147.151683 253.222656,149.111328 C254.667976,151.070973 255.410156,154.095032 255.449219,158.183594 L255.449219,162.871094 Z M251.835938,157.929688 C251.835938,154.869776 251.406254,152.639981 250.546875,151.240234 C249.687496,149.840488 248.326832,149.140625 246.464844,149.140625 C244.615876,149.140625 243.268233,149.837233 242.421875,151.230469 C241.575517,152.623705 241.139323,154.765611 241.113281,157.65625 L241.113281,163.4375 C241.113281,166.510432 241.55924,168.77929 242.451172,170.244141 C243.343103,171.708992 244.694001,172.441406 246.503906,172.441406 C248.287769,172.441406 249.612626,171.751309 250.478516,170.371094 C251.344405,168.990879 251.796875,166.816421 251.835938,163.847656 L251.835938,157.929688 Z M281.855469,175 L278.222656,175 L278.222656,150.917969 L270.9375,153.59375 L270.9375,150.3125 L281.289062,146.425781 L281.855469,146.425781 L281.855469,175 Z M309.6875,153.984375 C309.6875,155.403653 309.313155,156.666661 308.564453,157.773438 C307.815751,158.880214 306.803392,159.746091 305.527344,160.371094 C307.011726,161.009118 308.186845,161.940098 309.052734,163.164062 C309.918624,164.388027 310.351562,165.774732 310.351562,167.324219 C310.351562,169.785169 309.521493,171.744784 307.861328,173.203125 C306.201164,174.661466 304.016941,175.390625 301.308594,175.390625 C298.574205,175.390625 296.383472,174.65821 294.736328,173.193359 C293.089184,171.728508 292.265625,169.772148 292.265625,167.324219 C292.265625,165.787753 292.685543,164.401048 293.525391,163.164062 C294.365239,161.927077 295.527336,160.989587 297.011719,160.351562 C295.748692,159.726559 294.752608,158.860683 294.023438,157.753906 C293.294267,156.64713 292.929688,155.390632 292.929688,153.984375 C292.929688,151.58853 293.697909,149.687507 295.234375,148.28125 C296.770841,146.874993 298.79556,146.171875 301.308594,146.171875 C303.808606,146.171875 305.83007,146.874993 307.373047,148.28125 C308.916023,149.687507 309.6875,151.58853 309.6875,153.984375 L309.6875,153.984375 Z M306.738281,167.246094 C306.738281,165.657544 306.233729,164.361984 305.224609,163.359375 C304.21549,162.356766 302.897144,161.855469 301.269531,161.855469 C299.641919,161.855469 298.336593,162.350255 297.353516,163.339844 C296.370438,164.329432 295.878906,165.631502 295.878906,167.246094 C295.878906,168.860685 296.357417,170.130204 297.314453,171.054688 C298.271489,171.979171 299.602856,172.441406 301.308594,172.441406 C303.001311,172.441406 304.329422,171.975916 305.292969,171.044922 C306.256515,170.113928 306.738281,168.847664 306.738281,167.246094 L306.738281,167.246094 Z M301.308594,149.140625 C299.889316,149.140625 298.740239,149.580074 297.861328,150.458984 C296.982417,151.337895 296.542969,152.532545 296.542969,154.042969 C296.542969,155.488288 296.975907,156.656897 297.841797,157.548828 C298.707687,158.44076 299.863274,158.886719 301.308594,158.886719 C302.753913,158.886719 303.909501,158.44076 304.775391,157.548828 C305.64128,156.656897 306.074219,155.488288 306.074219,154.042969 C306.074219,152.597649 305.625004,151.419275 304.726562,150.507812 C303.828121,149.59635 302.688809,149.140625 301.308594,149.140625 L301.308594,149.140625 Z M330.15625,165.449219 L334.101562,165.449219 L334.101562,168.398438 L330.15625,168.398438 L330.15625,175 L326.523438,175 L326.523438,168.398438 L313.574219,168.398438 L313.574219,166.269531 L326.308594,146.5625 L330.15625,146.5625 L330.15625,165.449219 Z M317.675781,165.449219 L326.523438,165.449219 L326.523438,151.503906 L326.09375,152.285156 L317.675781,165.449219 Z" id="-matt@cucumber.io" sketch:type="MSShapeGroup"></path>
                <path d="M28.1738281,0.34375 L40.4785156,33.0390625 L52.7539062,0.34375 L62.3339844,0.34375 L62.3339844,43 L54.9511719,43 L54.9511719,28.9375 L55.6835938,10.1289062 L43.0859375,43 L37.7832031,43 L25.2148438,10.1582031 L25.9472656,28.9375 L25.9472656,43 L18.5644531,43 L18.5644531,0.34375 L28.1738281,0.34375 Z M89.3457031,43 C89.0332016,42.3945282 88.7597668,41.40821 88.5253906,40.0410156 C86.2597543,42.4043087 83.4863445,43.5859375 80.2050781,43.5859375 C77.0214685,43.5859375 74.4238382,42.6777435 72.4121094,40.8613281 C70.4003806,39.0449128 69.3945312,36.7988415 69.3945312,34.1230469 C69.3945312,30.7441237 70.6494015,28.1513762 73.1591797,26.3447266 C75.6689579,24.5380769 79.2577892,23.6347656 83.9257812,23.6347656 L88.2910156,23.6347656 L88.2910156,21.5546875 C88.2910156,19.9140543 87.8320358,18.6005909 86.9140625,17.6142578 C85.9960892,16.6279248 84.5996188,16.1347656 82.7246094,16.1347656 C81.1035075,16.1347656 79.7753958,16.540035 78.7402344,17.3505859 C77.7050729,18.1611369 77.1875,19.1914 77.1875,20.4414062 L70.0683594,20.4414062 C70.0683594,18.7031163 70.6445255,17.077156 71.796875,15.5634766 C72.9492245,14.0497971 74.5165917,12.8632855 76.4990234,12.0039062 C78.4814552,11.144527 80.6933472,10.7148438 83.1347656,10.7148438 C86.8457217,10.7148438 89.8046765,11.6474516 92.0117188,13.5126953 C94.218761,15.377939 95.3515622,17.9999831 95.4101562,21.3789062 L95.4101562,35.6757812 C95.4101562,38.527358 95.8105429,40.8027259 96.6113281,42.5019531 L96.6113281,43 L89.3457031,43 Z M81.5234375,37.8730469 C82.9296945,37.8730469 84.2529235,37.5312534 85.4931641,36.8476562 C86.7334046,36.1640591 87.6660125,35.2460995 88.2910156,34.09375 L88.2910156,28.1171875 L84.453125,28.1171875 C81.8163931,28.1171875 79.833991,28.5761673 78.5058594,29.4941406 C77.1777277,30.412114 76.5136719,31.7109291 76.5136719,33.390625 C76.5136719,34.7578193 76.9677689,35.8466756 77.8759766,36.6572266 C78.7841842,37.4677775 79.9999924,37.8730469 81.5234375,37.8730469 L81.5234375,37.8730469 Z M111.787109,3.59570312 L111.787109,11.3007812 L117.382812,11.3007812 L117.382812,16.5742188 L111.787109,16.5742188 L111.787109,34.2695312 C111.787109,35.4804748 112.026365,36.3544895 112.504883,36.8916016 C112.983401,37.4287136 113.837884,37.6972656 115.068359,37.6972656 C115.888676,37.6972656 116.718746,37.5996104 117.558594,37.4042969 L117.558594,42.9121094 C115.937492,43.3613304 114.375008,43.5859375 112.871094,43.5859375 C107.402316,43.5859375 104.667969,40.5683896 104.667969,34.5332031 L104.667969,16.5742188 L99.453125,16.5742188 L99.453125,11.3007812 L104.667969,11.3007812 L104.667969,3.59570312 L111.787109,3.59570312 Z M131.738281,3.59570312 L131.738281,11.3007812 L137.333984,11.3007812 L137.333984,16.5742188 L131.738281,16.5742188 L131.738281,34.2695312 C131.738281,35.4804748 131.977537,36.3544895 132.456055,36.8916016 C132.934573,37.4287136 133.789056,37.6972656 135.019531,37.6972656 C135.839848,37.6972656 136.669918,37.5996104 137.509766,37.4042969 L137.509766,42.9121094 C135.888664,43.3613304 134.326179,43.5859375 132.822266,43.5859375 C127.353488,43.5859375 124.619141,40.5683896 124.619141,34.5332031 L124.619141,16.5742188 L119.404297,16.5742188 L119.404297,11.3007812 L124.619141,11.3007812 L124.619141,3.59570312 L131.738281,3.59570312 Z M191.855469,32.453125 L198.417969,0.34375 L205.771484,0.34375 L195.927734,43 L188.837891,43 L180.722656,11.8574219 L172.431641,43 L165.3125,43 L155.46875,0.34375 L162.822266,0.34375 L169.443359,32.3945312 L177.587891,0.34375 L183.798828,0.34375 L191.855469,32.453125 Z M221.591797,32.8046875 L228.037109,11.3007812 L235.625,11.3007812 L223.027344,47.8046875 C221.09374,53.1367454 217.812523,55.8027344 213.183594,55.8027344 C212.148432,55.8027344 211.005866,55.6269549 209.755859,55.2753906 L209.755859,49.7675781 L211.103516,49.8554688 C212.9004,49.8554688 214.252925,49.5283236 215.161133,48.8740234 C216.06934,48.2197233 216.787107,47.1211015 217.314453,45.578125 L218.339844,42.8535156 L207.207031,11.3007812 L214.882812,11.3007812 L221.591797,32.8046875 Z M246.318359,11.3007812 L246.523438,14.9628906 C248.867199,12.1308452 251.94334,10.7148438 255.751953,10.7148438 C262.353549,10.7148438 265.71289,14.4941028 265.830078,22.0527344 L265.830078,43 L258.710938,43 L258.710938,22.4628906 C258.710938,20.4511618 258.276372,18.9619189 257.407227,17.9951172 C256.538082,17.0283155 255.117197,16.5449219 253.144531,16.5449219 C250.273423,16.5449219 248.134773,17.843737 246.728516,20.4414062 L246.728516,43 L239.609375,43 L239.609375,11.3007812 L246.318359,11.3007812 Z M279.6875,11.3007812 L279.892578,14.9628906 C282.23634,12.1308452 285.312481,10.7148438 289.121094,10.7148438 C295.722689,10.7148438 299.082031,14.4941028 299.199219,22.0527344 L299.199219,43 L292.080078,43 L292.080078,22.4628906 C292.080078,20.4511618 291.645512,18.9619189 290.776367,17.9951172 C289.907222,17.0283155 288.486338,16.5449219 286.513672,16.5449219 C283.642564,16.5449219 281.503913,17.843737 280.097656,20.4414062 L280.097656,43 L272.978516,43 L272.978516,11.3007812 L279.6875,11.3007812 Z M320.410156,43.5859375 C315.898415,43.5859375 312.241225,42.1650533 309.438477,39.3232422 C306.635728,36.4814311 305.234375,32.6972893 305.234375,27.9707031 L305.234375,27.0917969 C305.234375,23.9277186 305.84472,21.1005984 307.06543,18.6103516 C308.286139,16.1201047 309.999989,14.1816476 312.207031,12.7949219 C314.414074,11.4081962 316.874986,10.7148438 319.589844,10.7148438 C323.906272,10.7148438 327.241199,12.0917831 329.594727,14.8457031 C331.948254,17.5996231 333.125,21.4960686 333.125,26.5351562 L333.125,29.40625 L312.412109,29.40625 C312.626954,32.0234506 313.500969,34.0937424 315.03418,35.6171875 C316.56739,37.1406326 318.496082,37.9023438 320.820312,37.9023438 C324.082048,37.9023438 326.738271,36.5839976 328.789062,33.9472656 L332.626953,37.609375 C331.357416,39.5039157 329.663097,40.9736276 327.543945,42.0185547 C325.424794,43.0634818 323.046888,43.5859375 320.410156,43.5859375 L320.410156,43.5859375 Z M319.560547,16.4277344 C317.607412,16.4277344 316.030279,17.1113213 314.829102,18.4785156 C313.627924,19.84571 312.86133,21.7499878 312.529297,24.1914062 L326.09375,24.1914062 L326.09375,23.6640625 C325.937499,21.2812381 325.30274,19.4794983 324.189453,18.2587891 C323.076166,17.0380798 321.533213,16.4277344 319.560547,16.4277344 L319.560547,16.4277344 Z" id="Matt-Wynne" sketch:type="MSShapeGroup"></path>
            </g>
            <g id="Cucumber-logo" sketch:type="MSLayerGroup" transform="translate(90.000000, 90.000000)">
                <g id="g6053" sketch:type="MSShapeGroup">
                    <path d="M418.718234,69.6015101 C413.085253,69.6015101 409.517698,72.4328859 406.888974,76.7743289 C406.888974,75.6417785 407.452272,74.3204698 407.452272,73.3766779 L407.452272,71.489094 L398.063971,71.489094 L398.063971,118.678691 L407.452272,118.678691 L407.452272,91.4974832 C407.452272,83.7583893 411.583125,79.0394295 418.718234,79.0394295 L420.595894,79.0394295 L420.595894,69.6015101 L418.718234,69.6015101 L418.718234,69.6015101 Z" id="path5443" fill="#000000"></path>
                    <path d="M36.9899067,86.9672819 C34.3611824,82.8145973 30.6058619,79.9832215 25.1606472,79.9832215 C16.5234101,79.9832215 10.3271313,86.5897651 10.3271313,94.8951342 C10.3271313,103.200503 16.5234101,109.807047 25.1606472,109.807047 C30.6058619,109.807047 34.3611824,107.16443 36.9899067,103.011745 L45.6271438,108.108221 C41.4962913,114.526007 33.7978843,119.244966 25.1606472,119.244966 C9.20053518,119.244966 7.10542736e-15,107.16443 7.10542736e-15,95.0838926 C7.10542736e-15,83.0033557 9.3883012,70.9228188 25.1606472,70.9228188 C34.9244805,70.9228188 41.1207593,75.6417785 45.6271438,82.0595638 L36.9899067,86.9672819 L36.9899067,86.9672819 Z" id="path5445" fill="#000000"></path>
                    <path d="M53.8888489,72.0553691 L63.6526822,72.0553691 L63.6526822,97.7265101 C63.6526822,104.521812 68.5345988,109.240772 74.7308776,109.240772 C80.7393903,109.240772 85.809073,104.333054 85.809073,97.7265101 L85.809073,72.0553691 L95.5729062,72.0553691 L95.5729062,98.4815436 C95.5729062,111.317114 85.621307,119.056208 74.7308776,119.056208 C63.8404482,119.056208 53.8888489,111.317114 53.8888489,98.4815436 L53.8888489,72.0553691 L53.8888489,72.0553691 Z" id="path5447" fill="#000000"></path>
                    <path d="M141.387816,86.9672819 C138.759092,82.8145973 135.003771,79.9832215 129.558557,79.9832215 C120.921319,79.9832215 114.725041,86.5897651 114.725041,94.8951342 C114.725041,103.200503 120.921319,109.807047 129.558557,109.807047 C135.003771,109.807047 138.759092,107.16443 141.387816,103.011745 L150.025053,108.108221 C145.894201,114.526007 138.195794,119.244966 129.558557,119.244966 C113.598445,119.244966 104.397909,107.16443 104.397909,95.0838926 C104.397909,83.0033557 113.598445,70.9228188 129.558557,70.9228188 C139.32239,70.9228188 145.518669,75.6417785 150.025053,82.0595638 L141.387816,86.9672819 L141.387816,86.9672819 Z" id="path5449" fill="#000000"></path>
                    <path d="M158.286758,72.0553691 L168.050592,72.0553691 L168.050592,97.7265101 C168.050592,104.521812 172.932508,109.240772 179.128787,109.240772 C185.1373,109.240772 190.206982,104.333054 190.206982,97.7265101 L190.206982,72.0553691 L199.970816,72.0553691 L199.970816,98.4815436 C199.970816,111.317114 190.019216,119.056208 179.128787,119.056208 C168.238358,119.056208 158.286758,111.317114 158.286758,98.4815436 L158.286758,72.0553691 L158.286758,72.0553691 Z" id="path5451" fill="#000000"></path>
                    <path d="M212.175607,89.2323826 C212.175607,77.5293624 219.874014,70.9228188 228.886783,70.9228188 C235.834126,70.9228188 240.716043,74.3204698 242.593703,79.0394295 L242.781469,79.0394295 C244.659129,74.1317114 249.541046,70.9228188 256.488389,70.9228188 C265.501158,70.9228188 273.199565,77.7181208 273.199565,89.2323826 L273.199565,117.923658 L263.435732,117.923658 L263.435732,89.2323826 C263.435732,83.7583893 260.055943,80.5494966 255.925091,80.5494966 C251.23094,80.5494966 247.851152,83.3808725 247.851152,90.5536913 L247.851152,117.734899 L238.087319,117.734899 L238.087319,90.5536913 C238.087319,83.3808725 234.70753,80.5494966 230.013379,80.5494966 C225.882527,80.5494966 222.502739,83.7583893 222.502739,89.2323826 L222.502739,117.734899 L212.175607,117.734899 L212.175607,89.2323826 L212.175607,89.2323826 Z" id="path5453" fill="#000000"></path>
                    <path d="M285.216591,58.4647651 L294.980424,58.4647651 L294.980424,77.7181208 L295.16819,77.7181208 C297.421382,73.942953 303.617661,70.9228188 310.001706,70.9228188 C321.830965,70.9228188 333.660225,79.7944631 333.660225,95.0838926 C333.660225,110.373322 321.830965,119.244966 310.001706,119.244966 C303.617661,119.244966 297.421382,116.224832 295.16819,112.449664 L294.980424,112.449664 L294.980424,118.112416 L285.216591,118.112416 L285.216591,58.4647651 L285.216591,58.4647651 Z M309.062876,80.1719799 C300.988937,80.1719799 294.980424,86.5897651 294.980424,95.0838926 C294.980424,103.57802 300.988937,109.995805 309.062876,109.995805 C317.324581,109.995805 323.333093,103.57802 323.333093,95.0838926 C323.333093,86.4010067 317.324581,80.1719799 309.062876,80.1719799 L309.062876,80.1719799 Z" id="path5455" fill="#000000"></path>
                    <path d="M386.234711,107.919463 C380.789497,114.903523 373.278856,119.056208 365.017151,119.056208 C349.057039,119.056208 339.856504,106.975671 339.856504,94.8951342 C339.856504,82.8145973 349.244805,70.9228188 365.017151,70.9228188 C374.405452,70.9228188 388.67567,78.8506711 388.67567,96.5939597 L388.67567,98.2927852 L350.934699,98.2927852 C351.497997,105.276846 358.069808,110.373322 364.829385,110.373322 C370.086833,110.373322 374.593218,107.730705 377.973006,103.200503 L386.234711,107.919463 L386.234711,107.919463 Z M377.221942,90.1761745 C375.156516,83.1921141 370.086833,79.4169463 363.702789,79.4169463 C357.50651,79.4169463 352.436827,83.3808725 350.746933,90.1761745 L377.221942,90.1761745 L377.221942,90.1761745 Z" id="path5457" fill="#000000"></path>
                    <path d="M447.243798,0.741736158 C430.249972,0.741736158 416.497112,14.5672813 416.497112,31.6509224 C416.497112,46.6920176 427.222399,59.1896539 441.37611,61.9702387 L441.37611,70.8182882 C459.777357,68.0293792 476.070549,53.3451714 477.286362,34.0693893 C478.01818,22.466983 472.263705,10.6223286 462.558465,4.87082592 C462.002799,4.5415288 461.438245,4.21462173 460.856835,3.92703398 C460.264403,3.63399451 459.656051,3.34839211 459.037852,3.10121602 C458.841617,3.01869425 458.649337,2.94383381 458.451083,2.86526804 C457.911148,2.66489818 457.366334,2.4392664 456.80813,2.27539807 C453.799504,1.27851613 450.58333,0.741736158 447.243798,0.741736158 L447.243798,0.741736158 Z" id="path3943" fill="#00A818"></path>
                    <path d="M453.580902,12.1852135 C452.529119,12.0768247 451.421592,12.4447563 450.647057,13.3649534 C450.083759,14.119987 449.731698,14.8514258 449.356166,15.6064593 C448.22957,18.2490768 448.605102,21.0804526 450.294996,23.1567949 C452.92372,22.5905197 455.153442,20.9034916 456.280038,18.2608742 C456.65557,17.5058406 456.866807,16.5384539 456.866807,15.7834203 C456.984161,13.7778624 455.333874,12.3658611 453.580902,12.1852135 L453.580902,12.1852135 Z M439.909188,12.3621745 C438.194723,12.5262322 436.564606,13.8958364 436.564606,15.7834203 C436.564606,16.5384539 436.775842,17.5058406 437.151374,18.2608742 C438.277971,20.9034916 440.683723,22.5905197 443.312447,23.1567949 C444.814575,21.0804526 445.201843,18.2490768 444.075247,15.6064593 C443.699715,14.8514258 443.347653,14.1081896 442.784355,13.5419144 C442.00982,12.6217173 440.937868,12.26374 439.909188,12.3621745 L439.909188,12.3621745 Z M430.696917,21.446172 C427.736027,21.5989341 426.413505,25.3393138 428.877934,27.2858846 C429.628998,27.8521598 430.356591,28.2650688 431.107656,28.6425856 C433.73638,29.7751359 436.775842,29.3858217 439.029035,27.8757546 C438.465737,25.4218956 436.55287,23.1685923 433.924146,22.0360419 C432.985316,21.6585252 432.222516,21.446172 431.283686,21.446172 C431.072449,21.4225772 430.89431,21.435979 430.696917,21.446172 L430.696917,21.446172 Z M459.62462,32.8896493 C457.904654,32.8564656 456.162684,33.3615453 454.754439,34.3053372 C455.317737,36.7591963 457.230604,39.0124996 459.859328,40.1450499 C460.798158,40.5225667 461.560958,40.7349199 462.499788,40.7349199 C465.879576,40.9236783 467.534264,36.7238041 464.90554,34.8362202 C464.154476,34.2699451 463.426882,33.9160231 462.675818,33.5385063 C461.690047,33.1137999 460.656599,32.9095577 459.62462,32.8896493 L459.62462,32.8896493 Z M433.982823,33.0666103 C432.950843,33.0865243 431.917397,33.2907609 430.931625,33.7154673 C429.992795,34.0929841 429.265201,34.505893 428.701903,35.0721682 C426.260945,37.1485105 427.903898,41.1006393 431.283686,40.9118809 C432.222516,40.9118809 433.173082,40.6995277 433.924146,40.3220109 C436.55287,39.1894606 438.418795,36.9361573 438.794327,34.4822982 C437.386082,33.5385063 435.70279,33.0334304 433.982823,33.0666103 L433.982823,33.0666103 Z M443.488478,38.847336 C440.859753,39.4136112 438.630032,41.1006393 437.503436,43.7432567 C437.127904,44.4982903 436.916667,45.40669 436.916667,46.1617236 C436.728901,49.3706162 441.082726,51.0930365 442.960386,48.6391774 C443.523684,47.8841439 443.875745,47.1527051 444.251277,46.3976716 C445.377873,43.9438125 444.990606,41.1124367 443.488478,38.847336 L443.488478,38.847336 Z M450.471027,39.024297 C448.968899,41.1006393 448.581631,43.9320151 449.708227,46.5746326 C450.083759,47.3296661 450.435821,48.0729023 450.999119,48.6391774 C453.064545,50.9042781 457.406634,49.2290474 457.218868,46.3976716 C457.218868,45.642638 457.007631,44.6752513 456.632099,43.9202177 C455.505503,41.2776003 453.099751,39.5905721 450.471027,39.024297 L450.471027,39.024297 Z" id="rect4005" fill="#FFFFFF"></path>
                </g>
            </g>
        </g>
    </g>
</svg>