<?xml version="1.0" encoding="UTF-8" standalone="no"?>
<svg width="1039px" height="697px" viewBox="0 0 1039 697" version="1.1" xmlns="http://www.w3.org/2000/svg" xmlns:xlink="http://www.w3.org/1999/xlink" xmlns:sketch="http://www.bohemiancoding.com/sketch/ns">
    <!-- Generator: Sketch 3.5.1 (25234) - http://www.bohemiancoding.com/sketch -->
    <title>Seb-Front</title>
    <desc>Created with Sketch.</desc>
    <defs></defs>
    <g id="Seb" stroke="none" stroke-width="1" fill="none" fill-rule="evenodd" sketch:type="MSPage">
        <g id="Seb-Front" sketch:type="MSArtboardGroup">
            <path d="M649.683594,538.628906 C649.683594,537.470046 649.218104,536.539066 648.287109,535.835938 C647.356115,535.132809 645.953134,534.582684 644.078125,534.185547 C642.203116,533.788409 640.748052,533.332685 639.712891,532.818359 C638.677729,532.304034 637.909508,531.675785 637.408203,530.933594 C636.906899,530.191403 636.65625,529.292974 636.65625,528.238281 C636.65625,526.571606 637.352858,525.194667 638.746094,524.107422 C640.13933,523.020177 641.923166,522.476562 644.097656,522.476562 C646.454439,522.476562 648.345696,523.059239 649.771484,524.224609 C651.197273,525.38998 651.910156,526.910147 651.910156,528.785156 L649.566406,528.785156 C649.566406,527.548171 649.048833,526.519535 648.013672,525.699219 C646.97851,524.878902 645.673185,524.46875 644.097656,524.46875 C642.56119,524.46875 641.327479,524.810543 640.396484,525.494141 C639.46549,526.177738 639,527.066401 639,528.160156 C639,529.214849 639.387366,530.031898 640.162109,530.611328 C640.936853,531.190758 642.349599,531.721352 644.400391,532.203125 C646.451182,532.684898 647.987625,533.199216 649.009766,533.746094 C650.031906,534.292971 650.790362,534.950517 651.285156,535.71875 C651.77995,536.486983 652.027344,537.417963 652.027344,538.511719 C652.027344,540.295582 651.30795,541.721349 649.869141,542.789062 C648.430331,543.856776 646.552095,544.390625 644.234375,544.390625 C641.773425,544.390625 639.778002,543.794928 638.248047,542.603516 C636.718091,541.412103 635.953125,539.904957 635.953125,538.082031 L638.296875,538.082031 C638.388021,539.449226 638.964187,540.513668 640.025391,541.275391 C641.086594,542.037113 642.489575,542.417969 644.234375,542.417969 C645.861987,542.417969 647.177078,542.059899 648.179688,541.34375 C649.182297,540.627601 649.683594,539.722662 649.683594,538.628906 L649.683594,538.628906 Z M665.464844,544.390625 C663.66796,544.390625 662.043627,543.947921 660.591797,543.0625 C659.139967,542.177079 658.010421,540.943367 657.203125,539.361328 C656.395829,537.779289 655.992188,536.005218 655.992188,534.039062 L655.992188,533.199219 C655.992188,531.167959 656.386064,529.33855 657.173828,527.710938 C657.961592,526.083325 659.058587,524.804041 660.464844,523.873047 C661.871101,522.942053 663.394523,522.476562 665.035156,522.476562 C667.600273,522.476562 669.634758,523.352205 671.138672,525.103516 C672.642586,526.854826 673.394531,529.247381 673.394531,532.28125 L673.394531,533.589844 L658.316406,533.589844 L658.316406,534.039062 C658.316406,536.434908 659.003248,538.430331 660.376953,540.025391 C661.750658,541.620451 663.479156,542.417969 665.5625,542.417969 C666.812506,542.417969 667.916011,542.190106 668.873047,541.734375 C669.830083,541.278644 670.699215,540.549484 671.480469,539.546875 L672.945312,540.660156 C671.226554,543.147148 668.733089,544.390625 665.464844,544.390625 L665.464844,544.390625 Z M665.035156,524.46875 C663.277335,524.46875 661.79623,525.113275 660.591797,526.402344 C659.387364,527.691413 658.654949,529.423166 658.394531,531.597656 L671.070312,531.597656 L671.070312,531.34375 C671.005208,529.31249 670.425787,527.658861 669.332031,526.382812 C668.238276,525.106764 666.805998,524.46875 665.035156,524.46875 L665.035156,524.46875 Z M694.957031,533.648438 C694.957031,536.942725 694.227872,539.556631 692.769531,541.490234 C691.311191,543.423838 689.351575,544.390625 686.890625,544.390625 C683.947902,544.390625 681.721362,543.296886 680.210938,541.109375 L680.113281,544 L677.925781,544 L677.925781,514 L680.25,514 L680.25,525.933594 C681.734382,523.628895 683.934881,522.476562 686.851562,522.476562 C689.351575,522.476562 691.327467,523.430329 692.779297,525.337891 C694.231127,527.245452 694.957031,529.898421 694.957031,533.296875 L694.957031,533.648438 Z M692.613281,533.238281 C692.613281,530.451809 692.072922,528.300138 690.992188,526.783203 C689.911453,525.266268 688.388031,524.507812 686.421875,524.507812 C684.924472,524.507812 683.654953,524.875647 682.613281,525.611328 C681.571609,526.347009 680.783857,527.424472 680.25,528.84375 L680.25,538.375 C681.421881,541.031263 683.492173,542.359375 686.460938,542.359375 C688.38803,542.359375 689.895177,541.597664 690.982422,540.074219 C692.069667,538.550774 692.613281,536.272151 692.613281,533.238281 L692.613281,533.238281 Z M731.324219,533.980469 C731.259114,535.894541 730.907555,537.668612 730.269531,539.302734 C729.631507,540.936857 728.749355,542.193355 727.623047,543.072266 C726.496739,543.951176 725.191414,544.390625 723.707031,544.390625 C722.444004,544.390625 721.415369,544.058597 720.621094,543.394531 C719.826819,542.730465 719.29948,541.799485 719.039062,540.601562 C717.632805,543.127617 715.692721,544.390625 713.21875,544.390625 C711.395824,544.390625 710.035161,543.602872 709.136719,542.027344 C708.238277,540.451815 707.906249,538.32944 708.140625,535.660156 C708.335938,533.53775 708.82096,531.646493 709.595703,529.986328 C710.370447,528.326164 711.379551,527.030604 712.623047,526.099609 C713.866543,525.168615 715.19791,524.703125 716.617188,524.703125 C717.619797,524.703125 718.498694,524.843098 719.253906,525.123047 C720.009118,525.402996 720.888016,525.966142 721.890625,526.8125 L720.894531,537.945312 C720.764322,539.455737 720.956378,540.6276 721.470703,541.460938 C721.985029,542.294275 722.808588,542.710938 723.941406,542.710938 C725.542977,542.710938 726.841792,541.92644 727.837891,540.357422 C728.833989,538.788404 729.390624,536.662774 729.507812,533.980469 C729.75521,528.707005 728.752615,524.738946 726.5,522.076172 C724.247385,519.413398 720.83596,518.082031 716.265625,518.082031 C713.518215,518.082031 711.041027,518.768873 708.833984,520.142578 C706.626942,521.516283 704.885423,523.459623 703.609375,525.972656 C702.333327,528.48569 701.617188,531.382796 701.460938,534.664062 C701.304687,537.945329 701.737625,540.83267 702.759766,543.326172 C703.781906,545.819674 705.324859,547.736972 707.388672,549.078125 C709.452484,550.419278 711.910142,551.089844 714.761719,551.089844 C715.959641,551.089844 717.138015,550.946616 718.296875,550.660156 C719.455735,550.373696 720.425777,550.002606 721.207031,549.546875 L721.8125,551.109375 C721.070309,551.604169 720.035163,552.017576 718.707031,552.349609 C717.3789,552.681642 716.037767,552.847656 714.683594,552.847656 C711.428369,552.847656 708.628918,552.115242 706.285156,550.650391 C703.941395,549.18554 702.186855,547.076186 701.021484,544.322266 C699.856114,541.568346 699.351562,538.348977 699.507812,534.664062 C699.664063,531.044253 700.461581,527.837905 701.900391,525.044922 C703.3392,522.251939 705.308581,520.090502 707.808594,518.560547 C710.308606,517.030591 713.15363,516.265625 716.34375,516.265625 C719.664079,516.265625 722.476551,516.958977 724.78125,518.345703 C727.085949,519.732429 728.791661,521.760403 729.898438,524.429688 C731.005214,527.098972 731.48047,530.282534 731.324219,533.980469 L731.324219,533.980469 Z M710.210938,538.414062 C710.354167,539.716152 710.718747,540.722002 711.304688,541.431641 C711.890628,542.14128 712.66536,542.496094 713.628906,542.496094 C716.037772,542.496094 717.815098,540.835954 718.960938,537.515625 L719.839844,527.4375 C718.967444,526.799476 717.938808,526.480469 716.753906,526.480469 C715.308587,526.480469 714.055344,527.056635 712.994141,528.208984 C711.932937,529.361334 711.15495,530.94986 710.660156,532.974609 C710.165362,534.999359 710.015624,536.812492 710.210938,538.414062 L710.210938,538.414062 Z M744.449219,542.417969 C746.076831,542.417969 747.44075,541.958989 748.541016,541.041016 C749.641282,540.123042 750.236979,538.934903 750.328125,537.476562 L752.574219,537.476562 C752.509114,538.765631 752.105472,539.94075 751.363281,541.001953 C750.62109,542.063156 749.634772,542.893226 748.404297,543.492188 C747.173822,544.091149 745.855476,544.390625 744.449219,544.390625 C741.675767,544.390625 739.478524,543.427093 737.857422,541.5 C736.23632,539.572907 735.425781,536.981787 735.425781,533.726562 L735.425781,533.023438 C735.425781,530.940094 735.790361,529.097664 736.519531,527.496094 C737.248702,525.894523 738.293613,524.657556 739.654297,523.785156 C741.014981,522.912756 742.606762,522.476562 744.429688,522.476562 C746.747407,522.476562 748.658196,523.16666 750.162109,524.546875 C751.666023,525.92709 752.470052,527.743478 752.574219,529.996094 L750.328125,529.996094 C750.223958,528.34244 749.628261,527.007818 748.541016,525.992188 C747.453771,524.976557 746.083342,524.46875 744.429688,524.46875 C742.320302,524.46875 740.682949,525.230461 739.517578,526.753906 C738.352208,528.277351 737.769531,530.412747 737.769531,533.160156 L737.769531,533.84375 C737.769531,536.539076 738.352208,538.64192 739.517578,540.152344 C740.682949,541.662768 742.326812,542.417969 744.449219,542.417969 L744.449219,542.417969 Z M770.835938,541.324219 C769.42968,543.3685 767.183609,544.390625 764.097656,544.390625 C761.845041,544.390625 760.132818,543.736335 758.960938,542.427734 C757.789057,541.119134 757.190104,539.182304 757.164062,536.617188 L757.164062,522.867188 L759.488281,522.867188 L759.488281,536.324219 C759.488281,540.347676 761.115869,542.359375 764.371094,542.359375 C767.756527,542.359375 769.898433,540.959649 770.796875,538.160156 L770.796875,522.867188 L773.140625,522.867188 L773.140625,544 L770.875,544 L770.835938,541.324219 Z M787.027344,542.417969 C788.654956,542.417969 790.018875,541.958989 791.119141,541.041016 C792.219407,540.123042 792.815104,538.934903 792.90625,537.476562 L795.152344,537.476562 C795.087239,538.765631 794.683597,539.94075 793.941406,541.001953 C793.199215,542.063156 792.212897,542.893226 790.982422,543.492188 C789.751947,544.091149 788.433601,544.390625 787.027344,544.390625 C784.253892,544.390625 782.056649,543.427093 780.435547,541.5 C778.814445,539.572907 778.003906,536.981787 778.003906,533.726562 L778.003906,533.023438 C778.003906,530.940094 778.368486,529.097664 779.097656,527.496094 C779.826827,525.894523 780.871738,524.657556 782.232422,523.785156 C783.593106,522.912756 785.184887,522.476562 787.007812,522.476562 C789.325532,522.476562 791.236321,523.16666 792.740234,524.546875 C794.244148,525.92709 795.048177,527.743478 795.152344,529.996094 L792.90625,529.996094 C792.802083,528.34244 792.206386,527.007818 791.119141,525.992188 C790.031896,524.976557 788.661467,524.46875 787.007812,524.46875 C784.898427,524.46875 783.261074,525.230461 782.095703,526.753906 C780.930333,528.277351 780.347656,530.412747 780.347656,533.160156 L780.347656,533.84375 C780.347656,536.539076 780.930333,538.64192 782.095703,540.152344 C783.261074,541.662768 784.904937,542.417969 787.027344,542.417969 L787.027344,542.417969 Z M813.414062,541.324219 C812.007805,543.3685 809.761734,544.390625 806.675781,544.390625 C804.423166,544.390625 802.710943,543.736335 801.539062,542.427734 C800.367182,541.119134 799.768229,539.182304 799.742188,536.617188 L799.742188,522.867188 L802.066406,522.867188 L802.066406,536.324219 C802.066406,540.347676 803.693994,542.359375 806.949219,542.359375 C810.334652,542.359375 812.476558,540.959649 813.375,538.160156 L813.375,522.867188 L815.71875,522.867188 L815.71875,544 L813.453125,544 L813.414062,541.324219 Z M823.921875,522.867188 L824,526.304688 C824.781254,525.028639 825.757807,524.071618 826.929688,523.433594 C828.101568,522.79557 829.403639,522.476562 830.835938,522.476562 C834.169287,522.476562 836.285152,523.843736 837.183594,526.578125 C837.938806,525.263014 838.94791,524.250655 840.210938,523.541016 C841.473965,522.831377 842.86718,522.476562 844.390625,522.476562 C848.921898,522.476562 851.233072,524.950496 851.324219,529.898438 L851.324219,544 L848.980469,544 L848.980469,530.074219 C848.967448,528.186188 848.560551,526.786463 847.759766,525.875 C846.95898,524.963537 845.653655,524.507812 843.84375,524.507812 C842.164054,524.533854 840.744797,525.077469 839.585938,526.138672 C838.427078,527.199875 837.782553,528.49218 837.652344,530.015625 L837.652344,544 L835.308594,544 L835.308594,529.898438 C835.295573,528.088533 834.869145,526.737635 834.029297,525.845703 C833.189449,524.953772 831.897144,524.507812 830.152344,524.507812 C828.680982,524.507812 827.417974,524.92773 826.363281,525.767578 C825.308588,526.607426 824.527346,527.854158 824.019531,529.507812 L824.019531,544 L821.675781,544 L821.675781,522.867188 L823.921875,522.867188 Z M874.253906,533.648438 C874.253906,536.942725 873.524747,539.556631 872.066406,541.490234 C870.608066,543.423838 868.64845,544.390625 866.1875,544.390625 C863.244777,544.390625 861.018237,543.296886 859.507812,541.109375 L859.410156,544 L857.222656,544 L857.222656,514 L859.546875,514 L859.546875,525.933594 C861.031257,523.628895 863.231756,522.476562 866.148438,522.476562 C868.64845,522.476562 870.624342,523.430329 872.076172,525.337891 C873.528002,527.245452 874.253906,529.898421 874.253906,533.296875 L874.253906,533.648438 Z M871.910156,533.238281 C871.910156,530.451809 871.369797,528.300138 870.289062,526.783203 C869.208328,525.266268 867.684906,524.507812 865.71875,524.507812 C864.221347,524.507812 862.951828,524.875647 861.910156,525.611328 C860.868484,526.347009 860.080732,527.424472 859.546875,528.84375 L859.546875,538.375 C860.718756,541.031263 862.789048,542.359375 865.757812,542.359375 C867.684905,542.359375 869.192052,541.597664 870.279297,540.074219 C871.366542,538.550774 871.910156,536.272151 871.910156,533.238281 L871.910156,533.238281 Z M887.59375,544.390625 C885.796866,544.390625 884.172533,543.947921 882.720703,543.0625 C881.268873,542.177079 880.139327,540.943367 879.332031,539.361328 C878.524736,537.779289 878.121094,536.005218 878.121094,534.039062 L878.121094,533.199219 C878.121094,531.167959 878.51497,529.33855 879.302734,527.710938 C880.090499,526.083325 881.187493,524.804041 882.59375,523.873047 C884.000007,522.942053 885.523429,522.476562 887.164062,522.476562 C889.729179,522.476562 891.763664,523.352205 893.267578,525.103516 C894.771492,526.854826 895.523438,529.247381 895.523438,532.28125 L895.523438,533.589844 L880.445312,533.589844 L880.445312,534.039062 C880.445312,536.434908 881.132155,538.430331 882.505859,540.025391 C883.879564,541.620451 885.608062,542.417969 887.691406,542.417969 C888.941413,542.417969 890.044917,542.190106 891.001953,541.734375 C891.958989,541.278644 892.828121,540.549484 893.609375,539.546875 L895.074219,540.660156 C893.35546,543.147148 890.861996,544.390625 887.59375,544.390625 L887.59375,544.390625 Z M887.164062,524.46875 C885.406241,524.46875 883.925136,525.113275 882.720703,526.402344 C881.51627,527.691413 880.783855,529.423166 880.523438,531.597656 L893.199219,531.597656 L893.199219,531.34375 C893.134114,529.31249 892.554693,527.658861 891.460938,526.382812 C890.367182,525.106764 888.934905,524.46875 887.164062,524.46875 L887.164062,524.46875 Z M909.839844,524.859375 C909.34505,524.768229 908.817711,524.722656 908.257812,524.722656 C906.799472,524.722656 905.56576,525.129553 904.556641,525.943359 C903.547521,526.757166 902.828127,527.938794 902.398438,529.488281 L902.398438,544 L900.074219,544 L900.074219,522.867188 L902.359375,522.867188 L902.398438,526.226562 C903.635423,523.72655 905.62108,522.476562 908.355469,522.476562 C909.006514,522.476562 909.520831,522.561197 909.898438,522.730469 L909.839844,524.859375 Z M910.914062,542.59375 C910.914062,542.138019 911.060545,541.750653 911.353516,541.431641 C911.646486,541.112629 912.053383,540.953125 912.574219,540.953125 C913.095055,540.953125 913.505207,541.112629 913.804688,541.431641 C914.104168,541.750653 914.253906,542.138019 914.253906,542.59375 C914.253906,543.049481 914.104168,543.423827 913.804688,543.716797 C913.505207,544.009767 913.095055,544.15625 912.574219,544.15625 C912.053383,544.15625 911.646486,544.009767 911.353516,543.716797 C911.060545,543.423827 910.914062,543.049481 910.914062,542.59375 L910.914062,542.59375 Z M923.296875,544 L920.953125,544 L920.953125,522.867188 L923.296875,522.867188 L923.296875,544 Z M920.542969,516.753906 C920.542969,516.311196 920.686196,515.93685 920.972656,515.630859 C921.259116,515.324868 921.649737,515.171875 922.144531,515.171875 C922.639325,515.171875 923.033202,515.324868 923.326172,515.630859 C923.619142,515.93685 923.765625,516.311196 923.765625,516.753906 C923.765625,517.196617 923.619142,517.567707 923.326172,517.867188 C923.033202,518.166668 922.639325,518.316406 922.144531,518.316406 C921.649737,518.316406 921.259116,518.166668 920.972656,517.867188 C920.686196,517.567707 920.542969,517.196617 920.542969,516.753906 L920.542969,516.753906 Z M928.355469,533.121094 C928.355469,531.089834 928.749345,529.260425 929.537109,527.632812 C930.324874,526.0052 931.438144,524.738937 932.876953,523.833984 C934.315762,522.929032 935.946605,522.476562 937.769531,522.476562 C940.582045,522.476562 942.860668,523.462881 944.605469,525.435547 C946.350269,527.408213 947.222656,530.022119 947.222656,533.277344 L947.222656,533.765625 C947.222656,535.809906 946.82878,537.64908 946.041016,539.283203 C945.253251,540.917326 944.143236,542.177079 942.710938,543.0625 C941.278639,543.947921 939.64454,544.390625 937.808594,544.390625 C935.009101,544.390625 932.733733,543.404307 930.982422,541.431641 C929.231111,539.458975 928.355469,536.845068 928.355469,533.589844 L928.355469,533.121094 Z M930.699219,533.765625 C930.699219,536.291679 931.353509,538.365226 932.662109,539.986328 C933.97071,541.60743 935.686187,542.417969 937.808594,542.417969 C939.917979,542.417969 941.626947,541.60743 942.935547,539.986328 C944.244147,538.365226 944.898438,536.226576 944.898438,533.570312 L944.898438,533.121094 C944.898438,531.506502 944.598961,530.028653 944,528.6875 C943.401039,527.346347 942.561203,526.307946 941.480469,525.572266 C940.399734,524.836585 939.162767,524.46875 937.769531,524.46875 C935.686187,524.46875 933.986986,525.285799 932.671875,526.919922 C931.356764,528.554045 930.699219,530.692695 930.699219,533.335938 L930.699219,533.765625 Z M585.855469,583.546875 L594.507812,583.546875 L594.507812,585.734375 L585.855469,585.734375 L585.855469,595.148438 L583.492188,595.148438 L583.492188,585.734375 L575.015625,585.734375 L575.015625,583.546875 L583.492188,583.546875 L583.492188,574.445312 L585.855469,574.445312 L585.855469,583.546875 Z M613.160156,588.839844 L617.59375,588.839844 L617.59375,590.8125 L613.160156,590.8125 L613.160156,598 L610.816406,598 L610.816406,590.8125 L597.4375,590.8125 L597.4375,589.484375 L610.601562,569.5625 L613.160156,569.5625 L613.160156,588.839844 Z M600.308594,588.839844 L610.816406,588.839844 L610.816406,572.589844 L609.78125,574.386719 L600.308594,588.839844 Z M635.328125,588.839844 L639.761719,588.839844 L639.761719,590.8125 L635.328125,590.8125 L635.328125,598 L632.984375,598 L632.984375,590.8125 L619.605469,590.8125 L619.605469,589.484375 L632.769531,569.5625 L635.328125,569.5625 L635.328125,588.839844 Z M622.476562,588.839844 L632.984375,588.839844 L632.984375,572.589844 L631.949219,574.386719 L622.476562,588.839844 Z M652.925781,586.515625 C652.925781,583.677069 653.290361,580.919935 654.019531,578.244141 C654.748702,575.568346 655.816399,573.120454 657.222656,570.900391 C658.628913,568.680327 660.139315,567.088546 661.753906,566.125 L662.320312,567.707031 C661.460933,568.319013 660.608077,569.210932 659.761719,570.382812 C658.91536,571.554693 658.16016,572.947909 657.496094,574.5625 C656.832028,576.177091 656.294924,577.990224 655.884766,580.001953 C655.474607,582.013682 655.269531,584.29556 655.269531,586.847656 C655.269531,589.569024 655.578773,592.186185 656.197266,594.699219 C656.815758,597.212252 657.665359,599.429027 658.746094,601.349609 C659.826828,603.270192 661.018223,604.712235 662.320312,605.675781 L661.753906,607.179688 C660.100252,606.190099 658.57032,604.591808 657.164062,602.384766 C655.757805,600.177723 654.699873,597.749362 653.990234,595.099609 C653.280595,592.449857 652.925781,589.588557 652.925781,586.515625 L652.925781,586.515625 Z M682.769531,586.144531 C682.769531,590.154968 682.033862,593.198557 680.5625,595.275391 C679.091138,597.352224 676.923191,598.390625 674.058594,598.390625 C671.24608,598.390625 669.091153,597.371755 667.59375,595.333984 C666.096347,593.296214 665.328125,590.330749 665.289062,586.4375 L665.289062,581.339844 C665.289062,577.342428 666.031243,574.315114 667.515625,572.257812 C669.000007,570.200511 671.167954,569.171875 674.019531,569.171875 C676.832045,569.171875 678.980461,570.164704 680.464844,572.150391 C681.949226,574.136078 682.717448,577.062481 682.769531,580.929688 L682.769531,586.144531 Z M680.425781,581.046875 C680.425781,577.79165 679.895188,575.330737 678.833984,573.664062 C677.772781,571.997388 676.167979,571.164062 674.019531,571.164062 C671.910146,571.164062 670.32162,571.977856 669.253906,573.605469 C668.186193,575.233081 667.639323,577.635401 667.613281,580.8125 L667.613281,586.398438 C667.613281,589.640641 668.163406,592.121085 669.263672,593.839844 C670.363938,595.558602 671.962229,596.417969 674.058594,596.417969 C676.141938,596.417969 677.720698,595.578133 678.794922,593.898438 C679.869146,592.218742 680.41276,589.757829 680.425781,586.515625 L680.425781,581.046875 Z M695.152344,586.808594 C695.152344,589.673191 694.79753,592.430325 694.087891,595.080078 C693.378252,597.729831 692.32683,600.154937 690.933594,602.355469 C689.540358,604.556001 688.003915,606.164057 686.324219,607.179688 L685.757812,605.675781 C687.033861,604.764318 688.215489,603.351572 689.302734,601.4375 C690.389979,599.523428 691.246091,597.293633 691.871094,594.748047 C692.496097,592.202461 692.808594,589.438817 692.808594,586.457031 C692.808594,583.761705 692.496097,581.16082 691.871094,578.654297 C691.246091,576.147774 690.383469,573.908213 689.283203,571.935547 C688.182937,569.962881 687.007819,568.527348 685.757812,567.628906 L686.324219,566.125 C687.964852,567.127609 689.481764,568.729156 690.875,570.929688 C692.268236,573.130219 693.329423,575.571601 694.058594,578.253906 C694.787764,580.936211 695.152344,583.787745 695.152344,586.808594 L695.152344,586.808594 Z M728.0625,570.910156 L715.914062,598 L713.472656,598 L725.542969,571.554688 L709.371094,571.554688 L709.371094,569.5625 L728.0625,569.5625 L728.0625,570.910156 Z M750.230469,570.910156 L738.082031,598 L735.640625,598 L747.710938,571.554688 L731.539062,571.554688 L731.539062,569.5625 L750.230469,569.5625 L750.230469,570.910156 Z M769.234375,588.839844 L773.667969,588.839844 L773.667969,590.8125 L769.234375,590.8125 L769.234375,598 L766.890625,598 L766.890625,590.8125 L753.511719,590.8125 L753.511719,589.484375 L766.675781,569.5625 L769.234375,569.5625 L769.234375,588.839844 Z M756.382812,588.839844 L766.890625,588.839844 L766.890625,572.589844 L765.855469,574.386719 L756.382812,588.839844 Z M794.566406,570.910156 L782.417969,598 L779.976562,598 L792.046875,571.554688 L775.875,571.554688 L775.875,569.5625 L794.566406,569.5625 L794.566406,570.910156 Z M826.460938,570.910156 L814.3125,598 L811.871094,598 L823.941406,571.554688 L807.769531,571.554688 L807.769531,569.5625 L826.460938,569.5625 L826.460938,570.910156 Z M848.257812,586.144531 C848.257812,590.154968 847.522143,593.198557 846.050781,595.275391 C844.57942,597.352224 842.411473,598.390625 839.546875,598.390625 C836.734361,598.390625 834.579435,597.371755 833.082031,595.333984 C831.584628,593.296214 830.816406,590.330749 830.777344,586.4375 L830.777344,581.339844 C830.777344,577.342428 831.519524,574.315114 833.003906,572.257812 C834.488289,570.200511 836.656236,569.171875 839.507812,569.171875 C842.320327,569.171875 844.468743,570.164704 845.953125,572.150391 C847.437507,574.136078 848.205729,577.062481 848.257812,580.929688 L848.257812,586.144531 Z M845.914062,581.046875 C845.914062,577.79165 845.383469,575.330737 844.322266,573.664062 C843.261062,571.997388 841.656261,571.164062 839.507812,571.164062 C837.398427,571.164062 835.809901,571.977856 834.742188,573.605469 C833.674474,575.233081 833.127604,577.635401 833.101562,580.8125 L833.101562,586.398438 C833.101562,589.640641 833.651687,592.121085 834.751953,593.839844 C835.852219,595.558602 837.45051,596.417969 839.546875,596.417969 C841.630219,596.417969 843.208979,595.578133 844.283203,593.898438 C845.357427,592.218742 845.901042,589.757829 845.914062,586.515625 L845.914062,581.046875 Z M867.066406,569.347656 L867.066406,571.398438 L866.792969,571.398438 C863.394514,571.398438 860.71876,572.397776 858.765625,574.396484 C856.81249,576.395192 855.731772,579.171857 855.523438,582.726562 C856.304691,581.645828 857.300775,580.809248 858.511719,580.216797 C859.722662,579.624346 861.076815,579.328125 862.574219,579.328125 C865.074231,579.328125 867.063144,580.190747 868.541016,581.916016 C870.018888,583.641285 870.757812,585.897121 870.757812,588.683594 C870.757812,590.532561 870.412764,592.199211 869.722656,593.683594 C869.032549,595.167976 868.042975,596.323564 866.753906,597.150391 C865.464837,597.977218 863.993498,598.390625 862.339844,598.390625 C859.618476,598.390625 857.404956,597.404307 855.699219,595.431641 C853.993481,593.458975 853.140625,590.910172 853.140625,587.785156 L853.140625,585.441406 C853.140625,580.350235 854.299468,576.408217 856.617188,573.615234 C858.934907,570.822252 862.222635,569.39974 866.480469,569.347656 L867.066406,569.347656 Z M862.203125,581.339844 C860.718743,581.339844 859.335293,581.779292 858.052734,582.658203 C856.770176,583.537114 855.914065,584.653639 855.484375,586.007812 L855.484375,588 C855.484375,590.473971 856.119134,592.49218 857.388672,594.054688 C858.658209,595.617195 860.308584,596.398438 862.339844,596.398438 C864.16277,596.398438 865.637364,595.675788 866.763672,594.230469 C867.88998,592.785149 868.453125,590.962251 868.453125,588.761719 C868.453125,586.522124 867.88998,584.725267 866.763672,583.371094 C865.637364,582.01692 864.117197,581.339844 862.203125,581.339844 L862.203125,581.339844 Z M902.320312,586.144531 C902.320312,590.154968 901.584643,593.198557 900.113281,595.275391 C898.64192,597.352224 896.473973,598.390625 893.609375,598.390625 C890.796861,598.390625 888.641935,597.371755 887.144531,595.333984 C885.647128,593.296214 884.878906,590.330749 884.839844,586.4375 L884.839844,581.339844 C884.839844,577.342428 885.582024,574.315114 887.066406,572.257812 C888.550789,570.200511 890.718736,569.171875 893.570312,569.171875 C896.382827,569.171875 898.531243,570.164704 900.015625,572.150391 C901.500007,574.136078 902.268229,577.062481 902.320312,580.929688 L902.320312,586.144531 Z M899.976562,581.046875 C899.976562,577.79165 899.445969,575.330737 898.384766,573.664062 C897.323562,571.997388 895.718761,571.164062 893.570312,571.164062 C891.460927,571.164062 889.872401,571.977856 888.804688,573.605469 C887.736974,575.233081 887.190104,577.635401 887.164062,580.8125 L887.164062,586.398438 C887.164062,589.640641 887.714187,592.121085 888.814453,593.839844 C889.914719,595.558602 891.51301,596.417969 893.609375,596.417969 C895.692719,596.417969 897.271479,595.578133 898.345703,593.898438 C899.419927,592.218742 899.963542,589.757829 899.976562,586.515625 L899.976562,581.046875 Z M921.929688,584.835938 C921.09635,586.059902 920.061204,587.007158 918.824219,587.677734 C917.587233,588.348311 916.246101,588.683594 914.800781,588.683594 C913.18619,588.683594 911.760423,588.266931 910.523438,587.433594 C909.286452,586.600256 908.32943,585.447924 907.652344,583.976562 C906.975257,582.505201 906.636719,580.897144 906.636719,579.152344 C906.636719,577.277334 906.998043,575.571622 907.720703,574.035156 C908.443363,572.49869 909.452467,571.304041 910.748047,570.451172 C912.043626,569.598303 913.537752,569.171875 915.230469,569.171875 C918.082046,569.171875 920.302075,570.171214 921.890625,572.169922 C923.479175,574.16863 924.273438,577.003888 924.273438,580.675781 L924.273438,582.785156 C924.273438,587.91539 923.179698,591.769518 920.992188,594.347656 C918.804677,596.925794 915.464866,598.214844 910.972656,598.214844 L910.542969,598.214844 L910.5625,596.183594 L911.382812,596.183594 C914.781267,596.13151 917.365877,595.167978 919.136719,593.292969 C920.907561,591.417959 921.838541,588.598977 921.929688,584.835938 L921.929688,584.835938 Z M915.09375,586.671875 C916.656258,586.671875 918.059239,586.206385 919.302734,585.275391 C920.54623,584.344396 921.428383,583.136726 921.949219,581.652344 L921.949219,580.304688 C921.949219,577.414048 921.347011,575.171232 920.142578,573.576172 C918.938145,571.981112 917.313812,571.183594 915.269531,571.183594 C913.420564,571.183594 911.903652,571.929029 910.71875,573.419922 C909.533848,574.910815 908.941406,576.789051 908.941406,579.054688 C908.941406,581.229178 909.511062,583.04231 910.650391,584.494141 C911.789719,585.945971 913.270824,586.671875 915.09375,586.671875 L915.09375,586.671875 Z M934.703125,582.511719 L937.125,582.511719 C938.466153,582.511719 939.638016,582.274091 940.640625,581.798828 C941.643234,581.323565 942.4082,580.67253 942.935547,579.845703 C943.462893,579.018876 943.726562,578.06511 943.726562,576.984375 C943.726562,575.161449 943.212245,573.735682 942.183594,572.707031 C941.154943,571.67838 939.677093,571.164062 937.75,571.164062 C935.927074,571.164062 934.432949,571.701167 933.267578,572.775391 C932.102208,573.849615 931.519531,575.265616 931.519531,577.023438 L929.175781,577.023438 C929.175781,575.552076 929.546871,574.207688 930.289062,572.990234 C931.031254,571.77278 932.059889,570.832035 933.375,570.167969 C934.690111,569.503903 936.148429,569.171875 937.75,569.171875 C940.328138,569.171875 942.359368,569.874993 943.84375,571.28125 C945.328132,572.687507 946.070312,574.614571 946.070312,577.0625 C946.070312,578.429694 945.637374,579.689447 944.771484,580.841797 C943.905595,581.994146 942.717455,582.856768 941.207031,583.429688 C942.977873,583.924482 944.319006,584.774083 945.230469,585.978516 C946.141932,587.182949 946.597656,588.618481 946.597656,590.285156 C946.597656,592.720064 945.803393,594.67968 944.214844,596.164062 C942.626294,597.648445 940.50392,598.390625 937.847656,598.390625 C936.154939,598.390625 934.602221,598.052087 933.189453,597.375 C931.776686,596.697913 930.682947,595.750657 929.908203,594.533203 C929.13346,593.315749 928.746094,591.899748 928.746094,590.285156 L931.089844,590.285156 C931.089844,592.095061 931.721348,593.569656 932.984375,594.708984 C934.247402,595.848313 935.86848,596.417969 937.847656,596.417969 C939.865896,596.417969 941.438145,595.900396 942.564453,594.865234 C943.690761,593.830073 944.253906,592.329437 944.253906,590.363281 C944.253906,588.46223 943.645188,587.010422 942.427734,586.007812 C941.21028,585.005203 939.416679,584.503906 937.046875,584.503906 L934.703125,584.503906 L934.703125,582.511719 Z" id="seb@cucumber.io" fill="#1B1D1E" sketch:type="MSShapeGroup"></path>
            <path d="M785.464844,442.675781 C785.464844,441.425775 785.025395,440.462243 784.146484,439.785156 C783.267574,439.10807 781.682303,438.424483 779.390625,437.734375 C777.098947,437.044267 775.276048,436.276046 773.921875,435.429688 C771.330716,433.802075 770.035156,431.679701 770.035156,429.0625 C770.035156,426.770822 770.969392,424.88282 772.837891,423.398438 C774.70639,421.914055 777.131496,421.171875 780.113281,421.171875 C782.092458,421.171875 783.856763,421.536455 785.40625,422.265625 C786.955737,422.994795 788.173173,424.033196 789.058594,425.380859 C789.944015,426.728522 790.386719,428.222648 790.386719,429.863281 L785.464844,429.863281 C785.464844,428.378899 784.999354,427.216801 784.068359,426.376953 C783.137365,425.537105 781.805998,425.117188 780.074219,425.117188 C778.459627,425.117188 777.206385,425.462236 776.314453,426.152344 C775.422522,426.842451 774.976562,427.805983 774.976562,429.042969 C774.976562,430.084641 775.458329,430.953773 776.421875,431.650391 C777.385421,432.347009 778.973947,433.024085 781.1875,433.681641 C783.401053,434.339196 785.178379,435.087886 786.519531,435.927734 C787.860684,436.767582 788.843747,437.731114 789.46875,438.818359 C790.093753,439.905604 790.40625,441.178378 790.40625,442.636719 C790.40625,445.006522 789.498056,446.891269 787.681641,448.291016 C785.865225,449.690762 783.401057,450.390625 780.289062,450.390625 C778.231761,450.390625 776.340503,450.009769 774.615234,449.248047 C772.889965,448.486324 771.548833,447.434903 770.591797,446.09375 C769.634761,444.752597 769.15625,443.190113 769.15625,441.40625 L774.097656,441.40625 C774.097656,443.020841 774.631505,444.270829 775.699219,445.15625 C776.766932,446.041671 778.296865,446.484375 780.289062,446.484375 C782.007821,446.484375 783.300126,446.136071 784.166016,445.439453 C785.031905,444.742835 785.464844,443.82162 785.464844,442.675781 L785.464844,442.675781 Z M811.363281,437.304688 L799.683594,437.304688 L799.683594,446.054688 L813.335938,446.054688 L813.335938,450 L794.742188,450 L794.742188,421.5625 L813.199219,421.5625 L813.199219,425.546875 L799.683594,425.546875 L799.683594,433.398438 L811.363281,433.398438 L811.363281,437.304688 Z M817.359375,450 L817.359375,421.5625 L827.105469,421.5625 C830.321631,421.5625 832.769523,422.207025 834.449219,423.496094 C836.128915,424.785163 836.96875,426.705716 836.96875,429.257812 C836.96875,430.559902 836.617191,431.731766 835.914062,432.773438 C835.210934,433.815109 834.182298,434.622393 832.828125,435.195312 C834.364591,435.611981 835.55273,436.396479 836.392578,437.548828 C837.232426,438.701178 837.652344,440.084627 837.652344,441.699219 C837.652344,444.368503 836.796233,446.419264 835.083984,447.851562 C833.371736,449.283861 830.920589,450 827.730469,450 L817.359375,450 Z M822.300781,437.167969 L822.300781,446.054688 L827.789062,446.054688 C829.338549,446.054688 830.549475,445.670577 831.421875,444.902344 C832.294275,444.134111 832.730469,443.066413 832.730469,441.699219 C832.730469,438.743475 831.220067,437.233073 828.199219,437.167969 L822.300781,437.167969 Z M822.300781,433.535156 L827.144531,433.535156 C828.680997,433.535156 829.882157,433.186852 830.748047,432.490234 C831.613937,431.793616 832.046875,430.807298 832.046875,429.53125 C832.046875,428.124993 831.646488,427.109378 830.845703,426.484375 C830.044918,425.859372 828.798186,425.546875 827.105469,425.546875 L822.300781,425.546875 L822.300781,433.535156 Z M863.003906,439.042969 L857.496094,439.042969 L857.496094,450 L852.554688,450 L852.554688,421.5625 L862.554688,421.5625 C865.835954,421.5625 868.368481,422.29817 870.152344,423.769531 C871.936207,425.240893 872.828125,427.369778 872.828125,430.15625 C872.828125,432.057301 872.369145,433.649082 871.451172,434.931641 C870.533199,436.214199 869.253914,437.200517 867.613281,437.890625 L874,449.746094 L874,450 L868.707031,450 L863.003906,439.042969 Z M857.496094,435.078125 L862.574219,435.078125 C864.240894,435.078125 865.542964,434.658207 866.480469,433.818359 C867.417973,432.978511 867.886719,431.829434 867.886719,430.371094 C867.886719,428.847649 867.45378,427.669275 866.587891,426.835938 C865.722001,426.0026 864.429696,425.572917 862.710938,425.546875 L857.496094,425.546875 L857.496094,435.078125 Z M900.210938,436.523438 C900.210938,439.30991 899.729171,441.754547 898.765625,443.857422 C897.802079,445.960297 896.425139,447.574864 894.634766,448.701172 C892.844392,449.82748 890.783866,450.390625 888.453125,450.390625 C886.148426,450.390625 884.09441,449.82748 882.291016,448.701172 C880.487621,447.574864 879.094406,445.970062 878.111328,443.886719 C877.12825,441.803375 876.630208,439.401055 876.617188,436.679688 L876.617188,435.078125 C876.617188,432.304674 877.108719,429.856781 878.091797,427.734375 C879.074875,425.611969 880.46158,423.987636 882.251953,422.861328 C884.042327,421.73502 886.096343,421.171875 888.414062,421.171875 C890.731782,421.171875 892.785798,421.72851 894.576172,422.841797 C896.366545,423.955084 897.749995,425.55663 898.726562,427.646484 C899.70313,429.736339 900.197917,432.167955 900.210938,434.941406 L900.210938,436.523438 Z M895.269531,435.039062 C895.269531,431.888005 894.673834,429.472665 893.482422,427.792969 C892.29101,426.113273 890.601573,425.273438 888.414062,425.273438 C886.278635,425.273438 884.60873,426.110018 883.404297,427.783203 C882.199864,429.456389 881.584636,431.822901 881.558594,434.882812 L881.558594,436.523438 C881.558594,439.648453 882.167312,442.063794 883.384766,443.769531 C884.60222,445.475269 886.291656,446.328125 888.453125,446.328125 C890.640636,446.328125 892.323562,445.4948 893.501953,443.828125 C894.680344,442.16145 895.269531,439.726579 895.269531,436.523438 L895.269531,435.039062 Z M919.996094,442.675781 C919.996094,441.425775 919.556645,440.462243 918.677734,439.785156 C917.798824,439.10807 916.213553,438.424483 913.921875,437.734375 C911.630197,437.044267 909.807298,436.276046 908.453125,435.429688 C905.861966,433.802075 904.566406,431.679701 904.566406,429.0625 C904.566406,426.770822 905.500642,424.88282 907.369141,423.398438 C909.23764,421.914055 911.662746,421.171875 914.644531,421.171875 C916.623708,421.171875 918.388013,421.536455 919.9375,422.265625 C921.486987,422.994795 922.704423,424.033196 923.589844,425.380859 C924.475265,426.728522 924.917969,428.222648 924.917969,429.863281 L919.996094,429.863281 C919.996094,428.378899 919.530604,427.216801 918.599609,426.376953 C917.668615,425.537105 916.337248,425.117188 914.605469,425.117188 C912.990877,425.117188 911.737635,425.462236 910.845703,426.152344 C909.953772,426.842451 909.507812,427.805983 909.507812,429.042969 C909.507812,430.084641 909.989579,430.953773 910.953125,431.650391 C911.916671,432.347009 913.505197,433.024085 915.71875,433.681641 C917.932303,434.339196 919.709629,435.087886 921.050781,435.927734 C922.391934,436.767582 923.374997,437.731114 924,438.818359 C924.625003,439.905604 924.9375,441.178378 924.9375,442.636719 C924.9375,445.006522 924.029306,446.891269 922.212891,448.291016 C920.396475,449.690762 917.932307,450.390625 914.820312,450.390625 C912.763011,450.390625 910.871753,450.009769 909.146484,449.248047 C907.421215,448.486324 906.080083,447.434903 905.123047,446.09375 C904.166011,444.752597 903.6875,443.190113 903.6875,441.40625 L908.628906,441.40625 C908.628906,443.020841 909.162755,444.270829 910.230469,445.15625 C911.298182,446.041671 912.828115,446.484375 914.820312,446.484375 C916.539071,446.484375 917.831376,446.136071 918.697266,445.439453 C919.563155,444.742835 919.996094,443.82162 919.996094,442.675781 L919.996094,442.675781 Z M945.894531,437.304688 L934.214844,437.304688 L934.214844,446.054688 L947.867188,446.054688 L947.867188,450 L929.273438,450 L929.273438,421.5625 L947.730469,421.5625 L947.730469,425.546875 L934.214844,425.546875 L934.214844,433.398438 L945.894531,433.398438 L945.894531,437.304688 Z" id="SEB-ROSE" fill="#1B1D1E" sketch:type="MSShapeGroup"></path>
            <g id="Cucumber-logo" sketch:type="MSLayerGroup" transform="translate(90.000000, 90.000000)">
                <g id="g6053" sketch:type="MSShapeGroup">
                    <path d="M418.718234,69.6015101 C413.085253,69.6015101 409.517698,72.4328859 406.888974,76.7743289 C406.888974,75.6417785 407.452272,74.3204698 407.452272,73.3766779 L407.452272,71.489094 L398.063971,71.489094 L398.063971,118.678691 L407.452272,118.678691 L407.452272,91.4974832 C407.452272,83.7583893 411.583125,79.0394295 418.718234,79.0394295 L420.595894,79.0394295 L420.595894,69.6015101 L418.718234,69.6015101 L418.718234,69.6015101 Z" id="path5443" fill="#000000"></path>
                    <path d="M36.9899067,86.9672819 C34.3611824,82.8145973 30.6058619,79.9832215 25.1606472,79.9832215 C16.5234101,79.9832215 10.3271313,86.5897651 10.3271313,94.8951342 C10.3271313,103.200503 16.5234101,109.807047 25.1606472,109.807047 C30.6058619,109.807047 34.3611824,107.16443 36.9899067,103.011745 L45.6271438,108.108221 C41.4962913,114.526007 33.7978843,119.244966 25.1606472,119.244966 C9.20053518,119.244966 7.10542736e-15,107.16443 7.10542736e-15,95.0838926 C7.10542736e-15,83.0033557 9.3883012,70.9228188 25.1606472,70.9228188 C34.9244805,70.9228188 41.1207593,75.6417785 45.6271438,82.0595638 L36.9899067,86.9672819 L36.9899067,86.9672819 Z" id="path5445" fill="#000000"></path>
                    <path d="M53.8888489,72.0553691 L63.6526822,72.0553691 L63.6526822,97.7265101 C63.6526822,104.521812 68.5345988,109.240772 74.7308776,109.240772 C80.7393903,109.240772 85.809073,104.333054 85.809073,97.7265101 L85.809073,72.0553691 L95.5729062,72.0553691 L95.5729062,98.4815436 C95.5729062,111.317114 85.621307,119.056208 74.7308776,119.056208 C63.8404482,119.056208 53.8888489,111.317114 53.8888489,98.4815436 L53.8888489,72.0553691 L53.8888489,72.0553691 Z" id="path5447" fill="#000000"></path>
                    <path d="M141.387816,86.9672819 C138.759092,82.8145973 135.003771,79.9832215 129.558557,79.9832215 C120.921319,79.9832215 114.725041,86.5897651 114.725041,94.8951342 C114.725041,103.200503 120.921319,109.807047 129.558557,109.807047 C135.003771,109.807047 138.759092,107.16443 141.387816,103.011745 L150.025053,108.108221 C145.894201,114.526007 138.195794,119.244966 129.558557,119.244966 C113.598445,119.244966 104.397909,107.16443 104.397909,95.0838926 C104.397909,83.0033557 113.598445,70.9228188 129.558557,70.9228188 C139.32239,70.9228188 145.518669,75.6417785 150.025053,82.0595638 L141.387816,86.9672819 L141.387816,86.9672819 Z" id="path5449" fill="#000000"></path>
                    <path d="M158.286758,72.0553691 L168.050592,72.0553691 L168.050592,97.7265101 C168.050592,104.521812 172.932508,109.240772 179.128787,109.240772 C185.1373,109.240772 190.206982,104.333054 190.206982,97.7265101 L190.206982,72.0553691 L199.970816,72.0553691 L199.970816,98.4815436 C199.970816,111.317114 190.019216,119.056208 179.128787,119.056208 C168.238358,119.056208 158.286758,111.317114 158.286758,98.4815436 L158.286758,72.0553691 L158.286758,72.0553691 Z" id="path5451" fill="#000000"></path>
                    <path d="M212.175607,89.2323826 C212.175607,77.5293624 219.874014,70.9228188 228.886783,70.9228188 C235.834126,70.9228188 240.716043,74.3204698 242.593703,79.0394295 L242.781469,79.0394295 C244.659129,74.1317114 249.541046,70.9228188 256.488389,70.9228188 C265.501158,70.9228188 273.199565,77.7181208 273.199565,89.2323826 L273.199565,117.923658 L263.435732,117.923658 L263.435732,89.2323826 C263.435732,83.7583893 260.055943,80.5494966 255.925091,80.5494966 C251.23094,80.5494966 247.851152,83.3808725 247.851152,90.5536913 L247.851152,117.734899 L238.087319,117.734899 L238.087319,90.5536913 C238.087319,83.3808725 234.70753,80.5494966 230.013379,80.5494966 C225.882527,80.5494966 222.502739,83.7583893 222.502739,89.2323826 L222.502739,117.734899 L212.175607,117.734899 L212.175607,89.2323826 L212.175607,89.2323826 Z" id="path5453" fill="#000000"></path>
                    <path d="M285.216591,58.4647651 L294.980424,58.4647651 L294.980424,77.7181208 L295.16819,77.7181208 C297.421382,73.942953 303.617661,70.9228188 310.001706,70.9228188 C321.830965,70.9228188 333.660225,79.7944631 333.660225,95.0838926 C333.660225,110.373322 321.830965,119.244966 310.001706,119.244966 C303.617661,119.244966 297.421382,116.224832 295.16819,112.449664 L294.980424,112.449664 L294.980424,118.112416 L285.216591,118.112416 L285.216591,58.4647651 L285.216591,58.4647651 Z M309.062876,80.1719799 C300.988937,80.1719799 294.980424,86.5897651 294.980424,95.0838926 C294.980424,103.57802 300.988937,109.995805 309.062876,109.995805 C317.324581,109.995805 323.333093,103.57802 323.333093,95.0838926 C323.333093,86.4010067 317.324581,80.1719799 309.062876,80.1719799 L309.062876,80.1719799 Z" id="path5455" fill="#000000"></path>
                    <path d="M386.234711,107.919463 C380.789497,114.903523 373.278856,119.056208 365.017151,119.056208 C349.057039,119.056208 339.856504,106.975671 339.856504,94.8951342 C339.856504,82.8145973 349.244805,70.9228188 365.017151,70.9228188 C374.405452,70.9228188 388.67567,78.8506711 388.67567,96.5939597 L388.67567,98.2927852 L350.934699,98.2927852 C351.497997,105.276846 358.069808,110.373322 364.829385,110.373322 C370.086833,110.373322 374.593218,107.730705 377.973006,103.200503 L386.234711,107.919463 L386.234711,107.919463 Z M377.221942,90.1761745 C375.156516,83.1921141 370.086833,79.4169463 363.702789,79.4169463 C357.50651,79.4169463 352.436827,83.3808725 350.746933,90.1761745 L377.221942,90.1761745 L377.221942,90.1761745 Z" id="path5457" fill="#000000"></path>
                    <path d="M447.243798,0.741736158 C430.249972,0.741736158 416.497112,14.5672813 416.497112,31.6509224 C416.497112,46.6920176 427.222399,59.1896539 441.37611,61.9702387 L441.37611,70.8182882 C459.777357,68.0293792 476.070549,53.3451714 477.286362,34.0693893 C478.01818,22.466983 472.263705,10.6223286 462.558465,4.87082592 C462.002799,4.5415288 461.438245,4.21462173 460.856835,3.92703398 C460.264403,3.63399451 459.656051,3.34839211 459.037852,3.10121602 C458.841617,3.01869425 458.649337,2.94383381 458.451083,2.86526804 C457.911148,2.66489818 457.366334,2.4392664 456.80813,2.27539807 C453.799504,1.27851613 450.58333,0.741736158 447.243798,0.741736158 L447.243798,0.741736158 Z" id="path3943" fill="#00A818"></path>
                    <path d="M453.580902,12.1852135 C452.529119,12.0768247 451.421592,12.4447563 450.647057,13.3649534 C450.083759,14.119987 449.731698,14.8514258 449.356166,15.6064593 C448.22957,18.2490768 448.605102,21.0804526 450.294996,23.1567949 C452.92372,22.5905197 455.153442,20.9034916 456.280038,18.2608742 C456.65557,17.5058406 456.866807,16.5384539 456.866807,15.7834203 C456.984161,13.7778624 455.333874,12.3658611 453.580902,12.1852135 L453.580902,12.1852135 Z M439.909188,12.3621745 C438.194723,12.5262322 436.564606,13.8958364 436.564606,15.7834203 C436.564606,16.5384539 436.775842,17.5058406 437.151374,18.2608742 C438.277971,20.9034916 440.683723,22.5905197 443.312447,23.1567949 C444.814575,21.0804526 445.201843,18.2490768 444.075247,15.6064593 C443.699715,14.8514258 443.347653,14.1081896 442.784355,13.5419144 C442.00982,12.6217173 440.937868,12.26374 439.909188,12.3621745 L439.909188,12.3621745 Z M430.696917,21.446172 C427.736027,21.5989341 426.413505,25.3393138 428.877934,27.2858846 C429.628998,27.8521598 430.356591,28.2650688 431.107656,28.6425856 C433.73638,29.7751359 436.775842,29.3858217 439.029035,27.8757546 C438.465737,25.4218956 436.55287,23.1685923 433.924146,22.0360419 C432.985316,21.6585252 432.222516,21.446172 431.283686,21.446172 C431.072449,21.4225772 430.89431,21.435979 430.696917,21.446172 L430.696917,21.446172 Z M459.62462,32.8896493 C457.904654,32.8564656 456.162684,33.3615453 454.754439,34.3053372 C455.317737,36.7591963 457.230604,39.0124996 459.859328,40.1450499 C460.798158,40.5225667 461.560958,40.7349199 462.499788,40.7349199 C465.879576,40.9236783 467.534264,36.7238041 464.90554,34.8362202 C464.154476,34.2699451 463.426882,33.9160231 462.675818,33.5385063 C461.690047,33.1137999 460.656599,32.9095577 459.62462,32.8896493 L459.62462,32.8896493 Z M433.982823,33.0666103 C432.950843,33.0865243 431.917397,33.2907609 430.931625,33.7154673 C429.992795,34.0929841 429.265201,34.505893 428.701903,35.0721682 C426.260945,37.1485105 427.903898,41.1006393 431.283686,40.9118809 C432.222516,40.9118809 433.173082,40.6995277 433.924146,40.3220109 C436.55287,39.1894606 438.418795,36.9361573 438.794327,34.4822982 C437.386082,33.5385063 435.70279,33.0334304 433.982823,33.0666103 L433.982823,33.0666103 Z M443.488478,38.847336 C440.859753,39.4136112 438.630032,41.1006393 437.503436,43.7432567 C437.127904,44.4982903 436.916667,45.40669 436.916667,46.1617236 C436.728901,49.3706162 441.082726,51.0930365 442.960386,48.6391774 C443.523684,47.8841439 443.875745,47.1527051 444.251277,46.3976716 C445.377873,43.9438125 444.990606,41.1124367 443.488478,38.847336 L443.488478,38.847336 Z M450.471027,39.024297 C448.968899,41.1006393 448.581631,43.9320151 449.708227,46.5746326 C450.083759,47.3296661 450.435821,48.0729023 450.999119,48.6391774 C453.064545,50.9042781 457.406634,49.2290474 457.218868,46.3976716 C457.218868,45.642638 457.007631,44.6752513 456.632099,43.9202177 C455.505503,41.2776003 453.099751,39.5905721 450.471027,39.024297 L450.471027,39.024297 Z" id="rect4005" fill="#FFFFFF"></path>
                </g>
            </g>
            <path d="M99.1132812,594.601562 C100.298183,594.601562 101.281246,594.256514 102.0625,593.566406 C102.843754,592.876299 103.260416,592.023443 103.3125,591.007812 L107.785156,591.007812 C107.733073,592.322923 107.322921,593.550125 106.554688,594.689453 C105.786454,595.828782 104.744798,596.730465 103.429688,597.394531 C102.114577,598.058597 100.69532,598.390625 99.171875,598.390625 C96.2161311,598.390625 93.8724045,597.433603 92.140625,595.519531 C90.4088455,593.605459 89.5429688,590.962256 89.5429688,587.589844 L89.5429688,587.101562 C89.5429688,583.885401 90.4023352,581.310557 92.1210938,579.376953 C93.8398523,577.44335 96.1835789,576.476562 99.1523438,576.476562 C101.665377,576.476562 103.712883,577.208977 105.294922,578.673828 C106.876961,580.138679 107.707031,582.062488 107.785156,584.445312 L103.3125,584.445312 C103.260416,583.234369 102.847009,582.238285 102.072266,581.457031 C101.297522,580.675777 100.311204,580.285156 99.1132812,580.285156 C97.5768152,580.285156 96.3919312,580.841791 95.5585938,581.955078 C94.7252563,583.068365 94.3020834,584.757801 94.2890625,587.023438 L94.2890625,587.785156 C94.2890625,590.076834 94.7024698,591.785802 95.5292969,592.912109 C96.3561239,594.038417 97.5507734,594.601562 99.1132812,594.601562 L99.1132812,594.601562 Z M124.171875,595.929688 C122.778639,597.570321 120.799492,598.390625 118.234375,598.390625 C115.942697,598.390625 114.207688,597.720059 113.029297,596.378906 C111.850906,595.037754 111.261719,593.097669 111.261719,590.558594 L111.261719,576.867188 L116.007812,576.867188 L116.007812,590.5 C116.007812,593.182305 117.121083,594.523438 119.347656,594.523438 C121.652355,594.523438 123.208329,593.696623 124.015625,592.042969 L124.015625,576.867188 L128.761719,576.867188 L128.761719,598 L124.289062,598 L124.171875,595.929688 Z M142.277344,594.601562 C143.462246,594.601562 144.445309,594.256514 145.226562,593.566406 C146.007816,592.876299 146.424479,592.023443 146.476562,591.007812 L150.949219,591.007812 C150.897135,592.322923 150.486983,593.550125 149.71875,594.689453 C148.950517,595.828782 147.908861,596.730465 146.59375,597.394531 C145.278639,598.058597 143.859383,598.390625 142.335938,598.390625 C139.380194,598.390625 137.036467,597.433603 135.304688,595.519531 C133.572908,593.605459 132.707031,590.962256 132.707031,587.589844 L132.707031,587.101562 C132.707031,583.885401 133.566398,581.310557 135.285156,579.376953 C137.003915,577.44335 139.347641,576.476562 142.316406,576.476562 C144.82944,576.476562 146.876945,577.208977 148.458984,578.673828 C150.041024,580.138679 150.871093,582.062488 150.949219,584.445312 L146.476562,584.445312 C146.424479,583.234369 146.011072,582.238285 145.236328,581.457031 C144.461585,580.675777 143.475266,580.285156 142.277344,580.285156 C140.740878,580.285156 139.555994,580.841791 138.722656,581.955078 C137.889319,583.068365 137.466146,584.757801 137.453125,587.023438 L137.453125,587.785156 C137.453125,590.076834 137.866532,591.785802 138.693359,592.912109 C139.520186,594.038417 140.714836,594.601562 142.277344,594.601562 L142.277344,594.601562 Z M167.335938,595.929688 C165.942701,597.570321 163.963554,598.390625 161.398438,598.390625 C159.106759,598.390625 157.371751,597.720059 156.193359,596.378906 C155.014968,595.037754 154.425781,593.097669 154.425781,590.558594 L154.425781,576.867188 L159.171875,576.867188 L159.171875,590.5 C159.171875,593.182305 160.285145,594.523438 162.511719,594.523438 C164.816418,594.523438 166.372392,593.696623 167.179688,592.042969 L167.179688,576.867188 L171.925781,576.867188 L171.925781,598 L167.453125,598 L167.335938,595.929688 Z M181.222656,576.867188 L181.359375,579.074219 C182.843757,577.342439 184.874987,576.476562 187.453125,576.476562 C190.27866,576.476562 192.212234,577.557281 193.253906,579.71875 C194.790372,577.557281 196.951809,576.476562 199.738281,576.476562 C202.069022,576.476562 203.804031,577.121087 204.943359,578.410156 C206.082688,579.699225 206.665364,581.600248 206.691406,584.113281 L206.691406,598 L201.945312,598 L201.945312,584.25 C201.945312,582.908847 201.652347,581.925784 201.066406,581.300781 C200.480466,580.675778 199.510423,580.363281 198.15625,580.363281 C197.075515,580.363281 196.193363,580.652992 195.509766,581.232422 C194.826168,581.811852 194.347658,582.570308 194.074219,583.507812 L194.09375,598 L189.347656,598 L189.347656,584.09375 C189.282552,581.606758 188.013033,580.363281 185.539062,580.363281 C183.638011,580.363281 182.290369,581.138013 181.496094,582.6875 L181.496094,598 L176.75,598 L176.75,576.867188 L181.222656,576.867188 Z M230.109375,587.648438 C230.109375,590.929704 229.37696,593.540355 227.912109,595.480469 C226.447258,597.420583 224.432304,598.390625 221.867188,598.390625 C219.393217,598.390625 217.466153,597.498707 216.085938,595.714844 L215.851562,598 L211.554688,598 L211.554688,568 L216.300781,568 L216.300781,578.898438 C217.667976,577.283846 219.510405,576.476562 221.828125,576.476562 C224.406263,576.476562 226.430982,577.433584 227.902344,579.347656 C229.373705,581.261728 230.109375,583.937483 230.109375,587.375 L230.109375,587.648438 Z M225.363281,587.238281 C225.363281,584.946603 224.959639,583.22787 224.152344,582.082031 C223.345048,580.936192 222.173185,580.363281 220.636719,580.363281 C218.579417,580.363281 217.134119,581.26171 216.300781,583.058594 L216.300781,591.769531 C217.14714,593.605478 218.605458,594.523438 220.675781,594.523438 C222.160164,594.523438 223.305986,593.970058 224.113281,592.863281 C224.920577,591.756505 225.337239,590.083345 225.363281,587.84375 L225.363281,587.238281 Z M243.390625,598.390625 C240.382797,598.390625 237.944671,597.443369 236.076172,595.548828 C234.207673,593.654287 233.273438,591.131526 233.273438,587.980469 L233.273438,587.394531 C233.273438,585.285146 233.680334,583.400399 234.494141,581.740234 C235.307947,580.08007 236.450513,578.787765 237.921875,577.863281 C239.393237,576.938797 241.033845,576.476562 242.84375,576.476562 C245.721369,576.476562 247.944654,577.394522 249.513672,579.230469 C251.08269,581.066415 251.867188,583.664046 251.867188,587.023438 L251.867188,588.9375 L238.058594,588.9375 C238.201824,590.6823 238.7845,592.062495 239.806641,593.078125 C240.828781,594.093755 242.114576,594.601562 243.664062,594.601562 C245.838553,594.601562 247.609368,593.722665 248.976562,591.964844 L251.535156,594.40625 C250.688798,595.669277 249.559252,596.649085 248.146484,597.345703 C246.733717,598.042321 245.148446,598.390625 243.390625,598.390625 L243.390625,598.390625 Z M242.824219,580.285156 C241.522129,580.285156 240.470707,580.740881 239.669922,581.652344 C238.869137,582.563807 238.358074,583.833325 238.136719,585.460938 L247.179688,585.460938 L247.179688,585.109375 C247.07552,583.520825 246.652347,582.319666 245.910156,581.505859 C245.167965,580.692053 244.139329,580.285156 242.824219,580.285156 L242.824219,580.285156 Z M266.613281,581.203125 C265.988278,581.098958 265.343753,581.046875 264.679688,581.046875 C262.505197,581.046875 261.040368,581.8802 260.285156,583.546875 L260.285156,598 L255.539062,598 L255.539062,576.867188 L260.070312,576.867188 L260.1875,579.230469 C261.333339,577.394522 262.921865,576.476562 264.953125,576.476562 C265.630212,576.476562 266.190102,576.567707 266.632812,576.75 L266.613281,581.203125 Z M269.191406,593 C270.076827,593 270.760414,593.250649 271.242188,593.751953 C271.723961,594.253258 271.964844,594.881507 271.964844,595.636719 C271.964844,596.37891 271.723961,596.994138 271.242188,597.482422 C270.760414,597.970706 270.076827,598.214844 269.191406,598.214844 C268.345048,598.214844 267.674482,597.973961 267.179688,597.492188 C266.684893,597.010414 266.4375,596.391931 266.4375,595.636719 C266.4375,594.881507 266.678383,594.253258 267.160156,593.751953 C267.641929,593.250649 268.319006,593 269.191406,593 L269.191406,593 Z M282.453125,598 L277.707031,598 L277.707031,576.867188 L282.453125,576.867188 L282.453125,598 Z M277.414062,571.378906 C277.414062,570.649736 277.64518,570.044273 278.107422,569.5625 C278.569664,569.080727 279.230464,568.839844 280.089844,568.839844 C280.949223,568.839844 281.613279,569.080727 282.082031,569.5625 C282.550784,570.044273 282.785156,570.649736 282.785156,571.378906 C282.785156,572.095056 282.550784,572.690753 282.082031,573.166016 C281.613279,573.641278 280.949223,573.878906 280.089844,573.878906 C279.230464,573.878906 278.569664,573.641278 278.107422,573.166016 C277.64518,572.690753 277.414062,572.095056 277.414062,571.378906 L277.414062,571.378906 Z M286.730469,587.238281 C286.730469,585.167958 287.140621,583.302743 287.960938,581.642578 C288.781254,579.982414 289.933586,578.706385 291.417969,577.814453 C292.902351,576.922522 294.608063,576.476562 296.535156,576.476562 C299.386733,576.476562 301.701163,577.394522 303.478516,579.230469 C305.255868,581.066415 306.216145,583.501287 306.359375,586.535156 L306.378906,587.648438 C306.378906,589.731781 305.97852,591.593742 305.177734,593.234375 C304.376949,594.875008 303.231127,596.144527 301.740234,597.042969 C300.249342,597.941411 298.527354,598.390625 296.574219,598.390625 C293.592433,598.390625 291.206389,597.397796 289.416016,595.412109 C287.625642,593.426422 286.730469,590.779964 286.730469,587.472656 L286.730469,587.238281 Z M291.476562,587.648438 C291.476562,589.822928 291.925777,591.525384 292.824219,592.755859 C293.722661,593.986334 294.972648,594.601562 296.574219,594.601562 C298.175789,594.601562 299.422522,593.976569 300.314453,592.726562 C301.206385,591.476556 301.652344,589.647147 301.652344,587.238281 C301.652344,585.102854 301.193364,583.410162 300.275391,582.160156 C299.357417,580.91015 298.110685,580.285156 296.535156,580.285156 C294.985669,580.285156 293.755213,580.900384 292.84375,582.130859 C291.932287,583.361334 291.476562,585.200509 291.476562,587.648438 L291.476562,587.648438 Z M311.730469,600.441406 L308,600.441406 L319.191406,569.5625 L322.921875,569.5625 L311.730469,600.441406 Z M338.058594,592.257812 C338.058594,591.411454 337.71029,590.766929 337.013672,590.324219 C336.317054,589.881508 335.161466,589.490887 333.546875,589.152344 C331.932284,588.8138 330.584641,588.384117 329.503906,587.863281 C327.134103,586.717442 325.949219,585.057303 325.949219,582.882812 C325.949219,581.059887 326.71744,579.536464 328.253906,578.3125 C329.790372,577.088536 331.743478,576.476562 334.113281,576.476562 C336.639336,576.476562 338.680331,577.101556 340.236328,578.351562 C341.792325,579.601569 342.570312,581.222646 342.570312,583.214844 L337.824219,583.214844 C337.824219,582.303381 337.48568,581.544925 336.808594,580.939453 C336.131507,580.333981 335.233079,580.03125 334.113281,580.03125 C333.071609,580.03125 332.222008,580.272133 331.564453,580.753906 C330.906898,581.235679 330.578125,581.880204 330.578125,582.6875 C330.578125,583.41667 330.884112,583.983071 331.496094,584.386719 C332.108076,584.790367 333.345043,585.197264 335.207031,585.607422 C337.06902,586.01758 338.530594,586.505857 339.591797,587.072266 C340.653,587.638675 341.440753,588.319006 341.955078,589.113281 C342.469404,589.907556 342.726562,590.871088 342.726562,592.003906 C342.726562,593.904957 341.93881,595.444656 340.363281,596.623047 C338.787753,597.801438 336.723971,598.390625 334.171875,598.390625 C332.440096,598.390625 330.897142,598.078128 329.542969,597.453125 C328.188795,596.828122 327.134118,595.968755 326.378906,594.875 C325.623694,593.781245 325.246094,592.602871 325.246094,591.339844 L329.855469,591.339844 C329.920573,592.459641 330.343746,593.322263 331.125,593.927734 C331.906254,594.533206 332.9414,594.835938 334.230469,594.835938 C335.480475,594.835938 336.430986,594.59831 337.082031,594.123047 C337.733076,593.647784 338.058594,593.026046 338.058594,592.257812 L338.058594,592.257812 Z M357.921875,581.203125 C357.296872,581.098958 356.652347,581.046875 355.988281,581.046875 C353.813791,581.046875 352.348962,581.8802 351.59375,583.546875 L351.59375,598 L346.847656,598 L346.847656,576.867188 L351.378906,576.867188 L351.496094,579.230469 C352.641933,577.394522 354.230459,576.476562 356.261719,576.476562 C356.938805,576.476562 357.498696,576.567707 357.941406,576.75 L357.921875,581.203125 Z" id="cucumber.io/sr" fill="#1B1D1E" sketch:type="MSShapeGroup"></path>
        </g>
    </g>
</svg>