<?xml version="1.0" encoding="UTF-8" standalone="no"?>
<svg width="1039px" height="697px" viewBox="0 0 1039 697" version="1.1" xmlns="http://www.w3.org/2000/svg" xmlns:xlink="http://www.w3.org/1999/xlink" xmlns:sketch="http://www.bohemiancoding.com/sketch/ns">
    <!-- Generator: Sketch 3.4.2 (15855) - http://www.bohemiancoding.com/sketch -->
    <title>Seb-Front</title>
    <desc>Created with Sketch.</desc>
    <defs></defs>
    <g id="Seb" stroke="none" stroke-width="1" fill="none" fill-rule="evenodd" sketch:type="MSPage">
        <g id="Seb-Front" sketch:type="MSArtboardGroup">
            <g id="Personal-Info" sketch:type="MSLayerGroup" transform="translate(568.000000, 420.000000)" fill="#000000">
                <path d="M77.015625,117.394531 C77.015625,116.417964 76.6477901,115.659508 75.9121094,115.119141 C75.1764286,114.578773 73.8938894,114.113283 72.0644531,113.722656 C70.2350169,113.332029 68.7832085,112.863284 67.7089844,112.316406 C66.6347603,111.769529 65.8404974,111.118493 65.3261719,110.363281 C64.8118464,109.608069 64.5546875,108.709641 64.5546875,107.667969 C64.5546875,105.936189 65.2871021,104.47136 66.7519531,103.273438 C68.2168042,102.075515 70.0885303,101.476562 72.3671875,101.476562 C74.7630328,101.476562 76.7063728,102.095046 78.1972656,103.332031 C79.6881585,104.569017 80.4335938,106.151032 80.4335938,108.078125 L76.8007812,108.078125 C76.8007812,107.088537 76.3808636,106.235681 75.5410156,105.519531 C74.7011677,104.803382 73.6432355,104.445312 72.3671875,104.445312 C71.0520768,104.445312 70.0234412,104.731768 69.28125,105.304688 C68.5390588,105.877607 68.1679688,106.626297 68.1679688,107.550781 C68.1679688,108.423181 68.5130174,109.080727 69.203125,109.523438 C69.8932326,109.966148 71.1399649,110.389321 72.9433594,110.792969 C74.7467538,111.196617 76.2083277,111.678383 77.328125,112.238281 C78.4479223,112.79818 79.2779921,113.472001 79.8183594,114.259766 C80.3587267,115.04753 80.6289062,116.007807 80.6289062,117.140625 C80.6289062,119.028655 79.8737055,120.542312 78.3632812,121.681641 C76.852857,122.820969 74.8932412,123.390625 72.484375,123.390625 C70.7916582,123.390625 69.2942773,123.091149 67.9921875,122.492188 C66.6900977,121.893226 65.6712276,121.056646 64.9355469,119.982422 C64.1998661,118.908198 63.8320312,117.7461 63.8320312,116.496094 L67.4453125,116.496094 C67.510417,117.707037 67.9954382,118.667314 68.9003906,119.376953 C69.8053431,120.086592 70.9999926,120.441406 72.484375,120.441406 C73.8515693,120.441406 74.9485636,120.164716 75.7753906,119.611328 C76.6022177,119.05794 77.015625,118.319015 77.015625,117.394531 L77.015625,117.394531 Z M94.1054688,123.390625 C91.2408711,123.390625 88.9101652,122.449879 87.1132812,120.568359 C85.3163973,118.68684 84.4179688,116.170589 84.4179688,113.019531 L84.4179688,112.355469 C84.4179688,110.259104 84.8183554,108.387378 85.6191406,106.740234 C86.4199259,105.093091 87.5397063,103.804041 88.9785156,102.873047 C90.4173249,101.942053 91.9765541,101.476562 93.65625,101.476562 C96.4036596,101.476562 98.5390549,102.381501 100.0625,104.191406 C101.585945,106.001311 102.347656,108.592431 102.347656,111.964844 L102.347656,113.46875 L88.03125,113.46875 C88.0833336,115.552094 88.6920515,117.23502 89.8574219,118.517578 C91.0227923,119.800137 92.5038973,120.441406 94.3007812,120.441406 C95.5768293,120.441406 96.6575477,120.180992 97.5429688,119.660156 C98.4283898,119.13932 99.2031217,118.449223 99.8671875,117.589844 L102.074219,119.308594 C100.303377,122.029962 97.6471531,123.390625 94.1054688,123.390625 L94.1054688,123.390625 Z M93.65625,104.445312 C92.1979094,104.445312 90.9739633,104.975906 89.984375,106.037109 C88.9947867,107.098313 88.3828137,108.585928 88.1484375,110.5 L98.734375,110.5 L98.734375,110.226562 C98.6302078,108.390616 98.1354211,106.968104 97.25,105.958984 C96.3645789,104.949865 95.1666742,104.445312 93.65625,104.445312 L93.65625,104.445312 Z M124.417969,112.667969 C124.417969,115.897152 123.675789,118.491527 122.191406,120.451172 C120.707024,122.410817 118.714856,123.390625 116.214844,123.390625 C113.54556,123.390625 111.481778,122.446624 110.023438,120.558594 L109.847656,123 L106.527344,123 L106.527344,93 L110.140625,93 L110.140625,104.191406 C111.598966,102.381501 113.610664,101.476562 116.175781,101.476562 C118.740898,101.476562 120.755852,102.446605 122.220703,104.386719 C123.685554,106.326833 124.417969,108.983056 124.417969,112.355469 L124.417969,112.667969 Z M120.804687,112.257812 C120.804687,109.796863 120.329432,107.89584 119.378906,106.554688 C118.428381,105.213535 117.061207,104.542969 115.277344,104.542969 C112.894519,104.542969 111.182297,105.649729 110.140625,107.863281 L110.140625,117.003906 C111.247401,119.217459 112.972645,120.324219 115.316406,120.324219 C117.048186,120.324219 118.395829,119.653653 119.359375,118.3125 C120.322921,116.971347 120.804687,114.953138 120.804687,112.257812 L120.804687,112.257812 Z M160.179688,113.195312 C160.023437,116.34637 159.242195,118.833324 157.835938,120.65625 C156.42968,122.479176 154.548189,123.390625 152.191406,123.390625 C149.756498,123.390625 148.194014,122.296886 147.503906,120.109375 C146.800778,121.216151 145.996749,122.039711 145.091797,122.580078 C144.186844,123.120445 143.252609,123.390625 142.289062,123.390625 C140.440095,123.390625 139.040369,122.635424 138.089844,121.125 C137.139318,119.614576 136.787759,117.524753 137.035156,114.855469 C137.23047,112.707021 137.722001,110.789722 138.509766,109.103516 C139.29753,107.417309 140.313145,106.092453 141.556641,105.128906 C142.800136,104.16536 144.105462,103.683594 145.472656,103.683594 C146.527349,103.683594 147.47135,103.823566 148.304688,104.103516 C149.138025,104.383465 150.075516,104.93359 151.117188,105.753906 L150.101562,116.574219 C149.854165,119.582046 150.68749,121.085938 152.601562,121.085938 C154.072924,121.085938 155.264318,120.356778 156.175781,118.898438 C157.087244,117.440097 157.582031,115.539074 157.660156,113.195312 C157.907553,108.130183 156.966808,104.269545 154.837891,101.613281 C152.708974,98.957018 149.470074,97.6289062 145.121094,97.6289062 C142.503893,97.6289062 140.179698,98.2766862 138.148438,99.5722656 C136.117177,100.867845 134.515631,102.739571 133.34375,105.1875 C132.171869,107.635429 131.514324,110.460921 131.371094,113.664062 C131.214843,116.893245 131.605464,119.695952 132.542969,122.072266 C133.480473,124.44858 134.909496,126.264968 136.830078,127.521484 C138.750661,128.778001 141.071601,129.40625 143.792969,129.40625 C144.96485,129.40625 146.139968,129.263022 147.318359,128.976562 C148.496751,128.690103 149.476559,128.319013 150.257812,127.863281 L150.980469,130.109375 C150.173173,130.61719 149.10222,131.033853 147.767578,131.359375 C146.432936,131.684897 145.082038,131.847656 143.714844,131.847656 C140.459619,131.847656 137.660168,131.115242 135.316406,129.650391 C132.972645,128.18554 131.218105,126.076186 130.052734,123.322266 C128.887364,120.568346 128.382812,117.348977 128.539062,113.664062 C128.695313,110.083315 129.496087,106.863947 130.941406,104.005859 C132.386726,101.147772 134.346342,98.940763 136.820312,97.3847656 C139.294283,95.8287683 142.087224,95.0507812 145.199219,95.0507812 C148.441422,95.0507812 151.221343,95.7799406 153.539062,97.2382812 C155.856782,98.6966219 157.582026,100.799465 158.714844,103.546875 C159.847662,106.294285 160.335938,109.510398 160.179688,113.195312 L160.179688,113.195312 Z M140.140625,114.855469 C139.958332,116.704436 140.130857,118.123693 140.658203,119.113281 C141.18555,120.10287 142.02213,120.597656 143.167969,120.597656 C143.949223,120.597656 144.701168,120.265628 145.423828,119.601562 C146.146488,118.937497 146.742185,117.986985 147.210937,116.75 L147.230469,116.574219 L148.128906,106.75 C147.399736,106.372394 146.618494,106.183594 145.785156,106.183594 C144.261711,106.183594 143.001958,106.958326 142.005859,108.507812 C141.009761,110.057299 140.388022,112.173164 140.140625,114.855469 L140.140625,114.855469 Z M173.363281,120.441406 C174.65235,120.441406 175.778641,120.050785 176.742188,119.269531 C177.705734,118.488277 178.239583,117.511725 178.34375,116.339844 L181.761719,116.339844 C181.696614,117.550787 181.279952,118.70312 180.511719,119.796875 C179.743486,120.89063 178.718105,121.763018 177.435547,122.414062 C176.152988,123.065107 174.79558,123.390625 173.363281,123.390625 C170.485663,123.390625 168.197274,122.430348 166.498047,120.509766 C164.79882,118.589183 163.949219,115.962256 163.949219,112.628906 L163.949219,112.023438 C163.949219,109.966136 164.326819,108.136727 165.082031,106.535156 C165.837243,104.933586 166.921217,103.690109 168.333984,102.804688 C169.746752,101.919266 171.416657,101.476562 173.34375,101.476562 C175.713554,101.476562 177.682935,102.186191 179.251953,103.605469 C180.820971,105.024747 181.657552,106.867176 181.761719,109.132812 L178.34375,109.132812 C178.239583,107.765618 177.72201,106.642583 176.791016,105.763672 C175.860021,104.884761 174.710944,104.445312 173.34375,104.445312 C171.507803,104.445312 170.085292,105.106113 169.076172,106.427734 C168.067052,107.749356 167.5625,109.660144 167.5625,112.160156 L167.5625,112.84375 C167.5625,115.278658 168.063797,117.153639 169.066406,118.46875 C170.069015,119.783861 171.501293,120.441406 173.363281,120.441406 L173.363281,120.441406 Z M198.871094,120.910156 C197.464837,122.56381 195.401055,123.390625 192.679688,123.390625 C190.427072,123.390625 188.711594,122.736335 187.533203,121.427734 C186.354812,120.119134 185.759115,118.182304 185.746094,115.617188 L185.746094,101.867188 L189.359375,101.867188 L189.359375,115.519531 C189.359375,118.722672 190.661445,120.324219 193.265625,120.324219 C196.026055,120.324219 197.861975,119.295583 198.773438,117.238281 L198.773438,101.867188 L202.386719,101.867188 L202.386719,123 L198.949219,123 L198.871094,120.910156 Z M216.351563,120.441406 C217.640631,120.441406 218.766922,120.050785 219.730469,119.269531 C220.694015,118.488277 221.227864,117.511725 221.332031,116.339844 L224.75,116.339844 C224.684896,117.550787 224.268233,118.70312 223.5,119.796875 C222.731767,120.89063 221.706387,121.763018 220.423828,122.414062 C219.14127,123.065107 217.783861,123.390625 216.351563,123.390625 C213.473944,123.390625 211.185555,122.430348 209.486328,120.509766 C207.787101,118.589183 206.9375,115.962256 206.9375,112.628906 L206.9375,112.023438 C206.9375,109.966136 207.3151,108.136727 208.070313,106.535156 C208.825525,104.933586 209.909498,103.690109 211.322266,102.804688 C212.735033,101.919266 214.404938,101.476562 216.332031,101.476562 C218.701835,101.476562 220.671216,102.186191 222.240234,103.605469 C223.809253,105.024747 224.645833,106.867176 224.75,109.132812 L221.332031,109.132812 C221.227864,107.765618 220.710291,106.642583 219.779297,105.763672 C218.848303,104.884761 217.699226,104.445312 216.332031,104.445312 C214.496085,104.445312 213.073573,105.106113 212.064453,106.427734 C211.055333,107.749356 210.550781,109.660144 210.550781,112.160156 L210.550781,112.84375 C210.550781,115.278658 211.052078,117.153639 212.054688,118.46875 C213.057297,119.783861 214.489574,120.441406 216.351563,120.441406 L216.351563,120.441406 Z M241.859375,120.910156 C240.453118,122.56381 238.389337,123.390625 235.667969,123.390625 C233.415353,123.390625 231.699876,122.736335 230.521484,121.427734 C229.343093,120.119134 228.747396,118.182304 228.734375,115.617188 L228.734375,101.867188 L232.347656,101.867188 L232.347656,115.519531 C232.347656,118.722672 233.649727,120.324219 236.253906,120.324219 C239.014337,120.324219 240.850256,119.295583 241.761719,117.238281 L241.761719,101.867188 L245.375,101.867188 L245.375,123 L241.9375,123 L241.859375,120.910156 Z M254.261719,101.867188 L254.359375,104.210938 C255.908862,102.388012 257.998685,101.476562 260.628906,101.476562 C263.58465,101.476562 265.596349,102.609364 266.664062,104.875 C267.367191,103.85937 268.281895,103.039066 269.408203,102.414062 C270.534511,101.789059 271.865878,101.476562 273.402344,101.476562 C278.037784,101.476562 280.394531,103.930965 280.472656,108.839844 L280.472656,123 L276.859375,123 L276.859375,109.054688 C276.859375,107.544263 276.514326,106.414717 275.824219,105.666016 C275.134111,104.917314 273.975269,104.542969 272.347656,104.542969 C271.006504,104.542969 269.893234,104.943355 269.007812,105.744141 C268.122391,106.544926 267.608074,107.622389 267.464844,108.976562 L267.464844,123 L263.832031,123 L263.832031,109.152344 C263.832031,106.079412 262.32814,104.542969 259.320312,104.542969 C256.950509,104.542969 255.329431,105.552073 254.457031,107.570312 L254.457031,123 L250.84375,123 L250.84375,101.867188 L254.261719,101.867188 Z M303.8125,112.667969 C303.8125,115.897152 303.07032,118.491527 301.585938,120.451172 C300.101555,122.410817 298.109388,123.390625 295.609375,123.390625 C292.940091,123.390625 290.876309,122.446624 289.417969,120.558594 L289.242188,123 L285.921875,123 L285.921875,93 L289.535156,93 L289.535156,104.191406 C290.993497,102.381501 293.005196,101.476562 295.570312,101.476562 C298.135429,101.476562 300.150383,102.446605 301.615234,104.386719 C303.080085,106.326833 303.8125,108.983056 303.8125,112.355469 L303.8125,112.667969 Z M300.199219,112.257812 C300.199219,109.796863 299.723963,107.89584 298.773438,106.554688 C297.822912,105.213535 296.455738,104.542969 294.671875,104.542969 C292.289051,104.542969 290.576828,105.649729 289.535156,107.863281 L289.535156,117.003906 C290.641933,119.217459 292.367176,120.324219 294.710938,120.324219 C296.442717,120.324219 297.79036,119.653653 298.753906,118.3125 C299.717453,116.971347 300.199219,114.953138 300.199219,112.257812 L300.199219,112.257812 Z M317.132812,123.390625 C314.268215,123.390625 311.937509,122.449879 310.140625,120.568359 C308.343741,118.68684 307.445312,116.170589 307.445312,113.019531 L307.445312,112.355469 C307.445312,110.259104 307.845699,108.387378 308.646484,106.740234 C309.44727,105.093091 310.56705,103.804041 312.005859,102.873047 C313.444669,101.942053 315.003898,101.476562 316.683594,101.476562 C319.431003,101.476562 321.566399,102.381501 323.089844,104.191406 C324.613289,106.001311 325.375,108.592431 325.375,111.964844 L325.375,113.46875 L311.058594,113.46875 C311.110677,115.552094 311.719395,117.23502 312.884766,118.517578 C314.050136,119.800137 315.531241,120.441406 317.328125,120.441406 C318.604173,120.441406 319.684891,120.180992 320.570312,119.660156 C321.455734,119.13932 322.230465,118.449223 322.894531,117.589844 L325.101562,119.308594 C323.33072,122.029962 320.674497,123.390625 317.132812,123.390625 L317.132812,123.390625 Z M316.683594,104.445312 C315.225253,104.445312 314.001307,104.975906 313.011719,106.037109 C312.02213,107.098313 311.410157,108.585928 311.175781,110.5 L321.761719,110.5 L321.761719,110.226562 C321.657552,108.390616 321.162765,106.968104 320.277344,105.958984 C319.391923,104.949865 318.194018,104.445312 316.683594,104.445312 L316.683594,104.445312 Z M339.769531,105.109375 C339.222654,105.018229 338.630212,104.972656 337.992188,104.972656 C335.622384,104.972656 334.014327,105.981761 333.167969,108 L333.167969,123 L329.554688,123 L329.554688,101.867188 L333.070312,101.867188 L333.128906,104.308594 C334.313808,102.420563 335.993479,101.476562 338.167969,101.476562 C338.871097,101.476562 339.404946,101.567707 339.769531,101.75 L339.769531,105.109375 Z M340.765625,121.105469 C340.765625,120.480466 340.95117,119.959637 341.322266,119.542969 C341.693361,119.1263 342.249996,118.917969 342.992188,118.917969 C343.734379,118.917969 344.297524,119.1263 344.681641,119.542969 C345.065757,119.959637 345.257812,120.480466 345.257812,121.105469 C345.257812,121.70443 345.065757,122.205727 344.681641,122.609375 C344.297524,123.013023 343.734379,123.214844 342.992188,123.214844 C342.249996,123.214844 341.693361,123.013023 341.322266,122.609375 C340.95117,122.205727 340.765625,121.70443 340.765625,121.105469 L340.765625,121.105469 Z M355.140625,123 L351.527344,123 L351.527344,101.867188 L355.140625,101.867188 L355.140625,123 Z M351.234375,96.2617188 C351.234375,95.6757783 351.41341,95.1809916 351.771484,94.7773438 C352.129559,94.3736959 352.660153,94.171875 353.363281,94.171875 C354.06641,94.171875 354.600259,94.3736959 354.964844,94.7773438 C355.329429,95.1809916 355.511719,95.6757783 355.511719,96.2617188 C355.511719,96.8476592 355.329429,97.3359355 354.964844,97.7265625 C354.600259,98.1171895 354.06641,98.3125 353.363281,98.3125 C352.660153,98.3125 352.129559,98.1171895 351.771484,97.7265625 C351.41341,97.3359355 351.234375,96.8476592 351.234375,96.2617188 L351.234375,96.2617188 Z M359.964844,112.238281 C359.964844,110.167958 360.371741,108.305998 361.185547,106.652344 C361.999353,104.99869 363.132154,103.722661 364.583984,102.824219 C366.035815,101.925777 367.692699,101.476562 369.554688,101.476562 C372.432306,101.476562 374.759757,102.472646 376.537109,104.464844 C378.314462,106.457041 379.203125,109.106754 379.203125,112.414062 L379.203125,112.667969 C379.203125,114.725271 378.809249,116.570955 378.021484,118.205078 C377.23372,119.839201 376.107429,121.111975 374.642578,122.023438 C373.177727,122.9349 371.494801,123.390625 369.59375,123.390625 C366.729152,123.390625 364.408212,122.394541 362.630859,120.402344 C360.853507,118.410146 359.964844,115.773454 359.964844,112.492188 L359.964844,112.238281 Z M363.597656,112.667969 C363.597656,115.01173 364.141271,116.893222 365.228516,118.3125 C366.315761,119.731778 367.770824,120.441406 369.59375,120.441406 C371.429697,120.441406 372.888015,119.722012 373.96875,118.283203 C375.049485,116.844394 375.589844,114.82944 375.589844,112.238281 C375.589844,109.920561 375.039719,108.042325 373.939453,106.603516 C372.839187,105.164706 371.377613,104.445312 369.554688,104.445312 C367.770824,104.445312 366.332037,105.154941 365.238281,106.574219 C364.144526,107.993497 363.597656,110.024726 363.597656,112.667969 L363.597656,112.667969 Z M12.2304688,161.746094 L20.1601562,161.746094 L20.1601562,165.164062 L12.2304688,165.164062 L12.2304688,174.148438 L8.59765625,174.148438 L8.59765625,165.164062 L0.66796875,165.164062 L0.66796875,161.746094 L8.59765625,161.746094 L8.59765625,153.445312 L12.2304688,153.445312 L12.2304688,161.746094 Z M39.4375,167.449219 L43.3828125,167.449219 L43.3828125,170.398438 L39.4375,170.398438 L39.4375,177 L35.8046875,177 L35.8046875,170.398438 L22.8554688,170.398438 L22.8554688,168.269531 L35.5898438,148.5625 L39.4375,148.5625 L39.4375,167.449219 Z M26.9570312,167.449219 L35.8046875,167.449219 L35.8046875,153.503906 L35.375,154.285156 L26.9570312,167.449219 Z M61.8984375,167.449219 L65.84375,167.449219 L65.84375,170.398438 L61.8984375,170.398438 L61.8984375,177 L58.265625,177 L58.265625,170.398438 L45.3164062,170.398438 L45.3164062,168.269531 L58.0507812,148.5625 L61.8984375,148.5625 L61.8984375,167.449219 Z M49.4179688,167.449219 L58.265625,167.449219 L58.265625,153.503906 L57.8359375,154.285156 L49.4179688,167.449219 Z M79.2421875,165.457031 C79.2421875,162.514308 79.6360638,159.688816 80.4238281,156.980469 C81.2115925,154.272122 82.3867109,151.811209 83.9492188,149.597656 C85.5117266,147.384104 87.1328041,145.821619 88.8125,144.910156 L89.5546875,147.292969 C87.6536363,148.751309 86.0944071,150.97785 84.8769531,153.972656 C83.6594991,156.967463 82.9921881,160.320294 82.875,164.03125 L82.8554688,165.691406 C82.8554688,170.717473 83.7734283,175.079409 85.609375,178.777344 C86.7161514,180.990896 88.0312424,182.72265 89.5546875,183.972656 L88.8125,186.179688 C87.0807205,185.216141 85.4270912,183.601574 83.8515625,181.335938 C80.7786305,176.908832 79.2421875,171.615916 79.2421875,165.457031 L79.2421875,165.457031 Z M110.511719,164.871094 C110.511719,169.102886 109.78907,172.247386 108.34375,174.304688 C106.89843,176.361989 104.639338,177.390625 101.566406,177.390625 C98.5325369,177.390625 96.2864656,176.384776 94.828125,174.373047 C93.3697844,172.361318 92.6145836,169.356791 92.5625,165.359375 L92.5625,160.535156 C92.5625,156.355448 93.285149,153.25001 94.7304688,151.21875 C96.1757885,149.18749 98.4413908,148.171875 101.527344,148.171875 C104.587255,148.171875 106.839837,149.151683 108.285156,151.111328 C109.730476,153.070973 110.472656,156.095032 110.511719,160.183594 L110.511719,164.871094 Z M106.898438,159.929688 C106.898438,156.869776 106.468754,154.639981 105.609375,153.240234 C104.749996,151.840488 103.389332,151.140625 101.527344,151.140625 C99.6783762,151.140625 98.3307334,151.837233 97.484375,153.230469 C96.6380166,154.623705 96.201823,156.765611 96.1757812,159.65625 L96.1757812,165.4375 C96.1757812,168.510432 96.6217403,170.77929 97.5136719,172.244141 C98.4056034,173.708992 99.7565014,174.441406 101.566406,174.441406 C103.350269,174.441406 104.675126,173.751309 105.541016,172.371094 C106.406905,170.990879 106.859375,168.816421 106.898438,165.847656 L106.898438,159.929688 Z M123.851562,165.652344 C123.851562,168.556004 123.470707,171.339179 122.708984,174.001953 C121.947262,176.664727 120.781909,179.122385 119.212891,181.375 C117.643872,183.627615 116.000009,185.229162 114.28125,186.179688 L113.519531,183.972656 C115.52475,182.43619 117.136062,180.050146 118.353516,176.814453 C119.57097,173.57876 120.192708,169.988301 120.21875,166.042969 L120.21875,165.417969 C120.21875,162.68358 119.932295,160.141288 119.359375,157.791016 C118.786455,155.440743 117.988937,153.334645 116.966797,151.472656 C115.944656,149.610668 114.795579,148.158859 113.519531,147.117188 L114.28125,144.910156 C116.000009,145.860682 117.637362,147.449208 119.193359,149.675781 C120.749357,151.902355 121.91471,154.356757 122.689453,157.039062 C123.464197,159.721368 123.851562,162.592433 123.851562,165.652344 L123.851562,165.652344 Z M157.308594,150.59375 L145.53125,177 L141.742188,177 L153.480469,151.53125 L138.089844,151.53125 L138.089844,148.5625 L157.308594,148.5625 L157.308594,150.59375 Z M179.769531,150.59375 L167.992188,177 L164.203125,177 L175.941406,151.53125 L160.550781,151.53125 L160.550781,148.5625 L179.769531,148.5625 L179.769531,150.59375 Z M199.125,167.449219 L203.070312,167.449219 L203.070312,170.398438 L199.125,170.398438 L199.125,177 L195.492188,177 L195.492188,170.398438 L182.542969,170.398438 L182.542969,168.269531 L195.277344,148.5625 L199.125,148.5625 L199.125,167.449219 Z M186.644531,167.449219 L195.492188,167.449219 L195.492188,153.503906 L195.0625,154.285156 L186.644531,167.449219 Z M224.691406,150.59375 L212.914062,177 L209.125,177 L220.863281,151.53125 L205.472656,151.53125 L205.472656,148.5625 L224.691406,148.5625 L224.691406,150.59375 Z M257.054688,150.59375 L245.277344,177 L241.488281,177 L253.226562,151.53125 L237.835937,151.53125 L237.835937,148.5625 L257.054688,148.5625 L257.054688,150.59375 Z M278.988281,164.871094 C278.988281,169.102886 278.265632,172.247386 276.820312,174.304688 C275.374993,176.361989 273.115901,177.390625 270.042969,177.390625 C267.009099,177.390625 264.763028,176.384776 263.304688,174.373047 C261.846347,172.361318 261.091146,169.356791 261.039062,165.359375 L261.039062,160.535156 C261.039062,156.355448 261.761712,153.25001 263.207031,151.21875 C264.652351,149.18749 266.917953,148.171875 270.003906,148.171875 C273.063817,148.171875 275.316399,149.151683 276.761719,151.111328 C278.207038,153.070973 278.949219,156.095032 278.988281,160.183594 L278.988281,164.871094 Z M275.375,159.929688 C275.375,156.869776 274.945317,154.639981 274.085938,153.240234 C273.226558,151.840488 271.865895,151.140625 270.003906,151.140625 C268.154939,151.140625 266.807296,151.837233 265.960938,153.230469 C265.114579,154.623705 264.678386,156.765611 264.652344,159.65625 L264.652344,165.4375 C264.652344,168.510432 265.098303,170.77929 265.990234,172.244141 C266.882166,173.708992 268.233064,174.441406 270.042969,174.441406 C271.826832,174.441406 273.151688,173.751309 274.017578,172.371094 C274.883468,170.990879 275.335937,168.816421 275.375,165.847656 L275.375,159.929688 Z M297.796875,148.542969 L297.796875,151.609375 L297.132812,151.609375 C294.320298,151.661459 292.080737,152.494784 290.414062,154.109375 C288.747388,155.723966 287.783855,157.996079 287.523438,160.925781 C289.020841,159.207023 291.065091,158.347656 293.65625,158.347656 C296.130221,158.347656 298.106112,159.220043 299.583984,160.964844 C301.061856,162.709644 301.800781,164.962226 301.800781,167.722656 C301.800781,170.652358 301.003263,172.996085 299.408203,174.753906 C297.813143,176.511728 295.674493,177.390625 292.992188,177.390625 C290.27082,177.390625 288.063811,176.345714 286.371094,174.255859 C284.678377,172.166005 283.832031,169.473975 283.832031,166.179688 L283.832031,164.792969 C283.832031,159.558568 284.948557,155.557957 287.181641,152.791016 C289.414725,150.024075 292.738259,148.608073 297.152344,148.542969 L297.796875,148.542969 Z M293.050781,161.355469 C291.813796,161.355469 290.674484,161.726559 289.632812,162.46875 C288.591141,163.210941 287.868492,164.141921 287.464844,165.261719 L287.464844,166.589844 C287.464844,168.933605 287.992182,170.821607 289.046875,172.253906 C290.101568,173.686205 291.416659,174.402344 292.992188,174.402344 C294.6198,174.402344 295.899084,173.803391 296.830078,172.605469 C297.761072,171.407546 298.226562,169.838551 298.226562,167.898438 C298.226562,165.945303 297.754562,164.366542 296.810547,163.162109 C295.866532,161.957676 294.613289,161.355469 293.050781,161.355469 L293.050781,161.355469 Z M333.8125,164.871094 C333.8125,169.102886 333.089851,172.247386 331.644531,174.304688 C330.199212,176.361989 327.94012,177.390625 324.867188,177.390625 C321.833318,177.390625 319.587247,176.384776 318.128906,174.373047 C316.670566,172.361318 315.915365,169.356791 315.863281,165.359375 L315.863281,160.535156 C315.863281,156.355448 316.58593,153.25001 318.03125,151.21875 C319.47657,149.18749 321.742172,148.171875 324.828125,148.171875 C327.888036,148.171875 330.140618,149.151683 331.585938,151.111328 C333.031257,153.070973 333.773437,156.095032 333.8125,160.183594 L333.8125,164.871094 Z M330.199219,159.929688 C330.199219,156.869776 329.769536,154.639981 328.910156,153.240234 C328.050777,151.840488 326.690113,151.140625 324.828125,151.140625 C322.979157,151.140625 321.631515,151.837233 320.785156,153.230469 C319.938798,154.623705 319.502604,156.765611 319.476562,159.65625 L319.476562,165.4375 C319.476562,168.510432 319.922522,170.77929 320.814453,172.244141 C321.706385,173.708992 323.057283,174.441406 324.867188,174.441406 C326.651051,174.441406 327.975907,173.751309 328.841797,172.371094 C329.707687,170.990879 330.160156,168.816421 330.199219,165.847656 L330.199219,159.929688 Z M352.289062,164.5 C351.53385,165.398442 350.632167,166.121091 349.583984,166.667969 C348.535802,167.214846 347.386725,167.488281 346.136719,167.488281 C344.496086,167.488281 343.067063,167.084639 341.849609,166.277344 C340.632155,165.470048 339.69141,164.333992 339.027344,162.869141 C338.363278,161.40429 338.03125,159.786467 338.03125,158.015625 C338.03125,156.114574 338.392575,154.402351 339.115234,152.878906 C339.837894,151.355461 340.863275,150.190108 342.191406,149.382812 C343.519538,148.575517 345.069002,148.171875 346.839844,148.171875 C349.652358,148.171875 351.869133,149.223297 353.490234,151.326172 C355.111336,153.429047 355.921875,156.296857 355.921875,159.929688 L355.921875,160.984375 C355.921875,166.518257 354.828136,170.55793 352.640625,173.103516 C350.453114,175.649101 347.152366,176.954427 342.738281,177.019531 L342.035156,177.019531 L342.035156,173.972656 L342.796875,173.972656 C345.778661,173.920573 348.070304,173.142586 349.671875,171.638672 C351.273446,170.134758 352.145833,167.755225 352.289062,164.5 L352.289062,164.5 Z M346.722656,164.5 C347.9336,164.5 349.050125,164.12891 350.072266,163.386719 C351.094406,162.644528 351.839841,161.726568 352.308594,160.632812 L352.308594,159.1875 C352.308594,156.817696 351.794276,154.890632 350.765625,153.40625 C349.736974,151.921868 348.434904,151.179688 346.859375,151.179688 C345.270825,151.179688 343.994796,151.788405 343.03125,153.005859 C342.067704,154.223313 341.585938,155.828115 341.585938,157.820312 C341.585938,159.760426 342.051428,161.358718 342.982422,162.615234 C343.913416,163.871751 345.160148,164.5 346.722656,164.5 L346.722656,164.5 Z M366.15625,161.023438 L368.871094,161.023438 C370.576831,160.997396 371.917964,160.548181 372.894531,159.675781 C373.871099,158.803381 374.359375,157.625007 374.359375,156.140625 C374.359375,152.807275 372.699235,151.140625 369.378906,151.140625 C367.816398,151.140625 366.569666,151.586584 365.638672,152.478516 C364.707678,153.370447 364.242188,154.552076 364.242188,156.023438 L360.628906,156.023438 C360.628906,153.770822 361.452466,151.899096 363.099609,150.408203 C364.746753,148.91731 366.839831,148.171875 369.378906,148.171875 C372.061211,148.171875 374.164055,148.881503 375.6875,150.300781 C377.210945,151.720059 377.972656,153.692696 377.972656,156.21875 C377.972656,157.455735 377.57227,158.65364 376.771484,159.8125 C375.970699,160.97136 374.880215,161.837237 373.5,162.410156 C375.062508,162.90495 376.270178,163.725255 377.123047,164.871094 C377.975916,166.016933 378.402344,167.416658 378.402344,169.070312 C378.402344,171.622409 377.569019,173.647128 375.902344,175.144531 C374.235669,176.641935 372.067722,177.390625 369.398438,177.390625 C366.729153,177.390625 364.557951,176.667976 362.884766,175.222656 C361.21158,173.777337 360.375,171.869804 360.375,169.5 L364.007812,169.5 C364.007812,170.997403 364.496089,172.195308 365.472656,173.09375 C366.449224,173.992192 367.757804,174.441406 369.398438,174.441406 C371.143238,174.441406 372.47786,173.985682 373.402344,173.074219 C374.326828,172.162756 374.789062,170.854175 374.789062,169.148438 C374.789062,167.494783 374.281255,166.225265 373.265625,165.339844 C372.249995,164.454423 370.785166,163.998698 368.871094,163.972656 L366.15625,163.972656 L366.15625,161.023438 Z" id="-seb@cucumber.io" sketch:type="MSShapeGroup"></path>
                <path d="M155.736328,34.0136719 C155.736328,32.1386625 155.077155,30.6933645 153.758789,29.6777344 C152.440423,28.6621043 150.062517,27.6367239 146.625,26.6015625 C143.187483,25.5664011 140.453135,24.4140688 138.421875,23.1445312 C134.535137,20.7031128 132.591797,17.5195509 132.591797,13.59375 C132.591797,10.1562328 133.99315,7.32422988 136.795898,5.09765625 C139.598647,2.87108262 143.236306,1.7578125 147.708984,1.7578125 C150.677749,1.7578125 153.324207,2.30468203 155.648438,3.3984375 C157.972668,4.49219297 159.798821,6.04979458 161.126953,8.07128906 C162.455085,10.0927835 163.119141,12.3339721 163.119141,14.7949219 L155.736328,14.7949219 C155.736328,12.5683482 155.038093,10.8252016 153.641602,9.56542969 C152.24511,8.30565776 150.24806,7.67578125 147.650391,7.67578125 C145.228504,7.67578125 143.34864,8.1933542 142.010742,9.22851562 C140.672845,10.2636771 140.003906,11.7089751 140.003906,13.5644531 C140.003906,15.1269609 140.726555,16.4306588 142.171875,17.4755859 C143.617195,18.520513 145.999983,19.5361279 149.320312,20.5224609 C152.640642,21.508794 155.306631,22.6318296 157.318359,23.8916016 C159.330088,25.1513735 160.804683,26.5966715 161.742188,28.2275391 C162.679692,29.8584066 163.148438,31.7675672 163.148438,33.9550781 C163.148438,37.5097834 161.786146,40.3369036 159.061523,42.4365234 C156.3369,44.5361433 152.640648,45.5859375 147.972656,45.5859375 C144.886703,45.5859375 142.049818,45.0146542 139.461914,43.8720703 C136.87401,42.7294865 134.862312,41.1523538 133.426758,39.140625 C131.991204,37.1288962 131.273438,34.7851696 131.273438,32.109375 L138.685547,32.109375 C138.685547,34.5312621 139.48632,36.4062434 141.087891,37.734375 C142.689461,39.0625066 144.98436,39.7265625 147.972656,39.7265625 C150.550794,39.7265625 152.489251,39.2041068 153.788086,38.1591797 C155.086921,37.1142526 155.736328,35.7324305 155.736328,34.0136719 L155.736328,34.0136719 Z M182.923828,45.5859375 C178.412087,45.5859375 174.754897,44.1650533 171.952148,41.3232422 C169.1494,38.4814311 167.748047,34.6972893 167.748047,29.9707031 L167.748047,29.0917969 C167.748047,25.9277186 168.358392,23.1005984 169.579102,20.6103516 C170.799811,18.1201047 172.513661,16.1816476 174.720703,14.7949219 C176.927745,13.4081962 179.388658,12.7148438 182.103516,12.7148438 C186.419943,12.7148438 189.754871,14.0917831 192.108398,16.8457031 C194.461926,19.5996231 195.638672,23.4960686 195.638672,28.5351562 L195.638672,31.40625 L174.925781,31.40625 C175.140626,34.0234506 176.014641,36.0937424 177.547852,37.6171875 C179.081062,39.1406326 181.009754,39.9023438 183.333984,39.9023438 C186.595719,39.9023438 189.251943,38.5839976 191.302734,35.9472656 L195.140625,39.609375 C193.871087,41.5039157 192.176768,42.9736276 190.057617,44.0185547 C187.938466,45.0634818 185.56056,45.5859375 182.923828,45.5859375 L182.923828,45.5859375 Z M182.074219,18.4277344 C180.121084,18.4277344 178.543951,19.1113213 177.342773,20.4785156 C176.141596,21.84571 175.375002,23.7499878 175.042969,26.1914062 L188.607422,26.1914062 L188.607422,25.6640625 C188.451171,23.2812381 187.816412,21.4794983 186.703125,20.2587891 C185.589838,19.0380798 184.046885,18.4277344 182.074219,18.4277344 L182.074219,18.4277344 Z M228.978516,29.4726562 C228.978516,34.3945559 227.879894,38.3105323 225.682617,41.2207031 C223.485341,44.1308739 220.46291,45.5859375 216.615234,45.5859375 C212.904278,45.5859375 210.013682,44.2480603 207.943359,41.5722656 L207.591797,45 L201.146484,45 L201.146484,0 L208.265625,0 L208.265625,16.3476562 C210.316417,13.9257691 213.080061,12.7148437 216.556641,12.7148437 C220.423847,12.7148437 223.460926,14.1503763 225.667969,17.0214844 C227.875011,19.8925925 228.978516,23.9062242 228.978516,29.0625 L228.978516,29.4726562 Z M221.859375,28.8574219 C221.859375,25.4199047 221.253912,22.8418055 220.042969,21.1230469 C218.832025,19.4042883 217.07423,18.5449219 214.769531,18.5449219 C211.683578,18.5449219 209.515631,19.8925646 208.265625,22.5878906 L208.265625,35.6542969 C209.535163,38.4082169 211.722641,39.7851562 214.828125,39.7851562 C217.054699,39.7851562 218.773431,38.9550864 219.984375,37.2949219 C221.195319,35.6347573 221.820312,33.1250168 221.859375,29.765625 L221.859375,28.8574219 Z M266.244141,28.5644531 L257.982422,28.5644531 L257.982422,45 L250.570312,45 L250.570312,2.34375 L265.570312,2.34375 C270.492212,2.34375 274.291002,3.44725459 276.966797,5.65429688 C279.642592,7.86133916 280.980469,11.0546666 280.980469,15.234375 C280.980469,18.0859518 280.291999,20.4736232 278.915039,22.3974609 C277.538079,24.3212987 275.619153,25.8007761 273.158203,26.8359375 L282.738281,44.6191406 L282.738281,45 L274.798828,45 L266.244141,28.5644531 Z M257.982422,22.6171875 L265.599609,22.6171875 C268.099622,22.6171875 270.052727,21.987311 271.458984,20.7275391 C272.865241,19.4677671 273.568359,17.7441516 273.568359,15.5566406 C273.568359,13.2714729 272.918952,11.5039125 271.620117,10.2539062 C270.321283,9.0039 268.382825,8.3593752 265.804688,8.3203125 L257.982422,8.3203125 L257.982422,22.6171875 Z M285.990234,28.8574219 C285.990234,25.7519376 286.605463,22.954114 287.835938,20.4638672 C289.066412,17.9736204 290.794911,16.059577 293.021484,14.7216797 C295.248058,13.3837824 297.806626,12.7148438 300.697266,12.7148438 C304.974631,12.7148438 308.446276,14.0917831 311.112305,16.8457031 C313.778334,19.5996231 315.218749,23.2519304 315.433594,27.8027344 L315.462891,29.4726562 C315.462891,32.5976719 314.862311,35.3906127 313.661133,37.8515625 C312.459955,40.3125123 310.741222,42.2167901 308.504883,43.5644531 C306.268544,44.9121161 303.685562,45.5859375 300.755859,45.5859375 C296.283181,45.5859375 292.704115,44.0966946 290.018555,41.1181641 C287.332994,38.1396335 285.990234,34.1699467 285.990234,29.2089844 L285.990234,28.8574219 Z M293.109375,29.4726562 C293.109375,32.7343913 293.783196,35.2880767 295.130859,37.1337891 C296.478522,38.9795014 298.353504,39.9023438 300.755859,39.9023438 C303.158215,39.9023438 305.028314,38.9648531 306.366211,37.0898438 C307.704108,35.2148344 308.373047,32.4707212 308.373047,28.8574219 C308.373047,25.6542809 307.684577,23.1152437 306.307617,21.2402344 C304.930657,19.365225 303.060559,18.4277344 300.697266,18.4277344 C298.373035,18.4277344 296.527351,19.3505767 295.160156,21.1962891 C293.792962,23.0420014 293.109375,25.8007629 293.109375,29.4726562 L293.109375,29.4726562 Z M339.251953,36.3867188 C339.251953,35.1171812 338.729497,34.1503939 337.68457,33.4863281 C336.639643,32.8222623 334.906262,32.2363307 332.484375,31.7285156 C330.062488,31.2207006 328.041024,30.5761758 326.419922,29.7949219 C322.865217,28.0761633 321.087891,25.5859538 321.087891,22.3242188 C321.087891,19.5898301 322.240223,17.3046967 324.544922,15.46875 C326.849621,13.6328033 329.779279,12.7148438 333.333984,12.7148438 C337.123066,12.7148438 340.184559,13.6523344 342.518555,15.5273438 C344.852551,17.4023531 346.019531,19.8339694 346.019531,22.8222656 L338.900391,22.8222656 C338.900391,21.4550713 338.392583,20.3173874 337.376953,19.4091797 C336.361323,18.500972 335.01368,18.046875 333.333984,18.046875 C331.771477,18.046875 330.497075,18.4081995 329.510742,19.1308594 C328.524409,19.8535192 328.03125,20.8203064 328.03125,22.03125 C328.03125,23.1250055 328.49023,23.9746063 329.408203,24.5800781 C330.326176,25.1855499 332.181627,25.7958954 334.974609,26.4111328 C337.767592,27.0263703 339.959953,27.7587848 341.551758,28.6083984 C343.143563,29.4580121 344.325191,30.4785097 345.09668,31.6699219 C345.868168,32.8613341 346.253906,34.3066321 346.253906,36.0058594 C346.253906,38.8574361 345.072277,41.1669833 342.708984,42.9345703 C340.345691,44.7021573 337.250019,45.5859375 333.421875,45.5859375 C330.824206,45.5859375 328.509776,45.1171922 326.478516,44.1796875 C324.447255,43.2421828 322.86524,41.9531332 321.732422,40.3125 C320.599604,38.6718668 320.033203,36.9043063 320.033203,35.0097656 L326.947266,35.0097656 C327.044922,36.6894615 327.679682,37.9833939 328.851562,38.8916016 C330.023443,39.7998092 331.576162,40.2539062 333.509766,40.2539062 C335.384775,40.2539062 336.810542,39.8974645 337.787109,39.1845703 C338.763677,38.4716761 339.251953,37.5390683 339.251953,36.3867188 L339.251953,36.3867188 Z M366.410156,45.5859375 C361.898415,45.5859375 358.241225,44.1650533 355.438477,41.3232422 C352.635728,38.4814311 351.234375,34.6972893 351.234375,29.9707031 L351.234375,29.0917969 C351.234375,25.9277186 351.84472,23.1005984 353.06543,20.6103516 C354.286139,18.1201047 355.999989,16.1816476 358.207031,14.7949219 C360.414074,13.4081962 362.874986,12.7148438 365.589844,12.7148438 C369.906272,12.7148438 373.241199,14.0917831 375.594727,16.8457031 C377.948254,19.5996231 379.125,23.4960686 379.125,28.5351562 L379.125,31.40625 L358.412109,31.40625 C358.626954,34.0234506 359.500969,36.0937424 361.03418,37.6171875 C362.56739,39.1406326 364.496082,39.9023438 366.820312,39.9023438 C370.082048,39.9023438 372.738271,38.5839976 374.789062,35.9472656 L378.626953,39.609375 C377.357416,41.5039157 375.663097,42.9736276 373.543945,44.0185547 C371.424794,45.0634818 369.046888,45.5859375 366.410156,45.5859375 L366.410156,45.5859375 Z M365.560547,18.4277344 C363.607412,18.4277344 362.030279,19.1113213 360.829102,20.4785156 C359.627924,21.84571 358.86133,23.7499878 358.529297,26.1914062 L372.09375,26.1914062 L372.09375,25.6640625 C371.937499,23.2812381 371.30274,21.4794983 370.189453,20.2587891 C369.076166,19.0380798 367.533213,18.4277344 365.560547,18.4277344 L365.560547,18.4277344 Z" id="Seb-Rose" sketch:type="MSShapeGroup"></path>
            </g>
            <g id="Cucumber-logo" sketch:type="MSLayerGroup" transform="translate(90.000000, 90.000000)">
                <g id="g6053" sketch:type="MSShapeGroup">
                    <path d="M418.718234,69.6015101 C413.085253,69.6015101 409.517698,72.4328859 406.888974,76.7743289 C406.888974,75.6417785 407.452272,74.3204698 407.452272,73.3766779 L407.452272,71.489094 L398.063971,71.489094 L398.063971,118.678691 L407.452272,118.678691 L407.452272,91.4974832 C407.452272,83.7583893 411.583125,79.0394295 418.718234,79.0394295 L420.595894,79.0394295 L420.595894,69.6015101 L418.718234,69.6015101 L418.718234,69.6015101 Z" id="path5443" fill="#000000"></path>
                    <path d="M36.9899067,86.9672819 C34.3611824,82.8145973 30.6058619,79.9832215 25.1606472,79.9832215 C16.5234101,79.9832215 10.3271313,86.5897651 10.3271313,94.8951342 C10.3271313,103.200503 16.5234101,109.807047 25.1606472,109.807047 C30.6058619,109.807047 34.3611824,107.16443 36.9899067,103.011745 L45.6271438,108.108221 C41.4962913,114.526007 33.7978843,119.244966 25.1606472,119.244966 C9.20053518,119.244966 7.10542736e-15,107.16443 7.10542736e-15,95.0838926 C7.10542736e-15,83.0033557 9.3883012,70.9228188 25.1606472,70.9228188 C34.9244805,70.9228188 41.1207593,75.6417785 45.6271438,82.0595638 L36.9899067,86.9672819 L36.9899067,86.9672819 Z" id="path5445" fill="#000000"></path>
                    <path d="M53.8888489,72.0553691 L63.6526822,72.0553691 L63.6526822,97.7265101 C63.6526822,104.521812 68.5345988,109.240772 74.7308776,109.240772 C80.7393903,109.240772 85.809073,104.333054 85.809073,97.7265101 L85.809073,72.0553691 L95.5729062,72.0553691 L95.5729062,98.4815436 C95.5729062,111.317114 85.621307,119.056208 74.7308776,119.056208 C63.8404482,119.056208 53.8888489,111.317114 53.8888489,98.4815436 L53.8888489,72.0553691 L53.8888489,72.0553691 Z" id="path5447" fill="#000000"></path>
                    <path d="M141.387816,86.9672819 C138.759092,82.8145973 135.003771,79.9832215 129.558557,79.9832215 C120.921319,79.9832215 114.725041,86.5897651 114.725041,94.8951342 C114.725041,103.200503 120.921319,109.807047 129.558557,109.807047 C135.003771,109.807047 138.759092,107.16443 141.387816,103.011745 L150.025053,108.108221 C145.894201,114.526007 138.195794,119.244966 129.558557,119.244966 C113.598445,119.244966 104.397909,107.16443 104.397909,95.0838926 C104.397909,83.0033557 113.598445,70.9228188 129.558557,70.9228188 C139.32239,70.9228188 145.518669,75.6417785 150.025053,82.0595638 L141.387816,86.9672819 L141.387816,86.9672819 Z" id="path5449" fill="#000000"></path>
                    <path d="M158.286758,72.0553691 L168.050592,72.0553691 L168.050592,97.7265101 C168.050592,104.521812 172.932508,109.240772 179.128787,109.240772 C185.1373,109.240772 190.206982,104.333054 190.206982,97.7265101 L190.206982,72.0553691 L199.970816,72.0553691 L199.970816,98.4815436 C199.970816,111.317114 190.019216,119.056208 179.128787,119.056208 C168.238358,119.056208 158.286758,111.317114 158.286758,98.4815436 L158.286758,72.0553691 L158.286758,72.0553691 Z" id="path5451" fill="#000000"></path>
                    <path d="M212.175607,89.2323826 C212.175607,77.5293624 219.874014,70.9228188 228.886783,70.9228188 C235.834126,70.9228188 240.716043,74.3204698 242.593703,79.0394295 L242.781469,79.0394295 C244.659129,74.1317114 249.541046,70.9228188 256.488389,70.9228188 C265.501158,70.9228188 273.199565,77.7181208 273.199565,89.2323826 L273.199565,117.923658 L263.435732,117.923658 L263.435732,89.2323826 C263.435732,83.7583893 260.055943,80.5494966 255.925091,80.5494966 C251.23094,80.5494966 247.851152,83.3808725 247.851152,90.5536913 L247.851152,117.734899 L238.087319,117.734899 L238.087319,90.5536913 C238.087319,83.3808725 234.70753,80.5494966 230.013379,80.5494966 C225.882527,80.5494966 222.502739,83.7583893 222.502739,89.2323826 L222.502739,117.734899 L212.175607,117.734899 L212.175607,89.2323826 L212.175607,89.2323826 Z" id="path5453" fill="#000000"></path>
                    <path d="M285.216591,58.4647651 L294.980424,58.4647651 L294.980424,77.7181208 L295.16819,77.7181208 C297.421382,73.942953 303.617661,70.9228188 310.001706,70.9228188 C321.830965,70.9228188 333.660225,79.7944631 333.660225,95.0838926 C333.660225,110.373322 321.830965,119.244966 310.001706,119.244966 C303.617661,119.244966 297.421382,116.224832 295.16819,112.449664 L294.980424,112.449664 L294.980424,118.112416 L285.216591,118.112416 L285.216591,58.4647651 L285.216591,58.4647651 Z M309.062876,80.1719799 C300.988937,80.1719799 294.980424,86.5897651 294.980424,95.0838926 C294.980424,103.57802 300.988937,109.995805 309.062876,109.995805 C317.324581,109.995805 323.333093,103.57802 323.333093,95.0838926 C323.333093,86.4010067 317.324581,80.1719799 309.062876,80.1719799 L309.062876,80.1719799 Z" id="path5455" fill="#000000"></path>
                    <path d="M386.234711,107.919463 C380.789497,114.903523 373.278856,119.056208 365.017151,119.056208 C349.057039,119.056208 339.856504,106.975671 339.856504,94.8951342 C339.856504,82.8145973 349.244805,70.9228188 365.017151,70.9228188 C374.405452,70.9228188 388.67567,78.8506711 388.67567,96.5939597 L388.67567,98.2927852 L350.934699,98.2927852 C351.497997,105.276846 358.069808,110.373322 364.829385,110.373322 C370.086833,110.373322 374.593218,107.730705 377.973006,103.200503 L386.234711,107.919463 L386.234711,107.919463 Z M377.221942,90.1761745 C375.156516,83.1921141 370.086833,79.4169463 363.702789,79.4169463 C357.50651,79.4169463 352.436827,83.3808725 350.746933,90.1761745 L377.221942,90.1761745 L377.221942,90.1761745 Z" id="path5457" fill="#000000"></path>
                    <path d="M447.243798,0.741736158 C430.249972,0.741736158 416.497112,14.5672813 416.497112,31.6509224 C416.497112,46.6920176 427.222399,59.1896539 441.37611,61.9702387 L441.37611,70.8182882 C459.777357,68.0293792 476.070549,53.3451714 477.286362,34.0693893 C478.01818,22.466983 472.263705,10.6223286 462.558465,4.87082592 C462.002799,4.5415288 461.438245,4.21462173 460.856835,3.92703398 C460.264403,3.63399451 459.656051,3.34839211 459.037852,3.10121602 C458.841617,3.01869425 458.649337,2.94383381 458.451083,2.86526804 C457.911148,2.66489818 457.366334,2.4392664 456.80813,2.27539807 C453.799504,1.27851613 450.58333,0.741736158 447.243798,0.741736158 L447.243798,0.741736158 Z" id="path3943" fill="#00A818"></path>
                    <path d="M453.580902,12.1852135 C452.529119,12.0768247 451.421592,12.4447563 450.647057,13.3649534 C450.083759,14.119987 449.731698,14.8514258 449.356166,15.6064593 C448.22957,18.2490768 448.605102,21.0804526 450.294996,23.1567949 C452.92372,22.5905197 455.153442,20.9034916 456.280038,18.2608742 C456.65557,17.5058406 456.866807,16.5384539 456.866807,15.7834203 C456.984161,13.7778624 455.333874,12.3658611 453.580902,12.1852135 L453.580902,12.1852135 Z M439.909188,12.3621745 C438.194723,12.5262322 436.564606,13.8958364 436.564606,15.7834203 C436.564606,16.5384539 436.775842,17.5058406 437.151374,18.2608742 C438.277971,20.9034916 440.683723,22.5905197 443.312447,23.1567949 C444.814575,21.0804526 445.201843,18.2490768 444.075247,15.6064593 C443.699715,14.8514258 443.347653,14.1081896 442.784355,13.5419144 C442.00982,12.6217173 440.937868,12.26374 439.909188,12.3621745 L439.909188,12.3621745 Z M430.696917,21.446172 C427.736027,21.5989341 426.413505,25.3393138 428.877934,27.2858846 C429.628998,27.8521598 430.356591,28.2650688 431.107656,28.6425856 C433.73638,29.7751359 436.775842,29.3858217 439.029035,27.8757546 C438.465737,25.4218956 436.55287,23.1685923 433.924146,22.0360419 C432.985316,21.6585252 432.222516,21.446172 431.283686,21.446172 C431.072449,21.4225772 430.89431,21.435979 430.696917,21.446172 L430.696917,21.446172 Z M459.62462,32.8896493 C457.904654,32.8564656 456.162684,33.3615453 454.754439,34.3053372 C455.317737,36.7591963 457.230604,39.0124996 459.859328,40.1450499 C460.798158,40.5225667 461.560958,40.7349199 462.499788,40.7349199 C465.879576,40.9236783 467.534264,36.7238041 464.90554,34.8362202 C464.154476,34.2699451 463.426882,33.9160231 462.675818,33.5385063 C461.690047,33.1137999 460.656599,32.9095577 459.62462,32.8896493 L459.62462,32.8896493 Z M433.982823,33.0666103 C432.950843,33.0865243 431.917397,33.2907609 430.931625,33.7154673 C429.992795,34.0929841 429.265201,34.505893 428.701903,35.0721682 C426.260945,37.1485105 427.903898,41.1006393 431.283686,40.9118809 C432.222516,40.9118809 433.173082,40.6995277 433.924146,40.3220109 C436.55287,39.1894606 438.418795,36.9361573 438.794327,34.4822982 C437.386082,33.5385063 435.70279,33.0334304 433.982823,33.0666103 L433.982823,33.0666103 Z M443.488478,38.847336 C440.859753,39.4136112 438.630032,41.1006393 437.503436,43.7432567 C437.127904,44.4982903 436.916667,45.40669 436.916667,46.1617236 C436.728901,49.3706162 441.082726,51.0930365 442.960386,48.6391774 C443.523684,47.8841439 443.875745,47.1527051 444.251277,46.3976716 C445.377873,43.9438125 444.990606,41.1124367 443.488478,38.847336 L443.488478,38.847336 Z M450.471027,39.024297 C448.968899,41.1006393 448.581631,43.9320151 449.708227,46.5746326 C450.083759,47.3296661 450.435821,48.0729023 450.999119,48.6391774 C453.064545,50.9042781 457.406634,49.2290474 457.218868,46.3976716 C457.218868,45.642638 457.007631,44.6752513 456.632099,43.9202177 C455.505503,41.2776003 453.099751,39.5905721 450.471027,39.024297 L450.471027,39.024297 Z" id="rect4005" fill="#FFFFFF"></path>
                </g>
            </g>
        </g>
    </g>
</svg>