<?xml version="1.0" encoding="UTF-8" standalone="no"?>
<svg width="1039px" height="697px" viewBox="0 0 1039 697" version="1.1" xmlns="http://www.w3.org/2000/svg" xmlns:xlink="http://www.w3.org/1999/xlink" xmlns:sketch="http://www.bohemiancoding.com/sketch/ns">
    <!-- Generator: Sketch 3.5.1 (25234) - http://www.bohemiancoding.com/sketch -->
    <title>Steve-Front</title>
    <desc>Created with Sketch.</desc>
    <defs></defs>
    <g id="Steve" stroke="none" stroke-width="1" fill="none" fill-rule="evenodd" sketch:type="MSPage">
        <g id="Steve-Front" sketch:type="MSArtboardGroup">
            <path d="M607.886719,517.457031 L607.886719,522.867188 L612.261719,522.867188 L612.261719,524.78125 L607.886719,524.78125 L607.886719,538.863281 C607.886719,540.035162 608.098305,540.907549 608.521484,541.480469 C608.944664,542.053388 609.651037,542.339844 610.640625,542.339844 C611.031252,542.339844 611.662756,542.27474 612.535156,542.144531 L612.632812,544.058594 C612.02083,544.279949 611.187505,544.390625 610.132812,544.390625 C608.531242,544.390625 607.365889,543.925135 606.636719,542.994141 C605.907548,542.063146 605.542969,540.692717 605.542969,538.882812 L605.542969,524.78125 L601.65625,524.78125 L601.65625,522.867188 L605.542969,522.867188 L605.542969,517.457031 L607.886719,517.457031 Z M615.425781,533.121094 C615.425781,531.089834 615.819658,529.260425 616.607422,527.632812 C617.395186,526.0052 618.508456,524.738937 619.947266,523.833984 C621.386075,522.929032 623.016918,522.476562 624.839844,522.476562 C627.652358,522.476562 629.930981,523.462881 631.675781,525.435547 C633.420582,527.408213 634.292969,530.022119 634.292969,533.277344 L634.292969,533.765625 C634.292969,535.809906 633.899092,537.64908 633.111328,539.283203 C632.323564,540.917326 631.213549,542.177079 629.78125,543.0625 C628.348951,543.947921 626.714853,544.390625 624.878906,544.390625 C622.079413,544.390625 619.804045,543.404307 618.052734,541.431641 C616.301424,539.458975 615.425781,536.845068 615.425781,533.589844 L615.425781,533.121094 Z M617.769531,533.765625 C617.769531,536.291679 618.423822,538.365226 619.732422,539.986328 C621.041022,541.60743 622.7565,542.417969 624.878906,542.417969 C626.988292,542.417969 628.697259,541.60743 630.005859,539.986328 C631.31446,538.365226 631.96875,536.226576 631.96875,533.570312 L631.96875,533.121094 C631.96875,531.506502 631.669274,530.028653 631.070312,528.6875 C630.471351,527.346347 629.631516,526.307946 628.550781,525.572266 C627.470047,524.836585 626.23308,524.46875 624.839844,524.46875 C622.7565,524.46875 621.057298,525.285799 619.742188,526.919922 C618.427077,528.554045 617.769531,530.692695 617.769531,533.335938 L617.769531,533.765625 Z M637.828125,533.121094 C637.828125,531.089834 638.222001,529.260425 639.009766,527.632812 C639.79753,526.0052 640.9108,524.738937 642.349609,523.833984 C643.788419,522.929032 645.419262,522.476562 647.242188,522.476562 C650.054702,522.476562 652.333325,523.462881 654.078125,525.435547 C655.822925,527.408213 656.695312,530.022119 656.695312,533.277344 L656.695312,533.765625 C656.695312,535.809906 656.301436,537.64908 655.513672,539.283203 C654.725908,540.917326 653.615893,542.177079 652.183594,543.0625 C650.751295,543.947921 649.117197,544.390625 647.28125,544.390625 C644.481757,544.390625 642.206389,543.404307 640.455078,541.431641 C638.703767,539.458975 637.828125,536.845068 637.828125,533.589844 L637.828125,533.121094 Z M640.171875,533.765625 C640.171875,536.291679 640.826165,538.365226 642.134766,539.986328 C643.443366,541.60743 645.158844,542.417969 647.28125,542.417969 C649.390636,542.417969 651.099603,541.60743 652.408203,539.986328 C653.716803,538.365226 654.371094,536.226576 654.371094,533.570312 L654.371094,533.121094 C654.371094,531.506502 654.071618,530.028653 653.472656,528.6875 C652.873695,527.346347 652.03386,526.307946 650.953125,525.572266 C649.87239,524.836585 648.635424,524.46875 647.242188,524.46875 C645.158844,524.46875 643.459642,525.285799 642.144531,526.919922 C640.829421,528.554045 640.171875,530.692695 640.171875,533.335938 L640.171875,533.765625 Z M666.539062,533.355469 L663.863281,535.933594 L663.863281,544 L661.519531,544 L661.519531,514 L663.863281,514 L663.863281,533.199219 L666.070312,530.816406 L674.15625,522.867188 L677.105469,522.867188 L668.140625,531.773438 L677.886719,544 L675.09375,544 L666.539062,533.355469 Z M687.808594,540.640625 L693.980469,522.867188 L696.5,522.867188 L687.476562,547.59375 L687.007812,548.6875 C685.848953,551.252617 684.058606,552.535156 681.636719,552.535156 C681.07682,552.535156 680.477868,552.444011 679.839844,552.261719 L679.820312,550.328125 L681.03125,550.445312 C682.177089,550.445312 683.104814,550.162112 683.814453,549.595703 C684.524092,549.029294 685.1263,548.055996 685.621094,546.675781 L686.65625,543.824219 L678.6875,522.867188 L681.246094,522.867188 L687.808594,540.640625 Z M731.324219,533.980469 C731.259114,535.894541 730.907555,537.668612 730.269531,539.302734 C729.631507,540.936857 728.749355,542.193355 727.623047,543.072266 C726.496739,543.951176 725.191414,544.390625 723.707031,544.390625 C722.444004,544.390625 721.415369,544.058597 720.621094,543.394531 C719.826819,542.730465 719.29948,541.799485 719.039062,540.601562 C717.632805,543.127617 715.692721,544.390625 713.21875,544.390625 C711.395824,544.390625 710.035161,543.602872 709.136719,542.027344 C708.238277,540.451815 707.906249,538.32944 708.140625,535.660156 C708.335938,533.53775 708.82096,531.646493 709.595703,529.986328 C710.370447,528.326164 711.379551,527.030604 712.623047,526.099609 C713.866543,525.168615 715.19791,524.703125 716.617188,524.703125 C717.619797,524.703125 718.498694,524.843098 719.253906,525.123047 C720.009118,525.402996 720.888016,525.966142 721.890625,526.8125 L720.894531,537.945312 C720.764322,539.455737 720.956378,540.6276 721.470703,541.460938 C721.985029,542.294275 722.808588,542.710938 723.941406,542.710938 C725.542977,542.710938 726.841792,541.92644 727.837891,540.357422 C728.833989,538.788404 729.390624,536.662774 729.507812,533.980469 C729.75521,528.707005 728.752615,524.738946 726.5,522.076172 C724.247385,519.413398 720.83596,518.082031 716.265625,518.082031 C713.518215,518.082031 711.041027,518.768873 708.833984,520.142578 C706.626942,521.516283 704.885423,523.459623 703.609375,525.972656 C702.333327,528.48569 701.617188,531.382796 701.460938,534.664062 C701.304687,537.945329 701.737625,540.83267 702.759766,543.326172 C703.781906,545.819674 705.324859,547.736972 707.388672,549.078125 C709.452484,550.419278 711.910142,551.089844 714.761719,551.089844 C715.959641,551.089844 717.138015,550.946616 718.296875,550.660156 C719.455735,550.373696 720.425777,550.002606 721.207031,549.546875 L721.8125,551.109375 C721.070309,551.604169 720.035163,552.017576 718.707031,552.349609 C717.3789,552.681642 716.037767,552.847656 714.683594,552.847656 C711.428369,552.847656 708.628918,552.115242 706.285156,550.650391 C703.941395,549.18554 702.186855,547.076186 701.021484,544.322266 C699.856114,541.568346 699.351562,538.348977 699.507812,534.664062 C699.664063,531.044253 700.461581,527.837905 701.900391,525.044922 C703.3392,522.251939 705.308581,520.090502 707.808594,518.560547 C710.308606,517.030591 713.15363,516.265625 716.34375,516.265625 C719.664079,516.265625 722.476551,516.958977 724.78125,518.345703 C727.085949,519.732429 728.791661,521.760403 729.898438,524.429688 C731.005214,527.098972 731.48047,530.282534 731.324219,533.980469 L731.324219,533.980469 Z M710.210938,538.414062 C710.354167,539.716152 710.718747,540.722002 711.304688,541.431641 C711.890628,542.14128 712.66536,542.496094 713.628906,542.496094 C716.037772,542.496094 717.815098,540.835954 718.960938,537.515625 L719.839844,527.4375 C718.967444,526.799476 717.938808,526.480469 716.753906,526.480469 C715.308587,526.480469 714.055344,527.056635 712.994141,528.208984 C711.932937,529.361334 711.15495,530.94986 710.660156,532.974609 C710.165362,534.999359 710.015624,536.812492 710.210938,538.414062 L710.210938,538.414062 Z M744.449219,542.417969 C746.076831,542.417969 747.44075,541.958989 748.541016,541.041016 C749.641282,540.123042 750.236979,538.934903 750.328125,537.476562 L752.574219,537.476562 C752.509114,538.765631 752.105472,539.94075 751.363281,541.001953 C750.62109,542.063156 749.634772,542.893226 748.404297,543.492188 C747.173822,544.091149 745.855476,544.390625 744.449219,544.390625 C741.675767,544.390625 739.478524,543.427093 737.857422,541.5 C736.23632,539.572907 735.425781,536.981787 735.425781,533.726562 L735.425781,533.023438 C735.425781,530.940094 735.790361,529.097664 736.519531,527.496094 C737.248702,525.894523 738.293613,524.657556 739.654297,523.785156 C741.014981,522.912756 742.606762,522.476562 744.429688,522.476562 C746.747407,522.476562 748.658196,523.16666 750.162109,524.546875 C751.666023,525.92709 752.470052,527.743478 752.574219,529.996094 L750.328125,529.996094 C750.223958,528.34244 749.628261,527.007818 748.541016,525.992188 C747.453771,524.976557 746.083342,524.46875 744.429688,524.46875 C742.320302,524.46875 740.682949,525.230461 739.517578,526.753906 C738.352208,528.277351 737.769531,530.412747 737.769531,533.160156 L737.769531,533.84375 C737.769531,536.539076 738.352208,538.64192 739.517578,540.152344 C740.682949,541.662768 742.326812,542.417969 744.449219,542.417969 L744.449219,542.417969 Z M770.835938,541.324219 C769.42968,543.3685 767.183609,544.390625 764.097656,544.390625 C761.845041,544.390625 760.132818,543.736335 758.960938,542.427734 C757.789057,541.119134 757.190104,539.182304 757.164062,536.617188 L757.164062,522.867188 L759.488281,522.867188 L759.488281,536.324219 C759.488281,540.347676 761.115869,542.359375 764.371094,542.359375 C767.756527,542.359375 769.898433,540.959649 770.796875,538.160156 L770.796875,522.867188 L773.140625,522.867188 L773.140625,544 L770.875,544 L770.835938,541.324219 Z M787.027344,542.417969 C788.654956,542.417969 790.018875,541.958989 791.119141,541.041016 C792.219407,540.123042 792.815104,538.934903 792.90625,537.476562 L795.152344,537.476562 C795.087239,538.765631 794.683597,539.94075 793.941406,541.001953 C793.199215,542.063156 792.212897,542.893226 790.982422,543.492188 C789.751947,544.091149 788.433601,544.390625 787.027344,544.390625 C784.253892,544.390625 782.056649,543.427093 780.435547,541.5 C778.814445,539.572907 778.003906,536.981787 778.003906,533.726562 L778.003906,533.023438 C778.003906,530.940094 778.368486,529.097664 779.097656,527.496094 C779.826827,525.894523 780.871738,524.657556 782.232422,523.785156 C783.593106,522.912756 785.184887,522.476562 787.007812,522.476562 C789.325532,522.476562 791.236321,523.16666 792.740234,524.546875 C794.244148,525.92709 795.048177,527.743478 795.152344,529.996094 L792.90625,529.996094 C792.802083,528.34244 792.206386,527.007818 791.119141,525.992188 C790.031896,524.976557 788.661467,524.46875 787.007812,524.46875 C784.898427,524.46875 783.261074,525.230461 782.095703,526.753906 C780.930333,528.277351 780.347656,530.412747 780.347656,533.160156 L780.347656,533.84375 C780.347656,536.539076 780.930333,538.64192 782.095703,540.152344 C783.261074,541.662768 784.904937,542.417969 787.027344,542.417969 L787.027344,542.417969 Z M813.414062,541.324219 C812.007805,543.3685 809.761734,544.390625 806.675781,544.390625 C804.423166,544.390625 802.710943,543.736335 801.539062,542.427734 C800.367182,541.119134 799.768229,539.182304 799.742188,536.617188 L799.742188,522.867188 L802.066406,522.867188 L802.066406,536.324219 C802.066406,540.347676 803.693994,542.359375 806.949219,542.359375 C810.334652,542.359375 812.476558,540.959649 813.375,538.160156 L813.375,522.867188 L815.71875,522.867188 L815.71875,544 L813.453125,544 L813.414062,541.324219 Z M823.921875,522.867188 L824,526.304688 C824.781254,525.028639 825.757807,524.071618 826.929688,523.433594 C828.101568,522.79557 829.403639,522.476562 830.835938,522.476562 C834.169287,522.476562 836.285152,523.843736 837.183594,526.578125 C837.938806,525.263014 838.94791,524.250655 840.210938,523.541016 C841.473965,522.831377 842.86718,522.476562 844.390625,522.476562 C848.921898,522.476562 851.233072,524.950496 851.324219,529.898438 L851.324219,544 L848.980469,544 L848.980469,530.074219 C848.967448,528.186188 848.560551,526.786463 847.759766,525.875 C846.95898,524.963537 845.653655,524.507812 843.84375,524.507812 C842.164054,524.533854 840.744797,525.077469 839.585938,526.138672 C838.427078,527.199875 837.782553,528.49218 837.652344,530.015625 L837.652344,544 L835.308594,544 L835.308594,529.898438 C835.295573,528.088533 834.869145,526.737635 834.029297,525.845703 C833.189449,524.953772 831.897144,524.507812 830.152344,524.507812 C828.680982,524.507812 827.417974,524.92773 826.363281,525.767578 C825.308588,526.607426 824.527346,527.854158 824.019531,529.507812 L824.019531,544 L821.675781,544 L821.675781,522.867188 L823.921875,522.867188 Z M874.253906,533.648438 C874.253906,536.942725 873.524747,539.556631 872.066406,541.490234 C870.608066,543.423838 868.64845,544.390625 866.1875,544.390625 C863.244777,544.390625 861.018237,543.296886 859.507812,541.109375 L859.410156,544 L857.222656,544 L857.222656,514 L859.546875,514 L859.546875,525.933594 C861.031257,523.628895 863.231756,522.476562 866.148438,522.476562 C868.64845,522.476562 870.624342,523.430329 872.076172,525.337891 C873.528002,527.245452 874.253906,529.898421 874.253906,533.296875 L874.253906,533.648438 Z M871.910156,533.238281 C871.910156,530.451809 871.369797,528.300138 870.289062,526.783203 C869.208328,525.266268 867.684906,524.507812 865.71875,524.507812 C864.221347,524.507812 862.951828,524.875647 861.910156,525.611328 C860.868484,526.347009 860.080732,527.424472 859.546875,528.84375 L859.546875,538.375 C860.718756,541.031263 862.789048,542.359375 865.757812,542.359375 C867.684905,542.359375 869.192052,541.597664 870.279297,540.074219 C871.366542,538.550774 871.910156,536.272151 871.910156,533.238281 L871.910156,533.238281 Z M887.59375,544.390625 C885.796866,544.390625 884.172533,543.947921 882.720703,543.0625 C881.268873,542.177079 880.139327,540.943367 879.332031,539.361328 C878.524736,537.779289 878.121094,536.005218 878.121094,534.039062 L878.121094,533.199219 C878.121094,531.167959 878.51497,529.33855 879.302734,527.710938 C880.090499,526.083325 881.187493,524.804041 882.59375,523.873047 C884.000007,522.942053 885.523429,522.476562 887.164062,522.476562 C889.729179,522.476562 891.763664,523.352205 893.267578,525.103516 C894.771492,526.854826 895.523438,529.247381 895.523438,532.28125 L895.523438,533.589844 L880.445312,533.589844 L880.445312,534.039062 C880.445312,536.434908 881.132155,538.430331 882.505859,540.025391 C883.879564,541.620451 885.608062,542.417969 887.691406,542.417969 C888.941413,542.417969 890.044917,542.190106 891.001953,541.734375 C891.958989,541.278644 892.828121,540.549484 893.609375,539.546875 L895.074219,540.660156 C893.35546,543.147148 890.861996,544.390625 887.59375,544.390625 L887.59375,544.390625 Z M887.164062,524.46875 C885.406241,524.46875 883.925136,525.113275 882.720703,526.402344 C881.51627,527.691413 880.783855,529.423166 880.523438,531.597656 L893.199219,531.597656 L893.199219,531.34375 C893.134114,529.31249 892.554693,527.658861 891.460938,526.382812 C890.367182,525.106764 888.934905,524.46875 887.164062,524.46875 L887.164062,524.46875 Z M909.839844,524.859375 C909.34505,524.768229 908.817711,524.722656 908.257812,524.722656 C906.799472,524.722656 905.56576,525.129553 904.556641,525.943359 C903.547521,526.757166 902.828127,527.938794 902.398438,529.488281 L902.398438,544 L900.074219,544 L900.074219,522.867188 L902.359375,522.867188 L902.398438,526.226562 C903.635423,523.72655 905.62108,522.476562 908.355469,522.476562 C909.006514,522.476562 909.520831,522.561197 909.898438,522.730469 L909.839844,524.859375 Z M910.914062,542.59375 C910.914062,542.138019 911.060545,541.750653 911.353516,541.431641 C911.646486,541.112629 912.053383,540.953125 912.574219,540.953125 C913.095055,540.953125 913.505207,541.112629 913.804688,541.431641 C914.104168,541.750653 914.253906,542.138019 914.253906,542.59375 C914.253906,543.049481 914.104168,543.423827 913.804688,543.716797 C913.505207,544.009767 913.095055,544.15625 912.574219,544.15625 C912.053383,544.15625 911.646486,544.009767 911.353516,543.716797 C911.060545,543.423827 910.914062,543.049481 910.914062,542.59375 L910.914062,542.59375 Z M923.296875,544 L920.953125,544 L920.953125,522.867188 L923.296875,522.867188 L923.296875,544 Z M920.542969,516.753906 C920.542969,516.311196 920.686196,515.93685 920.972656,515.630859 C921.259116,515.324868 921.649737,515.171875 922.144531,515.171875 C922.639325,515.171875 923.033202,515.324868 923.326172,515.630859 C923.619142,515.93685 923.765625,516.311196 923.765625,516.753906 C923.765625,517.196617 923.619142,517.567707 923.326172,517.867188 C923.033202,518.166668 922.639325,518.316406 922.144531,518.316406 C921.649737,518.316406 921.259116,518.166668 920.972656,517.867188 C920.686196,517.567707 920.542969,517.196617 920.542969,516.753906 L920.542969,516.753906 Z M928.355469,533.121094 C928.355469,531.089834 928.749345,529.260425 929.537109,527.632812 C930.324874,526.0052 931.438144,524.738937 932.876953,523.833984 C934.315762,522.929032 935.946605,522.476562 937.769531,522.476562 C940.582045,522.476562 942.860668,523.462881 944.605469,525.435547 C946.350269,527.408213 947.222656,530.022119 947.222656,533.277344 L947.222656,533.765625 C947.222656,535.809906 946.82878,537.64908 946.041016,539.283203 C945.253251,540.917326 944.143236,542.177079 942.710938,543.0625 C941.278639,543.947921 939.64454,544.390625 937.808594,544.390625 C935.009101,544.390625 932.733733,543.404307 930.982422,541.431641 C929.231111,539.458975 928.355469,536.845068 928.355469,533.589844 L928.355469,533.121094 Z M930.699219,533.765625 C930.699219,536.291679 931.353509,538.365226 932.662109,539.986328 C933.97071,541.60743 935.686187,542.417969 937.808594,542.417969 C939.917979,542.417969 941.626947,541.60743 942.935547,539.986328 C944.244147,538.365226 944.898438,536.226576 944.898438,533.570312 L944.898438,533.121094 C944.898438,531.506502 944.598961,530.028653 944,528.6875 C943.401039,527.346347 942.561203,526.307946 941.480469,525.572266 C940.399734,524.836585 939.162767,524.46875 937.769531,524.46875 C935.686187,524.46875 933.986986,525.285799 932.671875,526.919922 C931.356764,528.554045 930.699219,530.692695 930.699219,533.335938 L930.699219,533.765625 Z M585.855469,583.546875 L594.507812,583.546875 L594.507812,585.734375 L585.855469,585.734375 L585.855469,595.148438 L583.492188,595.148438 L583.492188,585.734375 L575.015625,585.734375 L575.015625,583.546875 L583.492188,583.546875 L583.492188,574.445312 L585.855469,574.445312 L585.855469,583.546875 Z M613.160156,588.839844 L617.59375,588.839844 L617.59375,590.8125 L613.160156,590.8125 L613.160156,598 L610.816406,598 L610.816406,590.8125 L597.4375,590.8125 L597.4375,589.484375 L610.601562,569.5625 L613.160156,569.5625 L613.160156,588.839844 Z M600.308594,588.839844 L610.816406,588.839844 L610.816406,572.589844 L609.78125,574.386719 L600.308594,588.839844 Z M635.328125,588.839844 L639.761719,588.839844 L639.761719,590.8125 L635.328125,590.8125 L635.328125,598 L632.984375,598 L632.984375,590.8125 L619.605469,590.8125 L619.605469,589.484375 L632.769531,569.5625 L635.328125,569.5625 L635.328125,588.839844 Z M622.476562,588.839844 L632.984375,588.839844 L632.984375,572.589844 L631.949219,574.386719 L622.476562,588.839844 Z M652.925781,586.515625 C652.925781,583.677069 653.290361,580.919935 654.019531,578.244141 C654.748702,575.568346 655.816399,573.120454 657.222656,570.900391 C658.628913,568.680327 660.139315,567.088546 661.753906,566.125 L662.320312,567.707031 C661.460933,568.319013 660.608077,569.210932 659.761719,570.382812 C658.91536,571.554693 658.16016,572.947909 657.496094,574.5625 C656.832028,576.177091 656.294924,577.990224 655.884766,580.001953 C655.474607,582.013682 655.269531,584.29556 655.269531,586.847656 C655.269531,589.569024 655.578773,592.186185 656.197266,594.699219 C656.815758,597.212252 657.665359,599.429027 658.746094,601.349609 C659.826828,603.270192 661.018223,604.712235 662.320312,605.675781 L661.753906,607.179688 C660.100252,606.190099 658.57032,604.591808 657.164062,602.384766 C655.757805,600.177723 654.699873,597.749362 653.990234,595.099609 C653.280595,592.449857 652.925781,589.588557 652.925781,586.515625 L652.925781,586.515625 Z M682.769531,586.144531 C682.769531,590.154968 682.033862,593.198557 680.5625,595.275391 C679.091138,597.352224 676.923191,598.390625 674.058594,598.390625 C671.24608,598.390625 669.091153,597.371755 667.59375,595.333984 C666.096347,593.296214 665.328125,590.330749 665.289062,586.4375 L665.289062,581.339844 C665.289062,577.342428 666.031243,574.315114 667.515625,572.257812 C669.000007,570.200511 671.167954,569.171875 674.019531,569.171875 C676.832045,569.171875 678.980461,570.164704 680.464844,572.150391 C681.949226,574.136078 682.717448,577.062481 682.769531,580.929688 L682.769531,586.144531 Z M680.425781,581.046875 C680.425781,577.79165 679.895188,575.330737 678.833984,573.664062 C677.772781,571.997388 676.167979,571.164062 674.019531,571.164062 C671.910146,571.164062 670.32162,571.977856 669.253906,573.605469 C668.186193,575.233081 667.639323,577.635401 667.613281,580.8125 L667.613281,586.398438 C667.613281,589.640641 668.163406,592.121085 669.263672,593.839844 C670.363938,595.558602 671.962229,596.417969 674.058594,596.417969 C676.141938,596.417969 677.720698,595.578133 678.794922,593.898438 C679.869146,592.218742 680.41276,589.757829 680.425781,586.515625 L680.425781,581.046875 Z M695.152344,586.808594 C695.152344,589.673191 694.79753,592.430325 694.087891,595.080078 C693.378252,597.729831 692.32683,600.154937 690.933594,602.355469 C689.540358,604.556001 688.003915,606.164057 686.324219,607.179688 L685.757812,605.675781 C687.033861,604.764318 688.215489,603.351572 689.302734,601.4375 C690.389979,599.523428 691.246091,597.293633 691.871094,594.748047 C692.496097,592.202461 692.808594,589.438817 692.808594,586.457031 C692.808594,583.761705 692.496097,581.16082 691.871094,578.654297 C691.246091,576.147774 690.383469,573.908213 689.283203,571.935547 C688.182937,569.962881 687.007819,568.527348 685.757812,567.628906 L686.324219,566.125 C687.964852,567.127609 689.481764,568.729156 690.875,570.929688 C692.268236,573.130219 693.329423,575.571601 694.058594,578.253906 C694.787764,580.936211 695.152344,583.787745 695.152344,586.808594 L695.152344,586.808594 Z M728.0625,570.910156 L715.914062,598 L713.472656,598 L725.542969,571.554688 L709.371094,571.554688 L709.371094,569.5625 L728.0625,569.5625 L728.0625,570.910156 Z M747.300781,584.835938 C746.467444,586.059902 745.432298,587.007158 744.195312,587.677734 C742.958327,588.348311 741.617195,588.683594 740.171875,588.683594 C738.557284,588.683594 737.131517,588.266931 735.894531,587.433594 C734.657546,586.600256 733.700524,585.447924 733.023438,583.976562 C732.346351,582.505201 732.007812,580.897144 732.007812,579.152344 C732.007812,577.277334 732.369137,575.571622 733.091797,574.035156 C733.814457,572.49869 734.823561,571.304041 736.119141,570.451172 C737.41472,569.598303 738.908846,569.171875 740.601562,569.171875 C743.453139,569.171875 745.673169,570.171214 747.261719,572.169922 C748.850268,574.16863 749.644531,577.003888 749.644531,580.675781 L749.644531,582.785156 C749.644531,587.91539 748.550792,591.769518 746.363281,594.347656 C744.17577,596.925794 740.83596,598.214844 736.34375,598.214844 L735.914062,598.214844 L735.933594,596.183594 L736.753906,596.183594 C740.152361,596.13151 742.73697,595.167978 744.507812,593.292969 C746.278655,591.417959 747.209635,588.598977 747.300781,584.835938 L747.300781,584.835938 Z M740.464844,586.671875 C742.027352,586.671875 743.430332,586.206385 744.673828,585.275391 C745.917324,584.344396 746.799477,583.136726 747.320312,581.652344 L747.320312,580.304688 C747.320312,577.414048 746.718105,575.171232 745.513672,573.576172 C744.309239,571.981112 742.684906,571.183594 740.640625,571.183594 C738.791657,571.183594 737.274746,571.929029 736.089844,573.419922 C734.904942,574.910815 734.3125,576.789051 734.3125,579.054688 C734.3125,581.229178 734.882156,583.04231 736.021484,584.494141 C737.160813,585.945971 738.641918,586.671875 740.464844,586.671875 L740.464844,586.671875 Z M765.757812,598 L763.414062,598 L763.414062,572.375 L755.679688,575.246094 L755.679688,573.058594 L765.367188,569.464844 L765.757812,569.464844 L765.757812,598 Z M791.636719,584.835938 C790.803381,586.059902 789.768235,587.007158 788.53125,587.677734 C787.294265,588.348311 785.953132,588.683594 784.507812,588.683594 C782.893221,588.683594 781.467454,588.266931 780.230469,587.433594 C778.993483,586.600256 778.036462,585.447924 777.359375,583.976562 C776.682288,582.505201 776.34375,580.897144 776.34375,579.152344 C776.34375,577.277334 776.705075,575.571622 777.427734,574.035156 C778.150394,572.49869 779.159499,571.304041 780.455078,570.451172 C781.750658,569.598303 783.244783,569.171875 784.9375,569.171875 C787.789077,569.171875 790.009107,570.171214 791.597656,572.169922 C793.186206,574.16863 793.980469,577.003888 793.980469,580.675781 L793.980469,582.785156 C793.980469,587.91539 792.88673,591.769518 790.699219,594.347656 C788.511708,596.925794 785.171897,598.214844 780.679688,598.214844 L780.25,598.214844 L780.269531,596.183594 L781.089844,596.183594 C784.488298,596.13151 787.072908,595.167978 788.84375,593.292969 C790.614592,591.417959 791.545572,588.598977 791.636719,584.835938 L791.636719,584.835938 Z M784.800781,586.671875 C786.363289,586.671875 787.76627,586.206385 789.009766,585.275391 C790.253261,584.344396 791.135414,583.136726 791.65625,581.652344 L791.65625,580.304688 C791.65625,577.414048 791.054042,575.171232 789.849609,573.576172 C788.645176,571.981112 787.020844,571.183594 784.976562,571.183594 C783.127595,571.183594 781.610683,571.929029 780.425781,573.419922 C779.240879,574.910815 778.648438,576.789051 778.648438,579.054688 C778.648438,581.229178 779.218093,583.04231 780.357422,584.494141 C781.49675,585.945971 782.977855,586.671875 784.800781,586.671875 L784.800781,586.671875 Z M814.136719,582.511719 L816.558594,582.511719 C817.899746,582.511719 819.07161,582.274091 820.074219,581.798828 C821.076828,581.323565 821.841794,580.67253 822.369141,579.845703 C822.896487,579.018876 823.160156,578.06511 823.160156,576.984375 C823.160156,575.161449 822.645838,573.735682 821.617188,572.707031 C820.588537,571.67838 819.110687,571.164062 817.183594,571.164062 C815.360668,571.164062 813.866542,571.701167 812.701172,572.775391 C811.535801,573.849615 810.953125,575.265616 810.953125,577.023438 L808.609375,577.023438 C808.609375,575.552076 808.980465,574.207688 809.722656,572.990234 C810.464847,571.77278 811.493483,570.832035 812.808594,570.167969 C814.123704,569.503903 815.582023,569.171875 817.183594,569.171875 C819.761732,569.171875 821.792961,569.874993 823.277344,571.28125 C824.761726,572.687507 825.503906,574.614571 825.503906,577.0625 C825.503906,578.429694 825.070968,579.689447 824.205078,580.841797 C823.339188,581.994146 822.151049,582.856768 820.640625,583.429688 C822.411467,583.924482 823.7526,584.774083 824.664062,585.978516 C825.575525,587.182949 826.03125,588.618481 826.03125,590.285156 C826.03125,592.720064 825.236987,594.67968 823.648438,596.164062 C822.059888,597.648445 819.937513,598.390625 817.28125,598.390625 C815.588533,598.390625 814.035814,598.052087 812.623047,597.375 C811.210279,596.697913 810.11654,595.750657 809.341797,594.533203 C808.567053,593.315749 808.179688,591.899748 808.179688,590.285156 L810.523438,590.285156 C810.523438,592.095061 811.154942,593.569656 812.417969,594.708984 C813.680996,595.848313 815.302073,596.417969 817.28125,596.417969 C819.299489,596.417969 820.871739,595.900396 821.998047,594.865234 C823.124355,593.830073 823.6875,592.329437 823.6875,590.363281 C823.6875,588.46223 823.078782,587.010422 821.861328,586.007812 C820.643874,585.005203 818.850272,584.503906 816.480469,584.503906 L814.136719,584.503906 L814.136719,582.511719 Z M836.304688,582.511719 L838.726562,582.511719 C840.067715,582.511719 841.239578,582.274091 842.242188,581.798828 C843.244797,581.323565 844.009763,580.67253 844.537109,579.845703 C845.064456,579.018876 845.328125,578.06511 845.328125,576.984375 C845.328125,575.161449 844.813807,573.735682 843.785156,572.707031 C842.756505,571.67838 841.278655,571.164062 839.351562,571.164062 C837.528637,571.164062 836.034511,571.701167 834.869141,572.775391 C833.70377,573.849615 833.121094,575.265616 833.121094,577.023438 L830.777344,577.023438 C830.777344,575.552076 831.148434,574.207688 831.890625,572.990234 C832.632816,571.77278 833.661452,570.832035 834.976562,570.167969 C836.291673,569.503903 837.749992,569.171875 839.351562,569.171875 C841.9297,569.171875 843.96093,569.874993 845.445312,571.28125 C846.929695,572.687507 847.671875,574.614571 847.671875,577.0625 C847.671875,578.429694 847.238937,579.689447 846.373047,580.841797 C845.507157,581.994146 844.319018,582.856768 842.808594,583.429688 C844.579436,583.924482 845.920568,584.774083 846.832031,585.978516 C847.743494,587.182949 848.199219,588.618481 848.199219,590.285156 C848.199219,592.720064 847.404956,594.67968 845.816406,596.164062 C844.227857,597.648445 842.105482,598.390625 839.449219,598.390625 C837.756502,598.390625 836.203783,598.052087 834.791016,597.375 C833.378248,596.697913 832.284509,595.750657 831.509766,594.533203 C830.735022,593.315749 830.347656,591.899748 830.347656,590.285156 L832.691406,590.285156 C832.691406,592.095061 833.32291,593.569656 834.585938,594.708984 C835.848965,595.848313 837.470042,596.417969 839.449219,596.417969 C841.467458,596.417969 843.039708,595.900396 844.166016,594.865234 C845.292323,593.830073 845.855469,592.329437 845.855469,590.363281 C845.855469,588.46223 845.246751,587.010422 844.029297,586.007812 C842.811843,585.005203 841.018241,584.503906 838.648438,584.503906 L836.304688,584.503906 L836.304688,582.511719 Z M870.796875,570.910156 L858.648438,598 L856.207031,598 L868.277344,571.554688 L852.105469,571.554688 L852.105469,569.5625 L870.796875,569.5625 L870.796875,570.910156 Z M899.527344,588.839844 L903.960938,588.839844 L903.960938,590.8125 L899.527344,590.8125 L899.527344,598 L897.183594,598 L897.183594,590.8125 L883.804688,590.8125 L883.804688,589.484375 L896.96875,569.5625 L899.527344,569.5625 L899.527344,588.839844 Z M886.675781,588.839844 L897.183594,588.839844 L897.183594,572.589844 L896.148438,574.386719 L886.675781,588.839844 Z M921.128906,569.347656 L921.128906,571.398438 L920.855469,571.398438 C917.457014,571.398438 914.78126,572.397776 912.828125,574.396484 C910.87499,576.395192 909.794272,579.171857 909.585938,582.726562 C910.367191,581.645828 911.363275,580.809248 912.574219,580.216797 C913.785162,579.624346 915.139315,579.328125 916.636719,579.328125 C919.136731,579.328125 921.125644,580.190747 922.603516,581.916016 C924.081388,583.641285 924.820312,585.897121 924.820312,588.683594 C924.820312,590.532561 924.475264,592.199211 923.785156,593.683594 C923.095049,595.167976 922.105475,596.323564 920.816406,597.150391 C919.527337,597.977218 918.055998,598.390625 916.402344,598.390625 C913.680976,598.390625 911.467456,597.404307 909.761719,595.431641 C908.055981,593.458975 907.203125,590.910172 907.203125,587.785156 L907.203125,585.441406 C907.203125,580.350235 908.361968,576.408217 910.679688,573.615234 C912.997407,570.822252 916.285135,569.39974 920.542969,569.347656 L921.128906,569.347656 Z M916.265625,581.339844 C914.781243,581.339844 913.397793,581.779292 912.115234,582.658203 C910.832676,583.537114 909.976565,584.653639 909.546875,586.007812 L909.546875,588 C909.546875,590.473971 910.181634,592.49218 911.451172,594.054688 C912.720709,595.617195 914.371084,596.398438 916.402344,596.398438 C918.22527,596.398438 919.699864,595.675788 920.826172,594.230469 C921.95248,592.785149 922.515625,590.962251 922.515625,588.761719 C922.515625,586.522124 921.95248,584.725267 920.826172,583.371094 C919.699864,582.01692 918.179697,581.339844 916.265625,581.339844 L916.265625,581.339844 Z M934.703125,582.511719 L937.125,582.511719 C938.466153,582.511719 939.638016,582.274091 940.640625,581.798828 C941.643234,581.323565 942.4082,580.67253 942.935547,579.845703 C943.462893,579.018876 943.726562,578.06511 943.726562,576.984375 C943.726562,575.161449 943.212245,573.735682 942.183594,572.707031 C941.154943,571.67838 939.677093,571.164062 937.75,571.164062 C935.927074,571.164062 934.432949,571.701167 933.267578,572.775391 C932.102208,573.849615 931.519531,575.265616 931.519531,577.023438 L929.175781,577.023438 C929.175781,575.552076 929.546871,574.207688 930.289062,572.990234 C931.031254,571.77278 932.059889,570.832035 933.375,570.167969 C934.690111,569.503903 936.148429,569.171875 937.75,569.171875 C940.328138,569.171875 942.359368,569.874993 943.84375,571.28125 C945.328132,572.687507 946.070312,574.614571 946.070312,577.0625 C946.070312,578.429694 945.637374,579.689447 944.771484,580.841797 C943.905595,581.994146 942.717455,582.856768 941.207031,583.429688 C942.977873,583.924482 944.319006,584.774083 945.230469,585.978516 C946.141932,587.182949 946.597656,588.618481 946.597656,590.285156 C946.597656,592.720064 945.803393,594.67968 944.214844,596.164062 C942.626294,597.648445 940.50392,598.390625 937.847656,598.390625 C936.154939,598.390625 934.602221,598.052087 933.189453,597.375 C931.776686,596.697913 930.682947,595.750657 929.908203,594.533203 C929.13346,593.315749 928.746094,591.899748 928.746094,590.285156 L931.089844,590.285156 C931.089844,592.095061 931.721348,593.569656 932.984375,594.708984 C934.247402,595.848313 935.86848,596.417969 937.847656,596.417969 C939.865896,596.417969 941.438145,595.900396 942.564453,594.865234 C943.690761,593.830073 944.253906,592.329437 944.253906,590.363281 C944.253906,588.46223 943.645188,587.010422 942.427734,586.007812 C941.21028,585.005203 939.416679,584.503906 937.046875,584.503906 L934.703125,584.503906 L934.703125,582.511719 Z" id="tooky@cucumber.io" fill="#1B1D1E" sketch:type="MSShapeGroup"></path>
            <path d="M711.636719,442.675781 C711.636719,441.425775 711.19727,440.462243 710.318359,439.785156 C709.439449,439.10807 707.854178,438.424483 705.5625,437.734375 C703.270822,437.044267 701.447923,436.276046 700.09375,435.429688 C697.502591,433.802075 696.207031,431.679701 696.207031,429.0625 C696.207031,426.770822 697.141267,424.88282 699.009766,423.398438 C700.878265,421.914055 703.303371,421.171875 706.285156,421.171875 C708.264333,421.171875 710.028638,421.536455 711.578125,422.265625 C713.127612,422.994795 714.345048,424.033196 715.230469,425.380859 C716.11589,426.728522 716.558594,428.222648 716.558594,429.863281 L711.636719,429.863281 C711.636719,428.378899 711.171229,427.216801 710.240234,426.376953 C709.30924,425.537105 707.977873,425.117188 706.246094,425.117188 C704.631502,425.117188 703.37826,425.462236 702.486328,426.152344 C701.594397,426.842451 701.148438,427.805983 701.148438,429.042969 C701.148438,430.084641 701.630204,430.953773 702.59375,431.650391 C703.557296,432.347009 705.145822,433.024085 707.359375,433.681641 C709.572928,434.339196 711.350254,435.087886 712.691406,435.927734 C714.032559,436.767582 715.015622,437.731114 715.640625,438.818359 C716.265628,439.905604 716.578125,441.178378 716.578125,442.636719 C716.578125,445.006522 715.669931,446.891269 713.853516,448.291016 C712.0371,449.690762 709.572932,450.390625 706.460938,450.390625 C704.403636,450.390625 702.512378,450.009769 700.787109,449.248047 C699.06184,448.486324 697.720708,447.434903 696.763672,446.09375 C695.806636,444.752597 695.328125,443.190113 695.328125,441.40625 L700.269531,441.40625 C700.269531,443.020841 700.80338,444.270829 701.871094,445.15625 C702.938807,446.041671 704.46874,446.484375 706.460938,446.484375 C708.179696,446.484375 709.472001,446.136071 710.337891,445.439453 C711.20378,444.742835 711.636719,443.82162 711.636719,442.675781 L711.636719,442.675781 Z M741.460938,425.546875 L732.59375,425.546875 L732.59375,450 L727.691406,450 L727.691406,425.546875 L718.902344,425.546875 L718.902344,421.5625 L741.460938,421.5625 L741.460938,425.546875 Z M761.8125,437.304688 L750.132812,437.304688 L750.132812,446.054688 L763.785156,446.054688 L763.785156,450 L745.191406,450 L745.191406,421.5625 L763.648438,421.5625 L763.648438,425.546875 L750.132812,425.546875 L750.132812,433.398438 L761.8125,433.398438 L761.8125,437.304688 Z M777.828125,443.808594 L785.054688,421.5625 L790.484375,421.5625 L780.25,450 L775.464844,450 L765.269531,421.5625 L770.679688,421.5625 L777.828125,443.808594 Z M810.308594,437.304688 L798.628906,437.304688 L798.628906,446.054688 L812.28125,446.054688 L812.28125,450 L793.6875,450 L793.6875,421.5625 L812.144531,421.5625 L812.144531,425.546875 L798.628906,425.546875 L798.628906,433.398438 L810.308594,433.398438 L810.308594,437.304688 Z M845.640625,425.546875 L836.773438,425.546875 L836.773438,450 L831.871094,450 L831.871094,425.546875 L823.082031,425.546875 L823.082031,421.5625 L845.640625,421.5625 L845.640625,425.546875 Z M871.519531,436.523438 C871.519531,439.30991 871.037765,441.754547 870.074219,443.857422 C869.110672,445.960297 867.733733,447.574864 865.943359,448.701172 C864.152986,449.82748 862.09246,450.390625 859.761719,450.390625 C857.45702,450.390625 855.403004,449.82748 853.599609,448.701172 C851.796215,447.574864 850.403,445.970062 849.419922,443.886719 C848.436844,441.803375 847.938802,439.401055 847.925781,436.679688 L847.925781,435.078125 C847.925781,432.304674 848.417313,429.856781 849.400391,427.734375 C850.383468,425.611969 851.770173,423.987636 853.560547,422.861328 C855.35092,421.73502 857.404936,421.171875 859.722656,421.171875 C862.040376,421.171875 864.094392,421.72851 865.884766,422.841797 C867.675139,423.955084 869.058589,425.55663 870.035156,427.646484 C871.011724,429.736339 871.50651,432.167955 871.519531,434.941406 L871.519531,436.523438 Z M866.578125,435.039062 C866.578125,431.888005 865.982428,429.472665 864.791016,427.792969 C863.599603,426.113273 861.910167,425.273438 859.722656,425.273438 C857.587229,425.273438 855.917324,426.110018 854.712891,427.783203 C853.508458,429.456389 852.893229,431.822901 852.867188,434.882812 L852.867188,436.523438 C852.867188,439.648453 853.475905,442.063794 854.693359,443.769531 C855.910813,445.475269 857.60025,446.328125 859.761719,446.328125 C861.94923,446.328125 863.632156,445.4948 864.810547,443.828125 C865.988938,442.16145 866.578125,439.726579 866.578125,436.523438 L866.578125,435.039062 Z M899.136719,436.523438 C899.136719,439.30991 898.654953,441.754547 897.691406,443.857422 C896.72786,445.960297 895.35092,447.574864 893.560547,448.701172 C891.770173,449.82748 889.709647,450.390625 887.378906,450.390625 C885.074207,450.390625 883.020191,449.82748 881.216797,448.701172 C879.413402,447.574864 878.020187,445.970062 877.037109,443.886719 C876.054032,441.803375 875.55599,439.401055 875.542969,436.679688 L875.542969,435.078125 C875.542969,432.304674 876.0345,429.856781 877.017578,427.734375 C878.000656,425.611969 879.387361,423.987636 881.177734,422.861328 C882.968108,421.73502 885.022124,421.171875 887.339844,421.171875 C889.657564,421.171875 891.71158,421.72851 893.501953,422.841797 C895.292327,423.955084 896.675776,425.55663 897.652344,427.646484 C898.628911,429.736339 899.123698,432.167955 899.136719,434.941406 L899.136719,436.523438 Z M894.195312,435.039062 C894.195312,431.888005 893.599615,429.472665 892.408203,427.792969 C891.216791,426.113273 889.527355,425.273438 887.339844,425.273438 C885.204416,425.273438 883.534511,426.110018 882.330078,427.783203 C881.125645,429.456389 880.510417,431.822901 880.484375,434.882812 L880.484375,436.523438 C880.484375,439.648453 881.093093,442.063794 882.310547,443.769531 C883.528001,445.475269 885.217437,446.328125 887.378906,446.328125 C889.566417,446.328125 891.249343,445.4948 892.427734,443.828125 C893.606126,442.16145 894.195312,439.726579 894.195312,436.523438 L894.195312,435.039062 Z M912.222656,437.714844 L909,441.132812 L909,450 L904.058594,450 L904.058594,421.5625 L909,421.5625 L909,434.902344 L911.734375,431.523438 L920.054688,421.5625 L926.03125,421.5625 L915.464844,434.160156 L926.636719,450 L920.777344,450 L912.222656,437.714844 Z M945.894531,437.304688 L934.214844,437.304688 L934.214844,446.054688 L947.867188,446.054688 L947.867188,450 L929.273438,450 L929.273438,421.5625 L947.730469,421.5625 L947.730469,425.546875 L934.214844,425.546875 L934.214844,433.398438 L945.894531,433.398438 L945.894531,437.304688 Z" id="STEVE-TOOKE" fill="#1B1D1E" sketch:type="MSShapeGroup"></path>
            <g id="Cucumber-logo" sketch:type="MSLayerGroup" transform="translate(90.000000, 90.000000)">
                <g id="g6053" sketch:type="MSShapeGroup">
                    <path d="M418.718234,69.6015101 C413.085253,69.6015101 409.517698,72.4328859 406.888974,76.7743289 C406.888974,75.6417785 407.452272,74.3204698 407.452272,73.3766779 L407.452272,71.489094 L398.063971,71.489094 L398.063971,118.678691 L407.452272,118.678691 L407.452272,91.4974832 C407.452272,83.7583893 411.583125,79.0394295 418.718234,79.0394295 L420.595894,79.0394295 L420.595894,69.6015101 L418.718234,69.6015101 L418.718234,69.6015101 Z" id="path5443" fill="#000000"></path>
                    <path d="M36.9899067,86.9672819 C34.3611824,82.8145973 30.6058619,79.9832215 25.1606472,79.9832215 C16.5234101,79.9832215 10.3271313,86.5897651 10.3271313,94.8951342 C10.3271313,103.200503 16.5234101,109.807047 25.1606472,109.807047 C30.6058619,109.807047 34.3611824,107.16443 36.9899067,103.011745 L45.6271438,108.108221 C41.4962913,114.526007 33.7978843,119.244966 25.1606472,119.244966 C9.20053518,119.244966 7.10542736e-15,107.16443 7.10542736e-15,95.0838926 C7.10542736e-15,83.0033557 9.3883012,70.9228188 25.1606472,70.9228188 C34.9244805,70.9228188 41.1207593,75.6417785 45.6271438,82.0595638 L36.9899067,86.9672819 L36.9899067,86.9672819 Z" id="path5445" fill="#000000"></path>
                    <path d="M53.8888489,72.0553691 L63.6526822,72.0553691 L63.6526822,97.7265101 C63.6526822,104.521812 68.5345988,109.240772 74.7308776,109.240772 C80.7393903,109.240772 85.809073,104.333054 85.809073,97.7265101 L85.809073,72.0553691 L95.5729062,72.0553691 L95.5729062,98.4815436 C95.5729062,111.317114 85.621307,119.056208 74.7308776,119.056208 C63.8404482,119.056208 53.8888489,111.317114 53.8888489,98.4815436 L53.8888489,72.0553691 L53.8888489,72.0553691 Z" id="path5447" fill="#000000"></path>
                    <path d="M141.387816,86.9672819 C138.759092,82.8145973 135.003771,79.9832215 129.558557,79.9832215 C120.921319,79.9832215 114.725041,86.5897651 114.725041,94.8951342 C114.725041,103.200503 120.921319,109.807047 129.558557,109.807047 C135.003771,109.807047 138.759092,107.16443 141.387816,103.011745 L150.025053,108.108221 C145.894201,114.526007 138.195794,119.244966 129.558557,119.244966 C113.598445,119.244966 104.397909,107.16443 104.397909,95.0838926 C104.397909,83.0033557 113.598445,70.9228188 129.558557,70.9228188 C139.32239,70.9228188 145.518669,75.6417785 150.025053,82.0595638 L141.387816,86.9672819 L141.387816,86.9672819 Z" id="path5449" fill="#000000"></path>
                    <path d="M158.286758,72.0553691 L168.050592,72.0553691 L168.050592,97.7265101 C168.050592,104.521812 172.932508,109.240772 179.128787,109.240772 C185.1373,109.240772 190.206982,104.333054 190.206982,97.7265101 L190.206982,72.0553691 L199.970816,72.0553691 L199.970816,98.4815436 C199.970816,111.317114 190.019216,119.056208 179.128787,119.056208 C168.238358,119.056208 158.286758,111.317114 158.286758,98.4815436 L158.286758,72.0553691 L158.286758,72.0553691 Z" id="path5451" fill="#000000"></path>
                    <path d="M212.175607,89.2323826 C212.175607,77.5293624 219.874014,70.9228188 228.886783,70.9228188 C235.834126,70.9228188 240.716043,74.3204698 242.593703,79.0394295 L242.781469,79.0394295 C244.659129,74.1317114 249.541046,70.9228188 256.488389,70.9228188 C265.501158,70.9228188 273.199565,77.7181208 273.199565,89.2323826 L273.199565,117.923658 L263.435732,117.923658 L263.435732,89.2323826 C263.435732,83.7583893 260.055943,80.5494966 255.925091,80.5494966 C251.23094,80.5494966 247.851152,83.3808725 247.851152,90.5536913 L247.851152,117.734899 L238.087319,117.734899 L238.087319,90.5536913 C238.087319,83.3808725 234.70753,80.5494966 230.013379,80.5494966 C225.882527,80.5494966 222.502739,83.7583893 222.502739,89.2323826 L222.502739,117.734899 L212.175607,117.734899 L212.175607,89.2323826 L212.175607,89.2323826 Z" id="path5453" fill="#000000"></path>
                    <path d="M285.216591,58.4647651 L294.980424,58.4647651 L294.980424,77.7181208 L295.16819,77.7181208 C297.421382,73.942953 303.617661,70.9228188 310.001706,70.9228188 C321.830965,70.9228188 333.660225,79.7944631 333.660225,95.0838926 C333.660225,110.373322 321.830965,119.244966 310.001706,119.244966 C303.617661,119.244966 297.421382,116.224832 295.16819,112.449664 L294.980424,112.449664 L294.980424,118.112416 L285.216591,118.112416 L285.216591,58.4647651 L285.216591,58.4647651 Z M309.062876,80.1719799 C300.988937,80.1719799 294.980424,86.5897651 294.980424,95.0838926 C294.980424,103.57802 300.988937,109.995805 309.062876,109.995805 C317.324581,109.995805 323.333093,103.57802 323.333093,95.0838926 C323.333093,86.4010067 317.324581,80.1719799 309.062876,80.1719799 L309.062876,80.1719799 Z" id="path5455" fill="#000000"></path>
                    <path d="M386.234711,107.919463 C380.789497,114.903523 373.278856,119.056208 365.017151,119.056208 C349.057039,119.056208 339.856504,106.975671 339.856504,94.8951342 C339.856504,82.8145973 349.244805,70.9228188 365.017151,70.9228188 C374.405452,70.9228188 388.67567,78.8506711 388.67567,96.5939597 L388.67567,98.2927852 L350.934699,98.2927852 C351.497997,105.276846 358.069808,110.373322 364.829385,110.373322 C370.086833,110.373322 374.593218,107.730705 377.973006,103.200503 L386.234711,107.919463 L386.234711,107.919463 Z M377.221942,90.1761745 C375.156516,83.1921141 370.086833,79.4169463 363.702789,79.4169463 C357.50651,79.4169463 352.436827,83.3808725 350.746933,90.1761745 L377.221942,90.1761745 L377.221942,90.1761745 Z" id="path5457" fill="#000000"></path>
                    <path d="M447.243798,0.741736158 C430.249972,0.741736158 416.497112,14.5672813 416.497112,31.6509224 C416.497112,46.6920176 427.222399,59.1896539 441.37611,61.9702387 L441.37611,70.8182882 C459.777357,68.0293792 476.070549,53.3451714 477.286362,34.0693893 C478.01818,22.466983 472.263705,10.6223286 462.558465,4.87082592 C462.002799,4.5415288 461.438245,4.21462173 460.856835,3.92703398 C460.264403,3.63399451 459.656051,3.34839211 459.037852,3.10121602 C458.841617,3.01869425 458.649337,2.94383381 458.451083,2.86526804 C457.911148,2.66489818 457.366334,2.4392664 456.80813,2.27539807 C453.799504,1.27851613 450.58333,0.741736158 447.243798,0.741736158 L447.243798,0.741736158 Z" id="path3943" fill="#00A818"></path>
                    <path d="M453.580902,12.1852135 C452.529119,12.0768247 451.421592,12.4447563 450.647057,13.3649534 C450.083759,14.119987 449.731698,14.8514258 449.356166,15.6064593 C448.22957,18.2490768 448.605102,21.0804526 450.294996,23.1567949 C452.92372,22.5905197 455.153442,20.9034916 456.280038,18.2608742 C456.65557,17.5058406 456.866807,16.5384539 456.866807,15.7834203 C456.984161,13.7778624 455.333874,12.3658611 453.580902,12.1852135 L453.580902,12.1852135 Z M439.909188,12.3621745 C438.194723,12.5262322 436.564606,13.8958364 436.564606,15.7834203 C436.564606,16.5384539 436.775842,17.5058406 437.151374,18.2608742 C438.277971,20.9034916 440.683723,22.5905197 443.312447,23.1567949 C444.814575,21.0804526 445.201843,18.2490768 444.075247,15.6064593 C443.699715,14.8514258 443.347653,14.1081896 442.784355,13.5419144 C442.00982,12.6217173 440.937868,12.26374 439.909188,12.3621745 L439.909188,12.3621745 Z M430.696917,21.446172 C427.736027,21.5989341 426.413505,25.3393138 428.877934,27.2858846 C429.628998,27.8521598 430.356591,28.2650688 431.107656,28.6425856 C433.73638,29.7751359 436.775842,29.3858217 439.029035,27.8757546 C438.465737,25.4218956 436.55287,23.1685923 433.924146,22.0360419 C432.985316,21.6585252 432.222516,21.446172 431.283686,21.446172 C431.072449,21.4225772 430.89431,21.435979 430.696917,21.446172 L430.696917,21.446172 Z M459.62462,32.8896493 C457.904654,32.8564656 456.162684,33.3615453 454.754439,34.3053372 C455.317737,36.7591963 457.230604,39.0124996 459.859328,40.1450499 C460.798158,40.5225667 461.560958,40.7349199 462.499788,40.7349199 C465.879576,40.9236783 467.534264,36.7238041 464.90554,34.8362202 C464.154476,34.2699451 463.426882,33.9160231 462.675818,33.5385063 C461.690047,33.1137999 460.656599,32.9095577 459.62462,32.8896493 L459.62462,32.8896493 Z M433.982823,33.0666103 C432.950843,33.0865243 431.917397,33.2907609 430.931625,33.7154673 C429.992795,34.0929841 429.265201,34.505893 428.701903,35.0721682 C426.260945,37.1485105 427.903898,41.1006393 431.283686,40.9118809 C432.222516,40.9118809 433.173082,40.6995277 433.924146,40.3220109 C436.55287,39.1894606 438.418795,36.9361573 438.794327,34.4822982 C437.386082,33.5385063 435.70279,33.0334304 433.982823,33.0666103 L433.982823,33.0666103 Z M443.488478,38.847336 C440.859753,39.4136112 438.630032,41.1006393 437.503436,43.7432567 C437.127904,44.4982903 436.916667,45.40669 436.916667,46.1617236 C436.728901,49.3706162 441.082726,51.0930365 442.960386,48.6391774 C443.523684,47.8841439 443.875745,47.1527051 444.251277,46.3976716 C445.377873,43.9438125 444.990606,41.1124367 443.488478,38.847336 L443.488478,38.847336 Z M450.471027,39.024297 C448.968899,41.1006393 448.581631,43.9320151 449.708227,46.5746326 C450.083759,47.3296661 450.435821,48.0729023 450.999119,48.6391774 C453.064545,50.9042781 457.406634,49.2290474 457.218868,46.3976716 C457.218868,45.642638 457.007631,44.6752513 456.632099,43.9202177 C455.505503,41.2776003 453.099751,39.5905721 450.471027,39.024297 L450.471027,39.024297 Z" id="rect4005" fill="#FFFFFF"></path>
                </g>
            </g>
            <path d="M99.1132812,594.601562 C100.298183,594.601562 101.281246,594.256514 102.0625,593.566406 C102.843754,592.876299 103.260416,592.023443 103.3125,591.007812 L107.785156,591.007812 C107.733073,592.322923 107.322921,593.550125 106.554688,594.689453 C105.786454,595.828782 104.744798,596.730465 103.429688,597.394531 C102.114577,598.058597 100.69532,598.390625 99.171875,598.390625 C96.2161311,598.390625 93.8724045,597.433603 92.140625,595.519531 C90.4088455,593.605459 89.5429688,590.962256 89.5429688,587.589844 L89.5429688,587.101562 C89.5429688,583.885401 90.4023352,581.310557 92.1210938,579.376953 C93.8398523,577.44335 96.1835789,576.476562 99.1523438,576.476562 C101.665377,576.476562 103.712883,577.208977 105.294922,578.673828 C106.876961,580.138679 107.707031,582.062488 107.785156,584.445312 L103.3125,584.445312 C103.260416,583.234369 102.847009,582.238285 102.072266,581.457031 C101.297522,580.675777 100.311204,580.285156 99.1132812,580.285156 C97.5768152,580.285156 96.3919312,580.841791 95.5585938,581.955078 C94.7252563,583.068365 94.3020834,584.757801 94.2890625,587.023438 L94.2890625,587.785156 C94.2890625,590.076834 94.7024698,591.785802 95.5292969,592.912109 C96.3561239,594.038417 97.5507734,594.601562 99.1132812,594.601562 L99.1132812,594.601562 Z M124.171875,595.929688 C122.778639,597.570321 120.799492,598.390625 118.234375,598.390625 C115.942697,598.390625 114.207688,597.720059 113.029297,596.378906 C111.850906,595.037754 111.261719,593.097669 111.261719,590.558594 L111.261719,576.867188 L116.007812,576.867188 L116.007812,590.5 C116.007812,593.182305 117.121083,594.523438 119.347656,594.523438 C121.652355,594.523438 123.208329,593.696623 124.015625,592.042969 L124.015625,576.867188 L128.761719,576.867188 L128.761719,598 L124.289062,598 L124.171875,595.929688 Z M142.277344,594.601562 C143.462246,594.601562 144.445309,594.256514 145.226562,593.566406 C146.007816,592.876299 146.424479,592.023443 146.476562,591.007812 L150.949219,591.007812 C150.897135,592.322923 150.486983,593.550125 149.71875,594.689453 C148.950517,595.828782 147.908861,596.730465 146.59375,597.394531 C145.278639,598.058597 143.859383,598.390625 142.335938,598.390625 C139.380194,598.390625 137.036467,597.433603 135.304688,595.519531 C133.572908,593.605459 132.707031,590.962256 132.707031,587.589844 L132.707031,587.101562 C132.707031,583.885401 133.566398,581.310557 135.285156,579.376953 C137.003915,577.44335 139.347641,576.476562 142.316406,576.476562 C144.82944,576.476562 146.876945,577.208977 148.458984,578.673828 C150.041024,580.138679 150.871093,582.062488 150.949219,584.445312 L146.476562,584.445312 C146.424479,583.234369 146.011072,582.238285 145.236328,581.457031 C144.461585,580.675777 143.475266,580.285156 142.277344,580.285156 C140.740878,580.285156 139.555994,580.841791 138.722656,581.955078 C137.889319,583.068365 137.466146,584.757801 137.453125,587.023438 L137.453125,587.785156 C137.453125,590.076834 137.866532,591.785802 138.693359,592.912109 C139.520186,594.038417 140.714836,594.601562 142.277344,594.601562 L142.277344,594.601562 Z M167.335938,595.929688 C165.942701,597.570321 163.963554,598.390625 161.398438,598.390625 C159.106759,598.390625 157.371751,597.720059 156.193359,596.378906 C155.014968,595.037754 154.425781,593.097669 154.425781,590.558594 L154.425781,576.867188 L159.171875,576.867188 L159.171875,590.5 C159.171875,593.182305 160.285145,594.523438 162.511719,594.523438 C164.816418,594.523438 166.372392,593.696623 167.179688,592.042969 L167.179688,576.867188 L171.925781,576.867188 L171.925781,598 L167.453125,598 L167.335938,595.929688 Z M181.222656,576.867188 L181.359375,579.074219 C182.843757,577.342439 184.874987,576.476562 187.453125,576.476562 C190.27866,576.476562 192.212234,577.557281 193.253906,579.71875 C194.790372,577.557281 196.951809,576.476562 199.738281,576.476562 C202.069022,576.476562 203.804031,577.121087 204.943359,578.410156 C206.082688,579.699225 206.665364,581.600248 206.691406,584.113281 L206.691406,598 L201.945312,598 L201.945312,584.25 C201.945312,582.908847 201.652347,581.925784 201.066406,581.300781 C200.480466,580.675778 199.510423,580.363281 198.15625,580.363281 C197.075515,580.363281 196.193363,580.652992 195.509766,581.232422 C194.826168,581.811852 194.347658,582.570308 194.074219,583.507812 L194.09375,598 L189.347656,598 L189.347656,584.09375 C189.282552,581.606758 188.013033,580.363281 185.539062,580.363281 C183.638011,580.363281 182.290369,581.138013 181.496094,582.6875 L181.496094,598 L176.75,598 L176.75,576.867188 L181.222656,576.867188 Z M230.109375,587.648438 C230.109375,590.929704 229.37696,593.540355 227.912109,595.480469 C226.447258,597.420583 224.432304,598.390625 221.867188,598.390625 C219.393217,598.390625 217.466153,597.498707 216.085938,595.714844 L215.851562,598 L211.554688,598 L211.554688,568 L216.300781,568 L216.300781,578.898438 C217.667976,577.283846 219.510405,576.476562 221.828125,576.476562 C224.406263,576.476562 226.430982,577.433584 227.902344,579.347656 C229.373705,581.261728 230.109375,583.937483 230.109375,587.375 L230.109375,587.648438 Z M225.363281,587.238281 C225.363281,584.946603 224.959639,583.22787 224.152344,582.082031 C223.345048,580.936192 222.173185,580.363281 220.636719,580.363281 C218.579417,580.363281 217.134119,581.26171 216.300781,583.058594 L216.300781,591.769531 C217.14714,593.605478 218.605458,594.523438 220.675781,594.523438 C222.160164,594.523438 223.305986,593.970058 224.113281,592.863281 C224.920577,591.756505 225.337239,590.083345 225.363281,587.84375 L225.363281,587.238281 Z M243.390625,598.390625 C240.382797,598.390625 237.944671,597.443369 236.076172,595.548828 C234.207673,593.654287 233.273438,591.131526 233.273438,587.980469 L233.273438,587.394531 C233.273438,585.285146 233.680334,583.400399 234.494141,581.740234 C235.307947,580.08007 236.450513,578.787765 237.921875,577.863281 C239.393237,576.938797 241.033845,576.476562 242.84375,576.476562 C245.721369,576.476562 247.944654,577.394522 249.513672,579.230469 C251.08269,581.066415 251.867188,583.664046 251.867188,587.023438 L251.867188,588.9375 L238.058594,588.9375 C238.201824,590.6823 238.7845,592.062495 239.806641,593.078125 C240.828781,594.093755 242.114576,594.601562 243.664062,594.601562 C245.838553,594.601562 247.609368,593.722665 248.976562,591.964844 L251.535156,594.40625 C250.688798,595.669277 249.559252,596.649085 248.146484,597.345703 C246.733717,598.042321 245.148446,598.390625 243.390625,598.390625 L243.390625,598.390625 Z M242.824219,580.285156 C241.522129,580.285156 240.470707,580.740881 239.669922,581.652344 C238.869137,582.563807 238.358074,583.833325 238.136719,585.460938 L247.179688,585.460938 L247.179688,585.109375 C247.07552,583.520825 246.652347,582.319666 245.910156,581.505859 C245.167965,580.692053 244.139329,580.285156 242.824219,580.285156 L242.824219,580.285156 Z M266.613281,581.203125 C265.988278,581.098958 265.343753,581.046875 264.679688,581.046875 C262.505197,581.046875 261.040368,581.8802 260.285156,583.546875 L260.285156,598 L255.539062,598 L255.539062,576.867188 L260.070312,576.867188 L260.1875,579.230469 C261.333339,577.394522 262.921865,576.476562 264.953125,576.476562 C265.630212,576.476562 266.190102,576.567707 266.632812,576.75 L266.613281,581.203125 Z M269.191406,593 C270.076827,593 270.760414,593.250649 271.242188,593.751953 C271.723961,594.253258 271.964844,594.881507 271.964844,595.636719 C271.964844,596.37891 271.723961,596.994138 271.242188,597.482422 C270.760414,597.970706 270.076827,598.214844 269.191406,598.214844 C268.345048,598.214844 267.674482,597.973961 267.179688,597.492188 C266.684893,597.010414 266.4375,596.391931 266.4375,595.636719 C266.4375,594.881507 266.678383,594.253258 267.160156,593.751953 C267.641929,593.250649 268.319006,593 269.191406,593 L269.191406,593 Z M282.453125,598 L277.707031,598 L277.707031,576.867188 L282.453125,576.867188 L282.453125,598 Z M277.414062,571.378906 C277.414062,570.649736 277.64518,570.044273 278.107422,569.5625 C278.569664,569.080727 279.230464,568.839844 280.089844,568.839844 C280.949223,568.839844 281.613279,569.080727 282.082031,569.5625 C282.550784,570.044273 282.785156,570.649736 282.785156,571.378906 C282.785156,572.095056 282.550784,572.690753 282.082031,573.166016 C281.613279,573.641278 280.949223,573.878906 280.089844,573.878906 C279.230464,573.878906 278.569664,573.641278 278.107422,573.166016 C277.64518,572.690753 277.414062,572.095056 277.414062,571.378906 L277.414062,571.378906 Z M286.730469,587.238281 C286.730469,585.167958 287.140621,583.302743 287.960938,581.642578 C288.781254,579.982414 289.933586,578.706385 291.417969,577.814453 C292.902351,576.922522 294.608063,576.476562 296.535156,576.476562 C299.386733,576.476562 301.701163,577.394522 303.478516,579.230469 C305.255868,581.066415 306.216145,583.501287 306.359375,586.535156 L306.378906,587.648438 C306.378906,589.731781 305.97852,591.593742 305.177734,593.234375 C304.376949,594.875008 303.231127,596.144527 301.740234,597.042969 C300.249342,597.941411 298.527354,598.390625 296.574219,598.390625 C293.592433,598.390625 291.206389,597.397796 289.416016,595.412109 C287.625642,593.426422 286.730469,590.779964 286.730469,587.472656 L286.730469,587.238281 Z M291.476562,587.648438 C291.476562,589.822928 291.925777,591.525384 292.824219,592.755859 C293.722661,593.986334 294.972648,594.601562 296.574219,594.601562 C298.175789,594.601562 299.422522,593.976569 300.314453,592.726562 C301.206385,591.476556 301.652344,589.647147 301.652344,587.238281 C301.652344,585.102854 301.193364,583.410162 300.275391,582.160156 C299.357417,580.91015 298.110685,580.285156 296.535156,580.285156 C294.985669,580.285156 293.755213,580.900384 292.84375,582.130859 C291.932287,583.361334 291.476562,585.200509 291.476562,587.648438 L291.476562,587.648438 Z M311.730469,600.441406 L308,600.441406 L319.191406,569.5625 L322.921875,569.5625 L311.730469,600.441406 Z M338.058594,592.257812 C338.058594,591.411454 337.71029,590.766929 337.013672,590.324219 C336.317054,589.881508 335.161466,589.490887 333.546875,589.152344 C331.932284,588.8138 330.584641,588.384117 329.503906,587.863281 C327.134103,586.717442 325.949219,585.057303 325.949219,582.882812 C325.949219,581.059887 326.71744,579.536464 328.253906,578.3125 C329.790372,577.088536 331.743478,576.476562 334.113281,576.476562 C336.639336,576.476562 338.680331,577.101556 340.236328,578.351562 C341.792325,579.601569 342.570312,581.222646 342.570312,583.214844 L337.824219,583.214844 C337.824219,582.303381 337.48568,581.544925 336.808594,580.939453 C336.131507,580.333981 335.233079,580.03125 334.113281,580.03125 C333.071609,580.03125 332.222008,580.272133 331.564453,580.753906 C330.906898,581.235679 330.578125,581.880204 330.578125,582.6875 C330.578125,583.41667 330.884112,583.983071 331.496094,584.386719 C332.108076,584.790367 333.345043,585.197264 335.207031,585.607422 C337.06902,586.01758 338.530594,586.505857 339.591797,587.072266 C340.653,587.638675 341.440753,588.319006 341.955078,589.113281 C342.469404,589.907556 342.726562,590.871088 342.726562,592.003906 C342.726562,593.904957 341.93881,595.444656 340.363281,596.623047 C338.787753,597.801438 336.723971,598.390625 334.171875,598.390625 C332.440096,598.390625 330.897142,598.078128 329.542969,597.453125 C328.188795,596.828122 327.134118,595.968755 326.378906,594.875 C325.623694,593.781245 325.246094,592.602871 325.246094,591.339844 L329.855469,591.339844 C329.920573,592.459641 330.343746,593.322263 331.125,593.927734 C331.906254,594.533206 332.9414,594.835938 334.230469,594.835938 C335.480475,594.835938 336.430986,594.59831 337.082031,594.123047 C337.733076,593.647784 338.058594,593.026046 338.058594,592.257812 L338.058594,592.257812 Z M352.804688,571.730469 L352.804688,576.867188 L356.535156,576.867188 L356.535156,580.382812 L352.804688,580.382812 L352.804688,592.179688 C352.804688,592.986983 352.964191,593.56966 353.283203,593.927734 C353.602215,594.285809 354.171871,594.464844 354.992188,594.464844 C355.539065,594.464844 356.092445,594.39974 356.652344,594.269531 L356.652344,597.941406 C355.571609,598.240887 354.529953,598.390625 353.527344,598.390625 C349.881492,598.390625 348.058594,596.378926 348.058594,592.355469 L348.058594,580.382812 L344.582031,580.382812 L344.582031,576.867188 L348.058594,576.867188 L348.058594,571.730469 L352.804688,571.730469 Z" id="cucumber.io/st" fill="#1B1D1E" sketch:type="MSShapeGroup"></path>
        </g>
    </g>
</svg>