<?xml version="1.0" encoding="UTF-8" standalone="no"?>
<svg width="1039px" height="697px" viewBox="0 0 1039 697" version="1.1" xmlns="http://www.w3.org/2000/svg" xmlns:xlink="http://www.w3.org/1999/xlink" xmlns:sketch="http://www.bohemiancoding.com/sketch/ns">
    <!-- Generator: Sketch 3.5.1 (25234) - http://www.bohemiancoding.com/sketch -->
    <title>Theo-Front</title>
    <desc>Created with Sketch.</desc>
    <defs></defs>
    <g id="Theo" stroke="none" stroke-width="1" fill="none" fill-rule="evenodd" sketch:type="MSPage">
        <g id="Theo-Front" sketch:type="MSArtboardGroup">
            <path d="M625.875,517.457031 L625.875,522.867188 L630.25,522.867188 L630.25,524.78125 L625.875,524.78125 L625.875,538.863281 C625.875,540.035162 626.086586,540.907549 626.509766,541.480469 C626.932945,542.053388 627.639318,542.339844 628.628906,542.339844 C629.019533,542.339844 629.651037,542.27474 630.523438,542.144531 L630.621094,544.058594 C630.009112,544.279949 629.175787,544.390625 628.121094,544.390625 C626.519523,544.390625 625.35417,543.925135 624.625,542.994141 C623.89583,542.063146 623.53125,540.692717 623.53125,538.882812 L623.53125,524.78125 L619.644531,524.78125 L619.644531,522.867188 L623.53125,522.867188 L623.53125,517.457031 L625.875,517.457031 Z M637.417969,526.441406 C638.186202,525.178379 639.169265,524.201826 640.367188,523.511719 C641.56511,522.821611 642.873691,522.476562 644.292969,522.476562 C646.558605,522.476562 648.244786,523.114577 649.351562,524.390625 C650.458339,525.666673 651.018229,527.580716 651.03125,530.132812 L651.03125,544 L648.707031,544 L648.707031,530.113281 C648.69401,528.225251 648.293624,526.819015 647.505859,525.894531 C646.718095,524.970047 645.458342,524.507812 643.726562,524.507812 C642.281243,524.507812 641.001959,524.960282 639.888672,525.865234 C638.775385,526.770187 637.951826,527.990878 637.417969,529.527344 L637.417969,544 L635.09375,544 L635.09375,514 L637.417969,514 L637.417969,526.441406 Z M665.230469,544.390625 C663.433585,544.390625 661.809252,543.947921 660.357422,543.0625 C658.905592,542.177079 657.776046,540.943367 656.96875,539.361328 C656.161454,537.779289 655.757812,536.005218 655.757812,534.039062 L655.757812,533.199219 C655.757812,531.167959 656.151689,529.33855 656.939453,527.710938 C657.727217,526.083325 658.824212,524.804041 660.230469,523.873047 C661.636726,522.942053 663.160148,522.476562 664.800781,522.476562 C667.365898,522.476562 669.400383,523.352205 670.904297,525.103516 C672.408211,526.854826 673.160156,529.247381 673.160156,532.28125 L673.160156,533.589844 L658.082031,533.589844 L658.082031,534.039062 C658.082031,536.434908 658.768873,538.430331 660.142578,540.025391 C661.516283,541.620451 663.244781,542.417969 665.328125,542.417969 C666.578131,542.417969 667.681636,542.190106 668.638672,541.734375 C669.595708,541.278644 670.46484,540.549484 671.246094,539.546875 L672.710938,540.660156 C670.992179,543.147148 668.498714,544.390625 665.230469,544.390625 L665.230469,544.390625 Z M664.800781,524.46875 C663.04296,524.46875 661.561855,525.113275 660.357422,526.402344 C659.152989,527.691413 658.420574,529.423166 658.160156,531.597656 L670.835938,531.597656 L670.835938,531.34375 C670.770833,529.31249 670.191412,527.658861 669.097656,526.382812 C668.003901,525.106764 666.571623,524.46875 664.800781,524.46875 L664.800781,524.46875 Z M676.421875,533.121094 C676.421875,531.089834 676.815751,529.260425 677.603516,527.632812 C678.39128,526.0052 679.50455,524.738937 680.943359,523.833984 C682.382169,522.929032 684.013012,522.476562 685.835938,522.476562 C688.648452,522.476562 690.927075,523.462881 692.671875,525.435547 C694.416675,527.408213 695.289062,530.022119 695.289062,533.277344 L695.289062,533.765625 C695.289062,535.809906 694.895186,537.64908 694.107422,539.283203 C693.319658,540.917326 692.209643,542.177079 690.777344,543.0625 C689.345045,543.947921 687.710947,544.390625 685.875,544.390625 C683.075507,544.390625 680.800139,543.404307 679.048828,541.431641 C677.297517,539.458975 676.421875,536.845068 676.421875,533.589844 L676.421875,533.121094 Z M678.765625,533.765625 C678.765625,536.291679 679.419915,538.365226 680.728516,539.986328 C682.037116,541.60743 683.752594,542.417969 685.875,542.417969 C687.984386,542.417969 689.693353,541.60743 691.001953,539.986328 C692.310553,538.365226 692.964844,536.226576 692.964844,533.570312 L692.964844,533.121094 C692.964844,531.506502 692.665368,530.028653 692.066406,528.6875 C691.467445,527.346347 690.62761,526.307946 689.546875,525.572266 C688.46614,524.836585 687.229174,524.46875 685.835938,524.46875 C683.752594,524.46875 682.053392,525.285799 680.738281,526.919922 C679.423171,528.554045 678.765625,530.692695 678.765625,533.335938 L678.765625,533.765625 Z M731.324219,533.980469 C731.259114,535.894541 730.907555,537.668612 730.269531,539.302734 C729.631507,540.936857 728.749355,542.193355 727.623047,543.072266 C726.496739,543.951176 725.191414,544.390625 723.707031,544.390625 C722.444004,544.390625 721.415369,544.058597 720.621094,543.394531 C719.826819,542.730465 719.29948,541.799485 719.039062,540.601562 C717.632805,543.127617 715.692721,544.390625 713.21875,544.390625 C711.395824,544.390625 710.035161,543.602872 709.136719,542.027344 C708.238277,540.451815 707.906249,538.32944 708.140625,535.660156 C708.335938,533.53775 708.82096,531.646493 709.595703,529.986328 C710.370447,528.326164 711.379551,527.030604 712.623047,526.099609 C713.866543,525.168615 715.19791,524.703125 716.617188,524.703125 C717.619797,524.703125 718.498694,524.843098 719.253906,525.123047 C720.009118,525.402996 720.888016,525.966142 721.890625,526.8125 L720.894531,537.945312 C720.764322,539.455737 720.956378,540.6276 721.470703,541.460938 C721.985029,542.294275 722.808588,542.710938 723.941406,542.710938 C725.542977,542.710938 726.841792,541.92644 727.837891,540.357422 C728.833989,538.788404 729.390624,536.662774 729.507812,533.980469 C729.75521,528.707005 728.752615,524.738946 726.5,522.076172 C724.247385,519.413398 720.83596,518.082031 716.265625,518.082031 C713.518215,518.082031 711.041027,518.768873 708.833984,520.142578 C706.626942,521.516283 704.885423,523.459623 703.609375,525.972656 C702.333327,528.48569 701.617188,531.382796 701.460938,534.664062 C701.304687,537.945329 701.737625,540.83267 702.759766,543.326172 C703.781906,545.819674 705.324859,547.736972 707.388672,549.078125 C709.452484,550.419278 711.910142,551.089844 714.761719,551.089844 C715.959641,551.089844 717.138015,550.946616 718.296875,550.660156 C719.455735,550.373696 720.425777,550.002606 721.207031,549.546875 L721.8125,551.109375 C721.070309,551.604169 720.035163,552.017576 718.707031,552.349609 C717.3789,552.681642 716.037767,552.847656 714.683594,552.847656 C711.428369,552.847656 708.628918,552.115242 706.285156,550.650391 C703.941395,549.18554 702.186855,547.076186 701.021484,544.322266 C699.856114,541.568346 699.351562,538.348977 699.507812,534.664062 C699.664063,531.044253 700.461581,527.837905 701.900391,525.044922 C703.3392,522.251939 705.308581,520.090502 707.808594,518.560547 C710.308606,517.030591 713.15363,516.265625 716.34375,516.265625 C719.664079,516.265625 722.476551,516.958977 724.78125,518.345703 C727.085949,519.732429 728.791661,521.760403 729.898438,524.429688 C731.005214,527.098972 731.48047,530.282534 731.324219,533.980469 L731.324219,533.980469 Z M710.210938,538.414062 C710.354167,539.716152 710.718747,540.722002 711.304688,541.431641 C711.890628,542.14128 712.66536,542.496094 713.628906,542.496094 C716.037772,542.496094 717.815098,540.835954 718.960938,537.515625 L719.839844,527.4375 C718.967444,526.799476 717.938808,526.480469 716.753906,526.480469 C715.308587,526.480469 714.055344,527.056635 712.994141,528.208984 C711.932937,529.361334 711.15495,530.94986 710.660156,532.974609 C710.165362,534.999359 710.015624,536.812492 710.210938,538.414062 L710.210938,538.414062 Z M744.449219,542.417969 C746.076831,542.417969 747.44075,541.958989 748.541016,541.041016 C749.641282,540.123042 750.236979,538.934903 750.328125,537.476562 L752.574219,537.476562 C752.509114,538.765631 752.105472,539.94075 751.363281,541.001953 C750.62109,542.063156 749.634772,542.893226 748.404297,543.492188 C747.173822,544.091149 745.855476,544.390625 744.449219,544.390625 C741.675767,544.390625 739.478524,543.427093 737.857422,541.5 C736.23632,539.572907 735.425781,536.981787 735.425781,533.726562 L735.425781,533.023438 C735.425781,530.940094 735.790361,529.097664 736.519531,527.496094 C737.248702,525.894523 738.293613,524.657556 739.654297,523.785156 C741.014981,522.912756 742.606762,522.476562 744.429688,522.476562 C746.747407,522.476562 748.658196,523.16666 750.162109,524.546875 C751.666023,525.92709 752.470052,527.743478 752.574219,529.996094 L750.328125,529.996094 C750.223958,528.34244 749.628261,527.007818 748.541016,525.992188 C747.453771,524.976557 746.083342,524.46875 744.429688,524.46875 C742.320302,524.46875 740.682949,525.230461 739.517578,526.753906 C738.352208,528.277351 737.769531,530.412747 737.769531,533.160156 L737.769531,533.84375 C737.769531,536.539076 738.352208,538.64192 739.517578,540.152344 C740.682949,541.662768 742.326812,542.417969 744.449219,542.417969 L744.449219,542.417969 Z M770.835938,541.324219 C769.42968,543.3685 767.183609,544.390625 764.097656,544.390625 C761.845041,544.390625 760.132818,543.736335 758.960938,542.427734 C757.789057,541.119134 757.190104,539.182304 757.164062,536.617188 L757.164062,522.867188 L759.488281,522.867188 L759.488281,536.324219 C759.488281,540.347676 761.115869,542.359375 764.371094,542.359375 C767.756527,542.359375 769.898433,540.959649 770.796875,538.160156 L770.796875,522.867188 L773.140625,522.867188 L773.140625,544 L770.875,544 L770.835938,541.324219 Z M787.027344,542.417969 C788.654956,542.417969 790.018875,541.958989 791.119141,541.041016 C792.219407,540.123042 792.815104,538.934903 792.90625,537.476562 L795.152344,537.476562 C795.087239,538.765631 794.683597,539.94075 793.941406,541.001953 C793.199215,542.063156 792.212897,542.893226 790.982422,543.492188 C789.751947,544.091149 788.433601,544.390625 787.027344,544.390625 C784.253892,544.390625 782.056649,543.427093 780.435547,541.5 C778.814445,539.572907 778.003906,536.981787 778.003906,533.726562 L778.003906,533.023438 C778.003906,530.940094 778.368486,529.097664 779.097656,527.496094 C779.826827,525.894523 780.871738,524.657556 782.232422,523.785156 C783.593106,522.912756 785.184887,522.476562 787.007812,522.476562 C789.325532,522.476562 791.236321,523.16666 792.740234,524.546875 C794.244148,525.92709 795.048177,527.743478 795.152344,529.996094 L792.90625,529.996094 C792.802083,528.34244 792.206386,527.007818 791.119141,525.992188 C790.031896,524.976557 788.661467,524.46875 787.007812,524.46875 C784.898427,524.46875 783.261074,525.230461 782.095703,526.753906 C780.930333,528.277351 780.347656,530.412747 780.347656,533.160156 L780.347656,533.84375 C780.347656,536.539076 780.930333,538.64192 782.095703,540.152344 C783.261074,541.662768 784.904937,542.417969 787.027344,542.417969 L787.027344,542.417969 Z M813.414062,541.324219 C812.007805,543.3685 809.761734,544.390625 806.675781,544.390625 C804.423166,544.390625 802.710943,543.736335 801.539062,542.427734 C800.367182,541.119134 799.768229,539.182304 799.742188,536.617188 L799.742188,522.867188 L802.066406,522.867188 L802.066406,536.324219 C802.066406,540.347676 803.693994,542.359375 806.949219,542.359375 C810.334652,542.359375 812.476558,540.959649 813.375,538.160156 L813.375,522.867188 L815.71875,522.867188 L815.71875,544 L813.453125,544 L813.414062,541.324219 Z M823.921875,522.867188 L824,526.304688 C824.781254,525.028639 825.757807,524.071618 826.929688,523.433594 C828.101568,522.79557 829.403639,522.476562 830.835938,522.476562 C834.169287,522.476562 836.285152,523.843736 837.183594,526.578125 C837.938806,525.263014 838.94791,524.250655 840.210938,523.541016 C841.473965,522.831377 842.86718,522.476562 844.390625,522.476562 C848.921898,522.476562 851.233072,524.950496 851.324219,529.898438 L851.324219,544 L848.980469,544 L848.980469,530.074219 C848.967448,528.186188 848.560551,526.786463 847.759766,525.875 C846.95898,524.963537 845.653655,524.507812 843.84375,524.507812 C842.164054,524.533854 840.744797,525.077469 839.585938,526.138672 C838.427078,527.199875 837.782553,528.49218 837.652344,530.015625 L837.652344,544 L835.308594,544 L835.308594,529.898438 C835.295573,528.088533 834.869145,526.737635 834.029297,525.845703 C833.189449,524.953772 831.897144,524.507812 830.152344,524.507812 C828.680982,524.507812 827.417974,524.92773 826.363281,525.767578 C825.308588,526.607426 824.527346,527.854158 824.019531,529.507812 L824.019531,544 L821.675781,544 L821.675781,522.867188 L823.921875,522.867188 Z M874.253906,533.648438 C874.253906,536.942725 873.524747,539.556631 872.066406,541.490234 C870.608066,543.423838 868.64845,544.390625 866.1875,544.390625 C863.244777,544.390625 861.018237,543.296886 859.507812,541.109375 L859.410156,544 L857.222656,544 L857.222656,514 L859.546875,514 L859.546875,525.933594 C861.031257,523.628895 863.231756,522.476562 866.148438,522.476562 C868.64845,522.476562 870.624342,523.430329 872.076172,525.337891 C873.528002,527.245452 874.253906,529.898421 874.253906,533.296875 L874.253906,533.648438 Z M871.910156,533.238281 C871.910156,530.451809 871.369797,528.300138 870.289062,526.783203 C869.208328,525.266268 867.684906,524.507812 865.71875,524.507812 C864.221347,524.507812 862.951828,524.875647 861.910156,525.611328 C860.868484,526.347009 860.080732,527.424472 859.546875,528.84375 L859.546875,538.375 C860.718756,541.031263 862.789048,542.359375 865.757812,542.359375 C867.684905,542.359375 869.192052,541.597664 870.279297,540.074219 C871.366542,538.550774 871.910156,536.272151 871.910156,533.238281 L871.910156,533.238281 Z M887.59375,544.390625 C885.796866,544.390625 884.172533,543.947921 882.720703,543.0625 C881.268873,542.177079 880.139327,540.943367 879.332031,539.361328 C878.524736,537.779289 878.121094,536.005218 878.121094,534.039062 L878.121094,533.199219 C878.121094,531.167959 878.51497,529.33855 879.302734,527.710938 C880.090499,526.083325 881.187493,524.804041 882.59375,523.873047 C884.000007,522.942053 885.523429,522.476562 887.164062,522.476562 C889.729179,522.476562 891.763664,523.352205 893.267578,525.103516 C894.771492,526.854826 895.523438,529.247381 895.523438,532.28125 L895.523438,533.589844 L880.445312,533.589844 L880.445312,534.039062 C880.445312,536.434908 881.132155,538.430331 882.505859,540.025391 C883.879564,541.620451 885.608062,542.417969 887.691406,542.417969 C888.941413,542.417969 890.044917,542.190106 891.001953,541.734375 C891.958989,541.278644 892.828121,540.549484 893.609375,539.546875 L895.074219,540.660156 C893.35546,543.147148 890.861996,544.390625 887.59375,544.390625 L887.59375,544.390625 Z M887.164062,524.46875 C885.406241,524.46875 883.925136,525.113275 882.720703,526.402344 C881.51627,527.691413 880.783855,529.423166 880.523438,531.597656 L893.199219,531.597656 L893.199219,531.34375 C893.134114,529.31249 892.554693,527.658861 891.460938,526.382812 C890.367182,525.106764 888.934905,524.46875 887.164062,524.46875 L887.164062,524.46875 Z M909.839844,524.859375 C909.34505,524.768229 908.817711,524.722656 908.257812,524.722656 C906.799472,524.722656 905.56576,525.129553 904.556641,525.943359 C903.547521,526.757166 902.828127,527.938794 902.398438,529.488281 L902.398438,544 L900.074219,544 L900.074219,522.867188 L902.359375,522.867188 L902.398438,526.226562 C903.635423,523.72655 905.62108,522.476562 908.355469,522.476562 C909.006514,522.476562 909.520831,522.561197 909.898438,522.730469 L909.839844,524.859375 Z M910.914062,542.59375 C910.914062,542.138019 911.060545,541.750653 911.353516,541.431641 C911.646486,541.112629 912.053383,540.953125 912.574219,540.953125 C913.095055,540.953125 913.505207,541.112629 913.804688,541.431641 C914.104168,541.750653 914.253906,542.138019 914.253906,542.59375 C914.253906,543.049481 914.104168,543.423827 913.804688,543.716797 C913.505207,544.009767 913.095055,544.15625 912.574219,544.15625 C912.053383,544.15625 911.646486,544.009767 911.353516,543.716797 C911.060545,543.423827 910.914062,543.049481 910.914062,542.59375 L910.914062,542.59375 Z M923.296875,544 L920.953125,544 L920.953125,522.867188 L923.296875,522.867188 L923.296875,544 Z M920.542969,516.753906 C920.542969,516.311196 920.686196,515.93685 920.972656,515.630859 C921.259116,515.324868 921.649737,515.171875 922.144531,515.171875 C922.639325,515.171875 923.033202,515.324868 923.326172,515.630859 C923.619142,515.93685 923.765625,516.311196 923.765625,516.753906 C923.765625,517.196617 923.619142,517.567707 923.326172,517.867188 C923.033202,518.166668 922.639325,518.316406 922.144531,518.316406 C921.649737,518.316406 921.259116,518.166668 920.972656,517.867188 C920.686196,517.567707 920.542969,517.196617 920.542969,516.753906 L920.542969,516.753906 Z M928.355469,533.121094 C928.355469,531.089834 928.749345,529.260425 929.537109,527.632812 C930.324874,526.0052 931.438144,524.738937 932.876953,523.833984 C934.315762,522.929032 935.946605,522.476562 937.769531,522.476562 C940.582045,522.476562 942.860668,523.462881 944.605469,525.435547 C946.350269,527.408213 947.222656,530.022119 947.222656,533.277344 L947.222656,533.765625 C947.222656,535.809906 946.82878,537.64908 946.041016,539.283203 C945.253251,540.917326 944.143236,542.177079 942.710938,543.0625 C941.278639,543.947921 939.64454,544.390625 937.808594,544.390625 C935.009101,544.390625 932.733733,543.404307 930.982422,541.431641 C929.231111,539.458975 928.355469,536.845068 928.355469,533.589844 L928.355469,533.121094 Z M930.699219,533.765625 C930.699219,536.291679 931.353509,538.365226 932.662109,539.986328 C933.97071,541.60743 935.686187,542.417969 937.808594,542.417969 C939.917979,542.417969 941.626947,541.60743 942.935547,539.986328 C944.244147,538.365226 944.898438,536.226576 944.898438,533.570312 L944.898438,533.121094 C944.898438,531.506502 944.598961,530.028653 944,528.6875 C943.401039,527.346347 942.561203,526.307946 941.480469,525.572266 C940.399734,524.836585 939.162767,524.46875 937.769531,524.46875 C935.686187,524.46875 933.986986,525.285799 932.671875,526.919922 C931.356764,528.554045 930.699219,530.692695 930.699219,533.335938 L930.699219,533.765625 Z M585.855469,583.546875 L594.507812,583.546875 L594.507812,585.734375 L585.855469,585.734375 L585.855469,595.148438 L583.492188,595.148438 L583.492188,585.734375 L575.015625,585.734375 L575.015625,583.546875 L583.492188,583.546875 L583.492188,574.445312 L585.855469,574.445312 L585.855469,583.546875 Z M613.160156,588.839844 L617.59375,588.839844 L617.59375,590.8125 L613.160156,590.8125 L613.160156,598 L610.816406,598 L610.816406,590.8125 L597.4375,590.8125 L597.4375,589.484375 L610.601562,569.5625 L613.160156,569.5625 L613.160156,588.839844 Z M600.308594,588.839844 L610.816406,588.839844 L610.816406,572.589844 L609.78125,574.386719 L600.308594,588.839844 Z M635.328125,588.839844 L639.761719,588.839844 L639.761719,590.8125 L635.328125,590.8125 L635.328125,598 L632.984375,598 L632.984375,590.8125 L619.605469,590.8125 L619.605469,589.484375 L632.769531,569.5625 L635.328125,569.5625 L635.328125,588.839844 Z M622.476562,588.839844 L632.984375,588.839844 L632.984375,572.589844 L631.949219,574.386719 L622.476562,588.839844 Z M652.925781,586.515625 C652.925781,583.677069 653.290361,580.919935 654.019531,578.244141 C654.748702,575.568346 655.816399,573.120454 657.222656,570.900391 C658.628913,568.680327 660.139315,567.088546 661.753906,566.125 L662.320312,567.707031 C661.460933,568.319013 660.608077,569.210932 659.761719,570.382812 C658.91536,571.554693 658.16016,572.947909 657.496094,574.5625 C656.832028,576.177091 656.294924,577.990224 655.884766,580.001953 C655.474607,582.013682 655.269531,584.29556 655.269531,586.847656 C655.269531,589.569024 655.578773,592.186185 656.197266,594.699219 C656.815758,597.212252 657.665359,599.429027 658.746094,601.349609 C659.826828,603.270192 661.018223,604.712235 662.320312,605.675781 L661.753906,607.179688 C660.100252,606.190099 658.57032,604.591808 657.164062,602.384766 C655.757805,600.177723 654.699873,597.749362 653.990234,595.099609 C653.280595,592.449857 652.925781,589.588557 652.925781,586.515625 L652.925781,586.515625 Z M682.769531,586.144531 C682.769531,590.154968 682.033862,593.198557 680.5625,595.275391 C679.091138,597.352224 676.923191,598.390625 674.058594,598.390625 C671.24608,598.390625 669.091153,597.371755 667.59375,595.333984 C666.096347,593.296214 665.328125,590.330749 665.289062,586.4375 L665.289062,581.339844 C665.289062,577.342428 666.031243,574.315114 667.515625,572.257812 C669.000007,570.200511 671.167954,569.171875 674.019531,569.171875 C676.832045,569.171875 678.980461,570.164704 680.464844,572.150391 C681.949226,574.136078 682.717448,577.062481 682.769531,580.929688 L682.769531,586.144531 Z M680.425781,581.046875 C680.425781,577.79165 679.895188,575.330737 678.833984,573.664062 C677.772781,571.997388 676.167979,571.164062 674.019531,571.164062 C671.910146,571.164062 670.32162,571.977856 669.253906,573.605469 C668.186193,575.233081 667.639323,577.635401 667.613281,580.8125 L667.613281,586.398438 C667.613281,589.640641 668.163406,592.121085 669.263672,593.839844 C670.363938,595.558602 671.962229,596.417969 674.058594,596.417969 C676.141938,596.417969 677.720698,595.578133 678.794922,593.898438 C679.869146,592.218742 680.41276,589.757829 680.425781,586.515625 L680.425781,581.046875 Z M695.152344,586.808594 C695.152344,589.673191 694.79753,592.430325 694.087891,595.080078 C693.378252,597.729831 692.32683,600.154937 690.933594,602.355469 C689.540358,604.556001 688.003915,606.164057 686.324219,607.179688 L685.757812,605.675781 C687.033861,604.764318 688.215489,603.351572 689.302734,601.4375 C690.389979,599.523428 691.246091,597.293633 691.871094,594.748047 C692.496097,592.202461 692.808594,589.438817 692.808594,586.457031 C692.808594,583.761705 692.496097,581.16082 691.871094,578.654297 C691.246091,576.147774 690.383469,573.908213 689.283203,571.935547 C688.182937,569.962881 687.007819,568.527348 685.757812,567.628906 L686.324219,566.125 C687.964852,567.127609 689.481764,568.729156 690.875,570.929688 C692.268236,573.130219 693.329423,575.571601 694.058594,578.253906 C694.787764,580.936211 695.152344,583.787745 695.152344,586.808594 L695.152344,586.808594 Z M728.0625,570.910156 L715.914062,598 L713.472656,598 L725.542969,571.554688 L709.371094,571.554688 L709.371094,569.5625 L728.0625,569.5625 L728.0625,570.910156 Z M750.230469,570.910156 L738.082031,598 L735.640625,598 L747.710938,571.554688 L731.539062,571.554688 L731.539062,569.5625 L750.230469,569.5625 L750.230469,570.910156 Z M768.667969,569.347656 L768.667969,571.398438 L768.394531,571.398438 C764.996077,571.398438 762.320322,572.397776 760.367188,574.396484 C758.414053,576.395192 757.333334,579.171857 757.125,582.726562 C757.906254,581.645828 758.902338,580.809248 760.113281,580.216797 C761.324225,579.624346 762.678378,579.328125 764.175781,579.328125 C766.675794,579.328125 768.664706,580.190747 770.142578,581.916016 C771.62045,583.641285 772.359375,585.897121 772.359375,588.683594 C772.359375,590.532561 772.014326,592.199211 771.324219,593.683594 C770.634111,595.167976 769.644538,596.323564 768.355469,597.150391 C767.0664,597.977218 765.59506,598.390625 763.941406,598.390625 C761.220038,598.390625 759.006519,597.404307 757.300781,595.431641 C755.595044,593.458975 754.742188,590.910172 754.742188,587.785156 L754.742188,585.441406 C754.742188,580.350235 755.90103,576.408217 758.21875,573.615234 C760.53647,570.822252 763.824197,569.39974 768.082031,569.347656 L768.667969,569.347656 Z M763.804688,581.339844 C762.320305,581.339844 760.936855,581.779292 759.654297,582.658203 C758.371738,583.537114 757.515627,584.653639 757.085938,586.007812 L757.085938,588 C757.085938,590.473971 757.720697,592.49218 758.990234,594.054688 C760.259772,595.617195 761.910146,596.398438 763.941406,596.398438 C765.764332,596.398438 767.238927,595.675788 768.365234,594.230469 C769.491542,592.785149 770.054688,590.962251 770.054688,588.761719 C770.054688,586.522124 769.491542,584.725267 768.365234,583.371094 C767.238927,582.01692 765.71876,581.339844 763.804688,581.339844 L763.804688,581.339844 Z M790.835938,569.347656 L790.835938,571.398438 L790.5625,571.398438 C787.164046,571.398438 784.488291,572.397776 782.535156,574.396484 C780.582021,576.395192 779.501303,579.171857 779.292969,582.726562 C780.074223,581.645828 781.070306,580.809248 782.28125,580.216797 C783.492194,579.624346 784.846347,579.328125 786.34375,579.328125 C788.843763,579.328125 790.832675,580.190747 792.310547,581.916016 C793.788419,583.641285 794.527344,585.897121 794.527344,588.683594 C794.527344,590.532561 794.182295,592.199211 793.492188,593.683594 C792.80208,595.167976 791.812506,596.323564 790.523438,597.150391 C789.234369,597.977218 787.763029,598.390625 786.109375,598.390625 C783.388007,598.390625 781.174488,597.404307 779.46875,595.431641 C777.763012,593.458975 776.910156,590.910172 776.910156,587.785156 L776.910156,585.441406 C776.910156,580.350235 778.068999,576.408217 780.386719,573.615234 C782.704439,570.822252 785.992166,569.39974 790.25,569.347656 L790.835938,569.347656 Z M785.972656,581.339844 C784.488274,581.339844 783.104824,581.779292 781.822266,582.658203 C780.539707,583.537114 779.683596,584.653639 779.253906,586.007812 L779.253906,588 C779.253906,590.473971 779.888666,592.49218 781.158203,594.054688 C782.427741,595.617195 784.078115,596.398438 786.109375,596.398438 C787.932301,596.398438 789.406895,595.675788 790.533203,594.230469 C791.659511,592.785149 792.222656,590.962251 792.222656,588.761719 C792.222656,586.522124 791.659511,584.725267 790.533203,583.371094 C789.406895,582.01692 787.886728,581.339844 785.972656,581.339844 L785.972656,581.339844 Z M814.136719,582.511719 L816.558594,582.511719 C817.899746,582.511719 819.07161,582.274091 820.074219,581.798828 C821.076828,581.323565 821.841794,580.67253 822.369141,579.845703 C822.896487,579.018876 823.160156,578.06511 823.160156,576.984375 C823.160156,575.161449 822.645838,573.735682 821.617188,572.707031 C820.588537,571.67838 819.110687,571.164062 817.183594,571.164062 C815.360668,571.164062 813.866542,571.701167 812.701172,572.775391 C811.535801,573.849615 810.953125,575.265616 810.953125,577.023438 L808.609375,577.023438 C808.609375,575.552076 808.980465,574.207688 809.722656,572.990234 C810.464847,571.77278 811.493483,570.832035 812.808594,570.167969 C814.123704,569.503903 815.582023,569.171875 817.183594,569.171875 C819.761732,569.171875 821.792961,569.874993 823.277344,571.28125 C824.761726,572.687507 825.503906,574.614571 825.503906,577.0625 C825.503906,578.429694 825.070968,579.689447 824.205078,580.841797 C823.339188,581.994146 822.151049,582.856768 820.640625,583.429688 C822.411467,583.924482 823.7526,584.774083 824.664062,585.978516 C825.575525,587.182949 826.03125,588.618481 826.03125,590.285156 C826.03125,592.720064 825.236987,594.67968 823.648438,596.164062 C822.059888,597.648445 819.937513,598.390625 817.28125,598.390625 C815.588533,598.390625 814.035814,598.052087 812.623047,597.375 C811.210279,596.697913 810.11654,595.750657 809.341797,594.533203 C808.567053,593.315749 808.179688,591.899748 808.179688,590.285156 L810.523438,590.285156 C810.523438,592.095061 811.154942,593.569656 812.417969,594.708984 C813.680996,595.848313 815.302073,596.417969 817.28125,596.417969 C819.299489,596.417969 820.871739,595.900396 821.998047,594.865234 C823.124355,593.830073 823.6875,592.329437 823.6875,590.363281 C823.6875,588.46223 823.078782,587.010422 821.861328,586.007812 C820.643874,585.005203 818.850272,584.503906 816.480469,584.503906 L814.136719,584.503906 L814.136719,582.511719 Z M848.257812,586.144531 C848.257812,590.154968 847.522143,593.198557 846.050781,595.275391 C844.57942,597.352224 842.411473,598.390625 839.546875,598.390625 C836.734361,598.390625 834.579435,597.371755 833.082031,595.333984 C831.584628,593.296214 830.816406,590.330749 830.777344,586.4375 L830.777344,581.339844 C830.777344,577.342428 831.519524,574.315114 833.003906,572.257812 C834.488289,570.200511 836.656236,569.171875 839.507812,569.171875 C842.320327,569.171875 844.468743,570.164704 845.953125,572.150391 C847.437507,574.136078 848.205729,577.062481 848.257812,580.929688 L848.257812,586.144531 Z M845.914062,581.046875 C845.914062,577.79165 845.383469,575.330737 844.322266,573.664062 C843.261062,571.997388 841.656261,571.164062 839.507812,571.164062 C837.398427,571.164062 835.809901,571.977856 834.742188,573.605469 C833.674474,575.233081 833.127604,577.635401 833.101562,580.8125 L833.101562,586.398438 C833.101562,589.640641 833.651687,592.121085 834.751953,593.839844 C835.852219,595.558602 837.45051,596.417969 839.546875,596.417969 C841.630219,596.417969 843.208979,595.578133 844.283203,593.898438 C845.357427,592.218742 845.901042,589.757829 845.914062,586.515625 L845.914062,581.046875 Z M870.796875,570.910156 L858.648438,598 L856.207031,598 L868.277344,571.554688 L852.105469,571.554688 L852.105469,569.5625 L870.796875,569.5625 L870.796875,570.910156 Z M899.527344,588.839844 L903.960938,588.839844 L903.960938,590.8125 L899.527344,590.8125 L899.527344,598 L897.183594,598 L897.183594,590.8125 L883.804688,590.8125 L883.804688,589.484375 L896.96875,569.5625 L899.527344,569.5625 L899.527344,588.839844 Z M886.675781,588.839844 L897.183594,588.839844 L897.183594,572.589844 L896.148438,574.386719 L886.675781,588.839844 Z M924.097656,576.886719 C924.097656,578.35808 923.667973,579.676426 922.808594,580.841797 C921.949214,582.007167 920.816413,582.863279 919.410156,583.410156 C921.050789,583.970055 922.36588,584.874994 923.355469,586.125 C924.345057,587.375006 924.839844,588.820304 924.839844,590.460938 C924.839844,592.895846 924.013029,594.826165 922.359375,596.251953 C920.705721,597.677742 918.518243,598.390625 915.796875,598.390625 C913.049465,598.390625 910.852222,597.680997 909.205078,596.261719 C907.557934,594.842441 906.734375,592.908866 906.734375,590.460938 C906.734375,588.846346 907.209631,587.407558 908.160156,586.144531 C909.110682,584.881504 910.412752,583.970055 912.066406,583.410156 C910.660149,582.863279 909.540369,582.007167 908.707031,580.841797 C907.873694,579.676426 907.457031,578.35808 907.457031,576.886719 C907.457031,574.529936 908.215487,572.654955 909.732422,571.261719 C911.249357,569.868483 913.2578,569.171875 915.757812,569.171875 C918.257825,569.171875 920.272779,569.874993 921.802734,571.28125 C923.33269,572.687507 924.097656,574.555978 924.097656,576.886719 L924.097656,576.886719 Z M922.496094,590.480469 C922.496094,588.709627 921.86459,587.254563 920.601562,586.115234 C919.338535,584.975906 917.723968,584.40625 915.757812,584.40625 C913.791657,584.40625 912.1836,584.96614 910.933594,586.085938 C909.683587,587.205735 909.058594,588.670564 909.058594,590.480469 C909.058594,592.290374 909.664056,593.732417 910.875,594.806641 C912.085944,595.880865 913.726552,596.417969 915.796875,596.417969 C917.815114,596.417969 919.436192,595.88412 920.660156,594.816406 C921.884121,593.748693 922.496094,592.303395 922.496094,590.480469 L922.496094,590.480469 Z M921.753906,576.867188 C921.753906,575.239575 921.190761,573.882167 920.064453,572.794922 C918.938145,571.707677 917.502613,571.164062 915.757812,571.164062 C913.98697,571.164062 912.551438,571.688146 911.451172,572.736328 C910.350906,573.78451 909.800781,575.16145 909.800781,576.867188 C909.800781,578.533862 910.350906,579.874995 911.451172,580.890625 C912.551438,581.906255 913.993481,582.414062 915.777344,582.414062 C917.535165,582.414062 918.970698,581.903 920.083984,580.880859 C921.197271,579.858719 921.753906,578.520842 921.753906,576.867188 L921.753906,576.867188 Z M944.097656,584.835938 C943.264319,586.059902 942.229173,587.007158 940.992188,587.677734 C939.755202,588.348311 938.41407,588.683594 936.96875,588.683594 C935.354159,588.683594 933.928392,588.266931 932.691406,587.433594 C931.454421,586.600256 930.497399,585.447924 929.820312,583.976562 C929.143226,582.505201 928.804688,580.897144 928.804688,579.152344 C928.804688,577.277334 929.166012,575.571622 929.888672,574.035156 C930.611332,572.49869 931.620436,571.304041 932.916016,570.451172 C934.211595,569.598303 935.705721,569.171875 937.398438,569.171875 C940.250014,569.171875 942.470044,570.171214 944.058594,572.169922 C945.647143,574.16863 946.441406,577.003888 946.441406,580.675781 L946.441406,582.785156 C946.441406,587.91539 945.347667,591.769518 943.160156,594.347656 C940.972645,596.925794 937.632835,598.214844 933.140625,598.214844 L932.710938,598.214844 L932.730469,596.183594 L933.550781,596.183594 C936.949236,596.13151 939.533845,595.167978 941.304688,593.292969 C943.07553,591.417959 944.00651,588.598977 944.097656,584.835938 L944.097656,584.835938 Z M937.261719,586.671875 C938.824227,586.671875 940.227207,586.206385 941.470703,585.275391 C942.714199,584.344396 943.596352,583.136726 944.117188,581.652344 L944.117188,580.304688 C944.117188,577.414048 943.51498,575.171232 942.310547,573.576172 C941.106114,571.981112 939.481781,571.183594 937.4375,571.183594 C935.588532,571.183594 934.071621,571.929029 932.886719,573.419922 C931.701817,574.910815 931.109375,576.789051 931.109375,579.054688 C931.109375,581.229178 931.679031,583.04231 932.818359,584.494141 C933.957688,585.945971 935.438793,586.671875 937.261719,586.671875 L937.261719,586.671875 Z" id="theo@cucumber.io" fill="#1B1D1E" sketch:type="MSShapeGroup"></path>
            <path d="M678.140625,425.546875 L669.273438,425.546875 L669.273438,450 L664.371094,450 L664.371094,425.546875 L655.582031,425.546875 L655.582031,421.5625 L678.140625,421.5625 L678.140625,425.546875 Z M704.449219,450 L699.527344,450 L699.527344,437.363281 L686.8125,437.363281 L686.8125,450 L681.871094,450 L681.871094,421.5625 L686.8125,421.5625 L686.8125,433.398438 L699.527344,433.398438 L699.527344,421.5625 L704.449219,421.5625 L704.449219,450 Z M726.910156,437.304688 L715.230469,437.304688 L715.230469,446.054688 L728.882812,446.054688 L728.882812,450 L710.289062,450 L710.289062,421.5625 L728.746094,421.5625 L728.746094,425.546875 L715.230469,425.546875 L715.230469,433.398438 L726.910156,433.398438 L726.910156,437.304688 Z M755.601562,436.523438 C755.601562,439.30991 755.119796,441.754547 754.15625,443.857422 C753.192704,445.960297 751.815764,447.574864 750.025391,448.701172 C748.235017,449.82748 746.174491,450.390625 743.84375,450.390625 C741.539051,450.390625 739.485035,449.82748 737.681641,448.701172 C735.878246,447.574864 734.485031,445.970062 733.501953,443.886719 C732.518875,441.803375 732.020833,439.401055 732.007812,436.679688 L732.007812,435.078125 C732.007812,432.304674 732.499344,429.856781 733.482422,427.734375 C734.4655,425.611969 735.852205,423.987636 737.642578,422.861328 C739.432952,421.73502 741.486968,421.171875 743.804688,421.171875 C746.122407,421.171875 748.176423,421.72851 749.966797,422.841797 C751.75717,423.955084 753.14062,425.55663 754.117188,427.646484 C755.093755,429.736339 755.588542,432.167955 755.601562,434.941406 L755.601562,436.523438 Z M750.660156,435.039062 C750.660156,431.888005 750.064459,429.472665 748.873047,427.792969 C747.681635,426.113273 745.992198,425.273438 743.804688,425.273438 C741.66926,425.273438 739.999355,426.110018 738.794922,427.783203 C737.590489,429.456389 736.975261,431.822901 736.949219,434.882812 L736.949219,436.523438 C736.949219,439.648453 737.557937,442.063794 738.775391,443.769531 C739.992845,445.475269 741.682281,446.328125 743.84375,446.328125 C746.031261,446.328125 747.714187,445.4948 748.892578,443.828125 C750.070969,442.16145 750.660156,439.726579 750.660156,436.523438 L750.660156,435.039062 Z M787.105469,437.304688 L775.425781,437.304688 L775.425781,446.054688 L789.078125,446.054688 L789.078125,450 L770.484375,450 L770.484375,421.5625 L788.941406,421.5625 L788.941406,425.546875 L775.425781,425.546875 L775.425781,433.398438 L787.105469,433.398438 L787.105469,437.304688 Z M815.660156,450 L810.71875,450 L798.042969,429.824219 L798.042969,450 L793.101562,450 L793.101562,421.5625 L798.042969,421.5625 L810.757812,441.816406 L810.757812,421.5625 L815.660156,421.5625 L815.660156,450 Z M843.296875,446.308594 C842.268224,447.649746 840.842457,448.665361 839.019531,449.355469 C837.196605,450.045576 835.126314,450.390625 832.808594,450.390625 C830.425769,450.390625 828.316415,449.850266 826.480469,448.769531 C824.644522,447.688797 823.228521,446.142588 822.232422,444.130859 C821.236323,442.119131 820.71875,439.772149 820.679688,437.089844 L820.679688,434.863281 C820.679688,430.566385 821.708323,427.210299 823.765625,424.794922 C825.822927,422.379545 828.693992,421.171875 832.378906,421.171875 C835.542985,421.171875 838.05598,421.953117 839.917969,423.515625 C841.779957,425.078133 842.899738,427.330714 843.277344,430.273438 L838.433594,430.273438 C837.886716,426.848941 835.901059,425.136719 832.476562,425.136719 C830.26301,425.136719 828.580084,425.934237 827.427734,427.529297 C826.275385,429.124357 825.679688,431.464828 825.640625,434.550781 L825.640625,436.738281 C825.640625,439.811213 826.288405,442.197257 827.583984,443.896484 C828.879564,445.595712 830.679676,446.445312 832.984375,446.445312 C835.510429,446.445312 837.307286,445.872402 838.375,444.726562 L838.375,439.160156 L832.515625,439.160156 L832.515625,435.410156 L843.296875,435.410156 L843.296875,446.308594 Z M853.667969,446.054688 L866.578125,446.054688 L866.578125,450 L848.726562,450 L848.726562,421.5625 L853.667969,421.5625 L853.667969,446.054688 Z M886.65625,443.378906 L875.640625,443.378906 L873.335938,450 L868.199219,450 L878.941406,421.5625 L883.375,421.5625 L894.136719,450 L888.980469,450 L886.65625,443.378906 Z M877.027344,439.394531 L885.269531,439.394531 L881.148438,427.597656 L877.027344,439.394531 Z M919.917969,450 L914.976562,450 L902.300781,429.824219 L902.300781,450 L897.359375,450 L897.359375,421.5625 L902.300781,421.5625 L915.015625,441.816406 L915.015625,421.5625 L919.917969,421.5625 L919.917969,450 Z M925.757812,450 L925.757812,421.5625 L934.15625,421.5625 C936.669283,421.5625 938.899079,422.12239 940.845703,423.242188 C942.792327,424.361985 944.299474,425.950511 945.367188,428.007812 C946.434901,430.065114 946.96875,432.421862 946.96875,435.078125 L946.96875,436.503906 C946.96875,439.199232 946.431646,441.569 945.357422,443.613281 C944.283198,445.657562 942.753265,447.233067 940.767578,448.339844 C938.781891,449.44662 936.506523,450 933.941406,450 L925.757812,450 Z M930.699219,425.546875 L930.699219,446.054688 L933.921875,446.054688 C936.513034,446.054688 938.501946,445.244149 939.888672,443.623047 C941.275398,442.001945 941.981771,439.674494 942.007812,436.640625 L942.007812,435.058594 C942.007812,431.972641 941.337246,429.615894 939.996094,427.988281 C938.654941,426.360669 936.708346,425.546875 934.15625,425.546875 L930.699219,425.546875 Z" id="THEO-ENGLAND" fill="#1B1D1E" sketch:type="MSShapeGroup"></path>
            <g id="Cucumber-logo" sketch:type="MSLayerGroup" transform="translate(90.000000, 90.000000)">
                <g id="g6053" sketch:type="MSShapeGroup">
                    <path d="M418.718234,69.6015101 C413.085253,69.6015101 409.517698,72.4328859 406.888974,76.7743289 C406.888974,75.6417785 407.452272,74.3204698 407.452272,73.3766779 L407.452272,71.489094 L398.063971,71.489094 L398.063971,118.678691 L407.452272,118.678691 L407.452272,91.4974832 C407.452272,83.7583893 411.583125,79.0394295 418.718234,79.0394295 L420.595894,79.0394295 L420.595894,69.6015101 L418.718234,69.6015101 L418.718234,69.6015101 Z" id="path5443" fill="#000000"></path>
                    <path d="M36.9899067,86.9672819 C34.3611824,82.8145973 30.6058619,79.9832215 25.1606472,79.9832215 C16.5234101,79.9832215 10.3271313,86.5897651 10.3271313,94.8951342 C10.3271313,103.200503 16.5234101,109.807047 25.1606472,109.807047 C30.6058619,109.807047 34.3611824,107.16443 36.9899067,103.011745 L45.6271438,108.108221 C41.4962913,114.526007 33.7978843,119.244966 25.1606472,119.244966 C9.20053518,119.244966 7.10542736e-15,107.16443 7.10542736e-15,95.0838926 C7.10542736e-15,83.0033557 9.3883012,70.9228188 25.1606472,70.9228188 C34.9244805,70.9228188 41.1207593,75.6417785 45.6271438,82.0595638 L36.9899067,86.9672819 L36.9899067,86.9672819 Z" id="path5445" fill="#000000"></path>
                    <path d="M53.8888489,72.0553691 L63.6526822,72.0553691 L63.6526822,97.7265101 C63.6526822,104.521812 68.5345988,109.240772 74.7308776,109.240772 C80.7393903,109.240772 85.809073,104.333054 85.809073,97.7265101 L85.809073,72.0553691 L95.5729062,72.0553691 L95.5729062,98.4815436 C95.5729062,111.317114 85.621307,119.056208 74.7308776,119.056208 C63.8404482,119.056208 53.8888489,111.317114 53.8888489,98.4815436 L53.8888489,72.0553691 L53.8888489,72.0553691 Z" id="path5447" fill="#000000"></path>
                    <path d="M141.387816,86.9672819 C138.759092,82.8145973 135.003771,79.9832215 129.558557,79.9832215 C120.921319,79.9832215 114.725041,86.5897651 114.725041,94.8951342 C114.725041,103.200503 120.921319,109.807047 129.558557,109.807047 C135.003771,109.807047 138.759092,107.16443 141.387816,103.011745 L150.025053,108.108221 C145.894201,114.526007 138.195794,119.244966 129.558557,119.244966 C113.598445,119.244966 104.397909,107.16443 104.397909,95.0838926 C104.397909,83.0033557 113.598445,70.9228188 129.558557,70.9228188 C139.32239,70.9228188 145.518669,75.6417785 150.025053,82.0595638 L141.387816,86.9672819 L141.387816,86.9672819 Z" id="path5449" fill="#000000"></path>
                    <path d="M158.286758,72.0553691 L168.050592,72.0553691 L168.050592,97.7265101 C168.050592,104.521812 172.932508,109.240772 179.128787,109.240772 C185.1373,109.240772 190.206982,104.333054 190.206982,97.7265101 L190.206982,72.0553691 L199.970816,72.0553691 L199.970816,98.4815436 C199.970816,111.317114 190.019216,119.056208 179.128787,119.056208 C168.238358,119.056208 158.286758,111.317114 158.286758,98.4815436 L158.286758,72.0553691 L158.286758,72.0553691 Z" id="path5451" fill="#000000"></path>
                    <path d="M212.175607,89.2323826 C212.175607,77.5293624 219.874014,70.9228188 228.886783,70.9228188 C235.834126,70.9228188 240.716043,74.3204698 242.593703,79.0394295 L242.781469,79.0394295 C244.659129,74.1317114 249.541046,70.9228188 256.488389,70.9228188 C265.501158,70.9228188 273.199565,77.7181208 273.199565,89.2323826 L273.199565,117.923658 L263.435732,117.923658 L263.435732,89.2323826 C263.435732,83.7583893 260.055943,80.5494966 255.925091,80.5494966 C251.23094,80.5494966 247.851152,83.3808725 247.851152,90.5536913 L247.851152,117.734899 L238.087319,117.734899 L238.087319,90.5536913 C238.087319,83.3808725 234.70753,80.5494966 230.013379,80.5494966 C225.882527,80.5494966 222.502739,83.7583893 222.502739,89.2323826 L222.502739,117.734899 L212.175607,117.734899 L212.175607,89.2323826 L212.175607,89.2323826 Z" id="path5453" fill="#000000"></path>
                    <path d="M285.216591,58.4647651 L294.980424,58.4647651 L294.980424,77.7181208 L295.16819,77.7181208 C297.421382,73.942953 303.617661,70.9228188 310.001706,70.9228188 C321.830965,70.9228188 333.660225,79.7944631 333.660225,95.0838926 C333.660225,110.373322 321.830965,119.244966 310.001706,119.244966 C303.617661,119.244966 297.421382,116.224832 295.16819,112.449664 L294.980424,112.449664 L294.980424,118.112416 L285.216591,118.112416 L285.216591,58.4647651 L285.216591,58.4647651 Z M309.062876,80.1719799 C300.988937,80.1719799 294.980424,86.5897651 294.980424,95.0838926 C294.980424,103.57802 300.988937,109.995805 309.062876,109.995805 C317.324581,109.995805 323.333093,103.57802 323.333093,95.0838926 C323.333093,86.4010067 317.324581,80.1719799 309.062876,80.1719799 L309.062876,80.1719799 Z" id="path5455" fill="#000000"></path>
                    <path d="M386.234711,107.919463 C380.789497,114.903523 373.278856,119.056208 365.017151,119.056208 C349.057039,119.056208 339.856504,106.975671 339.856504,94.8951342 C339.856504,82.8145973 349.244805,70.9228188 365.017151,70.9228188 C374.405452,70.9228188 388.67567,78.8506711 388.67567,96.5939597 L388.67567,98.2927852 L350.934699,98.2927852 C351.497997,105.276846 358.069808,110.373322 364.829385,110.373322 C370.086833,110.373322 374.593218,107.730705 377.973006,103.200503 L386.234711,107.919463 L386.234711,107.919463 Z M377.221942,90.1761745 C375.156516,83.1921141 370.086833,79.4169463 363.702789,79.4169463 C357.50651,79.4169463 352.436827,83.3808725 350.746933,90.1761745 L377.221942,90.1761745 L377.221942,90.1761745 Z" id="path5457" fill="#000000"></path>
                    <path d="M447.243798,0.741736158 C430.249972,0.741736158 416.497112,14.5672813 416.497112,31.6509224 C416.497112,46.6920176 427.222399,59.1896539 441.37611,61.9702387 L441.37611,70.8182882 C459.777357,68.0293792 476.070549,53.3451714 477.286362,34.0693893 C478.01818,22.466983 472.263705,10.6223286 462.558465,4.87082592 C462.002799,4.5415288 461.438245,4.21462173 460.856835,3.92703398 C460.264403,3.63399451 459.656051,3.34839211 459.037852,3.10121602 C458.841617,3.01869425 458.649337,2.94383381 458.451083,2.86526804 C457.911148,2.66489818 457.366334,2.4392664 456.80813,2.27539807 C453.799504,1.27851613 450.58333,0.741736158 447.243798,0.741736158 L447.243798,0.741736158 Z" id="path3943" fill="#00A818"></path>
                    <path d="M453.580902,12.1852135 C452.529119,12.0768247 451.421592,12.4447563 450.647057,13.3649534 C450.083759,14.119987 449.731698,14.8514258 449.356166,15.6064593 C448.22957,18.2490768 448.605102,21.0804526 450.294996,23.1567949 C452.92372,22.5905197 455.153442,20.9034916 456.280038,18.2608742 C456.65557,17.5058406 456.866807,16.5384539 456.866807,15.7834203 C456.984161,13.7778624 455.333874,12.3658611 453.580902,12.1852135 L453.580902,12.1852135 Z M439.909188,12.3621745 C438.194723,12.5262322 436.564606,13.8958364 436.564606,15.7834203 C436.564606,16.5384539 436.775842,17.5058406 437.151374,18.2608742 C438.277971,20.9034916 440.683723,22.5905197 443.312447,23.1567949 C444.814575,21.0804526 445.201843,18.2490768 444.075247,15.6064593 C443.699715,14.8514258 443.347653,14.1081896 442.784355,13.5419144 C442.00982,12.6217173 440.937868,12.26374 439.909188,12.3621745 L439.909188,12.3621745 Z M430.696917,21.446172 C427.736027,21.5989341 426.413505,25.3393138 428.877934,27.2858846 C429.628998,27.8521598 430.356591,28.2650688 431.107656,28.6425856 C433.73638,29.7751359 436.775842,29.3858217 439.029035,27.8757546 C438.465737,25.4218956 436.55287,23.1685923 433.924146,22.0360419 C432.985316,21.6585252 432.222516,21.446172 431.283686,21.446172 C431.072449,21.4225772 430.89431,21.435979 430.696917,21.446172 L430.696917,21.446172 Z M459.62462,32.8896493 C457.904654,32.8564656 456.162684,33.3615453 454.754439,34.3053372 C455.317737,36.7591963 457.230604,39.0124996 459.859328,40.1450499 C460.798158,40.5225667 461.560958,40.7349199 462.499788,40.7349199 C465.879576,40.9236783 467.534264,36.7238041 464.90554,34.8362202 C464.154476,34.2699451 463.426882,33.9160231 462.675818,33.5385063 C461.690047,33.1137999 460.656599,32.9095577 459.62462,32.8896493 L459.62462,32.8896493 Z M433.982823,33.0666103 C432.950843,33.0865243 431.917397,33.2907609 430.931625,33.7154673 C429.992795,34.0929841 429.265201,34.505893 428.701903,35.0721682 C426.260945,37.1485105 427.903898,41.1006393 431.283686,40.9118809 C432.222516,40.9118809 433.173082,40.6995277 433.924146,40.3220109 C436.55287,39.1894606 438.418795,36.9361573 438.794327,34.4822982 C437.386082,33.5385063 435.70279,33.0334304 433.982823,33.0666103 L433.982823,33.0666103 Z M443.488478,38.847336 C440.859753,39.4136112 438.630032,41.1006393 437.503436,43.7432567 C437.127904,44.4982903 436.916667,45.40669 436.916667,46.1617236 C436.728901,49.3706162 441.082726,51.0930365 442.960386,48.6391774 C443.523684,47.8841439 443.875745,47.1527051 444.251277,46.3976716 C445.377873,43.9438125 444.990606,41.1124367 443.488478,38.847336 L443.488478,38.847336 Z M450.471027,39.024297 C448.968899,41.1006393 448.581631,43.9320151 449.708227,46.5746326 C450.083759,47.3296661 450.435821,48.0729023 450.999119,48.6391774 C453.064545,50.9042781 457.406634,49.2290474 457.218868,46.3976716 C457.218868,45.642638 457.007631,44.6752513 456.632099,43.9202177 C455.505503,41.2776003 453.099751,39.5905721 450.471027,39.024297 L450.471027,39.024297 Z" id="rect4005" fill="#FFFFFF"></path>
                </g>
            </g>
            <path d="M99.1132812,594.601562 C100.298183,594.601562 101.281246,594.256514 102.0625,593.566406 C102.843754,592.876299 103.260416,592.023443 103.3125,591.007812 L107.785156,591.007812 C107.733073,592.322923 107.322921,593.550125 106.554688,594.689453 C105.786454,595.828782 104.744798,596.730465 103.429688,597.394531 C102.114577,598.058597 100.69532,598.390625 99.171875,598.390625 C96.2161311,598.390625 93.8724045,597.433603 92.140625,595.519531 C90.4088455,593.605459 89.5429688,590.962256 89.5429688,587.589844 L89.5429688,587.101562 C89.5429688,583.885401 90.4023352,581.310557 92.1210938,579.376953 C93.8398523,577.44335 96.1835789,576.476562 99.1523438,576.476562 C101.665377,576.476562 103.712883,577.208977 105.294922,578.673828 C106.876961,580.138679 107.707031,582.062488 107.785156,584.445312 L103.3125,584.445312 C103.260416,583.234369 102.847009,582.238285 102.072266,581.457031 C101.297522,580.675777 100.311204,580.285156 99.1132812,580.285156 C97.5768152,580.285156 96.3919312,580.841791 95.5585938,581.955078 C94.7252563,583.068365 94.3020834,584.757801 94.2890625,587.023438 L94.2890625,587.785156 C94.2890625,590.076834 94.7024698,591.785802 95.5292969,592.912109 C96.3561239,594.038417 97.5507734,594.601562 99.1132812,594.601562 L99.1132812,594.601562 Z M124.171875,595.929688 C122.778639,597.570321 120.799492,598.390625 118.234375,598.390625 C115.942697,598.390625 114.207688,597.720059 113.029297,596.378906 C111.850906,595.037754 111.261719,593.097669 111.261719,590.558594 L111.261719,576.867188 L116.007812,576.867188 L116.007812,590.5 C116.007812,593.182305 117.121083,594.523438 119.347656,594.523438 C121.652355,594.523438 123.208329,593.696623 124.015625,592.042969 L124.015625,576.867188 L128.761719,576.867188 L128.761719,598 L124.289062,598 L124.171875,595.929688 Z M142.277344,594.601562 C143.462246,594.601562 144.445309,594.256514 145.226562,593.566406 C146.007816,592.876299 146.424479,592.023443 146.476562,591.007812 L150.949219,591.007812 C150.897135,592.322923 150.486983,593.550125 149.71875,594.689453 C148.950517,595.828782 147.908861,596.730465 146.59375,597.394531 C145.278639,598.058597 143.859383,598.390625 142.335938,598.390625 C139.380194,598.390625 137.036467,597.433603 135.304688,595.519531 C133.572908,593.605459 132.707031,590.962256 132.707031,587.589844 L132.707031,587.101562 C132.707031,583.885401 133.566398,581.310557 135.285156,579.376953 C137.003915,577.44335 139.347641,576.476562 142.316406,576.476562 C144.82944,576.476562 146.876945,577.208977 148.458984,578.673828 C150.041024,580.138679 150.871093,582.062488 150.949219,584.445312 L146.476562,584.445312 C146.424479,583.234369 146.011072,582.238285 145.236328,581.457031 C144.461585,580.675777 143.475266,580.285156 142.277344,580.285156 C140.740878,580.285156 139.555994,580.841791 138.722656,581.955078 C137.889319,583.068365 137.466146,584.757801 137.453125,587.023438 L137.453125,587.785156 C137.453125,590.076834 137.866532,591.785802 138.693359,592.912109 C139.520186,594.038417 140.714836,594.601562 142.277344,594.601562 L142.277344,594.601562 Z M167.335938,595.929688 C165.942701,597.570321 163.963554,598.390625 161.398438,598.390625 C159.106759,598.390625 157.371751,597.720059 156.193359,596.378906 C155.014968,595.037754 154.425781,593.097669 154.425781,590.558594 L154.425781,576.867188 L159.171875,576.867188 L159.171875,590.5 C159.171875,593.182305 160.285145,594.523438 162.511719,594.523438 C164.816418,594.523438 166.372392,593.696623 167.179688,592.042969 L167.179688,576.867188 L171.925781,576.867188 L171.925781,598 L167.453125,598 L167.335938,595.929688 Z M181.222656,576.867188 L181.359375,579.074219 C182.843757,577.342439 184.874987,576.476562 187.453125,576.476562 C190.27866,576.476562 192.212234,577.557281 193.253906,579.71875 C194.790372,577.557281 196.951809,576.476562 199.738281,576.476562 C202.069022,576.476562 203.804031,577.121087 204.943359,578.410156 C206.082688,579.699225 206.665364,581.600248 206.691406,584.113281 L206.691406,598 L201.945312,598 L201.945312,584.25 C201.945312,582.908847 201.652347,581.925784 201.066406,581.300781 C200.480466,580.675778 199.510423,580.363281 198.15625,580.363281 C197.075515,580.363281 196.193363,580.652992 195.509766,581.232422 C194.826168,581.811852 194.347658,582.570308 194.074219,583.507812 L194.09375,598 L189.347656,598 L189.347656,584.09375 C189.282552,581.606758 188.013033,580.363281 185.539062,580.363281 C183.638011,580.363281 182.290369,581.138013 181.496094,582.6875 L181.496094,598 L176.75,598 L176.75,576.867188 L181.222656,576.867188 Z M230.109375,587.648438 C230.109375,590.929704 229.37696,593.540355 227.912109,595.480469 C226.447258,597.420583 224.432304,598.390625 221.867188,598.390625 C219.393217,598.390625 217.466153,597.498707 216.085938,595.714844 L215.851562,598 L211.554688,598 L211.554688,568 L216.300781,568 L216.300781,578.898438 C217.667976,577.283846 219.510405,576.476562 221.828125,576.476562 C224.406263,576.476562 226.430982,577.433584 227.902344,579.347656 C229.373705,581.261728 230.109375,583.937483 230.109375,587.375 L230.109375,587.648438 Z M225.363281,587.238281 C225.363281,584.946603 224.959639,583.22787 224.152344,582.082031 C223.345048,580.936192 222.173185,580.363281 220.636719,580.363281 C218.579417,580.363281 217.134119,581.26171 216.300781,583.058594 L216.300781,591.769531 C217.14714,593.605478 218.605458,594.523438 220.675781,594.523438 C222.160164,594.523438 223.305986,593.970058 224.113281,592.863281 C224.920577,591.756505 225.337239,590.083345 225.363281,587.84375 L225.363281,587.238281 Z M243.390625,598.390625 C240.382797,598.390625 237.944671,597.443369 236.076172,595.548828 C234.207673,593.654287 233.273438,591.131526 233.273438,587.980469 L233.273438,587.394531 C233.273438,585.285146 233.680334,583.400399 234.494141,581.740234 C235.307947,580.08007 236.450513,578.787765 237.921875,577.863281 C239.393237,576.938797 241.033845,576.476562 242.84375,576.476562 C245.721369,576.476562 247.944654,577.394522 249.513672,579.230469 C251.08269,581.066415 251.867188,583.664046 251.867188,587.023438 L251.867188,588.9375 L238.058594,588.9375 C238.201824,590.6823 238.7845,592.062495 239.806641,593.078125 C240.828781,594.093755 242.114576,594.601562 243.664062,594.601562 C245.838553,594.601562 247.609368,593.722665 248.976562,591.964844 L251.535156,594.40625 C250.688798,595.669277 249.559252,596.649085 248.146484,597.345703 C246.733717,598.042321 245.148446,598.390625 243.390625,598.390625 L243.390625,598.390625 Z M242.824219,580.285156 C241.522129,580.285156 240.470707,580.740881 239.669922,581.652344 C238.869137,582.563807 238.358074,583.833325 238.136719,585.460938 L247.179688,585.460938 L247.179688,585.109375 C247.07552,583.520825 246.652347,582.319666 245.910156,581.505859 C245.167965,580.692053 244.139329,580.285156 242.824219,580.285156 L242.824219,580.285156 Z M266.613281,581.203125 C265.988278,581.098958 265.343753,581.046875 264.679688,581.046875 C262.505197,581.046875 261.040368,581.8802 260.285156,583.546875 L260.285156,598 L255.539062,598 L255.539062,576.867188 L260.070312,576.867188 L260.1875,579.230469 C261.333339,577.394522 262.921865,576.476562 264.953125,576.476562 C265.630212,576.476562 266.190102,576.567707 266.632812,576.75 L266.613281,581.203125 Z M269.191406,593 C270.076827,593 270.760414,593.250649 271.242188,593.751953 C271.723961,594.253258 271.964844,594.881507 271.964844,595.636719 C271.964844,596.37891 271.723961,596.994138 271.242188,597.482422 C270.760414,597.970706 270.076827,598.214844 269.191406,598.214844 C268.345048,598.214844 267.674482,597.973961 267.179688,597.492188 C266.684893,597.010414 266.4375,596.391931 266.4375,595.636719 C266.4375,594.881507 266.678383,594.253258 267.160156,593.751953 C267.641929,593.250649 268.319006,593 269.191406,593 L269.191406,593 Z M282.453125,598 L277.707031,598 L277.707031,576.867188 L282.453125,576.867188 L282.453125,598 Z M277.414062,571.378906 C277.414062,570.649736 277.64518,570.044273 278.107422,569.5625 C278.569664,569.080727 279.230464,568.839844 280.089844,568.839844 C280.949223,568.839844 281.613279,569.080727 282.082031,569.5625 C282.550784,570.044273 282.785156,570.649736 282.785156,571.378906 C282.785156,572.095056 282.550784,572.690753 282.082031,573.166016 C281.613279,573.641278 280.949223,573.878906 280.089844,573.878906 C279.230464,573.878906 278.569664,573.641278 278.107422,573.166016 C277.64518,572.690753 277.414062,572.095056 277.414062,571.378906 L277.414062,571.378906 Z M286.730469,587.238281 C286.730469,585.167958 287.140621,583.302743 287.960938,581.642578 C288.781254,579.982414 289.933586,578.706385 291.417969,577.814453 C292.902351,576.922522 294.608063,576.476562 296.535156,576.476562 C299.386733,576.476562 301.701163,577.394522 303.478516,579.230469 C305.255868,581.066415 306.216145,583.501287 306.359375,586.535156 L306.378906,587.648438 C306.378906,589.731781 305.97852,591.593742 305.177734,593.234375 C304.376949,594.875008 303.231127,596.144527 301.740234,597.042969 C300.249342,597.941411 298.527354,598.390625 296.574219,598.390625 C293.592433,598.390625 291.206389,597.397796 289.416016,595.412109 C287.625642,593.426422 286.730469,590.779964 286.730469,587.472656 L286.730469,587.238281 Z M291.476562,587.648438 C291.476562,589.822928 291.925777,591.525384 292.824219,592.755859 C293.722661,593.986334 294.972648,594.601562 296.574219,594.601562 C298.175789,594.601562 299.422522,593.976569 300.314453,592.726562 C301.206385,591.476556 301.652344,589.647147 301.652344,587.238281 C301.652344,585.102854 301.193364,583.410162 300.275391,582.160156 C299.357417,580.91015 298.110685,580.285156 296.535156,580.285156 C294.985669,580.285156 293.755213,580.900384 292.84375,582.130859 C291.932287,583.361334 291.476562,585.200509 291.476562,587.648438 L291.476562,587.648438 Z M311.730469,600.441406 L308,600.441406 L319.191406,569.5625 L322.921875,569.5625 L311.730469,600.441406 Z M332.160156,571.730469 L332.160156,576.867188 L335.890625,576.867188 L335.890625,580.382812 L332.160156,580.382812 L332.160156,592.179688 C332.160156,592.986983 332.31966,593.56966 332.638672,593.927734 C332.957684,594.285809 333.52734,594.464844 334.347656,594.464844 C334.894534,594.464844 335.447914,594.39974 336.007812,594.269531 L336.007812,597.941406 C334.927078,598.240887 333.885422,598.390625 332.882812,598.390625 C329.236961,598.390625 327.414062,596.378926 327.414062,592.355469 L327.414062,580.382812 L323.9375,580.382812 L323.9375,576.867188 L327.414062,576.867188 L327.414062,571.730469 L332.160156,571.730469 Z M348.820312,598.390625 C345.812485,598.390625 343.374358,597.443369 341.505859,595.548828 C339.63736,593.654287 338.703125,591.131526 338.703125,587.980469 L338.703125,587.394531 C338.703125,585.285146 339.110022,583.400399 339.923828,581.740234 C340.737634,580.08007 341.880201,578.787765 343.351562,577.863281 C344.822924,576.938797 346.463533,576.476562 348.273438,576.476562 C351.151056,576.476562 353.374341,577.394522 354.943359,579.230469 C356.512378,581.066415 357.296875,583.664046 357.296875,587.023438 L357.296875,588.9375 L343.488281,588.9375 C343.631511,590.6823 344.214188,592.062495 345.236328,593.078125 C346.258469,594.093755 347.544263,594.601562 349.09375,594.601562 C351.26824,594.601562 353.039056,593.722665 354.40625,591.964844 L356.964844,594.40625 C356.118485,595.669277 354.988939,596.649085 353.576172,597.345703 C352.163404,598.042321 350.578134,598.390625 348.820312,598.390625 L348.820312,598.390625 Z M348.253906,580.285156 C346.951816,580.285156 345.900395,580.740881 345.099609,581.652344 C344.298824,582.563807 343.787762,583.833325 343.566406,585.460938 L352.609375,585.460938 L352.609375,585.109375 C352.505208,583.520825 352.082035,582.319666 351.339844,581.505859 C350.597653,580.692053 349.569017,580.285156 348.253906,580.285156 L348.253906,580.285156 Z" id="cucumber.io/te" fill="#1B1D1E" sketch:type="MSShapeGroup"></path>
        </g>
    </g>
</svg>