<?xml version="1.0" encoding="UTF-8" standalone="no"?>
<svg width="1039px" height="697px" viewBox="0 0 1039 697" version="1.1" xmlns="http://www.w3.org/2000/svg" xmlns:xlink="http://www.w3.org/1999/xlink" xmlns:sketch="http://www.bohemiancoding.com/sketch/ns">
    <!-- Generator: Sketch 3.4.2 (15855) - http://www.bohemiancoding.com/sketch -->
    <title>Theo-Front</title>
    <desc>Created with Sketch.</desc>
    <defs></defs>
    <g id="Theo" stroke="none" stroke-width="1" fill="none" fill-rule="evenodd" sketch:type="MSPage">
        <g id="Theo-Front" sketch:type="MSArtboardGroup">
            <g id="Personal-Info" sketch:type="MSLayerGroup" transform="translate(582.000000, 420.000000)" fill="#000000">
                <path d="M40.7695312,96.75 L40.7695312,101.867188 L44.7148438,101.867188 L44.7148438,104.660156 L40.7695312,104.660156 L40.7695312,117.765625 C40.7695312,118.611983 40.9453107,119.246743 41.296875,119.669922 C41.6484393,120.093101 42.2473916,120.304688 43.09375,120.304688 C43.5104187,120.304688 44.0833297,120.226563 44.8125,120.070312 L44.8125,123 C43.8619744,123.260418 42.9375045,123.390625 42.0390625,123.390625 C40.4244711,123.390625 39.2070354,122.902349 38.3867188,121.925781 C37.5664021,120.949214 37.15625,119.562509 37.15625,117.765625 L37.15625,104.660156 L33.3085938,104.660156 L33.3085938,101.867188 L37.15625,101.867188 L37.15625,96.75 L40.7695312,96.75 Z M52.546875,104.425781 C54.1484455,102.459626 56.231758,101.476562 58.796875,101.476562 C63.2630432,101.476562 65.5156248,103.996069 65.5546875,109.035156 L65.5546875,123 L61.9414062,123 L61.9414062,109.015625 C61.9283854,107.49218 61.5800815,106.365889 60.8964844,105.636719 C60.2128872,104.907548 59.1484447,104.542969 57.703125,104.542969 C56.5312441,104.542969 55.5026086,104.855466 54.6171875,105.480469 C53.7317664,106.105472 53.0416691,106.925776 52.546875,107.941406 L52.546875,123 L48.9335938,123 L48.9335938,93 L52.546875,93 L52.546875,104.425781 Z M79.734375,123.390625 C76.8697773,123.390625 74.5390715,122.449879 72.7421875,120.568359 C70.9453035,118.68684 70.046875,116.170589 70.046875,113.019531 L70.046875,112.355469 C70.046875,110.259104 70.4472616,108.387378 71.2480469,106.740234 C72.0488321,105.093091 73.1686126,103.804041 74.6074219,102.873047 C76.0462312,101.942053 77.6054604,101.476562 79.2851562,101.476562 C82.0325658,101.476562 84.1679611,102.381501 85.6914062,104.191406 C87.2148514,106.001311 87.9765625,108.592431 87.9765625,111.964844 L87.9765625,113.46875 L73.6601562,113.46875 C73.7122398,115.552094 74.3209577,117.23502 75.4863281,118.517578 C76.6516985,119.800137 78.1328035,120.441406 79.9296875,120.441406 C81.2057355,120.441406 82.2864539,120.180992 83.171875,119.660156 C84.0572961,119.13932 84.8320279,118.449223 85.4960938,117.589844 L87.703125,119.308594 C85.9322828,122.029962 83.2760594,123.390625 79.734375,123.390625 L79.734375,123.390625 Z M79.2851562,104.445312 C77.8268156,104.445312 76.6028695,104.975906 75.6132812,106.037109 C74.623693,107.098313 74.0117199,108.585928 73.7773438,110.5 L84.3632812,110.5 L84.3632812,110.226562 C84.2591141,108.390616 83.7643273,106.968104 82.8789062,105.958984 C81.9934852,104.949865 80.7955805,104.445312 79.2851562,104.445312 L79.2851562,104.445312 Z M91.1992188,112.238281 C91.1992188,110.167958 91.6061157,108.305998 92.4199219,106.652344 C93.233728,104.99869 94.3665292,103.722661 95.8183594,102.824219 C97.2701896,101.925777 98.927074,101.476562 100.789062,101.476562 C103.666681,101.476562 105.994132,102.472646 107.771484,104.464844 C109.548837,106.457041 110.4375,109.106754 110.4375,112.414062 L110.4375,112.667969 C110.4375,114.725271 110.043624,116.570955 109.255859,118.205078 C108.468095,119.839201 107.341804,121.111975 105.876953,122.023438 C104.412102,122.9349 102.729176,123.390625 100.828125,123.390625 C97.9635273,123.390625 95.642587,122.394541 93.8652344,120.402344 C92.0878817,118.410146 91.1992188,115.773454 91.1992188,112.492188 L91.1992188,112.238281 Z M94.8320312,112.667969 C94.8320312,115.01173 95.3756456,116.893222 96.4628906,118.3125 C97.5501356,119.731778 99.0051992,120.441406 100.828125,120.441406 C102.664072,120.441406 104.12239,119.722012 105.203125,118.283203 C106.28386,116.844394 106.824219,114.82944 106.824219,112.238281 C106.824219,109.920561 106.274094,108.042325 105.173828,106.603516 C104.073562,105.164706 102.611988,104.445312 100.789062,104.445312 C99.0051994,104.445312 97.5664117,105.154941 96.4726562,106.574219 C95.3789008,107.993497 94.8320312,110.024726 94.8320312,112.667969 L94.8320312,112.667969 Z M146.179688,113.195312 C146.023437,116.34637 145.242195,118.833324 143.835938,120.65625 C142.42968,122.479176 140.548189,123.390625 138.191406,123.390625 C135.756498,123.390625 134.194014,122.296886 133.503906,120.109375 C132.800778,121.216151 131.996749,122.039711 131.091797,122.580078 C130.186844,123.120445 129.252609,123.390625 128.289062,123.390625 C126.440095,123.390625 125.040369,122.635424 124.089844,121.125 C123.139318,119.614576 122.787759,117.524753 123.035156,114.855469 C123.23047,112.707021 123.722001,110.789722 124.509766,109.103516 C125.29753,107.417309 126.313145,106.092453 127.556641,105.128906 C128.800136,104.16536 130.105462,103.683594 131.472656,103.683594 C132.527349,103.683594 133.47135,103.823566 134.304688,104.103516 C135.138025,104.383465 136.075516,104.93359 137.117188,105.753906 L136.101562,116.574219 C135.854165,119.582046 136.68749,121.085938 138.601562,121.085938 C140.072924,121.085938 141.264318,120.356778 142.175781,118.898438 C143.087244,117.440097 143.582031,115.539074 143.660156,113.195312 C143.907553,108.130183 142.966808,104.269545 140.837891,101.613281 C138.708974,98.957018 135.470074,97.6289062 131.121094,97.6289062 C128.503893,97.6289062 126.179698,98.2766862 124.148438,99.5722656 C122.117177,100.867845 120.515631,102.739571 119.34375,105.1875 C118.171869,107.635429 117.514324,110.460921 117.371094,113.664062 C117.214843,116.893245 117.605464,119.695952 118.542969,122.072266 C119.480473,124.44858 120.909496,126.264968 122.830078,127.521484 C124.750661,128.778001 127.071601,129.40625 129.792969,129.40625 C130.96485,129.40625 132.139968,129.263022 133.318359,128.976562 C134.496751,128.690103 135.476559,128.319013 136.257812,127.863281 L136.980469,130.109375 C136.173173,130.61719 135.10222,131.033853 133.767578,131.359375 C132.432936,131.684897 131.082038,131.847656 129.714844,131.847656 C126.459619,131.847656 123.660168,131.115242 121.316406,129.650391 C118.972645,128.18554 117.218105,126.076186 116.052734,123.322266 C114.887364,120.568346 114.382812,117.348977 114.539062,113.664062 C114.695313,110.083315 115.496087,106.863947 116.941406,104.005859 C118.386726,101.147772 120.346342,98.940763 122.820312,97.3847656 C125.294283,95.8287683 128.087224,95.0507812 131.199219,95.0507812 C134.441422,95.0507812 137.221343,95.7799406 139.539062,97.2382812 C141.856782,98.6966219 143.582026,100.799465 144.714844,103.546875 C145.847662,106.294285 146.335938,109.510398 146.179688,113.195312 L146.179688,113.195312 Z M126.140625,114.855469 C125.958332,116.704436 126.130857,118.123693 126.658203,119.113281 C127.18555,120.10287 128.02213,120.597656 129.167969,120.597656 C129.949223,120.597656 130.701168,120.265628 131.423828,119.601562 C132.146488,118.937497 132.742185,117.986985 133.210938,116.75 L133.230469,116.574219 L134.128906,106.75 C133.399736,106.372394 132.618494,106.183594 131.785156,106.183594 C130.261711,106.183594 129.001958,106.958326 128.005859,108.507812 C127.009761,110.057299 126.388022,112.173164 126.140625,114.855469 L126.140625,114.855469 Z M159.363281,120.441406 C160.65235,120.441406 161.778641,120.050785 162.742188,119.269531 C163.705734,118.488277 164.239583,117.511725 164.34375,116.339844 L167.761719,116.339844 C167.696614,117.550787 167.279952,118.70312 166.511719,119.796875 C165.743486,120.89063 164.718105,121.763018 163.435547,122.414062 C162.152988,123.065107 160.79558,123.390625 159.363281,123.390625 C156.485663,123.390625 154.197274,122.430348 152.498047,120.509766 C150.79882,118.589183 149.949219,115.962256 149.949219,112.628906 L149.949219,112.023438 C149.949219,109.966136 150.326819,108.136727 151.082031,106.535156 C151.837243,104.933586 152.921217,103.690109 154.333984,102.804688 C155.746752,101.919266 157.416657,101.476562 159.34375,101.476562 C161.713554,101.476562 163.682935,102.186191 165.251953,103.605469 C166.820971,105.024747 167.657552,106.867176 167.761719,109.132812 L164.34375,109.132812 C164.239583,107.765618 163.72201,106.642583 162.791016,105.763672 C161.860021,104.884761 160.710944,104.445312 159.34375,104.445312 C157.507803,104.445312 156.085292,105.106113 155.076172,106.427734 C154.067052,107.749356 153.5625,109.660144 153.5625,112.160156 L153.5625,112.84375 C153.5625,115.278658 154.063797,117.153639 155.066406,118.46875 C156.069015,119.783861 157.501293,120.441406 159.363281,120.441406 L159.363281,120.441406 Z M184.871094,120.910156 C183.464837,122.56381 181.401055,123.390625 178.679688,123.390625 C176.427072,123.390625 174.711594,122.736335 173.533203,121.427734 C172.354812,120.119134 171.759115,118.182304 171.746094,115.617188 L171.746094,101.867188 L175.359375,101.867188 L175.359375,115.519531 C175.359375,118.722672 176.661445,120.324219 179.265625,120.324219 C182.026055,120.324219 183.861975,119.295583 184.773438,117.238281 L184.773438,101.867188 L188.386719,101.867188 L188.386719,123 L184.949219,123 L184.871094,120.910156 Z M202.351562,120.441406 C203.640631,120.441406 204.766922,120.050785 205.730469,119.269531 C206.694015,118.488277 207.227864,117.511725 207.332031,116.339844 L210.75,116.339844 C210.684896,117.550787 210.268233,118.70312 209.5,119.796875 C208.731767,120.89063 207.706387,121.763018 206.423828,122.414062 C205.14127,123.065107 203.783861,123.390625 202.351562,123.390625 C199.473944,123.390625 197.185555,122.430348 195.486328,120.509766 C193.787101,118.589183 192.9375,115.962256 192.9375,112.628906 L192.9375,112.023438 C192.9375,109.966136 193.3151,108.136727 194.070312,106.535156 C194.825525,104.933586 195.909498,103.690109 197.322266,102.804688 C198.735033,101.919266 200.404938,101.476562 202.332031,101.476562 C204.701835,101.476562 206.671216,102.186191 208.240234,103.605469 C209.809253,105.024747 210.645833,106.867176 210.75,109.132812 L207.332031,109.132812 C207.227864,107.765618 206.710291,106.642583 205.779297,105.763672 C204.848303,104.884761 203.699226,104.445312 202.332031,104.445312 C200.496085,104.445312 199.073573,105.106113 198.064453,106.427734 C197.055333,107.749356 196.550781,109.660144 196.550781,112.160156 L196.550781,112.84375 C196.550781,115.278658 197.052078,117.153639 198.054688,118.46875 C199.057297,119.783861 200.489574,120.441406 202.351562,120.441406 L202.351562,120.441406 Z M227.859375,120.910156 C226.453118,122.56381 224.389337,123.390625 221.667969,123.390625 C219.415353,123.390625 217.699876,122.736335 216.521484,121.427734 C215.343093,120.119134 214.747396,118.182304 214.734375,115.617188 L214.734375,101.867188 L218.347656,101.867188 L218.347656,115.519531 C218.347656,118.722672 219.649727,120.324219 222.253906,120.324219 C225.014337,120.324219 226.850256,119.295583 227.761719,117.238281 L227.761719,101.867188 L231.375,101.867188 L231.375,123 L227.9375,123 L227.859375,120.910156 Z M240.261719,101.867188 L240.359375,104.210938 C241.908862,102.388012 243.998685,101.476562 246.628906,101.476562 C249.58465,101.476562 251.596349,102.609364 252.664063,104.875 C253.367191,103.85937 254.281895,103.039066 255.408203,102.414062 C256.534511,101.789059 257.865878,101.476562 259.402344,101.476562 C264.037784,101.476562 266.394531,103.930965 266.472656,108.839844 L266.472656,123 L262.859375,123 L262.859375,109.054688 C262.859375,107.544263 262.514326,106.414717 261.824219,105.666016 C261.134111,104.917314 259.975269,104.542969 258.347656,104.542969 C257.006504,104.542969 255.893234,104.943355 255.007813,105.744141 C254.122391,106.544926 253.608074,107.622389 253.464844,108.976562 L253.464844,123 L249.832031,123 L249.832031,109.152344 C249.832031,106.079412 248.32814,104.542969 245.320313,104.542969 C242.950509,104.542969 241.329431,105.552073 240.457031,107.570312 L240.457031,123 L236.84375,123 L236.84375,101.867188 L240.261719,101.867188 Z M289.8125,112.667969 C289.8125,115.897152 289.07032,118.491527 287.585938,120.451172 C286.101555,122.410817 284.109388,123.390625 281.609375,123.390625 C278.940091,123.390625 276.876309,122.446624 275.417969,120.558594 L275.242188,123 L271.921875,123 L271.921875,93 L275.535156,93 L275.535156,104.191406 C276.993497,102.381501 279.005196,101.476562 281.570312,101.476562 C284.135429,101.476562 286.150383,102.446605 287.615234,104.386719 C289.080085,106.326833 289.8125,108.983056 289.8125,112.355469 L289.8125,112.667969 Z M286.199219,112.257812 C286.199219,109.796863 285.723963,107.89584 284.773438,106.554688 C283.822912,105.213535 282.455738,104.542969 280.671875,104.542969 C278.289051,104.542969 276.576828,105.649729 275.535156,107.863281 L275.535156,117.003906 C276.641933,119.217459 278.367176,120.324219 280.710938,120.324219 C282.442717,120.324219 283.79036,119.653653 284.753906,118.3125 C285.717453,116.971347 286.199219,114.953138 286.199219,112.257812 L286.199219,112.257812 Z M303.132812,123.390625 C300.268215,123.390625 297.937509,122.449879 296.140625,120.568359 C294.343741,118.68684 293.445312,116.170589 293.445312,113.019531 L293.445312,112.355469 C293.445312,110.259104 293.845699,108.387378 294.646484,106.740234 C295.44727,105.093091 296.56705,103.804041 298.005859,102.873047 C299.444669,101.942053 301.003898,101.476562 302.683594,101.476562 C305.431003,101.476562 307.566399,102.381501 309.089844,104.191406 C310.613289,106.001311 311.375,108.592431 311.375,111.964844 L311.375,113.46875 L297.058594,113.46875 C297.110677,115.552094 297.719395,117.23502 298.884766,118.517578 C300.050136,119.800137 301.531241,120.441406 303.328125,120.441406 C304.604173,120.441406 305.684891,120.180992 306.570312,119.660156 C307.455734,119.13932 308.230465,118.449223 308.894531,117.589844 L311.101562,119.308594 C309.33072,122.029962 306.674497,123.390625 303.132812,123.390625 L303.132812,123.390625 Z M302.683594,104.445312 C301.225253,104.445312 300.001307,104.975906 299.011719,106.037109 C298.02213,107.098313 297.410157,108.585928 297.175781,110.5 L307.761719,110.5 L307.761719,110.226562 C307.657552,108.390616 307.162765,106.968104 306.277344,105.958984 C305.391923,104.949865 304.194018,104.445312 302.683594,104.445312 L302.683594,104.445312 Z M325.769531,105.109375 C325.222654,105.018229 324.630212,104.972656 323.992188,104.972656 C321.622384,104.972656 320.014327,105.981761 319.167969,108 L319.167969,123 L315.554688,123 L315.554688,101.867188 L319.070312,101.867188 L319.128906,104.308594 C320.313808,102.420563 321.993479,101.476562 324.167969,101.476562 C324.871097,101.476562 325.404946,101.567707 325.769531,101.75 L325.769531,105.109375 Z M326.765625,121.105469 C326.765625,120.480466 326.95117,119.959637 327.322266,119.542969 C327.693361,119.1263 328.249996,118.917969 328.992188,118.917969 C329.734379,118.917969 330.297524,119.1263 330.681641,119.542969 C331.065757,119.959637 331.257812,120.480466 331.257812,121.105469 C331.257812,121.70443 331.065757,122.205727 330.681641,122.609375 C330.297524,123.013023 329.734379,123.214844 328.992188,123.214844 C328.249996,123.214844 327.693361,123.013023 327.322266,122.609375 C326.95117,122.205727 326.765625,121.70443 326.765625,121.105469 L326.765625,121.105469 Z M341.140625,123 L337.527344,123 L337.527344,101.867188 L341.140625,101.867188 L341.140625,123 Z M337.234375,96.2617188 C337.234375,95.6757783 337.41341,95.1809916 337.771484,94.7773438 C338.129559,94.3736959 338.660153,94.171875 339.363281,94.171875 C340.06641,94.171875 340.600259,94.3736959 340.964844,94.7773438 C341.329429,95.1809916 341.511719,95.6757783 341.511719,96.2617188 C341.511719,96.8476592 341.329429,97.3359355 340.964844,97.7265625 C340.600259,98.1171895 340.06641,98.3125 339.363281,98.3125 C338.660153,98.3125 338.129559,98.1171895 337.771484,97.7265625 C337.41341,97.3359355 337.234375,96.8476592 337.234375,96.2617188 L337.234375,96.2617188 Z M345.964844,112.238281 C345.964844,110.167958 346.371741,108.305998 347.185547,106.652344 C347.999353,104.99869 349.132154,103.722661 350.583984,102.824219 C352.035815,101.925777 353.692699,101.476562 355.554688,101.476562 C358.432306,101.476562 360.759757,102.472646 362.537109,104.464844 C364.314462,106.457041 365.203125,109.106754 365.203125,112.414062 L365.203125,112.667969 C365.203125,114.725271 364.809249,116.570955 364.021484,118.205078 C363.23372,119.839201 362.107429,121.111975 360.642578,122.023438 C359.177727,122.9349 357.494801,123.390625 355.59375,123.390625 C352.729152,123.390625 350.408212,122.394541 348.630859,120.402344 C346.853507,118.410146 345.964844,115.773454 345.964844,112.492188 L345.964844,112.238281 Z M349.597656,112.667969 C349.597656,115.01173 350.141271,116.893222 351.228516,118.3125 C352.315761,119.731778 353.770824,120.441406 355.59375,120.441406 C357.429697,120.441406 358.888015,119.722012 359.96875,118.283203 C361.049485,116.844394 361.589844,114.82944 361.589844,112.238281 C361.589844,109.920561 361.039719,108.042325 359.939453,106.603516 C358.839187,105.164706 357.377613,104.445312 355.554688,104.445312 C353.770824,104.445312 352.332037,105.154941 351.238281,106.574219 C350.144526,107.993497 349.597656,110.024726 349.597656,112.667969 L349.597656,112.667969 Z M58.171875,161.746094 L66.1015625,161.746094 L66.1015625,165.164062 L58.171875,165.164062 L58.171875,174.148438 L54.5390625,174.148438 L54.5390625,165.164062 L46.609375,165.164062 L46.609375,161.746094 L54.5390625,161.746094 L54.5390625,153.445312 L58.171875,153.445312 L58.171875,161.746094 Z M85.3789062,167.449219 L89.3242188,167.449219 L89.3242188,170.398438 L85.3789062,170.398438 L85.3789062,177 L81.7460938,177 L81.7460938,170.398438 L68.796875,170.398438 L68.796875,168.269531 L81.53125,148.5625 L85.3789062,148.5625 L85.3789062,167.449219 Z M72.8984375,167.449219 L81.7460938,167.449219 L81.7460938,153.503906 L81.3164062,154.285156 L72.8984375,167.449219 Z M107.839844,167.449219 L111.785156,167.449219 L111.785156,170.398438 L107.839844,170.398438 L107.839844,177 L104.207031,177 L104.207031,170.398438 L91.2578125,170.398438 L91.2578125,168.269531 L103.992188,148.5625 L107.839844,148.5625 L107.839844,167.449219 Z M95.359375,167.449219 L104.207031,167.449219 L104.207031,153.503906 L103.777344,154.285156 L95.359375,167.449219 Z M143.308594,150.59375 L131.53125,177 L127.742188,177 L139.480469,151.53125 L124.089844,151.53125 L124.089844,148.5625 L143.308594,148.5625 L143.308594,150.59375 Z M165.769531,150.59375 L153.992188,177 L150.203125,177 L161.941406,151.53125 L146.550781,151.53125 L146.550781,148.5625 L165.769531,148.5625 L165.769531,150.59375 Z M184.050781,148.542969 L184.050781,151.609375 L183.386719,151.609375 C180.574205,151.661459 178.334644,152.494784 176.667969,154.109375 C175.001294,155.723966 174.037762,157.996079 173.777344,160.925781 C175.274747,159.207023 177.318997,158.347656 179.910156,158.347656 C182.384127,158.347656 184.360019,159.220043 185.837891,160.964844 C187.315763,162.709644 188.054688,164.962226 188.054688,167.722656 C188.054688,170.652358 187.257169,172.996085 185.662109,174.753906 C184.067049,176.511728 181.928399,177.390625 179.246094,177.390625 C176.524726,177.390625 174.317717,176.345714 172.625,174.255859 C170.932283,172.166005 170.085938,169.473975 170.085938,166.179688 L170.085938,164.792969 C170.085938,159.558568 171.202463,155.557957 173.435547,152.791016 C175.668631,150.024075 178.992165,148.608073 183.40625,148.542969 L184.050781,148.542969 Z M179.304688,161.355469 C178.067702,161.355469 176.928391,161.726559 175.886719,162.46875 C174.845047,163.210941 174.122398,164.141921 173.71875,165.261719 L173.71875,166.589844 C173.71875,168.933605 174.246088,170.821607 175.300781,172.253906 C176.355474,173.686205 177.670565,174.402344 179.246094,174.402344 C180.873706,174.402344 182.15299,173.803391 183.083984,172.605469 C184.014979,171.407546 184.480469,169.838551 184.480469,167.898438 C184.480469,165.945303 184.008468,164.366542 183.064453,163.162109 C182.120438,161.957676 180.867195,161.355469 179.304688,161.355469 L179.304688,161.355469 Z M206.511719,148.542969 L206.511719,151.609375 L205.847656,151.609375 C203.035142,151.661459 200.795581,152.494784 199.128906,154.109375 C197.462231,155.723966 196.498699,157.996079 196.238281,160.925781 C197.735685,159.207023 199.779935,158.347656 202.371094,158.347656 C204.845064,158.347656 206.820956,159.220043 208.298828,160.964844 C209.7767,162.709644 210.515625,164.962226 210.515625,167.722656 C210.515625,170.652358 209.718107,172.996085 208.123047,174.753906 C206.527987,176.511728 204.389336,177.390625 201.707031,177.390625 C198.985663,177.390625 196.778654,176.345714 195.085938,174.255859 C193.393221,172.166005 192.546875,169.473975 192.546875,166.179688 L192.546875,164.792969 C192.546875,159.558568 193.6634,155.557957 195.896484,152.791016 C198.129568,150.024075 201.453103,148.608073 205.867188,148.542969 L206.511719,148.542969 Z M201.765625,161.355469 C200.52864,161.355469 199.389328,161.726559 198.347656,162.46875 C197.305984,163.210941 196.583335,164.141921 196.179688,165.261719 L196.179688,166.589844 C196.179688,168.933605 196.707026,170.821607 197.761719,172.253906 C198.816412,173.686205 200.131503,174.402344 201.707031,174.402344 C203.334644,174.402344 204.613928,173.803391 205.544922,172.605469 C206.475916,171.407546 206.941406,169.838551 206.941406,167.898438 C206.941406,165.945303 206.469406,164.366542 205.525391,163.162109 C204.581375,161.957676 203.328133,161.355469 201.765625,161.355469 L201.765625,161.355469 Z M229.949219,161.023438 L232.664062,161.023438 C234.3698,160.997396 235.710933,160.548181 236.6875,159.675781 C237.664067,158.803381 238.152344,157.625007 238.152344,156.140625 C238.152344,152.807275 236.492204,151.140625 233.171875,151.140625 C231.609367,151.140625 230.362635,151.586584 229.431641,152.478516 C228.500646,153.370447 228.035156,154.552076 228.035156,156.023438 L224.421875,156.023438 C224.421875,153.770822 225.245434,151.899096 226.892578,150.408203 C228.539722,148.91731 230.6328,148.171875 233.171875,148.171875 C235.85418,148.171875 237.957024,148.881503 239.480469,150.300781 C241.003914,151.720059 241.765625,153.692696 241.765625,156.21875 C241.765625,157.455735 241.365238,158.65364 240.564453,159.8125 C239.763668,160.97136 238.673184,161.837237 237.292969,162.410156 C238.855477,162.90495 240.063147,163.725255 240.916016,164.871094 C241.768884,166.016933 242.195312,167.416658 242.195312,169.070312 C242.195312,171.622409 241.361987,173.647128 239.695312,175.144531 C238.028638,176.641935 235.86069,177.390625 233.191406,177.390625 C230.522122,177.390625 228.35092,176.667976 226.677734,175.222656 C225.004549,173.777337 224.167969,171.869804 224.167969,169.5 L227.800781,169.5 C227.800781,170.997403 228.289058,172.195308 229.265625,173.09375 C230.242192,173.992192 231.550773,174.441406 233.191406,174.441406 C234.936207,174.441406 236.270829,173.985682 237.195312,173.074219 C238.119796,172.162756 238.582031,170.854175 238.582031,169.148438 C238.582031,167.494783 238.074224,166.225265 237.058594,165.339844 C236.042964,164.454423 234.578135,163.998698 232.664062,163.972656 L229.949219,163.972656 L229.949219,161.023438 Z M264.988281,164.871094 C264.988281,169.102886 264.265632,172.247386 262.820312,174.304688 C261.374993,176.361989 259.115901,177.390625 256.042969,177.390625 C253.009099,177.390625 250.763028,176.384776 249.304688,174.373047 C247.846347,172.361318 247.091146,169.356791 247.039062,165.359375 L247.039062,160.535156 C247.039062,156.355448 247.761712,153.25001 249.207031,151.21875 C250.652351,149.18749 252.917953,148.171875 256.003906,148.171875 C259.063817,148.171875 261.316399,149.151683 262.761719,151.111328 C264.207038,153.070973 264.949219,156.095032 264.988281,160.183594 L264.988281,164.871094 Z M261.375,159.929688 C261.375,156.869776 260.945317,154.639981 260.085938,153.240234 C259.226558,151.840488 257.865895,151.140625 256.003906,151.140625 C254.154939,151.140625 252.807296,151.837233 251.960938,153.230469 C251.114579,154.623705 250.678386,156.765611 250.652344,159.65625 L250.652344,165.4375 C250.652344,168.510432 251.098303,170.77929 251.990234,172.244141 C252.882166,173.708992 254.233064,174.441406 256.042969,174.441406 C257.826832,174.441406 259.151688,173.751309 260.017578,172.371094 C260.883468,170.990879 261.335937,168.816421 261.375,165.847656 L261.375,159.929688 Z M287.976562,150.59375 L276.199219,177 L272.410156,177 L284.148438,151.53125 L268.757812,151.53125 L268.757812,148.5625 L287.976562,148.5625 L287.976562,150.59375 Z M317.234375,167.449219 L321.179688,167.449219 L321.179688,170.398438 L317.234375,170.398438 L317.234375,177 L313.601562,177 L313.601562,170.398438 L300.652344,170.398438 L300.652344,168.269531 L313.386719,148.5625 L317.234375,148.5625 L317.234375,167.449219 Z M304.753906,167.449219 L313.601562,167.449219 L313.601562,153.503906 L313.171875,154.285156 L304.753906,167.449219 Z M341.6875,155.984375 C341.6875,157.403653 341.313155,158.666661 340.564453,159.773438 C339.815751,160.880214 338.803392,161.746091 337.527344,162.371094 C339.011726,163.009118 340.186845,163.940098 341.052734,165.164062 C341.918624,166.388027 342.351562,167.774732 342.351562,169.324219 C342.351562,171.785169 341.521493,173.744784 339.861328,175.203125 C338.201164,176.661466 336.016941,177.390625 333.308594,177.390625 C330.574205,177.390625 328.383472,176.65821 326.736328,175.193359 C325.089184,173.728508 324.265625,171.772148 324.265625,169.324219 C324.265625,167.787753 324.685543,166.401048 325.525391,165.164062 C326.365239,163.927077 327.527336,162.989587 329.011719,162.351562 C327.748692,161.726559 326.752608,160.860683 326.023438,159.753906 C325.294267,158.64713 324.929688,157.390632 324.929688,155.984375 C324.929688,153.58853 325.697909,151.687507 327.234375,150.28125 C328.770841,148.874993 330.79556,148.171875 333.308594,148.171875 C335.808606,148.171875 337.83007,148.874993 339.373047,150.28125 C340.916023,151.687507 341.6875,153.58853 341.6875,155.984375 L341.6875,155.984375 Z M338.738281,169.246094 C338.738281,167.657544 338.233729,166.361984 337.224609,165.359375 C336.21549,164.356766 334.897144,163.855469 333.269531,163.855469 C331.641919,163.855469 330.336593,164.350255 329.353516,165.339844 C328.370438,166.329432 327.878906,167.631502 327.878906,169.246094 C327.878906,170.860685 328.357417,172.130204 329.314453,173.054688 C330.271489,173.979171 331.602856,174.441406 333.308594,174.441406 C335.001311,174.441406 336.329422,173.975916 337.292969,173.044922 C338.256515,172.113928 338.738281,170.847664 338.738281,169.246094 L338.738281,169.246094 Z M333.308594,151.140625 C331.889316,151.140625 330.740239,151.580074 329.861328,152.458984 C328.982417,153.337895 328.542969,154.532545 328.542969,156.042969 C328.542969,157.488288 328.975907,158.656897 329.841797,159.548828 C330.707687,160.44076 331.863274,160.886719 333.308594,160.886719 C334.753913,160.886719 335.909501,160.44076 336.775391,159.548828 C337.64128,158.656897 338.074219,157.488288 338.074219,156.042969 C338.074219,154.597649 337.625004,153.419275 336.726562,152.507812 C335.828121,151.59635 334.688809,151.140625 333.308594,151.140625 L333.308594,151.140625 Z M360.75,164.5 C359.994788,165.398442 359.093104,166.121091 358.044922,166.667969 C356.99674,167.214846 355.847663,167.488281 354.597656,167.488281 C352.957023,167.488281 351.528001,167.084639 350.310547,166.277344 C349.093093,165.470048 348.152347,164.333992 347.488281,162.869141 C346.824215,161.40429 346.492188,159.786467 346.492188,158.015625 C346.492188,156.114574 346.853512,154.402351 347.576172,152.878906 C348.298832,151.355461 349.324212,150.190108 350.652344,149.382812 C351.980475,148.575517 353.529939,148.171875 355.300781,148.171875 C358.113295,148.171875 360.33007,149.223297 361.951172,151.326172 C363.572274,153.429047 364.382812,156.296857 364.382812,159.929688 L364.382812,160.984375 C364.382812,166.518257 363.289073,170.55793 361.101562,173.103516 C358.914052,175.649101 355.613303,176.954427 351.199219,177.019531 L350.496094,177.019531 L350.496094,173.972656 L351.257812,173.972656 C354.239598,173.920573 356.531242,173.142586 358.132812,171.638672 C359.734383,170.134758 360.60677,167.755225 360.75,164.5 L360.75,164.5 Z M355.183594,164.5 C356.394537,164.5 357.511063,164.12891 358.533203,163.386719 C359.555344,162.644528 360.300779,161.726568 360.769531,160.632812 L360.769531,159.1875 C360.769531,156.817696 360.255213,154.890632 359.226562,153.40625 C358.197912,151.921868 356.895841,151.179688 355.320312,151.179688 C353.731763,151.179688 352.455734,151.788405 351.492188,153.005859 C350.528641,154.223313 350.046875,155.828115 350.046875,157.820312 C350.046875,159.760426 350.512365,161.358718 351.443359,162.615234 C352.374354,163.871751 353.621086,164.5 355.183594,164.5 L355.183594,164.5 Z" id="-theo@cucumber.io" sketch:type="MSShapeGroup"></path>
                <path d="M34.8027344,8.3203125 L21.5019531,8.3203125 L21.5019531,45 L14.1484375,45 L14.1484375,8.3203125 L0.96484375,8.3203125 L0.96484375,2.34375 L34.8027344,2.34375 L34.8027344,8.3203125 Z M46.7265625,16.7578125 C49.0507929,14.0624865 51.9902166,12.7148438 55.5449219,12.7148438 C62.3027682,12.7148438 65.7304683,16.5722271 65.828125,24.2871094 L65.828125,45 L58.7089844,45 L58.7089844,24.5507812 C58.7089844,22.3632703 58.2353563,20.8154342 57.2880859,19.9072266 C56.3408156,18.9990189 54.9492279,18.5449219 53.1132812,18.5449219 C50.2617045,18.5449219 48.1328195,19.8144404 46.7265625,22.3535156 L46.7265625,45 L39.6074219,45 L39.6074219,0 L46.7265625,0 L46.7265625,16.7578125 Z M86.9804688,45.5859375 C82.4687274,45.5859375 78.8115375,44.1650533 76.0087891,41.3232422 C73.2060407,38.4814311 71.8046875,34.6972893 71.8046875,29.9707031 L71.8046875,29.0917969 C71.8046875,25.9277186 72.415033,23.1005984 73.6357422,20.6103516 C74.8564514,18.1201047 76.5703015,16.1816476 78.7773438,14.7949219 C80.984386,13.4081962 83.4452989,12.7148438 86.1601562,12.7148438 C90.4765841,12.7148438 93.8115117,14.0917831 96.1650391,16.8457031 C98.5185665,19.5996231 99.6953125,23.4960686 99.6953125,28.5351562 L99.6953125,31.40625 L78.9824219,31.40625 C79.1972667,34.0234506 80.0712814,36.0937424 81.6044922,37.6171875 C83.137703,39.1406326 85.0663946,39.9023438 87.390625,39.9023438 C90.6523601,39.9023438 93.3085835,38.5839976 95.359375,35.9472656 L99.1972656,39.609375 C97.927728,41.5039157 96.233409,42.9736276 94.1142578,44.0185547 C91.9951066,45.0634818 89.6172007,45.5859375 86.9804688,45.5859375 L86.9804688,45.5859375 Z M86.1308594,18.4277344 C84.1777246,18.4277344 82.6005919,19.1113213 81.3994141,20.4785156 C80.1982362,21.84571 79.4316423,23.7499878 79.0996094,26.1914062 L92.6640625,26.1914062 L92.6640625,25.6640625 C92.5078117,23.2812381 91.8730524,21.4794983 90.7597656,20.2587891 C89.6464788,19.0380798 88.1035255,18.4277344 86.1308594,18.4277344 L86.1308594,18.4277344 Z M103.884766,28.8574219 C103.884766,25.7519376 104.499994,22.954114 105.730469,20.4638672 C106.960944,17.9736204 108.689442,16.059577 110.916016,14.7216797 C113.142589,13.3837824 115.701157,12.7148438 118.591797,12.7148438 C122.869162,12.7148438 126.340807,14.0917831 129.006836,16.8457031 C131.672865,19.5996231 133.11328,23.2519304 133.328125,27.8027344 L133.357422,29.4726562 C133.357422,32.5976719 132.756842,35.3906127 131.555664,37.8515625 C130.354486,40.3125123 128.635753,42.2167901 126.399414,43.5644531 C124.163075,44.9121161 121.580093,45.5859375 118.650391,45.5859375 C114.177712,45.5859375 110.598646,44.0966946 107.913086,41.1181641 C105.227526,38.1396335 103.884766,34.1699467 103.884766,29.2089844 L103.884766,28.8574219 Z M111.003906,29.4726562 C111.003906,32.7343913 111.677728,35.2880767 113.025391,37.1337891 C114.373054,38.9795014 116.248035,39.9023438 118.650391,39.9023438 C121.052746,39.9023438 122.922845,38.9648531 124.260742,37.0898438 C125.59864,35.2148344 126.267578,32.4707212 126.267578,28.8574219 C126.267578,25.6542809 125.579108,23.1152437 124.202148,21.2402344 C122.825188,19.365225 120.95509,18.4277344 118.591797,18.4277344 C116.267567,18.4277344 114.421882,19.3505767 113.054688,21.1962891 C111.687493,23.0420014 111.003906,25.8007629 111.003906,29.4726562 L111.003906,29.4726562 Z M179.939453,25.9570312 L162.419922,25.9570312 L162.419922,39.0820312 L182.898438,39.0820312 L182.898438,45 L155.007812,45 L155.007812,2.34375 L182.693359,2.34375 L182.693359,8.3203125 L162.419922,8.3203125 L162.419922,20.0976562 L179.939453,20.0976562 L179.939453,25.9570312 Z M194.851562,13.3007812 L195.056641,16.9628906 C197.400402,14.1308452 200.476543,12.7148438 204.285156,12.7148438 C210.886752,12.7148438 214.246093,16.4941028 214.363281,24.0527344 L214.363281,45 L207.244141,45 L207.244141,24.4628906 C207.244141,22.4511618 206.809575,20.9619189 205.94043,19.9951172 C205.071285,19.0283155 203.6504,18.5449219 201.677734,18.5449219 C198.806626,18.5449219 196.667976,19.843737 195.261719,22.4414062 L195.261719,45 L188.142578,45 L188.142578,13.3007812 L194.851562,13.3007812 Z M220.369141,28.9160156 C220.369141,23.994116 221.526356,20.0634913 223.84082,17.1240234 C226.155285,14.1845556 229.226543,12.7148438 233.054688,12.7148438 C236.667987,12.7148438 239.509755,13.9745968 241.580078,16.4941406 L241.902344,13.3007812 L248.318359,13.3007812 L248.318359,44.0332031 C248.318359,48.1933802 247.024427,51.4745974 244.436523,53.8769531 C241.84862,56.2793089 238.357444,57.4804688 233.962891,57.4804688 C231.63866,57.4804688 229.368175,56.9970751 227.151367,56.0302734 C224.934559,55.0634717 223.250006,53.7988359 222.097656,52.2363281 L225.466797,47.9589844 C227.654308,50.5566536 230.349593,51.8554688 233.552734,51.8554688 C235.916027,51.8554688 237.781243,51.2158267 239.148438,49.9365234 C240.515632,48.6572202 241.199219,46.7773562 241.199219,44.296875 L241.199219,42.1582031 C239.148427,44.4433708 236.41408,45.5859375 232.996094,45.5859375 C229.285138,45.5859375 226.252941,44.1113429 223.899414,41.1621094 C221.545887,38.2128759 220.369141,34.1308854 220.369141,28.9160156 L220.369141,28.9160156 Z M227.458984,29.53125 C227.458984,32.7148597 228.108392,35.2197174 229.407227,37.0458984 C230.706061,38.8720794 232.507801,39.7851562 234.8125,39.7851562 C237.683608,39.7851562 239.812493,38.5546998 241.199219,36.09375 L241.199219,22.1484375 C239.851556,19.7460817 237.742202,18.5449219 234.871094,18.5449219 C232.527332,18.5449219 230.706061,19.472647 229.407227,21.328125 C228.108392,23.183603 227.458984,25.9179507 227.458984,29.53125 L227.458984,29.53125 Z M263.201172,45 L256.082031,45 L256.082031,0 L263.201172,0 L263.201172,45 Z M289.890625,45 C289.578123,44.3945282 289.304689,43.40821 289.070312,42.0410156 C286.804676,44.4043087 284.031266,45.5859375 280.75,45.5859375 C277.56639,45.5859375 274.96876,44.6777435 272.957031,42.8613281 C270.945302,41.0449128 269.939453,38.7988415 269.939453,36.1230469 C269.939453,32.7441237 271.194323,30.1513762 273.704102,28.3447266 C276.21388,26.5380769 279.802711,25.6347656 284.470703,25.6347656 L288.835938,25.6347656 L288.835938,23.5546875 C288.835938,21.9140543 288.376958,20.6005909 287.458984,19.6142578 C286.541011,18.6279248 285.144541,18.1347656 283.269531,18.1347656 C281.648429,18.1347656 280.320318,18.540035 279.285156,19.3505859 C278.249995,20.1611369 277.732422,21.1914 277.732422,22.4414062 L270.613281,22.4414062 C270.613281,20.7031163 271.189447,19.077156 272.341797,17.5634766 C273.494146,16.0497971 275.061514,14.8632855 277.043945,14.0039062 C279.026377,13.144527 281.238269,12.7148438 283.679688,12.7148438 C287.390644,12.7148438 290.349598,13.6474516 292.556641,15.5126953 C294.763683,17.377939 295.896484,19.9999831 295.955078,23.3789062 L295.955078,37.6757812 C295.955078,40.527358 296.355465,42.8027259 297.15625,44.5019531 L297.15625,45 L289.890625,45 Z M282.068359,39.8730469 C283.474616,39.8730469 284.797845,39.5312534 286.038086,38.8476562 C287.278327,38.1640591 288.210934,37.2460995 288.835938,36.09375 L288.835938,30.1171875 L284.998047,30.1171875 C282.361315,30.1171875 280.378913,30.5761673 279.050781,31.4941406 C277.72265,32.412114 277.058594,33.7109291 277.058594,35.390625 C277.058594,36.7578193 277.512691,37.8466756 278.420898,38.6572266 C279.329106,39.4677775 280.544914,39.8730469 282.068359,39.8730469 L282.068359,39.8730469 Z M310.017578,13.3007812 L310.222656,16.9628906 C312.566418,14.1308452 315.642559,12.7148438 319.451172,12.7148438 C326.052767,12.7148438 329.412109,16.4941028 329.529297,24.0527344 L329.529297,45 L322.410156,45 L322.410156,24.4628906 C322.410156,22.4511618 321.97559,20.9619189 321.106445,19.9951172 C320.2373,19.0283155 318.816416,18.5449219 316.84375,18.5449219 C313.972642,18.5449219 311.833991,19.843737 310.427734,22.4414062 L310.427734,45 L303.308594,45 L303.308594,13.3007812 L310.017578,13.3007812 Z M335.447266,28.9160156 C335.447266,24.0331787 336.580067,20.1123195 338.845703,17.1533203 C341.111339,14.1943211 344.148418,12.7148437 347.957031,12.7148437 C351.316423,12.7148437 354.03124,13.886707 356.101562,16.2304688 L356.101562,0 L363.220703,0 L363.220703,45 L356.775391,45 L356.423828,41.71875 C354.294911,44.2968879 351.453143,45.5859375 347.898438,45.5859375 C344.187481,45.5859375 341.184582,44.0918118 338.889648,41.1035156 C336.594715,38.1152194 335.447266,34.0527601 335.447266,28.9160156 L335.447266,28.9160156 Z M342.566406,29.53125 C342.566406,32.7539224 343.186517,35.2685457 344.426758,37.0751953 C345.666998,38.881845 347.429676,39.7851562 349.714844,39.7851562 C352.625015,39.7851562 354.7539,38.4863411 356.101562,35.8886719 L356.101562,22.3535156 C354.792962,19.8144404 352.683608,18.5449219 349.773438,18.5449219 C347.468738,18.5449219 345.691413,19.4579987 344.441406,21.2841797 C343.1914,23.1103607 342.566406,25.8593566 342.566406,29.53125 L342.566406,29.53125 Z" id="Theo-England" sketch:type="MSShapeGroup"></path>
            </g>
            <g id="Cucumber-logo" sketch:type="MSLayerGroup" transform="translate(90.000000, 90.000000)">
                <g id="g6053" sketch:type="MSShapeGroup">
                    <path d="M418.718234,69.6015101 C413.085253,69.6015101 409.517698,72.4328859 406.888974,76.7743289 C406.888974,75.6417785 407.452272,74.3204698 407.452272,73.3766779 L407.452272,71.489094 L398.063971,71.489094 L398.063971,118.678691 L407.452272,118.678691 L407.452272,91.4974832 C407.452272,83.7583893 411.583125,79.0394295 418.718234,79.0394295 L420.595894,79.0394295 L420.595894,69.6015101 L418.718234,69.6015101 L418.718234,69.6015101 Z" id="path5443" fill="#000000"></path>
                    <path d="M36.9899067,86.9672819 C34.3611824,82.8145973 30.6058619,79.9832215 25.1606472,79.9832215 C16.5234101,79.9832215 10.3271313,86.5897651 10.3271313,94.8951342 C10.3271313,103.200503 16.5234101,109.807047 25.1606472,109.807047 C30.6058619,109.807047 34.3611824,107.16443 36.9899067,103.011745 L45.6271438,108.108221 C41.4962913,114.526007 33.7978843,119.244966 25.1606472,119.244966 C9.20053518,119.244966 7.10542736e-15,107.16443 7.10542736e-15,95.0838926 C7.10542736e-15,83.0033557 9.3883012,70.9228188 25.1606472,70.9228188 C34.9244805,70.9228188 41.1207593,75.6417785 45.6271438,82.0595638 L36.9899067,86.9672819 L36.9899067,86.9672819 Z" id="path5445" fill="#000000"></path>
                    <path d="M53.8888489,72.0553691 L63.6526822,72.0553691 L63.6526822,97.7265101 C63.6526822,104.521812 68.5345988,109.240772 74.7308776,109.240772 C80.7393903,109.240772 85.809073,104.333054 85.809073,97.7265101 L85.809073,72.0553691 L95.5729062,72.0553691 L95.5729062,98.4815436 C95.5729062,111.317114 85.621307,119.056208 74.7308776,119.056208 C63.8404482,119.056208 53.8888489,111.317114 53.8888489,98.4815436 L53.8888489,72.0553691 L53.8888489,72.0553691 Z" id="path5447" fill="#000000"></path>
                    <path d="M141.387816,86.9672819 C138.759092,82.8145973 135.003771,79.9832215 129.558557,79.9832215 C120.921319,79.9832215 114.725041,86.5897651 114.725041,94.8951342 C114.725041,103.200503 120.921319,109.807047 129.558557,109.807047 C135.003771,109.807047 138.759092,107.16443 141.387816,103.011745 L150.025053,108.108221 C145.894201,114.526007 138.195794,119.244966 129.558557,119.244966 C113.598445,119.244966 104.397909,107.16443 104.397909,95.0838926 C104.397909,83.0033557 113.598445,70.9228188 129.558557,70.9228188 C139.32239,70.9228188 145.518669,75.6417785 150.025053,82.0595638 L141.387816,86.9672819 L141.387816,86.9672819 Z" id="path5449" fill="#000000"></path>
                    <path d="M158.286758,72.0553691 L168.050592,72.0553691 L168.050592,97.7265101 C168.050592,104.521812 172.932508,109.240772 179.128787,109.240772 C185.1373,109.240772 190.206982,104.333054 190.206982,97.7265101 L190.206982,72.0553691 L199.970816,72.0553691 L199.970816,98.4815436 C199.970816,111.317114 190.019216,119.056208 179.128787,119.056208 C168.238358,119.056208 158.286758,111.317114 158.286758,98.4815436 L158.286758,72.0553691 L158.286758,72.0553691 Z" id="path5451" fill="#000000"></path>
                    <path d="M212.175607,89.2323826 C212.175607,77.5293624 219.874014,70.9228188 228.886783,70.9228188 C235.834126,70.9228188 240.716043,74.3204698 242.593703,79.0394295 L242.781469,79.0394295 C244.659129,74.1317114 249.541046,70.9228188 256.488389,70.9228188 C265.501158,70.9228188 273.199565,77.7181208 273.199565,89.2323826 L273.199565,117.923658 L263.435732,117.923658 L263.435732,89.2323826 C263.435732,83.7583893 260.055943,80.5494966 255.925091,80.5494966 C251.23094,80.5494966 247.851152,83.3808725 247.851152,90.5536913 L247.851152,117.734899 L238.087319,117.734899 L238.087319,90.5536913 C238.087319,83.3808725 234.70753,80.5494966 230.013379,80.5494966 C225.882527,80.5494966 222.502739,83.7583893 222.502739,89.2323826 L222.502739,117.734899 L212.175607,117.734899 L212.175607,89.2323826 L212.175607,89.2323826 Z" id="path5453" fill="#000000"></path>
                    <path d="M285.216591,58.4647651 L294.980424,58.4647651 L294.980424,77.7181208 L295.16819,77.7181208 C297.421382,73.942953 303.617661,70.9228188 310.001706,70.9228188 C321.830965,70.9228188 333.660225,79.7944631 333.660225,95.0838926 C333.660225,110.373322 321.830965,119.244966 310.001706,119.244966 C303.617661,119.244966 297.421382,116.224832 295.16819,112.449664 L294.980424,112.449664 L294.980424,118.112416 L285.216591,118.112416 L285.216591,58.4647651 L285.216591,58.4647651 Z M309.062876,80.1719799 C300.988937,80.1719799 294.980424,86.5897651 294.980424,95.0838926 C294.980424,103.57802 300.988937,109.995805 309.062876,109.995805 C317.324581,109.995805 323.333093,103.57802 323.333093,95.0838926 C323.333093,86.4010067 317.324581,80.1719799 309.062876,80.1719799 L309.062876,80.1719799 Z" id="path5455" fill="#000000"></path>
                    <path d="M386.234711,107.919463 C380.789497,114.903523 373.278856,119.056208 365.017151,119.056208 C349.057039,119.056208 339.856504,106.975671 339.856504,94.8951342 C339.856504,82.8145973 349.244805,70.9228188 365.017151,70.9228188 C374.405452,70.9228188 388.67567,78.8506711 388.67567,96.5939597 L388.67567,98.2927852 L350.934699,98.2927852 C351.497997,105.276846 358.069808,110.373322 364.829385,110.373322 C370.086833,110.373322 374.593218,107.730705 377.973006,103.200503 L386.234711,107.919463 L386.234711,107.919463 Z M377.221942,90.1761745 C375.156516,83.1921141 370.086833,79.4169463 363.702789,79.4169463 C357.50651,79.4169463 352.436827,83.3808725 350.746933,90.1761745 L377.221942,90.1761745 L377.221942,90.1761745 Z" id="path5457" fill="#000000"></path>
                    <path d="M447.243798,0.741736158 C430.249972,0.741736158 416.497112,14.5672813 416.497112,31.6509224 C416.497112,46.6920176 427.222399,59.1896539 441.37611,61.9702387 L441.37611,70.8182882 C459.777357,68.0293792 476.070549,53.3451714 477.286362,34.0693893 C478.01818,22.466983 472.263705,10.6223286 462.558465,4.87082592 C462.002799,4.5415288 461.438245,4.21462173 460.856835,3.92703398 C460.264403,3.63399451 459.656051,3.34839211 459.037852,3.10121602 C458.841617,3.01869425 458.649337,2.94383381 458.451083,2.86526804 C457.911148,2.66489818 457.366334,2.4392664 456.80813,2.27539807 C453.799504,1.27851613 450.58333,0.741736158 447.243798,0.741736158 L447.243798,0.741736158 Z" id="path3943" fill="#00A818"></path>
                    <path d="M453.580902,12.1852135 C452.529119,12.0768247 451.421592,12.4447563 450.647057,13.3649534 C450.083759,14.119987 449.731698,14.8514258 449.356166,15.6064593 C448.22957,18.2490768 448.605102,21.0804526 450.294996,23.1567949 C452.92372,22.5905197 455.153442,20.9034916 456.280038,18.2608742 C456.65557,17.5058406 456.866807,16.5384539 456.866807,15.7834203 C456.984161,13.7778624 455.333874,12.3658611 453.580902,12.1852135 L453.580902,12.1852135 Z M439.909188,12.3621745 C438.194723,12.5262322 436.564606,13.8958364 436.564606,15.7834203 C436.564606,16.5384539 436.775842,17.5058406 437.151374,18.2608742 C438.277971,20.9034916 440.683723,22.5905197 443.312447,23.1567949 C444.814575,21.0804526 445.201843,18.2490768 444.075247,15.6064593 C443.699715,14.8514258 443.347653,14.1081896 442.784355,13.5419144 C442.00982,12.6217173 440.937868,12.26374 439.909188,12.3621745 L439.909188,12.3621745 Z M430.696917,21.446172 C427.736027,21.5989341 426.413505,25.3393138 428.877934,27.2858846 C429.628998,27.8521598 430.356591,28.2650688 431.107656,28.6425856 C433.73638,29.7751359 436.775842,29.3858217 439.029035,27.8757546 C438.465737,25.4218956 436.55287,23.1685923 433.924146,22.0360419 C432.985316,21.6585252 432.222516,21.446172 431.283686,21.446172 C431.072449,21.4225772 430.89431,21.435979 430.696917,21.446172 L430.696917,21.446172 Z M459.62462,32.8896493 C457.904654,32.8564656 456.162684,33.3615453 454.754439,34.3053372 C455.317737,36.7591963 457.230604,39.0124996 459.859328,40.1450499 C460.798158,40.5225667 461.560958,40.7349199 462.499788,40.7349199 C465.879576,40.9236783 467.534264,36.7238041 464.90554,34.8362202 C464.154476,34.2699451 463.426882,33.9160231 462.675818,33.5385063 C461.690047,33.1137999 460.656599,32.9095577 459.62462,32.8896493 L459.62462,32.8896493 Z M433.982823,33.0666103 C432.950843,33.0865243 431.917397,33.2907609 430.931625,33.7154673 C429.992795,34.0929841 429.265201,34.505893 428.701903,35.0721682 C426.260945,37.1485105 427.903898,41.1006393 431.283686,40.9118809 C432.222516,40.9118809 433.173082,40.6995277 433.924146,40.3220109 C436.55287,39.1894606 438.418795,36.9361573 438.794327,34.4822982 C437.386082,33.5385063 435.70279,33.0334304 433.982823,33.0666103 L433.982823,33.0666103 Z M443.488478,38.847336 C440.859753,39.4136112 438.630032,41.1006393 437.503436,43.7432567 C437.127904,44.4982903 436.916667,45.40669 436.916667,46.1617236 C436.728901,49.3706162 441.082726,51.0930365 442.960386,48.6391774 C443.523684,47.8841439 443.875745,47.1527051 444.251277,46.3976716 C445.377873,43.9438125 444.990606,41.1124367 443.488478,38.847336 L443.488478,38.847336 Z M450.471027,39.024297 C448.968899,41.1006393 448.581631,43.9320151 449.708227,46.5746326 C450.083759,47.3296661 450.435821,48.0729023 450.999119,48.6391774 C453.064545,50.9042781 457.406634,49.2290474 457.218868,46.3976716 C457.218868,45.642638 457.007631,44.6752513 456.632099,43.9202177 C455.505503,41.2776003 453.099751,39.5905721 450.471027,39.024297 L450.471027,39.024297 Z" id="rect4005" fill="#FFFFFF"></path>
                </g>
            </g>
        </g>
    </g>
</svg>