<?xml version="1.0" encoding="UTF-8" standalone="no"?>
<!-- Generator: Adobe Illustrator 18.0.0, SVG Export Plug-In . SVG Version: 6.00 Build 0)  -->

<svg
   xmlns:dc="http://purl.org/dc/elements/1.1/"
   xmlns:cc="http://creativecommons.org/ns#"
   xmlns:rdf="http://www.w3.org/1999/02/22-rdf-syntax-ns#"
   xmlns:svg="http://www.w3.org/2000/svg"
   xmlns="http://www.w3.org/2000/svg"
   xmlns:sodipodi="http://sodipodi.sourceforge.net/DTD/sodipodi-0.dtd"
   xmlns:inkscape="http://www.inkscape.org/namespaces/inkscape"
   version="1.1"
   id="Layer_1"
   x="0px"
   y="0px"
   viewBox="0 0 304 102"
   enable-background="new 0 0 304 102"
   xml:space="preserve"
   inkscape:version="0.48.2 r9819"
   width="100%"
   height="100%"
   sodipodi:docname="cucumber.svg"><metadata
   id="metadata5463"><rdf:RDF><cc:Work
       rdf:about=""><dc:format>image/svg+xml</dc:format><dc:type
         rdf:resource="http://purl.org/dc/dcmitype/StillImage" /><dc:title></dc:title></cc:Work></rdf:RDF></metadata><defs
   id="defs5461">
	
	
	
	
	
	
	
	
	
</defs><sodipodi:namedview
   pagecolor="#ffffff"
   bordercolor="#666666"
   borderopacity="1"
   objecttolerance="10"
   gridtolerance="10"
   guidetolerance="10"
   inkscape:pageopacity="0"
   inkscape:pageshadow="2"
   inkscape:window-width="1161"
   inkscape:window-height="772"
   id="namedview5459"
   showgrid="false"
   inkscape:zoom="1.6375104"
   inkscape:cx="271.54122"
   inkscape:cy="71.348771"
   inkscape:window-x="178"
   inkscape:window-y="3"
   inkscape:window-maximized="0"
   inkscape:current-layer="Layer_1" />

<g
   id="g6053"
   inkscape:export-filename="/Users/aslakhellesoy/github/cucumber-ltd/brand/png/cucumber.png"
   inkscape:export-xdpi="399.96573"
   inkscape:export-ydpi="399.96573"><path
     d="m 252,50.3 c -3,0 -4.9,1.5 -6.3,3.8 0,-0.6 0.3,-1.3 0.3,-1.8 v -1 h -5 v 25 h 5 V 61.9 c 0,-4.1 2.2,-6.6 6,-6.6 h 1 v -5 h -1 z"
     id="path5443"
     inkscape:connector-curvature="0" /><path
     d="m 48.7,59.5 c -1.4,-2.2 -3.4,-3.7 -6.3,-3.7 -4.6,0 -7.9,3.5 -7.9,7.9 0,4.4 3.3,7.9 7.9,7.9 2.9,0 4.9,-1.4 6.3,-3.6 l 4.6,2.7 C 51.1,74.1 47,76.6 42.4,76.6 33.9,76.6 29,70.2 29,63.8 29,57.4 34,51 42.4,51 c 5.2,0 8.5,2.5 10.9,5.9 l -4.6,2.6 z"
     id="path5445"
     inkscape:connector-curvature="0" /><path
     d="m 57.7,51.6 h 5.2 v 13.6 c 0,3.6 2.6,6.1 5.9,6.1 3.2,0 5.9,-2.6 5.9,-6.1 V 51.6 h 5.2 v 14 c 0,6.8 -5.3,10.9 -11.1,10.9 -5.8,0 -11.1,-4.1 -11.1,-10.9 v -14 z"
     id="path5447"
     inkscape:connector-curvature="0" /><path
     d="m 104.3,59.5 c -1.4,-2.2 -3.4,-3.7 -6.3,-3.7 -4.6,0 -7.9,3.5 -7.9,7.9 0,4.4 3.3,7.9 7.9,7.9 2.9,0 4.9,-1.4 6.3,-3.6 l 4.6,2.7 c -2.2,3.4 -6.3,5.9 -10.9,5.9 -8.5,0 -13.4,-6.4 -13.4,-12.8 0,-6.4 4.9,-12.8 13.4,-12.8 5.2,0 8.5,2.5 10.9,5.9 l -4.6,2.6 z"
     id="path5449"
     inkscape:connector-curvature="0" /><path
     d="m 113.3,51.6 h 5.2 v 13.6 c 0,3.6 2.6,6.1 5.9,6.1 3.2,0 5.9,-2.6 5.9,-6.1 V 51.6 h 5.2 v 14 c 0,6.8 -5.3,10.9 -11.1,10.9 -5.8,0 -11.1,-4.1 -11.1,-10.9 v -14 z"
     id="path5451"
     inkscape:connector-curvature="0" /><path
     d="m 142,60.7 c 0,-6.2 4.1,-9.7 8.9,-9.7 3.7,0 6.3,1.8 7.3,4.3 h 0.1 c 1,-2.6 3.6,-4.3 7.3,-4.3 4.8,0 8.9,3.6 8.9,9.7 v 15.2 h -5.2 V 60.7 c 0,-2.9 -1.8,-4.6 -4,-4.6 -2.5,0 -4.3,1.5 -4.3,5.3 v 14.4 h -5.2 V 61.4 c 0,-3.8 -1.8,-5.3 -4.3,-5.3 -2.2,0 -4,1.7 -4,4.6 V 75.8 H 142 V 60.7 z"
     id="path5453"
     inkscape:connector-curvature="0" /><path
     d="m 180.9,44.4 h 5.2 v 10.2 h 0.1 c 1.2,-2 4.5,-3.6 7.9,-3.6 6.3,0 12.6,4.7 12.6,12.8 0,8.1 -6.3,12.8 -12.6,12.8 -3.4,0 -6.7,-1.6 -7.9,-3.6 h -0.1 v 3 h -5.2 V 44.4 z m 12.7,11.5 c -4.3,0 -7.5,3.4 -7.5,7.9 0,4.5 3.2,7.9 7.5,7.9 4.4,0 7.6,-3.4 7.6,-7.9 0,-4.6 -3.2,-7.9 -7.6,-7.9 z"
     id="path5455"
     inkscape:connector-curvature="0" /><path
     d="m 234.7,70.6 c -2.9,3.7 -6.9,5.9 -11.3,5.9 -8.5,0 -13.4,-6.4 -13.4,-12.8 0,-6.4 5,-12.7 13.4,-12.7 5,0 12.6,4.2 12.6,13.6 v 0.9 h -20.1 c 0.3,3.7 3.8,6.4 7.4,6.4 2.8,0 5.2,-1.4 7,-3.8 l 4.4,2.5 z m -4.8,-9.4 c -1.1,-3.7 -3.8,-5.7 -7.2,-5.7 -3.3,0 -6,2.1 -6.9,5.7 h 14.1 z"
     id="path5457"
     inkscape:connector-curvature="0" /><g
     id="g6047"><g
       id="g5525"
       transform="translate(250.75458,13.257122)"><g
         style="display:inline"
         inkscape:label="bubble"
         id="layer1"><path
           inkscape:connector-curvature="0"
           id="path3943"
           d="m 16.4375,0.5625 c -9.0505334,0 -16.375,7.3244666 -16.375,16.375 0,7.968438 5.7120487,14.589408 13.25,16.0625 l 0,4.6875 C 23.112594,36.209998 31.789985,28.430631 32.4375,18.21875 32.82725,12.072053 29.762545,5.7970183 24.59375,2.75 24.297815,2.5755457 23.997146,2.4023576 23.6875,2.25 23.371984,2.0947542 23.047989,1.9434484 22.71875,1.8125 22.61424,1.7687818 22.511836,1.7291224 22.40625,1.6875 22.118693,1.5813485 21.828537,1.4618138 21.53125,1.375 19.928923,0.8468741 18.21606,0.5625 16.4375,0.5625 z"
           style="fill:#00a818;fill-opacity:1;stroke:none" /></g><path
         id="rect4005"
         d="m 19.8125,6.625 c -0.560156,-0.057422 -1.15,0.1375 -1.5625,0.625 -0.3,0.4 -0.4875,0.7875 -0.6875,1.1875 -0.6,1.4 -0.4,2.9 0.5,4 1.4,-0.3 2.5875,-1.19375 3.1875,-2.59375 0.2,-0.4 0.3125,-0.9125 0.3125,-1.3125 C 21.625,7.46875 20.746094,6.7207031 19.8125,6.625 z M 12.53125,6.71875 C 11.618164,6.8056641 10.75,7.53125 10.75,8.53125 c 0,0.4 0.1125,0.9125 0.3125,1.3125 0.6,1.4 1.88125,2.29375 3.28125,2.59375 0.8,-1.1 1.00625,-2.6 0.40625,-4 -0.2,-0.4 -0.3875,-0.79375 -0.6875,-1.09375 C 13.65,6.85625 13.079102,6.6666016 12.53125,6.71875 z M 7.625,11.53125 c -1.5769043,0.08093 -2.28125,2.0625 -0.96875,3.09375 0.4,0.3 0.7875,0.51875 1.1875,0.71875 1.4,0.6 3.01875,0.39375 4.21875,-0.40625 -0.3,-1.3 -1.31875,-2.49375 -2.71875,-3.09375 -0.5,-0.2 -0.90625,-0.3125 -1.40625,-0.3125 -0.1125,-0.0125 -0.207373,-0.0054 -0.3125,0 z m 15.40625,6.0625 c -0.916016,-0.01758 -1.84375,0.25 -2.59375,0.75 0.3,1.3 1.31875,2.49375 2.71875,3.09375 0.5,0.2 0.90625,0.3125 1.40625,0.3125 1.8,0.1 2.68125,-2.125 1.28125,-3.125 -0.4,-0.3 -0.7875,-0.4875 -1.1875,-0.6875 -0.525,-0.225 -1.075391,-0.333203 -1.625,-0.34375 z M 9.375,17.6875 c -0.5496094,0.01055 -1.1,0.11875 -1.625,0.34375 -0.5,0.2 -0.8875,0.41875 -1.1875,0.71875 -1.3,1.1 -0.425,3.19375 1.375,3.09375 0.5,0 1.00625,-0.1125 1.40625,-0.3125 1.4,-0.6 2.39375,-1.79375 2.59375,-3.09375 -0.75,-0.5 -1.646484,-0.767578 -2.5625,-0.75 z m 5.0625,3.0625 c -1.4,0.3 -2.5875,1.19375 -3.1875,2.59375 -0.2,0.4 -0.3125,0.88125 -0.3125,1.28125 -0.1,1.7 2.21875,2.6125 3.21875,1.3125 0.3,-0.4 0.4875,-0.7875 0.6875,-1.1875 0.6,-1.3 0.39375,-2.8 -0.40625,-4 z m 3.71875,0.09375 c -0.8,1.1 -1.00625,2.6 -0.40625,4 0.2,0.4 0.3875,0.79375 0.6875,1.09375 1.1,1.2 3.4125,0.3125 3.3125,-1.1875 0,-0.4 -0.1125,-0.9125 -0.3125,-1.3125 -0.6,-1.4 -1.88125,-2.29375 -3.28125,-2.59375 z"
         style="fill:#ffffff;fill-opacity:1;stroke:none"
         inkscape:connector-curvature="0" /></g></g></g></svg>