<?xml version="1.0" encoding="UTF-8" standalone="no"?>
<!-- Generator: Adobe Illustrator 18.0.0, SVG Export Plug-In . SVG Version: 6.00 Build 0)  -->

<svg
   xmlns:dc="http://purl.org/dc/elements/1.1/"
   xmlns:cc="http://creativecommons.org/ns#"
   xmlns:rdf="http://www.w3.org/1999/02/22-rdf-syntax-ns#"
   xmlns:svg="http://www.w3.org/2000/svg"
   xmlns="http://www.w3.org/2000/svg"
   xmlns:sodipodi="http://sodipodi.sourceforge.net/DTD/sodipodi-0.dtd"
   xmlns:inkscape="http://www.inkscape.org/namespaces/inkscape"
   viewBox="0 0 33 38"
   xml:space="preserve"
   width="100%"
   height="100%"
   id="svg2985"
   version="1.1"
   inkscape:version="0.48.2 r9819"
   sodipodi:docname="cucumber-mark-2.svg"><metadata
   id="metadata2992"><rdf:RDF><cc:Work
       rdf:about=""><dc:format>image/svg+xml</dc:format><dc:type
         rdf:resource="http://purl.org/dc/dcmitype/StillImage" /><dc:title></dc:title></cc:Work></rdf:RDF></metadata><defs
   id="defs2990" /><sodipodi:namedview
   pagecolor="#ffffff"
   bordercolor="#666666"
   borderopacity="1"
   objecttolerance="10"
   gridtolerance="10"
   guidetolerance="10"
   inkscape:pageopacity="0"
   inkscape:pageshadow="2"
   inkscape:window-width="1257"
   inkscape:window-height="858"
   id="namedview2988"
   showgrid="false"
   inkscape:zoom="12.421053"
   inkscape:cx="24.368309"
   inkscape:cy="18.719787"
   inkscape:window-x="38"
   inkscape:window-y="0"
   inkscape:window-maximized="0"
   inkscape:current-layer="svg2985" />
<path
   style="fill:#00a818"
   id="path2988"
   d="m 21.650006,1.3383511 c -3.2,-1.1 -6.7,-1.2 -10.4,-0.1 -5.1000004,1.5 -9.0000004,5.6 -10.50000042,10.7999999 -2.89999998,10 3.50000002,19.1 12.50000042,21.1 v 4.4 c 5,-0.5 9.4,-2.7 13.3,-6.5 1.3,-1.3 2.3,-2.7 3.2,-4.2 1.8,-2.9 2.9,-6 3.2,-9.1 0.2,-7.6 -4.6,-14.0999999 -11.3,-16.3999999 z m -7.6,6 c 0.3,0.3 0.5,0.7 0.7,1.1 0.6,1.4 0.4,2.8999999 -0.4,3.9999999 -1.4,-0.3 -2.7,-1.2 -3.3,-2.5999999 -0.2,-0.4 -0.3,-0.9 -0.3,-1.3 0,-1.6 2.2,-2.5 3.3,-1.2 z M 7.9500056,11.538351 c 0.5,0 0.9,0.1 1.4,0.3 1.4000004,0.6 2.4000004,1.8 2.7000004,3.1 -1.2,0.8 -2.8000004,1 -4.2000004,0.4 -0.4,-0.2 -0.8,-0.4 -1.2,-0.7 -1.4,-1.1 -0.5,-3.3 1.3,-3.1 z m 1.4,10 c -0.4,0.2 -0.9,0.3 -1.4,0.3 -1.8,0.1 -2.7,-2 -1.4,-3.1 0.3,-0.3 0.7,-0.5 1.2,-0.7 1.4,-0.6 3.0000004,-0.4 4.2000004,0.4 -0.2,1.3 -1.2,2.5 -2.6000004,3.1 z m 1.6000004,3.1 c 0,-0.4 0.1,-0.9 0.3,-1.3 0.6,-1.4 1.8,-2.3 3.2,-2.6 0.8,1.2 1,2.7 0.4,4 -0.2,0.4 -0.4,0.8 -0.7,1.2 -1,1.3 -3.3,0.4 -3.2,-1.3 z m 6.6,-16.1999999 c 0.2,-0.4 0.4,-0.8 0.7,-1.2 1.1,-1.3 3.4,-0.4 3.3,1.3 0,0.4 -0.1,0.9 -0.3,1.3 -0.6,1.3999999 -1.8,2.2999999 -3.2,2.5999999 -0.9,-1.1 -1.1,-2.5999999 -0.5,-3.9999999 z m 0.9,17.4999999 c -0.3,-0.3 -0.5,-0.7 -0.7,-1.1 -0.6,-1.4 -0.4,-2.9 0.4,-4 1.4,0.3 2.7,1.2 3.3,2.6 0.2,0.4 0.3,0.9 0.3,1.3 0.1,1.5 -2.2,2.4 -3.3,1.2 z m 6.1,-4.2 c -0.5,0 -0.9,-0.1 -1.4,-0.3 -1.4,-0.6 -2.4,-1.8 -2.7,-3.1 1.2,-0.8 2.8,-1 4.2,-0.4 0.4,0.2 0.8,0.4 1.2,0.7 1.4,1 0.5,3.2 -1.3,3.1 z" />
<g
   inkscape:groupmode="layer"
   id="layer1"
   inkscape:label="circle"
   style="display:inline"><path
     sodipodi:type="arc"
     style="fill:none;stroke:#000000;stroke-width:0.00451605;stroke-linecap:butt;stroke-linejoin:miter;stroke-miterlimit:4;stroke-opacity:1;stroke-dasharray:none"
     id="path3943"
     sodipodi:cx="6.1482334"
     sodipodi:cy="7.6004009"
     sodipodi:rx="0.74006516"
     sodipodi:ry="0.74006516"
     d="m 6.8882986,7.6004009 a 0.74006516,0.74006516 0 1 1 -1.4801303,0 0.74006516,0.74006516 0 1 1 1.4801303,0 z"
     transform="matrix(22.14324,0,0,22.14324,-119.69181,-151.3475)" /></g><g
   inkscape:groupmode="layer"
   id="layer2"
   inkscape:label="spiral"
   style="display:inline"><path
     sodipodi:type="spiral"
     style="fill:none;stroke:#000000;stroke-width:0.00696273;stroke-linecap:butt;stroke-linejoin:miter;stroke-miterlimit:4;stroke-opacity:1;stroke-dasharray:none"
     id="path3945"
     sodipodi:cx="13.833526"
     sodipodi:cy="14.317915"
     sodipodi:expansion="5"
     sodipodi:revolution="3.7267725"
     sodipodi:radius="1.6910315"
     sodipodi:argument="-21.784473"
     sodipodi:t0="0.74129617"
     d="m 13.726694,14.681066 c -0.275895,-0.0016 -0.460375,-0.269939 -0.453186,-0.527897 0.01155,-0.414316 0.416034,-0.6878 0.805446,-0.669533 0.603406,0.0283 0.99749,0.619596 0.961367,1.189294 -0.04435,0.69939 -0.638246,1.231708 -1.309433,1.332899"
     transform="matrix(14.601128,0,0,14.601128,-187.18318,-196.01017)" /></g></svg>