<?xml version="1.0" encoding="UTF-8" standalone="no"?>
<!-- Generator: Adobe Illustrator 18.0.0, SVG Export Plug-In . SVG Version: 6.00 Build 0)  -->

<svg
   xmlns:dc="http://purl.org/dc/elements/1.1/"
   xmlns:cc="http://creativecommons.org/ns#"
   xmlns:rdf="http://www.w3.org/1999/02/22-rdf-syntax-ns#"
   xmlns:svg="http://www.w3.org/2000/svg"
   xmlns="http://www.w3.org/2000/svg"
   xmlns:sodipodi="http://sodipodi.sourceforge.net/DTD/sodipodi-0.dtd"
   xmlns:inkscape="http://www.inkscape.org/namespaces/inkscape"
   viewBox="0 0 33 38"
   xml:space="preserve"
   width="100%"
   height="100%"
   id="svg2985"
   version="1.1"
   inkscape:version="0.48.2 r9819"
   sodipodi:docname="cucumber-mark-2.svg"><metadata
   id="metadata2992"><rdf:RDF><cc:Work
       rdf:about=""><dc:format>image/svg+xml</dc:format><dc:type
         rdf:resource="http://purl.org/dc/dcmitype/StillImage" /><dc:title></dc:title></cc:Work></rdf:RDF></metadata><defs
   id="defs2990" /><sodipodi:namedview
   pagecolor="#ffffff"
   bordercolor="#666666"
   borderopacity="1"
   objecttolerance="10"
   gridtolerance="10"
   guidetolerance="10"
   inkscape:pageopacity="0"
   inkscape:pageshadow="2"
   inkscape:window-width="1257"
   inkscape:window-height="856"
   id="namedview2988"
   showgrid="false"
   inkscape:zoom="12.421053"
   inkscape:cx="21.832292"
   inkscape:cy="18.719787"
   inkscape:window-x="38"
   inkscape:window-y="0"
   inkscape:window-maximized="0"
   inkscape:current-layer="layer1" />
<path
   style="fill:#00a818"
   id="path2988"
   d="m 21.650006,1.3383511 c -3.2,-1.1 -6.7,-1.2 -10.4,-0.1 -5.1000004,1.5 -9.0000004,5.6 -10.50000042,10.7999999 -2.89999998,10 3.50000002,19.1 12.50000042,21.1 v 4.4 c 5,-0.5 9.4,-2.7 13.3,-6.5 1.3,-1.3 2.3,-2.7 3.2,-4.2 1.8,-2.9 2.9,-6 3.2,-9.1 0.2,-7.6 -4.6,-14.0999999 -11.3,-16.3999999 z m -7.6,6 c 0.3,0.3 0.5,0.7 0.7,1.1 0.6,1.4 0.4,2.8999999 -0.4,3.9999999 -1.4,-0.3 -2.7,-1.2 -3.3,-2.5999999 -0.2,-0.4 -0.3,-0.9 -0.3,-1.3 0,-1.6 2.2,-2.5 3.3,-1.2 z M 7.9500056,11.538351 c 0.5,0 0.9,0.1 1.4,0.3 1.4000004,0.6 2.4000004,1.8 2.7000004,3.1 -1.2,0.8 -2.8000004,1 -4.2000004,0.4 -0.4,-0.2 -0.8,-0.4 -1.2,-0.7 -1.4,-1.1 -0.5,-3.3 1.3,-3.1 z m 1.4,10 c -0.4,0.2 -0.9,0.3 -1.4,0.3 -1.8,0.1 -2.7,-2 -1.4,-3.1 0.3,-0.3 0.7,-0.5 1.2,-0.7 1.4,-0.6 3.0000004,-0.4 4.2000004,0.4 -0.2,1.3 -1.2,2.5 -2.6000004,3.1 z m 1.6000004,3.1 c 0,-0.4 0.1,-0.9 0.3,-1.3 0.6,-1.4 1.8,-2.3 3.2,-2.6 0.8,1.2 1,2.7 0.4,4 -0.2,0.4 -0.4,0.8 -0.7,1.2 -1,1.3 -3.3,0.4 -3.2,-1.3 z m 6.6,-16.1999999 c 0.2,-0.4 0.4,-0.8 0.7,-1.2 1.1,-1.3 3.4,-0.4 3.3,1.3 0,0.4 -0.1,0.9 -0.3,1.3 -0.6,1.3999999 -1.8,2.2999999 -3.2,2.5999999 -0.9,-1.1 -1.1,-2.5999999 -0.5,-3.9999999 z m 0.9,17.4999999 c -0.3,-0.3 -0.5,-0.7 -0.7,-1.1 -0.6,-1.4 -0.4,-2.9 0.4,-4 1.4,0.3 2.7,1.2 3.3,2.6 0.2,0.4 0.3,0.9 0.3,1.3 0.1,1.5 -2.2,2.4 -3.3,1.2 z m 6.1,-4.2 c -0.5,0 -0.9,-0.1 -1.4,-0.3 -1.4,-0.6 -2.4,-1.8 -2.7,-3.1 1.2,-0.8 2.8,-1 4.2,-0.4 0.4,0.2 0.8,0.4 1.2,0.7 1.4,1 0.5,3.2 -1.3,3.1 z" />
<g
   inkscape:groupmode="layer"
   id="layer1"
   inkscape:label="bubble"
   style="display:inline"><path
     style="fill:#000000;fill-opacity:1;stroke:#000000;stroke-width:0.09999999;stroke-linecap:butt;stroke-linejoin:miter;stroke-miterlimit:4;stroke-opacity:1;stroke-dasharray:none"
     d="m 16.4375,0.5625 c -9.0505334,0 -16.375,7.3244666 -16.375,16.375 0,7.968438 5.7120487,14.589408 13.25,16.0625 l 0,4.6875 C 23.112594,36.209998 31.789985,28.430631 32.4375,18.21875 32.82725,12.072053 29.762545,5.7970183 24.59375,2.75 24.297815,2.5755457 23.997146,2.4023576 23.6875,2.25 23.371984,2.0947542 23.047989,1.9434484 22.71875,1.8125 22.61424,1.7687818 22.511836,1.7291224 22.40625,1.6875 22.118693,1.5813485 21.828537,1.4618138 21.53125,1.375 19.928923,0.8468741 18.21606,0.5625 16.4375,0.5625 z"
     id="path3943"
     inkscape:connector-curvature="0" /></g></svg>