<?xml version="1.0" encoding="UTF-8" standalone="no"?>
<svg width="245px" height="104px" viewBox="0 0 245 104" version="1.1" xmlns="http://www.w3.org/2000/svg" xmlns:xlink="http://www.w3.org/1999/xlink">
    <!-- Generator: Sketch 39.1 (31720) - http://www.bohemiancoding.com/sketch -->
    <title>Group</title>
    <desc>Created with Sketch.</desc>
    <defs></defs>
    <g id="Page-1" stroke="none" stroke-width="1" fill="none" fill-rule="evenodd">
        <g id="cukeup">
            <g id="Group">
                <polygon id="Shape" points="0 0 245 0 245 104 0 104"></polygon>
                <path d="M205.192,14.82 C196.142,14.82 188.817,22.144 188.817,31.195 C188.817,39.163 194.529,45.784 202.067,47.257 L202.067,51.945 C211.867,50.467 220.545,42.688 221.192,32.475 C221.582,26.329 218.517,20.055 213.348,17.007 C213.052378,16.8290283 212.750165,16.6622437 212.442,16.507 C212.127,16.352 211.802,16.201 211.473,16.07 C211.369,16.026 211.266,15.986 211.161,15.945 C210.873,15.838 210.583,15.719 210.286,15.632 C208.64208,15.091772 206.922408,14.8176508 205.192,14.82 L205.192,14.82 Z" id="Shape" fill="#00A818"></path>
                <path d="M208.567,20.882 C207.974695,20.8168793 207.388899,21.0512725 207.005,21.507 C206.705,21.907 206.517,22.295 206.317,22.695 C205.717,24.095 205.917,25.595 206.817,26.695 C208.217,26.395 209.405,25.501 210.005,24.101 C210.205,23.701 210.317,23.188 210.317,22.788 C210.38,21.726 209.501,20.978 208.567,20.882 L208.567,20.882 Z M201.286,20.976 C200.373,21.063 199.505,21.788 199.505,22.788 C199.505,23.188 199.617,23.701 199.817,24.101 C200.417,25.501 201.698,26.395 203.098,26.695 C203.898,25.595 204.105,24.095 203.505,22.695 C203.305,22.295 203.117,21.901 202.817,21.601 C202.44273,21.1505191 201.868604,20.9161437 201.286,20.976 L201.286,20.976 Z M196.38,25.788 C194.803,25.869 194.098,27.851 195.41,28.882 C195.81,29.182 196.198,29.401 196.598,29.601 C197.998,30.201 199.618,29.995 200.818,29.195 C200.518,27.895 199.498,26.701 198.098,26.101 C197.598,25.901 197.192,25.788 196.692,25.788 C196.58,25.776 196.485,25.783 196.38,25.788 L196.38,25.788 Z M211.786,31.851 C210.865561,31.8342613 209.96149,32.0956542 209.192,32.601 C209.492,33.901 210.511,35.095 211.911,35.695 C212.411,35.895 212.817,36.007 213.317,36.007 C215.117,36.107 215.998,33.882 214.598,32.882 C214.198,32.582 213.811,32.395 213.411,32.195 C212.896685,31.9762988 212.344819,31.8594731 211.786,31.851 L211.786,31.851 Z M198.13,31.945 C197.58,31.955 197.03,32.063 196.505,32.288 C196.005,32.488 195.617,32.708 195.317,33.008 C194.017,34.108 194.892,36.201 196.692,36.101 C197.192,36.101 197.698,35.988 198.098,35.788 C199.498,35.188 200.492,33.995 200.692,32.695 C199.934193,32.190167 199.040415,31.9285223 198.13,31.945 L198.13,31.945 Z M203.192,35.007 C201.792,35.307 200.605,36.201 200.005,37.601 C199.805,38.001 199.692,38.482 199.692,38.882 C199.592,40.582 201.911,41.495 202.911,40.195 C203.211,39.795 203.398,39.407 203.598,39.007 C204.198,37.707 203.992,36.207 203.192,35.007 L203.192,35.007 Z M206.911,35.101 C206.111,36.201 205.905,37.701 206.505,39.101 C206.705,39.501 206.892,39.895 207.192,40.195 C208.292,41.395 210.605,40.507 210.505,39.007 C210.505,38.607 210.392,38.095 210.192,37.695 C209.592,36.295 208.311,35.401 206.911,35.101 L206.911,35.101 Z" id="Shape" fill="#FFFFFF"></path>
                <g id="™" transform="translate(217.000000, 13.000000)" font-size="10" font-family="Roboto" fill="#00A818" font-weight="normal">
                    <text>
                        <tspan x="0.373" y="9">™</tspan>
                    </text>
                </g>
                <text id="cukeup" font-family="Insignia LT Std" font-size="50" font-weight="normal" fill="#000000">
                    <tspan x="24.725" y="76.5">cukeup</tspan>
                </text>
            </g>
        </g>
    </g>
</svg>
